<?xml version="1.0" encoding="UTF-8"?>
<svg id="Layer_1" xmlns="http://www.w3.org/2000/svg" version="1.1" viewBox="0 0 200 200">
  <!-- Generator: Adobe Illustrator 29.1.0, SVG Export Plug-In . SVG Version: 2.1.0 Build 142)  -->
  <defs>
    <style>
      .st0 {
        fill: #d1703c;
      }
    </style>
  </defs>
  <g id="search">
    <path class="st0" d="M94.4000015,137.3999939c24.2000046,0,43.9000015-19.5999985,43.9000015-43.9000015s-19.5999985-43.9000015-43.9000015-43.9000015-43.9000015,19.7000122-43.9000015,43.9000092,19.6999969,43.8999939,43.9000015,43.8999939ZM94.4000015,62.2000008c17.2999954,0,31.2999954,13.9999962,31.2999954,31.2999992s-14,31.3000031-31.3000031,31.3000031-31.2999992-14-31.2999992-31.3000031,14.0000038-31.2999992,31.3000069-31.2999992Z"/>
    <path class="st0" d="M144.6000061,149.8999939c1.6999969,0,3.3000031-.6000061,4.3999939-1.8000031,2.5-2.3999939,2.5-6.3999939,0-8.8999939h0l-23.5999985-23.5999985c-2.5-2.5-6.5999985-2.4000015-9.0999985.1999969-2.5,2.5-2.4000015,6.5999985.1999969,9.0999985l23.6000061,23.3000031c1.1999969,1.1000061,2.7999878,1.6999969,4.5,1.6999969h0Z"/>
  </g>
</svg>