<?xml version="1.0" encoding="UTF-8"?>
<svg id="Layer_1" xmlns="http://www.w3.org/2000/svg" version="1.1" viewBox="0 0 997.2999878 705.0999756">
  <!-- Generator: Adobe Illustrator 29.4.0, SVG Export Plug-In . SVG Version: 2.1.0 Build 152)  -->
  <defs>
    <style>
      .st0 {
        fill: #f9cb8f;
      }
    </style>
  </defs>
  <path class="st0" d="M52.2999992,230.3999939c-8.6000023,0-15.6000023-1.1999969-20.7999992-3.5-5.2999992-2.3999939-9.2999992-5.5-12.1000004-9.5-2.7999992-4-4.6999998-8.6000061-5.6999998-13.8000031s-1.5-10.5-1.5-16.1000061V0h28.000001v184.6999969c0,8,1.5999985,14,4.7000008,18s7.5,6.1999969,13.0999985,6.6000061l8.5999985.1999969v18.3999939c-2.4000015.6999969-4.7999992,1.3000031-7.4000015,1.8000031-2.5999985.5-4.9000015.6999969-6.8999977.6999969Z"/>
  <path class="st0" d="M98.6999969,155.5c0,10,1.6999969,19.1000061,5,27.3000031,3.3000031,8.1000061,8.4000015,14.6000061,15.1999969,19.3999939,6.8000031,4.8000031,15.3999939,7.1999969,25.6000061,7.1999969s18.8999939-2.3999939,26.1999969-7.1000061c7.3000031-4.6999969,12-11.5,14.1000061-20.5h26.8999939c-2,10.8000031-6.3000031,19.8000031-12.8999939,27.1999969-6.6999969,7.3999939-14.6999969,12.8999939-24.1000061,16.6999969-9.3999939,3.6999969-19.3000031,5.6000061-29.5,5.6000061-14.8000031,0-27.9000015-3.1999969-39.1999969-9.6999969-11.3000031-6.5-20.0999985-15.6999969-26.4000015-27.8000031s-9.5-26.6000061-9.5-43.5,2.9000015-31.4000015,8.5999985-44,14.0999985-22.4000015,25-29.5,24.0999985-10.5999985,39.4000092-10.5999985,27.6000061,3.1999969,38,9.6999969c10.3000031,6.4000015,18.1999969,15.5,23.6000061,27.2999954,5.3999939,11.6999969,8.1000061,25.6000061,8.1000061,41.6999969v10.3999939h-113.9000015l-.2000198.2000275ZM98.9000015,136.3000031h86.4000015c0-9.0999985-1.5-17.3000031-4.6000061-24.5999985-3.1000061-7.3000031-7.8000031-13.0999985-14.1000061-17.4000015s-14.1999969-6.4000015-23.6999969-6.4000015-18.1999969,2.4000015-24.6999969,7.0999985c-6.5,4.8000031-11.4000015,10.9000015-14.5999985,18.3000031s-4.8000031,15.1000061-4.6999969,23Z"/>
  <path class="st0" d="M309.1000061,90.1999969h-35.7999878v98.8000031c0,5.6000061.6000061,9.8000031,1.7999878,12.3999939,1.2000122,2.6000061,3.2000122,4.3000031,6,5s6.7000122,1.1000061,11.6000061,1.1000061h17.3999939v19c-1.8999939.6999969-4.8999939,1.3000031-8.7999878,1.8999939-3.8999939.5-8.7999878.8000031-14.7000122.8000031-11,0-19.5-1.5-25.5-4.5s-10.3000031-7.3999939-12.6999969-13.1999969-3.6000061-13-3.6000061-21.5v-99.8000031h-25.8000031v-20.8000031h26.6000061l6.8999939-46.2999992h20.8999939v46.1000023h35.7999878v20.9000015l-.0999756.0999985Z"/>
  <path class="st0" d="M316.6000061,78.6999969l17.1000061-38.0999985-13.2000122-.7999992V6.0999999h35.5v29.4999986l-26.1000061,43h-13.2000122l-.0999756.0999985Z"/>
  <path class="st0" d="M427.1000061,231.5c-11.1000061,0-21.2999878-1.6999969-30.7999878-5.1000061-9.5-3.3999939-17.2999878-8.8000031-23.6000061-16.1000061-6.2999878-7.3000031-10.2000122-16.6999969-11.7999878-28h25.7999878c1.3999939,6.3000031,4,11.5,7.7999878,15.6000061s8.3999939,7.3000031,14.1000061,9.3999939c5.6000061,2.1000061,11.7999878,3.1000061,18.5,3.1000061,10.7000122,0,19.2999878-2,25.7999878-6,6.6000061-4,9.7999878-10.1000061,9.7999878-18.3999939s-1.7000122-10.5-5.1000061-14.1000061c-3.3999939-3.5-8.7000122-6.1000061-15.8999939-7.8000031l-32.8999939-8.1000061c-12.7999878-3.1000061-23.1000061-7.8999939-30.7999878-14.3999939-7.7000122-6.6000061-11.5-15.6999969-11.5-27.5,0-9.3000031,2.1000061-17.5,6.6000061-24.5999985s11.2999878-12.6999969,20.2999878-16.7999954,20.2000122-6.0999985,33.7000122-6.0999985,31.1000061,3.9000015,41.7000122,11.5999985,16.1000061,19.0999985,16.5,34h-25.1000061c-1-7.5999985-4.3999939-13.5999985-10.2000122-18.0999985-5.7999878-4.5-13.5-6.6999969-23.2999878-6.6999969s-18.3999939,2-24.7999878,6.0999985c-6.2999878,4-9.5,10.3000031-9.5,18.8000031s2.2999878,10.0999985,6.7999878,13.3000031c4.5,3.1999969,11.2000122,5.8999939,20,8.1000061l31.7999878,8c7.3999939,1.8999939,13.5,4.5,18.2000122,7.6999969,4.7999878,3.1999969,8.5,6.6999969,11.3999939,10.6000061,2.7999878,3.8999939,4.7999878,8,6,12.1999969,1.2000122,4.3000031,1.7999878,8.3000031,1.7999878,12.1999969,0,9.6999969-2.3999939,18.1000061-7.2999878,25.1000061s-11.7999878,12.3999939-20.8999939,16.3000031c-9.1000061,3.8000031-20,5.8000031-33,5.8000031l-.1000061-.1000214Z"/>
  <path class="st0" d="M95.0999985,325.7999878h-35.7999992v98.7999878c0,5.6000061.5999985,9.7999878,1.7999992,12.3999939s3.1999969,4.2999878,6,5,6.6999969,1.1000061,11.5999985,1.1000061h17.4000015v19c-1.9000015.7000122-4.9000015,1.2999878-8.8000031,1.8999939-3.9000015.5-8.8000031.7999878-14.6999969.7999878-11,0-19.5-1.5-25.5-4.5s-10.2999992-7.3999939-12.7000008-13.2000122c-2.3999996-5.7999878-3.6000004-13-3.6000004-21.5v-99.8000183H4.8000002v-20.7999878h26.6000013l6.9000015-46.2999878h20.9000015v46.1000061h35.7999954v20.8999939l.0999985.1000366Z"/>
  <path class="st0" d="M154.6999969,467.1000061c-10.3000031,0-19.3000031-1.7999878-27.1999969-5.5-7.9000015-3.6000061-14.0999985-8.8999939-18.5-15.7999878-4.5-6.8999939-6.6999969-15.2000122-6.6999969-24.8999939,0-17.6000061,6.0999985-30.7000122,18.4000015-39.2999878,12.2999954-8.6000061,32.0000076-13.2000122,59.2000046-13.7999878l28.3999939-.7999878v-12.3999939c0-9.7000122-2.8999939-17.3999939-8.8000031-23.1000061-5.8000031-5.7000122-14.8999939-8.5-27.1999969-8.5-9.1000061,0-17.1000061,2.2999878-24.1000061,6.5-6.8999939,4.2000122-11.3999939,11.1000061-13.3999939,20.6000061h-25.0999985c.5999985-10.2999878,3.5-19.1000061,8.8000031-26.2000122,5.1999969-7.1000061,12.4999924-12.5,21.9000015-16.2000122,9.3999939-3.7000122,20.5-5.5,33.3000031-5.5s25.3000031,1.8999939,34.5,5.7999878,16,9.6000061,20.6000061,17.2000122,6.8000031,16.8999939,6.8000031,28v111h-24.3000031l-2-29.7999878c-6.1999969,12.3999939-14,21-23.5,25.7999878s-19.8999939,7.1000061-31.3000031,7.1000061l.1999817-.2000427ZM163.3000031,446.6000061c5.3000031,0,10.6000061-1,15.8999939-2.8999939,5.3000031-1.8999939,10.1000061-4.6000061,14.5-7.8999939s7.8999939-7.1000061,10.5-11.2000122c2.6000061-4.2000122,4-8.3999939,4.1000061-12.7999878v-27.2000122l-23.6999969.5c-12.1000061.2000122-22.1999969,1.3999939-30.3999939,3.7000122-8.1000061,2.2999878-14.1999969,5.7999878-18.3000031,10.6000061-4,4.7999878-6.1000061,11.1000061-6.1000061,18.8999939s3.1000061,15.8999939,9.3000031,20.8999939,14.1999969,7.5,24.1000061,7.5l.0999908-.1000061Z"/>
  <path class="st0" d="M299.1000061,466c-8.6000061,0-15.6000061-1.2000122-20.7999878-3.5-5.2999878-2.3999939-9.2999878-5.5-12.1000061-9.5-2.7999878-4-4.7000122-8.6000061-5.7000122-13.7999878-1-5.2000122-1.5-10.5-1.5-16.1000061v-187.5h28v184.6999817c0,8,1.6000061,14,4.7000122,18s7.5,6.2000122,13.1000061,6.6000061l8.6000061.2000122v18.3999939c-2.3999939.7000122-4.7999878,1.2999878-7.3999939,1.7999878s-4.8999939.7000122-6.8999939.7000122h-.0000305Z"/>
  <path class="st0" d="M464.7999878,464h-30.1000061l-49.7999878-79.7999878-31.3999939,32.3999939v47.2999878h-28.2999878v-228.3999939h28.2999878v148.8999939l74.7000122-79.5h32.6000061l-57.2999878,60.6000061,61.2999878,98.3999939-.0000305.1000061Z"/>
  <path class="st0" d="M102,540.5999756v20.7999878h-38.5999985v138.2000122h-28.5999985v-138.2000122H1.3v-20.7999878h33.4999993v-24.5999756c0-12.6000061,3.2000008-22.2000122,9.7000008-28.7999878,6.5-6.6000061,16.0999985-9.8999939,28.9000015-9.8999939h30l.1999969,20.1000061h-23.7999954c-6.5,0-10.9000015,1.7000122-13.1999969,5.2000122-2.3000031,3.5-3.5,8.7999878-3.5,15.7999878v22.0999756h39l-.1000061.0999756Z"/>
  <path class="st0" d="M155.8000031,702.5999756c-10.3000031,0-19.3000031-1.7999878-27.1999969-5.5-7.9000015-3.5999756-14.0999985-8.9000244-18.5-15.7999878-4.5-6.9000244-6.6999969-15.2000122-6.6999969-24.9000244,0-17.5999756,6.0999985-30.7000122,18.4000015-39.2999878,12.2999954-8.5999756,32.0000076-13.2000122,59.2000046-13.7999878l28.3999939-.7999878v-12.4000244c0-9.7000122-2.8999939-17.4000244-8.8000031-23.0999756-5.8000031-5.7000122-14.8999939-8.5-27.1999969-8.5-9.1000061,0-17.1000061,2.2999878-24.1000061,6.5-6.8999939,4.2000122-11.3999939,11.0999756-13.3999939,20.5999756h-25.0999985c.5999985-10.2999878,3.5-19.0999756,8.8000031-26.2000122,5.1999969-7.0999756,12.4999924-12.5,21.9000015-16.2000122,9.3999939-3.7000122,20.5-5.5,33.3000031-5.5s25.3000031,1.9000244,34.5,5.7999878c9.1999969,3.9000244,16,9.5999756,20.6000061,17.2000122,4.6000061,7.5999756,6.8000031,16.9000244,6.8000031,28v111h-24.3000031l-2-29.7999878c-6.1999969,12.4000244-14,21-23.5,25.7999878s-19.8999939,7.0999756-31.3000031,7.0999756l.1999817-.1999512ZM164.3999939,682.2000122c5.3000031,0,10.6000061-1,15.8999939-2.9000244,5.3000031-1.9000244,10.1000061-4.5999756,14.5-7.9000244,4.3999939-3.2999878,7.8999939-7.0999756,10.5-11.2000122,2.6000061-4.2000122,4-8.4000244,4.1000061-12.7999878v-27.2000122l-23.6999969.5c-12.1000061.2000122-22.1999969,1.4000244-30.3999939,3.7000122-8.1000061,2.2999878-14.1999969,5.7999878-18.3000031,10.5999756-4,4.7999878-6.1000061,11.0999756-6.1000061,18.9000244s3.1000061,15.9000244,9.3000031,20.9000244,14.1999969,7.5,24.1000061,7.5l.0999908-.0999756Z"/>
  <path class="st0" d="M323.3999939,537.5999756c11.3999939,0,21.6000061,2.2000122,30.7000122,6.5s16.6000061,10.5,22.3999939,18.5,9.3999939,17.4000244,10.7999878,28.2999878h-25.2000122c-.8999939-5.5-3-10.5999756-6.3999939-15.2000122-3.2999878-4.5999756-7.7000122-8.2999878-13.1000061-11.0999756s-11.7999878-4.0999756-19.1000061-4.0999756c-13.6000061,0-24.7000122,4.9000244-33.2000122,14.7999878s-12.7999878,24.9000244-12.7999878,45.2000122,3.8999939,33,11.7999878,44c7.7999878,11,19.3999939,16.5,34.7000122,16.5s13.6000061-1.4000244,19-4.2000122,9.7000122-6.5999756,13-11.2000122c3.2999878-4.7000122,5.3999939-9.7000122,6.2999878-15h24.7999878c-1.2999878,10.7000122-4.8999939,19.9000244-10.7999878,27.7000122-5.7999878,7.7999878-13.2999878,13.7999878-22.3999939,18.0999756s-19.2000122,6.4000244-30.5,6.4000244-26.8999939-3.0999756-37.8999939-9.4000244c-11-6.2999878-19.6000061-15.5-25.8999939-27.7000122-6.3000031-12.2000122-9.3999939-27.2000122-9.3999939-44.9000244s2.8000031-31.0999756,8.5-43.5999756c5.7000122-12.5,14-22.2000122,24.8999939-29.0999756,10.8999939-7,24.2000122-10.5,39.7000122-10.5h.1000061Z"/>
  <path class="st0" d="M431.3999939,540.5999756v158.9000244h-27.5v-158.9000244h27.5ZM432.1000061,477.5v29.5h-29.1000061v-29.5h29.1000061Z"/>
  <path class="st0" d="M496.2999878,701.5999756c-8.6000061,0-15.6000061-1.2000122-20.7999878-3.5-5.2999878-2.4000244-9.2999878-5.5-12.1000061-9.5-2.7999878-4-4.7000122-8.5999756-5.7000122-13.7999878s-1.5-10.5-1.5-16.0999756v-187.5h28v184.7000122c0,8,1.6000061,14,4.7000122,18s7.5,6.2000122,13.1000061,6.5999756l8.6000061.2000122v18.4000244c-2.3999939.7000122-4.7999878,1.2999878-7.3999939,1.7999878s-4.8999939.7000122-6.8999939.7000122l-.0000305-.000061Z"/>
  <path class="st0" d="M553.0999756,540.5999756v158.9000244h-27.5v-158.9000244h27.5ZM553.7999878,477.5v29.5h-29.0999756v-29.5h29.0999756Z"/>
  <path class="st0" d="M660.7000122,561.4000244h-35.7999878v98.7999878c0,5.5999756.5999756,9.7999878,1.7999878,12.4000244,1.2000122,2.5999756,3.2000122,4.2999878,6,5s6.7000122,1.0999756,11.5999756,1.0999756h17.4000244v19c-1.9000244.7000122-4.9000244,1.2999878-8.7999878,1.9000244-3.9000244.5-8.7999878.7999878-14.7000122.7999878-11,0-19.5-1.5-25.5-4.5s-10.2999878-7.4000244-12.7000122-13.2000122-3.5999756-13-3.5999756-21.5v-99.7999878h-25.7999878v-20.7999878h26.5999756l6.9000244-46.2999878h20.9000244v46.0999756h35.7999878v20.9000244l-.1000366.0999756Z"/>
  <path class="st0" d="M707.0999756,540.5999756v158.9000244h-27.5v-158.9000244h27.5ZM707.7999878,477.5v29.5h-29.0999756v-29.5h29.0999756Z"/>
  <path class="st0" d="M752.0999756,626.7000122c0,10,1.7000122,19.0999756,5,27.2999878,3.2999878,8.0999756,8.4000244,14.5999756,15.2000122,19.4000244,6.7999878,4.7999878,15.4000244,7.2000122,25.5999756,7.2000122s18.9000244-2.4000244,26.2000122-7.0999756c7.2999878-4.7000122,12-11.5,14.0999756-20.5h26.9000244c-2,10.7999878-6.2999878,19.7999878-12.9000244,27.2000122-6.7000122,7.4000244-14.7000122,12.9000244-24.0999756,16.7000122-9.4000244,3.7000122-19.2999878,5.5999756-29.5,5.5999756-14.7999878,0-27.9000244-3.2000122-39.2000122-9.7000122s-20.0999756-15.7000122-26.4000244-27.7999878c-6.2999878-12.0999756-9.5-26.5999756-9.5-43.5s2.9000244-31.4000244,8.5999756-44c5.7000122-12.5999756,14.0999756-22.4000244,25-29.5s24.0999756-10.5999756,39.4000244-10.5999756,27.5999756,3.2000122,38,9.7000122c10.2999878,6.4000244,18.2000122,15.5,23.5999756,27.2999878,5.4000244,11.7000122,8.0999756,25.5999756,8.0999756,41.7000122v10.4000244h-113.9000244l-.1998901.1998901ZM752.2999878,607.5h86.4000244c0-9.0999756-1.5-17.2999878-4.5999756-24.5999756s-7.7999878-13.0999756-14.0999756-17.4000244c-6.2999878-4.2999878-14.2000122-6.4000244-23.7000122-6.4000244s-18.2000122,2.4000244-24.7000122,7.0999756c-6.5,4.7999878-11.4000244,10.9000244-14.5999756,18.2999878-3.2000122,7.4000244-4.7999878,15.0999756-4.7000122,23l-.000061.000061Z"/>
  <path class="st0" d="M936.0999756,702.5999756c-11.0999756,0-21.2999878-1.7000122-30.7999878-5.0999756-9.5-3.4000244-17.2999878-8.7999878-23.5999756-16.0999756s-10.2000122-16.7000122-11.7999878-28h25.7999878c1.4000244,6.2999878,4,11.5,7.7999878,15.5999756s8.4000244,7.2999878,14.0999756,9.4000244c5.5999756,2.0999756,11.7999878,3.0999756,18.5,3.0999756,10.7000122,0,19.2999878-2,25.7999878-6,6.5999756-4,9.7999878-10.0999756,9.7999878-18.4000244s-1.7000122-10.5-5.0999756-14.0999756c-3.4000244-3.5-8.7000122-6.0999756-15.9000244-7.7999878l-32.9000244-8.0999756c-12.7999878-3.0999756-23.0999756-7.9000244-30.7999878-14.4000244-7.7000122-6.5999756-11.5-15.7000122-11.5-27.5,0-9.2999878,2.0999756-17.5,6.5999756-24.5999756s11.2999878-12.7000122,20.2999878-16.7999878,20.2000122-6.0999756,33.7000122-6.0999756,31.0999756,3.9000244,41.7000122,11.5999756c10.5999756,7.7000122,16.0999756,19.0999756,16.5,34h-25.0999756c-1-7.5999756-4.4000244-13.5999756-10.2000122-18.0999756s-13.5-6.7000122-23.2999878-6.7000122-18.4000244,2-24.7999878,6.0999756c-6.2999878,4-9.5,10.2999878-9.5,18.7999878s2.2999878,10.0999756,6.7999878,13.2999878,11.2000122,5.9000244,20,8.0999756l31.7999878,8c7.4000244,1.9000244,13.5,4.5,18.2000122,7.7000122,4.7999878,3.2000122,8.5,6.7000122,11.4000244,10.5999756,2.7999878,3.9000244,4.7999878,8,6,12.2000122,1.2000122,4.2999878,1.7999878,8.2999878,1.7999878,12.2000122,0,9.7000122-2.4000244,18.0999756-7.2999878,25.0999756-4.9000244,7-11.7999878,12.4000244-20.9000244,16.2999878-9.0999756,3.7999878-20,5.7999878-33,5.7999878l-.0999756-.0999756Z"/>
</svg>