<?xml version="1.0" encoding="UTF-8"?>
<svg id="Layer_1" xmlns="http://www.w3.org/2000/svg" version="1.1" viewBox="0 0 675.2184138 259.696832">
  <!-- Generator: Adobe Illustrator 29.1.0, SVG Export Plug-In . SVG Version: 2.1.0 Build 142)  -->
  <defs>
    <style>
      .st0 {
        fill: #aac9db;
      }
    </style>
  </defs>
  <path class="st0" d="M358.2518065,93.6774999c2,1.8399963,4.8699951,2.7799988,7.5599976,2.3099976,2.2999878-.3900146,4.3699951-1.7200012,5.7000122-3.6300049,1.3500061-1.9400024,1.7000122-4.1600037,1.4299927-6.4599915-1.3999939-11.8900146-2.8299866-23.769989-4.1300049-35.6700134l-.1799927-1.6799927c-.8699951-8.269989-1.6900024-16.5400085-2.3699951-24.8200073-.3599854-4.3800049-.6300049-8.7999878-1.2000122-13.1600037-.1600037-1.230011-.3699951-2.4100037-.6799927-3.6199951-.6400146-2.5299988-2.3900146-4.8099976-4.7099915-6-4.769989-2.4500122-10.7799988.0599976-12.4400024,5.1300049-.7900085,2.3999939-.5400085,4.9299927.5499878,7.0299988.0400085.3299866.0799866.6600037.1199951.9899902.7900085,8.0100098,1.3500061,16.0400085,2.1400146,24.0499878,1.6700134,16.9299927,3.6799927,33.8200073,5.6799927,50.7099915.230011,1.9100037,1.1799927,3.5700073,2.5400085,4.8099976l-.0100098.0100403Z"/>
  <path class="st0" d="M420.8018248,88.0774938c1.0999756,1.0100098,2.4500122,1.7399902,3.9899902,2.0799866,4.6500244,1,9.3900146-2.0299988,10.4000244-6.6799927,1.3400269-6.1799927,2.5800171-12.3900146,3.7600098-18.6000061,1.5100098-7.9299927,2.8200073-15.8999939,4.3800049-23.8299866.8300171-4.2000122,1.7600098-8.3800049,2.7000122-12.5499878.4199829-1.8699951.8400269-3.730011,1.2199707-5.6000061.3099976-1.5.5700073-3.019989.8900146-4.519989,1.0800171-3.1900024.2700195-6.8999939-2.3300171-9.2900085-2.4799805-2.2799988-6.4799805-3.0799866-9.5499878-1.519989-2.5900269,1.3200073-4.3599854,3.5-5.0300293,6.3299866-.4199829,1.7999878-.710022,3.6400146-1.0999756,5.4500122-.8800049,4.1600037-1.8400269,8.3099976-2.75,12.4700012-1.7299805,7.9200134-3.0499878,15.9200134-4.5100098,23.8900146-1.4699707,8.0499878-3.0499878,16.0700073-4.7800293,24.0700073-.6699829,3.1199951.4699707,6.2799988,2.6900024,8.3200073l.0200195-.02005Z"/>
  <path class="st0" d="M484.5518248,93.6275121c1.1199951,1.0299988,2.5,1.7900085,4.0100098,2.1099854,2.210022.480011,4.5700073.0700073,6.4899902-1.1300049,2.039978-1.2799988,3.3099976-3.2600098,3.9099731-5.5499878.5-1.9599915,1.0300293-3.8999939,1.5800171-5.8500061,1.6300049-5.6400146,3.3599854-11.2399902,5.2000122-16.8200073.9299927-2.8200073,1.8900146-5.6300049,2.8400269-8.4500122.4899902-1.4400024.960022-2.8900146,1.4199829-4.3399963.210022-.6600037.3900146-1.3299866.6099854-1.9899902,2.0300293-3.4599915,1.460022-8.0899963-1.5999756-10.8999939-3.5100098-3.2200012-9.1199951-2.980011-12.3400269.519989-2.2800293,2.480011-2.9000244,5.8800049-3.9400024,8.980011-1.2700195,3.8399963-2.5900269,7.6600037-3.8499756,11.5-2.5700073,7.7900085-4.9500122,15.6700134-7,23.6199951-.789978,3.0700073.4299927,6.2200012,2.6699829,8.2799988v.0200195Z"/>
  <path class="st0" d="M279.1618102,112.1975194c.5299988.4899902,1.1400146.9100037,1.8200073,1.269989,2.0100098,1.0299988,4.3999939,1.2399902,6.5599976.5700073,2.230011-.6900024,4.1300049-2.2799988,5.2000122-4.3599854.9899902-1.9200134,1.3500061-4.5.5700073-6.5599976-2.519989-6.7000122-4.7799988-13.5-7.4200134-20.1499939-2.4500122-6.1799927-5.1000061-12.269989-7.5-18.4599915-5.3599854-14.2200012-10.3500061-28.5799866-15.730011-42.7900085.019989.0499878.0400085.1000061.0599976.1600037-.6700134-1.7600098-1.3599854-3.519989-1.8900146-5.3299866.019989-2.3999939-.9200134-4.8099976-2.7900085-6.5299988-3.5100098-3.2200012-9.1199951-2.980011-12.3399963.519989-2.0599976,2.2399902-2.7000122,5.25-2.269989,8.2000122.2200012,1.5299988.6900024,3.0700073,1.2099915,4.5299988,1.1300049,3.1799927,2.3699951,6.3200073,3.5599976,9.480011,1.5599976,4.1400146,3.0700073,8.2999878,4.5700073,12.4599915,2.8900146,8.0100098,5.75,16.0400085,8.7600098,24,1.6000061,4.2399902,3.2600098,8.4500122,5,12.6300049,1.3900146,3.3500061,2.8200073,6.6900024,4.1300049,10.0799866,2.0100098,5.4400024,3.9100037,10.9200134,5.9500122,16.3399963.5799866,1.5299988,1.3900146,2.8800049,2.5400085,3.9400024l.0099792-.0000305Z"/>
  <path class="st0" d="M205.8818114,144.9775182c1.1099854,1.019989,2.4400024,1.7600098,3.9899902,2.0899963,2.2099915.480011,4.5700073.0700073,6.4899902-1.1300049,3.8900146-2.4400024,5.4899902-8.1300049,2.7799988-12.0400085-3.6400146-5.25-7.8099976-10.0700073-11.9899902-14.8999939-3.8999939-4.5-7.8599854-8.9500122-11.7999878-13.4100037-5.6400146-6.3800049-11.1000061-12.9400024-16.8800049-19.2000122-2.9700012-3.2099915-6.0700073-6.2999878-9.3200073-9.2399902-2.4899902-2.269989-5.1199951-4.3900146-7.6000061-6.6600037-3.5100098-3.2200012-9.1199951-2.980011-12.3500061.519989-3.2200012,3.5100098-2.9799957,9.1199951.5299988,12.3399963,2.1600037,1.9899902,4.4400024,3.8500061,6.6300049,5.7999878,2.5799866,2.2900085,5.0499878,4.6900024,7.4700012,7.1499939,2.6499939,2.8200073,5.2200012,5.7200012,7.75,8.6499939,5.5599976,6.4200134,11.1900024,12.7799988,16.7999878,19.1400146,5.2099915,5.9100037,10.5499878,11.7799988,15.25,18.1099854.230011.3200073.4500122.6400146.6700134.9599915.4599915.6700134.9899902,1.2799988,1.5700073,1.8099976l.0100098.0100708Z"/>
  <path class="st0" d="M56.8118041,154.8975011c1.0099945.9200134,2.1900024,1.7000122,3.4400024,2.3299866,2.7400055,1.3699951,5.6499939,2.4599915,8.4900055,3.6499939,9.3500061,4.2200012,18.2899933,9.2799988,27.3600006,14.0599976,7.3099976,3.8399963,14.5899963,7.7200012,21.8099976,11.730011,3.3800049,1.8800049,6.75,3.7600098,10.1600037,5.5799866,3.5800018,1.9100037,7.1999969,3.769989,10.6999969,5.8200073,1.9100037,1.1199951,4.4900055,1.2099915,6.5599976.5799866,2.2299957-.6900024,4.1399994-2.2799988,5.1999969-4.3599854,1.0299988-2.0100098,1.2399902-4.3999939.5700073-6.5599976-.7099915-2.3200073-2.3000031-4-4.3600006-5.2000122-5.2200012-3.0499878-10.6499939-5.730011-15.9400024-8.6600037-5.4100037-3-10.8000031-6.0400085-16.2599945-8.9500122-7.3399963-3.9100037-14.7100067-7.7399902-22.0500031-11.6600037-3.9299927-2.1000061-7.8800049-4.1799927-11.8899994-6.1099854-3.7299957-1.7900085-7.5399933-3.3699951-11.3399963-4.9899902-.2700043-.1199951-.5399933-.2399902-.8000031-.3699951-1.3899994-1.2799988-3.1900024-2.1499939-5.1999969-2.3699951-5.1999969-.5899963-9.7899933,3.980011-9.5700073,9.1099854.1100006,2.6400146,1.3399963,4.75,3.1300049,6.3900146l-.0100098-.019989Z"/>
  <path class="st0" d="M2.801802,226.777506h0c.2900009.269989.5999985.519989.9300003.7399902h0s.0599976.0400085.0899963.0599976c.3399963.230011.6999969.4299927,1.0699997.6099854,2.1399994,1.1300049,4.4899979,1.9100037,6.7600021,2.7099915,2.7699966.9700012,5.5899963,1.8200073,8.4199982,2.5799866,5.3899994,1.4500122,10.8000031,2.8399963,16.1699982,4.3500061,5.6499939,1.6600037,11.25,3.4700012,16.8000031,5.4599915,7.6100006,2.7200012,15.1499939,5.6600037,22.7799988,8.3299866,7.5200043,2.6300049,15.1699982,4.8900146,22.6699982,7.5800171,4.4799957,1.6099854,9.5700073-.8099976,11.1699982-5.289978,1.6000061-4.4799805-.8099976-9.5700073-5.2899933-11.1700134-5.3899994-1.9299927-10.8200073-3.6799927-16.2700043-5.4299927-5.3200073-1.7099915-10.5800018-3.6099854-15.8199921-5.5499878-7.7299957-2.8500061-15.4299927-5.8399963-23.3000031-8.3099976-8.2700043-2.5899963-16.6499939-4.7600098-25.0200043-7-3.7099991-1.0700073-7.4000015-2.2399902-10.9599991-3.7200012-.0999985-.0499878-.1999969-.1000061-.3000031-.1600037.0599976.0400085.1299973.0799866.1900024.1099854-.0500031-.019989-.0999985-.0400085-.1500015-.0599976.0599976.019989.1100006.0499878.1699982.0700073.1200027.0700073.2399979.1400146.3600006.2200012-1.8499985-1.0599976-3.8799973-1.5499878-6.0400009-1.1799927-2.2900009.3900146-4.3600006,1.7200012-5.6999969,3.6300049-2.4599991,3.5400085-1.9000015,8.5,1.2699966,11.4100037h0l.0000076.0100098Z"/>
  <path class="st0" d="M537.001776,110.2475072c3.5200195-6.6900024,7.25-13.269989,11.0499878-19.7999878,2.0499878-3.5299988,4.1699829-7.0299988,6.3499756-10.4899902.960022-1.519989,1.9000244-3.0599976,2.9899902-4.5.8699951-1.1499939,1.75-2.1099854,2.789978-3.1000061,2.1300049-2.0299988,5.960022-2.6900024,8.6400146-1.5700073,2.8099976,1.1799927,5.2800293,3.5700073,5.6699829,6.75.1799927,1.5.1699829,2.9899902-.3800049,4.4299927-.4899902,1.269989-1.2399902,2.3800049-2.1699829,3.2799988-.1099854.1099854-.210022.230011-.3200073.3500061-1.039978,1.3800049-1.9500122,2.8599854-2.8699951,4.3299866-1.0800171,1.7200012-2.1300049,3.4599915-3.1799927,5.1900024-4.5300293,7.5899963-8.9000244,15.2900085-13.0200195,23.1099854-2.210022,4.2099915-7.5,5.980011-11.7600098,3.7900085-.6900024-.3500061-1.3099976-.7900085-1.8599854-1.2999878-2.8200073-2.5899963-3.7800293-6.9400024-1.9299927-10.4700012h.000061ZM568.3917907,87.3574925h.0499878c.3400269-.1300049.6799927-.2600098,1.0200195-.3900146.0700073-.0400085.1300049-.0799866.2000122-.1199951-.4099731.2000122-.8300171.3699951-1.2700195.5100098Z"/>
  <path class="st0" d="M588.1118224,148.6475011c3.5700073,3.2799988,9.0499878,2.9100037,12.3499756-.519989,6.0700073-6.3099976,12.3699951-12.4100037,18.7000122-18.4599915-.1599731.1499939-.3200073.3099976-.4899902.4599915.2700195-.2600098.5300293-.519989.8099976-.769989.6500244-.3999939,1.25-.8999939,1.789978-1.480011,3.2199707-3.5100098,2.9799805-9.1199951-.5200195-12.3500061-2.9199829-2.6799927-7.3599854-3.0299988-10.7000122-.9299927-1.3599854.8500061-2.4699707,2.019989-3.6300049,3.1199951-2.0800171,1.9899902-4.1500244,3.9899902-6.2199707,6-4.2600098,4.1400146-8.5,8.3099976-12.6099854,12.5899963-3.2999878,3.4299927-2.9199829,9.1799927.5200195,12.3399963Z"/>
  <path class="st0" d="M628.0618346,183.527506c2.8200073,2.5899963,7.2999878,3.2799988,10.6099854,1.0499878,2.9799805-2.0100098,5.9899902-3.9700012,8.960022-5.980011,1.5300293-1.0400085,3.039978-2.0899963,4.539978-3.1799927.75-.5499878,1.4500122-1.1300049,2.0800171-1.8200073,3.2199707-3.5100098,2.9799805-9.1300049-.5200195-12.3500061-3.4000244-3.1199951-8.789978-2.9899902-12.0499878.2200012-.1099854.0899963-.2299805.1799927-.3400269.269989-3.9099731,2.769989-7.960022,5.3500061-11.9299927,8.0299988-1.960022,1.3200073-3.4000244,3.2099915-3.9099731,5.5499878-.4799805,2.2099915-.0700073,4.5700073,1.1300049,6.4899902.4000244.6400146.8900146,1.2200012,1.4400024,1.7200012l-.0100098.000061Z"/>
  <path class="st0" d="M642.8618224,230.0375157c1.6900024,1.5499878,3.9899902,2.4500122,6.2999878,2.3099976.7800293-.0499878,1.5200195-.1900024,2.2299805-.4100037.0200195,0,.039978,0,.0599976-.0100098h.0200195-.0200195c1.9299927-.4299927,3.8699951-.8099976,5.789978-1.2600098,2.6500244-.6099854,5.2800293-1.25,7.9199829-1.8900146.4899902-.1199951.9899902-.2200012,1.4799805-.3500061.4400024-.1099854.8800049-.2099915,1.3200073-.3099976,2.3200073-.5499878,4.3099976-1.6300049,5.7000122-3.6300049,1.2999878-1.8699951,1.8200073-4.2200012,1.4299927-6.4599915-.3900146-2.2999878-1.7199707-4.3699951-3.6300049-5.7000122-1.789978-1.2399902-4.3099976-1.9400024-6.4699707-1.4299927-.6900024.1600037-1.3800049.3299866-2.0599976.4899902-.3599854.0599976-.7299805.1499939-1.0800171.2600098h-.0100098c-1.5100098.3599854-3.0200195.7200012-4.5300293,1.0899963-2.3400269.5499878-4.6699829,1.1000061-7.0200195,1.6099854-.9099731.2000122-1.8400269.3599854-2.75.5700073-1.5800171.3699951-3.0700073.8999939-4.3300171,1.9700012-1.4500122,1.230011-2.6400146,2.980011-2.9699707,4.8800049-.460022,2.6600037.0599976,5.3200073,1.8099976,7.4299927.25.2999878.5200195.5799866.8099976.8500061l.0001221-.0099487Z"/>
</svg>