<?xml version="1.0" encoding="UTF-8"?>
<svg id="Layer_1" xmlns="http://www.w3.org/2000/svg" version="1.1" viewBox="0 0 478.4961853 229.8999939">
  <!-- Generator: Adobe Illustrator 29.5.1, SVG Export Plug-In . SVG Version: 2.1.0 Build 141)  -->
  <defs>
    <style>
      .st0 {
        fill: #d1703c;
      }
    </style>
  </defs>
  <path class="st0" d="M40.0999985,228.6999664c-8.6000023,0-15.6000023-1.1999969-20.7999992-3.5-5.2999992-2.3999939-9.2999992-5.5-12.1000004-9.5-2.7999992-4-4.6999998-8.6000061-5.6999998-13.8000031S-.000001,191.3999634-.000001,185.7999573V-1.7000275h28.000001v184.6999969c0,8,1.5999985,14,4.7000008,18s7.5,6.1999969,13.0999985,6.6000061l8.5999985.1999969v18.3999939c-2.4000015.6999969-4.7999992,1.3000031-7.4000015,1.8000031-2.5999985.5-4.9000015.6999969-6.8999977.6999969Z"/>
  <path class="st0" d="M86.5,153.7999725c0,10,1.6999969,19.1000061,5,27.3000031,3.3000031,8.1000061,8.4000015,14.6000061,15.1999969,19.3999939,6.8000031,4.8000031,15.3999939,7.1999969,25.6000061,7.1999969s18.8999939-2.3999939,26.1999969-7.1000061c7.3000031-4.6999969,12-11.5,14.1000061-20.5h26.8999939c-2,10.8000031-6.3000031,19.8000031-12.8999939,27.1999969-6.6999969,7.3999939-14.6999969,12.8999939-24.1000061,16.6999969-9.3999939,3.6999969-19.3000031,5.6000061-29.5,5.6000061-14.8000031,0-27.9000015-3.1999969-39.1999969-9.6999969-11.3000031-6.5-20.0999985-15.6999969-26.4000015-27.8000031s-9.5-26.6000061-9.5-43.5,2.9000015-31.4000015,8.5999985-44,14.0999985-22.4000015,25-29.5,24.0999985-10.5999985,39.4000092-10.5999985,27.6000061,3.1999969,38,9.6999969c10.3000031,6.4000015,18.1999969,15.5,23.6000061,27.2999954,5.3999939,11.6999969,8.1000061,25.6000061,8.1000061,41.6999969v10.3999939h-113.9000015l-.2000198.2000275ZM86.7000046,134.5999756h86.4000015c0-9.0999985-1.5-17.3000031-4.6000061-24.5999985-3.1000061-7.3000031-7.8000031-13.0999985-14.1000061-17.4000015s-14.1999969-6.4000015-23.6999969-6.4000015-18.1999969,2.4000015-24.6999969,7.0999985c-6.5,4.8000031-11.4000015,10.9000015-14.5999985,18.3000031s-4.8000031,15.1000061-4.6999969,23Z"/>
  <path class="st0" d="M296.8999939,88.4999695h-35.7999878v98.8000031c0,5.6000061.6000061,9.8000031,1.7999878,12.3999939,1.2000122,2.6000061,3.2000122,4.3000031,6,5s6.7000122,1.1000061,11.6000061,1.1000061h17.3999939v19c-1.8999939.6999969-4.8999939,1.3000031-8.7999878,1.8999939-3.8999939.5-8.7999878.8000031-14.7000122.8000031-11,0-19.5-1.5-25.5-4.5s-10.3000031-7.3999939-12.6999969-13.1999969-3.6000061-13-3.6000061-21.5v-99.8000031h-25.8000031v-20.8000031h26.6000061l6.8999939-46.2999992h20.8999939v46.1000023h35.7999878v20.9000015l-.0999756.0999985Z"/>
  <path class="st0" d="M304.3999939,76.9999695l17.1000061-38.0999985-13.2000122-.7999992V4.3999724h35.5v29.4999986l-26.1000061,43h-13.2000122l-.0999756.0999985Z"/>
  <path class="st0" d="M414.8999939,229.7999725c-11.1000061,0-21.2999878-1.6999969-30.7999878-5.1000061-9.5-3.3999939-17.2999878-8.8000031-23.6000061-16.1000061-6.2999878-7.3000031-10.2000122-16.6999969-11.7999878-28h25.7999878c1.3999939,6.3000031,4,11.5,7.7999878,15.6000061s8.3999939,7.3000031,14.1000061,9.3999939c5.6000061,2.1000061,11.7999878,3.1000061,18.5,3.1000061,10.7000122,0,19.2999878-2,25.7999878-6,6.6000061-4,9.7999878-10.1000061,9.7999878-18.3999939s-1.7000122-10.5-5.1000061-14.1000061c-3.3999939-3.5-8.7000122-6.1000061-15.8999939-7.8000031l-32.8999939-8.1000061c-12.7999878-3.1000061-23.1000061-7.8999939-30.7999878-14.3999939-7.7000122-6.6000061-11.5-15.6999969-11.5-27.5,0-9.3000031,2.1000061-17.5,6.6000061-24.5999985s11.2999878-12.6999969,20.2999878-16.7999954,20.2000122-6.0999985,33.7000122-6.0999985,31.1000061,3.9000015,41.7000122,11.5999985,16.1000061,19.0999985,16.5,34h-25.1000061c-1-7.5999985-4.3999939-13.5999985-10.2000122-18.0999985-5.7999878-4.5-13.5-6.6999969-23.2999878-6.6999969s-18.3999939,2-24.7999878,6.0999985c-6.2999878,4-9.5,10.3000031-9.5,18.8000031s2.2999878,10.0999985,6.7999878,13.3000031c4.5,3.1999969,11.2000122,5.8999939,20,8.1000061l31.7999878,8c7.3999939,1.8999939,13.5,4.5,18.2000122,7.6999969,4.7999878,3.1999969,8.5,6.6999969,11.3999939,10.6000061,2.7999878,3.8999939,4.7999878,8,6,12.1999969,1.2000122,4.3000031,1.7999878,8.3000031,1.7999878,12.1999969,0,9.6999969-2.3999939,18.1000061-7.2999878,25.1000061s-11.7999878,12.3999939-20.8999939,16.3000031c-9.1000061,3.8000031-20,5.8000031-33,5.8000031l-.1000061-.1000214Z"/>
</svg>