<?xml version="1.0" encoding="UTF-8"?>
<svg id="Layer_1" xmlns="http://www.w3.org/2000/svg" version="1.1" viewBox="0 0 442.8235779 286.6603088">
  <!-- Generator: Adobe Illustrator 29.1.0, SVG Export Plug-In . SVG Version: 2.1.0 Build 142)  -->
  <defs>
    <style>
      .st0 {
        fill: #2e3133;
      }
    </style>
  </defs>
  <g id="OBJECTS">
    <g>
      <path class="st0" d="M438.6604309,183.29953c-.4499512,2.1699829-.9300537,3.9499512-2.0599365,5.8899536-.2299805.3900146.3499756.8699951.6499023.4900513,1.3300781-1.7000122,2.3701172-4.0599976,2.380127-6.25,0-.5400391-.8601074-.6900024-.9700928-.1300049Z"/>
      <path class="st0" d="M437.0604553,182.9095154c-.5900879.9199829-1.0100098,2.1499634-1.1899414,3.2199707-.0700684.4200439.4599609.5500488.619873.1700439.4200439-1,.9001465-1.960022,1.3400879-2.9400024.2299805-.5100098-.4499512-.9400024-.7700195-.4500122Z"/>
      <path class="st0" d="M384.6904602,179.1994934c-.0599365,1.4000244-.039917,2.9299927.1700439,4.3200073.0499268.3400269.6298828.3400269.6799316,0,.2099609-1.3900146.2299805-2.9199829.1700439-4.3200073-.0300293-.6599731-.9899902-.6599731-1.0200195,0Z"/>
      <path class="st0" d="M383.6305237,179.4095154c-.1101074-.6199951-1.0300293-.4400024-1.0600586.1400146-.1199951,2.8499756.9599609,6.0099487,2.4699707,8.3899536.1999512.3200073.7900391.1199951.6400146-.2699585-1.0899658-2.7700195-1.5599365-5.3400269-2.0499268-8.2600098Z"/>
      <path class="st0" d="M435.5104065,173.9695129c-8.3898926-3.8499756-18.1499023-1.5800171-24.0499268,5.1900024.2399902-4.9000244-1.5599365-9.6000366-5.6700439-12.7000122-4.7800293-3.6099854-10.8299561-3.4500122-16.3898926-1.9199829-9.1601562,2.5199585-15.5400391,14.5299683-9.7700195,22.539978-1.3200684-.1099854-2.6700439.4000244-3.5,1.6099854-1.2299805,1.8000488-.3500977,4.2900391,1.5699463,4.9000244.0599365.1699829.2199707.3200073.4599609.3300171,19.7000732,1.5,39.7700195,1.25,59.5300293,1.4299927.7199707.0100098.9100342-.8099976.5699463-1.25,6.9300537-6.1199951,5.9300537-16.1500244-2.75-20.1300049ZM436.4703674,193.3395081c-.1599121.1300049-.2299805.2800293-.2698975.4400024-18.8800049-.5900269-38.0100098-1.5200195-56.8900146-.8900146-.0899658-.1699829-.2399902-.2999878-.4899902-.3200073-1.6699219-.1599731-2.25-2.1399536-1.1199951-3.2799683,1.1700439-1.1799927,2.7099609-.5300293,3.7700195.3900146.5899658.5199585,1.6800537-.1700439,1.1700439-.9000244l-.0200195-.0200195c-.0100098-.0199585-.0100098-.0299683-.0200195-.039978-5.8601074-7.7800293-3.2299805-19.039978,6.4499512-22.2399902,10.4000244-3.4299927,22.6799316,1.9099731,20.4199219,14.539978-.1899414,1.1000366,1.4301758,1.5700073,1.7000732.5499878,4.8199463-5.5799561,11.6300049-8.8499756,19.1199951-7.4199829,4.2399902.8099976,8.7199707,3.0499878,10.5,7.210022,1.8601074,4.3399658-1.0899658,9.3299561-4.3200684,11.9799805Z"/>
      <path class="st0" d="M337.1476135,203.5194397c-.210083-.1599731-.4799805.2000122-.2900391.3800049,1.2900391,1.1700439,1.6298828,2.7300415,1.25,4.3800049-.1500244.6600342.8599854.9400024,1.0100098.2800293.4599609-1.9000244-.4300537-3.9000244-1.9699707-5.0400391Z"/>
      <path class="st0" d="M333.3175354,204.1194763c-.3800049-.2200317-.8399658.3299561-.4799805.6300049,1.5599976,1.3200073,2,2.7799683,2.0899658,4.7399902.0300293.5800171.9400635.7699585,1.0699463.1499634.4400635-2.0999756-.8898926-4.4699707-2.6799316-5.5199585Z"/>
      <path class="st0" d="M333.4675598,137.3894348c.5299683-.5999756,1.0799561-1.1499634,1.7600098-1.5699463.6900635-.4300537,1.4400635-.5700073,2.1900635-.8700562.4299316-.1699829.4199219-.8799438-.1201172-.8699951-1.7099609.0200195-3.5499878,1.4800415-4.3599854,2.9000244-.1900024.3200073.2700195.7000122.5300293.4099731Z"/>
      <path class="st0" d="M332.9475403,139.7894592c2.0100098-1.2000122,4.0499268-2.6599731,5.7299805-4.2999878.4700928-.460022-.2199707-1.1000366-.7099609-.710022-1.8299561,1.4700317-3.6099854,3-5.4400024,4.460022-.3200073.25.0899658.75.4199829.5499878Z"/>
      <path class="st0" d="M328.1575623,205.4694519c-.2399902-.0499878-.4200439.0300293-.5400391.1600342-1.4099731.5299683-2.1900024,1.5199585-2.6099854,3.0499878-.3300171,1.2099609-.0499878,2.3599854-.0700073,3.5899658-.0299683,3.0100098-1.5199585,4.5599976-3.1499634,6.8099976-2.2900391,3.1700439-.9800415,7.6700439,2.5499878,9.1799927.0800171.0400391.1499634.0500488.2199707.0500488.1400146.7799683,1.3500366,1.0100098,1.6000366.0999756,1.5-5.3800049,6.25-9.1300049,6.8099976-14.8699951.1699829-1.7199707.1499634-4.1799927-.6199951-5.75-1.1100464-2.2299805-1.8000488-1.8300171-4.1900024-2.3200073ZM324.7575378,227.2694397c-2.8800049-2.0100098-3.2199707-5.2099609-.960022-7.8800049.7700195-.9099731,1.7900391-1.4799805,2.3600464-2.5699463,1.539978-2.9800415-1.3600464-8.0100098,2.3699951-9.8100586.0499878-.0299683.0800171-.0699463.1300049-.0999756,7.8099976,3.789978-2.0300293,14.5100098-3.9000244,20.3599854Z"/>
      <path class="st0" d="M314.9675598,52.6894836c-.3300171-.2200317-.7200317.2799683-.4299927.5599976,1.2999878,1.1999512,2.4799805,2.4400024,3.6900024,3.7299805.4699707.5,1.1499634-.2299805.7399902-.7399902-1.0900269-1.3500366-2.5499878-2.6000366-4-3.5499878Z"/>
      <path class="st0" d="M314.2275696,50.4994812c1.039978.539978,2,1.1900024,2.8199463,2.0199585.7800293.7800293,1.2000122,1.8500366,1.9800415,2.6000366.3099976.3099976.7399902-.0100098.6799927-.3900146-.1799927-1.1199951-1.3200073-2.2299805-2.1199951-2.960022-.9199829-.8200073-1.9500122-1.4299927-3.1099854-1.8599854-.3400269-.1199951-.5700073.4299927-.25.5900269Z"/>
      <path class="st0" d="M317.3275452,144.3494568c.5499878.2399902,1.0200195-.5.4799805-.8300171-1.8299561-1.1099854-3.1900024-2.4799805-3.8999634-4.5499878-.1500244-.3999634-.7600098-.2399902-.6600342.1799927.5300293,2.1600342,2.0200195,4.2700195,4.0800171,5.2000122Z"/>
      <path class="st0" d="M311.3975525,104.3794861c-.3099976.289978.0899658.8199463.460022.5899658,1.5199585-.9699707,2.75-2.9699707,2.4799805-4.8200073-.0700073-.4899902-.8900146-.4799805-.9799805,0-.1400146.7800293-.1700439,1.5200195-.4900513,2.2600098-.3299561.7700195-.8599854,1.4000244-1.4699707,1.9700317Z"/>
      <path class="st0" d="M316.7275696,146.8794861c.6499634.1299438.8800049-.75.2699585-.9800415-2.0199585-.789978-3.5299683-1.8499756-4.5999756-3.7999878-.1799927-.3300171-.7800293-.0999756-.6300049.2700195.789978,2.0899658,2.710022,4.0599976,4.960022,4.5100098Z"/>
      <path class="st0" d="M311.5975647,99.339447c-.2300415-.4899902-.8699951-.1799927-.9100342.2399902-.0799561.7800293.0599976,1.5100098-.1699829,2.2900391-.2399902.8299561-.7000122,1.4699707-1.2800293,2.0899658-.2999878.3300171.1100464.9400024.5.6500244,1.460022-1.0599976,2.6900024-3.5100098,1.8600464-5.2700195Z"/>
      <path class="st0" d="M289.6475525,239.7194519c-2.210022,1.7399902-3.960022,4.75-4.6099854,7.460022-.1100464.4599609.5700073.789978.7799683.3299561.5800171-1.2199707,1.1199951-2.4499512,1.8599854-3.5899658.8000488-1.25,1.8200073-2.2700195,2.7700195-3.4000244.4700317-.5700073-.2399902-1.25-.7999878-.7999878Z"/>
      <path class="st0" d="M287.6875305,238.6194763c-1.7600098.8299561-3.4400024,2.3999634-4.3800049,4.0899658-.2299805.4000244.3300171.8800049.6500244.5100098,1.289978-1.5100098,2.5900269-2.6300049,4.2799683-3.6499634.6200562-.3700562.0800171-1.2400513-.5499878-.9500122Z"/>
      <path class="st0" d="M273.6475525,74.9294739c1.460022.8800049,2.5999756,1.9299927,3.7600098,3.1400146.4899902.5199585,1.2099609-.2400513.7699585-.7700195-1.0599976-1.2900391-2.6099854-2.3599854-4.1199951-3.0599976-.4599609-.210022-.8599854.4199829-.4099731.6900024Z"/>
      <path class="st0" d="M273.1475525,76.8094788c1.039978.6999512,1.8499756,1.5700073,2.7700195,2.3899536.4899902.4300537,1.0999756-.2099609.7099609-.6999512-1.4799805-1.8200073-3.9899902-3.2000122-6.2199707-3.8099976-.3099976-.0900269-.5400391.3899536-.2300415.5299683,1.0300293.4700317,2.0300293.9500122,2.9700317,1.5900269Z"/>
      <path class="st0" d="M267.3875427,180.2394714c-.4099731-.2399902-.75.3699951-.3699951.6300049,1.6500244,1.1399536,2.6400146,2.6599731,3.2800293,4.5299683.25.710022,1.3799438.4100342,1.1399536-.3099976-.6900024-2.039978-2.2199707-3.7600098-4.0499878-4.8499756Z"/>
      <path class="st0" d="M265.8475647,35.7494812c1.7299805-.3900146,3.4299927-.5800171,5.2000122-.5800171.5499878,0,.5499878-.8300171,0-.8499756-1.8200073-.0500488-3.6500244.1999512-5.3900146.7399902-.4400024.1399536-.2600098.7999878.1900024.6900024Z"/>
      <path class="st0" d="M263.3975525,38.2894592c2.3399658-.5700073,4.6799927-.9799805,7.0599976-1.3499756.4799805-.0700073.3699951-.8900146-.1099854-.8400269-2.4200439.2299805-4.8300171.7700195-7.1400146,1.5-.4400024.1400146-.2600098.7999878.1900024.6900024Z"/>
      <path class="st0" d="M267.1175232,182.3594666c-1.0799561-.8500366-2.3499756-1.5599976-3.7099609-1.789978-.4800415-.0800171-.6500244.5499878-.2000122.7199707,1.2799683.4899902,2.4400024,1.039978,3.4400024,2.0200195.8800049.8599854,1.3200073,1.9499512,2.0999756,2.8599854.3600464.4099731.9000244-.0499878.8300171-.4799805-.2199707-1.3000488-1.4799805-2.5400391-2.460022-3.3300171Z"/>
      <path class="st0" d="M250.6175079,254.549469c1.5800171.2099609,3.1500244.1599731,4.7200317-.1300049.5499878-.0999756.3200073-.9799805-.2399902-.8499756-1.4800415.3499756-2.960022.4399414-4.4800415.289978-.4499512-.0499878-.4299927.6400146,0,.6900024Z"/>
      <path class="st0" d="M255.3475494,254.9394836c-1.960022,1.3599854-4.0400391,1.8599854-6.4000244,1.4199829-.4199829-.0800171-.5999756.5299683-.1799927.6400146,2.3900146.6699829,5.0499878.2299805,7.0900269-1.2000122.5199432-.3599854.0199585-1.2299805-.5100098-.8599854Z"/>
      <path class="st0" d="M245.4675446,195.2894592c-2.3900146-.3900146-4.7200317-.7000122-7.0599976-1.3699951-.5300293-.1500244-.7300415.6300049-.2300415.8099976,2.2700195.789978,4.7400513,1.4799805,7.1500244,1.5999756.5900269.0300293.7399902-.9499512.1400146-1.039978Z"/>
      <path class="st0" d="M243.4875031,197.1894836c-3.1099854.8299561-5.2599487.0799561-8.0999756-1.1400146-.2799683-.1199951-.5599976.1799927-.3300171.4299927,2.0500488,2.2199707,5.9700317,2.6099854,8.7300415,1.8200073.7199707-.2000122.4199829-1.2999878-.3000488-1.1099854Z"/>
      <path class="st0" d="M237.1075592,51.3194885c-1.75.7699585-3.6900024,1.9599609-3.75,4.1099854-.0300293.9799805.4299927,1.4899902.9400024,2.2399902.539978.789978,1.1699829,1.3499756,1.3699951,2.3800049.1399536.7099609.0499878,1.4500122.1599731,2.1599731.6400146,4.5200195,5.5999756,4.2700195,7.7600098.9500122.039978-.0599976.0599976-.1300049.0700073-.1900024,2.1599731-3.9299927-8.0900269-6.9699707-4.7399902-10.1300049.3499756-.3300171-.1100464-.9500122-.5200195-.6799927-.1400146.0900269-.2700195.1900024-.3800049.2999878-.960022.8800049-1.0700073,2.2000122-.5599976,3.460022,1.0100098,2.5299683,6.2700195,3.9099731,4.5700073,7.1500244-.0599976.1199951-.0700073.25-.0599976.3599854-.4100342.3299561-.8599854.5999756-1.4100342.6900024-.7799683.5-1.4400024.289978-1.9699707-.6300049-.8800049-.2300415-1.2800293-.7300415-1.2000122-1.5-.2999878-1.0700073,0-2.210022-.3599854-3.2999878-.2399902-.7200317-.6900024-1.1199951-1.1199951-1.7200317-.3800049-.539978-1-1.1499634-.8900146-1.9500122.1799927-1.1599731,1.8599854-1.9499512,2.7999878-2.4799805.0599976-.039978.1199951-.0700073.1600342-.1199951.539978-.5-.1199951-1.4199829-.8699951-1.0999756Z"/>
      <path class="st0" d="M237.0275421,21.9094524c-.7600098-1.8200073-3.210022-2.8800049-5.0900269-2.710022-.4699707.0500488-.4899902.7300415,0,.7600098.9100342.0499878,1.75.2300415,2.5400391.6900024.7599487.4500122,1.1799927,1.0900269,1.7799683,1.7000122.2999878.3099976.9500122,0,.7700195-.4400024Z"/>
      <path class="st0" d="M231.5775299,58.6694641c-.039978,0-.0700073.0100098-.0999756.0200195-.1199951-.210022-.3099976-.3699951-.5900269-.3500366-1.6699829.0900269-2.9699707,1.6400146-2.9299927,3.2900391.0299683,1.6099854,1.4099731,2.7599487,2.960022,2.8099976,1.5299683.0599976,2.9400024-.9800415,3.0499878-2.5599976.1099854-1.3600464-.8599854-3.1800537-2.3900146-3.210022ZM232.7275543,61.6994324c-.1000366.8900146-.8500366,1.4000244-1.710022,1.3600464-2.2600098-.1000366-1.9099731-2.9899902.0599976-3.3200073.1500244-.0200195.2600098-.1000366.3400269-.2000122.7999878.4899902,1.4299927,1.1199951,1.3099976,2.1599731Z"/>
      <path class="st0" d="M229.0375519,20.3694744c-.3500366.0799561-.2800293.7000122.0899658.6499634,2.2900391-.2699585,4.0300293.5500488,5.6900024,2.0500488.3400269.2999878.9800415-.1100464.6699829-.5200195-1.4499512-1.9400024-4.1399536-2.6600342-6.4499512-2.1799927Z"/>
      <path class="st0" d="M226.7375031,41.9394836c2.1400146,1.0199585,4.5800171,1.75,6.9500122,1.2199707,1.5499878-.3499756,3.9299927-1.5599976,3.8600464-3.4500122-.1600342-4.3099976-9.3200073-.4099731-10.9500122.6900024-.4700317.3200073-.4000244.9000244-.0800171,1.1900024,0,.1400146.0599976.2700195.2199707.3500366ZM231.3075104,39.8894348c.8000488-.2299805,3.6900024-1.1399536,4.3600464-.4599609-.0700073.4400024-.1400146.8800049-.210022,1.3299561-.4799805.4100342-1.0100098.710022-1.5900269.9200439-.6499634.2399902-1.3399658.3299561-2.0299683.3399658-1.3200073.0300293-2.6099854-.3299561-3.8800049-.6900024,1.0700073-.5899658,2.1599731-1.1099854,3.3499756-1.4400024Z"/>
      <path class="st0" d="M226.0075226,113.1594543c-1.75,1.0499878-3.1400146,3-3.539978,5-.0800171.4299927.4799805.5700073.6400146.1799927.75-1.8300171,1.8099976-3.1400146,3.4199829-4.289978.5299683-.3699951.0599976-1.2399902-.5200195-.8900146Z"/>
      <path class="st0" d="M225.6275177,94.2694397c.460022.0100098.6199951-.6199951.2399902-.8499756-.7399902-.4299927-1.5199585-.75-2.0999756-1.4000244-.6099854-.6699829-.9400024-1.5199585-1.0999756-2.3999634-.0700073-.4000244-.6600342-.2800293-.6800537.0899658-.1199951,1.9899902,1.5100098,4.5200195,3.6400146,4.5599976Z"/>
      <path class="st0" d="M223.3575592,95.8294373c.6699829.1900024.9099731-.7999878.2799683-1.039978-1.3099976-.4899902-2.1699829-1.3900146-2.6599731-2.7000122-.1799927-.4799805-.8300171-.289978-.7600098.210022.2299805,1.6099854,1.5899658,3.0899658,3.1400146,3.5299683Z"/>
      <path class="st0" d="M223.3775177,112.1794739c-1.8699951,1.9500122-3.3299561,5.0899658-3.5299683,7.7999878-.0300293.4099731.539978.4299927.6699829.0900269.5-1.3400269.8699951-2.710022,1.5200195-4,.5899658-1.1800537,1.3699951-2.2200317,2.0700073-3.3300171.289978-.4500122-.3600464-.9500122-.7300415-.5599976Z"/>
      <path class="st0" d="M205.8275299,46.6994324c-1.0100098,1.3099976-2.3200073,2.1500244-3.8900146,2.6600342-.3800049.1199951-.2199707.6499634.1600342.5800171,1.7299805-.2800293,3.2799683-1.2300415,4.4400024-2.5400391.4299927-.4799805-.3200073-1.2000122-.710022-.7000122Z"/>
      <path class="st0" d="M202.2275543,12.1094646c-1.5200195.5-3.0300293,1.0200195-4.5400391,1.5499878-.4400024.1500244-.2699585.8499756.1900024.710022,1.5300293-.460022,3.0599976-.9200439,4.5800171-1.4000244.5499878-.1799927.3099976-1.0499878-.2299805-.8599854Z"/>
      <path class="st0" d="M204.947525,45.5994568c.2200317-.460022-.3999634-1.0599976-.7799683-.5900269-1.5500488,1.9300537-3.1500244,3.0300293-5.7000122,3.1100464-.5100098.0100098-.4799805.7199707,0,.7799683,2.4099731.2999878,5.3999634-1.0499878,6.4799805-3.2999878Z"/>
      <path class="st0" d="M201.6375275,10.429472c-2.3800049.2699585-4.7999878.9099731-7.1199951,1.4799805-.4099731.0900269-.2299805.6699829.1699829.6099854,2.3300171-.3800049,4.7800293-.7199707,7.0500488-1.3999634.3599854-.1100464.3099976-.7300415-.1000366-.6900024Z"/>
      <path class="st0" d="M193.3475494,219.5694885c-.5900269,1.0099487-1.1099854,2-1.9100342,2.8699951-.7799683.8599854-1.7099609,1.5499878-2.7099609,2.1399536-.3800049.2200317-.0500488.75.3399658.5800171,2.2000122-.9799805,4.3400269-2.9000244,5.2000122-5.2000122.2000122-.539978-.6400146-.8699951-.9199829-.3899536Z"/>
      <path class="st0" d="M188.3675079,87.8794861c-.539978-.1600342-.7699585.6799927-.2299805.8499756,1.7700195.5700073,3.3300171,1.4899902,4.6799927,2.7600098.5.4799805,1.2700195-.2999878.7600098-.75-1.5200195-1.3300171-3.2700195-2.2900391-5.210022-2.8599854Z"/>
      <path class="st0" d="M184.7375641,224.4294739c3.3199463.0199585,6.5999756-2.2399902,7.7999878-5.3200073.2199707-.5599976-.6900024-.9299927-.960022-.4100342-1.4899902,2.8700562-3.7399902,4.5200195-6.9299927,5.0700073-.3800049.0599976-.2800293.6600342.0900269.6600342Z"/>
      <path class="st0" d="M184.4675446,90.0794373c-.4100342-.0599976-.6000366.5700073-.1699829.6400146,1.5799561.2800293,2.75,1.0100098,4.1099854,1.7999878.3599854.210022.7600098-.289978.4500122-.5899658-1.1199951-1.0900269-2.8699951-1.6400146-4.3900146-1.8500366Z"/>
      <path class="st0" d="M188.0275421,274.589447c-2.1099854-.6099854-4.25-1.1199951-6.3699951-1.6799927-.4500122-.1199951-.6400146.5800171-.1900024.710022,2.0999756.6099854,4.2000122,1.2799683,6.3200073,1.8399658.5599976.1500244.7999878-.7099609.2399902-.8699951Z"/>
      <path class="st0" d="M178.7175446,124.2594299c-.3300171-.3799438-.960022.1200562-.7000122.5400391.7299805,1.1900024,1.7600098,2.3099976,2.9099731,3.0899658.6400146.4400024,1.1700439-.5599976.5900269-1-1.039978-.7999878-1.9400024-1.6300049-2.7999878-2.6300049Z"/>
      <path class="st0" d="M177.8375397,179.0294495c-.4500122-.1300049-.7700195.5700073-.3300171.7800293,1.8599854.8800049,3.4800415,1.8899536,5.1500244,3.0899658.539978.3900146,1.2199707-.4899902.7099609-.9199829-1.5599976-1.3200073-3.5699463-2.3699951-5.5299683-2.9500122Z"/>
      <path class="st0" d="M184.0375519,275.7694397c-2.4500122.0800171-4.6900024-.2799683-6.8900146-1.3800049-.3699951-.1799927-.6900024.3600464-.3300171.5599976,2.2000122,1.210022,4.7000122,1.8900146,7.2200317,1.7200317.5700073-.039978.5799561-.9199829,0-.9000244Z"/>
      <path class="st0" d="M176.2475128,176.6594543c1.3900146.4299927,2.7700195.7200317,4.1000366,1.3400269,1.2099609.5700073,2.25,1.3399658,3.3299561,2.1099854.4900513.3499756,1.1000366-.4400024.6400146-.8300171-2.0799561-1.7700195-5.2299805-3.1699829-8-3.1300049-.2999878.0100098-.3499756.4299927-.0700073.5100098Z"/>
      <path class="st0" d="M178.7075348,128.6194763c-1.4299927-.7200317-2.3200073-2.0900269-2.4699707-3.6799927-.0400391-.4800415-.75-.5-.7600098,0-.0599976,1.9299927,1.0100098,3.6799927,2.6699829,4.6399536.6199951.3500366,1.1900024-.6399536.5599976-.9599609Z"/>
      <path class="st0" d="M154.0775299,30.429472c-1.75-.0599976-3.5200195.0299683-5.2799683.0700073-.4800415.0099487-.4900513.7399902,0,.75,1.7599487.039978,3.5299683.1300049,5.2799683.0700073.5700073-.0200195.5700073-.8700562,0-.8900146Z"/>
      <path class="st0" d="M149.0075226,53.1194763c-.2000122.3699951.3099976.7999878.6000366.4599609.9299927-1.0799561,1.8699951-1.9699707,3.0099487-2.8299561.5200195-.3900146.0500488-1.2600098-.5199585-.8900146-1.2300415.7799683-2.3800049,1.9899902-3.0900269,3.2600098Z"/>
      <path class="st0" d="M154.3275299,27.6594524c-2.3300171.6699829-4.5,1.1600342-6.9400024,1.1099854-.4500122-.0100098-.4400024.6500244,0,.6900024,2.4199829.2000122,5.0200195-.0499878,7.2600098-1.0299683.4500122-.1900024.1300049-.9000244-.3200073-.7700195Z"/>
      <path class="st0" d="M147.2275543,54.6194763c.5499878-1.1900024,1.1599731-2.3400269,2-3.3500366.8099976-.9499512,1.7799683-1.6499634,2.6999512-2.4599609.4100342-.3600464-.1099854-.9200439-.539978-.710022-2.3300171,1.0999756-4.1499634,3.8200073-4.7600098,6.2600098-.0899658.3499756.4400024.6099854.6000366.2600098Z"/>
      <path class="st0" d="M136.7575226,97.9194641c-.7199707,1.1300049-1.4500122,2.0299683-2.5599976,2.7999878-.3900146.2600098-.0599976.8599854.3699951.6300049,1.210022-.6300049,2.4000244-1.710022,3.0100098-2.9400024.2800293-.5499878-.4899902-1.0100098-.8200073-.4899902Z"/>
      <path class="st0" d="M134.197525,96.4994812c-.3699951.7599487-.5200195,1.5599976-1.039978,2.25-.5499878.7399902-1.2999878,1.2699585-2.1300049,1.6599731-.3900146.1900024-.1099854.8400269.2999878.7000122,1.6900024-.5599976,3.7999878-2.4100342,3.7399902-4.3699951-.0100098-.4400024-.6599731-.6799927-.8699951-.2399902Z"/>
      <path class="st0" d="M123.5675278,214.2094421c.5599976-.1099854.4100342-.9699707-.1400146-.9799805-2.7699585-.0200195-4.8899536-.4700317-7.0899658-2.2700195-.3599854-.2999878-.8499756.1600342-.5200195.5100098,1.8599854,2.0100098,5,3.2999878,7.75,2.7399902Z"/>
      <path class="st0" d="M122.727562,216.3894348c-2.3800049-.1499634-4.1799927-.5599976-6.25-1.7999878-.3200073-.2000122-.7200317.2800293-.4100342.5400391,1.7399902,1.4799805,4.3500366,2.4899902,6.6600342,2.3099976.6699829-.0500488.6799927-1.0100098,0-1.0500488Z"/>
      <path class="st0" d="M107.5775375,130.839447c-.3999634-.0100098-.5100098.6500244-.0899658.7300415,1.9199829.3599854,3.2199707,1.9499512,3.039978,3.9299927-.0599976.6399536.9000244.6099854.9799805,0,.2999878-2.2800293-1.6300049-4.5800171-3.9299927-4.6600342Z"/>
      <path class="st0" d="M104.1675644,131.5294495c-.4400024-.0800171-.6300049.5700073-.1900024.6699829,2.0799561.4900513,3.1499634,2.3300171,3.0700073,4.3600464-.0200195.539978.8699951.6799927.9599609.1300049.4000244-2.4100342-1.4899902-4.7600098-3.8399658-5.1600342Z"/>
      <path class="st0" d="M104.057518,161.1294861c-1.6499634-.1600342-3.0099487-.4900513-4.2999878-1.5900269-.3499756-.2999878-.8399658.1699829-.5100098.5100098,1.210022,1.2299805,3.0300293,2.2000122,4.8099976,2.0899658.6500244-.039978.6300049-.9400024,0-1.0099487Z"/>
      <path class="st0" d="M104.8975449,158.9594421c-2.5200195-.7199707-4.6099854-1.6900024-6.7800293-3.1699829-.3199463-.2199707-.6999512.2800293-.4199829.539978,1.8599854,1.7400513,4.4400024,3.0800171,6.9400024,3.5800171.6099854.1300049.8699951-.7700195.2600098-.9500122Z"/>
      <path class="st0" d="M94.6175156,89.589447c-1.4399414.8500366-2.4499512,2.3099976-2.8299561,3.9199829-.1099854.4700317.5599976.6400146.7199707.2000122.5-1.3800049,1.4100342-2.4299927,2.6300049-3.2299805.5499878-.3599854.0599976-1.2200317-.5200195-.8900146Z"/>
      <path class="st0" d="M92.1275253,88.6994324c-1.3099976,1.4400024-1.9400024,3.6700439-1.8599854,5.5900269.0200195.460022.6500244.4400024.7000122,0,.2199707-1.9500122.9099731-3.3599854,1.8999634-5.0200195.2600098-.4499512-.3799438-.9799805-.7399902-.5700073Z"/>
      <path class="st0" d="M312.3375549,35.7094421c-19.289978-16.9099731-42.6300049-27.3200073-67.1199951-31.5700073-19.5100098-4.6900024-39.7800293-5.6799927-59.710022-1.4899902-16.8999634,3.5499878-32.6199951,10.7999878-46.1499634,21.460022-12.9904785,7.7748413-24.838501,17.4219971-35.1011353,28.5480957-12.5809326-5.8210449-30.2698364-4.3214111-33.3620605,10.989624-4.2637939-15.6900635-21.2408447-23.9491577-37.0986938-21.7332764-14.1456909,1.9584351-31.3912354,16.1264648-24.4639282,31.4807739-2.9768677-.9512329-6.6251831.0671387-8.3374023,2.80896-1.1191406,1.7905884-1.2758179,4.0847778-.5595703,6.0544434.4924316,1.354126,1.5443726,2.9768677,2.9768677,3.4804688.0447388.2461548.2238159.4700317.5595703.5036011,20.0209961,1.8241577,40.6239014.8392944,60.7232666.8616943,5.4589844.0060425,10.9188232.0072021,16.3789673,0-.0253296.0618286-.0519409.1231689-.0759277.1856079-2.7199707,7.0900269-3.6699829,14.5700073-4.5899658,22.0700073-2.1199951,17.3699951-4.210022,34.8900146-3.2000122,52.4299927,3.2399902,56.5499878,43.5999756,105.9799805,98.3400269,120.4899902,13.25,3.5100098,26.8899536,4.8900146,40.5599976,4.210022.0999756.0999756.2299805.1799927.4199829.1699829,10.4799805-.5800171,20.8200073-2.289978,30.9099731-4.9299927,46.3500366-9.0499878,88.5-37.9199829,105.9100342-83.4500122,10.6099854-27.7299805,10.3999023-60.2000122,4.6799316-89.0200195-5.6499023-28.4899902-19.7999268-54.3299561-41.6899414-73.5499878ZM172.6875153,7.1494431C190.5175323,1.2394698,208.7875519-.0205399,226.7475128,2.1194746c-25.3699951-1.210022-51.1900024,3.8800046-74.3800049,14.98999-1.6599731.7999878-3.3099976,1.6300049-4.9400024,2.4899902,7.7600098-5.1900024,16.1300049-9.4199829,25.2600098-12.4500117ZM290.5475769,24.2994671c22.6299438,13.869997,40.8199463,34.7299824,51.7399292,58.8999653,11.8701172,26.3000488,13.3701172,55.5100098,10.3300781,83.8800049-1.4000244,13.0200195-4.4799805,25.5500488-9.4599609,37.1500244,3.6098633-10.9799805,5.9699707-22.5100098,7.4899902-33.8400269,1.6499023-12.3699951,1.9599609-24.9899902.8898926-37.4799805.6000977-.3499756.4499512-1.2199707-.1398926-1.4099731-4.1401367-43.8699951-25.3600464-85.8000488-65.1700439-108.2600098-26.460022-14.9299927-59.1000366-19.0900269-88.9500122-15.3300171-27.9299927,3.5200195-54.3500366,14.960022-75.1400146,34.0499878-2.3699951,2.1799927-4.6499634,4.4299927-6.8399658,6.7399902-2.1049194,2.2262573-4.0993042,4.5302734-6.0316162,6.8747559-.1099854-.0797729-.2199097-.1595459-.331543-.2379761,2.0489502-2.2868042,4.1366577-4.5374146,6.2431641-6.7467651,3.6199951-3.7999878,7.2799683-7.5,10.8399658-11.0999756,1.6300049-1.6400146,3.2800293-3.25,4.960022-4.7999878C177.2075348-1.2705399,241.1475372-5.9905715,290.5475769,24.2994671ZM348.8375549,119.2494812c-.0400391,0-.0700684-.0100098-.1099854,0-4.4700928.7599487-9.1400146,1.6199951-12.9700928-1.4400024-2.9599609-2.3699951-3.7799072-5.4800415-4.8699341-8.8600464,2.9299927.8200073,5.4900513,4.3200073,8.3799438,5.4400024,2.6700439,1.0300293,5.6700439,1.3300171,8.4400635.5700073.1300049-.0299683.2199707-.0999756.3099365-.1699829.2900391,1.4799805.5700684,2.9699707.8200684,4.460022ZM107.1870346,54.2037659c4.7863159-5.3305054,9.9423218-10.319519,15.3605347-14.8842773-4.9680176,4.9790649-9.7327881,10.213623-14.2939453,15.5551147-.348877-.2299805-.7041016-.4539185-1.0665894-.6708374ZM119.977562,39.0994568c4.1999512-3.4699707,8.570015-6.7000122,13.0899734-9.6900024-.3200073.2800293-.6499634.5700073-.9699707.8599854-9.4952393,6.7232666-18.2858887,14.571167-26.0374756,23.2901001-.2877808-.1559448-.5797119-.3067017-.8742065-.4545288,4.619751-4.9819946,9.555603-9.6727905,14.7916794-14.0055542ZM64.6944809,85.2237244c-20.1105347-.0335693-40.5568237-1.3876953-60.6225586-.201416-.6938477-.8729248-1.4772339-1.6227417-1.8912964-2.7306519-.5708008-1.4996338-.5819702-3.3013916.1678467-4.7338867,1.6339111-3.0999146,5.8977661-3.2565918,8.4269409-1.2645874.8616943.6826782,2.0479736-.4028931,1.2422485-1.2421875-.2462158-.2574463-.5148315-.4700317-.7833862-.6715088-5.1032104-16.8427124,9.0648193-29.5894165,25.336792-30.7533569,15.8243408-1.1414795,30.6414185,8.203186,33.2713623,24.3632202.1678467,1.0407715,1.980835.8169556,1.8577271-.2462158-.0111694-.1231079-.0335693-.2462158-.0559692-.3693237.0559692-.0671387.0895386-.1454468.100708-.2573853,3.7602539-27.7317505,52.2515869-14.425415,41.6535645,8.5500488-.0783691.1678467-.0895386.3133545-.0895386.4700317-.0671387.3021851.1231079.626709.3917236.7162476.3916626.302124.9736328.3245239,1.2981567-.2462158.0895386-.1566772.1678467-.3133545.2462158-.4700317,2.5291748-1.354126,5.3605347-1.6115112,8.1247559-.4140625,3.5028687,1.5108032,6.356636,6.3677979,2.2382202,9.1207886-.0559082.0447998-.0894775.0895386-.1342773.1342773-.0223999,0-.0447388-.0111694-.0671387-.0111694-20.2336426.0559692-40.4784546.2909546-60.7120972.2573853ZM99.7075424,187.5394592c.5599976,5.5,6.9099731,10.5300293,10.2999878,14.3499756,3.3500366,3.7900391,6.8599854,8.1199951,12,9.3800049,3.960022.9800415,8.9700394,1.0400391,9.1800003,6.8300171.1300049,3.1799927-1.3599854,6.3300171-1.2600098,9.5499878.0600586,2.2999878.8000488,4.0900269,1.8900146,6.0800171,2,3.6500244,2.4100342,6.2399902,2.3900146,10.3499756-.0100098,5.3600464,4.5999756,7.4299927,6.7000122,11.9800415,1.7999878,3.8800049,2.6300049,8.0599976,5.0499878,11.4799805-17.4699707-10.3099976-32.2000122-25.210022-43.3099976-42.2399902-17.3599854-26.6000366-25.6400146-58.0800171-23.8900146-89,2.6900024,2.0999756,5.3400269.4500122,8.3900146,1.5499878,2.5599976.9199829,1.9099731,2.6799927,3,4.4500122,1.0900269,1.75,2.4299927,1.8999634,4.1199951,2.75,3.1400146,1.5800171,2.5300293,3.4199829,3.6400146,6.2399902.6199951,1.5999756,1.5499878,2.9099731,2.8900146,4.0100098,2.8399658,2.3499756,6.4799805,2.7199707,9.8299561,1.4500122,2.4700317,4.3499756-2.039978,7.5899658-4.3099976,10.5599976-1.5,1.9599609-2.1099854,3.5199585-2.3800049,5.9400024-.289978,2.6399536.1300049,4.6099854-1.3099976,7.0999756-.5999756,1.039978-1.4199829,1.9400024-1.9699707,3.0200195-.7000122,1.3499756-1.1000366,2.6199951-.9500198,4.1699829ZM146.4975128,268.6794739c-4.9599609-2.6099854-9.7799683-5.5499878-14.4199829-8.8200073-9.8699951-6.9500122-18.6900024-15.2800293-26.2700195-24.6199951-9.0999756-12.2200317-16.0599976-26.1000366-20.6199951-40.6400146-2.8800049-9.1699829-4.8499756-18.5499878-6.0299683-28.0499878,1.1699829,7.6900024,2.9400024,15.3300171,5.3800049,22.8399658,8.7799683,27.1100464,25.3299561,51.9400024,47.7299805,69.6900024,4.5599976,3.6100464,9.3099976,6.8099976,14.2299805,9.6000366ZM78.3475571,129.4694519c.9451904-14.3756104,3.2670898-29.1964722,8.9301147-42.385498.8353271-.0025024,1.6706543-.0047607,2.5060425-.0079956-5.9952393,13.4373779-9.8467407,27.7548828-11.4361572,42.3934937ZM81.9575424,87.549469c.0584717-.151123.1226196-.2998047.1856079-.4490356.6533813-.0010376,1.3067627-.0048828,1.960144-.0062866-2.9578247,6.8605957-5.1257935,13.9984741-6.6357422,21.2952881.8900146-7.0899658,1.8900146-14.1399536,4.4899902-20.8399658ZM80.1575546,102.049469c1.3695068-5.1220093,3.1732178-10.1125488,5.3292236-14.9597778.3666992-.0009155.7333374-.0025024,1.0999756-.00354-4.4538574,10.6098022-6.9035034,21.9655151-8.1992188,33.8233032-2.1499634,19.7399902-1.5899658,39.6600342,2.3300171,59.1500244,2.8300171,14.0499878,7.75,27.75,14.6300049,40.3399658-5.25-8.5999756-9.5499878-17.7799683-12.7600098-27.3599854-4.75-14.1699829-6.8800049-28.8699951-7.1400146-43.7800293-.2799683-15.789978.6199951-31.8999634,4.710022-47.2099609ZM82.227562,200.4294739c-6.5100098-17.5499878-8.3699951-35.3900146-8.0200195-53.4200439.0999756,8.8800049.7700195,17.75,2.1599731,26.4700317,4.2000122,26.2600098,16.460022,50.0200195,33.9900513,68.8599854,7.289978,8.5900269,15.7399902,16.1900024,25.2899857,22.4199829,7.3699951,4.8000488,15.0599976,8.4300537,22.9899902,11.1300049,10.3699951,4.2800293,21.3200073,7.3000488,32.6400146,8.8600464.6799927.0899658,1.3599854.1799927,2.0299683.2599487-49.3599854-4.8399658-93.4699707-37.0799561-111.0799637-84.5799561ZM213.3975372,285.3894348c.0599976-.2299805-.0200195-.4799805-.2200317-.5999756,1.0500488-.0100098,2.1000366-.0200195,3.1500244-.0499878,2-.0599976,3.9899902-.1600342,5.9799805-.2800293-2.9599609.3800049-5.9299927.7000122-8.9099731.9299927ZM224.6675568,283.2294617c-13.4200439,1.1400146-27.0200195.6599731-40.1600342-1.7000122,15.9400024,1.7900391,32.3800049.9199829,48.6000366-1.1400146-2.6700439.8600464-5.3500366,1.7000122-8.0400391,2.5-.2099609.0599976-.3300171.1900024-.3999634.3400269ZM239.3275299,281.3494568c-3.0800171.5300293-6.1799927.9799805-9.289978,1.3400269,3.4099731-1.0500488,6.8299561-2.1400146,10.25-3.2800293,4.4199829-.6400146,8.8200073-1.3599854,13.1799927-2.1099854-4.6600342,1.5499878-9.3800049,2.9099731-14.1400146,4.0499878ZM246.6875153,277.2294617c20.3400116-7.1199951,40.4499969-15.9099731,58.7100067-27.0300293-14.1500244,10.4300537-29.8300171,19.0100098-46.3499756,25.1300049-4.0900269.6300049-8.210022,1.2800293-12.3600464,1.9000244h.0000153ZM260.5075378,276.299469c13.0900269-4.9299927,25.6099854-11.3900146,37.2999878-19.0599976,8.2800293-5.4500122,16.4500122-11.4500122,23.6900024-18.3500366,1.1199951-.9799805,2.210022-1.9899902,3.2600098-3.0299683-17.1400146,19.2399902-39.6699829,32.8800049-64.25,40.4400024ZM337.5575256,215.4494324c-5.3399658,9.3099976-12.0999756,17.8400269-20.4199829,25.3000488-2.9099731,2.2699585-6,4.3800049-9.25,6.3699951-12.7000122,7.7799683-26.2600098,14.3399658-39.9199829,20.25-9.2900391,4.0199585-18.75,7.6300049-28.3400269,10.8800049-22.4899902,3.1300049-45.4500122,5.0199585-67.3999634.4899902-1.0800171-.2999878-2.1500244-.6099854-3.210022-.9400024-2.5700073-.7900391-5.0900269-1.6900024-7.5700073-2.6699829-.3800049-2.1800537-1.1799927-4.1300049-2.5499878-5.9100342-.7000122-.9099731-3.0700073-2.4400024-3.3900146-3.5-.3599854-1.210022.6300049-3.4500122.6500244-4.9199829.0299683-2.2600098-.0599976-1.5900269,1.1599731-3.1199951,1.5800171-1.9800415,1.5499878-2.0200195,4.0499878-2.3800049,1.6900024-.25,3.2000122-.7000122,4.5500488-1.8300171,2.6199951-2.2000122,3.2399902-5.539978,2.3200073-8.6699829,2.8699951-1.0700073,4.3999634-4.0300293,4.9899902-7.1900024.5999756-3.2200317-.0100098-7.0300293,1.6799927-9.9799805,2.1199951-3.6900024,6.3499756-3.3800049,9.5100098-5.460022,4.4099731-2.9000244,3.7599487-8.1799927,4.289978-12.789978.9099731-7.8200073,7.9400024-11.4900513,11.039978-18.1700439,2.0300293-4.3800049,1.1300049-8.4500122-2.9699707-11.0899658-2.5800171-1.6700439-5.789978-2.6900024-8.6000366-3.8699951-3.5099487-1.4800415-7.0299683-3.2700195-10.7299805-4.25-2.7799683-.7300415-4.7299805-.4500122-7.4400024.0199585-1.2999878.2300415-1.4299927,1.3000488-2.289978-.4199829-.6400146-1.289978.2299805-4.8800049.0800171-6.4500122-.4500122-4.7699585-2.7800293-8.7099609-7.6600342-9.8099976-1.8900146-.4199829-3.8800049-.2999878-5.7600098-.8099976-3.0499878-.8099976-5.4899902-2.8300171-7.7600098-4.9299927-2.8099976-2.5900269-5.3399658-5.6300049-8.8199463-7.3800049-4.3700562-2.1799927-9.6000366-1.6900024-12.5300293,2.4199829-.039978.0599976-.0499878.1199951-.0700073.1800537-.9899902-1.8900146-3.1699829-2.0300293-5.1799927-1.3200073-2.3800049.8399658-12.3099976,10.7999878-13.5800171,5.2199707-.1399536-.6099854-.8699951-.5700073-1.1599731-.1499634-1.0900269-2.9200439-.8499756-5.3500366-.539978-8.5.1499634-1.6100464.1799927-3.2300415-.8500366-4.5700073-1.9799805-2.5700073-5.2199707-1.960022-7.8900146-.8400269,2.3000488-2.9899902,4.9000244-7.4000244,3.1400146-10.5599976-1.4299927-2.5599976-4.3099976-2.1500244-6.4199829-.7299805-1.2999878.8699951-1.9899902,2.4500122-3.3200073,3.2600098-3.7299805,2.2699585-5.4500122-.5300293-5.3900146-3.9500122.0800171-3.9800415,1.0599976-9.3300171,3.460022-12.6300049,2.4400024-3.3500366,4.3599854-3.2399902,7.8699951-2.6900024,1.0499878.1699829,1.9099731.6300049,2.9899902.5,1.3900146-.1699829,2.2399902-.6300049,2.9100342-1.6099854,2.1799927,1.1699829,4.9899902.8099976,6.8999634-.8300171.0300293-.0200195.0400391-.0499878.0599976-.0800171,1.3500366,3.4000244,1.3599854,9.3900146,6.5800171,8.3599854,1.8900146-.3699951,2.75-1.8599854,3.0899658-3.6499634.5300293-2.8599854.4800415-5.9400024.25-8.8599854,7.6500244,1.3599854,20.2000122-5.5599976,15.1500244-14.1700439,5.6400146,1.1500244,11.7600098-3.4199829,11.9000244-9.3099976,0-.0899658-.0200195-.1799927-.0500488-.2600098,5.75,1.5,16.5100098,5.0200195,18.3500366-3.4799805.0899658-.4299927-.1099854-.7399902-.4000244-.8900146.0700073-.3499756-.1799927-.75-.6599731-.6499634-1.9500122.4299927-4.2700195.5299683-5.9500122-.7399902-3.1500244-2.3900146-.25-4.5900269,1.7600098-5.5700073,3.2199707-1.5700073,6.2099609-2.0499878,9.7099609-1.8600464-.3499756.7000122-1.5899658,1.4000244-1.8699951,2.0400391-.3800049.8399658-.1499634,1.7199707.5599976,2.289978,1.0400391.8500366,2.8000488.8500366,4.0500488.9000244,2.0599976.0800171,4.25-.0900269,6.1999512-.7700195.8000488-.2799683.6700439-1.2199707.0599976-1.4699707,0-.0700073-.0099487-.1500244-.0499878-.210022-.9899902-1.6199951-1.3099976-1.6500244-.7199707-3.7700195.5700073-2.0299683.8099976-1.4599609,1.4199829-2.8099976.460022-1,.7600098-1.7199707.6500244-2.8499756-.2200317-2.3300171-1.8800049-3.9400024-3.8099976-5.0700073-1.3400269-.7999878-2.8500366-1.2800293-4.1900024-2.0900269-1.2900391-.789978-2.2000122-2.3299561-3.5800171-2.9400024-2.1799927-.9699707-3.9899902.7900391-5.25,2.3800049-1.5-1.3899536-1.1500244-4.3299561-3.3099976-5.6999512-.7600098-.4800415-1.5900269-.7700195-2.4500122-.8800049-1.4799805-.2200317-3.0299683.0599976-4.4199829.6399536-6.8599854,2.8400269-11.6400146,11.7600098-15.9500122,17.3900146-.039978.0499878-.0499878.1000366-.0700073.1500244-1.5800171-1.1600342-2.0200195-2.4700317-1.2999878-3.9100342.1400146-.4199829-.1599731-.9400024-.5800171-1.039978-1.8599854-.4299927-3.7099609-.8599854-5.5299683-1.4400024-1.9000244-.5999756-4.7900391-1.1599731-3.3300171-4.5900269.4299927-1,1.6799927-1.9099731,2.5300293-2.4399414,3.4499512-2.1800537,7.3999634-1.6200562,11.2399902-1.4500122.039978.0599976.0999756.0999756.1799927.1199951,3.3099976.9099731,6.0999756-.4199829,7.9500122-3.2200317.6499634-.9799805,1.0599976-2.1300049,1.8599854-3.0100098,1.4500122-1.5999756,2.9699707-1.5099487,4.9299927-1.5899658,2.3099976-.0800171,4.3099976-.6699829,6.3599854-1.7299805.0100098,0,.0200195,0,.0300293-.0100098.8499756-.4400024.0999756-1.6799927-.75-1.2800293-2.8400269,1.3400269-5.3200073,1.1300049-8.2700195,1.5700073-.960022.1400146-1.6400146.3599854-2.4299927.9799805-3.289978,2.5700073-3.3300171,7.2200317-8.1199951,7.4800415.0299683-.3400269-.1300049-.6900024-.5300293-.7700195-5.4599609-1.0999756-13.2600098-1.0200195-16.5100098,4.4500122-3.4699707,5.8499756,4.7200317,7.5100098,9.1100464,8.3900146-.3900146,1.5199585-.5900269,3.2599487.6300049,4.4400024,1.0499878,1.0199585,2.2599487,1,3.3399658.2199707.2300415.0300293.460022-.0299683.6400146-.25,3.8200073-4.8499756,7.3200073-10.6099854,12.0100098-14.6799927,2.0199585-1.7600098,3.7999878-2.6599731,6.5100098-2.3200073,3.1599731.3900146,2.6300049,2.4000244,4.4499512,4.2600098.8500366.8599854.4700317,1,1.6000366,1.3699951.2600098.5100098.9099731.789978,1.3499756.2299805,2.4700317-3.1699829,5.6799927.2200317,8.1500244,1.4400024.9299927.460022,1.8999634.8400269,2.7999878,1.3699951,3.0100098,1.7700195,3.5300293,3.8300171,1.5599976,6.5300293-1.8800049,2.5800171-1.710022,4.6300049.7000122,6.6900024-1.4400024.2399902-2.8699951.5-4.3500366.5-.75,0-1.5199585-.0300293-2.2599487-.1199951-.6500244.1499634-1.0800171-.0499878-1.3000488-.5900269-.4299927-.3099976-.4099731-.6099854.0599976-.8999634.4700317-.960022,1.4900513-1.4300537.9800415-2.5599976.0199585-.3300171-.1400146-.6900024-.5100098-.8099976-2.9899902-.9200439-6.2700195-.1600342-9.1099854.9699707-2.0599976.8300171-4.8300171,1.9400024-5.7399902,4.1799927-2,4.9000244,4.539978,6.6400146,8.2699585,5.7999878-2.7000122,7.1300049-11.8699951,3.0900269-17.2600098,2.5599976-.3699951-.039978-.5299683.3600464-.4299927.6500244-.2399902.0599976-.4500122.2299805-.5199585.5200195-1.3500366,5.6999512-5.0900269,8.6900024-11.0500488,8.3899536-.2799683-.0099487-.4299927.1800537-.4599609.3900146-.4800415.1400146-.8599854.6600342-.5400391,1.25,4.4000244,8-7.1900024,13.1300049-13.7199707,12.2800293-.4500122-.5200195-1.4700317-.3800049-1.4100342.4599609.1600342,2.0800171.25,4.1600342.1600342,6.2399902-.039978.8800049-.0800171,1.7900391-.1900024,2.6700439-.2999878,2.3299561-2.210022,3.8599854-4.2600098,2.3200073-2.4699707-1.8600464-1.0599976-6.1199951-3.8999634-7.5500488-.210022-.0999756-.460022.0300293-.5100098.2300415-.2200317-.0499878-.460022-.0200195-.6700439.1599731-1.5799561,1.3300171-3.5299683,1.5300293-5.3399658.8300171-.0300293-.6199951-.8500366-1.0200195-1.2700195-.4799805-.2399902.0699463-.4299927.3099976-.4099731.5499878-1.8099976,1.9199829-6.8500366-.5-9.2600098.1799927-1.7800293.5-3.1300049,1.8599854-4.2000122,3.289978-1.8200073,2.4200439-3.1300049,5.8699951-3.7700195,9.3400269-.4499512,2.4199829-.5699463,4.8699951-.3099976,6.9799805.3099976,2.4400024,1.5,4.5700073,4.210022,4.5700073,2.2299805-.0100098,3.0900269-1.8200073,4.75-2.789978.2600098-.4200439.5499878-.7600098.8499756-1.0200195.5500488-.7299805,1.1200562-1.460022,1.960022-1.8599854,1.25-.5800171,2.539978-.210022,3.5999756.5899658.7700195.5900269,1.0700073,1.4500122.6100464,2.3400269-.210022.4299927-.460022.8399658-.710022,1.2399902-.2000122.710022-.4500122,1.4099731-.7999878,2.0700073-.8699951,2.0700073-2,3.8800049-3.3099976,5.7000122-.2700195.3699951.1199951.7999878.4899902.789978.2399902.2800293.6300049.4500122,1.0499878.2399902,1.6400146-.8099976,4.7800293-2.539978,6.5499878-1.1099854,1.960022,1.5700073,1.4100342,3.9400024,1.2000122,6.0100098-.2999878,2.8999634.2300415,5.5200195,1.8400269,7.9699707.1400146.210022.3299561.25.4899902.2000122.539978,1.8599854,2.8599854,2.4100342,4.8300171,1.9899902,3.9799805-.8599854,10.7999878-10.4699707,14.539978-6.2999878.210022.2399902.6199951.1099854.7399902-.1400146.3200073.2600098.8599854.3200073,1.1699829-.1199951,7.1100464-9.9799805,17.2300415,4.8099976,22.9000244,8.5,2.1699829,1.4200439,4.3300171,2.1099854,6.8699951,2.4800415,3.4299927.5099487,6.3400269.4499512,8.4700317,3.7599487,1.2599487,1.9400024,1.539978,4.3699951,1.6199951,6.6100464.1099854,3.1300049-1.3800049,6.8599854,2.2099609,7.6699829,1.6300049.3599854,4.6199951-1.7600098,6.9700317-1.3400269,1.4799805.2600098,2.9299927.7900391,4.3299561,1.3200073,4.210022,1.5800171,8.4100342,3.4500122,12.5300293,5.2800293,1.2000122.5299683,2.4500122,1.0299683,3.5499878,1.7600098,4.2300415,2.7799683,3.4199829,7.7099609,1.0400391,11.3800049-1.7400513,2.6599731-4.1200562,4.8499756-6.0300293,7.3799438-4.0700073,5.3600464-2.8800049,9.7200317-4.3699951,15.8600464-1.7600098,7.1999512-9.8800049,5.1199951-13.0200195,10.8200073-2.6199951,4.7799683.1500244,14.6599731-5.8200073,17.0299683-.3599854-.2399902-.8899536-.0899658-1.0099487.3099976-.1800537.039978-.3600464.0800171-.5599976.1099854-.4900513.0800171-.3800049.9200439.1199951.8800049.2099609-.0100098.3999634-.039978.5899658-.0700073.7299805,2.9100342.1400146,6.1400146-2.7999878,7.9000244-3.1599731,1.8900146-3.0999756.3599854-5.4899902.8200073-1.7200317.3300171-1.8200073,2.9299927-4.0499878,3.5999756-.3300171.1000366-.6000366.4800415-.4800415.8400269.8800049,2.5200195.6900024,5.0999756-.5899658,7.4599609-.1799927.3200073-.0800171.7400513.2399902.9200439,3.2600098,1.8999634,5.2700195,4.539978,6.4500122,7.9599609-3.8800049-1.5999756-7.6700439-3.4099731-11.3400269-5.4299927.0200195-.1599731-.0299683-.3399658-.1699829-.5-3.9700317-4.4099731-4.5300293-10.2699585-7.4199829-15.2600098-1.710022-2.9499512-4.7600098-5.0899658-5.5599976-8.5799561-.6000366-2.6100464.5899658-5.2399902-.3500366-7.9400024-1.2199707-3.4500122-3.5999756-5.25-3.8900146-9.2800293-.2099609-2.9099731.8900146-5.8599854,1.1700439-8.75.3299561-3.2999878-.1700439-6.5700073-3.460022-8.0999756-2.7199707-1.2800293-5.9799805-.6000366-8.7999878-1.8400269-3.2900391-1.4500122-5.6600342-4.2099609-8.0100098-6.8299561-2.4899902-2.7700195-4.9899902-5.5400391-7.3900146-8.3800049-2.5999756-3.0800171-4.6699829-5.3900146-2.5799561-10.1700439.5699463-1.2999878,1.7699585-2.3099976,2.3599854-3.6199951.9299927-2.0799561.6699829-3.6799927.8200073-5.8699951.3399658-4.6499634,2.7599487-6.0199585,5.1399536-9.3900146,1.960022-2.7599487,2.8900146-6.0099487.6400146-8.75-.0100098-.3899536-.3099976-.7599487-.8200073-.6199951-4.6799927,1.3000488-9.7600098-.0299683-11.4099731-5.1799927-.1600342-.4899902-.0599976-3.6400146-.5700073-4.4299927-1.2299805-1.8900146-2.5999756-1.3800049-4.5300293-2.2700195-3.5799561-1.6599731-2.5499878-5.4199829-5.6099854-6.6799927-3.2199707-1.3399658-6.3699951.8300171-9.6300049-1.5799561.3800049-5.8600464,1.1199951-11.7000122,2.2300415-17.4800415,2.0045166-10.4824219,5.2349243-20.7661743,9.7084961-30.6366577,11.5510864-.0484009,23.1025391-.1595459,34.6505127-.4277954.2126465-.0111694.3693237-.0894775.4924316-.1902466.1790161.0336304.3804932.0223999.5931396-.100708,4.2190552-2.4732056,3.4916382-8.1135864-.0112305-10.8889771-2.8313599-2.2494507-6.9832764-2.8537598-10.284668-1.4436646,2.6390381-7.1065063-.4833374-13.4052124-6.1251831-17.8390503.0185547.0080566.038147.0145874.0568237.0224609,9.5674438-11.5152588,20.9863281-21.4602051,33.8196411-29.175354.1300049.210022.3500366.3599854.6900024.3200073,4.6500244-.4500122,9.3500366-.75,13.9700317-1.4000244,3.8699951-.5499878,7.5799561-1.7299805,11.3999634-2.4699707,1.1500244-.2299805,2.3099976-.4099731,3.4899902-.5300293,9.6100464-.9400024,19.2200317.9300537,28.7400513,2.0400391,4.6699829.539978,9.3499756.9199829,14.0499878.789978,2.5799561-.0800171,5.1499634-.2999878,7.7099609-.5599976,1.5300293-.1599731,5.7200317-1.4699707,7.0900269-.789978,7.2399902,3.5700073-8.289978,10.4199829-10.460022,11.2299805-4.4199829,1.6600342-8.9400024,2.3300171-13.6099854,2.5900269-.1599731-.3699951-.5200195-.6900024-1.0200195-.6199951-3.7099609.5099487-4.0199585,4-5.9899902,6.5-2.0700073,2.6399536-6.4199829,3.0199585-9.1699829,1.1299438-3.1600342-2.1599731-3.1300049-6.5299683.1500244-8.5299683.1599731-.0999756.1999512-.2600098.1799927-.4099731.5499878-.1700439.6900024-1.0600586.0099487-1.210022-.5899658-.1300049-.3399658-5.2399902-1.6399536-6.2700195-1.7300415-1.3699951-5.4200439-1.3499756-7.5100098-1.8800049-3.539978-.8899536-7.8800049-2.0499878-11.5700073-1.1599731-.9299927.2299805-1.8200073.5800171-2.6500244,1.1099854-2.7199707-1.0800171-4.8699951,2.1500244-3.1300049,4.5100098,1.2000122,1.6500244,3.7600098,1.8699951,5.4800415,2.6799927.5700073.2700195,1.1300049.5800171,1.6599731.9299927,1.2700195.8500366,1.6900024.9199829,1.3599854,2.3599854-.3299561,1.4500122-1.2199707,1.6199951-2.5999756,1.75-.5499878.0599976-1.0999756.0200195-1.6400146-.0499878-.0199585-.0800171-.039978-.1599731-.0700073-.2399902-.3399658-.9500122-1.8699951-.539978-1.5199585.4199829,0,.0100098,0,.0200195.0100098.0300293-.0200195.1300049.0099487.2600098.0899658.3699951.2700195,1.6199951-1.4400024,2.9099731-2.9799805,2.9400024-1.0100098.0200195-1.9799805-.289978-2.9199829-.6199951-.8400269-.2900391-3.7600098-.9899902-4.7200317-1.9400024,1.1500244-.6099854,2.2399902-1.2600098,3.2600098-2.0900269.4099731-.3399658-.1199951-.9299927-.5499878-.7099609-1.2900391.6499634-2.5300293,1.3099976-3.8900146,1.8299561-.3900146.1500244-.5499878.460022-.4899902.8699951.0899658.6300049.3900146,1.0599976.789978,1.3800049.4100342.3300171.9299927.5500488,1.4899902.75,2.1199951.7800293,4.3600464,1.9500122,6.6500244,2.0599976,2.5.1199951,5.0200195-1.4899902,5.0200195-3.9299927,2.6499634.4000244,6.7799683-.1199951,6.539978-3.0599976-.1199951-1.5700073-1.7999878-2.7799683-2.9799805-3.5700073-.9100342-.6199951-1.8900146-1.0999756-2.9000244-1.5099487-.4799805-.1900024-.960022-.3400269-1.4400024-.5100098-.4000244-.1100464-.789978-.25-1.1599731-.4200439-1.1500244-.289978-1.1000366-1.1300049.1300049-2.5199585.1099854-.0499878.2199707-.1000366.3299561-.1400146.2000122-.0100098.3699951-.0900269.5100098-.210022,3.3099976-1.25,6.2999878-1.3200073,9.9700317-.5199585,1.7399902.3800049,3.4400024.9599609,5.1799927,1.3800049.7199707.1799927,3.8299561.3599854,4.4699707.8699951,2.0599976,1.6399536-.5700073,5.6900024,2.1900024,6.289978-4.1799927,1.9199829-3.5599976,7.960022.0499878,10.3900146,2.4200439,1.6199951,5.8800049,1.9400024,8.5500488.8200073,3.6699829-1.5400391,3.9199829-7.0400391,7.5-8.0700073.0599976.0299683.1199951.0499878.1999512.0499878,9.1400146.4699707,21.3099976-2.5900269,27.6500244-9.6900024,1.5299683-1.7199707,2.6300049-4.0900269.7700195-5.9699707-2.7600098-2.8000488-9.2800293-.4800415-12.6000366-.1700439-13.0199585,1.210022-25.5100098-1.7099609-38.4400024-2.5100098-6-.3599854-11.8699951,0-17.7199707,1.4200439-6.3800049,1.539978-12.7399902,2.2299805-19.2399902,2.8599854,2.8899536-1.6400146,5.8399658-3.1699829,8.8599854-4.5700073,27.5800171-12.8499756,59.2799683-15.8499756,89.1099854-10.6599731,23.8300171,4.1499634,45.4500122,14.3599854,62.9799805,30.4699707-3.4099731,3.6600342-7.8099976,1.4199829-11.6699829.0200195-2.7799683-1.0100098-5.5299683-1.6199951-8.460022-1.8800049-5.9499512-.5499878-12.3299561-.5400391-18.2399902.3699951-4.9299927.7600098-9.4599609,2.5100098-13.0700073,6.0299683-1.2799683,1.2400513-2.2799683,2.210022-3.789978,3.1800537-.0899658.0499878-2.4899902,1.2599487-2.7000122,1.5099487-.9799805,1.1700439-.9699707,1.4700317-.5100098,2.8099976.0700073.2200317.210022.3600464.3700562.4400024.289978.9300537,1.0499878,1.6400146,2.25,1.8699951,2.4499512.4800415,4.6299438-1.6599731,6.8399658-2.5199585.6300049,2.5,2.5700073,5.0999756,5.4100342,4.8999634,3.4599609-.2399902,4.8299561-5.4599609,4.5499878-8.1999512,0-.0800171-.0300293-.1500244-.0599976-.2200317,1.0899658-.5800171,2.1599731-1.1599731,3.2600098-1.7000122-1.0400391,1.2900391-2.4100342,2.5200195-.8000488,4.1400146.7300415.7299805,1.960022.8800049,2.9400024.9100342,1.5100098.0499878,3.0800171-.1100464,4.6300049-.3000488-2.2000122,1.1799927-4.1699829,2.6700439-5.8499756,4.6199951-2.3200073,2.7000122-4.1500244,4.1700439-7.9000244,4.4500122-2.789978.2000122-5.5899658.0700073-8.3900146.2399902-6.0799561.3699951-12.5199585,2.4100342-14.9799805,8.4200439-2.039978.2599487-7.0200195.9199829-5.1799927,3.3899536.4299927.5700073,1.2800293.8200073,1.7999878,1.3000488.8300171.789978,1.3699951,3.5299683.460022,4.1999512-.460022.3300171-1.3099976.3099976-1.8500366.3200073-2.5.0800171-5.0599976-.5299683-7.5599976-.7299805-.5599976-.039978-.8499756.5499878-.7599487,1.0200195-.0700073.0199585-.1400146.0599976-.210022.1399536-2.0800171,2.5900269-2.6500244,7.3400269-1.6699829,10.4900513,1.1499634,3.7199707,6.0099487,4.2999878,9.3299561,4.5699463.0800171.0100098.1500244,0,.210022-.0199585.4799805-.1000366.6400146-.7300415.4099731-1.1199951-.0899658-.1500244-.2299805-.2700195-.4299927-.3200073-3.0100098-.75-7.4899902-.75-8.1799927-4.5-.4899902-2.7200317-.0899658-6.0700073,1.0400391-8.5499878.0199585-.0500488.0299683-.1000366.0299683-.1500244.0100098,0,.0100098.0100098.0200195.0100098,3.039978.4500122,9.8699951,2.4099731,12-1,.8900146-1.4100342.4599609-3.1799927-.5400391-4.4100342-.5599976-.6900024-2-1.2099609-2.4400024-1.8999634-.5299683-.8599854,1.0300293-.8800049,1.8099976-1.1600342.5400391-.1900024,1.0900269-.3399658,1.6500244-.5099487.3200073.3999634,1.039978.5199585,1.2800293-.0400391,4.2599487-9.7299805,15.6799927-7.0899658,24.1099854-8.2399902,2.3200073-.3099976,3.4500122-.5499878,5.0700073-2.1300049,1.289978-1.2600098,2.0700073-3.0999756,3.3899536-4.4099731,1.75-1.7400513,3.7900391-3,5.9900513-4.0800171.1199951-.0599976.1900024-.1600342.2199707-.2700195.8500366-.289978.8099976-1.6900024-.1900024-1.6099854-1.4299927.1099854-2.8599854.25-4.289978.3900146-.8699951.0799561-3.3699951.7000122-4.1300049.1499634-1.3800049-1,1.0899658-3.5099487,1.1900024-4.7599487.0499878-.5700073-.6000366-.7900391-1.0300293-.5900269-1.9899902.9299927-3.9599609,1.9199829-5.6499634,3.3400269-.1700439.1399536-.1799927.3099976-.1199951.4599609-.0200195.0499878-.0400391.1000366-.0500488.1600342-.1799927,1.5999756-.3499756,3.7599487-1.4299927,5.039978-2.3699951,2.8099976-5.289978.3200073-5.6900024-2.7600098-.0700073-.5200195-.4599609-.9099731-1.0099487-.7700195-1.3800049.3300171-7.0200195,4.0100098-8.460022,1.9300537.0100098-.0900269.0100098-.2000122-.0100098-.3200073-.1799927-.8500366,4.6699829-3.8800049,5.3599854-4.5200195,2.0100098-1.9000244,3.8300171-3.7399902,6.3800049-4.9400024,5.8599854-2.7600098,12.75-2.6500244,19.0800171-2.5900269,3.6699829.0300293,7.4000244.1100464,10.9899902.9800415,2.8200073.6900024,5.4100342,2.1599731,8.2700195,2.6400146,3,.5099487,5.8699951-.1700439,7.6199951-2.6100464,2.9299927,2.7300415,5.7600098,5.6199951,8.4400024,8.6900024,15.7799683,18.0300293,26.1600342,40.1199951,31.0100098,63.4800415-.0699463-.0200195-.1400146-.0400391-.2301025-.0300293-4.5998535.3800049-8.2999268-.3099976-11.9799194-3.289978-1.7200317-1.3900146-3.1300049-2.7600098-5.4400024-2.2399902-.2000122.039978-.2999878.1699829-.3300171.3199463-.1699829.1100464-.2999878.2800293-.3099976.5400391-.2199707,3.9099731,2.25,8.1900024,5.3400269,10.5100098,4.249939,3.1900024,9.4400024,2.3299561,14.2000122.9299927.1600342.9799805.3299561,1.9599609.4699707,2.9400024.3900146,2.7999878.7000732,5.6399536.960083,8.4899902-3.5200195.8300171-6.8200684,2.460022-9.7301025,4.5899658-1.3800049,1-2.5899658,2.1300049-3.8199463,3.2900391-2.0400391,1.8900146-11.2900391,9.9500122-12.0700073.7399902-.0400391-.4700317-.4700317-.6300049-.7900391-.5-.8499756-3.7399902-4.7799683-4.2600098-6.0999756-7.75-1.1300049-3-.5499878-5.3900146-2.6099854-8.0999756-.7700195-1.0200195-1.7200317-1.8800049-2.5800171-2.8200073-1.7299805-1.9000244-2.3900146-3.6799927-3.539978-5.8500366-.8699951-1.6399536-1.0800171-2.4699707-2.8300171-2.6300049-.3400269-.5-1.3500366-.5099487-1.460022.210022-.8399658,5.3400269,5.5400391,8.9099731,7.7999878,13.1199951,2.710022,5.0499878-.0999756,11.0100098,4.5,15-.0899658.2600098-.0699463.5800171.1400146.8200073,1.5800171,1.8499756,4.1099854,2.1199951,5.4199829,4.3900146.7700195,1.3299561.75,2.3099976,2.1300049,3.3099976,3.0599976,2.2199707,8.1900024,2.1499634,12.0200806,2.289978-.0300293.1199951-.0300293.2399902.0300293.3800049,5.4199219,13.0800171-12.3800659,18.2999878-15.5300903,28.8599854-.25.0400391-.4899902.2000122-.5999756.5300293-3.2000122,9.4899902,3.2199707,21.8300171-3.7000122,30.1499634-2.1699829,2.6100464-7.6600342,3.9500122-9,7.1100464-.2200317.5199585-.0900269,1.0999756-.1300049,1.6499634-.1699829,2.0300293.5100098,3.7600098-.3699951,5.7700195-.8400269,1.9099731-2.5300293,3.4299927-4.3900146,4.3399658-.3699951.1800537-.25.7300415.0499878.8800049.1799927,3.0800171-1.6699829,6.5-4.75,7.5-1.1599731.3699951-2.5100098.1700439-3.6999512.460022-1.4200439.3499756-2.3900146.8499756-3.3900146,1.9700317-1.7800293,1.9899902-1.9400024,4.8199463-3.2600098,7.039978-2.6400146,4.460022-7.6199951,4.9199829-11.75,2.789978.0200195-.2699585-.0800171-.539978-.3699951-.7000122-2.7299805-1.4699707-.8400269-7.3699951-2.3200073-10.0499878-.25-.4500122-1.2200317-.8599854-1.4000244-1.0700073-2.8599854-3.4299927-2.3599854-4.9599609-1.2599487-9.1399536.5799561-2.210022,1.3899536-2.75.1399536-4.5500488-.6799927-.5299683-1.3599854-1.039978-2.039978-1.5499878-1.7600098-1.6499634-2.710022-3.7199707-2.8400269-6.2000122-.25-1.2199707-.3299561-2.2699585-.5799561-3.3599854.3800049-.0599976.6900024-.3200073.6300049-.8200073-.9400024-8.1300049,5.9799805-17.3399658,1.5699463-25.2099609-2.4599609-4.3800049-7.8099976-4.5300293-7.5099487-10.5200195.2299805-4.3699951,1.8599854-7.3599854.5899658-11.5700073,0-.0700073.0200195-.1300049.0100098-.2000122-.2600098-1.9799805-1.789978-2.039978-3.4799805-1.7600098-2.9800415.4800415-5.5300293-.7399902-7.4400024-2.8999634-.1100464-.4299927-.5-.8099976-1.0700073-.710022-8.2200317,1.5400391-15.5400391,7.8400269-23.9199829,2.8500366-4.3300171-2.5800171-5.4800415-6.0400391-7.0599976-10.5100098-1.1400146-3.2200317-4.7400513-4.8900146-5.6300049-8.1400146,1.1499634-1.8400269,1.9799805-3.6799927,2.2799683-5.8499756.210022-1.5500488.0100098-2.8400269-.0499878-4.3800049-.0800171-2.3000488.3900146-3.3300171,1.2600098-6.0200195.7699585-2.3599854.789978-3.5599976.9599609-6.1799927.2400513-3.8400269,2.2000122-7.4100342,3.9000244-10.8099976,3.3599854-6.7200317,7.7999878-11.6699829,15.1199951-13.9799805,4.4000244-1.3800049,21.5-5.4900513,22.9899902,1.8699951.0900269.4499512.6000366.5099487.9100342.2999878.1599731.1199951.3699951.1699829.6099854.0899658,5.5700073-1.8499756,8.9500122,3.1799927,13.3699951,5.4700317.0999756.0499878.1900024.0599976.2700195.0499878.3999634.1699829.8999634.0700073,1.0199585-.5,1.1700439-5.7600098,10.6500244.5900269,13.5100098,1.1799927,1.9299927.4100342,3.8300171.4500122,5.6900024.1500244,5.4199829.8099976,15.6600342-1.6400146,14.2900391-9.0700073-.460022-2.5200195-2.5-4-5-4.1900024-2.0900269-.1600342-3.9900513.6400146-6,1.0499878-3.9900513.8300171-7.6600342-1.2600098-7.3800049-5.3399658v-.0100098c2.4400024-7.0100098,10.6399536-2.460022,15.5799561-1.9700317,2.3000488.2300415,5.8400269.1400146,6.7800293-2.4400024,1.6300049-4.5100098-4.9199829-7.1900024-8.4700317-7.9799805.1700439-.4299927-.1599731-.9799805-.789978-.9000244-4.3200073.6000366-6.8599854-4.2999878-11.0499878-1.3200073-1.1400146.8100586-1.960022,1.960022-2.3400269,3.3100586-.25.8899536-.0700073,1.7199707-.25,2.5999756-.7799683,3.8599854-2.0999756,5.7299805-5.8999634,5.75h-.0200195c-.2700195-.1500244-.5999756-.1600342-.8300171.1199951-.3299561.3900146-1.9500122,3.8300171-1.6599731,3.8300171-3,1.3099976-4.8400269-5.8699951-5.5200195-7.1199951-2.0100098-3.6600342-8.2199707-5.1700439-11.8499756-6.7300415-.5100098-.2199707-.9500122.3200073-.7399902.7000122-.0900269.1799927-.1200562.4000244-.0100098.6300049.7600098,1.6500244,2.0199585,2.8900146,3.4400024,3.9899902.7699585.5900269,1.5799561,1.1300049,2.3800049,1.6699829.5099487.3500366,1.0199585.6800537,1.5199585,1.0400391.2800293.1900024.5400391.3800049.7999878.5899658.8300171.3699951.7400513.8800049-.2699585,1.5500488-.4500122-.0700073-.8400269.1799927-.8599854.6499634-.0500488,1.0300293-.210022,1.8099976-.5,2.7200317-.6100464-6.8699951-10.0500488-5.4500122-11.3200073-11.9500122-.0100098-.0499878-.0300293-.0800171-.0500488-.1199951-.1399536-.5100098-.75-.8599854-1.2199707-.3599854-2.7800293,2.9799805-7.5100098-.7700195-10.3900146,2.5-1.1699829,1.3299561-1.7199707,3.4899902-2.4199829,5.0699463-1.5800171,3.5500488-3.3900146,6.6700439-7.4299927,7.7900391-.4000244.1099854-.460022.5199585-.2999878.789978.1099854.1799927.3200073.3099976.5899658.25,4.960022-1.0599976,7.1699829-5.2000122,9.0800171-9.5200195.9299927-2.1199951,1.289978-4.0499878,4.3499756-4.4699707,1.1500244-.1500244,2.3900146.4099731,3.5700073.3800049,1.3200073-.039978,2.3699951-.25,3.2900391-.9899902.4899902,2.0299683,1.8899536,3.5700073,3.7599487,4.6499634,1.2600098.7200317,2.6400146,1.210022,3.9100342,1.9100342,1.9799805,1.0899658,2.6199951,2.4699707,3.3200073,4.5299683.1799927.5200195.8800049.6000366,1.1699829.2399902.1599731.3300171.710022.460022.9099731.0600586.4700317-.9000244.75-1.7900391.9200439-2.75,1.8599854.039978,3.7399902-1.1200562,1.9699707-3.0900269-2.4199829-2.7000122-5.8200073-3.8599854-8.1400146-6.6300049,3.4900513,1.6300049,7.5599976,3.1699829,9.3600464,6.4799805,1.1499634,2.1199951,1.7099609,4.1799927,3.5299683,5.9400024.8500366.8400269,2.4899902,2.4800415,3.8800049,1.6199951.5-.3099976.4000244-.3699951.7299805-.9499512.75-1.3000488.3500366-2.3400269,1.210022-3.7900391,2.2800293.0700073,4.3300171-.2799683,5.6900024-1.5599976.7600098-.7000122,1.2999878-1.6900024,1.5700073-3.0499878.2799683-1.4400024-.1099854-3.1099854.3499756-4.5300293.5800171-1.8399658,1.8600464-2.8799438,3.8400269-3.1399536,1.210022.3200073,2.2700195.8899536,3.2000122,1.7000122,1.5.6299438,2.6699829.9599609,4.0999756.6399536.0700073.0900269.1600342.1600342.2999878.1900024,1.6500244.4000244,3.3300171.8400269,4.7900391,1.7600098,1.0499878.5499878,1.9199829,1.3400269,2.6099854,2.3699951-.710022,3.1000366-2.210022,4.3099976-4.4799805,3.6400146-3.1100464.1300049-6.1200562-1.75-9.2700195-1.8900146-2.4500122-.1099854-4.9799805.6799927-6.5100098,2.4299927-.6500244.7399902-1.1199951,1.6700439-1.3300171,2.7700195-.0599976.3200073.0599976.5700073.25.7299805-.2299805,3.0700073,1.75,6.1300049,4.960022,6.7999878,1.3300171.2800293,2.710022.0600586,4.0299683-.2099609,1.1700439-.25,2.3000488-.6400146,3.5-.7900391,2.2600098-.2999878,2.7000122-.2599487,4.1600342,1.6800537,3.8399658,5.1099854-2.960022,7.3699951-7.9700317,8.039978-.0999756-.0800171-.2299805-.1300049-.3999634-.0999756-.8599854.1599731-1.7000122.25-2.5300293.3199463h-.4599609c-.1100464-.0099487-.2000122.0200195-.2900391.0599976-3.3599854.1500244-6.4799805-.4699707-9.7399902-2.0799561-1.6599731-.8200073-3.2099609-1.9700317-5.1199951-2.1600342-2.5-.25-4.8699951.9400024-5.5,3.3500366-3.3300171-3.460022-9.0100098-7.9299927-13.710022-5.5-.9400024-5.8300171-8.5199585-4.9000244-13.1399536-4.4899902-3.4400024.2999878-6.9800415.75-10.3600464,1.6699829-3.3199463.9199829-6.4799805,2.289978-9.2299805,4.4500122-5.5599976,4.3599854-9.5800171,12.2099609-11.539978,18.8999634-.4800415,1.6700439-.3400269,3.2399902-.6099854,4.9200439-.3900146,2.4599609-1.7700195,4.5899658-2.2200317,6.9599609-.289978,1.5.0499878,3,.1699829,4.5.2600098,3.1600342-.4400024,5.9500122-2.0700073,8.6799927-.2999878.4899902-.0499878.9400024.3300171,1.1500244,0,1.0700073.0499878,1.4500122.8599854,2.6900024,1.4900513,2.289978,3.1600342,2.539978,4.2600098,5.5999756.3099976.8500366.3500366,1.8300171.6199951,2.710022,1.1300049,3.5,3.5800171,6.4899902,6.6400146,8.4899902,8.8800049,5.8200073,16.6199951-.2399902,25.5599976-2.25.8900146,1.2700195,2.1000366,2.2600098,3.5300293,2.9000244.8299561.3699951,1.6900024.6099854,2.5899658.7099609.4000244.0499878,3.9100342-.1099854,3.9199829,0,.0500488.3600464.2800293.6000366.5500488.7300415.3599854,2.5299683.2299805,4.8299561-.3400269,7.4199829-.3699951,1.6699829-1.0700073,3.3800049-1.039978,5.1300049.0499878,2.8699951,1.3900146,4.5199585,3.6900024,6.0999756,10.7299805,7.4299927,1.1599731,18,2.5,28.1199951.0199585.1700439.0799561.2999878.1599731.4100342.1000366,3.5999756-.2000122,6.9799805,2.210022,10.0499878,2.0100098,2.5700073,3.0100098,2.0499878,2.4299927,5.5599976-.3699951,2.289978-1.2399902,4.3400269-1.0499878,6.7199707.0799561,1.0100098.1499634,1.9200439.75,2.7800293.2699585.4000244.8800049.5999756,1.1300049,1,1.4899902.4099731,2.0899658,1.5,1.8099976,3.2700195.5499878.8999634.75,1.8200073.6099854,2.7599487.3099976,2.6200562-.0999756,4.6400146,2.7799683,5.6100464.0500488.0199585.1000366.0199585.1500244.0199585,5.2000122,4.210022,12.0300293,1.6800537,14.7999878-4.2099609.2800293-.5900269.4200439-1.2300415.6700439-1.8400269,1.3599854-3.2299805,3.2799683-3.8599854,6.5799561-4.9599609,1.4899902-.4900513,2.7800293-.7000122,4.0700073-1.6800537,2.6199951-2,3.6900024-4.8899536,3.1699829-8.0599976-.0199585-.1099854-.0599976-.1999512-.1099854-.2799683,2.6199951-1.3800049,4.5300293-3.7000122,5.0499878-6.7700195.4400024-2.6300049-.3599854-4.1699829,2.0800171-6.3499756,1.8800049-1.6900024,4.3400269-2.4100342,6.1099854-4.3400269,7.1000366-7.7399902,2.9299927-20.1499634,4.0300293-29.7600098,1.3900146-7.5,9.6699829-11.9499512,13.9899292-17.9699707,3.0100098-4.1900024,5.0900879-9.2800293,2.4200439-14.1300049.25-.3300171.2000732-.9199829-.289917-1-2.0500488-.3499756-4.1000977-.6199951-6.1600952-.8900146-4.0099487-.5299683-5.539978-.7399902-7.6999512-4.4899902-1.4000244-2.4199829-3.4299927-2.960022-5.6700439-4.4099731-.0199585-.0400391-.039978-.0800171-.0700073-.1100464-3.1099854-3.3800049-2.539978-7.2099609-2.9799805-11.0499878.25,1.4500122.4799805,2.8900146,1.25,4.2700195,1.4500122,2.5899658,4.8200073,3.210022,5.6900024,6.4299927.1600342.5900269.7299805.6799927,1.1400146.4500122-.0800171,4.3599854,4.4500122,5.9799805,8.25,4.6099854,2.7700195-1.0100098,4.6900024-3.210022,6.789978-5.1799927,3.5499268-3.2999878,7.4200439-5.2399902,11.8699951-6.8599854,2.2299805,27.3899536-1.7299805,56.7799683-12.7700195,81.6599731-.0799561.1600342-.1599121.3200073-.2299805.4799805ZM309.0775452,118.9994812c-1.4000244-1.6400146-2.5100098-3.3300171-2.6199951-5.2000122,1.2000122,1.039978,1.8499756,3.4599609,2.6199951,5.2000122ZM356.1875305,156.8094788c-.6900635,21.5299683-6.5100098,41.7600098-17.2698975,59.7999878,4.579834-8.1900024,8-17.0100098,10.4799805-26.0700073,5.9099121-21.5499878,8-45.7600098,5.1398926-68.5800171-.8499756-6.8099976-2.1398926-13.5-3.9099121-19.9599609-7.1600342-26.1700439-22.6200562-49.9800415-43.3800659-67.4200439-3.9499512-3.3200073-8.0799561-6.3599854-12.3299561-9.1599731.3099976-.1900024.4400024-.7000122.0299683-.9400024-8.789978-5.1300049-18.0299683-9.6400146-27.5700073-13.3599854,3.8300171,1.3399658,7.6199951,2.8299561,11.3500366,4.5199585,24.3399658,11.0400391,45.3899536,29.4900513,58.8699951,52.6400146,9.5799561,16.4500122,14.7900391,34.8500366,17.1300049,53.6600342,1.4599609,11.5799561,1.8299561,23.3199463,1.4599609,34.8699951Z"/>
      <path class="st0" d="M103.8635483,59.5847473c-.2685547-.1454468-.6043091.2350464-.3356934.4364624,1.6115112,1.2758179,2.9544678,2.6746826,3.9952393,4.465271.3469238.5931396,1.2981567.0447998.9176636-.5371704-1.1303101-1.7793579-2.6970825-3.3796997-4.5772095-4.364563Z"/>
      <path class="st0" d="M103.8299789,56.6750793c-.3356934-.0783691-.5930786.4252319-.2461548.5931396,1.2421875.6154785,2.4396362,1.1862183,3.536377,2.0591431,1.0184326.8169556,1.7681885,1.8129883,2.6523438,2.7642212.3580933.3917236.9512329-.1118774.7161865-.5595703-1.2198486-2.3277588-4.1183472-4.3085938-6.6587524-4.8569336Z"/>
      <path class="st0" d="M15.2182817,66.9373474c.0671997-.7609863-1.1414795-.7721558-1.1862183,0-.1119385,1.757019.1342773,3.536438.6602783,5.2039185.1342773.4140625.7050171.2349854.6378784-.1678467-.2573853-1.6898804-.2686157-3.3461914-.1119385-5.0360718Z"/>
      <path class="st0" d="M13.1031694,66.9150085c.0671387-.6602783-1.0183716-.7946167-1.15271-.1566772-.5483398,2.6634521.100769,5.6627197,1.7905884,7.8002319.2686157.3357544.7162476-.0895386.5595703-.425293-1.1303101-2.4172974-1.4995728-4.565979-1.1974487-7.2182617Z"/>
    </g>
  </g>
</svg>