<?xml version="1.0" encoding="UTF-8"?>
<svg id="Layer_1" xmlns="http://www.w3.org/2000/svg" version="1.1" viewBox="0 0 460.0000305 229.8999939">
  <!-- Generator: Adobe Illustrator 29.5.1, SVG Export Plug-In . SVG Version: 2.1.0 Build 141)  -->
  <defs>
    <style>
      .st0 {
        fill: #d1703c;
      }
    </style>
  </defs>
  <path class="st0" d="M90.2999954,88.3999329h-35.7999992v98.7999878c0,5.6000061.5999985,9.7999878,1.7999992,12.3999939s3.1999969,4.2999878,6,5,6.6999969,1.1000061,11.5999985,1.1000061h17.4000015v19c-1.9000015.7000122-4.9000015,1.2999878-8.8000031,1.8999939-3.9000015.5-8.8000031.7999878-14.6999969.7999878-11,0-19.5-1.5-25.5-4.5s-10.2999992-7.3999939-12.7000008-13.2000122c-2.3999996-5.7999878-3.6000004-13-3.6000004-21.5v-99.8000183H0v-20.7999878h26.6000004l6.8999996-46.2999878h20.9000015v46.1000061h35.7999954v20.8999939l.0999985.1000366Z"/>
  <path class="st0" d="M149.8999939,229.6999512c-10.3000031,0-19.3000031-1.7999878-27.1999969-5.5-7.9000015-3.6000061-14.0999985-8.8999939-18.5-15.7999878-4.5-6.8999939-6.6999969-15.2000122-6.6999969-24.8999939,0-17.6000061,6.0999985-30.7000122,18.4000015-39.2999878,12.2999954-8.6000061,32.0000076-13.2000122,59.2000046-13.7999878l28.3999939-.7999878v-12.3999939c0-9.7000122-2.8999939-17.3999939-8.8000031-23.1000061-5.8000031-5.7000122-14.8999939-8.5-27.1999969-8.5-9.1000061,0-17.1000061,2.2999878-24.1000061,6.5-6.8999939,4.2000122-11.3999939,11.1000061-13.3999939,20.6000061h-25.0999985c.5999985-10.2999878,3.5-19.1000061,8.8000031-26.2000122,5.1999969-7.1000061,12.4999924-12.5,21.9000015-16.2000122,9.3999939-3.7000122,20.5-5.5,33.3000031-5.5s25.3000031,1.8999939,34.5,5.7999878,16,9.6000061,20.6000061,17.2000122,6.8000031,16.8999939,6.8000031,28v111h-24.3000031l-2-29.7999878c-6.1999969,12.3999939-14,21-23.5,25.7999878s-19.8999939,7.1000061-31.3000031,7.1000061l.1999817-.2000427ZM158.5,209.1999512c5.3000031,0,10.6000061-1,15.8999939-2.8999939,5.3000031-1.8999939,10.1000061-4.6000061,14.5-7.8999939s7.8999939-7.1000061,10.5-11.2000122c2.6000061-4.2000122,4-8.3999939,4.1000061-12.7999878v-27.2000122l-23.6999969.5c-12.1000061.2000122-22.1999969,1.3999939-30.3999939,3.7000122-8.1000061,2.2999878-14.1999969,5.7999878-18.3000031,10.6000061-4,4.7999878-6.1000061,11.1000061-6.1000061,18.8999939s3.1000061,15.8999939,9.3000031,20.8999939,14.1999969,7.5,24.1000061,7.5l.0999908-.1000061Z"/>
  <path class="st0" d="M294.3000183,228.5999451c-8.6000061,0-15.6000061-1.2000122-20.7999878-3.5-5.2999878-2.3999939-9.2999878-5.5-12.1000061-9.5-2.7999878-4-4.7000122-8.6000061-5.7000122-13.7999878-1-5.2000122-1.5-10.5-1.5-16.1000061V-1.8000488h28v184.6999817c0,8,1.6000061,14,4.7000122,18s7.5,6.2000122,13.1000061,6.6000061l8.6000061.2000122v18.3999939c-2.3999939.7000122-4.7999878,1.2999878-7.3999939,1.7999878s-4.8999939.7000122-6.8999939.7000122h-.0000305Z"/>
  <path class="st0" d="M460,226.5999451h-30.1000061l-49.7999878-79.7999878-31.3999939,32.3999939v47.2999878h-28.2999878V-1.9000549h28.2999878v148.8999939l74.7000122-79.5h32.6000061l-57.2999878,60.6000061,61.2999878,98.3999939-.0000305.1000061Z"/>
</svg>