<?xml version="1.0" encoding="UTF-8"?>
<svg id="Layer_1" xmlns="http://www.w3.org/2000/svg" version="1.1" viewBox="0 0 847.9271841 556.4143253">
  <!-- Generator: Adobe Illustrator 29.1.0, SVG Export Plug-In . SVG Version: 2.1.0 Build 142)  -->
  <defs>
    <style>
      .st0 {
        fill: #f7e0c4;
      }
    </style>
  </defs>
  <path class="st0" d="M162.9371328,279.2043033c0-18.5-.0299988-37,.0399933-55.5,0-2.1900024-.4900055-4.4899902.6699982-6.5799866,1.4499969,2.0899963,1.75,4.5299988,1.5899963,6.8999939-1.6699982,23.9400024-.3000031,47.9100037-.6900024,71.8500061-.0700073,4.480011,1.5800018,5.480011,5.8600006,4.5899963,14.7899933-3.0799866,29.6300049-5.980011,44.5-8.6600037,4.3499908-.7900085,5.8799896-2.6300049,5.8600006-7.1099854-.1099854-41.1900024-.0499878-82.3699951.1099854-123.5599976.019989-4.4400024-1.3200073-7.230011-5.3399963-9.5599976-15.8200073-9.2000122-31.4599915-18.7099915-47.0700073-28.2600098-3.7200012-2.2799988-3.3399963-.3299866-4.1999969,2.5299988-3.2599945,10.8599854-1.3000031,21.9700012-2.3099976,32.9100037-.1100006,1.1600037.5399933,3.1600037-1.3399963,3.1300049-1.1000061-.019989-.8099976-1.8699951-.8300018-2.9299927-.1900024-11.8800049-.3600006-23.7600098-.4499969-35.6399841-.0099945-1.9400024-.1000061-3.7999878-1.2400055-5.4100037-1.1300049-1.5899963-2.7100067-3.1600037-4.6199951-2.7799988-2.2200012.4400024-1.3999939,2.7900085-1.4299927,4.3399963-.1499939,8.1199951-.1699982,16.25-.2799988,24.3699951-.0099945.8500061.2400055,2.230011-.9499969,2.2600098-1.1799927.0400085-1.1000061-1.3500061-1.1199951-2.2099915-.1699982-8.1199951-.5500031-16.25-.3300018-24.3699951.1600037-5.75-1.9199982-9.3500061-6.9799957-12.3299866-20-11.8099976-39.75-24.019989-59.5899963-36.0899963-.6399994-.3900146-1.2200012-.8999939-1.8799973-1.269989-1.8899994-1.0599976-2.9400024-4.4899902-5.3799973-3.3099976-2.7600021,1.3299866-1.7699966,4.6900024-1.8099976,7.2399902-.1500015,9.0700073-.1100006,18.1399841-.2799988,27.2000122-.0500031,2.6300049-.5,5.25-.8399963,7.8699951-.0899963.6700134.0599976,1.5599976-.9199982,1.8299866-.1600037-.7200012-.4599991-1.4400024-.4700012-2.1600037-.0899963-7.9299927-.1299973-15.8699951-.1800003-23.7999878-.0100021-2.2200012,0-4.4500122-.6800003-6.6600037v26.5899963c0,1.7000122-.0199966,3.4100037-.1800003,5.0899963-.0999985,1.0499878-.0599976,2.6400146-1.5999985,2.4299927-.9000015-.1199951-.8300018-1.5599976-.8199997-2.480011.1200027-9.4400024,0-18.8999939.5199966-28.3200073.2900009-5.480011.4100037-10.9400024.4599991-16.4100037.0100021-1.1199951-.0800018-2.2999878-.4499969-3.3399963-.4499969-1.2799988-1.4100037-2.3699951-2.9000015-2.3299866-1.8600006.0499878-1.8099976,1.6900024-1.9000015,2.9400024-.4000015,5.4599915-.6800003,10.9200134-1.0699997,16.3800049-.0699997.9899902.2799988,2.6499939-1.3600006,2.4299927-.9899979-.1400146-.5999985-1.5499878-.5599976-2.480011.1500015-3.5799866-.0699997-7.2099915.4199982-10.7399902,1.2699966-9.230011-2.8199997-14.8699951-10.9599991-18.7700043-5.409996-2.5899963-10.3199997-6.2200012-15.4000015-9.4799957-.8600006-.5500031-2.4000015-1.4100037-1.7200012-2.5.7399979-1.1999969,2.0699997-.0599976,2.9599991.4799957,6.7699966,4.1300049,13.4800034,8.3699951,20.2699966,12.4700012,2.5699997,1.5500031,5.0400009,3.4199982,8.1800003,3.6999969,1.1200027.1000061,2.5500031.1000061,2.9800034-1.0799866.5-1.3899994-1.0299988-1.8099976-1.9000015-2.3600006-8.8199997-5.4900055-17.6800003-10.9199982-26.5100021-16.3899994s-17.6599998-10.9600067-26.4599991-16.4700012c-1.2099991-.7599945-3.4300003-1.5200043-2.5299988-3.1399994,1.0499992-1.8800049,2.6100006-.0399933,3.7799988.6900024,39.409996,24.6399994,78.7900009,49.3199921,118.1999893,73.9399872,29.8000031,18.6099854,59.6499939,37.1400146,89.4700012,55.730011,5.1000061,3.1799927,10.4400024,4.7200012,16.6100159,4.5400085,20.7799988-.6099854,41.5899963.5499878,62.3399963-1.0799866,6.269989-.4899902,11.1600037,1.1000061,14.25,6.8399963,4.9400024,9.1400146,12.2999878,11.730011,22.7900085,11.4100037,47.4199829-1.4700012,94.8699951-1.2399902,142.3099976-1.7399902,13.2000122-.1400146,26.4699707.4599915,39.5900269-.8900146,5.1699829-.5299988,10.0300293-.8599854,15.0800171.1499939,1.6400146.3299866,3.4299927-.1900024,5.0900269.0700073,14.6900024,2.2600098,26.2600098-3.5100098,37.7700195-12.2900085,27.4699707-20.9500122,55.710022-40.9100037,83.6400146-61.2600098.7600098-.5599976,1.5800171-1.0599976,2.2399902-1.7200012.4899902-.4899902,1.1199951-1.2600098,1.0300293-1.7900085-.1500244-.8699951-1.1599731-.6700134-1.8800049-.6300049-13.7700195.730011-27.539978,1.4200134-41.2999878,2.2000122-18.0999756,1.0400085-36.1900024,2.2000122-54.2800293,3.230011-24.8900146,1.4200134-49.7700195,2.8099976-74.6699829,4.1199951-11.7000122.6099854-23.3999939,1.0400085-35.1099854,1.4500122-1.5.0499878-4.1700134.8599854-4.1700134-1.2999878,0-2.0899963,2.730011-1.3299866,4.25-1.4400024,9.6000061-.7200012,19.2099915-1.4700012,28.8299866-1.8900146,22.0800171-.9700012,44.1799927-1.4899902,66.25-2.6900024,25.8200073-1.4100037,51.6099854-3.4400024,77.4199829-5.0499878,10.1799927-.6400146,20.3800049-.8900146,30.5700073-1.3500061,2.4000244-.1099854,5.0300293.3399963,6.5800171-2.2900085.3800049-.6499939,1.2299805-1.5299988,1.7000122-.9100037,3.9199829,5.2099915,4.7399902-.6700134,6.8300171-1.8399963,17.0599976-9.519989,31.9199829-22.1700134,47.710022-33.4799957,19.5-13.9600067,38.75-28.2899933,58.1599731-42.3699951,1.4699707-1.0700073,3.25-3.9700012,4.9899902-1.8699951,1.0300293,1.2400055-1.9899902,2.8000031-3.3900146,3.8399963-16.3900146,12.1499939-32.8300171,24.2299957-49.2999878,36.2799988-17.2299805,12.5999908-34.4299927,25.2299957-51.7999878,37.6399994-3.7999878,2.7200012-5.1699829,5.8900146-5.4500122,10.4200134-.8900146,14.480011-2.1699829,28.9500122-3.3900146,43.4100037-.1300049,1.5100098.7299805,4.2000122-1.5499878,4.1799927-2.2600098-.0100098-3.0700073-2.4200134-3.1400146-4.6900024-.2399902-8.1400146.7399902-16.2099915,1.6599731-24.269989.6300049-5.4700012.5700073-10.9299927.5700073-16.3999939,0-.7000122-.3099976-1.3900146-.4799805-2.0899963-1.2000122.3399963-1.1300049,1.4500122-1.2199707,2.2999878-.710022,6.3800049-.4699707,12.8099976-1.0100098,19.2200012-1.6099854,19.1799927-2.7000122,38.3999939-3.9000244,57.6100159-.0800171,1.2999878-.9299927,3.6700134.8099976,3.7399902,1.4199829.0599976,1.0900269-2.4599915,1.1900024-3.8900146.210022-2.8200073.2000122-5.6499939.4000244-8.4700012.0499878-.6600037.4699707-1.6900024.9400024-1.8399963,1-.3099976,1.2399902.7999878,1.0999756,1.4100037-.5200195,2.3200073,2.1900024,2.7099915,2.5300293,4.7399902,1.0900269,6.5599976,1.2600098,6.5299988,7.2700195,4.1900024.7000122-.269989,1.4000244-.5899963,2.1300049-.7600098.8599854-.2000122,2.039978-1.0899963,2.5499878-.0899963.5800171,1.1300049-.8599854,1.3599854-1.5999756,1.7600098-1.8200073,1-3.5999756,2.1700134-5.539978,2.8500061-3.7199707,1.3099976-5.289978,3.9200134-5.5499878,7.6799927-.8900146,12.6099854-1.8900146,25.2099915-2.75,37.8200073-1.4899902,22.019989-2.9500122,44.0499878-4.3300171,66.0799866-.9199829,14.6900024-1.6300049,29.3900146-2.539978,44.0800171-1.3499756,21.8400269-2.7800293,43.6699829-4.1799927,65.5-.039978.5700073-.1199951,1.1300049-.1300049,1.6900024-.3800049,14.8699951-1.0599976,12.6300049,10.3599854,17.960022,33.8900146,15.8300171,67.7600098,31.710022,101.6400146,47.5599976.8499756.4000244,1.7600098.7000122,2.5900269,1.1300049.6799927.3499756,1.3400269.8900146,1.0999756,1.75-.3599854,1.2600098-1.4099731,1.1099854-2.289978.75-3.3200073-1.3599854-6.6599731-2.7000122-9.9000244-4.2199707-32.8499756-15.3900146-65.6799927-30.8099976-98.5100098-46.2199707-.6799927-.3200073-1.3499756-.7000122-2.0599976-.9500122-1-.3499756-2.3599854-1.5599976-3.0100098-.3200073s1.0700073,1.6900024,1.9799805,2.1699829c8.1799927,4.3200073,16.3900146,8.5800171,24.5599976,12.9099731.9500122.5,2.9099731,1.0300293,2.4500122,1.8699951-.8400269,1.5-2.3699951.0800171-3.4000244-.4299927-12.9000244-6.2399902-25.7399902-12.6099854-38.6400146-18.8599854-13.2399902-6.4099731-25.8599854-14.0200195-39.3400269-19.9799805-8.6199951-3.8099976-16.8800049-8.4400024-25.3200073-12.6599731-1.8499756-.9299927-3.7700195-1.7399902-5.6900024-2.5300293-1.6799927-.6799927-3.3699951-.9699707-4.3200073,1.1400146-.8099976,1.7999878.2800293,2.8200073,1.6300049,3.710022.6300049.4199829,1.289978.8099976,1.8400269,1.3200073,1.289978,1.1799927,4.289978,1.960022,3.1300049,3.8499756-.9000244,1.4799805-2.6500244-1.1599731-4.1599731-1.6400146-1.6799927-.539978-3.4299927-2.6699829-5.0900269-.7199707-2.0900269,2.4699707-4.2399902,6.0700073-3.0800171,8.7700195,2.6400146,6.1300049.8599854,12.4799805,2.1300049,18.6599731,1.0200195,4.960022,2.4299927,8.7199707,6.5700073,11.8099976,2.8200073,2.0999756,5.9299927,4.3699951,6.9799805,8.1699829-3.1199951-1.1599731-4.5499878-4.3300171-7.2000122-6.0700073-1.4099731-.9299927-2.7600098-2.0100098-3.9699707-3.1900024-1.539978-1.5-2.7800293-1.5100098-4.2999878.0599976-3.0300293,3.0999756-6.9199829,3.7299805-11.0100098,3.2299805-8.1900024-1-16.5999756.3200073-24.6199951-2.4500122-1.7399902-.5999756-2.3400269.6099854-2.7199707,2-1.6500244,6.0300293-2.289978,12.2299805-3.1099854,18.3900146-.4000244,3.0300293,1.8300171,3.2299805,4.0300293,3.3800049,7.7199707.5200195,15.4699707.8099976,23.1400146,1.7000122,5.7600098.6699829,7.7600098,3.5100098,7.5900269,9.1599731-.1099854,3.6300049-1.7399902,6.2600098-5.4400024,6.9199829-3.2999878.5900269-5.2600098-1.1400146-6.289978-4.2999878-1.710022-5.2299805-6-2.3800049-9.1599731-2.5300293-1.6599731-.0800171-4.25-.3300171-5.0200195,1.6599731-.6699829,1.7199707,1.460022,2.8400269,2.4199829,4.1799927,2.4299927,3.3699951,5.0300293,6.6199951,7.3599854,10.0599976,2.4299927,3.5800171,1.7000122,7.2199707-.5200195,10.6099854-1.6400146,2.5100098-4.1400146,2.2600098-6.6300049,1.5800171-4.3200073-1.1900024-4.5-4.5800171-4.2299805-8.1400146.2800293-3.6400146-4.3800049-12.0900269-7.3900146-13.4500122-1.3400269-.6099854-2.3300171-.1599731-2.7800293.9799805-.4799805,1.1900024-.7199707,2.5499878-.7399902,3.8400269-.1699829,9.8200073-.710022,19.6099854-2.0100098,29.3499756-.4500122,3.3800049,2.1199951,5.9799805,2.9000244,9.0599976.2600098,1.0499878,1.2700195,2.5800171.3400269,3.0999756-1.1400146.6400146-1.9699707-1.0599976-2.1699829-1.9199829-2.2299805-9.4299927-9.0800171-9.7000122-16.9799805-9.4699707-46.0899963,1.3200073-92.1900024,1.0599976-138.289978,1.2000122-4.0599976.0100098-8.1199951.9899902-12.1799927-.0800171-1.0799866-.289978-2.4299927-.3099976-2.1900024-1.9000244.1700134-1.1199951,1.3299866-1.3800049,2.230011-1.3599854,3.769989.0999756,7.5299988.4500122,11.2900085.4799805,10.3299866.0800171,20.6700134-.0999756,31,.1099854,4.8599854.0999756,5.7099915-2.5800171,5.5499878-6.4799805-.0299988-.710022.2399902-1.4400024.3800049-2.1599731.9599915.2999878.5799866,1.1400146.6400146,1.75.769989,6.8499756.7600098,6.9099731,7.75,6.8400269,30.6099854-.3300171,61.2200012-.6900024,91.8300171-1.0700073,6.0100098-.0700073,6.0700073-.2700195,3.2600098-5.5599976-1.5900269-3-3.0999756-6.0300293-4.5900269-9.0800171-.210022-.4400024-.2999878-1.289978-.039978-1.539978.7600098-.7600098,1.2800293.0300293,1.7800293.5599976.1300049.1400146.1900024.3300171.3200073.460022,1.6500244,1.7399902,2.75,6.1300049,4,5.4299927,2.460022-1.3900146.8599854-5.0900269,1.1099854-7.7999878.4799805-5.2600098.8599854-10.539978,1.0100098-15.8200073.1500244-5.5800171-.539978-6.1199951-6.2199707-5.7000122-2.8200073.210022-5.6400146.8800049-8.4500122.8499756-4.9799805-.0599976-9.0300293.5499878-9.2600098,6.9199829-.0800171,2.0900269-1.5599976,3.8099976-3.8099976,4.5100098-1.6900024.5200195-3.2199707,1.1500244-3.0599976,3.4199829.0599976.9299927,1.0800171,2.460022-.710022,2.6300049-.9299927.0900269-.9699707-1.4099731-1.3999939-2.210022-2.5400085-4.7000122-3.4599915-9.8800049-4.6300049-14.9899902,5.5099792.0999756,7.6499939-5.9799805,12.7900085-6.8599854,4.1699829-.710022,3.2600098-3.7700195,2.1699829-6.6300049-3.9000244-10.2299805-7.7600098-20.4799805-11.6300049-30.7199707-.3999939-1.0599976-.8500061-2.0999756-1.1799927-3.1799927-.2200012-.7199707-.2399902-1.5999756.730011-1.75.3900146-.0599976,1.0899963.4400024,1.2900085.8499756.7299805,1.5200195,1.3300171,3.1099854,1.9500122,4.6900024,4.0300293,10.3800049,8.0800171,20.75,12.0499878,31.1500244.9899902,2.5900269,2.4799805,3.960022,5.460022,3.8900146,3.0499878-.0700073,3.710022-1.7999878,4.0999756-4.2999878.6199951-4,3.539978-3.9299927,6.4899902-3.1599731,3.0999756.7999878,4.3300171-.0900269,4.8699951-3.3800049,2.5200195-15.5300293,2.5200195-15.8699951-13.0499878-15.9199829-5.5800171-.0200195-9.039978-1.6199951-11.7199707-6.6799927-3.1699829-5.9799805-7.3599854-11.4099731-11.0899963-17.0900269-1.1300049-1.7199707-2.3699951-3.3699951-2.6900024-5.539978-.1400146-.9400024,2.3200073-1.539978.3999939-2.25-1.0799866-.4000244-1.8699951.9799805-2.2200012,2.1300049-.9500122,3.1199951,1.519989,5.3099976,2.2000122,7.9799805.2600098,1.0200195,1.7200012,2.1599731.5299988,3-.9599915.6699829-1.2600098-1.0200195-1.9200134-1.5800171-.4200134-.3499756-1.2099915-.9699707-1.3099976-.8800049-4.8599854,4.2199707-8.9700012-1.960022-13.8999939-.9099731-4.8699951,1.039978-10.1600037.2700195-15.2600098.0599976-1.9200134-.0800171-5.5400085.8900146-5.4100037-1.0300293.1799927-2.5800171,3.6900024-1.2700195,5.7200012-1.3699951,4.7200012-.2399902,9.4500122-.1300049,14.1799927-.1500244,2.8800049,0,5.4400024-.4299927,5.3699951-4.1699829-.0700073-3.710022-2.8800049-3.3699951-5.2999878-3.4400024-11.7099915-.3599854-23.4200134-1.0300293-35.1199951-.9199829-19.8599854.1900024-39.6699829-1.2299805-59.5100098-1.1799927-5.9899902.0200195-5.9899902.039978-5.1400146,6.0300293.6099854,4.2999878,1.269989,8.5900269,1.7999878,12.9000244.4599915,3.7700195,1.75,4.6300049,4.8800049,1.9199829,5.5799866-4.8099976,11.3699951-9.3699951,16.980011-14.1400146,1.980011-1.6799927,4-2.7000122,6.6700134-2.4000244,4.8399963.5499878,6.5,2.1400146,5.7999878,7.0300293-1.0299988,7.1400146-.6400146,14.3499756-1.5700073,21.460022-.4700012,3.5800171.4500122,5.5100098,4.3200073,5.4099731,1.769989-.0499878,3.5100098.1799927,4.0299988,2.289978.4899902,1.9699707-.9700012,3.0200195-2.1199951,4.2999878-9.0499878,10.039978-17.9899902,20.1799927-27.9200134,29.3900146-2.0799866,1.9299927-2.0799866,4.7700195-2.8900146,7.2600098-.6000061,1.8699951-1.230011,2.8800049-2.6000061.289978-2.1400146-4.0499878-5.5799866-2.460022-8.9400024-1.9400024-3.7399902.5800171-3.0499878,3.3099976-3.2200012,5.5800171-.7000122,9.2199707-1.1099854,18.460022-1.9899902,27.6699829-.4299927,4.4899902,1.4299927,4.9799805,5.2099915,4.4799805,10.8500061-1.4199829,21.7600098-2.3599854,32.7200012-2.4000244,3.2099915-.0100098,6.9100037-.3400269,7.9500122,3.7299805,1.1400146,4.460022,1.4299927,9.1099854-2.1600037,12.7999878-1.980011,2.0300293-4.6199951,2.5700073-7.3500061,1.6199951-2.6099854-.9000244-3.0799866-3.1500244-2.9200134-5.539978.2600098-3.8599854-1.9599915-4.6199951-5.0100098-3.9000244-3.8599854.9099731-7.6700134,2.0300293-11.4500122,3.2299805-4.0100098,1.2700195-3.1000061,3.0700073-.2799988,4.7800293,6.980011,4.2399902,13.4599915,9.0300293,18.8900146,15.2299805,4.0299988,4.5999756,5.519989,9.7800293,5.0299988,15.6900024-.4200134,4.9699707-2.0499878,6.1500244-7.519989,6.1500244-4.4599915,0-5.8800049-2.9299927-5.2399902-6.3400269,1.480011-7.789978-2.8999939-11.4899902-8.9500122-14.2399902-7.0400085-3.210022-13.8800049-7.3699951-21.2900085-9.1599731-10.6300049-2.5700073-21.1499939-1.1099854-30.8999939,4.9799805-2.1700134,1.3499756-5.7200012,1.3300171-8.519989,2.4299927-3.1099854,1.2199707-5.1199951,2.7399902-4.1900024,6.7399902.6799927,2.9400024-.1400146,6.0800171-1.769989,8.7000122-1.5499878,2.4799805-3.6799927,4.5900269-6.980011,3.6799927-3.0100098-.8300171-4.7999878-3.1599731-5-6.2299805-.3099976-4.6099854.3999939-8.8200073,4.0499878-12.4299927,6.6099854-6.5499878,14.9500122-10.2000122,22.9700012-14.3300171,2.6600037-1.3699951,2.7099915-3.1599731,2.6400146-5.4500122-.0700073-2.3699951-1.9500122-2.460022-3.5400085-2.9500122-2.019989-.6199951-3.3500061,0-3.7200012,2.1599731-.6099854,3.5900269-3.5899963,4.7299805-6.3599854,5.7999878-3.0400085,1.1699829-5.6099854.1099854-7.1300049-2.8499756-2.4500122-4.7600098.8200073-11.8099976,6.1000061-12.5499878,10.1499939-1.4199829,20.3800049-1.1900024,30.5299988,0,3.6700134.4299927,4.9299927-.6199951,4.6600037-4.0999756-.7399902-9.5900269-1.4500122-19.1900024-2.1799927-28.789978-.0400085-.5499878-.1199951-1.1500244-.3699951-1.6400146-1.2099915-2.4000244-2.3099976,4.8800049-3.0799866.1799927-.5599976-3.4199829-2.6199951-3.1199951-4.7999878-3.3800049-2.0599976-.25-4.1199951-.6400146-6.1900024-.7000122-8.2600098-.2399902-16.5400085.0900269-24.75-1.2600098-4.4400024-.7299805-6.2000122,1.1699829-5.9200134,5.6699829.2799988,4.3300171.0599976,8.6900024.0899963,13.0300293,0,.7000122-.1799927,1.7600098.75,1.8499756.4899902.0499878,1.2200012-.710022,1.6000061-1.2700195,2.8599854-4.2199707,5.6600037-8.4799805,8.5-12.710022.3999939-.5900269.8200073-1.3599854,1.6900024-1,.1799927.0700073.2200012,1.0599976,0,1.4400024-4.7799988,8.4899902-8.5400085,17.6099854-15.8800049,24.5-2.2200012,2.0900269-4.2999878,2.0599976-6.7000122,1.2299805-2.9400024-1.0200195-2.2099915-3.5200195-2.1000061-5.75.1099854-2.0700073.1600037-4.1500244.1700134-6.2299805,0-.7399902.0700073-1.6699829-.3299866-2.1799927-1.3900146-1.7999878-1.4599915-1.75-.3699951-3.6599731,2.8900146-5.0700073.4400024-14.5200195-4.75-17.5499878-2.0799866-1.2199707-2.0599976-1.9500122-.6400146-3.8099976,3.1199951-4.0900269,2.1600037-9.4099731,3.6600037-14.0300293.1700134-.5200195-.0400085-1.2700195-.7399902-1.210022-.4299927.039978-.980011.5499878-1.1799927.9799805-.3800049.8400269-.3699951,1.8900146-.8299866,2.6599731-.6499939,1.0800171-1.2999878,3.1199951-2.5299988,2.6699829-2.0899963-.7700195.1099854-2.039978.2900085-3.1199951.3099976-1.8499756-.8800049-1.9299927-2.0299988-1.5499878-2.1400146.7000122-4.5400085,1.3200073-4.1300049,4.4500122.019989.1900024.0499878.3800049.0299988.5599976-.25,4.0700073-2.7099915,6.6500244-6.1900024,8.0499878-2.480011,1-4.4400024-.6599731-5.5100098-2.8400269-1.7600098-3.5599976-1.2099915-7.0100098,1.3399963-10.0300293,4.3999939-5.2000122,11.0599976-6.3699951,16.8999939-8.6699829,4.7600098-1.8800049,6.3200073-4.2399902,6.1199951-9.1199951-.2000122-5.0700073-.3500061-9.9699707-2.3200073-14.7800293-.8699951-2.1300049-1.9299927-3.0499878-4.0599976-3.0700073-6.8099976-.039978-13.6300049-.4500122-20.4100037-.0100098-4.7000122.2999878-7.3500061,5.0100098-11.4700012,6.8599854-.6600037.2999878-1.7000122,1.0599976-1.8800049.8900146-1.019989-.9500122.1199951-1.6599731.6099854-2.3200073.5599976-.7399902,1.25-1.5100098,2.0599976-1.9099731,8.730011-4.210022,8.1199951-12.1599731,8.0899963-19.9000244-.0100098-4.0300293-1.7799988-4.6500244-4.9299927-2.5599976-6.2999878,4.1699829-12.5799866,8.3699951-18.8899841,12.5100098-1.0299988.6799927-2.3999939,2.3099976-3.3299866,1.1300049-.9700012-1.2299805.9100037-2.1799927,1.8900146-2.8699951,7.4100037-5.2299805,14.8299866-10.4400024,22.3099976-15.5599976,4.3999939-3.0100098,5.0100098-10.1500244,1.1000061-13.5200195-1.3500061-1.1599731-2.4200134-.460022-3.6000061.1599731-2.8299866,1.5-5.6400146,3.0200195-8.480011,4.5-.9200134.4799805-2.1000061,1.8099976-2.8599854.460022-.5899963-1.0599976.9100037-1.9299927,1.8200073-2.5300293,2.5299988-1.6500244,5.1600037-3.1400146,7.6900024-4.789978,1.1199951-.7299805,3.3699951-.6500244,2.7099915-2.8900146-.6199951-2.0999756-2.1600037-2.6300049-4.3900146-2.6099854-5.3200073.0499878-9.9700012,2.0700073-14.5,4.4099731-38.1100006,19.6699829-76.1799927,39.4000244-114.2799988,59.0900269-26.0100021,13.4400024-52.0400009,26.8400269-78.0999985,40.1799927-2.4000015,1.2299805-6.4199982,4.0700073-7.3300018,2.1400146-1.0699997-2.2700195,3.5100021-3.4799805,5.8000031-4.6699829,25.3099976-13.1500244,50.6800003-26.1699829,76.0599899-39.1799927,12.1000061-6.2000122,24.2799988-12.2700195,36.3800049-18.4699707,1.2200012-.6199951,2.8699951-.8300171,3.3600006-2.4899902-1.4299927-.2800293-2.4799957.6699829-3.6100006,1.2299805-21.6100006,10.8599854-43.1900024,21.7700195-64.7799988,32.6500244-14.4899979,7.2999878-28.9799957,14.5900269-43.4900055,21.8400269-1.1200027.5599976-2.7399979,1.6300049-3.4899979.0900269-.7300034-1.5100098,1.1299973-2.0700073,2.2200012-2.7199707,9.8099976-5.8499756,19.1800003-12.4799805,30.0499954-16.4199829,3.3600006-1.2199707,3.1900024-4.3200073,3.1800003-7.1900024,0-19.8400269,0-39.6799927-.0100021-59.5100098,0-11.710022.0599976-23.4299927-.0199966-35.1400146-.0400009-5.8200073-.5199966-6.2299805-6.3000031-5.1199951-12.4199982,2.3900146-24.7999954,5.0100098-37.2299995,7.3699951-2.9399986.5599976-6,.4799805-9.0099983.5700073-.6599998.0200195-1.7200012-.3400269-1.9199982-.8099976-.4900017-1.1400146.5400009-1.6799927,1.4399986-1.9500122,1.8100014-.5300293,3.6500015-.9799805,5.5-1.3599854,28.7400017-5.9799805,57.470005-12.0200195,86.2299995-17.8900146,39.2299957-8.0100098,78.480011-15.8999939,117.7399902-23.7999878,7.7200012-1.5499878,7.6700134-1.4700012,7.8299866-9.4700012.8200073-40.230011,1.3099976-80.4599915,1.1000061-120.6999817,0-.9400024.0499878-1.8900146,0-2.8299866-.1199951-2.5499878.6000061-6.1400146-3.269989-5.9500122-3.3399963.1600037-1.9200134,3.5599976-1.9299927,5.5100098-.1199951,39.4899902-.1400146,78.9700012-.1600037,118.4599915,0,2.230011-.8299866,4.9299927.8299866,6.5899963,4.6600037,4.6799927.1099854,4.6000061-2.5599976,5.0899963-20.0700073,3.6400146-40.2799988,6.6199951-60.2200012,10.8900146-15.2200012,3.2600098-30.75,4.7000122-45.8500061,8.5200195-2.5.6300049-5.1199951,1.0999756-7.7400055.3800049,1.7599945-2.4299927,4.5899963-2.0599976,7.0099945-2.5300293,10.0099945-1.9299927,19.8899994-4.6499939,30.0700073-5.6000061,4.7799988-.4500122,5.5899963-3.25,5.5899963-7.3900146,0-28.5299988.0899963-57.0599976.3000031-85.5899963.0200043-2.3999939-1.3399963-5.2099915,1.1900024-7.2600098,1.6999969,2.1400146.8600006,4.6600037.9299927,7,.5899963,20.0100098-.0800018,40.0299988.8099976,60.0499878.3899994,8.7900085-.4199982,17.7200012-.4700012,26.5899963-.0200043,3.6099854,1.5700073,4.7799988,4.9600067,3.8999939,1.5-.3900146,1.8800049-1.0599976,1.8000031-2.7999878-1.1000061-23.0299988.6799927-46.0400085.7299957-69.0700073.0299988-15.8399963.0200043-31.6799927.1000061-47.519989,0-1.5299988-.6600037-3.25.7100067-4.6099854.8999939,1.3800049.4600067,2.9299927.4600067,4.3999939.0800018,25.6900024.1100006,51.3900146.1499939,77.0800171v18.6900024c.25.0799866.5.1600037.75.2399902l.0195923.0500488ZM366.2471304,208.3943058c0,10.4100037-.0100098,19.8599854.019989,29.2999878,0,.8399963-.4299927,2.1300049.75,2.3699951.7799988.1600037.9500122-.9599915,1.0700073-1.6799927.3699951-2.1700134.75-3.8900146,2.230011-.4200134.3800049.8900146,1.25,1.3800049,2.2399902,1.5599976,1.9500122.3500061,3.2099915,1.5599976,2.9500122,3.4899902-.2799988,2.0400085-2.2999878,1.5599976-3.6900024,1.7399902-3.0299988.3999939-5.3299866,1.1400146-5.6499939,4.9599915-1.2399902,14.8999939-.7900085,29.8200073-.8599854,44.730011-.019989,3.1199951,1.4400024,4.3699951,4.480011,4.4500122,5.4700012.1499939,10.9299927.7099915,16.3999939.730011,43.1000061.1400146,86.190033.1400146,129.2900085.3200073,4.3900146.019989,6.1699829-1.4400024,5.960022-5.9100037-.210022-4.519989.0499878-9.0700073.2399902-13.5899963.0700073-1.5700073-.4400024-4.1000061,1.4899902-4.2399902,1.2199707-.0899963.7399902,2.5599976.7700195,3.9700012.0900269,4.3399963,0,8.6900024,0,13.0299988,0,6.269989.3200073,6.5899963,6.789978,6.6700134,2.6500244.0299988,5.289978,0,7.9400024.0899963,1.0900269.0400085,2.4799805.1499939,2.3200073,1.7200012-.1099854,1.0799866-1.2800293,1.3599854-2.2000122,1.4100037-3.0200195.1400146-6.039978.2399902-9.0599976.2200012-3.3499756-.019989-5.5100098,1.6199951-4.3400269,4.8100281,1.9699707,5.3300171-1.3699951,4.6300049-4.4400024,4.6199951-1.3200073,0-2.6500244-.0700073-3.9699707.0200195-.5900269.039978-1.3499756-.4500122-1.7999878.3699951.5200195.1699829,1.0499878.3300171,1.5700073.5200195,7.4400024,2.6900024,7.9000244,4.3699951,3.8599854,11.5-2.6900024,4.7600098-5.2000122,9.6599731-7.3499756,14.6900024-4.8400269,11.2999878-3.3400269,13.1099854,9.1400146,12.0200195,2.1400146-.1900024,3.5800171-.8800049,4.3699951-2.8900146,3.0499878-7.7199707,6.3400269-15.3699951,8.3400269-23.4500122,1.1199951-4.5,2.9799805-5.9099731,7.5999756-4.8599854,1.4699707.3300171,2.9699707.710022,4.3200073,1.3400269,2.6900024,1.25,3.8300171.5499878,3.8200073-2.4299927,0-3.5900269.0999756-7.1799927.289978-10.7600098,1.4099731-26,2.9099731-52,4.2600098-78,1.0200195-19.6000061,1.7399902-39.2099915,2.8800049-58.8099976.210022-3.6900024-.9500122-4.7900085-4.2800293-4.7399902-6.2399902.0899963-12.4799805-.0499878-18.710022.1499939-5.6599731.1799927-7.8300171,2.4200134-7.9299927,8.019989-.4899902,27.9299927-2.3300171,55.8300171-2.3800049,83.7799988,0,2.730011.7999878,5.6600037-1,8.2099915-2.6300049-2.3800049-1.4299927-5.5299988-1.3499756-8.2600098.7199707-27.3599854.6099854-54.7399902,2.1400146-82.0800171.3900146-6.9100037-.5700073-8.0700073-7.3900146-8.2799988-7.5499878-.230011-15.1699829-.7399902-22.6300049.1000061-4.2600098.480011-8.0700073-1.9500122-12.210022-.5599976-5.1300049,1.730011-10.289978,2.0100098-15.4299927-.1199951-1.980011-.8200073-4.1900024-1.0700073-6.0499878.0400085-2.6300049,1.5700073-5.4100037,1.4700012-8.2399902,1.4299927-26.6499939-.3999939-53.269989,1.2999878-79.9199829,1.25-3.6799927,0-5.269989,1.0599976-5.7900085,5-1.480011,11.1300049-.3599854,22.269989-.8999939,32.4299927l.039917.019928ZM608.6871328,187.884296c-6.6699829,0-11.960022.0299988-17.2600098-.0100098-3.2299805-.019989-4.7000122,1.3699951-4.9099731,4.730011-.9500122,14.6400146-2.0200195,29.2600098-2.3699951,43.9400024-.3200073,13.3999939-.8900146,26.7900085-1.5499878,40.1799927-.8300171,16.9599915-1.8599854,33.9100037-2.8300171,50.8600159-.1500244,2.6699829.2299805,4.8099976,3.3499756,5.6099854,2.9000244.75,4.5499878,2.8699951,4.289978,5.8699951-.25,2.8499756-1.0599976,5.2399902-4.5200195,6.3599854-3.8900146,1.2600098-6.2800293,9-4.1300049,11.6599731,4.2600098,5.2600098,3.5800171,7.4400024-2.7999878,8.9699707-1.2399902.2999878-3.039978.1099854-3.0599976,1.7999878-.0100098,1.5300293,1.8400269,1.6599731,2.9699707,2.2000122,9.0200195,4.3400269,18.0599976,8.6500244,27.1099854,12.9400024,12.289978,5.8200073,24.5900269,11.6300049,36.9099731,17.3900146,5.8699951,2.7399902,6.5,2.4000244,7.1500244-4.2800293.460022-4.6900024.6699829-9.4099731.9099731-14.1199951.6900024-13.7600098,2.039978-27.4899902,1.8900146-41.2800293-.0300293-2.3699951-.2800293-4.9899902-3.25-5.1099854-9.8499756-.3699951-19.039978-4.5599976-28.9000244-4.7999878-1.8099976-.039978-3.7700195.5800171-5.4099731-.7800293,1.6400146-1.4099731,3.6099854-.5999756,5.4199829-.7800293,3.1799927-.3200073,6.6900024.8300171,9.5-.7399902,3.6599731-2.039978,1.5-6.2000122,2.2999878-9.3400269.0499878-.1799927,0-.4199829.0999756-.5499878.3099976-.4000244.6699829-.7600098,1-1.1300049.3200073.4099731.8200073.7700195.9099731,1.2199707.1900024.9199829.1699829,1.8699951.2000122,2.8200073.1733398,5.6799927,3.0133057,9.0499878,8.5200195,10.1099854,2.039978.3900146,4.1099854.6599731,6.1199951,1.2000122,3.2999878.8800049,4.3200073-.4500122,4.5100098-3.6599731,1.4299927-24.8599854,2.9699707-49.7099915,4.5100098-74.5700073,1.039978-16.7600098,2.1199951-33.5100098,3.2199707-50.269989.4500122-6.769989.039978-13.5899963,1.2199707-20.3399963.25-1.4100037.9299927-4.0400085-1.6300049-3.9899902-2.7999878.0499878-5.4199829,1.4899902-7.5599976,3.3900146-.4199829.3699951.5300293.7099915,1.0100098.8699951.8800049.2999878,2.0800171.519989,1.3699951,1.7999878-.2700195.480011-1.289978.7099915-1.9899902.75-2.8300171.1600037-5.6699829.1199951-8.4899902.2999878-2.7600098.1799927-3.0100098,3.2999878-4.6099854,4.3399963-2.4500122,1.5899963-1.9000244-3.6300049-5.210022-3.1700134-8.4400024,1.1700134-16.9099731-1.2000122-24.0300293-.3900146l.0202026.0001831ZM231.3971243,209.3043094h-1.2000122v120.5799866c0,6.3499756.5899963,6.7000122,6.4100037,4.5,7.5899963-2.8699951,15.2000122-5.6799927,22.7999878-8.5300293,4.3299866-1.6199951,7.3599854-.2399902,9.1099854,3.9899902,1.8800049,4.5300293,3.6099854,9.1199951,5.6199951,13.5900269,1.0299988,2.2999878,1.75,5.0800171,5.2999878,5.0300293,6.0400085-.0700073,12.0899963.0999756,18.1300049.1099854,3.3900146,0,4.7399902-2.0999756,3.2600098-4.8099976-3.6300049-6.6900024-5.269989-14.4400024-11.480011-19.8099976-5.0400085-4.3599854-3.6799927-9.539978,2.4700012-11.7299805,2.3099976-.8200073,4.5700073-1.8699951,6.9400024-2.4500122,4.4200134-1.0700073,5.8800049-3.6799927,5.8900146-8.1900024,0-47.7600098.2399902-95.5100098,1.0899963-143.2600098.1199951-6.6499939-.0299988-6.7900085-6.5700073-6.7099915-20.2000122.25-40.4100037.6000061-60.6100159.9100037-6.9599915.1000061-7.1600037.2799988-7.1600037,7.4899902-.0100098,16.4299927,0,32.8500061,0,49.2799988l.000061.0100098ZM509.7371206,374.1643253v.3300171c1.5100098,0,3.0300293.1199951,4.5300293-.039978,1.4099731-.1500244,3.2299805.8200073,4.0800171-.6900024.2399902-.4199829-1.4299927-1.9199829-2.25-2.9099731-2.2999878-2.7999878-5.5-4.6300049-8.0300293-7.1400146-14.210022-14.0800171-29.1599731-27.3599854-43.730011-41.0499878-2.3399963-2.1900024-4.769989-3.4899902-8.0400085-3.460022-9.6300049.0800171-19.2600098-.5-28.8900146-.6799927-22.1099854-.4099731-44.230011-.1199951-66.3399963-.2299805-3.6400146-.0200195-6.4500122,1.25-9.25,3.4799805-9.6199951,7.6300049-19.3899841,15.0599976-29.1499939,22.5100098-1.0400085.7999878-2.3500061,2.7999878-3.6600037.8300171-.8800049-1.3200073.9500122-2.2199707,1.9500122-2.9899902,3.4200134-2.6799927,6.9100037-5.2600098,10.3200073-7.960022.8500061-.6799927,2.1499939-1.75,1.4400024-2.7700195-.9400024-1.3400269-1.9200134.25-2.7900085.7299805-2.480011,1.3699951-4.8900146,2.8499756-7.3399963,4.2800293-.9200134.539978-2.1000061,2.0100098-2.8399963.9699707-1.1000061-1.539978.9400024-2.0800171,1.8500061-2.7999878,2.3699951-1.8699951,4.769989-3.7299805,7.2999878-5.3699951,2.5-1.6199951,3.1600037-3.539978,1.8699951-6.2299805-2.1199951-4.4299927-4.2999878-8.8300171-6.2200012-13.3499756-1.4299927-3.3800049-3.519989-3.7999878-6.769989-2.6600037-6.0499878,2.1399841-12.230011,3.9100037-18.3399963,5.9100037-5.8999939,1.9299927-6.1099854,2.5499878-3.6099854,8.460022.8800049,2.0900269,1.3500061,4.4099731,2.519989,6.2999878,4.75,7.6300049,5.7999878,18.3300171,17.3600159,20.3800049,3.9100037.6900024,7.7999878,1.3200073,11.75,1.4500122,15.0100098.4899902,15.0899963.4299927,17.4500122,15.210022.6000061,3.7800293,2.2000122,5.3499756,6.1900024,5.75,16.9599915,1.6799927,33.9899902.960022,50.980011,1.5900269,35.8699951,1.3200073,71.7799988,1.5,107.6800232,2.1400146l-.0200806.0098267ZM74.7771292,364.7243229c1.5899963,10.7999878.8600006,21.5599976-.4000015,32.2399902-1.2699966,10.789978.6399994,21.4500122.5400009,32.1799927-.0299988,3.5900269,3.4300003,5.460022,5.8899994,3.4299927,4.25-3.5300293,9.5399933-4.4199829,14.2100067-6.8099976,17.2700043-8.8400269,34.8699951-17.0200195,51.7899933-26.5599976,2.2200012-1.25,2.7700043-2.4299927,2.75-4.7800293-.1199951-10.5700073-.1699982-21.1400146.0299988-31.7000122.2599945-13.9500122-.75-27.9299927.7599945-41.8599854.4100037-3.7700195-1.0399933-5.4299927-4.8999939-4.25-1.9400024.5900269-4.2299957.2800293-5.6399994,2.2199707-.5500031.7600098-1.1300049,1.7999878-2.2200012.9400024-2.5399933-2.0100098-5.2200012-.7000122-7.6100006-.1099854-15.9600067,3.9000244-32.1399994,6.6799927-48.2299957,9.9299927-3.3600006.6799927-4.7600021,2.4000244-5.3499985,5.5599976-.8799973,4.7700195-1.3799973,9.6500244-2.1900024,14.3800049-1.6600037,9.5800171-.4899979,19.6500244-.4899979,29.5200195h1.0599976v-14.3400269.0100708ZM408.0971365,304.5843082v.1799927c-18.7099915,0-37.4200134-.0899963-56.1300049.0700073-4.1300049.0400085-5.5700073-1.0599976-5.4899902-5.4500122.25-13.0299988.769989-26.0400085,1.2099915-39.0599976.7900085-23.5899963,1.0400085-47.1900024,1.5299988-70.7900085.0299988-1.5100098.0499878-3.0599976.4400024-4.4899902.3599854-1.3399963-.1099854-3.0299988,1.3800049-3.9899902.1700134,1.2900085.519989,2.5899963.4899902,3.8699951-.2900085,11.8800049-.6000061,23.7900085-.7600098,35.6499939-.3299866,24.1700134-1.5799866,48.3200073-1.4100037,72.5.0400085,5.75.7999878,6.4500122,6.6000061,6.5400085,5.9299927.0899963,6.480011-.3900146,6.6099854-6.2900085.4299927-20.9200134.9100037-41.8399963,1.2099915-62.7600098.25-17.3800049.1400146-34.7600098.4599915-52.1400146.1099854-5.7999878-2.8699951-9.5799866-8.7900085-9.6199951-7.5599976-.0400085-15.1300049-.0899963-22.6799927.1199951-6.4500122.1799927-6.980011.8500061-7.480011,7.1700134-.2200012,2.8200073-.6700134,5.6400146-.6700134,8.4700012-.1000061,37.019989-.269989,74.0400085-1.1099854,111.0599976-.0400085,1.8699951-.3999939,4.1099854.4400024,5.5700073,4.6199951,8.0700073,7.2200012,17.0300293,11.6199951,25.1900024,1.3900146,2.5700073,2.6900024,2.7800293,4.7900085,1.0499878,3.6499939-3,7.519989-5.7600098,10.9700012-8.960022,2.9700012-2.75,6.1199951-3.7700195,10.1900024-3.8499756,29.3099976-.6300049,58.5700073,1.789978,87.8599854,1,7.7399902-.210022,14.5100098.6099854,19.5499878,7.1099854.5599976.7299805,1.3599854,1.3499756,2.1600037,1.8099976,3.1700134,1.8099976,6.5799866,1.5300293,9.8600159.5999756,1.7700195-.5100098,5.5900269-10.1199951,4.4899902-11.0999756-2.8699951-2.539978-6.3900146-1.5200195-9.5599976-.6500244-3.460022.9400024-7.25-.6099854-6.8699951-3.9099731.6300049-5.3999939-2.6400146-4.8900146-5.8900146-4.8900146-18.3399963-.0100098-36.6699829,0-55.0100098,0l-.0099182-.0099487ZM617.7871084,184.9343143c12.0800171,1.4500122,25.0800171-.5100098,37.4299927-6.8599854,3.8400269-1.9700012,5.6900024-4.269989,5.8599854-8.6300049.3300171-8.6600037,1.2000122-17.2999878,1.7299805-25.9599915.9799805-16,1.8900146-32.0100098,2.7800293-48.019989.0700073-1.2600098.5100098-2.8200073-.7999878-3.6499939-1.1699829-.7399902-2.0999756.3800049-2.9799805,1.019989-22.8300171,16.7600098-45.6500244,33.5299988-68.4699707,50.3099976-1.7000122,1.25-3.2800293,2.6400146-3.460022,4.9299927-.789978,10.3399963-1.5200195,20.6900024-2.3200073,31.0299988-.2800293,3.6000061,1.2600098,4.9500122,4.8699951,5.2099915,7.9199829.5700073,15.8300171,1.0400085,25.3499756.6199951h.0100098ZM347.0471182,412.1942936c-.3500061-2.6099854-.8599854-5.2199707-1-7.8400269-.25-4.5200195-.7799988-8.3400269-6.9599915-5.8800049-.9299927.3699951-2.2200012-.25-3.3500061-.2999878-17.3299866-.8900146-34.6499939-1.7199707-51.980011-2.6699829-3.8099976-.210022-5.2200012,1.3499756-4.5400085,5.0300293.7200012,3.8900146,1.5700073,7.7800293,2.0100098,11.7000122.3500061,3.0999756,1.8800049,4.210022,4.8099976,4.2299805,5.8500061.0300293,11.7099915.1099854,17.5499878.3300171,6.7799988.2600098,13.5599976.6599731,20.3399963,1.0599976,1.25.0700073,2.9700012.0599976,2.8200073,1.9199829-.1099854,1.3599854-1.6000061,1.3800049-2.7099915,1.4899902-.9400024.0900269-1.8900146.0900269-2.8299866.0499878-12.0599976-.5100098-24.1199951-.9799805-36.1799927-1.5999756-2.4200134-.1199951-4.8099976-.4199829-5.3800049,2.5700073-2.0700073,10.7199707-4.7999878,21.3499756-5.3299866,32.3200073-.1600037,3.2199707,1.3500061,4.7700195,4.6799927,4.9899902,20.1300049,1.3200073,40.25,2.75,60.3800049,4.1400146,1.5799866.1099854,3.1499939.25,2.8999939-2.1699829-1.1600037-11.4000244,2.6700134-22.3499756,3.0400085-33.6400146.1000061-3.0800171.1400146-5.25-3.5499878-5.5700073-.9299927-.0800171-2.0700073-.3900146-2.1400146-1.4899902-.1000061-1.5100098,1.269989-1.7999878,2.3500061-1.7800293,5.0599976.0900269,5.269989-3.1699829,5.0700073-6.8900146h-.0000305ZM219.6471243,332.6543155h.2799988c0-8.6799927-.0899963-17.3599854.0400085-26.0299988.0599976-3.9599915-1.1199951-5-5.3500061-4.5700073-11.0200043,1.1199951-21.1399994,5.9700012-32.1999969,7.0799866-4.3399963.4400024-10.2100067-.5700073-12.8500061,5.210022-.3600006.789978-1.1300049.0700073-1.8099976-.3400269-3.1399994-1.9099731-3.2299957-1.8599854-3.3000031,1.7000122-.4299927,22.8099976-1.5,45.6099854-1.0399933,68.4400024.1199951,5.789978.2299957,6.0999756,5.5,3.460022,15.8500061-7.9299927,31.5500031-16.1500244,47.3600006-24.1699829,2.5700073-1.2999878,3.4299927-3.1500244,3.3999939-5.8800049-.0899963-8.2999878-.0299988-16.5999756-.0299988-24.9000244ZM553.6571035,314.8943058c-.0300293,10.4199829-1.4899902,8.9199829,8.9099731,12.3599854,2.3300171.7700195,4.7299805,1.3200073,7.039978,2.1500244,3.7000122,1.3300171,5,.1199951,5.25-3.7800293,1.4000244-22.3900146,3.0300293-44.7600098,3.6500244-67.2000122.2399902-8.8399963.6599731-17.7099915,1.1900024-26.5499878,1.210022-20.1300049,2.8200073-40.2399902,3.9299927-60.3800049.3300171-6.019989.8499756-12.0299988,1.210022-18.0499878.1699829-2.7999878-.8200073-3.5400085-3.1900024-1.7600098-2.8699951,2.1400146-5.5,4.7900085-8.6599731,6.3399963-10.2600098,5.0299988-12.5900269,13.4700012-12.710022,24.1300049-.2399902,19.7900085-1.4500122,39.5700073-2.4699707,59.3399963-1.2600098,24.4700012-2.7299805,48.9400024-4.1300049,73.4000244h-.0200195ZM321.9671011,214.3542972c0-10.5799866-.7799988-21.230011.2200012-31.7200012,1.019989-10.7200012-3.3399963-18.519989-10.2200012-25.6700134-.8399963-.8800049-1.4200134-2.8599854-2.8200073-2.2000122-1.1199951.5299988-.4899902,2.4100037-.5100098,3.6799927-.3900146,29.6499939-.8099976,59.2999878-1.0899963,88.9499817-.1600037,17.1900024-.1000061,34.3900146-.1300049,51.5800171,0,1.5100098,0,3.019989.0799866,4.5299988.0599976,1.1799927.3599854,2.1300049,1.8299866,2.4100037,5.0400085.9700012,11.3200073-3.7900085,11.269989-8.8500061-.230011-27.5799866,1.7099915-55.1300049,1.3699951-82.7200012l.000061.0100403ZM526.2670889,365.2842594c0,2.0499878.0800171,3.5599976-.0100098,5.0700073-.2600098,4.2700195,1.2700195,6.5,5.9299927,5.5499878,1.0900269-.2199707,2.2600098-.039978,3.3900146-.0999756.9000244-.0499878,2.0800171.25,2.5100098-.7600098.4500122-1.0599976-.6099854-1.6500244-1.289978-2.2399902-1.8599854-1.5999756-3.8099976-3.0900269-5.6099854-4.7600098-.6300049-.5900269-1.460022-2.039978-1.2700195-2.25.8800049-.9699707,1.6400146.1599731,2.3200073.6199951,2.6699829,1.7800293,5.4899902,3.4099731,7.8599854,5.539978,5.4500122,4.9199829,11.6799927,5.4500122,18.5200195,4.25,2.7399902-.4799805,4.289978-1.7000122,5.4199829-4.210022,4.4199829-9.7999878,9.0999756-19.4899902,13.5499878-29.289978,2.9500122-6.4899902,2.960022-7.0300293-3.9000244-8.7399902-10.5100098-2.6099854-19.960022-9.4000244-31.6900024-7.5499878-3.0100098.4799805-4.2999878,1.3099976-5.2199707,3.8499756-2.2399902,6.210022-4.7000122,12.3499756-6.8900146,18.5800171-1.9299927,5.4899902-4.5900269,10.8599854-3.6099854,16.4400024h-.0100098ZM324.617095,387.1142765c3.769989,0,7.5799866.2999878,11.3099976-.0700073,5.4700012-.5499878,7.2799988-3.5100098,6.6000061-8.8800049-.3200073-2.5-2.0100098-4.4500122-2.1199951-6.9400024-.2999878-6.5200195-1.4899902-8.4000244-7.8800049-8.7199707-19.019989-.960022-38.0700073-1.4500122-57.1099854-2.1699829-3.6499939-.1400146-4.7399902,1.5499878-3.9400024,4.9099731,1.2099915,5.1400146,2.4400024,10.2800293,3.5400085,15.4400024.6499939,3.0700073,2.3699951,4.1400146,5.5100098,4.4199829,14.6700134,1.3400269,29.4299927.5800171,44.0899963,2l-.0000305.0100098ZM536.6671133,381.6542545c-2.9199829,1.7299805-7.9299927-3.4099731-11.3200073,2.5-2.3699951,4.1400146-3.289978,8.2800293-3.5100098,12.8499756-.2299805,4.9000244-.75,9.7800293-1.0300293,14.6799927-.0900269,1.6400146-.4799805,4.0599976,1.4699707,4.460022,5.6500244,1.1599731,10.7700195,5.0599976,16.8699951,3.7299805,2.6900024-.5900269,5.0599976-2.2399902,8.039978-2.2199707,2.0800171.0200195,5.3400269,1.0999756,6.039978-1.3699951.6400146-2.2399902-2.5499878-3.3699951-4.1699829-4.8400269-4.3400269-3.9199829-8.7999878-7.710022-13.1500244-11.6099854-.7700195-.6900024-2.3900146-1.5900269-1.5300293-2.5999756,1.2399902-1.4500122,2.2199707.4400024,3.25,1.039978.4799805.2800293.8499756.7399902,1.289978,1.0999756,5.2000122,4.3800049,10.3800049,8.7800293,15.6099854,13.1199951,1.25,1.039978,2.5200195,2.8699951,4.3300171,1.9400024,1.7999878-.9199829,1.1500244-3.0800171.9899902-4.6599731-.5200195-5.25-1.3499756-10.4799805-1.9199829-15.7299805-.6799927-6.2299805-6.1500244-11.8400269-12.4299927-12.3699951-2.6300049-.2199707-5.289978-.039978-8.8200073-.039978l-.0098267.0199585ZM259.4071035,370.3242374c.5700073,0,1.1400146-.0700073,1.7000122.0100098,2.25.3300171,6.0400085-1.0599976,6.1799927,1.9199829.1400146,2.8300171-3.6199951,1.2700195-5.6099854,1.8200073-.5100098.1400146-1.0100098.3300171-1.519989.5.1799927.25.2999878.5999756.5400085.7399902,1.4500122.8400269,8.7000122-1.289978,8.519989-2.5900269-.5899963-4.3499756.230011-9.1699829-3.6199951-12.5999756-4.4100037-3.9299927-3.7799988-8.289978,1.3099976-11.0700073,1.8399963-1,5.3500061.5499878,5.4500122-2.6599731.0599976-2.0499878-1.5599976-4.1400146-2.3999939-6.2299805-.9100037-2.2700195-1.5899963-4.6699829-2.7399902-6.8099976-1.5599976-2.9000244-3.6900024-5.7199707-7.5299988-4.3699951-8,2.7999878-15.8999939,5.9199829-23.8099976,8.960022-2.5799866.9899902-3.0499878,2.460022-1.9400024,5.289978,2.3599854,6,6.019989,11.3200073,8.4700012,17.2299805,3.0700073,7.3900146,7.3299866,12.5800171,16.4200134,9.8699951.1700134-.0499878.3800049,0,.5599976-.0200195l.019928.0100098ZM509.8171377,380.9542423c2.6300049.1300049,5.2700195.3599854,7.8900146.3200073.8400269-.0100098,2.4699707.9299927,2.5300293-.7600098.0300293-.9199829-.8499756-2.2199707-1.6900024-2.7299805-.8599854-.5300293-2.1799927-.3900146-3.2999878-.4099731-13.0200195-.2600098-26.0300293-.4899902-39.0499878-.9199829-26.5899963-.8800049-53.2099915-.9799805-79.8099976-1.5100098-12.0700073-.2399902-24.1600037.3400269-36.2200012-.8900146-3.3699951-.3400269-6.7900085-.1599731-10.1900024-.1599731-1.0899963,0-2.5599976-.2000122-2.7600098,1.2600098-.2200012,1.5700073,1.0299988,2.3400269,2.4299927,2.5900269,1.1099854.2000122,2.25.2600098,3.3800049.289978,20.1900024.4199829,40.3800049.8300171,60.5700073,1.2299805,6.230011.1199951,12.4700012,0,18.6799927.3599854,25.8299866,1.5300293,51.7099915-.210022,77.5400085,1.3200073l-.000061.0099487ZM503.5871573,342.7342106c2.1199951.1599731,3.6799927-.710022,4.6500244-2.5700073,3.2299805-6.2000122,6.2999878-12.4699707,8.6199951-19.0900269.7999878-2.289978.0599976-3.5700073-2.1900024-4.2700195-6.6699829-2.0700073-13.2199707-4.5200195-20.0800171-6.0100098-3.1199951-.6799927-4.5300293.6300049-5.4899902,3.3300171-1.3300171,3.7299805-2.710022,7.460022-4.3300171,11.0700073-1.289978,2.8800049-.8400269,4.9799805,1.7700195,6.8099976,4.3300171,3.039978,8.5499878,6.2199707,12.8300171,9.3200073,1.25.9099731,2.6500244,1.4500122,4.2199707,1.4099731v.000061ZM348.347167,453.7741886c0,1.3099976-.3299866,3.3800049,1.8599854,4.3300171,1.8800049.8099976,3.7399902.4099731,5.269989-.9500122,7.3099976-6.5100098,14.6199951-13.0300293,21.8699951-19.5999756,1.6199951-1.4699707,2.0599976-3.5200195,2.0700073-5.6799927,0-1.9299927-.6000061-3.3099976-2.769989-3.5300293-6.9299927-.7199707-13.8500061-1.4899902-20.7799988-2.1500244-2.480011-.2399902-3.8099976,1.039978-4.1499939,3.5499878-1.0499878,7.8300171-2.1900024,15.6500244-3.3699951,24.039978v-.0099487ZM519.2771597,396.5641666c0-.75.1500244-2.0900269-.0300293-3.3800049-.3400269-2.3300171,1.5100098-6.3099976-2.5100098-6.2399902-3.5.0599976-2.4799805,3.9699707-2.8400269,6.4299927-.0800171.5599976-.0200195,1.1300049-.0499878,1.7000122-.6099854,11.4799805-1.2000122,22.960022-1.8300171,34.4400024-1.1199951,20.3200073-2.2700195,40.6400146-3.4099731,60.9500122-.0700073,1.1900024-.1400146,2.3499756,1.4299927,2.539978,1.4099731.1699829,2.7600098-.039978,3.0800171-1.7000122.25-1.2800293.2399902-2.6199951.3200073-3.9400024.8200073-14.2800293,1.5499878-28.5800171,2.4699707-42.8499756,1.0200195-15.789978,2.210022-31.5700073,3.3699951-47.9299927l.000061-.0200195ZM262.4371634,404.0641666v.0300293c2.2600098,0,4.5299988.0700073,6.7900085-.0200195,4.230011-.1599731,5.7000122-2.210022,4.7099915-6.1599731-.7999878-3.210022-3.3699951-2.4000244-5.4899902-2.5700073-4.8699951-.4000244-6.269989-2.7000122-4.0899963-6.9899902.4100037-.8099976,1.2799988-1.3699951,1.8299866-2.1300049,1.5799866-2.1900024,4.8699951-5.6699829,4.3399963-6.4000244-2.0499878-2.8599854-5.8299866-1.4000244-8.8999939-1.4299927-12.8999939-.1500244-13.4200134.4799805-13.0799866,13.6099854.2600098,10.3300171,1.9200134,11.9699707,12.2000122,12.0599976h1.7000122-.0100403ZM485.6271963,389.7841373c-3.3300171,0-6.2000122-.3099976-8.9699707.0900269-2.5499878.3800049-4.5499878,2.5100098-2.460022,4.7600098,4.710022,5.0499878,7.3099976,11.3800049,11.2199707,16.9000244,2.7000122,3.8200073,5.710022,5.3900146,10.3599854,5.1099854,3.7000122-.2199707,5.2000122-1.0599976,4.1199951-5-1-3.6199951-1.5200195-7.3699951-2.2199707-11.0700073-2.4699707-13.0300293-1.460022-10.3499756-12.0499878-10.789978v-.000061ZM71.2572012,383.8341251h-.0199966v-44.6699829c0-1.5100098-.0500031-3.0200195-.1699982-4.5200195-.1399994-1.6500244-1.1100006-2.289978-2.7300034-1.960022-1.3600006.2800293-2.2200012.5100098-2.0199966,2.5100098,1.6299973,16.9000244-.8199997,33.8099976.2200012,50.7700195.9400024,15.4000244.2799988,30.9000244.4000015,46.3599854.0100021,1.5300293-.5699997,3.9299927,1.9000015,3.9799805,2.2600021.0499878,2.1800003-2.1900024,2.3399963-3.8499756.1200027-1.3099976.0899963-2.6400146.0899963-3.960022v-44.6699829l-.0100021.0100098ZM153.0772085,354.6241031h-.1799927c0,11.5-.0500031,23,.0500031,34.5.0200043,1.8699951-.9299927,4.9400024,1.9100037,5.1300049,3.2200012.2199707,3.4199982-2.8400269,3.5700073-5.3499756.0599976-.9400024.0299988-1.8900146.0500031-2.8300171.5-19.4000244-.6499939-38.8300171,1.0200043-58.210022.2899933-3.3699951.0700073-6.7800293,0-10.1799927-.0299988-1.4899902.0299988-3.3099976-2.0599976-3.4099731-2.0299988-.0900269-3.7599945.7600098-4.1399994,3.0100098-.25,1.4799805-.2200012,3.0100098-.2200012,4.5100098-.0200043,10.9400024,0,21.8699951,0,32.8099976l-.0000305.0199585ZM76.6972113,57.5141178c-1.9800034.0299988-1.9700012,1.1600037-1.7600021,2.3599854.25,1.4200134,1.2900009,2.3399963,2.3899994,3.0299988,7.9899979,4.9700012,15.5099945,10.7799988,23.6600037,15.3500061,18.2299957,10.2200012,35.1900024,22.5299988,53.7400055,32.1799927.8800049.4599915,1.3000031,2.1099854,2.6199951,1.1000061.1600037-.1199951-.8899994-1.519989-1.0099945-2.3699951-.3099976-2.1600037-1.8000031-3.1400146-3.4499969-4.1700134-24.6699982-15.3800049-49.3099976-30.7999878-73.9700012-46.2000122-.7900009-.4899902-1.6200027-.9299927-2.2300034-1.2799988l.0099945.0000305ZM317.2072134,358.7340885c5.6300049,0,9.4100037-.0499878,13.1900024.0200195,2.5700073.039978,3.7799988-1.1300049,4-3.6699829.2799988-3.1900024-2.0400085-2.6099854-3.7900085-2.6500244-18.7000122-.4099731-37.3899841-.8400269-56.0899963-1.0599976-2.6799927-.0300293-7.2799988-1.5700073-7.4100037,2.7000122-.1300049,4.0700073,4.480011,3.2000122,7.2099915,3.2600098,14.9200134.3099976,29.8500061.3400269,42.8999939,1.4000244l-.0099792-.000061ZM380.8272085,408.0641056c-.4599915-1.9199829,1.1400146-4.710022-1.0899963-5.6500244-2.1499939-.9199829-3.4100037,1.7800293-4.8900146,3.1099854-5.0499878,4.5200195-10.0899963,9.0499878-15.0400085,13.6799927-1.1600037,1.0900269-3.8699951,2.6699829-3.019989,3.4199829,1.7000122,1.5100098,4.6000061,1.4799805,6.9299927.75,1.5299988-.4799805,1.5100098-2.460022,2.1000061-3.8200073.4100037-.9500122.0700073-2.8099976,1.4299927-2.6400146,1.519989.1900024.6300049,1.7999878.5599976,2.7999878-.1099854,1.7000122-.4200134,3.3900146,1.5400085,4.3900146,5.2200012,2.6699829,9.980011-.0200195,10.4599915-5.9099731.269989-3.3699951.6700134-6.7399902,1.0100098-10.1300049l.0100098.000061ZM222.3872061,333.254108v8.1199951c.019989,5.0800171.0599976,10.1699829.0799866,15.25,0,2.3699951,1.3699951,3.3800049,3.5299988,3.539978,2.6000061.1900024,2.5700073-1.75,2.5299988-3.4299927-.0700073-2.7299805.7900085-5.6599731-1.9299927-7.8400269-3.3900146-2.7299805-2.8699951-6.2999878-1.5700073-9.7999878.6499939-1.7600098,1.6700134-3.3699951,1.6499939-5.3400269-.1300049-9.4099731.2399902-18.8099976.730011-28.2099915.0899963-1.7600098,1.1099854-4.8399963-2.1000061-4.7999878-2.5100098.0299988-1.8900146,2.7799988-2.0899963,4.5400085-1.1199951,9.75-.6700134,19.539978-.8200073,27.9699707l-.0099792.000061ZM664.1672354,181.4541202c-.039978-.269989.4899902-3.0400085-.3499756-2.9599915-2.2000122.2000122-1.3400269,2.6099854-1.4299927,4.1099854-1.2199707,19.1799927-2.3300171,38.3699951-3.539978,57.5599976-.8099976,12.7900085-1.7800293,25.5700073-2.5700073,38.3699951-1.039978,16.9400024-1.9799805,33.8799744-2.9400024,50.8199768-.039978.7299805.1599731,1.4699707.2600098,2.2000122,1.1300049-.4500122.6699829-1.4899902.7299805-2.25,1.1199951-14.6599731,2.2800293-29.3099976,3.2399902-43.980011,1.1500244-17.4899902,2.0700073-35,3.1699829-52.5,1.0599976-16.730011,2.2399902-33.4599915,3.4400024-51.3699951l-.0100098.0000305ZM166.1672354,113.4941288c-.4799957.3800049-1.1100006.6400146-1.2299957,1.0400085-.4900055,1.5700073.6300049,2.5,1.7200012,3.2200012,5.0399933,3.3099976,10.0599976,6.6600037,15.2100067,9.7900085,12.0800018,7.3399963,24.2099915,14.5799866,36.3599854,21.7999878,1.3800049.8200073,3.3900146,2.3500061,4.4700012.4899902.9400024-1.6099854-1.5400085-2.2200012-2.6499939-2.9299927-16.7299957-10.5700073-33.5200043-21.0599976-50.3000031-31.5400085-1.1100006-.6900024-2.3200073-1.2200012-3.5700073-1.8699951h-.0099945ZM513.6271963,307.9541202c1.3200073,0,2.6500244.1300049,3.9500122-.0300293,1.5-.1900024,4.0300293.6599731,3.9099731-1.8299866-.0999756-1.8900146-2.4199829-1.2999878-3.7999878-1.3099976-12.6099854-.1099854-25.2299805-.1700134-37.8400269-.1799927-1.4099731,0-3.6300049-.3800049-3.6900024,1.5499878-.0599976,2.019989,2.1699829,1.5099792,3.5700073,1.6999817,4.1199951.5700073,8.6599731-2,11.9000244-1,7.460022,2.3099976,14.5999756,2.3800049,22.0200195,1.0999756l-.0200195.000061ZM337.0471792,519.0941349c-.7900085-3-3.2099915-2.4699707-5.4100037-2.2299805-8.8399963.9500122-16.2900085,5.3800049-23.769989,9.6900024-.5499878.3200073-1.5799866.6099854-1.0700073,1.4899902.1400146.25,1.3599854-.0200195,2.0499878-.210022,8.3099976-2.2299805,16.3200073-5.6599731,25.1099854-5.8599854,1.6799927-.039978,2.7600098-1.0300293,3.0899963-2.8800049h.0000305ZM348.7371817,520.1041446c-2.0499878.1500244-4.0299988.6799927-4.5100098,2.3099976-.5700073,1.9400024,1.7900085,2.0599976,2.9700012,2.6199951,7.1400146,3.4000244,14.6400146,6.0800171,21.2799988,10.5200195.5700073.3800049,1.4500122,1,1.980011.1799927.4700012-.7199707-.3399963-1.3400269-.8599854-1.8599854-5.3699951-5.4199829-11.8699951-9.2600098-18.4200134-13.0200195-.7900085-.4500122-1.769989-.5599976-2.4400024-.75ZM342.2071829,477.7241398c.769989-2.8900146-1.4599915-5.4500122-.9400024-8.3200073.0599976-.3300171-.4899902-1.0100098-.8800049-1.1300049-.7999878-.2399902-1.6199951.2199707-1.7799988.9799805-.2999878,1.460022-.519989,2.9699707-.4700012,4.4500122.3099976,10.539978.6799927,21.0800171,1.0599976,31.6199951.019989.6699829.2799988,1.3300171.4200134,2,.25-.6699829.6099854-1.3200073.7200012-2.0100098,1.5499878-9.1400146-.0700073-18.4899902,1.8699951-27.5900269v.000061ZM508.057189,401.5241276l-.1500244-.0200195v-5.6599731c0-2.5999756-.2000122-5.289978-3.7600098-4.9199829-3.7000122.3800049-3.0200195,3.3900146-2.6099854,5.7000122,1,5.5599976,2.2800293,11.0800171,3.460022,16.6099854.1500244.710022.289978,1.7399902,1.2199707,1.5200195.3699951-.0800171.5999756-1.2800293.6799927-1.9899902.4199829-3.7399902.7800293-7.4899902,1.1599731-11.2399902l.000061-.000061ZM381.7771902,505.9741398c-2.6099854.1900024-4.480011.5100098-6.3299866.4199829-9.1300049-.4299927-17.8999939,1.6099854-26.6400146,3.8300171-.8399963.210022-2.1799927.8300171-2.2099915,1.3300171-.0700073,1.1300049,1.2900085,1.039978,2.1300049,1.3300171,3.2399902,1.1099854,6.2799988.1400146,9.3500061-.8200073,7.519989-2.3499756,15-4.9400024,23.0400085-4.9199829,1,0,2.1400146.4500122,3.0400085-.4299927-.8900146-.8400269-2.0499878-.6900024-2.3699951-.7399902l-.0100403-.000061ZM494.2371817,387.0341373l.0300293-.5100098c-.4899902-.1300049-.9799805-.3599854-1.4799805-.3800049-25.980011-1.1300049-51.9899902-.7800293-77.980011-1.0200195-.9500122,0-2.0700073-.5300293-2.8900146.460022.9200134.0900269,1.8500061.2299805,2.769989.2600098,20.519989.5800171,41.0700073-.3900146,61.5800171,1.1199951,5.960022.4400024,11.9799805.0700073,17.9699707.0700073ZM287.7771597,391.0241276v-.1300049c-2.4500122,0-4.9100037-.039978-7.3699951.0300293-.6099854.0200195-1.6600037-.3699951-1.6099854.8099976,0,.2600098.8699951.6199951,1.3699951.6900024,1.1199951.1500244,2.2600098.1699829,3.3900146.1799927,17.1900024.2199707,34.3399963,1.1799927,51.5,2.1300049.9200134.0499878,2.6300049.8200073,2.6600037-.6300049.019989-.9099731-1.8999939-.7399902-2.9899902-.789978-15.6499939-.7800293-31.2999878-1.5300293-46.9500122-2.289978l-.0000305-.000061ZM536.3671866,449.5841251c-3.5800171.1300049-6.7600098.2299805-9.8400269,1.1300049-1.0100098.289978-2.7000122.1599731-2.5700073,1.5599976.1599731,1.6400146,1.8900146,1.5900269,3.1599731,1.4899902,3.1599731-.2299805,6.3300171-.4899902,9.4699707-.9400024,2.4699707-.3499756,7.2800293.5700073,6.9899902-.9799805-.6500244-3.4699707-4.9199829-1.5700073-7.210022-2.2700195l.0001221.0100098ZM516.4371939,361.4940983c-1.25.2800293-3.25-.7199707-3.8499756,1.1500244-.4400024,1.3599854,1.1400146,2.2399902,2.0999756,3.0999756,1.8300171,1.6300049,3.710022,3.210022,5.6199951,4.75,1.1900024.9699707,1.9699707.7000122,2.3099976-.8800049.8499756-3.9400024-2.2000122-8.0700073-6.1799927-8.1199951ZM613.7772207,391.2041202c-.2600098.1599731-.5200195.3200073-.7800293.4899902.5800171.4500122,1.1099854,1.0100098,1.75,1.3300171,9.6300049,4.7999878,19.2600098,9.5700073,28.9099731,14.3200073.6300049.3099976,1.9299927.6400146,1.9899902.5200195.5800171-1.2000122-.5700073-1.6199951-1.2800293-1.9699707-9.8300171-4.8099976-19.6799927-9.5599976-29.5300293-14.3200073-.3400269-.1599731-.710022-.25-1.0599976-.3699951l.0001221-.000061ZM279.8372183,478.6041446h.1600037c0-3.7600098.0400085-7.5200195-.0299988-11.2700195-.0100098-.8200073.269989-2.1199951-1.0700073-2.1599731-.8500061-.0200195-1,1.0100098-1.0100098,1.7299805-.0499878,8.2600098-.0700073,16.5300293-.0700073,24.789978,0,.6900024.0499878,1.7000122,1.0499878,1.6199951.8900146-.0700073.9400024-1.0300293.9500122-1.75.0299988-4.3200073.0100098-8.6400146.0100098-12.960022l.0100098.000061ZM305.1572256,506.8841739c8.0599976.3599854,16.0799866.8400269,23.6099854,4.2000122,1.6099854.7199707,3.8599854.9299927,4.2600098-1.0700073.3500061-1.7299805-1.9899902-1.8499756-3.3599854-2.1500244-8.1000061-1.7700195-16.2999878-1.5-24.5100098-.9799805ZM353.9172354,384.3041569v.3699951h49.4700012v-.3699951h-49.4700012ZM493.4772329,343.0441471c.210022-.0800171.7199707-.2700195,1.2299805-.460022-.2000122-.4799805-.2700195-1.1400146-.6300049-1.4199829-3.2199707-2.5700073-6.4699707-5.0999756-9.7600098-7.5800171-.3499756-.2700195-.9799805-.1699829-1.4799805-.25,0,.3400269-.0599976.7000122-.0100098,1.0300293.3699951,2.6400146,7.7299805,8.8300171,10.6500244,8.6799927ZM672.8771963,88.1041446c-.210022,2.2099915-.1599731,4.480011-.6599731,6.6199951-1.4400024,6.1199951-.4400024,12.3299866-.8200073,18.480011-.0300293.5400085-.3800049,1.3999939.6099854,1.6499939.1099854-.5400085.3400269-1.0899963.2999878-1.6300049-.5599976-8.3900146,1.8900146-16.6900024.5700073-25.1199951ZM231.2872,355.5541569c.3800049,1.9799805-.769989,4.8099976,2.7099915,5.1799927,1.2399902.1300049,2.1799927-.3800049,2.2000122-1.8699951.019989-1.2600098-3.6300049-7.3300171-4.1900024-6.9400024-1.2999878.9099731-.4200134,2.3900146-.730011,3.6300049h.0100098ZM533.1972036,468.8041569c-.0200195-1.7700195-7.7800293-10.710022-9.539978-10.9500122-.3200073-.0499878-.6699829.0900269-1.0100098.1400146.0800171.3400269.0599976.7700195.2600098,1.0100098,2.9899902,3.4000244,6,6.7700195,9.0300293,10.1300049.2299805.2600098.6199951.3800049.9299927.5599976.1099854-.2999878.2199707-.5999756.3300171-.9000244l-.000061.0100098ZM284.1672049,467.1141544c-1.2399902,7.0700073-.2099915,14.4099731-1.519989,21.6400146-.1300049.7000122-.230011,1.9500122.5,1.9500122,1.2799988-.0100098.9899902-1.4000244.9899902-2.2299805.0499878-7.1199951.0299988-14.2299805.0299988-21.3499756v-.0100708ZM654.05725,338.6941715c-2.1900024,6.5499878-1.9899902,13.25-1.3900146,19.960022.460022-6.6500244.9299927-13.3099976,1.3900146-19.960022ZM491.7172842,451.3341861c-1.3900146-.0999756-1.9899902-.2600098-2.5300293-.1599731-2.75.5200195-5.5100098,1.0300293-8.2299805,1.7000122-1.0300293.25-2.9299927.539978-2.6799927,1.4699707.3300171,1.2399902,1.8699951.2800293,2.8499756.039978,2.7199707-.6799927,5.4299927-1.4299927,8.1300049-2.1599731.5300293-.1500244,1.0499878-.3699951,2.4699707-.8800049l-.0099487-.0100098ZM517.3972769,358.6042057c1.210022-.2600098,3.6400146.1400146,3.4299927-.6400146-.5200195-1.9400024-2.7600098-1.0100098-4.2700195-1.0599976-1.0900269-.0300293-3.3300171-.7999878-3.1099854.8800049.1900024,1.4699707,2.5599976.5499878,3.9500122.8200073ZM502.05725,348.9742008c-1.1599731.2600098-3.2299805-.5999756-3.3300171.7000122-.1300049,1.6099854,1.9500122,1.0900269,3.0900269,1.1699829,1.1799927.0800171,3.25.5700073,3.3200073-.7700195.0900269-1.7800293-1.9899902-.710022-3.0800171-1.0999756ZM291.4672537,545.1842228c.0700073.9500122.2099915,2.1900024,1.3900146,1.960022,1.5799866-.3099976,1.6000061-1.9000244,1.6400146-3.2000122.0299988-.8499756.1799927-2.2600098-1.1799927-1.9400024-1.4200134.3300171-1.7099915,1.8300171-1.8500061,3.1900024l-.0000305-.0100098Z"/>
  <path class="st0" d="M393.2071524,64.1042972c-6.4200134,0-12.8500061.0599976-19.269989-.019989-4.0400085-.0499878-8.0400085.6499939-11.75-2.5599976-2.1600037-1.8699951-5.8599854-.3999939-8.8599854-.5899963-1.1000061-.0700073-2.4899902.2399902-3.0700073-.8999939-.769989-1.519989.9200134-1.8200073,1.7000122-2.3999939,4.269989-3.1700134,1.8699951-7.1900024,1.5100098-10.9499969-.0899963-.8999939-.6700134-2.3399963.2600098-2.5899963,1.4899902-.4100037,1.480011,1.3099976,1.8200073,2.2400055,3.1900024,8.8399963,3.1799927,8.8699951,12.7900085,8.8399963,16.0599976-.0499878,32.1199951-.1199951,48.1699829-.2200012,9.6099854-.0599976,9.6499939-.1400146,10.8599854-9.3899994.3399963-2.6199951.7200012-5.2400055,1.2000122-7.8300018.5700073-3.0500031-.7399902-4.0599976-3.6700134-3.9900055-21.1399841.5200043-42.2900085.9499969-63.4299927,1.4900055-2.0499878.0500031-4.5599976.0500031-6.0400085,1.1600037-4.7200012,3.5399933-4.5100098-.6000061-5.4500122-3.1000061-.0599976-.1600037.0400085-.3699951.0299988-.5599976-.4400024-13.4100037.0400085-14.0700073,13.3500061-14.8399963,6.7799988-.3899994,13.6000061-.4400024,20.3999939-.4299927,3.5299988,0,5.6099854-1.1300049,4.769989-4.9600067-.8200073-3.7799988,1.6000061-4,4.2000122-4.2599945,2.5299988-.25,5.2900085-.6499939,5.4500122,3,.230011,5.4799957,3.6000061,6.3699951,8.1000061,6.1100006,6.7799988-.3899994,13.5700073-.6199951,20.3600159-1,3.7999878-.2100067,5.6499939,1.3399963,5.4899902,5.2599945-.1000061,2.4199982-.2999878,4.9199982,2.269989,6.5500031,1.1700134.7400055.7399902,2.1300049.1799927,3.0800018-4.25,7.2400055-4.1799927,15.5299988-5.7600098,23.4100037-.4100037,2.0700073-.8500061,3.5799866-3.2200012,3.8900146-2.25.2900085-5.6099854-.6900024-3.769989,4.0599976.5100098,1.3200073-2.6300049,1.519989-4.25,1.5299988-8.1199951.0599976-16.25.0299988-24.3699951.0299988v-.0599976l-.0000305-.000061ZM378.0271597,20.2542911v-.1199951c-6.769989.3899994-13.5299988.8500061-20.3099976,1.1300049-3.3200073.1399994-4.0799866,2.0099945-3.9700012,4.8500061.1199951,3.2899933,2.1499939,3.8800049,4.9299927,4.0299988,6.1700134.3300018,12.4299927-1.0599976,18.5100098.9600067,4.3500061,1.4400024,9.2600098-1.1699982,10.519989-5.5500031,1.4899902-5.1699982,1.4200134-5.2599945-4.019989-5.2899933-1.8900146-.0099945-3.769989,0-5.6600037,0v-.010025ZM369.7571707,60.5843082c14.269989,0,28.5499878.0100098,42.8200073-.0299988,1,0,2.7600098.2900085,2.6900024-1.1600037-.0700073-1.3500061-1.7799988-.9299927-2.8099976-.9200134-14.25.0899963-28.4899902.4599915-42.7000122,2.1199951v-.0099792ZM393.9171743,19.114307c-.0499878.5700073-.0899963,1.1300049-.1400146,1.6999969,6.3800049,0,12.7600098-.0299988,19.1400146.0200043,1.2799988.0099945,3.6499939.2100067,3.6799927.5399933.7099915,5.9299927,5.1199951,1.8999939,7.5799866,2.8800049.5599976.2200012,1.3800049-.1900024,2.0799866-.3099976-.6799927-.1900024-1.3500061-.4299927-2.0400085-.5500031-.9200134-.1499939-2.0499878-.0800018-2.3500061-1.1399994-.3399963-1.2299957.8099976-1.5,1.6700134-1.8200073.8500061-.3099976,1.7399902-.5399933,2.6099854-.8000031-.8299866-1.0800018-1.9899902-.4799957-2.9700012-.4900055-9.7600098-.0599976-19.5100098-.0299988-29.269989-.0299988l.0100403.0000153Z"/>
  <path class="st0" d="M66.8071356,277.3442875c0,12.2600098-.0100021,24.519989.0199966,36.7799988,0,1.1199951.0999985,2.289978.4400024,3.3499756.4000015,1.25,1.5299988,1.5999756,2.7600021,1.3599854,1.1600037-.2299805,1.3399963-1.1599731,1.3099976-2.1599731-.0999985-3.0100098-.5599976-6.0700073,2.6999969-8.0499878.7099991-.4299927.5800018-1.7600098,0-2.6099854-.5999985-.8999939-3.6999969-1.5400085-.2600021-2.730011,2.0199966-.7000122,2.7900009.6099854,2.9499969,2.3200073.1600037,1.6900024.1399994,3.3899841.1699982,5.0899963.1399994,6.0200195.8199997,6.539978,6.6299973,5.75,5.0499954-.6799927,10.090004-1.3099976,15.0100021-2.6799927,1.1999969-.3300171,3.3200073-.7700195,3.5899963.4400024.3300018,1.5300293-1.7899933,1.5800171-2.9799957,1.8200073-7.9400024,1.5900269-15.9000015,3.0499878-23.8499985,4.6099854-22.3300018,4.3699951-44.8600006,7.6500244-67.0599976,12.6699829-.3699989.0800171-.7299995.210022-1.1100006.25-1.6199989.1900024-4.0699997,1.1599731-4.4799995-.7600098-.4700012-2.1699829,2.1800003-1.960022,3.7000008-2.2299805,16.9099998-3.0200195,33.8100052-6.1900024,50.7699966-8.8599854,4.8600006-.7700195,6.2699966-2.8699951,6.2200012-7.4400024-.1999969-16.8099976-.1600037-33.6199951-.2099991-50.4199829,0-1.1300049-.0999985-2.269989,0-3.3999939.0899963-1.0299988-.3300018-2.7000122,1.0999985-2.75s1.3099976,1.6400146,1.3199997,2.6700134c.0699997,5.6600037.0299988,11.3299866.0299988,17h1.2099991l.0200119-.02005Z"/>
  <path class="st0" d="M847.9271231,498.6443058c-.5200195,2.039978-1.9500122,1.2800293-3.0499878.7800293-5.8300171-2.6500244-11.6099854-5.3900146-17.4199829-8.0800171-12.0999756-5.6300049-23.8699951-12.0100098-36.5499878-16.3400269-.8499756-.289978-1.6900024-.9000244-2.2800293-1.5800171-1.7199707-1.9899902-6.6300049-2-5.4299927-4.9400024.6500244-1.5999756,6,.4400024,7.960022,1.7299805,12.039978,7.9099731,25.6699829,12.4199829,38.4000244,18.8099976,5.210022,2.6199951,10.5499878,4.9899902,15.8300171,7.4799805,1.0100098.4799805,2.1099854.8699951,2.539978,2.1500244l-.000061-.0099487Z"/>
  <path class="st0" d="M156.7971335,47.2742954c-4.8899994.1499939-9.8099976-.1100006-14.6699982.7100067-.9100037.1499939-2.0800018.0899963-2.3200073-1.0299988-.2700043-1.2599945.9600067-1.4400024,1.8200073-1.6499939.8999939-.2299957,1.8600006-.3200073,2.8000031-.3500061,15.8199921-.4600067,31.6499939-.9199982,47.4799957-1.3099976,1.1300049-.0299988,3.1699982-.7899933,3.1999969,1,.0299988,1.4600067-2.0299988,1.3699951-3.2700043,1.3800049-11.6799927.0500031-23.3500061.0299988-35.0299988.0299988v1.2200012l-.0099945-.0000153Z"/>
  <path class="st0" d="M383.3471365,100.8142887c-7.3500061-.7200012-13.1300049.2399902-18.9400024.6300049-1.1199951.0799866-3.1000061.7200012-3.2000122-1.1199951-.0599976-1.2200012,1.7600098-.980011,2.8099976-1.0299988,16.519989-.8599854,33.0400085-1.6799927,49.5499878-2.519989,2.25-.1199951,4.5-.3099976,6.7399902-.4899902.9299927-.0799866,2.1700134-.3599854,2.3599854.75.230011,1.3099976-1.1199951,1.2099915-2,1.269989-12.9400024.8800049-25.8699951,1.75-37.3299866,2.5100098l.0100403-.0000305Z"/>
  <path class="st0" d="M305.2971487,498.2442814c-5.4500122,0-10.9100037.0200195-16.3600159-.0200195-.9299927,0-2.0799866-.1799927-2.0899963-1.3499756,0-1.2299805,1.2399902-1.3300171,2.1199951-1.3400269,10.7000122-.1400146,21.3999939-1.2299805,32.0899963.1400146,1.1099854.1400146,3.1000061-.4400024,2.8900146,1.5999756-.1400146,1.3099976-1.7799988,1.1099854-2.8500061,1.1099854-5.269989.039978-10.5299988.0200195-15.7999878.0200195v-.1799927.0200195Z"/>
  <path class="st0" d="M326.9671316,102.7743107c-6.1000061-.269989-12.6600037.6499939-19.25,1.0100098-.8699951.0499878-2.1900024.1000061-2.2600098-1.0700073-.0799866-1.269989,1.2799988-1.1000061,2.1400146-1.2000122,11.6600037-1.3999939,23.3699951-1.1000061,35.0799866-1.0499878.6499939,0,1.2999878.3800049,1.9500122.5799866-.6300049.3299866-1.230011.7900085-1.8999939.9599915-5.0299988,1.25-10.1600037.3999939-15.7600098.7600098v.0100098Z"/>
  <path class="st0" d="M189.8971396,106.1743046c5.0800018-.3599854,10.1499939-.7600098,15.2299957-1.0599976,1.0700073-.0599976,2.7299957-.1600037,2.8000031,1.1400146.0899963,1.5799866-1.6499939,1.1099854-2.6199951,1.1600037-8.4700012.4500122-16.9499969.8399963-25.4300079,1.1900024-1.0299988.0400085-2.6300049.2900085-2.7299957-1.2000122-.1000061-1.5700073,1.5099945-1.3900146,2.5399933-1.4100037,3.3999939-.0700073,6.7899933-.0299988,10.1900024-.0299988,0,.0700073.0099945.1400146.0200043.2099915Z"/>
  <path class="st0" d="M222.9671316,104.7942997c6.1900024-.25,12.3299866-1.4700012,18.5499878-.9500122,1.0499878.0899963,2.7099915-.2999878,2.8099976,1.0499878.1099854,1.5400085-1.6099854,1.2000122-2.6099854,1.230011-7.3200073.2200012-14.6600037-.1099854-21.9599915,1-1.25.1900024-3.5899963.6499939-3.5899963-1.3800049,0-1.3099976,2.1799927-.8399963,3.4200134-.9400024,1.1199951-.0899963,2.2600098-.019989,3.3900146-.019989l-.0100403.0100098Z"/>
  <path class="st0" d="M64.3971396,240.2743107c0,1.9400024.0800018,2.7000122-.0199966,3.4299927-.0800018.5899963.3700027,1.4700012-.6500015,1.6300049-.0599976,0-.3300018-.9700012-.4199982-1.5-.7699966-4.4599915-3.4899979-4.2000122-6.6299973-2.6799927-1.1699982.5700073-2.1800003,1.4299927-3.3000031,2.1000061-.6399994.3800049-1.4400024.7099915-2.0100021-.0299988-.7099991-.9299927-.2699966-1.8699951.5599976-2.3699951,3.4000015-2.0499878,7.2300034-3.3200073,11.0400009-3.7000122,2.9000015-.2900085,1.3700027,2.6900024,1.4300003,3.1199951Z"/>
  <path class="st0" d="M366.2971487,158.0942875c-2.0899963.1300049-4.0899963-.0599976-4.1099854-2.2000122-.0299988-2.8299866,2.4100037-3.4500122,4.7099915-3.6900024,2.1900024-.230011,4.0499878,1.2000122,4.1099854,2.9700012.1199951,3.2799988-3.1900024,2.1400146-4.7000122,2.9200134h-.0099792Z"/>
  <path class="st0" d="M704.0871573,158.5042911c-.4099731.3699951-.7600098.8800049-1.2399902,1.0899963-4.8099976,2.0700073-9.6300049,4.1099854-14.460022,6.1199951-.6699829.2799988-1.5300293.5400085-1.9000244-.3599854-.0999756-.25.4699707-1.0100098.8900146-1.2099915,4.710022-2.2799988,9.4299927-4.5400085,14.210022-6.6900024.8800049-.3999939,2.2600098-.8500061,2.5100098,1.0499878h-.0100098Z"/>
  <path class="st0" d="M150.6871328,174.5143009c0-2.6300049-.0299988-5.2600098.0200043-7.8800049,0-.5.3300018-.9899902.5099945-1.4899902.2200012.480011.5500031.9500122.6300049,1.4500122.8800049,5.5799866,1.3399963,11.1799927.9799957,16.8299866-.0500031.7200012-.1100006,1.6400146-1.0599976,1.6900024-1,.0499878-1.1100006-.8900146-1.1300049-1.5799866-.0500031-3-.0200043-6.0100098-.0200043-9.0100098h.0700073v-.0100098Z"/>
  <path class="st0" d="M247.5171499,114.634296c-2.0100098.2099915-3.75-.1700134-4.1099854-2.1700134-.4100037-2.2600098,1.7399902-1.8999939,3.0400085-2.3299866.1799927-.0599976.3599854-.1000061.5499878-.1099854,2.0899963-.1600037,5.2600098-1.769989,5.730011,1.2000122.519989,3.3099976-3.2399902,2.7000122-5.2099915,3.4100037l-.0000305-.0000305Z"/>
  <path class="st0" d="M13.8571386,397.134296c-.6300011.4799805-1.1399994,1.0999756-1.7900009,1.3099976-3.4000015,1.1199951-6.8300018,2.1599731-10.2600021,3.1799927-.6800003.2000122-1.5699997.4099731-1.7999992-.539978-.0800018-.3099976.5299988-.9699707.9599991-1.1900024,3.0299988-1.5100098,6.0499992-3.0599976,9.170002-4.3599854,1.3699989-.5700073,2.9700012-.5700073,3.7200012,1.5900269v.0099487Z"/>
  <path class="st0" d="M131.5071402,265.0442997c1.9900055.6799927,4.0299988.7999878,6.1300049.7200012,1.8300018-.0700073,3.0399933,1.1900024,2.8800049,2.7600098-.1900024,1.9500122-2.0099945,1.230011-3.1699982.9599915-2.1900024-.519989-4.3399963-1.2399902-6.4900055-1.9400024-.8699951-.2799988-2.0500031-.5799866-1.7100067-1.7900085.3200073-1.1499939,1.4299927-.8999939,2.3600006-.7099915Z"/>
  <path class="st0" d="M519.5871573,146.7643009c1.8800049.2000122,3.6300049.769989,3.460022,2.8699951-.1900024,2.3800049-2.3300171,1.9599915-3.9099731,1.8800049-1.9299927-.0899963-4.0499878-.6199951-3.6300049-3.0799866.3699951-2.1799927,2.5800171-1.5400085,4.0800171-1.6700134h-.000061Z"/>
  <path class="st0" d="M18.3871374,26.9742923c3.4099998,2.2200012,7.0400009,4.5700073,10.6299973,6.9499969.1800003.1199951.2200012.8800049.1399994.9199982-.5.2100067-1.2300034.6000061-1.5599976.3999939-3.5199966-2.1000061-6.9899979-4.2799988-10.4199982-6.5099945-.2599983-.1699982-.1800003-.9600067-.0999985-1.4400024.0200005-.1300049.6399994-.1600037,1.3199997-.3200073l-.0100021.0000153Z"/>
  <path class="st0" d="M266.0971365,410.5042911c1.0299988.1400146,1.2399902.8099976.7999878,1.5700073-.4599915.7999878-1.0499878,1.5700073-1.7099915,2.210022-2.6799927,2.5800171-4.8599854,5.7299805-8.4400024,7.2600098-.0700073-.3200073-.3200073-.7999878-.1900024-.9500122,2.8200073-3.2600098,5.1000061-6.9899902,8.5100098-9.7299805.269989-.2199707.6900024-.25,1.0400085-.3699951l-.0100098.0099487Z"/>
  <path class="st0" d="M103.0971365,227.5543094c3.1199951-.1700134,4.5800018,1.5100098,5.5800018,3.6199951.2799988.5899963-.6799927.9299927-1.1000061.6099854-2.3699951-1.7900085-6.4900055.980011-7.7599945-2.6199951-.4199982-1.2000122,2.3099976-1.3200073,3.2700043-1.6199951l.0099945.0100098Z"/>
  <path class="st0" d="M131.9471426,253.7643009c-.4100037,1.6199951-1.4499969,1.3399963-2.2799988,1.019989-2.8000031-1.0700073-5.5700073-2.230011-8.3300018-3.3900146-.7100067-.2999878-1.3699951-.8500061-1.1399994-1.6799927.0800018-.2900085.9900055-.6300049,1.3800049-.5,3.0200043.9599915,6.0200043,1.980011,8.9799957,3.1199951.6000061.230011.9900055,1,1.3899994,1.4400024v-.0099792Z"/>
  <path class="st0" d="M166.3071432,53.9543033c-.6300049,2.0100098-2.3000031,2.3099976-4.0399933,2.2900085-1.6399994-.0100098-3.3000031-.6099854-2.8399963-2.5599976.4700012-2.019989,2.5299988-1.9899902,4.2200012-1.9700012,1.3800049.0100098,2.6199951.4599915,2.6600037,2.2399902h-.0000153Z"/>
  <path class="st0" d="M290.9671316,104.2043033c-2.2999878-.6099854-4.6099854.6300049-6.4700012-1.1099854,1.8099976-1.7600098,4.1499939-1.4500122,6.2999878-1.3699951,1.8800049.0700073,5.2900085-.9500122,5.25,1.230011-.0400085,2.1300049-3.5100098.3800049-5.0799866,1.25v-.0000305Z"/>
  <path class="st0" d="M59.5171347,218.2343021c2.9800034-.3200073,5.3199997.2200012,4.4700012,4.1799927-.1999969.9100037-.5299988,2.5400085-.8199997,2.5499878-1.6900024.019989-.8499985-1.5599976-1.1200027-2.4100037-.6299973-1.9400024-1.8099976-2.7200012-3.8000031-2.5599976-1,.0799866-2.6900024.8099976-2.7399979-.7099915-.0500031-1.3999939,1.75-.8699951,2.7799988-1.0400085.3700027-.0599976.75,0,1.2300034,0v-.0099792Z"/>
  <path class="st0" d="M489.3971548,517.5042911c.4899902,1.0499878.9199829,1.8599854,1.2600098,2.710022.9099731,2.2199707,1.8800049,4.4299927,2.6199951,6.710022.3099976.9500122,1.210022,2.5599976.0200195,2.9799805-1.289978.460022-1.4099731-1.3400269-1.7700195-2.289978-1.039978-2.7700195-2-5.5700073-2.9899902-8.3699951-.2700195-.7600098-.2000122-1.3699951.8499756-1.7299805l.0100098-.0100708Z"/>
  <path class="st0" d="M671.5071402,149.5742985c-.5999756,1.8399963.710022,5.8200073-1.2199707,5.5799866-2.3800049-.2900085-.9899902-4.0100098-1.0800171-6.269989-.0100098-.3599854.0499878-.769989.210022-1.0899963.5200195-1.0899963-.0499878-3.1199951,1.5300293-3.1199951.8599854,0,.4899902,1.9400024.5499878,3.0299988.0300293.5599976,0,1.1199951,0,1.8699951h.0099487Z"/>
  <path class="st0" d="M577.0671377,477.6443058c-.039978.6500244-.0599976,1-.0800171,1.3499756-.4500122-.1900024-.9500122-.3099976-1.3599854-.5700073-2.9199829-1.9400024-4.6599731-4.8499756-6.2999878-7.8300171-.1799927-.3200073-.2399902-.7000122-.3499756-1.0499878.3099976-.0800171.8099976-.3300171.9000244-.2199707,2.4699707,2.8099976,4.8900146,5.6500244,7.1799927,8.3300171l.0099487-.0100098Z"/>
  <path class="st0" d="M548.0271597,441.344318c.1500244,1.2399902-.2299805,1.4199829-.9299927,1.289978-1.1199951-.210022-7.9400024-8.6199951-7.6699829-9.539978.0800171-.2600098.4500122-.4400024.6900024-.6500244,2.7199707,3.0599976,5.4400024,6.1300049,7.9000244,8.9000244h.0099487Z"/>
  <path class="st0" d="M67.7271414,125.1842838c.3700027-1.3299866-.6100006-3.8399963,1.3099976-3.5299988,1.6900024.269989,1.0800018,2.9200134,1,4.519989-.0800018,1.5100098.5599976,4.3599854-1.4100037,4.0400085-1.6399994-.2600098-.5400009-3.3200073-.8899994-5.0299988h-.0099945Z"/>
  <path class="st0" d="M54.4571371,396.0742985c1.5.3699951,4.0100021-.7000122,4.0800018,1.5.0599976,1.8400269-2.3399963,1.2600098-3.6399994,1.1500244-1.8899994-.1599731-5.0199966.5700073-5.1699982-1.6300049-.1100006-1.5999756,3.0999985-.5700073,4.7299957-1.0200195Z"/>
  <path class="st0" d="M194.7571402,192.6242862c-1.1999969-.3299866-3.1100006.5100098-3.1100006-1.3900146,0-1.3299866,1.7100067-1.269989,2.7200012-1.1499939,2.0200043.25,5.4100037-1.2399902,5.6499939,1.3200073.1699982,1.7799988-3.4600067.7200012-5.2599945,1.2200012Z"/>
  <path class="st0" d="M59.9871359,144.5143009c.3399963-1.2900085-.6200027-3.6700134,1.0400009-3.7000122,1.7099991-.0299988,1.0699997,2.3500061,1.0299988,3.6400146-.0500031,1.4400024.9000015,3.8900146-1.2300034,4.0100098-1.1800003.0599976-.6200027-2.519989-.8399963-3.9500122Z"/>
  <path class="st0" d="M611.4071646,461.8042789c.1300049-.6799927.1599731-1.2800293.2600098-1.2999878.5-.0599976,1.2399902-.1699829,1.5100098.1099854,1.9299927,2,3.7800293,4.0700073,5.6199951,6.1599731.210022.2399902.3300171.7399902.2299805,1.0200195-.0800171.210022-.7600098.4500122-.8699951.3499756-2.3200073-2.1300049-4.5999756-4.2999878-6.75-6.3400269v.000061Z"/>
  <path class="st0" d="M75.9771414,235.0642887c-.8499985-.0499878-2.0100021-.3800049-1.4199982-1.1099854,1.5999985-2.0100098,4.2099991-2.0599976,6.5199966-2.6000061.6900024-.1600037,2,.269989,1.3600006.9599915-1.6800003,1.8299866-4.3000031,1.980011-6.4700012,2.75h.0100021Z"/>
  <path class="st0" d="M72.3271399,230.0543094c-.1800003,1.2399902.4199982,3.3800049-.8600006,3.4899902-1.8799973.1600037-1.1100006-1.9500122-1.1800003-3.0899963-.0800018-1.2399902-.4700012-3.3800049.8000031-3.4899902,1.9000015-.1600037.8700027,1.980011,1.2399979,3.0899963Z"/>
  <path class="st0" d="M729.1771231,147.5843082c-.1699829.6700134-7.5300293,3.8099976-8.0200195,3.3699951-.1900024-.1700134-.2700195-.6000061-.2000122-.8699951.3200073-1.269989,6.9199829-4.1600037,7.8499756-3.4200134.2299805.1799927.2600098.6000061.3699951.9200134h.000061Z"/>
  <path class="st0" d="M77.9571371,48.0542942c1.2799988.4199982,3.8399963-.5399933,3.5699997,1.1600037-.3199997,1.9299927-3.0400009,1.4900055-4.8000031,1.5399933-1.1299973.0299988-3.2699966.4799957-2.9800034-1.2700043.3499985-2.1300049,2.7399979-1.0500031,4.2099991-1.4199982l.0000076-.0099945Z"/>
  <path class="st0" d="M680.2471304,35.834293c-1.0200195-.25-3,.1300049-2.6900024-1.0800018.5200195-1.9900055,2.75-1.0500031,4.2600098-1.1399994.9899902-.0599976,2.960022-.1399994,2.6599731,1-.5300293,2-2.7600098.9100037-4.2199707,1.2200012h-.0100098Z"/>
  <path class="st0" d="M121.5671377,237.0642887c.0500031,1.0100098-.5099945,1.5899963-1.3300018,1.3999939-1.8600006-.4200134-3.5899963-1.2399902-4.3500061-3.1600037-.2400055-.6000061.5-1.0100098,1.0599976-.9500122,1.9400024.230011,3.6499939.9100037,4.6199951,2.7000122l.0000153.0100098Z"/>
  <path class="st0" d="M129.3471365,48.334293c-1.0800018-.1600037-2.9799957.2899933-2.8800049-.9199982.1600037-1.9900055,2.3200073-1.3000031,3.6699982-1.4600067,1.0399933-.1199951,2.9400024-.2799988,2.8399963.8699951-.1699982,2.0299988-2.3399963,1.1399994-3.6399994,1.5099945l.0100098.0000153Z"/>
  <path class="st0" d="M456.9471426,277.364307c-7.1499939,1.7099915-14.7999878-1.2399902-22.519989-3.5299988-2.2099915-.6600037-4.1000061-.6700134-5.8399963.7900085-5.7900085,4.8399963-12.4899902,4.6499939-19.3500061,3.6000061-1.3299866-.2000122-2.6400146-.5499878-3.7999878.3699951-1.3399963,1.0700073-2.9400024,2.3500061-2.6700134,4.0899963.3200073,2.0299988,2.4299927,1.1199951,3.7999878,1.3500061,1.7399902.2900085,4.75-.8500061,4.8500061,1.3699951.1300049,2.8599854-3.0799866,1.7600098-4.9200134,2.1099854-1.1000061.2099915-2.2600098.1400146-3.3900146.1099854-4.5899963-.1400146-5.8599854-1.6900024-3.3800049-5.480011,2.6000061-3.9700012,2.3299866-7.0499878,1.4500122-11.6900024-1.1799927-6.2099915-.6400146-13.6300049,5.9899902-18.0700073,5.8699951-3.9200134,14.6300049-3.4299927,20.8200073,1.0700073,5.0066833,3.6466675,4.6633606,6.7800293-1.0299988,9.3999939-3.0899963,1.4200134-6.2000122,2.7999878-9.3299866,4.1199951-4.6199951,1.9599915-5.6600037,1.1300049-5.1300049-4.0599976.1499939-1.5.5100098-2.980011.6300049-4.4899902.1300049-1.5799866,1.4299927-3.6000061-.519989-4.5899963-1.4500122-.7399902-2.7200012.9200134-3.9200134,1.7600098-4.3399963,3.0599976-5.9200134,7.3599854-4.7600098,12.3999939,1.1199951,4.8699951,5.0400085,6.7000122,9.5299988,7.6199951,3.0599976.6300049,6.0100098-.0700073,8.980011-.6499939,3.2900085-.6400146,5.2999878-2.0700073,3.769989-5.8500061-.3500061-.8500061-.6799927-1.980011.2399902-2.6099854.980011-.6700134,1.5799866.2799988,2.3099976.8999939,6.0700073,5.1600037,13.7099915,5.8500061,21.0799866,7.2999878.5299988.1000061,1.1000061-.0700073,1.6600037-.1099854-1.1900024-3.3800049,1.1199951-3.6300049,3.1900024-3.019989,3.5599976,1.0499878,7.1099854,2.3399963,10.3599854,4.1099854,1.3200073.7200012.0299988,1.9899902-1.269989,2.0100098-1.8800049.0299988-3.769989-.1799927-6.8399963-.3599854l.0100403.0299988ZM416.2471304,258.3343082c.519989,1.6000061-.980011,4.3699951,2.3699951,4.6000061,1.6799927.1099854,10.1000061-5.3299866,9.6400146-5.9899902-1.9700012-2.8500061-5.1000061-3.8200073-8.269989-4.1700134-4.2399902-.4599915-3.4100037,2.9599915-3.7399902,5.5599976h-.0000305Z"/>
  <path class="st0" d="M434.1671438,203.8442875c0-2.6400146-.0499878-5.2799988.019989-7.9200134.0599976-2.1199951.8999939-3.7200012,3.3399963-3.6499939,2.0100098.0599976,4.7399902-1.0700073,5.7999878.9700012,1.4899902,2.8500061-.8599854,5.7799988-1.1799927,8.730011-.019989.1900024-.4700012.3299866-.7200012.4899902-.1600037-.519989-.2900085-1.0599976-.480011-1.5700073-.6400146-1.7099915,1.1799927-5-1.8900146-4.9500122-3.1900024.0499878-2.1700134,3.3599854-2.3200073,5.4500122-.1300049,1.8699951.1799927,3.7799988.0100098,5.6499939-.269989,3.1499939.2799988,4.6300049,4.1900024,4.6700134,7.6900024.0700073,9.3800049-1.8699951,7.1600037-9.3599854-.4899902-1.6300049-2.8200073-2.9299927-1.2099915-5,.2000122-.25,1.1199951-.1900024,1.5499878.0400085,2.0299988,1.0700073,1.769989,3.1000061,1.9599915,4.9599915.769989,7.4400024,2.7999878,10.5299988,6.8500061,8.8299866,5.4200134-2.2799988,10.75-5.519989,14.8100281-9.9899902,1.539978-1.7000122-.8500061-1.1199951-1.6600037-1.1499939-1.5700073-.0599976-3.9100037,1.1300049-4.2900085-1.1000061-.3399963-1.980011,2.2099915-2.1400146,3.6799927-2.8200073,1.5400085-.7099915,3.1199951-1.3500061,4.7299805-1.8800049,1.9299927-.6400146,4.3599854-3.2200012,5.7299805.0499878,1.0999756,2.6199951,1.9500122,6.1700134-1.1400146,8.2200012-2.1099854,1.3999939-3.789978,3.1199951-5.3400269,4.9599915-.960022,1.1400146-5.5400085,3.3099976.3800049,4.1300049.3400269.0499878.8499756.7999878.8400269,1.2000122-.039978.9299927-.9199829,1.1099854-1.6599731,1.1799927-3.1900024.2999878-6.4200134.9899902-9.5700073.7399902-8.6900024-.6799927-17.2900085.6799927-25.9500122.7000122-2.8800049,0-3.6799927-1.1499939-3.6400146-3.6400146.0400085-2.6400146,0-5.2799988,0-7.9200134h-.019989l.0200806-.0199585Z"/>
  <path class="st0" d="M454.5771475,244.3742862c-8.480011,1.0400085-17.8699951-1.9500122-27.4599915-2.2399902-1.9700012-.0599976-3.5100098-.8999939-3.0100098-3.0700073.6000061-2.5799866,2.3800049-.769989,3.6300049-.5700073,7.25,1.1199951,14.4899902,2.5100098,21.769989.269989.75-.230011,1.4599915-.5,2.0899963.0899963,7.3200073,6.730011,15.6300049,1.5100098,23.4700012,1.9299927,1.539978.0799866,2.1300049-1.5899963,2.8099976-2.5400085,3.3099976-4.5799866,5.7399902-.6600037,7.9799805.9500122,1.4699707,1.0599976-.3599854,1.4200134-1.3200073,1.8900146-6.6099854,3.2799988-13.8299866,2.6199951-20.8399963,3.25-2.6199951.2399902-5.269989.0400085-9.1199951.0400085h.0000305Z"/>
  <path class="st0" d="M495.8971548,209.1042972c.9400024,0,1.9199829-.1600037,2.8099976.0299988,2.4899902.5400085,7.1599731.5599976,6.710022,2.5299988-.7600098,3.3399963-4.2999878.4899902-6.5800171.25-6.2700195-.6799927-7.460022.3699951-6.0700073,6.5299988.6300049,2.7900085-.4799805,6.1799927,2.6699829,8.2099915.6799927.4400024.4299927,1.3099976.0800171,2.0400085-1.5333252,3.2666321-.8866577,6.0400085,1.9400024,8.3200073.7399902.5899963.9000244,1.3800049.1799927,1.8500061-2.2600098,1.4700012-5.1599731,2.4700012-7.4000244,1.5400085-1.6400146-.6799927-2.5499878-3.3500061-4.5499878-4.5100098-.7000122-.3999939-.2600098-1.5499878.5900269-1.6900024,4.2800293-.6799927,3.6599731-2.8299866,1.7700195-5.4700012-.1900024-.269989-.3200073-.8200073-.1799927-1.0599976,3.0200195-5.2000122,1.9799805-10.7099915,1.5300293-16.25-.1699829-2.1000061,1.2000122-2.4899902,6.4699707-2.3399963l.0299683.019989Z"/>
  <path class="st0" d="M401.9971304,236.6743046c0,.6300049-.0799866,1.5799866.0299988,2.5.0799866.7399902.3399963,1.6099854,1.2099915,1.7200012.980011.1300049,1.0499878-.7600098,1.230011-1.480011.3399963-1.3200073-.5400085-3.5899963,1.4700012-3.6499939,1.5599976-.0499878.9400024,2.0899963,1.2799988,3.269989.1400146.4899902.5,1.3399963.6799927,1.3200073,1.3599854-.1499939.9100037-1.3299866,1.0700073-2.1600037.2000122-.9899902-.3999939-2.5499878,1.1600037-2.6600037,1.0499878-.0700073,1.2900085,1.2600098,1.4299927,2.1499939.6300049,4,3.3999939,2.4599915,5.6700134,2.25.9599915-.0899963,2.019989-.0899963,2.4899902.8500061.4299927.8299866-.2900085,1.4100037-1.0499878,1.6099854-6.7200012,1.7099915-13.480011,3.2600098-20.4899902,2.25-1.0299988-.1499939-3.5799866-.75-1.2000122-1.9100037,3.8399963-1.8800049,2.6900024-4.8800049,3.019989-7.6900024.1199951-.9899902-.4400024-2.730011,1.1600037-2.6099854,1.269989.1000061,1.0599976,1.7200012,1.0100098,2.8299866-.019989.3699951-.0899963.75-.1799927,1.4200134l.0099792-.0099792Z"/>
  <path class="st0" d="M413.9771414,216.5543094c-.4599915,1.1700134.7099915,3.2799988-1.1000061,3.8200073-1.4299927.4200134-1.230011-1.519989-1.6900024-2.4400024-.480011-.9700012-1.269989-1.4599915-2.2799988-1.2200012-1.6199951.3800049-1.6900024,1.8399963-1.8900146,3.1400146-.519989,3.2600098-1.4200134,4.3800049-3.8299866,1-.6700134-.9500122-2.3800049-1.0899963-3.3500061-1.8999939-2.1199951-1.7799988-2.4899902-3.6700134.2600098-5.3200073,4.0799866-2.4500122,8.3399963-.7200012,12.5-.4200134,1.6600037.1199951,1.5899963,1.8299866,1.3599854,3.3599854l.0200195-.019989Z"/>
  <path class="st0" d="M401.1271353,198.8442875c2.9899902-.1499939,5.980011-.3099976,8.980011-.4500122.7600098-.0400085,1.6300049-.0400085,1.9500122.7600098.5,1.269989-.6099854,1.3200073-1.3900146,1.7999878-1.9299927,1.2000122-2.7399902.8699951-6.0299988.4599915-3.8599854-.480011-7.8500061.0700073-11.7799988,0-1.3299866-.019989-3.5799866.5100098-3.4899902-1.6199951.0599976-1.5100098,2.1099854-1.0499878,3.3299866-1.0799866,2.8099976-.0799866,5.6199951-.0299988,8.4299927-.0299988v.1600037Z"/>
  <path class="st0" d="M441.1971426,233.0442997c1.9299927.7000122,3.1199951,1.9500122,1.1900024,3.6000061-2.230011,1.9100037-4.9599915,1.3099976-7.4100037.2200012-2.1900024-.9700012-4.519989-2.019989-4.3200073-5.0499878.0299988-.3900146.7600098-.730011,1.1700134-1.0899963,2.7600098,2.2200012,5.9899902,2.5899963,9.3699951,2.3200073v-.0000305Z"/>
  <path class="st0" d="M428.4771414,220.6842838c-2.6700134,2.3200073-2.0799866,5.7999878-2.2200012,9.1199951-.0100098.3399963-.2600098.6700134-.3999939,1-.2200012-.4400024-.6300049-.8699951-.6300049-1.3099976-.0400085-2.8699951-.7399902-5.5-2.3299866-7.9299927-.75-1.1400146-.2799988-2.25.8999939-2.7600098.9899902-.4200134,2.1499939-.7200012,3.2000122-.6400146,1.019989.0700073,1.3900146,1.1000061,1.480011,2.5299988l-.0000305-.0099792Z"/>
  <path class="st0" d="M457.1071463,204.4342838c-.1300049,1.019989.3399963,3.1700134-.8699951,3.2799988-2.230011.2000122-1.25-2.1199951-1.6199951-3.3800049-.2099915-.7099915-.3299866-1.4500122-.480011-2.1799927-.2900085-1.3800049-3.25-1.1600037-2.0700073-3.3599854.3800049-.7000122,1.230011-.7399902,2.0100098-.5,2.0899963.6300049,3.019989,2.0799866,3.0400085,4.2099915v1.9299927h-.0100098Z"/>
  <path class="st0" d="M441.1971426,233.0442997c-3.3800049.269989-6.6000061-.1000061-9.3699951-2.3200073-.2399902-1.1700134-.6900024-3.4899902,1.0499878-2.4899902,2.7600098,1.5899963,6.5599976,1.5400085,8.3099976,4.8099976h.0100098Z"/>
  <path class="st0" d="M504.7971182,270.8142887c-1.539978-.3099976-3.4400024-.1199951-3.4799805-2.0700073-.0300293-1.4100037,1.5-1.5599976,2.5200195-1.1700134,1.3800049.519989,3.7800293.1400146,3.5800171,2.4599915-.1199951,1.4500122-1.7800293.6199951-2.6199951.7799988l-.000061.0000305Z"/>
</svg>