<?xml version="1.0" encoding="UTF-8"?>
<svg id="Layer_1" data-name="Layer 1" xmlns="http://www.w3.org/2000/svg" viewBox="0 0 702.295948769591632 735.28973603959821">
  <defs>
    <style>
      .cls-1 {
        fill: #f7e1c4;
      }
    </style>
  </defs>
  <path class="cls-1" d="M142.487430461214899,106.966430127820786c1.460006713867188,4.479995727539062.800003051757812,8.089996337890625.350006103515625,11.55999755859375-3.860000610351562,29.800003051757812-7.729995727539062,59.600006103515625-9.479995727539062,89.6300048828125-.32000732421875,5.5.229995727539062,11.040008544921875-.830001831054688,16.5-.259994506835938,1.350006103515625.149993896484375,3.57000732421875-1.910003662109375,3.489990234375-2.050003051757812-.079986572265625-2.399993896484375-2.20001220703125-2.339996337890625-3.8599853515625.289993286132812-7.170013427734375.470001220703125-14.3599853515625,1.139999389648438-21.5,2.669998168945312-28.42999267578125,6.339996337890625-56.740005493164062,10.270004272460938-85.010009765625.470001220703125-3.360000610351562.789993286132812-6.800003051757812,2.789993286132812-10.80999755859375h.009994506835938Z"/>
  <path class="cls-1" d="M177.687412150668024,219.636413037977036c-10.07000732421875,39.6199951171875-6.29998779296875,80.100006103515625-7.720001220703125,120.779998779296875-2.709991455078125-1.20001220703125-2.6099853515625-3.1099853515625-2.6099853515625-4.80999755859375-.010009765625-33.3599853515625-1.970001220703125-66.790008544921875,3.760009765625-99.94000244140625,1.42999267578125-8.25,2.720001220703125-12.5,6.55999755859375-16.029998779296875h.009979248046875Z"/>
  <path class="cls-1" d="M491.917423136996149,235.616424024305161c1.3499755859375-3.67999267578125,2.510009765625-7.44000244140625,4.07000732421875-11.019989013671875,4.70001220703125-10.769989013671875,5.71002197265625-22.19000244140625,6.17999267578125-33.709991455078125.1300048828125-3.17999267578125.30999755859375-6.32000732421875,1.1500244140625-9.399993896484375.219970703125-.800003051757812.33001708984375-1.759994506835938,1.28997802734375-1.949996948242188,1.15997314453125-.229995727539062,1.77001953125.710006713867188,2.3900146484375,1.479995727539062.8800048828125,1.089996337890625,1.15997314453125,2.410003662109375,1.07000732421875,3.770004272460938-.78997802734375,11.250015258789062,0,22.689987182617188-4.21002197265625,33.539993286132812-2.58001708984375,6.649993896484375-5.45001220703125,13.040008544921875-10.58001708984375,18.04998779296875-.45001220703125-.25-.9000244140625-.5-1.3599853515625-.760009765625Z"/>
  <path class="cls-1" d="M187.237430461214899,369.246428907117661c-1.6199951171875-.8800048828125-1.600006103515625-2.290008544921875-1.69000244140625-3.600006103515625-1.75-24.899993896484375-1.540008544921875-49.67999267578125,4.980010986328125-74.019989013671875.480010986328125-1.790008544921875.5-5.1199951171875,2.670013427734375-4.57000732421875,2.480010986328125.6300048828125.57000732421875,3.329986572265625.100006103515625,5.079986572265625-4.3599853515625,16.44000244140625-4.769989013671875,33.279998779296875-5.1300048828125,50.110015869140625-.170013427734375,7.839996337890625.1099853515625,15.69000244140625.1400146484375,23.529998779296875,0,1.1099853515625.329986572265625,2.350006103515625-1.05999755859375,3.459991455078125l-.010040283203125.010009765625Z"/>
  <path class="cls-1" d="M480.197452433871149,163.196425855359848c3.42999267578125,3.3800048828125,4.3800048828125,7.42999267578125,5.0999755859375,11.479995727539062,3.03997802734375,17.169998168945312-.3699951171875,33.489990234375-6.79998779296875,49.3699951171875-.30999755859375.769989013671875-.66998291015625,1.540008544921875-1.1099853515625,2.239990234375-.5999755859375.94000244140625-1.1099853515625,2.3800048828125-2.58001708984375,1.69000244140625-1.30999755859375-.6099853515625-1.010009765625-1.989990234375-.71002197265625-3.1199951171875.760009765625-2.899993896484375,1.5-5.80999755859375,2.41998291015625-8.660003662109375,5.0999755859375-15.790008544921875,7.83001708984375-31.720001220703125,3.1400146484375-48.160003662109375-.4000244140625-1.389999389648438-.90997314453125-2.899993896484375.55999755859375-4.839996337890625l-.01995849609375.000015258789062Z"/>
  <path class="cls-1" d="M508.117435344027399,293.046416700086411c10.8800048828125,8.05999755859375,23.09002685546875,14.20001220703125,32.489990234375,23.95001220703125,4.6300048828125,4.80999755859375,7.530029296875,10.95001220703125,9.17999267578125,17.529998779296875.4000244140625,1.589996337890625,1.20001220703125,3.649993896484375-.97998046875,4.260009765625-1.96002197265625.54998779296875-2.8599853515625-1.42999267578125-3.42999267578125-2.959991455078125-3.07000732421875-8.20001220703125-7.1300048828125-15.720001220703125-13.44000244140625-21.989990234375-4.80999755859375-4.779998779296875-10.84002685546875-7.709991455078125-16.16998291015625-11.670013427734375-3.20001220703125-2.3800048828125-6.989990234375-4.3900146484375-7.6400146484375-9.1099853515625l-.010009765625-.010040283203125Z"/>
  <path class="cls-1" d="M142.477420695589899,46.076423108777817c1.529998779296875,3.580001831054688.57000732421875,7.069999694824219.220001220703125,10.569999694824219-1.460006713867188,14.6300048828125-1.660003662109375,29.389999389648438-4.169998168945312,43.919998168945312-.30999755859375,1.770004272460938-.160003662109375,4.860000610351562-2.17999267578125,4.529998779296875-2.580001831054688-.419998168945312-.75-3.220001220703125-.490005493164062-4.759994506835938,2.1199951171875-12.270004272460938,2.339996337890625-24.69000244140625,3.3800048828125-37.050003051757812.490005493164062-5.819999694824219,1.169998168945312-11.629997253417969,3.240005493164062-17.209999084472656h-.000015258789062Z"/>
  <path class="cls-1" d="M615.837406047152399,560.706450879773911c2.1400146484375.09002685546875,3.08001708984375,1.66998291015625,4.0999755859375,2.8499755859375,8.57000732421875,9.8499755859375,18.6099853515625,18.0999755859375,28.489990234375,26.530029296875,2.9000244140625,2.47998046875,5.96002197265625,4.91998291015625,7.02001953125,8.8800048828125.28997802734375,1.0999755859375.760009765625,2.40997314453125-.47998046875,3.16998291015625-1.010009765625.6099853515625-1.96002197265625-.1400146484375-2.6300048828125-.8699951171875-11.69000244140625-12.77001953125-25.53997802734375-23.46002197265625-36-37.40997314453125-.6099853515625-.80999755859375-1.0999755859375-1.66998291015625-.5-3.1400146484375v-.010009765625Z"/>
  <path class="cls-1" d="M567.357425578402399,330.006438672742661c.07000732421875,2.029998779296875-.27001953125,2.959991455078125-1.3699951171875,3.32000732421875-1.1300048828125.3699951171875-1.94000244140625-.260009765625-2.489990234375-1.160003662109375-.70001220703125-1.1300048828125-1.4000244140625-2.269989013671875-1.91998291015625-3.489990234375-4.75-11.089996337890625-11.6500244140625-20.489990234375-21.55999755859375-27.54998779296875-1.15997314453125-.82000732421875-3.17999267578125-1.8699951171875-2.219970703125-3.3800048828125,1.1099853515625-1.75,3.05999755859375-.42999267578125,4.45001220703125.3699951171875,9.67999267578125,5.540008544921875,16.989990234375,13.279998779296875,21.489990234375,23.57000732421875,1.33001708984375,3.040008544921875,2.65997314453125,6.079986572265625,3.6400146484375,8.30999755859375l-.02008056640625.009979248046875Z"/>
  <path class="cls-1" d="M600.667423136996149,506.796416700086411c.21002197265625-2.489990234375-.16998291015625-4.72998046875,2.08001708984375-5.780029296875,2.15997314453125-1.010009765625,4.20001220703125-.33001708984375,6.1199951171875.90997314453125,5.29998779296875,3.42999267578125,7.17999267578125,11.04998779296875,3.9000244140625,16.4000244140625-1.9000244140625,3.09002685546875-4.489990234375,2.83001708984375-6.6099853515625.47998046875-3.17999267578125-3.510009765625-5.0999755859375-7.719970703125-5.489990234375-12.02001953125l-.00006103515625.01007080078125ZM608.057437785433649,509.336394727430161c-.280029296875-.66998291015625-.5999755859375-1.70001220703125-1.739990234375-1.78997802734375-1.07000732421875-.09002685546875-1.3499755859375.75-1.17999267578125,1.6300048828125.19000244140625,1,.70001220703125,1.8900146484375,1.8900146484375,1.83001708984375.739990234375-.03997802734375,1.05999755859375-.6500244140625,1.030029296875-1.65997314453125l-.00006103515625-.01007080078125Z"/>
  <path class="cls-1" d="M649.247440226839899,568.096404493055161c.8900146484375.53997802734375,1.82000732421875.95001220703125,2.57000732421875,1.58001708984375,7.19000244140625,5.9000244140625,14.280029296875,11.92999267578125,20.67999267578125,18.71002197265625.8599853515625.90997314453125,2.3800048828125,2.07000732421875,1.469970703125,3.3599853515625-1.22998046875,1.75-2.78997802734375.239990234375-3.8699951171875-.54998779296875-8.07000732421875-5.91998291015625-14.9000244140625-13.19000244140625-21.8599853515625-20.33001708984375-.5999755859375-.6199951171875-.96002197265625-1.44000244140625-.34002685546875-2.219970703125.25-.32000732421875.84002685546875-.3599853515625,1.34002685546875-.54998779296875l.010009765625-.00006103515625Z"/>
  <path class="cls-1" d="M327.557437785433649,111.556426465711411c1.350006103515625-.82000732421875,2.350006103515625-.410003662109375,3.220001220703125.029998779296875,8.3699951171875,4.19000244140625,16.739990234375,8.389999389648438,25.04998779296875,12.699996948242188,1.1300048828125.589996337890625,3.1400146484375,1.479995727539062,2.07000732421875,3.089996337890625-.80999755859375,1.220001220703125-2.3800048828125-.1300048828125-3.420013427734375-.759994506835938-7.1400146484375-4.389999389648438-14.70001220703125-7.910003662109375-22.3699951171875-11.229995727539062-1.769989013671875-.770004272460938-3.82000732421875-1.410003662109375-4.540008544921875-3.830001831054688h-.009979248046875Z"/>
  <path class="cls-1" d="M387.017429240511774,182.746428907117661c-.760009765625,1.330001831054688-2.089996337890625,1.17999267578125-3.04998779296875.720001220703125-8.82000732421875-4.259994506835938-18.269989013671875-7.100006103515625-26.779998779296875-12-1.040008544921875-.600006103515625-2.920013427734375-1.350006103515625-2.160003662109375-2.850006103515625.8699951171875-1.740005493164062,2.670013427734375-.740005493164062,3.959991455078125-.149993896484375,9.3599853515625,4.240005493164062,18.1300048828125,9.69000244140625,27.75,13.399993896484375.17999267578125.07000732421875.19000244140625.57000732421875.290008544921875.889999389648438l-.010009765625-.009994506835938Z"/>
  <path class="cls-1" d="M369.377414592074274,192.016417920789536c6.290008544921875,1.899993896484375,12.040008544921875,3.6099853515625,17.769989013671875,5.3900146484375.779998779296875.239990234375,1.489990234375.850006103515625,1.3599853515625,1.850006103515625-.1099853515625.8699951171875-.910003662109375,1.079986572265625-1.510009765625.850006103515625-5.600006103515625-2.1099853515625-12.05999755859375-1.149993896484375-17.20001220703125-4.829986572265625-.790008544921875-.55999755859375-1.720001220703125-1.20001220703125-1.42999267578125-2.399993896484375.19000244140625-.789993286132812.8900146484375-.8800048828125,1.010009765625-.860000610351562l.000030517578125-.000045776367188Z"/>
  <path class="cls-1" d="M621.047428019808649,532.896453321180161c-.0999755859375,1.489990234375-.21002197265625,2.80999755859375-1.79998779296875,2.719970703125-1.58001708984375-.09002685546875-2.27001953125-1.219970703125-2.1199951171875-2.760009765625.1199951171875-1.219970703125.6099853515625-2.4000244140625,1.969970703125-2.489990234375,2.010009765625-.1300048828125,1.5999755859375,1.6500244140625,1.94000244140625,2.530029296875h.010009765625Z"/>
  <path class="cls-1" d="M631.157413371371149,548.116424024305161c.03997802734375.96002197265625-.469970703125,1.489990234375-1.3699951171875,1.58001708984375-.94000244140625.09002685546875-1.6099853515625-.5-1.5999755859375-1.3499755859375,0-.45001220703125.65997314453125-1.1199951171875,1.1500244140625-1.27001953125.79998779296875-.25,1.55999755859375.08001708984375,1.82000732421875,1.03997802734375h-.00006103515625Z"/>
  <path class="cls-1" d="M249.257419474886774,614.176421582898911c-6.829986572265625-.55999755859375-13.829986572265625-3.40997314453125-21.100006103515625-5.0999755859375-1.730010986328125-.4000244140625-3.04998779296875-1.65997314453125-2.480010986328125-3.67999267578125.6199951171875-2.21002197265625,2.54998779296875-1.91998291015625,4.1400146484375-1.530029296875,7.420013427734375,1.82000732421875,14.760009765625,3.92999267578125,22.339996337890625,5.1099853515625,1.899993896484375.28997802734375,4.459991455078125.79998779296875,3.95001220703125,3.47998046875-.45001220703125,2.3800048828125-2.920013427734375,1.530029296875-4.6400146484375,1.71002197265625-.489990234375.04998779296875-1,0-2.209991455078125,0v.010009765625Z"/>
  <path class="cls-1" d="M275.197421916293024,398.506438672742661c.32000732421875,3.3800048828125-1.17999267578125,5.029998779296875-2.529998779296875,6.660003662109375-6.70001220703125,8.089996337890625-13.410003662109375,16.170013427734375-20.25,24.149993896484375-3.279998779296875,3.829986572265625-5.8599853515625,8.089996337890625-8.3800048828125,12.420013427734375-.660003662109375,1.1400146484375-1.589996337890625,2.1400146484375-2.519989013671875,3.089996337890625-.79998779296875.82000732421875-1.910003662109375,1.920013427734375-3.010009765625,1.029998779296875-1.5-1.230010986328125,0-2.29998779296875.670013427734375-3.3800048828125,8.19000244140625-13.260009765625,19.3699951171875-24.100006103515625,29.1199951171875-36.100006103515625,2.040008544921875-2.510009765625,3.459991455078125-5.6400146484375,6.8800048828125-7.8599853515625l.019989013671875-.010009765625Z"/>
  <path class="cls-1" d="M305.207431681918024,401.636413037977036c2.589996337890625-1.8800048828125,4.459991455078125-1.470001220703125,6.100006103515625-.839996337890625,7.709991455078125,2.910003662109375,15.839996337890625,3.720001220703125,23.8800048828125,5.029998779296875,1.6300048828125.269989013671875,4.220001220703125-.04998779296875,3.920013427734375,2.649993896484375-.25,2.230010986328125-2.519989013671875,1.839996337890625-4.079986572265625,1.79998779296875-10.45001220703125-.269989013671875-20.279998779296875-2.6400146484375-29.82000732421875-8.6400146484375l-.000030517578125.000030517578125Z"/>
  <path class="cls-1" d="M274.967410929964899,412.386413037977036c1.69000244140625,3.42999267578125.329986572265625,5.75-1.220001220703125,7.470001220703125-10.42999267578125,11.540008544921875-18.44000244140625,24.959991455078125-28.610015869140625,36.69000244140625-.970001220703125,1.1199951171875-1.8699951171875,3.719970703125-3.670013427734375,2.17999267578125-1.510009765625-1.28997802734375.5-2.989990234375,1.470001220703125-4.20001220703125,8.20001220703125-10.30999755859375,16.459991455078125-20.579986572265625,24.739990234375-30.829986572265625,2.70001220703125-3.339996337890625,4.8800048828125-7.040008544921875,7.29998779296875-11.30999755859375h-.00994873046875Z"/>
  <path class="cls-1" d="M204.157413371371149,702.326445996961411c-.579986572265625,0-.920013427734375.03997802734375-1.25,0-2.5-.34002685546875-6.57000732421875.6300048828125-6.6300048828125-2.5-.04998779296875-2.58001708984375,3.8800048828125-1.219970703125,6.010009765625-1.3499755859375,4.399993896484375-.27001953125,8.420013427734375-1.97998046875,12.670013427734375-2.77001953125,1.519989013671875-.280029296875,3.720001220703125-1.58001708984375,4.410003662109375.46002197265625.779998779296875,2.28997802734375-1.739990234375,2.8499755859375-3.3599853515625,3.489990234375-3.8900146484375,1.52001953125-7.82000732421875,2.92999267578125-11.8599853515625,2.67999267578125l.00994873046875-.010009765625Z"/>
  <path class="cls-1" d="M271.697421916293024,433.066436231336411c-7.75,10.399993896484375-11.239990234375,23.469970703125-20.839996337890625,33.20001220703125-.20001220703125-4.17999267578125,15.1099853515625-29.230010986328125,20.839996337890625-33.20001220703125Z"/>
  <path class="cls-1" d="M445.027408488558649,312.836425245008286c-.8900146484375-.209991455078125-1.78997802734375-.079986572265625-2.15997314453125-1.079986572265625-.3499755859375-.970001220703125.3800048828125-1.519989013671875,1.02001953125-2.040008544921875,1.94000244140625-1.589996337890625,4.30999755859375-1.470001220703125,6.6199951171875-1.75,4.1199951171875-.489990234375,8.25-.970001220703125,12.219970703125-2.30999755859375,1.30999755859375-.44000244140625,3.33001708984375-1.3699951171875,4.010009765625.329986572265625.71002197265625,1.779998779296875-1.3699951171875,2.55999755859375-2.70001220703125,2.8599853515625-6.30999755859375,1.44000244140625-12.66998291015625,2.67999267578125-19.010009765625,3.989990234375v.000030517578125Z"/>
  <path class="cls-1" d="M238.527408488558649,591.926421582898911c5.470001220703125.40997314453125,10.660003662109375,1.42999267578125,15.279998779296875,4.32000732421875.94000244140625.59002685546875,2.260009765625,1.34002685546875,1.649993896484375,2.69000244140625-.649993896484375,1.41998291015625-1.989990234375.65997314453125-3.05999755859375.3499755859375-4.769989013671875-1.3800048828125-9.540008544921875-2.78997802734375-14.30999755859375-4.17999267578125-1.3599853515625-.4000244140625-3.760009765625-.0999755859375-3.579986572265625-1.8499755859375.230010986328125-2.280029296875,2.670013427734375-1.010009765625,4.019989013671875-1.34002685546875v.010009765625Z"/>
  <path class="cls-1" d="M359.977420695589899,406.296416700086411c-.339996337890625-.029998779296875-1.5-.040008544921875-2.6300048828125-.230010986328125-.8699951171875-.149993896484375-1.42999267578125-.769989013671875-1.55999755859375-1.67999267578125-.1400146484375-1.010009765625.5-1.55999755859375,1.29998779296875-1.82000732421875,2.970001220703125-.959991455078125,5.899993896484375-2.149993896484375,9.100006103515625-2.100006103515625,1.32000732421875.019989013671875,2.82000732421875-.029998779296875,3.100006103515625,1.70001220703125.220001220703125,1.329986572265625-.850006103515625,2.1199951171875-1.82000732421875,2.70001220703125-2.040008544921875,1.220001220703125-4.350006103515625,1.45001220703125-7.489990234375,1.42999267578125Z"/>
  <path class="cls-1" d="M239.327426799105524,691.136443555555161c-.6300048828125-.05999755859375-1.839996337890625.45001220703125-2.239990234375-.8800048828125-.279998779296875-.94000244140625.480010986328125-1.54998779296875,1.160003662109375-2.010009765625,3.239990234375-2.219970703125,6.920013427734375-3.28997802734375,10.739990234375-3.90997314453125.989990234375-.15997314453125,2.1099853515625-.03997802734375,2.5,1.1300048828125.410003662109375,1.219970703125-.489990234375,1.84002685546875-1.420013427734375,2.280029296875-3.329986572265625,1.5999755859375-6.720001220703125,2.989990234375-10.75,3.3900146484375l.010009765625-.00006103515625Z"/>
  <path class="cls-1" d="M455.307437785433649,358.796416700086411c-5.32000732421875,1.160003662109375-7.1400146484375-1.980010986328125-9.0999755859375-4.8699951171875-.58001708984375-.8599853515625-.9000244140625-1.8599853515625.1300048828125-2.6300048828125.95001220703125-.709991455078125,1.90997314453125-.30999755859375,2.70001220703125.3599853515625,2.3599853515625,2,4.57000732421875,4.1300048828125,6.260009765625,7.149993896484375l.00994873046875-.009979248046875Z"/>
  <path class="cls-1" d="M465.997440226839899,358.666411817273911c2.28997802734375.8699951171875,5.530029296875.94000244140625,6.55999755859375,3.980010986328125.45001220703125,1.339996337890625-1.239990234375,2.410003662109375-2.65997314453125,2.040008544921875-2.71002197265625-.709991455078125-5.4000244140625-1.850006103515625-6.33001708984375-4.769989013671875-.34002685546875-1.07000732421875,1.1199951171875-1.339996337890625,2.42999267578125-1.25v-.000030517578125Z"/>
  <path class="cls-1" d="M386.357425578402399,393.716430127820786c-1.82000732421875.019989013671875-2.589996337890625-.720001220703125-1.760009765625-2.1400146484375.55999755859375-.959991455078125,1.489990234375-1.8800048828125,2.480010986328125-2.3599853515625,2.1199951171875-1.029998779296875,4.959991455078125-4.600006103515625,6.079986572265625-2.790008544921875,1.730010986328125,2.779998779296875-2.339996337890625,4.350006103515625-4.339996337890625,6.089996337890625-.720001220703125.6199951171875-1.760009765625.8699951171875-2.45001220703125,1.20001220703125h-.009979248046875Z"/>
  <path class="cls-1" d="M347.017429240511774,653.366424024305161c-1.45001220703125-.19000244140625-2.040008544921875-.92999267578125-1.55999755859375-2.09002685546875.3699951171875-.9000244140625.959991455078125-1.78997802734375,1.670013427734375-2.45001220703125,1.649993896484375-1.54998779296875,3.05999755859375-3.71002197265625,5.660003662109375-3.53997802734375.8900146484375.05999755859375.79998779296875,1.280029296875.420013427734375,2.0999755859375-1.29998779296875,2.8699951171875-3.6099853515625,4.66998291015625-6.20001220703125,5.97998046875l.009979248046875.00006103515625Z"/>
  <path class="cls-1" d="M487.067447551058649,461.966399610242661c-1.5999755859375-.1199951171875-1.97998046875-1.1300048828125-1.8800048828125-2.41998291015625.1400146484375-1.989990234375,1.41998291015625-2.95001220703125,3.25-3.15997314453125,1.260009765625-.1400146484375,2.55999755859375.28997802734375,2.21002197265625,1.8499755859375-.41998291015625,1.8599853515625-1.71002197265625,3.16998291015625-3.57000732421875,3.719970703125l-.010009765625.010009765625Z"/>
  <path class="cls-1" d="M492.427432902621149,364.536437452039536c-.34002685546875,1.600006103515625-1.57000732421875,1.6400146484375-2.719970703125,1.489990234375-1.83001708984375-.25-4.07000732421875-.760009765625-4.21002197265625-2.75-.1199951171875-1.80999755859375,1.96002197265625-1.20001220703125,3.15997314453125-1.100006103515625,1.6199951171875.1400146484375,3.41998291015625.19000244140625,3.760009765625,2.3699951171875l.010009765625-.009979248046875Z"/>
  <path class="cls-1" d="M405.707431681918024,377.086425245008286c-.510009765625,1.42999267578125-1.350006103515625,2.720001220703125-3.029998779296875,2.829986572265625-1.329986572265625.089996337890625-2.30999755859375-.709991455078125-1.959991455078125-2.170013427734375.3800048828125-1.6199951171875,1.670013427734375-2.44000244140625,3.269989013671875-2.589996337890625,1.269989013671875-.1199951171875,1.739990234375.69000244140625,1.720001220703125,1.920013427734375v.010009765625Z"/>
  <path class="cls-1" d="M331.777408488558649,662.916411817273911c-1.290008544921875.1099853515625-2.1400146484375-.29998779296875-2.170013427734375-1.530029296875-.04998779296875-1.530029296875.8699951171875-2.45001220703125,2.29998779296875-2.71002197265625,1.279998779296875-.22998046875,2.410003662109375.219970703125,2.290008544921875,1.72998046875-.1099853515625,1.45001220703125-1.1300048828125,2.280029296875-2.420013427734375,2.510009765625l.000030517578125.00006103515625Z"/>
  <path class="cls-1" d="M504.437442668246149,362.346435010633286c.96002197265625.149993896484375,2.260009765625.089996337890625,2.030029296875,1.519989013671875-.17999267578125,1.1300048828125-1.3499755859375,1.3800048828125-2.3800048828125,1.3900146484375-1.08001708984375,0-2.0999755859375-.44000244140625-1.989990234375-1.670013427734375.1199951171875-1.3599853515625,1.3599853515625-1.19000244140625,2.34002685546875-1.239990234375h-.00006103515625Z"/>
  <path class="cls-1" d="M528.657413371371149,617.896453321180161c-.04998779296875-1.3699951171875-.260009765625-2.3900146484375.6300048828125-2.760009765625,1.17999267578125-.489990234375,1.79998779296875.530029296875,2.32000732421875,1.3800048828125,2.20001220703125,3.59002685546875,3.30999755859375,7.6400146484375,4.80999755859375,11.530029296875,2.6500244140625,6.8499755859375,4.20001220703125,14.08001708984375,7.3599853515625,20.75.70001220703125,1.489990234375,1.3599853515625,3.57000732421875-.739990234375,4.29998779296875-1.92999267578125.67999267578125-2.28997802734375-1.3900146484375-2.78997802734375-2.760009765625-3.55999755859375-9.70001220703125-7.1099853515625-19.40997314453125-10.6400146484375-29.1300048828125-.45001220703125-1.25-.72998046875-2.55999755859375-.95001220703125-3.33001708984375v.02001953125Z"/>
  <path class="cls-1" d="M558.417423136996149,642.716399610242661c-4.21002197265625-1.33001708984375-4.82000732421875-3.530029296875-5.72998046875-5.42999267578125-2.69000244140625-5.6199951171875-4.21002197265625-11.6099853515625-5.42999267578125-17.67999267578125-.219970703125-1.0999755859375-.45001220703125-2.46002197265625.9000244140625-3.09002685546875.94000244140625-.44000244140625,1.70001220703125.33001708984375,1.92999267578125,1.09002685546875,2.3800048828125,8.05999755859375,4.29998779296875,16.260009765625,8.33001708984375,25.0999755859375l-.00006103515625.010009765625Z"/>
  <path class="cls-1" d="M427.027408488558649,581.206450879773911c.21002197265625,8.66998291015625-2.1300048828125,16.760009765625-5.78997802734375,24.510009765625-.5999755859375,1.27001953125-1.28997802734375,3.22998046875-3.1400146484375,2.47998046875-1.96002197265625-.78997802734375-.780029296875-2.5999755859375-.3900146484375-3.91998291015625,2.82000732421875-9.59002685546875,5.52001953125-19.19000244140625,5.3599853515625-29.32000732421875-.02001953125-1.27001953125-.07000732421875-3,1.77001953125-3.02001953125,2.05999755859375-.02001953125,2.1099853515625,1.78997802734375,2.16998291015625,3.280029296875.08001708984375,1.989990234375.02001953125,3.989990234375.02001953125,5.989990234375Z"/>
  <path class="cls-1" d="M434.257449992464899,593.516448438367661c1.19000244140625-10.780029296875,3.969970703125-20.52001953125,4.55999755859375-31.75,5.1199951171875,6.77001953125,2.04998779296875,25.90997314453125-4.55999755859375,31.75Z"/>
  <path class="cls-1" d="M374.407413371371149,365.676421582898911c-2.329986572265625-1.67999267578125-3.980010986328125-2.75-5.480010986328125-3.989990234375-.839996337890625-.69000244140625-2.3599853515625-1.45001220703125-1.670013427734375-2.730010986328125.79998779296875-1.459991455078125,2.3599853515625-.649993896484375,3.600006103515625-.30999755859375.6300048828125.17999267578125,1.260009765625.480010986328125,1.79998779296875.850006103515625,3.67999267578125,2.459991455078125,7.55999755859375,4.089996337890625,12.149993896484375,3.8599853515625,2.839996337890625-.149993896484375,3.589996337890625,1.290008544921875,1.95001220703125,3.790008544921875-2.6199951171875,4-5.730010986328125,6.420013427734375-11.05999755859375,6.1099853515625-14.260009765625-.829986572265625-27.350006103515625-5.6099853515625-40.29998779296875-11-1.04998779296875-.44000244140625-2.010009765625-1.19000244140625-2.8699951171875-1.959991455078125-.8699951171875-.790008544921875-1.709991455078125-1.8699951171875-.980010986328125-3.07000732421875.779998779296875-1.279998779296875,2.040008544921875-.6300048828125,3.149993896484375-.32000732421875,9.459991455078125,2.67999267578125,18.910003662109375,5.410003662109375,28.3900146484375,7.989990234375,3.329986572265625.910003662109375,6.709991455078125,2.019989013671875,11.30999755859375.779998779296875l.010009765625.000030517578125Z"/>
  <path class="cls-1" d="M379.767429240511774,346.856414258680161c3.290008544921875,1.239990234375,6,3.1099853515625,8,5.79998779296875.82000732421875,1.1099853515625.470001220703125,2.6300048828125-1.230010986328125,2.100006103515625-3.17999267578125-.989990234375-5.80999755859375-3.089996337890625-7.92999267578125-5.6400146484375-.94000244140625-1.1300048828125-.32000732421875-2.1199951171875,1.170013427734375-2.269989013671875l-.010009765625.010009765625Z"/>
  <path class="cls-1" d="M22.447421916293024,78.586425245008286c-.550003051757812,1.800003051757812-1.080001831054688,3.600006103515625-1.569999694824219,5.410003662109375-.069999694824219.270004272460938-.139999389648438.550003051757812-.209999084472656.82000732421875.069999694824219.139999389648438.139999389648438.279998779296875.220001220703125.399993896484375,7.32000732421875,12.19000244140625,15.710006713867188,23.660003662109375,23.720001220703125,35.389999389648438,6.8699951171875,10.069992065429688,14.5,19.6300048828125,20.5,30.279998779296875,9.600006103515625,17.050003051757812,17.94000244140625,34.699996948242188,25.610000610351562,52.699996948242188,11.069992065429688,25.980010986328125,23.30999755859375,51.399993896484375,36.210006713867188,76.540008544921875,11.800003051757812,23.019989013671875,23.899993896484375,45.959991455078125,32.519989013671875,70.470001220703125,5.149993896484375,14.649993896484375,10.6400146484375,29.17999267578125,15.3900146484375,43.980010986328125,4.04998779296875,12.6199951171875,6.32000732421875,25.6099853515625,9.339996337890625,38.44000244140625,1.1400146484375,4.850006103515625.989990234375,9.17999267578125-1.279998779296875,13.55999755859375-3.160003662109375,6.1099853515625-4.05999755859375,12.6400146484375-3.600006103515625,19.46002197265625.44000244140625,6.54998779296875,3.6300048828125,10.92999267578125,9.670013427734375,13.34002685546875,3.1300048828125,1.25,6.3800048828125,1.8900146484375,9.709991455078125,2.3699951171875,9.420013427734375,1.3599853515625,18.239990234375-1.33001708984375,27.089996337890625-3.80999755859375,3.970001220703125-1.1099853515625,5.44000244140625.04998779296875,5.32000732421875,4.260009765625-.480010986328125,16.5999755859375-3.329986572265625,32.8800048828125-5.95001220703125,49.21002197265625-3.850006103515625,23.92999267578125-8.8900146484375,47.59002685546875-14.82000732421875,71.09002685546875-1.80999755859375,7.15997314453125-4.989990234375,12.29998779296875-12.3900146484375,14.94000244140625-9.739990234375,3.47998046875-19.290008544921875,7.57000732421875-28.720001220703125,11.8699951171875-28.589996337890625,13.030029296875-57.3800048828125,25.58001708984375-86.790008544921875,36.6500244140625-5.479995727539062,2.05999755859375-10.92999267578125,4.19000244140625-15.990005493164062,7.1500244140625-10.94000244140625,6.3800048828125-13.259994506835938,16.71002197265625-6.07000732421875,27.17999267578125,1.479995727539062,2.15997314453125,2.410003662109375,4.41998291015625,2.449996948242188,6.969970703125.07000732421875,4.719970703125,1.889999389648438,8.75,4.460006713867188,12.55999755859375.789993286132812,1.17999267578125,2.6300048828125,2.33001708984375,1.600006103515625,3.8499755859375-.970001220703125,1.42999267578125-2.779998779296875.41998291015625-4.220001220703125.19000244140625-13.720001220703125-2.19000244140625-27.550003051757812-2.9000244140625-41.400001525878906-3.489990234375-4.900001525878906-.21002197265625-8.680000305175781,1.469970703125-11.040000915527344,5.41998291015625-2.230003356933594,3.739990234375-4.739997863769531,6.22998046875-9.349998474121094,6.22998046875-1.220001220703125,0-3.150001525878906.30999755859375-2.819999694824219,3.27001953125,12.129997253417969,0,24.270004272460938.02001953125,36.410003662109375-.03997802734375.94000244140625,0,2.05999755859375-.4000244140625,2.770004272460938-.989990234375,2.699996948242188-2.239990234375,5.830001831054688-2.28997802734375,9.039993286132812-2.03997802734375,8,.6400146484375,16,1.41998291015625,24.020004272460938.94000244140625,4.910003662109375-.29998779296875,10.1300048828125.16998291015625,13.789993286132812-4.40997314453125.970001220703125-1.21002197265625,2.669998168945312-1.20001220703125,4.220001220703125-1.09002685546875,42.389999389648438,2.95001220703125,84.459991455078125-.969970703125,126.410003662109375-6.280029296875,16.54998779296875-2.0999755859375,32.92999267578125-5.55999755859375,49.3900146484375-8.44000244140625,3.980010986328125-.70001220703125,8.019989013671875-1.40997314453125,11.8800048828125.0999755859375,6.980010986328125,2.739990234375,14.19000244140625,3.77001953125,21.6199951171875,3.44000244140625,2.089996337890625-.09002685546875,4.3800048828125,1.46002197265625,6.769989013671875-.5999755859375-4.100006103515625-2.91998291015625-8.3800048828125-3.19000244140625-12.70001220703125-3.469970703125-2.029998779296875-.1400146484375-5.6199951171875.8900146484375-5.6199951171875-1.489990234375,0-3.04998779296875,3.730010986328125-2.3900146484375,6.100006103515625-2.67999267578125.82000732421875-.0999755859375,1.67999267578125.1300048828125,2.5.03997802734375,10.399993896484375-1.05999755859375,20.07000732421875,2.6400146484375,30.029998779296875,4.5,6.19000244140625,1.15997314453125,12.470001220703125,1.8499755859375,19.5,2.8699951171875-1.850006103515625-3.3599853515625-4.160003662109375-3.5999755859375-6.20001220703125-4-6.3900146484375-1.260009765625-12.82000732421875-2.280029296875-19.220001220703125-3.44000244140625-1.8800048828125-.34002685546875-3.55999755859375-1.010009765625-1.42999267578125-3.15997314453125,4.25-4.27001953125,16.010009765625-6.5,21.6300048828125-3.66998291015625,5.489990234375,2.760009765625,11.269989013671875,4.16998291015625,17.25,4.91998291015625,1.57000732421875.20001220703125,4.269989013671875,1.780029296875,4.589996337890625-.75.230010986328125-1.84002685546875-2.720001220703125-2.030029296875-4.480010986328125-2.19000244140625-4.910003662109375-.45001220703125-9.44000244140625-2.0999755859375-13.920013427734375-3.969970703125-1.410003662109375-.59002685546875-2.959991455078125-1.32000732421875-2.980010986328125-3.030029296875-.019989013671875-2.1500244140625,2.010009765625-2.489990234375,3.540008544921875-2.94000244140625,4.660003662109375-1.3800048828125,9.260009765625-.5999755859375,13.839996337890625.5999755859375,9.95001220703125,2.5999755859375,20.05999755859375,3.6400146484375,30.269989013671875,2.1199951171875,4.010009765625-.5999755859375,7.8900146484375-.8800048828125,11.92999267578125-.219970703125,2.75.45001220703125,6.720001220703125,1.75,8.220001220703125-.17999267578125,3.57000732421875-4.6099853515625,8.6300048828125-3.57000732421875,13.02001953125-4.9000244140625,7.4000244140625-2.22998046875,14.9000244140625-.83001708984375,22.3599853515625-.1199951171875,1.07000732421875.0999755859375,2.67999267578125.1400146484375,2.69000244140625,1.6400146484375,0,.760009765625-.969970703125,1.65997314453125-1.69000244140625,2.280029296875-2.4000244140625,2.07000732421875-4.96002197265625,3.95001220703125-7.30999755859375,6.07000732421875-1.0999755859375.989990234375-2.09002685546875,2.4000244140625-1.3499755859375,4.010009765625.780029296875,1.70001220703125,2.46002197265625,1.5,3.96002197265625,1.280029296875,12.22998046875-1.760009765625,24.55999755859375-3,36.6500244140625-5.46002197265625,20.94000244140625-4.260009765625,41.72998046875-9.22998046875,62.55999755859375-14,10.260009765625-2.3499755859375,20.53997802734375-4.66998291015625,30.17999267578125-9.05999755859375,4.67999267578125-2.1300048828125,5.010009765625-3.54998779296875,1.4000244140625-7.260009765625-2.32000732421875-2.3900146484375-4.96002197265625-4.469970703125-7.47998046875-6.6500244140625-1.21002197265625-1.04998779296875-3.42999267578125-1.67999267578125-2.80999755859375-3.6500244140625.55999755859375-1.760009765625,2.760009765625-1.47998046875,4.3499755859375-1.8499755859375,14.6500244140625-3.42999267578125,29.55999755859375-5.42999267578125,44.3599853515625-8,3.25-.57000732421875,7.46002197265625-1.510009765625,8.04998779296875-4.77001953125.58001708984375-3.15997314453125-3.84002685546875-3.41998291015625-6.219970703125-4.719970703125-1-.54998779296875-2.52001953125-.9000244140625-2.25-2.28997802734375.28997802734375-1.46002197265625,1.8599853515625-1.1099853515625,2.969970703125-1.1300048828125,15.3699951171875-.3599853515625,30.739990234375-.71002197265625,46.1099853515625-1.030029296875,2.510009765625-.04998779296875,5.02001953125.09002685546875,7.42999267578125.92999267578125,1.46002197265625.510009765625,3.030029296875,1.1500244140625,2.82000732421875,3-.22998046875,2.04998779296875-2.05999755859375,1.8900146484375-3.53997802734375,1.8499755859375-1.33001708984375-.03997802734375-2.6500244140625-.3900146484375-3.97998046875-.47998046875-4.65997314453125-.34002685546875-9.3599853515625-.92999267578125-13.92999267578125.489990234375-1.27001953125.4000244140625-3.46002197265625.77001953125-2.719970703125,2.78997802734375.58001708984375,1.59002685546875,2.33001708984375.77001953125,3.55999755859375.3900146484375,7.510009765625-2.34002685546875,15.41998291015625-1.489990234375,22.22998046875.78997802734375,10.33001708984375,3.46002197265625,19.780029296875-.97998046875,29.6199951171875-.6199951171875,1.530029296875.05999755859375,3.030029296875-1.54998779296875,1.219970703125-2.44000244140625-6.27001953125-3.08001708984375-10.739990234375-10.42999267578125-19.40997314453125-8.08001708984375-5.4000244140625,1.469970703125-10.22998046875-.59002685546875-14.5-3.8900146484375-4.09002685546875-3.16998291015625-8.1300048828125-6.42999267578125-12.1099853515625-9.72998046875-29.6199951171875-24.55999755859375-51.1400146484375-55.15997314453125-67.80999755859375-89.6199951171875-11.57000732421875-23.92999267578125-20.79998779296875-48.90997314453125-33.25-72.41998291015625-3.66998291015625-6.94000244140625-7.15997314453125-13.980010986328125-10.8499755859375-20.910003662109375-1.280029296875-2.410003662109375-.96002197265625-4.540008544921875.58001708984375-6.529998779296875,1.17999267578125-1.529998779296875,2.71002197265625-1.040008544921875,4.02001953125-.1099853515625,10.1199951171875,7.209991455078125,20.08001708984375,14.54998779296875,25.260009765625,26.489990234375,3.8699951171875,8.91998291015625,10.44000244140625,16.280029296875,14.54998779296875,25.09002685546875,1.3800048828125,2.96002197265625,4.04998779296875,4.59002685546875,7.469970703125,3.510009765625,3.22998046875-1.02001953125,3.19000244140625-4.05999755859375,3.28997802734375-6.65997314453125.27001953125-6.94000244140625-1.75-13.08001708984375-6.4000244140625-18.44000244140625-4.78997802734375-5.510009765625-10.4000244140625-10.6099853515625-11.489990234375-18.42999267578125-.5999755859375-4.290008544921875-2.3800048828125-7.959991455078125-5.17999267578125-11.209991455078125-3.21002197265625-3.730010986328125-5.52001953125-7.8599853515625-6.6300048828125-12.75-.83001708984375-3.649993896484375-2.78997802734375-6.8699951171875-6.0999755859375-8.8800048828125-4.27001953125-2.589996337890625-4.55999755859375-6.25-3.07000732421875-10.42999267578125.84002685546875-2.3599853515625,1.9000244140625-4.6400146484375,2.8499755859375-6.959991455078125,2.17999267578125-5.3599853515625,2.57000732421875-10.709991455078125-.34002685546875-15.95001220703125-1.70001220703125-3.07000732421875-3.19000244140625-6.32000732421875-5.30999755859375-9.079986572265625-4.6400146484375-6.040008544921875-8.8800048828125-12.75-17.8900146484375-13.029998779296875-2.8699951171875-.089996337890625-4.04998779296875-2.69000244140625-5.04998779296875-5.029998779296875-7.780029296875-18.19000244140625-19.989990234375-32.959991455078125-34.6099853515625-46.079986572265625-16.71002197265625-14.989990234375-35.66998291015625-25.170013427734375-57.9000244140625-28.94000244140625-8.8900146484375-1.510009765625-8.8800048828125-1.480010986328125-5.030029296875-9.55999755859375,13.1199951171875-27.57000732421875,22.6400146484375-56.410003662109375,30.260009765625-85.910003662109375,1.16998291015625-4.550003051757812,2-9.169998168945312,1.15997314453125-13.889999389648438-.739990234375-4.169998168945312-2.530029296875-7.199996948242188-7.510009765625-7.020004272460938-3.219970703125.1199951171875-5.6500244140625-1.539993286132812-7.6300048828125-4.089996337890625-6.1500244140625-7.919998168945312-12.6500244140625-15.580001831054688-18.55999755859375-23.669998168945312-25.8699951171875-35.419998168945312-48.1300048828125-73.110000610351562-69.399993896484375-111.400001525878906-2.920013427734375-5.260002136230469-5.8900146484375-10.489997863769531-8.94000244140625-15.669998168945312-.959991455078125-1.620002746582031-2.160003662109375-4.489997863769531-4.1400146484375-3.240001678466797-1.8900146484375,1.189998626708984.20001220703125,3.590000152587891,1.040008544921875,5.310001373291016.79998779296875,1.650001525878906,1.779998779296875,3.220001220703125,2.67999267578125,4.819999694824219,19.529998779296875,34.620002746582031,38.339996337890625,69.650001525878906,60.52996826171875,102.719993591308594,10.34002685546875,15.399993896484375,20.54998779296875,30.8699951171875,32.05999755859375,45.449996948242188,2.97998046875,3.770004272460938,5.739990234375,7.399993896484375,11.57000732421875,5.449996948242188,2.6400146484375-.889999389648438,3.69000244140625.830001831054688,3.67999267578125,3.69000244140625-.04998779296875,9.210006713867188-2.96002197265625,17.729995727539062-5.69000244140625,26.339996337890625-7.030029296875,22.160003662109375-15.47998046875,43.779998779296875-24.3699951171875,65.230010986328125-1.510009765625,3.649993896484375-2.82000732421875,7.67999267578125-7.42999267578125,8.82000732421875-1.59002685546875.3900146484375-3.42999267578125,1.269989013671875-4.3499755859375-.8699951171875-.77001953125-1.790008544921875.28997802734375-3.1199951171875,1.719970703125-4.269989013671875,6.969970703125-5.6400146484375,7.3599853515625-9.720001220703125,1.09002685546875-16.239990234375-3.02001953125-3.1400146484375-3.59002685546875-6.29998779296875-1.57000732421875-9.959991455078125,2.260009765625-4.089996337890625,4.47998046875-8.239990234375,7.09002685546875-12.100006103515625,9.54998779296875-14.149993896484375,14.55999755859375-29.970001220703125,17.46002197265625-46.580001831054688.20001220703125-1.1300048828125,1.42999267578125-2.960006713867188-.3800048828125-3.479995727539062-1.80999755859375-.509994506835938-2.27001953125,1.520004272460938-2.8900146484375,2.830001831054688-.280029296875.600006103515625-.489990234375,1.25-.6400146484375,1.889999389648438-3.4000244140625,14.6099853515625-9.3800048828125,28-17.16998291015625,40.899993896484375-14.67999267578125,24.279998779296875-31.3900146484375,46.970001220703125-50.75,67.6300048828125-29.989990234375,32.010009765625-65.220001220703125,57.739990234375-100.95001220703125,82.80999755859375-20.1099853515625,14.1199951171875-40.20001220703125,28.209991455078125-57.230010986328125,46.170013427734375-12.529998779296875,13.209991455078125-22.239990234375,27.970001220703125-26.829986572265625,45.72998046875-2.04998779296875,7.92999267578125-.589996337890625,9.1400146484375,7.170013427734375,7.04998779296875,9.600006103515625-2.58001708984375,18.290008544921875-7.22998046875,27.100006103515625-11.6099853515625,1.410003662109375-.70001220703125,2.8800048828125-2.21002197265625,4.42999267578125-.3699951171875,2.260009765625,2.67999267578125.079986572265625,11.5999755859375-3.230010986328125,13.30999755859375-8.30999755859375,4.280029296875-17.139984130859375,6.510009765625-26.510009765625,6.54998779296875-9.8800048828125.03997802734375-15.970001220703125-5.83001708984375-16.239990234375-15.780029296875-.170013427734375-6.17999267578125,2.040008544921875-11.8699951171875,4.44000244140625-17.339996337890625,1.92999267578125-4.3900146484375,2.279998779296875-8.6300048828125,1.279998779296875-13.170013427734375-.540008544921875-2.45001220703125-1.1400146484375-4.8900146484375-1.529998779296875-7.3599853515625-5.959991455078125-37.730010986328125-21.07000732421875-72.339996337890625-36.529998779296875-106.82000732421875-2-4.459991455078125-4.07000732421875-8.79998779296875-3.770004272460938-13.850006103515625,1.199996948242188-20.17999267578125.509994506835938-40.42999267578125,2.220001220703125-60.589996337890625,1.830001831054688-21.6400146484375,3.800003051757812-43.260009765625,8.610000610351562-64.5.970001220703125-4.289993286132812,1.54998779296875-8.67999267578125,2.410003662109375-13.550003051757812-6.399993896484375,4.17999267578125-8.979995727539062,18.550003051757812-13.389999389648438,65.979995727539062-2.100006103515625,22.670013427734375-4.460006713867188,45.29998779296875-2.330001831054688,69.3800048828125-2.839996337890625-2.1400146484375-3.550003051757812-3.790008544921875-4.3699951171875-5.3699951171875-13.979995727539062-26.829986572265625-27.360000610351562-53.959991455078125-39.050003051757812-81.8599853515625-9.5-22.69000244140625-20.399993896484375-44.669998168945312-32.400009155273438-66.089996337890625-12.850006103515625-22.94000244140625-29.290008544921875-43.5-44.319999694824219-64.989990234375-.699996948242188-1-1.360000610351562-2-1.980003356933594-3l-.029922485351562-.0302734375ZM385.717410929964899,690.206389844617661c-6.709991455078125-2.030029296875-13.3900146484375-4.1500244140625-20.089996337890625-6.20001220703125-.790008544921875-.239990234375-1.6300048828125-.5-2.45001220703125-.5-1.529998779296875,0-3.959991455078125-1.1300048828125-4.260009765625,1.03997802734375-.279998779296875,2.03997802734375,2.30999755859375,2.09002685546875,3.829986572265625,2.27001953125,4.57000732421875.530029296875,8.75,1.79998779296875,12.82000732421875,5.6300048828125-5.1099853515625,1.34002685546875-9.3800048828125-.02001953125-13.510009765625-1.17999267578125-11.149993896484375-3.1400146484375-11.399993896484375-3.84002685546875-4.1300048828125-12.52001953125,16.3699951171875-19.52001953125,29.8599853515625-41,42.8900146484375-62.77001953125,4.010009765625-6.70001220703125,7.029998779296875-14.02001953125,10.21002197265625-21.17999267578125,2.6300048828125-5.91998291015625,1.0999755859375-11-5.17999267578125-15.66998291015625-4.089996337890625-3.03997802734375-3.8800048828125-5.40997314453125-1.470001220703125-9.52001953125,10.060028076171875-17.20001220703125,22.170013427734375-32.91998291015625,34.009979248046875-48.8499755859375,1.72998046875-2.32000732421875,3.4000244140625-2.969970703125,5.9000244140625-1.780029296875,1.80999755859375.8599853515625,3.5999755859375,1.77001953125,5.42999267578125,2.58001708984375,6.530029296875,2.8699951171875,10.19000244140625,2.25,14.97998046875-2.40997314453125,1.1500244140625-1.1199951171875,2.02001953125-3.16998291015625,3.90997314453125-2.65997314453125,2.1199951171875.57000732421875,1.95001220703125,2.8699951171875,2.30999755859375,4.6199951171875,4.969970703125,23.90997314453125,1.489990234375,47.1400146484375-7.8499755859375,69.1500244140625-11.91998291015625,28.09002685546875-26.719970703125,54.5999755859375-49.90997314453125,75.4100341796875-6.05999755859375,5.44000244140625-13.1099853515625,9.8599853515625-17.70001220703125,16.8699951171875-1.399993896484375,2.1400146484375-4.760009765625,1.46002197265625-6.480010986328125,4.19000244140625,4.6400146484375,2.0999755859375,9.720001220703125,1.239990234375,14.489990234375,4.79998779296875-6.67999267578125,1.4000244140625-12.25.3599853515625-17.769989013671875-1.30999755859375l.02001953125-.01007080078125ZM542.847415812777399,443.626372754773911c3.77001953125,7.82000732421875,7.780029296875,15.530029296875,11.20001220703125,23.5,7.90997314453125,18.41998291015625,15.1400146484375,37.1400146484375,23.3499755859375,55.41998291015625,14.260009765625,31.719970703125,32.1400146484375,61.22998046875,56.22998046875,86.58001708984375,5.510009765625,5.79998779296875,11.739990234375,10.91998291015625,18.40997314453125,15.44000244140625,1.030029296875.70001220703125,2.83001708984375,1.27001953125,2.40997314453125,2.82000732421875-.3900146484375,1.47998046875-2.19000244140625,1.3800048828125-3.45001220703125,1.3699951171875-14.08001708984375-.09002685546875-27.8699951171875,3.3800048828125-41.94000244140625,3.42999267578125-1.5,0-3.02001953125.010009765625-4.5.22998046875-2.42999267578125.3599853515625-5.53997802734375.20001220703125-6.20001220703125,3.21002197265625-.69000244140625,3.1300048828125,2.25,4.03997802734375,4.45001220703125,5.21002197265625,1.58001708984375.84002685546875,4.09002685546875,1.40997314453125,3.82000732421875,3.3900146484375-.29998779296875,2.22998046875-2.94000244140625,1.69000244140625-4.6400146484375,1.8800048828125-15.3499755859375,1.67999267578125-30.0999755859375,6.07000732421875-44.97003173828125,9.94000244140625-1.5999755859375.41998291015625-3.58001708984375.65997314453125-3.969970703125,2.57000732421875-.3800048828125,1.8900146484375,1.30999755859375,2.95001220703125,2.6199951171875,3.94000244140625,2.25,1.719970703125,4.6199951171875,3.29998779296875,6.8900146484375,5.010009765625,1.28997802734375.97998046875,3.30999755859375,1.66998291015625,3.1099853515625,3.58001708984375-.21002197265625,2.05999755859375-2.44000244140625,1.97998046875-3.94000244140625,2.5-18.33001708984375,6.4000244140625-37.1300048828125,11.0999755859375-56.05999755859375,15.28997802734375-18.75,4.1500244140625-37.530029296875,8.219970703125-56.30999755859375,12.219970703125-1.6099853515625.34002685546875-4,2.08001708984375-4.90997314453125-.21002197265625-.8699951171875-2.17999267578125,1.739990234375-3.3699951171875,3.29998779296875-4.3499755859375,5.65997314453125-3.54998779296875,11.3699951171875-7.03997802734375,17.22998046875-10.239990234375,5.22998046875-2.8599853515625,7.739990234375-7.66998291015625,10-12.72998046875,6.09002685546875-13.6099853515625,10.8800048828125-27.530029296875,12.77001953125-42.510009765625,1.15997314453125-9.22998046875,4.07000732421875-18.25,4.42999267578125-27.6500244140625.05999755859375-1.52001953125,1.05999755859375-4.08001708984375-.91998291015625-4.34002685546875-2.27001953125-.29998779296875-1.5,2.41998291015625-1.83001708984375,3.8699951171875-5.5,24.6199951171875-10.6099853515625,49.34002685546875-19.94000244140625,72.90997314453125-1.17999267578125,2.989990234375-2.65997314453125,4.8499755859375-6.21002197265625,4.3699951171875-17.780029296875-2.45001220703125-35.32000732421875.510009765625-52.90997314453125,2.42999267578125-.65997314453125.07000732421875-1.32000732421875.27001953125-1.980010986328125.29998779296875-1.279998779296875.07000732421875-2.92999267578125.67999267578125-3.489990234375-.97998046875-.510009765625-1.510009765625.8699951171875-2.46002197265625,1.92999267578125-3.19000244140625,6.069976806640625-4.16998291015625,11.930023193359375-8.55999755859375,17.009979248046875-13.96002197265625,28.07000732421875-29.82000732421875,47.239990234375-64.1600341796875,53.16998291015625-105.1400146484375,2.219970703125-15.34002685546875,2.239990234375-30.6400146484375-2.41998291015625-45.6500244140625-.58001708984375-1.8800048828125-.280029296875-3.65997314453125.96002197265625-5.20001220703125,1.16998291015625-1.45001220703125,2.469970703125-3.010009765625,4.52001953125-2.6400146484375,2.42999267578125.44000244140625,1.969970703125,2.67999267578125,2.280029296875,4.44000244140625,3.46002197265625,19.71002197265625,5.02001953125,39.780029296875,10.91998291015625,59.03997802734375,1.72998046875,5.6400146484375,3.80999755859375,11.04998779296875,9.1199951171875,14.530029296875,6.34002685546875,4.15997314453125,12.15997314453125,2.6199951171875,14.84002685546875-4.5,3.80999755859375-10.1400146484375,4.30999755859375-20.8699951171875,4.94000244140625-31.54998779296875.07000732421875-1.16998291015625,0-2.34002685546875,0-3.510009765625.20001220703125-14.46002197265625-2.530029296875-28.53997802734375-5.07000732421875-42.70001220703125-1.45001220703125-8.07000732421875-3.84002685546875-15.9000244140625-5.21002197265625-23.96002197265625-.19000244140625-1.1500244140625-.69000244140625-2.260009765625-.77001953125-3.40997314453125-.17999267578125-2.5,1.1500244140625-4.530029296875,3.44000244140625-4.8599853515625,3.04998779296875-.44000244140625,2.54998779296875,2.40997314453125,2.75,4.219970703125,3.08001708984375,27.989990234375,13.030029296875,53.3900146484375,28.8900146484375,76.54998779296875,2.3900146484375,3.489990234375,5.3499755859375,6.469970703125,9.5999755859375,7.66998291015625,4.66998291015625,1.32000732421875,6.1099853515625.219970703125,5.469970703125-4.42999267578125-2.4000244140625-17.55999755859375-5.3499755859375-35.010009765625-10.6199951171875-52.010009765625-5.04998779296875-16.280029296875-10.510009765625-32.3800048828125-17.41998291015625-47.969970703125-1.6199951171875-3.65997314453125,2.27001953125-11.850006103515625,5.97998046875-12.829986572265625,2.219970703125-.589996337890625,2.91998291015625,1.1300048828125,3.6400146484375,2.6300048828125l.0001220703125.030120849609375ZM517.577396281527399,544.156341016492661c.07000732421875,10.58001708984375-.82000732421875,21.03997802734375-3.989990234375,31.21002197265625-2.03997802734375,6.52001953125-4.3699951171875,7.0999755859375-9.3699951171875,2.30999755859375-5.05999755859375-4.8499755859375-7.47998046875-11.1099853515625-8.77001953125-17.71002197265625-3.510009765625-18.03997802734375-6.69000244140625-36.1400146484375-10.03997802734375-54.21002197265625-.59002685546875-3.21002197265625.04998779296875-5.83001708984375,2.6099853515625-8.0999755859375,5.8800048828125-5.19000244140625,11.96002197265625-10.219970703125,16.34002685546875-16.8800048828125.57000732421875-.8599853515625,1.28997802734375-1.6500244140625,2.44000244140625-1.30999755859375.8800048828125.260009765625,1.25,1.09002685546875,1.32000732421875,1.96002197265625,1.5999755859375,20.489990234375,10.58001708984375,39.82000732421875,9.45001220703125,60.739990234375-.03997802734375.66998291015625,0,1.34002685546875,0,2.010009765625l.00994873046875-.02001953125ZM520.507388957308649,462.886321485242661c1.78997802734375-1.969970703125,3.54998779296875-3.969970703125,5.28997802734375-5.97998046875,2.760009765625-3.19000244140625,3.96002197265625-2.739990234375,5.77001953125,1.20001220703125,10.739990234375,23.45001220703125,15.3900146484375,48.6199951171875,20.969970703125,73.53997802734375,1.3499755859375,6.030029296875,2.6500244140625,12.07000732421875,3.83001708984375,17.5.19000244140625,2.8800048828125-.91998291015625,3.239990234375-2.760009765625,2.47998046875-1.6300048828125-.67999267578125-2.6099853515625-2.02001953125-3.57000732421875-3.40997314453125-13.07000732421875-19.07000732421875-23.3699951171875-39.27996826171875-26.1199951171875-62.67999267578125-.65997314453125-5.6199951171875-1.80999755859375-11.25-4.57000732421875-16.33001708984375-1.3900146484375-2.54998779296875-.55999755859375-4.42999267578125,1.1500244140625-6.30999755859375l.010009765625-.010009765625ZM563.907413371371149,420.076323926648911c.91998291015625,6.739990234375,4.44000244140625,12.079986572265625,8.739990234375,17.089996337890625,1.719970703125,2,3.92999267578125,4.19000244140625,4.3699951171875,6.579986572265625,1.760009765625,9.55999755859375,8.280029296875,16.19000244140625,13.70001220703125,23.47998046875,2.57000732421875,3.45001220703125,3.30999755859375,7.16998291015625,3.530029296875,12.45001220703125,0-.08001708984375.1500244140625,1.42999267578125-1.239990234375,1.66998291015625-1.55999755859375.260009765625-2.3499755859375-1.32000732421875-2.78997802734375-2.469970703125-3.07000732421875-7.989990234375-8.469970703125-14.72998046875-12.08001708984375-22.3699951171875-5.260009765625-11.1400146484375-13.489990234375-19.290008544921875-23.41998291015625-26.040008544921875-6.40997314453125-4.3699951171875-6.3599853515625-12.829986572265625.1500244140625-17.089996337890625,1.280029296875-.839996337890625,2.40997314453125-.8599853515625,3.719970703125-.1300048828125,2.75,1.540008544921875,4.8800048828125,3.600006103515625,5.33001708984375,6.839996337890625l-.01007080078125-.009979248046875ZM395.127414592074274,274.636321485242661c1.019989013671875-1.489990234375,2.3699951171875-2.779998779296875,3.67999267578125-4.04998779296875,1.25-1.20001220703125,2.739990234375-2.04998779296875,4.489990234375-1.100006103515625,1.529998779296875.829986572265625,1.589996337890625,2.410003662109375,1.69000244140625,3.920013427734375.1400146484375,2.44000244140625-.579986572265625,4.25-3.269989013671875,4.779998779296875-1.1400146484375.230010986328125-2.220001220703125.779998779296875-3.3699951171875.920013427734375-2.1400146484375.269989013671875-4.579986572265625,3.25-6.20001220703125.79998779296875-1.170013427734375-1.760009765625,1.790008544921875-3.54998779296875,2.970001220703125-5.269989013671875l.010009765625-.000030517578125ZM287.227420695589899,371.086333692273911c26.089996337890625-19.459991455078125,52.66998291015625-38.32000732421875,76.040008544921875-61.1300048828125,5.959991455078125-5.82000732421875,12.07000732421875-11.69000244140625,16.910003662109375-18.399993896484375,4.95001220703125-6.8699951171875,12.720001220703125-6.670013427734375,19.1400146484375-9.779998779296875,2.3599853515625-1.1400146484375,5.05999755859375-1.67999267578125,7.660003662109375-2.20001220703125,1.260009765625-.260009765625,2.899993896484375-.010009765625,3.389984130859375,1.480010986328125.55999755859375,1.730010986328125-1.07000732421875,2.30999755859375-2.230010986328125,2.79998779296875-5.3699951171875,2.279998779296875-10.79998779296875,4.44000244140625-16.19000244140625,6.67999267578125-1.279998779296875.529998779296875-3.54998779296875.739990234375-2.709991455078125,2.709991455078125.600006103515625,1.410003662109375,2.420013427734375.3900146484375,3.6099853515625-.089996337890625,4.6300048828125-1.8900146484375,9.239990234375-3.8599853515625,13.850006103515625-5.79998779296875,1.989990234375-.839996337890625,4.240020751953125-2.239990234375,5.610015869140625.57000732421875,1.1300048828125,2.30999755859375,1.5999755859375,4.79998779296875-1.6400146484375,6.279998779296875-2.92999267578125,1.339996337890625-3.42999267578125,2.79998779296875.20001220703125,3.920013427734375,2.71002197265625.839996337890625,2.1199951171875,3.089996337890625,2.030029296875,5.010009765625-.8699951171875,17.54998779296875-5.410003662109375,34.209991455078125-12.489990234375,50.220001220703125-1.350006103515625,3.04998779296875-2.790008544921875,6.05999755859375-4.230010986328125,9.07000732421875-7.55999755859375,15.80999755859375-22.079986572265625,21.980010986328125-37.45001220703125,26.8699951171875-6.42999267578125,2.04998779296875-13.1300048828125,2.30999755859375-20.160003662109375,2.25-5.739990234375.30999755859375-11.6099853515625-.5-17.420013427734375-2.410003662109375-10.94000244140625-3.589996337890625-21.980010986328125-6.8900146484375-32.959991455078125-10.3599853515625-1.899993896484375-.600006103515625-4.1199951171875-1.239990234375-4.55999755859375-3.470001220703125-.519989013671875-2.57000732421875,2.079986572265625-3.100006103515625,3.589996337890625-4.230010986328125l.009979248046875.009979248046875ZM233.577426799105524,419.556334912977036c3.32000732421875-4.6099853515625,6.529998779296875-9.329986572265625,10.29998779296875-13.54998779296875,8.480010986328125-9.489990234375,18.019989013671875-17.860015869140625,28.139984130859375-25.589996337890625,4.25-3.25,8.040008544921875-3.70001220703125,11.720001220703125.769989013671875,1.279998779296875,1.55999755859375,2.94000244140625,2.8699951171875,4.920013427734375,3.350006103515625,14.94000244140625,3.660003662109375,28.709991455078125,11.040008544921875,43.94000244140625,13.829986572265625,6.850006103515625,1.260009765625,13.54998779296875,1.470001220703125,20.29998779296875-.6199951171875,8.1300048828125-2.519989013671875,16.3900146484375-4.55999755859375,24.260009765625-7.970001220703125,13.970001220703125-6.07000732421875,21.82000732421875-17.82000732421875,28.529998779296875-30.470001220703125,3.899993896484375-7.3599853515625,7.139984130859375-15.1300048828125,8.379974365234375-23.519989013671875.16998291015625-1.160003662109375.28997802734375-2.540008544921875,1.58001708984375-2.910003662109375,1.59002685546875-.45001220703125,2.4000244140625.989990234375,3.1300048828125,2.019989013671875,3.530029296875,4.920013427734375,7.6199951171875,9.30999755859375,12.239990234375,13.20001220703125,1.5,1.260009765625,3.53997802734375,3.019989013671875,5.280029296875,1.220001220703125,1.969970703125-2.040008544921875-.469970703125-3.589996337890625-1.760009765625-4.94000244140625-4.16998291015625-4.329986572265625-8.3499755859375-8.670013427734375-12.72998046875-12.790008544921875-3.22998046875-3.040008544921875-4.739990234375-6.510009765625-3.52001953125-10.790008544921875,1.32000732421875-4.6300048828125-.28997802734375-10.779998779296875,3.1199951171875-13.760009765625,3.1300048828125-2.730010986328125,8.75-2.600006103515625,13.260009765625-3.779998779296875,8.69000244140625-2.279998779296875,17.3800048828125-4.589996337890625,26.6300048828125-7.040008544921875-2.22998046875-1.980010986328125-4.42999267578125-1.20001220703125-6.3900146484375-1.07000732421875-9.30999755859375.6099853515625-17.83001708984375,4.20001220703125-26.510009765625,7.19000244140625-5.989990234375,2.05999755859375-8.5999755859375.829986572265625-9.15997314453125-4.1400146484375-.32000732421875-2.8800048828125,1.17999267578125-4.279998779296875,3.46002197265625-5.410003662109375,5.75-2.850006103515625,12.17999267578125-3.529998779296875,18.1099853515625-5.790008544921875,1.489990234375-.55999755859375,3.3699951171875-.339996337890625,4.489990234375-2.25-1.91998291015625-2.05999755859375-4.03997802734375-.8900146484375-5.96002197265625-.350006103515625-5.469970703125,1.529998779296875-10.8900146484375,3.230010986328125-16.34002685546875,4.82000732421875-1.55999755859375.459991455078125-3.41998291015625,1.410003662109375-4.510009765625-.5-1.17999267578125-2.05999755859375-.04998779296875-3.839996337890625,1.47998046875-5.329986572265625,1.1199951171875-1.089996337890625,3.08001708984375-1.3800048828125,3.42999267578125-3.510009765625-.6300048828125-.1300048828125-1.08001708984375-.29998779296875-1.53997802734375-.290008544921875-1.489990234375.010009765625-3.65997314453125,2.899993896484375-4.280029296875-.5-.46002197265625-2.540008544921875,1.739990234375-3.739990234375,4.15997314453125-3.989990234375,3.989990234375-.410003662109375,7.3599853515625,2,11.17999267578125,2.480010986328125,21.219970703125,2.6400146484375,39.54998779296875,11.970001220703125,56.05999755859375,25.019989013671875,17.510009765625,13.839996337890625,30.19000244140625,31.529998779296875,39.53997802734375,51.69000244140625,1.57000732421875,3.399993896484375,1.3499755859375,6.8599853515625.010009765625,10.239990234375-4.530029296875,11.470001220703125-7.52001953125,23.54998779296875-13.46002197265625,34.480010986328125-.54998779296875,1-1.45001220703125,2.279998779296875-.19000244140625,3.1199951171875,1.29998779296875.8599853515625,2.70001220703125.040008544921875,3.469970703125-1.1199951171875,1.75-2.6400146484375,3.66998291015625-5.25,4.8800048828125-8.1400146484375,3.16998291015625-7.540008544921875,6-15.220001220703125,8.96002197265625-22.839996337890625.29998779296875-.779998779296875.3800048828125-1.670013427734375.80999755859375-2.3599853515625,1.280029296875-2.079986572265625,2.41998291015625-5.25,5.42999267578125-4.019989013671875,3.280029296875,1.339996337890625,1.42999267578125,4.329986572265625.6199951171875,6.540008544921875-1.42999267578125,3.8900146484375-2.1300048828125,8.079986572265625-4.66998291015625,11.54998779296875-.59002685546875.80999755859375-1.41998291015625,2.269989013671875.1500244140625,2.959991455078125,1.0999755859375.480010986328125,1.72998046875-.75,2.280029296875-1.540008544921875,2.760009765625-4.040008544921875,4.280029296875-8.670013427734375,6.28997802734375-13.079986572265625.6199951171875-1.3699951171875.03997802734375-4.6300048828125,2.8900146484375-3.3900146484375,2.3499755859375,1.019989013671875,1.239990234375,3.399993896484375.239990234375,5.239990234375-3.3699951171875,6.230010986328125-3.77001953125,13.410003662109375-6.34002685546875,20.029998779296875,2.530029296875-1.220001220703125,3.6099853515625-3.42999267578125,4.42999267578125-5.829986572265625,1.1400146484375-3.32000732421875,2.1300048828125-6.69000244140625,3.4000244140625-9.959991455078125.72998046875-1.8800048828125,1.21002197265625-4.970001220703125,4.17999267578125-3.709991455078125,2.9000244140625,1.230010986328125,4.03997802734375,3.779998779296875,2.30999755859375,7.040008544921875-2.030029296875,3.829986572265625-3.9000244140625,7.75-5.780029296875,11.660003662109375-.41998291015625.8699951171875-.92999267578125,1.79998779296875-.29998779296875,3.149993896484375,3.469970703125-.489990234375,3.55999755859375-3.779998779296875,4.969970703125-5.95001220703125,1.3699951171875-2.1099853515625,2.08001708984375-6.350006103515625,4.91998291015625-5.29998779296875,3.030029296875,1.1199951171875.58001708984375,4.779998779296875.1300048828125,7.1400146484375-.8900146484375,4.6300048828125-3.530029296875,8.6099853515625-5.760009765625,12.730010986328125-7.28997802734375,13.489990234375-12.77001953125,28.010009765625-22.58001708984375,40.07000732421875-6.8499755859375,8.420013427734375-13.95001220703125,16.639984130859375-20.72998046875,25.120025634765625-13.44000244140625,16.79998779296875-30.0999755859375,30.27001953125-45.78997802734375,44.739990234375-4.90997314453125,4.530029296875-12.17999267578125,4.52001953125-17.3599853515625.52001953125-3.1099853515625-2.4000244140625-.780029296875-4.1400146484375,1-5.53997802734375,6.30999755859375-4.96002197265625,12.6400146484375-9.8800048828125,18.3599853515625-15.530029296875,4.19000244140625-4.1400146484375,7.79998779296875-8.71002197265625,10.82000732421875-13.739990234375.9000244140625-1.5,2.0999755859375-3.04998779296875,1.09002685546875-5.32000732421875-2.54998779296875.58001708984375-3.8699951171875,2.6300048828125-5.19000244140625,4.3900146484375-8.05999755859375,10.78997802734375-17.58001708984375,20.04998779296875-28.469970703125,27.96002197265625-4.6400146484375,3.3699951171875-8.25,7.66998291015625-11.25,12.6300048828125-9.8599853515625,16.30999755859375-22.4000244140625,30.83001708984375-31.920013427734375,47.3599853515625-6.75,11.71002197265625-12.589996337890625,23.8900146484375-18.110015869140625,36.239990234375-3,6.71002197265625-8.160003662109375,12.25-10.8699951171875,19.1500244140625-.410003662109375,1.04998779296875-1.350006103515625,1.96002197265625-.779998779296875,3.5999755859375,2.29998779296875.280029296875,3.29998779296875-1.65997314453125,4.5-3.02001953125,8.8599853515625-10.08001708984375,14.519989013671875-21.94000244140625,19.139984130859375-34.4000244140625.92999267578125-2.5,1.30999755859375-6.030029296875,5.42999267578125-5.21002197265625,3.420013427734375.67999267578125,6.79998779296875,5.79998779296875,6.160003662109375,9.219970703125-1.45001220703125,7.72998046875-5.8900146484375,14.1400146484375-9.5,20.8900146484375-14.470001220703125,27.0999755859375-33.6300048828125,51-51.769989013671875,75.58001708984375-4.029998779296875,5.46002197265625-10.410003662109375,6.989990234375-16.45001220703125,8.92999267578125-19.3900146484375,6.20001220703125-39.6300048828125,7.82000732421875-59.6199951171875,10.6400146484375-26.6300048828125,3.77001953125-53.040008544921875,9.03997802734375-79.83001708984375,11.6099853515625-14.790008544921875,1.41998291015625-29.660003662109375,2.1199951171875-44.449996948242188,3.55999755859375-21.779998779296875,2.1199951171875-43.3800048828125.1199951171875-64.990005493164062-2.15997314453125-5.919998168945312-.6199951171875-10.960006713867188-5.3499755859375-12.020004272460938-11.0999755859375-.5-2.739990234375.509994506835938-3.8499755859375,3.270004272460938-3.1400146484375,34.089996337890625,8.84002685546875,68.5,2.91998291015625,102.79998779296875,2.21002197265625,3.20001220703125-.07000732421875,6.269989013671875-.989990234375,9.209991455078125-2.239990234375,1.239990234375-.530029296875,2.57000732421875-1.45001220703125,2.279998779296875-2.96002197265625-.350006103515625-1.79998779296875-2.029998779296875-1.29998779296875-3.32000732421875-1.25-13.69000244140625.6099853515625-27.3900146484375.989990234375-41.05999755859375,1.90997314453125-16.709991455078125,1.1300048828125-33.419998168945312.3800048828125-50.1300048828125.9000244140625-8.089996337890625.25-15.539993286132812-2.22998046875-22.919998168945312-4.82000732421875-7.220001220703125-2.530029296875-8.770004272460938-14.22998046875-2.889999389648438-19.03997802734375,4.229995727539062-3.46002197265625,9.1199951171875-5.78997802734375,14.279998779296875-7.08001708984375,13.259994506835938-3.32000732421875,24.94000244140625-10.40997314453125,37.580001831054688-15.21002197265625,18.100006103515625-6.8699951171875,35.8800048828125-14.57000732421875,53.439987182617188-22.78997802734375,11.029998779296875-5.16998291015625,22.42999267578125-9.54998779296875,33.57000732421875-14.47998046875,5.05999755859375-2.239990234375,9.529998779296875-2.08001708984375,14.839996337890625.03997802734375,8.720001220703125,3.47998046875,16.3699951171875,9.1099853515625,25.350006103515625,11.9000244140625,1.6300048828125.510009765625,3.910003662109375,2.09002685546875,5.05999755859375.239990234375,1.260009765625-2.030029296875-1.160003662109375-3.530029296875-2.399993896484375-4.97998046875-.730010986328125-.8599853515625-1.79998779296875-1.47998046875-2.82000732421875-2.030029296875-8.260009765625-4.47998046875-16.850006103515625-8.219970703125-26-10.3599853515625-3.8800048828125-.90997314453125-4.839996337890625-2.65997314453125-3.839996337890625-6.3699951171875,2.829986572265625-10.47998046875,6.019989013671875-20.8499755859375,8.540008544921875-31.42999267578125,6.170013427734375-25.8699951171875,10.779998779296875-52,13.850006103515625-78.4000244140625,1.589996337890625-13.6500244140625.6099853515625-27.3699951171875.160003662109375-41.05999755859375-.04998779296875-1.5-.100006103515625-3.030029296875-.399993896484375-4.489990234375-4.019989013671875-19.55999755859375,6.839996337890625-32.6400146484375,19.5-44.94000244140625,4.670013427734375-4.540008544921875,9.410003662109375-9.019989013671875,13.989990234375-13.6400146484375,1.760009765625-1.779998779296875,4.209991455078125-3.19000244140625,3.760009765625-6.8900146484375-3.839996337890625,3.209991455078125-8.040008544921875,6.089996337890625-11.45001220703125,9.709991455078125-7.670013427734375,8.149993896484375-15.660003662109375,16.010009765625-22.54998779296875,24.8699951171875-1.17999267578125,1.519989013671875-2.3800048828125,3.80999755859375-4.769989013671875,2.100006103515625-2.160003662109375-1.540008544921875-1.8900146484375-3.8900146484375-.510009765625-5.82000732421875l-.0498046875-.019989013671875Z"/>
</svg>