<?xml version="1.0" encoding="UTF-8"?>
<svg id="Layer_1" xmlns="http://www.w3.org/2000/svg" version="1.1" viewBox="0 0 1204.5047607 210.8541718">
  <!-- Generator: Adobe Illustrator 29.5.1, SVG Export Plug-In . SVG Version: 2.1.0 Build 141)  -->
  <defs>
    <style>
      .st0 {
        fill: #f9cb8f;
      }
    </style>
  </defs>
  <path class="st0" d="M50.0416679,174.8541718c-8.3645821,0-16.125-1.2916718-23.2916679-3.875-7.15625-2.59375-13.09375-6.65625-17.8125-12.1875-4.7239585-5.5416718-7.703125-12.609375-8.9375-21.2083282h19.5c1.083334,4.7239532,3.03125,8.65625,5.8541679,11.7916718,2.833334,3.140625,6.375,5.5,10.625,7.0833282,4.2604179,1.5833282,8.9166679,2.375,13.9583321,2.375,8.0416679,0,14.5416641-1.5052032,19.5-4.5208282,4.9583359-3.0104218,7.4375-7.65625,7.4375-13.9375,0-4.4166718-1.3020859-7.9583282-3.8958359-10.625-2.5989609-2.6666641-6.6041641-4.6145859-12.0208359-5.8541641l-24.8541679-6.1666641c-9.6666679-2.3177109-17.40625-5.9479141-23.208334-10.8958359-5.807292-4.9583359-8.708334-11.8854141-8.708334-20.7916641-.0833335-7.0416641,1.5729156-13.234375,4.979167-18.5833359,3.416667-5.34375,8.526042-9.5625,15.333333-12.6458359,6.817709-3.09375,15.296875-4.6458321,25.4375-4.6458321,13,0,23.5052109,2.9270821,31.5208359,8.7708321,8.0104141,5.8333359,12.171875,14.40625,12.4791641,25.7083359h-18.9166641c-.78125-5.734375-3.3541641-10.28125-7.7291641-13.6458359-4.375-3.359375-10.2395859-5.0416641-17.5833359-5.0416641-7.6666679,0-13.90625,1.53125-18.708334,4.5833359-4.791666,3.0572891-7.1875,7.7916641-7.1875,14.2083359,0,4.265625,1.697916,7.6197891,5.104166,10.0625,3.4010429,2.4322891,8.4270821,4.4583359,15.0833321,6.0833359l24.0416641,6.0416641c5.5677109,1.4739609,10.1510391,3.4114609,13.75,5.8125,3.609375,2.390625,6.4791641,5.0572891,8.6041641,8,2.125,2.9479141,3.6302109,6.03125,4.5208359,9.2500076.8854141,3.2083282,1.3333359,6.28125,1.3333359,9.2083282,0,7.3645782-1.84375,13.6979218-5.5208359,19-3.6666641,5.2916718-8.9322891,9.390625-15.7916641,12.2916718-6.8489609,2.9010468-15.1458359,4.3541718-24.8958359,4.3541718l.0000114-.0000305Z"/>
  <path class="st0" d="M151.2991333,174.8541718c-6.28125-.0729218-12.1875-.9739532-17.7291718-2.7083282-5.53125-1.75-10.4270859-4.3229218-14.6875-7.7291718-4.25-3.4010468-7.5989609-7.6354218-10.0416641-12.7083282-2.4322891-5.0833282-3.6458359-10.984375-3.6458359-17.7083282V52.4791679h21.4791718v79.3125038c0,7.8229218,2.4166718,14.1666718,7.25,19.0416718,4.84375,4.875,12.1458282,7.3125,21.8958282,7.3125,8.8177032,0,15.9166718-2.296875,21.2916718-6.8958282,5.3854218-4.609375,8.0833282-11.484375,8.0833282-20.625V52.4791679h21.375v120.0625038h-17.0833282l-2.2083282-23c-1.4583282,6.0416718-3.953125,10.9270782-7.4791718,14.6458282-3.53125,3.7083282-7.75,6.4375-12.6666718,8.1875-4.90625,1.734375-10.1822968,2.5625-15.8333282,2.4791718Z"/>
  <path class="st0" d="M263.6802673,174.8541718c-8.3645782,0-16.125-1.2916718-23.2916718-3.875-7.15625-2.59375-13.09375-6.65625-17.8125-12.1875-4.7239532-5.5416718-7.703125-12.609375-8.9375-21.2083282h19.5c1.0833282,4.7239532,3.03125,8.65625,5.8541718,11.7916718,2.8333282,3.140625,6.375,5.5,10.625,7.0833282,4.2604218,1.5833282,8.9166565,2.375,13.9583435,2.375,8.0416565,0,14.5416565-1.5052032,19.5-4.5208282,4.9583435-3.0104218,7.4375-7.65625,7.4375-13.9375,0-4.4166718-1.3020935-7.9583282-3.8958435-10.625-2.5989685-2.6666641-6.6041565-4.6145859-12.0208435-5.8541641l-24.8541718-6.1666641c-9.6666718-2.3177109-17.40625-5.9479141-23.2083282-10.8958359-5.8072968-4.9583359-8.7083282-11.8854141-8.7083282-20.7916641-.0833282-7.0416641,1.5729218-13.234375,4.9791718-18.5833359,3.4166718-5.34375,8.5260468-9.5625,15.3333282-12.6458359,6.8177032-3.09375,15.296875-4.6458321,25.4375153-4.6458321,13,0,23.5052185,2.9270821,31.5208435,8.7708321,8.0104065,5.8333359,12.171875,14.40625,12.4791565,25.7083359h-18.9166565c-.78125-5.734375-3.3541565-10.28125-7.7291565-13.6458359-4.375-3.359375-10.2395935-5.0416641-17.5833435-5.0416641-7.6666718,0-13.90625,1.53125-18.7083282,4.5833359-4.7916718,3.0572891-7.1875,7.7916641-7.1875,14.2083359,0,4.265625,1.6979218,7.6197891,5.1041718,10.0625,3.4010468,2.4322891,8.4270782,4.4583359,15.0833435,6.0833359l24.0416565,6.0416641c5.5677185,1.4739609,10.1510315,3.4114609,13.75,5.8125,3.609375,2.390625,6.4791565,5.0572891,8.6041565,8,2.125,2.9479141,3.6302185,6.03125,4.5208435,9.2500076.8854065,3.2083282,1.3333435,6.28125,1.3333435,9.2083282,0,7.3645782-1.84375,13.6979218-5.5208435,19-3.6666565,5.2916718-8.9322815,9.390625-15.7916565,12.2916718-6.8489685,2.9010468-15.1458435,4.3541718-24.8958435,4.3541718l-.0000305-.0000305Z"/>
  <path class="st0" d="M383.3960876,68.1458359h-27.0625v74.6666641c0,4.265625.4427185,7.3854218,1.3333435,9.3541718.8854065,1.9739532,2.3958435,3.2291718,4.5208435,3.7708282,2.1354065.5416718,5.0625.8125,8.7708435.8125h13.125v14.3958282c-1.4739685.5416718-3.703125,1.0104218-6.6875,1.3958282-2.9739685.3854218-6.6614685.5833282-11.0625.5833282-8.2916565,0-14.7239685-1.1145782-19.2916565-3.3541718-4.5572815-2.25-7.7447815-5.5833282-9.5625-10-1.8229065-4.4166718-2.7291565-9.8333282-2.7291565-16.25v-75.375h-19.5208435v-15.6666679h20.0833435l5.2291565-34.9583359h15.7916565v34.8333359h27.0625v15.7916679l-.0000305.0000229Z"/>
  <path class="st0" d="M428.4458923,174.8541718c-7.75,0-14.6041565-1.3697968-20.5625-4.1041718-5.9583435-2.75-10.625-6.7135468-14-11.8958282-3.3645935-5.1927032-5.0416565-11.46875-5.0416565-18.8333282,0-13.3020859,4.6458435-23.2083359,13.9375-29.7083359,9.2916565-6.5104141,24.1927185-10,44.7083435-10.4583359l21.4791565-.5833359v-9.3958359c0-7.359375-2.2083435-13.1875-6.625-17.4791718-4.40625-4.2916641-11.25-6.4375-20.5416565-6.4375-6.890625.0729141-12.953125,1.6979141-18.1875,4.875-5.2239685,3.1666641-8.6041565,8.3489609-10.1458435,15.5416641h-18.9375c.46875-7.8020859,2.6770935-14.3958359,6.625-19.7708359,3.9427185-5.3854179,9.4583435-9.46875,16.5416565-12.25,7.0833435-2.7916679,15.4635315-4.1875,25.1458435-4.1875,10.4427185,0,19.1302185,1.4739571,26.0625,4.4166679,6.9270935,2.9322929,12.1145935,7.265625,15.5625,13.0000038,3.4427185,5.7239609,5.1666565,12.765625,5.1666565,21.125v83.8333282h-18.3541565l-1.5-22.5208282c-4.640625,9.3645782-10.5416565,15.84375-17.7083435,19.4375-7.1666565,3.59375-15.0416565,5.3958282-23.625,5.3958282v.0000153ZM434.9458923,159.4166718c4.0260315,0,8.03125-.734375,12.0208435-2.2083282,3.984375-1.46875,7.6354065-3.4635468,10.9583435-5.9791718,3.3333435-2.5104218,5.984375-5.3333282,7.9583435-8.4583282,1.96875-3.1354218,3-6.375,3.0833435-9.7083282v-20.5625l-17.875.3541641c-9.140625.15625-16.7864685,1.0833359-22.9375,2.7916641-6.15625,1.7083359-10.765625,4.3854141-13.8333435,8.0208359-3.0572815,3.640625-4.5833435,8.3958359-4.5833435,14.2708359,0,6.7395782,2.3385315,12,7.0208435,15.7916718,4.6927185,3.7916718,10.7552185,5.6875,18.1875,5.6875l-.0000305-.0000153Z"/>
  <path class="st0" d="M530.4900513,52.4791679v120.0625038h-20.7708435V52.4791679h20.7708435ZM530.9692383,4.75v22.2916679h-21.9583435V4.75h21.9583435Z"/>
  <path class="st0" d="M549.1959229,172.5416718V52.4791679h20.770813v17.4166679c1.942688-3.3333359,4.635437-6.4635429,8.083313-9.3958359,3.442688-2.9427071,7.625-5.3020821,12.541687-7.0833321,4.916687-1.7916679,10.583313-2.6875,17-2.6875,7.583313,0,14.567688,1.515625,20.958313,4.5416679,6.385437,3.015625,11.5,7.71875,15.333313,14.1041641,3.833313,6.390625,5.75,14.6145859,5.75,24.6666718v78.5h-21.479187v-76.3958359c0-9.375-2.458313-16.3229141-7.375-20.8541641-4.916687-4.5260391-11.286438-6.7916641-19.104187-6.7916641-5.416687,0-10.489563.875-15.208313,2.625-4.723938,1.7395859-8.557312,4.3697891-11.5,7.8958359-2.947937,3.515625-4.416687,7.9479141-4.416687,13.2916641v80.2291794h-21.354187l.0001221-.0000153Z"/>
  <path class="st0" d="M697.3511353,174.8541718c-7.75,0-14.604187-1.3697968-20.5625-4.1041718-5.958313-2.75-10.625-6.7135468-14-11.8958282-3.364563-5.1927032-5.041687-11.46875-5.041687-18.8333282,0-13.3020859,4.645813-23.2083359,13.9375-29.7083359,9.291687-6.5104141,24.192688-10,44.708313-10.4583359l21.479187-.5833359v-9.3958359c0-7.359375-2.208313-13.1875-6.625-17.4791718-4.40625-4.2916641-11.25-6.4375-20.541687-6.4375-6.890625.0729141-12.953125,1.6979141-18.1875,4.875-5.223938,3.1666641-8.604187,8.3489609-10.145813,15.5416641h-18.9375c.46875-7.8020859,2.677063-14.3958359,6.625-19.7708359,3.942688-5.3854179,9.458313-9.46875,16.541687-12.25,7.083313-2.7916679,15.463562-4.1875,25.145813-4.1875,10.442688,0,19.130188,1.4739571,26.0625,4.4166679,6.927063,2.9322929,12.114563,7.265625,15.5625,13.0000038,3.442688,5.7239609,5.166687,12.765625,5.166687,21.125v83.8333282h-18.354187l-1.5-22.5208282c-4.640625,9.3645782-10.541687,15.84375-17.708313,19.4375-7.166687,3.59375-15.041687,5.3958282-23.625,5.3958282v.0000153ZM703.8511353,159.4166718c4.026062,0,8.03125-.734375,12.020813-2.2083282,3.984375-1.46875,7.635437-3.4635468,10.958313-5.9791718,3.333313-2.5104218,5.984375-5.3333282,7.958313-8.4583282,1.96875-3.1354218,3-6.375,3.083313-9.7083282v-20.5625l-17.875.3541641c-9.140625.15625-16.786438,1.0833359-22.9375,2.7916641-6.15625,1.7083359-10.765625,4.3854141-13.833313,8.0208359-3.057312,3.640625-4.583313,8.3958359-4.583313,14.2708359,0,6.7395782,2.338562,12,7.020813,15.7916718,4.692688,3.7916718,10.755188,5.6875,18.1875,5.6875l.000061-.0000153Z"/>
  <path class="st0" d="M835.5203247,174.8541718c-7.041687,0-12.989563-.9270782-17.833313-2.7708282-4.833313-1.859375-8.802063-4.2395782-11.895813-7.1458282-3.098938-2.9010468-5.5-5.8802032-7.208313-8.9375-1.697937-3.0520782-2.932312-5.75-3.708313-8.0833282l-2.3125,24.625h-16.375V0h21.583313v71.5208359c1.010437-2.0104141,2.541687-4.2135391,4.583313-6.6041641,2.052063-2.4010429,4.708313-4.7291679,7.958313-6.9791679s7.09375-4.1041679,11.541687-5.5625c4.458313-1.46875,9.552063-2.2083321,15.291687-2.2083321,15.010437,0,26.947937,5.2239571,35.8125,15.6666641,8.859375,10.4479141,13.291687,25.8489609,13.291687,46.2083359,0,12.625-1.895813,23.640625-5.6875,33.0416718-3.791687,9.40625-9.447937,16.71875-16.958313,21.9375-7.5,5.2239532-16.864563,7.8333282-28.083313,7.8333282h-.0001221ZM831.6870117,158.375c9.75,0,17.677063-3.7708282,23.791687-11.3125,6.125-7.5520782,9.1875-19.5729218,9.1875-36.0625,0-14.0104141-2.848938-24.8645859-8.541687-32.5625-5.697937-7.7083359-13.994812-11.5625-24.895813-11.5625-7.973938,0-14.385437,1.7239609-19.229187,5.1666641-4.833313,3.4479141-8.395813,8.4583359-10.6875,15.0416641-2.28125,6.5833359-3.458313,14.5572891-3.541687,23.9166718,0,16.7916718,2.609375,28.890625,7.833313,36.2916718,5.234375,7.390625,13.927063,11.0833282,26.083313,11.0833282h.000061Z"/>
  <path class="st0" d="M918.5222168,52.4791679v120.0625038h-20.770813V52.4791679h20.770813ZM919.0014038,4.75v22.2916679h-21.958313V4.75h21.958313Z"/>
  <path class="st0" d="M967.5198364,174.0416718c-6.5,0-11.744812-.890625-15.729187-2.6666718-3.989563-1.7760468-7.041687-4.171875-9.166687-7.1875-2.125-3.0260468-3.557312-6.4895782-4.291687-10.3958282-.739563-3.9166718-1.104187-7.9635468-1.104187-12.1458282V0h21.125v139.5625c0,6.0416718,1.177063,10.578125,3.541687,13.6041718,2.359375,3.015625,5.671875,4.6770782,9.9375,4.9791718l6.5.1041718v13.9375c-1.78125.5416718-3.640625.984375-5.583313,1.3333282-1.932312.34375-3.677063.5208282-5.229187.5208282h.000061Z"/>
  <path class="st0" d="M1010.4783325,52.4791679v120.0625038h-20.770813V52.4791679h20.770813ZM1010.9575195,4.75v22.2916679h-21.958313V4.75h21.958313Z"/>
  <path class="st0" d="M1091.7674561,68.1458359h-27.0625v74.6666641c0,4.265625.442749,7.3854218,1.333374,9.3541718.885376,1.9739532,2.395874,3.2291718,4.520874,3.7708282,2.135376.5416718,5.0625.8125,8.770874.8125h13.125v14.3958282c-1.473999.5416718-3.703125,1.0104218-6.6875,1.3958282-2.973999.3854218-6.661499.5833282-11.0625.5833282-8.291626,0-14.723999-1.1145782-19.291626-3.3541718-4.557251-2.25-7.744751-5.5833282-9.5625-10-1.822876-4.4166718-2.729126-9.8333282-2.729126-16.25v-75.375h-19.520813v-15.6666679h20.083313l5.229126-34.9583359h15.791626v34.8333359h27.0625v15.7916679l-.0001221.0000229Z"/>
  <path class="st0" d="M1115.4422607,210.8541718c-7.041626,0-11.885376-.5104218-14.520874-1.5208282l-3.9375-1.5v-13.9166718l12.1875.2291718c4.5.1510468,8.213501-.1614532,11.145874-.9375,2.942749-.78125,5.302124-1.828125,7.083374-3.1458282,1.791626-1.3072968,3.166626-2.7708282,4.125-4.3958282.96875-1.625,1.760376-3.1770782,2.375-4.6458282l4.1875-11.375-46.916626-117.1666718h21.729126l35.416626,92.6666718,35.166626-92.6666718h21.020874l-50.625,129.125c-3.098999,7.5833282-6.5625,13.5-10.395874,17.75-3.833374,4.2604218-8.09375,7.2395782-12.770874,8.9375-4.682251,1.7083282-9.770874,2.5625-15.270874,2.5625l.0001221-.0000153Z"/>
</svg>