<?xml version="1.0" encoding="UTF-8"?>
<svg id="Layer_1" xmlns="http://www.w3.org/2000/svg" version="1.1" viewBox="0 0 223.7671322 33.5399933">
  <!-- Generator: Adobe Illustrator 29.1.0, SVG Export Plug-In . SVG Version: 2.1.0 Build 142)  -->
  <defs>
    <style>
      .st0 {
        fill: #2e3133;
      }
    </style>
  </defs>
  <path class="st0" d="M30.9800005,12.4699993c0,7.6499996-5.8600006,12.4699993-15.0699997,12.4699993h-4.7700005v7.2700005c0,.4700012-.3799992.8499985-.8500004.8499985H.8500004c-.4700003,0-.8500004-.3800011-.8500004-.8499985V4.5299997C0,2.0299997,2.0299997,0,4.5299997,0h11.3899994c9.2099991,0,15.0699997,4.8199997,15.0699997,12.4700012l-.0099983-.0000019ZM19.7399988,12.4699993c0-2.4099998-1.4599991-3.8700008-4.5300007-3.8700008h-4.0599995v7.75h4.0599995c3.0699997,0,4.5300007-1.4599991,4.5300007-3.8699989v-.0100002Z"/>
  <path class="st0" d="M51.3900003,7.6199989v7.6100006c0,.5100002-.4399986.8999996-.9399986.8500004s-.9399986-.0699997-1.4199982-.0699997c-3.2099991,0-5.4799995,1.460001-5.4799995,5.5699997v10.6299992c0,.4700012-.3800011.8499985-.8499985.8499985h-8.9700012c-.4700012,0-.8499985-.3800011-.8499985-.8499985V8.0799999c0-.4699993.3800011-.8500004.8499985-.8500004h8.0999985c.6599998,0,1.2000008.5400009,1.2000008,1.2000008v1.5900002c1.7299995-1.9899998,4.2999992-3.0699997,7.4799995-3.2399998.4800034-.0300007.8799973.3700008.8799973.8500004v-.0100021Z"/>
  <path class="st0" d="M127.0200052,18.3199997v13.8899994c0,.4700012-.3800049.8499985-.8500061.8499985h-8.9700012c-.4700012,0-.8500061-.3800011-.8500061-.8499985v-12.0400009c0-3.2099991-1.1799927-4.4400005-2.8799973-4.4400005-1.8899994,0-3.3499985,1.2800007-3.3499985,4.7299995v11.7600002c0,.4700012-.3799973.8499985-.8499985.8499985h-8.9700012c-.4700012,0-.8499985-.3800011-.8499985-.8499985v-12.0400009c0-3.2099991-1.0899963-4.4400005-2.8799973-4.4400005-1.8899994,0-3.3499985,1.2800007-3.3499985,4.7299995v11.7600002c0,.4700012-.3799973.8499985-.8499985.8499985h-8.9700012c-.4700012,0-.8499985-.3800011-.8499985-.8499985V8.0999966c0-.4699993.3799973-.8500004.8499985-.8500004h8.4499969c.4700012,0,.8499985.3799992.8499985.8500004v1.5599995c1.9400024-1.9400005,4.4899979-2.8800011,7.3199997-2.8800011,3.0199966,0,5.6900024.9899998,7.5,3.1499996.3099976.3700008.8799973.3899994,1.2200012.0499992,2.0400009-2.0499992,4.8000031-3.2000008,7.9899979-3.2000008,5.8600006,0,10.3000031,3.4500008,10.3000031,11.5699997l-.0099945-.0299931Z"/>
  <path class="st0" d="M148.2799997,7.6199989v7.6100006c0,.5100002-.4400024.8999996-.9400024.8500004s-.9400024-.0699997-1.4199982-.0699997c-3.2100067,0-5.4799957,1.460001-5.4799957,5.5699997v10.6299992c0,.4700012-.3800049.8499985-.8500061.8499985h-8.9700012c-.4700012,0-.8500061-.3800011-.8500061-.8499985V8.0799999c0-.4699993.3800049-.8500004.8500061-.8500004h8.4499969c.4700012,0,.8500061.3799992.8500061.8500004v1.9300003c1.7299957-1.9899998,4.3000031-3.0699997,7.4799957-3.2399998.4799957-.0300007.8800049.3700008.8800049.8499985Z"/>
  <path class="st0" d="M177.0099955,22.6199989h-17.1600037c.7599945,1.9799995,2.5500031,3.0200005,5.1999969,3.0200005,2.0899963,0,3.3600006-.4799995,4.8000031-1.4700012.3399963-.2400017.8000031-.2000008,1.1000061.0999985l4.4700012,4.5c.3300018.3400002.3300018.8899994-.0099945,1.2200012-2.4700012,2.3400002-5.9400024,3.5400009-10.6799927,3.5400009-9.4900055,0-15.6399994-5.7200012-15.6399994-13.4200001s6.2799988-13.3700008,14.6399994-13.3700008c7.6499939,0,14.2200012,4.6300011,14.2200012,13.3699989,0,.5100002-.0399933,1.1299992-.0899963,1.7099991-.0299988.4399986-.3999939.7900009-.8500061.7900009l-.0000153.0100021ZM160.8399973,17.4699993h7.1399994c-.4299927-2.1700001-1.9799957-3.4500008-4.1600037-3.4500008-1.7700043,0-3.0899963.8099995-3.7700043,2.2399998-.2700043.5599995.1600037,1.2099991.7799988,1.2099991l.0100098.0000019Z"/>
  <path class="st0" d="M189.1499949,15.25c0-.6100006.7599945-1.2299995,3.5-1.2299995,1.8399963,0,4.0200043.3099995,6.25,1.2900009.5599976.25,1.1900024-.1599998,1.1900024-.7800007v-6.1200008c0-.3899994-.2599945-.7399998-.6399994-.8299999-2.1699982-.5499992-4.6000061-.8299999-6.9499969-.8299999-8.6900024,0-13.2299957,3.9699993-13.2299957,8.8299999,0,10.3500004,14.8800049,6.8000011,14.8800049,9.4499989,0,.75-.7100067,1.2299995-3.3099976,1.2299995-2.7599945,0-5.8600006-.6800003-8.2400055-1.8800011-.4299927-.2200012-.9600067,0-1.1499939.4500008l-2.2599945,5.4399986c-.1799927.4199982.0099945.9099998.4299927,1.0999985,2.7200012,1.2999992,6.9299927,2.1699982,10.9900055,2.1699982,8.9700012,0,13.3699951-4.0600014,13.3699951-8.7399979,0-10.3400002-14.8300018-6.8500004-14.8300018-9.5400009l-.0000153-.0099945Z"/>
  <path class="st0" d="M223.7200022,31.4599991c.1499939.4300003-.0700073.8899994-.4900055,1.0699997-1.5899963.6899986-3.6799927,1-5.8300018,1-7.1300049,0-11.2899933-3.3499985-11.2899933-10.4899979v-7.1399994h-2.2299957c-.4700012,0-.8500061-.3799992-.8500061-.8500004v-6.4499989c0-.4699993.3800049-.8500004.8500061-.8500004h2.2299957V.8500023C206.1100016.380002,206.4900064.0000019,206.9600077.0000019h8.9700012c.4700012,0,.8500061.3800001.8500061.8500004v6.8999996h4.4400024c.4700012,0,.8500061.3799992.8500061.8500004v6.4500008c0,.4699993-.3800049.8500004-.8500061.8500004h-4.4400024v7.0500011c0,1.6100006.9499969,2.5,2.2200012,2.5.5399933,0,1.0800018-.0999985,1.5899963-.2900009.4600067-.1800003.9799957.0400009,1.1399994.5l1.9900055,5.7799988-.0000153.0199966Z"/>
  <path class="st0" d="M80.000001,22.6199989h-17.1600037c.7600021,1.9799995,2.5500031,3.0200005,5.1999969,3.0200005,2.0899963,0,3.3600006-.4799995,4.8000031-1.4700012.3399963-.2400017.8000031-.2000008,1.0999985.0999985l4.4700012,4.5c.3300018.3400002.3300018.8899994-.0100021,1.2200012-2.4700012,2.3400002-5.9400024,3.5400009-10.6800003,3.5400009-9.4899979,0-15.6399994-5.7200012-15.6399994-13.4200001s6.2799988-13.3700008,14.6399994-13.3700008c7.6500015,0,14.2200012,4.6300011,14.2200012,13.3699989,0,.5100002-.0400009,1.1299992-.0899963,1.7099991-.0299988.4399986-.4000015.7900009-.8499985.7900009v.0100021ZM63.8300028,17.4699993h7.1399994c-.4300003-2.1700001-1.9800034-3.4500008-4.1600037-3.4500008-1.7699966,0-3.0899963.8099995-3.7699966,2.2399998-.2699966.5599995.1600037,1.2099991.7799988,1.2099991l.0100021.0000019Z"/>
</svg>