<?xml version="1.0" encoding="UTF-8"?>
<svg id="Layer_1" xmlns="http://www.w3.org/2000/svg" version="1.1" viewBox="0 0 752.7046597 390.1103529">
  <!-- Generator: Adobe Illustrator 29.1.0, SVG Export Plug-In . SVG Version: 2.1.0 Build 142)  -->
  <defs>
    <style>
      .st0 {
        fill: #f7e1c4;
      }
    </style>
  </defs>
  <path class="st0" d="M566.0389177,202.437097c.7399902-1.8099976.8300171-4.2200012,3.2700195-4.5700073,11.5700073-1.6499939,12.6199951-10.3299866,13.6400146-19.4599915.8800049-7.9100037-4.6799927-14.769989-3.9400024-22.0499878,1.3400269-13.2999878.0900269-25.3999939-8.3599854-36.25-2.9199829-3.75-7.2999878-7.9100037-7.4500122-12.019989-.6699829-18.2200012-9.5200195-32.7799988-18.9000244-47.2999878-4.4299927-6.8500061-9.7999878-12.6799927-18.7299805-11.6300049-3.2299805.3800049-4.2399902-.3099976-5.6599731-2.730011-9.9899902-17.0799866-37.3699951-29.230011-56.7700195-25.1400146-2.9699707.6199951-4.25-.8999939-5.75-2.769989-13.460022-16.9100037-47.9400024-23.8500061-65.7600098-13.9799957-2.6700134,1.4799957-6.2900085,3.8600006-8.5100098,3.0899963-12.5700073-4.3800049-24.5799866-2.9299927-37.5100098-.6900024-25.6900024,4.4600067-47.0899963,15.0200043-63.3099976,35.6100006-.9200134,1.1700134-2.4700012,2.269989-3.8900146,2.5400085-16.5299988,3.1600037-29.8800049,11.5899963-40.2099915,24.6100159-11.1000061,13.980011-17.4599915,29.769989-21.1700134,47.5400085-3.7099915,17.7900085,4.1700134,49.2799988,18.6099854,59.5499878,1.8299866,1.2999878,4.2900085,4.2399902,6.2600098,1.230011,1.6099854-2.4500122,2.5599976-6.7200012-.7399902-8.5899963-6.4100037-3.6400146-7.2099915-10.7399902-11.0100098-15.9299927-1.8500061-2.519989-2.9100037-5.6300049-1.5499878-8.9200134,1.3299866,2.1700134,2.6499939,4.3299866,3.9899902,6.5.7900085,1.269989,1.980011,2.4400024,2.3200073,3.8200073,1.2099915,4.8599854,4.8999939,2.769989,7.7399902,2.9899902.2000122.5.3800049,1.019989.5499878,1.5599976.1600037.5299988.730011.8200073,1.25.6600037.5299988-.1700134.8200073-.730011.6600037-1.25-.2200012-.7200012-.4700012-1.4299927-.769989-2.1199951.0299988-.5799866,0-1.1400146-.230011-1.5899963-.9899902-1.8999939-2.3299866-3.6300049-3.6199951-5.3599854-10.5400085-14.1300049-10.0400085-17.1300049,4.5-26.3200073,1.8800049-1.1900024,3.1600037-2.9299927,2.2799988-4.980011-1.0599976-2.4599915-3.3299866-1.480011-5.2200012-.8699951-5.1099854,1.6499939-8.9100037,5.1000061-12.230011,9.1199951-2.1700134,2.6300049-4.1799927,5.3900146-6.25,8.0899963-1.7900085-4.2799988-1.8099976-8.7099915-1.0799866-13.1900024.1000061-.6199951.4899902-1.2000122.75-1.7999878,3.519989,6.2099915,6.230011,1.2099915,7.9700012-1.1700134,5.8999939-8.0599976,13.0499878-14.6000061,21.5400085-19.7399902,3.4200134-2.0700073,6.5700073-.480011,9.3399963,1.3099976,2.2000122,1.4200134,2.9100037,4.1099854,2.519989,6.6499939-.1499939.9599915-1.5499878,2.2799988-2.5599976,2.4700012-3.8200073.7099915-10.3699951-3.5299988-10.8699951,2.5-.4599915,5.5700073,7.1400146,3.0100098,10.769989,4.9599915.4400024.2399902.9100037.4200134,1.3699951.6000061,3.8099976,1.4400024,6.2600098,3.9200134,5.730011,8.2600098-.5299988,4.3200073-4.269989,2.8999939-6.75,3.2799988-10.9899902,1.6799927-15.8599854,9.3200073-16.4200134,19.0499878-.4200134,7.3900146,7.4700012,8.1900024,12.7099915,10.4899902,1.0299988.4500122,2.3099976.3299866,3.5899963.2099915.6799927.2900085,1.3699951.5799866,2.0499878.8800049.5100098.2200012,1.0899963-.019989,1.3099976-.519989.2200012-.5100098-.019989-1.1000061-.519989-1.3099976-1.0400085-.4400024-2.0700073-.8900146-3.1099854-1.3299866-.25-.3399963-.4599915-.6900024-.5700073-1.0700073-1.2999878-4.3800049-3.0599976-8.230011-7.3099976-10.6499939-1.1600037-.6600037-1.1000061-3.0400085.3099976-3.3399963,6.8800049-1.4599915,14.2799988-6.2099915,20.4599915.8299866,3.4200134,3.8999939,7.0400085,3.2399902,10.4299927,1.6600037,3.2000122-1.4899902,1.4899902-4.9599915,1.0799866-7.6199951-.6400146-4.25-.6099854-8.269989,2.5-11.730011,2.0499878-2.2799988,4.7399902-5.8999939,2.5700073-7.7900085.1900024-.2999878.3800049-.6099854.5599976-.9100037.2900085-.4700012.1400146-1.0899963-.3299866-1.3800049s-1.0899963-.1400146-1.3800049.3299866h0c-.2799988.4599915-.5700073.9200134-.8500061,1.3800049-1.8699951.4899902-3.3200073,3.769989-4.7799988,5.6099854-1.5100098,1.8999939-3.1799927,5.1199951-4.8299866,5.1499939-2.6300049.0499878-3.1300049-3.5899963-3.519989-5.8399963-.4899902-2.8200073-4.8900146-5.769989-1.0400085-8.3699951,1.9700012-1.3299866,6.2099915,1.2799988,7.0499878-3.2799988.8099976-4.3999939-4.019989-3.1199951-5.4400024-5.2999878-1.4299927-2.1900024-3.4700012-4.2099915-4.1700134-6.6199951-4.1400146-14.2000122.25-24.1199951,13.3999939-31.0799866,1.7600098-.9299927,3.8299866-2.1799927,5.5700073-.6199951,2.1099854,1.8900146-.2099915,3.5799866-.9599915,5.25-5.0700073,11.3299866-9.1099854,22.8500061-6.7000122,35.5700073.2600098,1.3900146.5499878,3.3999939,2.5799866,2.8500061.8099976-.2200012,1.7399902-1.9899902,1.7099915-3.0299988-.4299927-12.9899902,2.9400024-25.019989,7.1700134-36.8099976.4100037-.75.8299866-1.5100098,1.269989-2.25.2000122-.3500061.1700134-.769989-.0499878-1.0799866,2.980011-8.019989,6.230011-15.9700012,8.8099976-24.0499878,1.1900024-3.7200012,2.8800049-7.6900024,5.1499939-11.4200134,1.6199951-1.1300049,3.5799866-1.9700012,6.1099854-2.3800049.5400085-.0899963.9200134-.6000061.8299866-1.1499939-.0899963-.5499878-.6000061-.9200134-1.1499939-.8299866h0c-1.2600098.2000122-2.4100037.5100098-3.4700012.9100037,2.3299866-3.1199951,5.1099854-5.9400024,8.4299927-8.1199951,3.5-2.2999878,8.1000061-2.8800049,12.0799866-4.5299988,9.6199951-4.0100098,10.980011,1.4200134,10.3599854,8.9599915-1.1799927,14.4400024,3.3599854,18.2900085,17.6300049,15.5899963,5.1400146-.9700012,8.3500061-4.3200073,12.3099976-6.980011,5.1199951-3.4299927,9.9400024-10.0400085,17.5-3.5299988,3.019989,2.6000061,7.6900024,3.3200073,8.8099976,8.019989-3.5100098.1099854-7.0299988.1799927-10.5400085.3399963-2.480011.1099854-5.2900085,1-5.4299927,3.4599915-.2000122,3.4400024,3.2099915,2.0100098,4.9899902,2.1300049,8.269989.5799866,11.2799988,3.7399902,8.9400024,12.5899963-3.6300049,13.7000122-8.7399902,26.4500122-17.3399963,37.7900085-1.4700012,1.9400024-3.7600098,5.0400085-2.1099854,6.9200134-.1199951.4200134.019989.8900146.4200134,1.1300049.4299927.2600098.9599915.1499939,1.2799988-.2200012,2,.1499939,3.3299866-3.0700073,4.2999878-4.8299866,5.5700073-10.0599976,11.2200012-19.75,24.2999878-21.3999939,1.5299988-.1900024,5.25-.019989,4.6199951-3.0899963-.6499939-3.2000122-3.6600037-4.2000122-6.769989-3.4100037-4.7999878,1.2200012-4.8800049-.2799988-3.269989-4.2999878,8.1499939-20.3099976,6.0400085-30.25-9.3299866-44.6199951-2.7000122-2.519989-1.6199951-4.4100037-.1700134-6.9299927,5.0599976-8.8399963,13.5700073-6.1100006,21.0400085-6.2899933,25.6799927-.6000061,42.2199707,12.5900116,47.25,37.2500153.1199951.6099854.4899902,1.1799927.8599854,1.75-.0599976.3999939-.1199951.7999878-.1900024,1.2099915-.0800171.5499878.289978,1.0599976.8400269,1.1400146.5499878.0799866,1.0599976-.2900085,1.1400146-.8399963.1199951-.75.2299805-1.5.3499756-2.25.2000122-.230011.3699951-.4599915.4299927-.730011,2.5700073-10.230011,8.8900146-8.2799988,15.7000122-4.980011,1.2800293.6199951,2.4400024,3.0700073,4.0499878.6400146,1.2399902-1.8599854,1.5499878-3.8999939.4400024-6.1199951-.9199829-1.8399963-4.3699951-1-3.9899902-3.9899902,2.3499756.7600098,4.7000122,1.5,7.039978,2.2900085,2.2000122.7399902,4.3499756,1.6799927,6.5999756,2.2600098,16.5700073,4.25,26.460022,18.980011,24.289978,35.9100037-1.0800171,8.3800049-5.9400024,16.0100098-4.7999878,24.8099976.8400269,6.4100037,3.289978,12.8599854,9.3599854,14.769989,6.5999756,2.0799866,12.3400269-1.5,16.3200073-7.7000122,4.3900146-6.8299866,6.7199707-13.9899902,6.1300049-22.1100159-.0700073-.9899902.6599731-2.0299988,1.0200195-3.0499878.4699707.4299927,1.210022.769989,1.3699951,1.2900085,3.0300293,10.1099854,12.9799805,18.3800049,7.960022,30.6700134-1.1599731,2.8500061.4199829,5.1799927,2.789978,7.3500061,12.25,11.2600098,20.0599976,23.9400024,12.3099976,41.2799988-1.0300293,2.3099976-.6400146,4.8500061,1.6900024,6.7399902,7.2299805,5.8599854,5.5300293,13.3699951,3.0499878,20.519989-1.0800171,3.1099854-4.3499756,5.6600037-8.0599976,3.519989-3.1300049-1.7999878-5.6199951-4.0799866-3.3699951-8.9100037,1.7399902-3.7399902,1.6599731-8.3800049,2.0800171-12.6499939.1300049-1.3399963.5-3.3999939-.8699951-4.1099854,0-.2900085,0-.5899963-.0100098-.8800049-.0200195-.5499878-.4799805-.980011-1.0300293-.9700012-.5499878.019989-.9799805.480011-.9699707,1.0299988h0c0,.25,0,.5100098.0100098.7600098-1.1599731.6099854-1.039978,2.5100098-1.0599976,3.75-.1199951,6.2999878-2.9699707,7.75-8.789978,5.8599854-4.2700195-1.3800049-8.8200073-1.6000061-13.25-.0400085-2.1799927.769989-4.4199829,3.9700012-6.5900269,1.3900146-2.2000122-2.6199951,1-5.1400146,1.789978-7.7099915,1.0300293-3.3399963,3.3499756-2.8699951,5.9899902-2.2399902,7.6799927,1.8200073,13.4199829-1.0299988,17.0300293-7.8900146.9699707-1.8399963,1.789978-4.6499939.5800171-6.1900024.0900269-.5100098.1699829-1.0100098.2700195-1.5.1099854-.5400085-.2399902-1.0700073-.7800293-1.1799927-.539978-.1099854-1.0700073.2399902-1.1799927.7799988h0c-.0800171.3900146-.1400146.769989-.210022,1.1499939-1.0499878.519989-1.4099731,2.8900146-2.2800293,3.980011-4.25,5.2999878-10.6099854,5.2399902-14.8499756,2.4599915-5.3599854-3.5299988.9199829-7.0599976,3.0300293-9.3699951,5.9099731-6.4899902,6.9500122-13.7000122,5.3200073-21.7600098-.3099976-1.5400085-1.039978-2.7900085-2.2600098-3.6199951-.0900269-.5700073-.1699829-1.1499939-.2600098-1.7200012-.0800171-.5499878-.5900269-.9200134-1.1400146-.8399963-.5499878.0799866-.9199829.5899963-.8400269,1.1400146h0c.1199951.7900085.2399902,1.5700073.3499756,2.3599854-.3200073.9700012-.6300049,1.9400024-.6799927,2.9200134-.2999878,6.019989-.0999756,12.6099854-4.8499756,16.7999878-6.7299805,5.9299927-8.7000122,13.7900085-11.4199829,21.6300049-5.4400024,15.6499939-7.4500122,34.269989-29.6300049,36.4899902-.789978.0799866-2.0100098,1.6099854-1.9799805,2.4299927.0300293.8500061,1.2000122,2.2000122,2.0900269,2.4100037,17.2299805,4.1499939,13.2199707,16.6700134,11.3599854,28.3999939-1.3300171,8.3900146-1.2700195,16,10.2199707,16.5499878.6900024.0299988,1.3499756.5499878,2.0200195.8500061-.7199707.269989-1.4199829.6300049-2.1699829.7999878-1.8499756.4400024-5.1199951-1.5799866-5.8800049.1400146-.1599731.1199951-.289978.269989-.3599854.480011-.1199951.3699951,0,.75.2600098,1.0100098.5200195,2.4599915,4.7199707,1.9299927,7.2199707,1.5899963,2.7399902-.3699951,5.5200195-1.3099976,8.0100098-2.5499878,20.1599731-9.9700012,28.3200073-29,36.1599731-48.230011l.0401611-.0401611ZM251.9489213,90.4970945c-13.1400146,6.4400024-22.3899841,16.2399902-28.6900024,29.1600037-2.1600037-14.9400024,12.6400146-40.5,26.7099915-45.8999939,3.2000122-1.230011,6.75-.3399963,7.4400024,2.8800049,1.1700134,5.4400024-.3699951,11.3599854-5.4599915,13.8500061v.0099792ZM262.2989274,59.2470945c-1.3900146,2.8999939.980011,8.0299988-4.7900085,8.7099915-1.9299927-1.7099915-6.980011-.2600098-5.9400024-3.25,1.3399963-3.8599854,4.6700134-7.7900085,9.6000061-8.4100037,2.0700073-.2600098,1.6099854,1.9500122,1.1300049,2.9500122ZM283.5189286,59.6371092c-3.3500061.75-6.3299866,3.1600037-9.4899902,4.7999878-.0799866-4.3299866,3.2900085-7.019989,5.019989-10.4899902,5.8399963-11.6799927,14.7600098-20.3200073,26.3500061-26.25.5799866-.2999878,1.1700134-.6099854,1.7799988-.8200073.0599976-.019989.3399963.6000061,1.0599976,1.8999939-12.2999878,6.9700012-7.5899963,27.0299988-24.730011,30.8699951l.0100098-.0099792ZM350.8489152,33.2571043c-1.2900085-.2099915-3.4599915-2.3599854-3.2600098-3.1400146,1.4599915-6.019989,1.4599915-12.4500122,3.1600037-18.1100159,1.2200012-4.0500031,8.0899963-1.6300049,12.3900146-2.1600037,7.1499939-1.3600006,13.3999939,1.5,19.7399902,4,2.4100037.9500122,4.0799866,2.769989,4.2099915,5.0899963.1499939,2.730011-2.8399963,2.4899902-4.5,2.8500061-5.5499878,1.1799927-9.1199951,5.2900085-13.25,8.5-5.7000122,4.4299927-12.0599976,4.0400085-18.480011,2.9700012l-.0099792.0000305ZM466.7889177,27.3871092c-.3499756.019989-.7299805-.5899963-1.0900269-.9100037.9199829-.230011,1.8400269-.5499878,2.7800293-.6499939.5100098-.0599976,1.0499878.2399902,2.9699707.7399902-2.4899902.4700012-3.5599976.7600098-4.6500244.8200073h-.0099487ZM536.9389421,96.6270994c-2.5100098,4.3299866-7.0200195,6.7900085-11.8800049,5.2799988-5.0900269-1.5799866-2.7600098-6.7099915-3.2199707-9.4400024.6599731-11.7099915,1.3099976-22.4400024,1.8699951-33.1799927.210022-4.1499939,2.5700073-5.1099854,6.0800171-4.1900024,4.6199951,1.2099915,7.25,4.7999878,8.8099976,8.8599854,4.2700195,11.0599976,4.4400024,22.1600037-1.6500244,32.6699829l-.0100098.0000305ZM550.7089616,223.5770811c-.1599731-.0700073-.3300171-.1199951-.5200195-.1000061h0c-.1900024.019989-.3900146.0299988-.5999756.0299988h-.1599731c-1.6900024-.9500122-4.3699951-.4700012-6.5599976-2.5400085,3.2399902,1.3800049,7.1300049-.8699951,7.8300171,2.6199951l.0099487-.0099792ZM550.7789689,225.5470823c-1.039978,2.6000061-2.2399902,5.0799866-4.8400269,6.5299988-.4000244-1.1400146-1.2000122-2.2999878-1.1400146-3.3999939.2399902-4.1700134,3.6699829-2.6499939,5.9799805-3.1300049h.000061ZM550.8089982,225.3370909h0ZM557.4689714,203.0870909c.8200073.519989,2.0100098.8500061,2.3900146,1.5899963.710022,1.3999939.7299805,2.6499939.4099731,3.8399963-.0800171.25-.1599731.5-.25.75-.6599731,1.730011-1.9199829,3.3299866-2.5900269,5.019989-.9099731,2.2900085-1.6599731,5.1300049-4.1199951,5.7399902-1.6500244.0100098-2.8200073-.4400024-3.6400146-1.1300049.289978-.1199951.5200195-.3500061.5999756-.6700134.1300049-.5400085-.1900024-1.0799866-.7299805-1.2099915-.4199829-.1099854-.8499756-.2099915-1.2700195-.3200073-.1900024-.6400146-.2700195-1.2999878-.2700195-1.9200134.0100098-6.1400146,9.1400146-5.4200134,9.460022-11.6900024l.0100708.000061ZM526.9889909,230.6670774c.0999756-.4599915.710022-1.0599976,1.1699829-1.1300049.5700073-.0799866,1.2000122.3299866,2.4699707.75-1.8499756,1.1199951-2.3400269,1.6199951-2.8599854,1.6499939-.2600098.0100098-.8599854-.8900146-.7800293-1.269989h.000061ZM521.898964,206.1070799c-.3200073-.0499878-.5700073-.5400085-.8499756-.8399963.4500122-.1600037.9000244-.4500122,1.3400269-.4400024.3300171,0,.6400146.3999939,1.2600098.8200073-.8499756.25-1.3300171.5299988-1.75.4599915h-.000061Z"/>
  <path class="st0" d="M508.5088884,128.5270933c-1.1300049,6.1600037-5.7199707,10.730011-10.1500244,15.0599976-.5900269.5799866-1.3599854.9599915-1.9899902,1.5-1.5499878,1.3299866-3.4099731,3.1000061-2.2000122,5,1.4799805,2.3299866,3.710022.4500122,5.1799927-.5799866,7.0499878-4.9599915,13.2199707-10.6600037,15.0200195-19.6700134.1699829-.8699951.8200073-1.6499939,1.25-2.4700012.1500244.7799988.25,1.5700073.4500122,2.3299866,2.1500244,7.8999939-1.0100098,15-3.2999878,22.25-.7199707,2.269989-4.3699951,5.0400085-1.1900024,6.7799988,2.7399902,1.5,5.3200073-1.8800049,6.0599976-4.5299988,3.1500244-11.3099976,7.0700073-22.1099854,14.2800293-31.2200012,1.1900024-1.1099854,2.2700195-2.2999878,3.210022-3.6099854.0700073-.1000061.1300049-.2000122.2000122-.2999878.8400269-.8699951,1.7000122-1.730011,2.6099854-2.5700073,1.4299927-1.2999878,2.9400024-4.9200134,1.1199951-6.5400085.0900269-.5299988.1699829-1.0599976.2399902-1.6099854.0599976-.5499878-.3300171-1.0400085-.8800049-1.1099854-.5499878-.0599976-1.039978.3299866-1.1099854.8800049h0c-.0700073.5899963-.1699829,1.1600037-.2700195,1.730011-1.0800171.9899902-1.9099731,3.480011-3.0300293,4.6900024-3.6900024,3.9599915-6.0200195,11.7600098-13.6699829,7.5299988-3.0200195-1.6700134-5.8200073-3.3200073-9.1500244-4.4899902-8.0800171-2.8399963-18.7000122-3.8299866-11.6799927-17.7200012,4-7.9100037,2.0800171-17.230011.8900146-25.9400024-.1699829-1.25-.289978-3.0499878-1.4199829-3.6700134-.039978-.3500061-.0900269-.6900024-.1300049-1.0400085-.0700073-.5499878-.5700073-.9400024-1.1199951-.8699951s-.9400024.5700073-.8699951,1.1199951h0c.0300293.2600098.0700073.5100098.0999756.769989-1.7299805.6799927-1.5300293,2.7999878-.9500122,4.3699951,1.4299927,3.8800049,1.3900146,7.8099976,1.3800049,11.8399963-.4799805,3.9400024-.4500122,8.0400085-1.5700073,11.7900085-1.1300049,3.769989-3.5900269,8.7099915-8.4000244,5.6499939-14.4400024-9.1900024-30.0499878-5.519989-45.2999878-4.8999939-4.5799866.1799927-9.0799866,2.9400024-13.5599976,4.6600037-.8699951.3299866-2.0299988.8699951-2.0400085,1.8299866-.0700073.2200012-.0799866.4500122.019989.6799927.2000122.4899902.7399902.7200012,1.2399902.5599976.6799927-.0100098,1.5799866-.2000122,2.1400146-.4400024,7.2399902-3.2200012,14.5200195-4.5100098,22.6799927-3.9899902,16.4899902,1.0400085,30.1300049,8.7900085,43.75,16.6700134,4.4299927,2.5599976,13.960022-.1000061,12.1900024,9.6099854l-.0299683-.0299988Z"/>
  <path class="st0" d="M358.4289018,50.9270872c.7399902-4.980011-3.8999939-6.2399902-7.6499939-6.7200012-6.7900085-.8599854-13.1499939,1.0599976-19.0400085,4.4500122-2.019989,1.1600037-4.0700073,2.980011-6.3699951,1.4299927-2.2900085-1.5400085-1.5499878-4.3099976-1.1199951-6.4700012,1.3800049-6.9100037,3.8599854-13.3800049,8.2399902-19.0499878,1.3299866-1.730011,2.5599976-4.2200012.9100037-5.9599915-2.1099854-2.2200012-3.25.9899902-4.7999878,1.7999878-8.3500061,4.3699951-9.2999878,12.8999939-11.2099915,20.7000122-1.1499939,4.6799927.3900146,12.2200012-2.2600098,13.9599915-15.0700073,9.9200134-14.1900024,25.2900085-14.519989,39.75-.230011,10.019989,2.4700012,20.1600037,14.4700012,23.5599976,1.9100037.5400085,4.3999939,2.1600037,5.5499878-.8999939.9299927-2.4599915-.1799927-4.3299866-2.6000061-5.7200012-7.6199951-4.3399963-12.8200073-10.1499939-11-18.6499939.3699951-23.7999878,21.480011-42.7399902,44.2799988-41.019989,2.4100037.1799927,6.3299866,4.2200012,7.1300049-1.1900024l-.0100098.0299683Z"/>
  <path class="st0" d="M442.4488908,68.9270872c2.5900269-7.1700134,4.4099731-7.4200134,10.0599976-2.6000061,13.1500244,11.2099915,29.2600098,9.6099854,36.539978-2.9400024.8300171-1.4400024,1.9099731-2.9899902,1.289978-4.7799988.1400146-.2799988.289978-.5499878.4199829-.8399963.2399902-.5.0200195-1.1000061-.4799805-1.3299866-.5-.2399902-1.0900269-.019989-1.3300171.480011-.5800171,1.2399902-1.2199707,2.3900146-1.9000244,3.4599915-.210022.1700134-.4099731.3399963-.6099854.5100098-7.0499878,5.6799927-14.6500244,11.7200012-23.9899902,7.1199951-8.2700195-4.0700073-18.1599731-7.9700012-18.0300293-20.2200012,2.9099731-12.5-8.4899902-19.8299866-11.25-30.4700012-.6700134-2.6000061-5.5400085-2.5400085-8.6799927-1.980011-1.1400146.2099915-2.730011,1.6700134-2.9100037,2.7600098-.519989,3.1400146,2.7799988,3.230011,4.4700012,4.5499878,4.2000122,3.2799988,7.7900085,6.9299927,11.0299988,11.2999878,11.519989,15.5700073-3.0799866,56.2099915-26.1300049,62.1600037-3.7799988.980011-7.2000122,3.3500061-10.6700134,5.5299988-1.4500122.3800049-2.9400024.6099854-4.480011.6099854h-.3200073c-.5499878,0-1,.4400024-1.0100098.9899902,0,.5499878.4400024,1,.9899902,1.0100098h.3399963c1.4700012,0,2.8699951-.1900024,4.230011-.4899902,4.6700134.2099915,8.8299866-1.8999939,13.0799866-3.6900024,1.0299988-.4299927,2.3099976-.2600098,3.4700012-.3699951-.8900146.6400146-1.7399902,1.3599854-2.6799927,1.9100037-.7099915.4100037-1.4400024.7999878-2.1600037,1.1900024-.0400085,0-.0799866.019989-.1199951.019989-1.4599915.269989-2.9899902.5-4.4700012.9599915-.5299988.1600037-.8200073.730011-.6600037,1.25.1700134.5299988.730011.8200073,1.25.6600037.5100098-.1600037,1.0499878-.2900085,1.6099854-.4100037,2.1900024.6099854,4.2399902-.5700073,6.2399902-1.2900085,1.6700134-.6000061,3.0400085-1.980011,4.6600037-2.7799988,13.4299927-6.6099854,17.6600037-19.75,22.1700134-32.2900085l.0301514.0100403Z"/>
  <path class="st0" d="M752.6388932,18.1971067c-1.5200195-2.4500122-3.2299805-.8099976-5.0900269.480011-3.0100098.980011-6.0100098,1.9700012-9.0100098,2.9599915-26.4500122,8.1199951-52.2999878,18.0700073-79.5700073,23.7600098-19.2700195,4.019989-37.5599976,12.2799988-57.1400146,15.6300049-.5700073.1000061-1.1300049.2200012-1.6799927.3599854-.1599731,0-.3200073-.0299988-.4799805-.0299988-1.6099854,0-3.1400146.3500061-4.5200195.480011-.5499878.0499878-.960022.5400085-.9000244,1.0899963.0499878.5499878.539978.9500122,1.0900269.8999939.25-.019989.5-.0599976.75-.0899963,1.6099854,1.519989,4.1099854-.4200134,5.8099976.6000061-1.1300049,1.9700012-4.8499756,1.6799927-6.039978,2.6600037-.5999756.1099854-1.2000122.2200012-1.8099976.3399963-.539978.1099854-.8900146.6300049-.789978,1.1799927.1099854.5400085.6300049.8900146,1.1799927.7900085.5300293-.1099854,1.0700073-.2000122,1.6099854-.2999878,1.5200195,1.4299927,5.3800049-1.3699951,7.9400024-2.519989,1.0599976-.480011,2.1300049-.9299927,3.2199707-1.3399963,13.9500122-5.1799927,28.0800171-9.8099976,42.2799683-14.1700134,6.0700073-1.7799988,12.1599731-3.5,18.289978-5.0700073,14.539978-3.7200012,28.8599854-8.2200012,43.1099854-12.9299927,11.2999878-3.3200073,22.5599976-6.7399902,33.7600098-10.3900146,3.0599976-1,8.7800293-3.1099854,7.9799805-4.3999939l.0101318.0099792Z"/>
  <path class="st0" d="M517.6988908,259.1071104c-3.1500244-1.3500061-4.5800171,1.6400146-5.5100098,4.2600098-3.3800049,9.4500122-9.0800171,15.6799927-19.8900146,16.8900146-7.1799927.7999878-13.2199707,5.0999756-18.7600098,9.7700195-1.6599731,1.4000244-3.2399902,2.9799805-1.3800049,4.9299927,1.7800293,1.8699951,4.1699829.7700195,5.0999756-.9799805,3.5300293-6.6599731,8.8800049-8.2199707,13.6400146-6.5100098,8.5300293.1199951,14.9500122.0599976,18.5100098-6.7600098,2.6799927-5.1400146,5.4899902-10.2199707,7.9000244-15.480011.8499756-1.8500061,4.2999878-4.4400024.4000244-6.1099854l-.0100098-.0100403Z"/>
  <path class="st0" d="M488.0088884,122.1770872c.3599854-.230011.039978-2.7200012-.5-2.9599915-1.539978-.6799927-3.7999878-1.5400085-4.9899902-.8999939-7.0599976,3.8200073-15.1699829,6.2099915-19.8900146,13.4500122-.1099854.1700134-.2299805.3699951-.3599854.5799866-.8599854.6900024-1.6699829,1.3999939-2.4799805,2.0299988-.4400024.3399963-.5200195.9700012-.1799927,1.3999939.3400269.4400024.9699707.5100098,1.4000244.1799927.2399902-.1900024.4699707-.3800049.710022-.5799866,1.2299805.6300049,2.2399902-.6700134,3.3200073-1.3200073,6.1099854-3.7000122,10.5499878-10.2399902,21.8400269-11.3800049-1.7399902.5499878-.1400146.2900085,1.1199951-.5100098l.0098877.0100098Z"/>
  <path class="st0" d="M662.8288957,99.6971067c-14.8900146,1.7900085-29.5200195,5.6700134-44.6699829,5.2999878-1.7600098-.0400085-3.9099731.0599976-4.0200195,1.9599915-.1699829,2.8200073,2.3099976,1.5700073,3.7000122,1.480011,4.8099976-.3399963,9.5700073-1.1900024,14.3699951-2.1099854,8.539978-.9700012,17.0800171-1.9299927,25.6199951-2.8999939,1.2399902.0499878,2.5.1400146,3.7700195.2799988.7600098-.230011,2.0800171-.6300049,3.5599976-1.1099854,1.0300293-.1199951,2.0700073-.230011,3.0999756-.3500061.5499878-.0599976.9400024-.5599976.8800049-1.1099854s-.5599976-.9400024-1.1099854-.8800049h0c-.2600098.0299988-.5300293.0599976-.789978.0899963-.0300293-.0799866-.0599976-.1300049-.0900269-.1400146-1.4199829-.2999878-2.9099731-.6799927-4.3200073-.5100098Z"/>
  <path class="st0" d="M221.938881,255.7470945c-.3599854-.3999939-.9700012-.4599915-1.3800049-.1099854h0c-.1400146.1099854-.2799988.2200012-.4100037.3299866-.2999878.0700073-.5700073.1799927-.7799988.3599854-4.0700073,3.4299927-8.3099976,6.5899963-12.6700134,9.5700073-4.9500122,3.2999878-10.0400085,6.4000244-15.2000122,9.4099731-.7600098.4299927-1.5100098.8599854-2.2799988,1.2800293-.0700073.039978-.1199951.0999756-.1900024.1500244-.4299927.25-.8599854.5-1.2999878.75-.480011.2800293-.6400146.8900146-.3699951,1.3699951.2799988.4799805.8900146.6400146,1.3699951.3699951.4400024-.25.8800049-.5100098,1.3200073-.7600098.0799866-.039978.1700134-.0800171.25-.1300049.0700073-.0499878.1499939-.0999756.2200012-.1400146,9.6700134-5.5999756,19.2200012-11.4400024,28.0599976-18.3900146.7099915-.4700012,1.4200134-.9299927,2.1199951-1.3999939.3299866-.2200012.5799866-.5599976.7999878-.9599915.1099854-.0899963.230011-.1799927.3399963-.269989.3200073-.2600098.4299927-.6799927.3200073-1.0499878.0799866-.1499939.1499939-.2999878.2399902-.4400024-.1400146.0299988-.2900085.0499878-.4500122.0700073l-.0099487-.0100098Z"/>
  <path class="st0" d="M189.668892,263.8370909c-.2600098.1700134-.4700012.4299927-.6700134.7000122-.2600098.1700134-.5299988.3399963-.7900085.5100098-.4700012.2999878-.6000061.9200134-.2999878,1.3800049.2999878.4699707.9200134.5999756,1.3800049.2999878,0,0,.0100098,0,.019989-.0100098.1600037.0900269.3299866.1900024.5299988.3099976,8.1400146-5.3200073,16.4400024-10.7399902,24.7000122-16.230011.0899963-.0599976.1000061-.2399902.0700073-.4700012.1400146-.2999878.1400146-.6499939-.0499878-.9500122-.0400085-.0599976-.0899963-.1000061-.1400146-.1400146,0-.0499878-.019989-.1099854-.019989-.1600037-.0400085,0-.0799866.0100098-.1099854.019989-.3200073-.2200012-.7600098-.25-1.1099854-.019989h0c-.1199951.0799866-.2399902.1499939-.3599854.230011-.5499878.0799866-1.0700073.2000122-1.5.4700012-7.2600098,4.6099854-14.4700012,9.3099976-21.6400146,14.0599976l-.0100403.0000305Z"/>
  <path class="st0" d="M586.648903,24.707086c-2.6300049.8900146-5.1599731,1.9599915-7.5999756,3.1700134-4.6699829,2.1900024-9.1300049,4.7600098-13.3099976,7.8599854-.1500244.1099854-.289978.2600098-.4099731.4200134-.2000122.1400146-.4099731.269989-.6099854.4100037-.460022.3099976-.5800171.9299927-.2700195,1.3900146l.0100098.0100098c0,.0100098,0,.0299988-.0100098.0400085-.0499878.1300049.960022.6499939,2.210022,1.4500122,1.5599976-2.1099854,3.3800049-3.8099976,5.3499756-5.25,2.1799927-1.3699951,4.4000244-2.6700134,6.6699829-3.8500061,2.8099976-1.3200073,5.7299805-2.4700012,8.5900269-3.730011.75-.25,1.5-.5100098,2.2700195-.730011.5300293-.1499939.8400269-.7000122.6900024-1.230011s-.7000122-.8399963-1.2299805-.6900024h0c-.7199707.2099915-1.4299927.4500122-2.1300049.6900024-.0200195,0-.039978,0-.0599976.0100098-.039978.019989-.0800171.0299988-.1199951.0499878l-.0401001-.0200195Z"/>
  <path class="st0" d="M610.6988908,101.7271055s-.0499878.0400085-.0800171.0599976h.0100098c.0200195-.019989.0499878-.0299988.0800171-.0499878h0l-.0100098-.0100098Z"/>
  <path class="st0" d="M623.8489152,97.187097c1.8400269-.2900085,3.6900024-.5700073,5.539978-.9500122.539978-.1099854.8900146-.6400146.7800293-1.1799927-.1099854-.5400085-.6400146-.8900146-1.1799927-.7799988h0c-.7299805.1499939-1.4799805.2799988-2.2199707.4100037-1.1699829-.3299866-2.3699951.2399902-3.5200195.5700073-1.3900146.2200012-2.789978.4400024-4.1900024.7200012-1.6199951.3200073-3.25.7099915-4.8499756,1.230011-1.0800171.269989-2.1599731.5400085-3.2399902.8299866-.6400146.1700134-1.1599731.7399902-1.6900024,1.3200073l-.0599976.0299988c-.1900024.1099854-.3099976.269989-.3900146.4500122-.0999756.1000061-.2000122.2000122-.2999878.2900085.0700073.0499878.1400146.1000061.2000122.1499939,0,.1600037.0300293.3299866.1199951.480011.2299805.3999939.7000122.5700073,1.1300049.4500122.2399902.1799927.4799805.3500061.7199707.5299988,3.4899902-2.8299866,7.7299805-3.4599915,11.9699707-4.230011.4000244-.0700073.789978-.1799927,1.1799927-.2999878v-.02005Z"/>
  <path class="st0" d="M78.7788926,219.687097c-.1199951.1499939.2100067.6799927.7299957,2.2200012.9299927-1.4599915,1.5200043-2.2399902,1.9100037-3.1000061.1000061-.230011-.3899994-.7200012-.6100006-1.1000061-.6900024.6499939-1.4199982,1.2600098-2.0399933,1.980011h.0099945Z"/>
  <path class="st0" d="M147.7188951,11.767114h0c.0899963.0599976.1900024.1300049.2799988.1900024.0500031.0499878.0800018.1099854.1399994.1400146,3.2100067,2.2099915,6.4199982,4.3999939,9.6399994,6.5899963,4.1399994,2.8500061,8.2700043,5.6900024,12.4100037,8.5400085.4499969.3099976,1.0800018.2000122,1.3899994-.2600098.3099976-.4599915.1999969-1.0799866-.2599945-1.3900146-5.3000031-3.6499939-10.6100006-7.2999878-15.9100037-10.9500122-2.2599945-1.7000122-4.5099945-3.4100037-6.7700043-5.1100006-.6499939.4400024-1.3500061.7599945-1.3099976.9199982.0099945.0499878.0299988.1000061.0399933.1499939-.1600037.4200134-.0399933.9100037.3500061,1.1799927v.0000305Z"/>
  <path class="st0" d="M624.1688615,192.9070982c-.1099854-.0799866-.2199707-.1600037-.3300171-.2399902,7.1900024,1.9500122,14.3800049,3.8900146,21.5700073,5.8399963.5300293.1400146,1.0800171-.1700134,1.2299805-.7000122.1400146-.5299988-.1699829-1.0799866-.7000122-1.230011-.0200195,0-.039978-.0100098-.0599976-.019989-.1799927-.230011-.3599854-.4200134-.5900269-.4899902-11.289978-3.3699951-22.6099854-6.6700134-35.3200073-10.3999939.0100098,0-1.9099731-.3699951-1.9899902,1.730011-.0999756,2.6700134,1.8099976,4.3500061,4.2299805,4.8800049,4.7399902,1.0299988,9.3900146,2.3099976,13.9699707,3.7900085,3.8699951,1.7000122,7.8499756,3.0299988,11.8099976,4.3399963,2.4099731,1,4.7999878,2.0400085,7.1799927,3.1499939,1.0499878.4899902,2.75,1.6499939,3.4099731-.2200012.5900269-1.6700134-.8599854-1.7799988-2.0800171-2.1199951-1.7000122-.6300049-3.4000244-1.2200012-5.1099854-1.7900085-4.7199707-1.6600037-9.4299927-3.3599854-14.1199951-5.0700073-1.039978-.4500122-2.0700073-.9299927-3.0900269-1.4400024l-.0098267-.0100098Z"/>
  <path class="st0" d="M686.4988786,249.4871153c-.2800293-.1099854-.5599976-.230011-.8400269-.3399963-.2999878-1.1900024-2.5200195-1.6099854-3.8900146-2.1000061-5.6699829-2.019989-11.2800293-4.1700134-16.8400269-6.4299927-9.3900146-3.9899902-18.7000122-8.1499939-27.8599854-12.6000061-9.0499878-4.5-17.960022-9.3299866-26.75-14.4599915.0999756-.1000061.210022-.1900024.3200073-.2600098,1.2600098.3900146,2.5100098.7799988,3.7700195,1.1700134.5300293.1600037,1.0900269-.1300049,1.25-.6600037s-.1300049-1.0899963-.6599731-1.25h0c-.9500122-.2999878-1.9000244-.5899963-2.8499756-.8800049-2.8800049-1.6099854-6.1400146-2.7000122-9.2700195-3.8999939-.289978-.1099854-.960022.2000122-1.4799805.5700073-.289978-.0899963-.5900269-.1799927-.8800049-.269989-.5300293-.1600037-1.0900269.1300049-1.25.6600037s.1300049,1.0899963.6599731,1.25c.3400269.1000061.6699829.2099915,1.0100098.3099976.8900146,2.8599854,3.960022,3.4200134,6.3499756,4.6799927,5.0599976,2.6700134,10.1199951,5.3099976,15.210022,7.9200134,7.2800293,3.8500061,14.6599731,7.4700012,22.1199951,10.9299927,9.210022,4.3500061,18.5300293,8.4599915,28.0100098,12.2099915,3.1900024,1.3200073,6.3800049,2.6199951,9.5800171,3.9100037.9000244.6900024,1.8599854,1.5700073,2.6400146,1.0599976.2999878.1199951.5900269.2399902.8900146.3599854.5100098.2099915,1.0900269-.0400085,1.2999878-.5599976.210022-.5100098-.039978-1.1000061-.5599976-1.2999878l.0199585-.0200195Z"/>
  <path class="st0" d="M7.5388871,25.3271116c.2799988.1300049.5500031.269989.8300018.3999939-.1399994.0899963-.2699966.1900024-.3899994.25.6399994.6600037,1.1699982,1.6600037,1.9499969,1.9299927,3.1299973,1.1000061,6.2900009,2.1499939,9.9000015,3.3299866,2.2300034,1.0499878,4.4700012,2.0700073,6.75,3.019989,11.3799973,4.7200012,20.7200012,13.1300049,31.859993,18.980011.4900055.2600098,1.0899963.0700073,1.3500061-.4200134.2599945-.4899902.0700073-1.0899963-.4199982-1.3500061-4.5800018-2.3900146-8.8899994-5.2799988-13.2399979-8.1900024-1.0400009-.7099915-2.0999985-1.4100037-3.1600037-2.1000061-4.9400024-3.269989-10.0100021-6.4200134-15.6200027-8.7600098-1.7799988-.7399902-3.5400009-1.5299988-5.3000031-2.3399963-1.5800018-.8999939-3.1600037-1.6199951-4.7399979-2.2399902-2.9599991-1.4400024-5.9199982-2.8999939-8.9199982-4.3200073-.5-.2399902-1.0999985-.019989-1.3300018.480011-.2399979.5-.0199966,1.1000061.4800034,1.3299866v.000061Z"/>
  <polygon class="st0" points="7.5388871 25.3271116 7.5388871 25.3271116 7.5388871 25.3171018 7.5388871 25.3271116"/>
  <path class="st0" d="M613.1088639,388.0170835c.0200195-.0800171.039978-.1599731.0700073-.2399902-1.0100098-1.5-1.9000244-3.1099854-3.0499878-4.5-4.1099854-4.9299927-8.4699707-9.6900024-12.710022-14.539978-3.5499878-4.3699951-7.0700073-8.7600098-10.5599976-13.1799927-.5900269-.8300171-1.1900024-1.6500244-1.75-2.4899902-15.2000122-22.8499756-33.5-43.3400269-49.0299683-65.9099731-1.3800049-2.0100098-3.4299927-5.3099976-6.1799927-3.6500244-2.5499878,1.539978.2299805,3.7600098,1.4500122,5.2999878,15.0800171,19.1300049,30.1599731,38.2600098,45.3599854,57.289978,2.5900269,3.25,5.2000122,6.4799805,7.8099976,9.7199707,9,11.4299927,18.2800293,22.6199951,27.4199829,33.9199829.3499756.4299927.9799805.5,1.4099731.1500244s.5-.9799805.1500244-1.4099731c-.1300049-.1599731-.25-.3099976-.3800049-.460022h-.0100098Z"/>
  <path class="st0" d="M568.1988908,318.0571226c.4099731.2600098.8400269.4400024,1.2700195.5800171,1.75,1.2800293,3.9799805,1.6900024,6.0499878,2.3900146.0999756.25.1900024.539978.25.9000244.0900269.539978.6099854.9099731,1.1599731.8200073.539978-.0900269.9099731-.6099854.8200073-1.1599731-.1300049-.75-.3599854-1.4000244-.6799927-1.9400024-.6099854-2.460022-4.1500244-2.8400269-5.0800171-5.0800171-.1900024-.4500122-.5200195-.8400269-.8300171-1.2299805-2.3400269-3.0499878-4.6799927-6.0900269-7.0200195-9.1400146-2.789978-4.0300293-5.6400146-8.0300293-8.6699829-11.9099731-2.1300049-2.7199707-3.9699707-6.1400146-6.4799805-8.960022-.9099731-1.0200195-1.9199829-1.960022-3.0599976-2.7399902-.7800293-1-1.5499878-2.0100098-2.3300171-3.0100098-.4500122-.5800171-1.0999756-.9899902-1.7999878-1.3800049-.0100098-.039978-.0300293-.0800171-.039978-.1199951-.1500244-.5300293-.710022-.8400269-1.2399902-.6799927-.0300293,0-.0599976.0300293-.0900269.0499878-.1099854-.0599976-.210022-.1300049-.3099976-.1900024-.0100098.1400146-.0200195.289978-.0300293.4299927-.2299805.25-.3499756.5999756-.25.9500122h0c.039978.1500244.0999756.289978.1400146.4400024-.0300293.4400024-.0700073.8800049-.0999756,1.3300171-.4799805-.0499878-.9699707-.0800171-1.4799805-.0800171-.3800049,0-.7600098.0100098-1.1599731.039978-.5499878.039978-.9699707.5200195-.9299927,1.0700073s.5200195.9699707,1.0700073.9299927h.1699829c.4799805.5800171,1.4199829,1.2000122,2,1.7800293,1.789978,1.789978,3.4500122,3.7000122,5.0200195,5.6599731,1.9500122,3.4699707,4.210022,6.7199707,6.6099854,9.8499756,1.5599976,2.039978,3.1900024,4.0300293,4.8300171,6,2.3400269,3.210022,4.7999878,6.3099976,7.5800171,9.1699829.8099976,1.0100098,1.6099854,2.0300293,2.3900146,3.0700073.2000122.2700195.5100098.3900146.8200073.3800049,0,.2000122.0300293.4000244.1500244.5700073h0c.3499756.5200195.789978.9299927,1.2600098,1.2299805l-.0101318-.0200195ZM546.2189103,286.6271299c-.6799927-1.2299805-1.3099976-2.4899902-1.9000244-3.7700195,2.3400269,1.8800049,4.460022,3.9500122,6.4199829,6.1500244,1.0200195,1.5200195,2.039978,3.0800171,3.1599731,4.5200195,5.5999756,7.1799927,10.6400146,14.8300171,15.8599854,22.3900146-.2199707.0800171-.5599976.0900269-.9000244.0900269-.0900269-.0900269-.1799927-.1699829-.2600098-.289978-.2000122-.289978-.5200195-.4299927-.8499756-.4199829,0-.210022-.039978-.4299927-.1799927-.6199951-2.3300171-3.0999756-4.8099976-6.0800171-7.289978-9.0300293-4.6900024-6.3400269-9.3800049-12.6799927-14.0700073-19.0200195l.0100708-.000061Z"/>
  <polygon class="st0" points="103.9788896 24.3471006 103.9788896 24.3471006 103.9788896 24.3471006 103.9788896 24.3471006"/>
  <path class="st0" d="M103.9788896,24.3471006s.0399933.019989.0599976.019989c-.1100006.1900024-.1699982.3599854-.1399994.4700012.8399963,2.6300049,3.6000061,1.8900146,5.3899994,2.9100037,3.8699951,2.230011,7.9299927,4.1900024,11.5899963,6.7099915,8.4100037,5.8099976,16.8099976,11.6499939,25.1999969,17.5,1.4900055,1.3099976,3.0500031,2.5100098,4.6600037,3.6400146,2.5700073,1.7999878,5.2400055,3.4200134,7.8500061,5.0700073,3.25,2.2600098,6.5,4.5299988,9.7599945,6.7900085,4.0899963,3.0700073,8.1799927,6.2099915,12.6900024,8.7999878.5299988.3599854,1.0500031.730011,1.5800018,1.0899963,1.4499969,1,3.9300079,3.0400085,5.1500092,2.1300049.2099915.0799866.4200134.1700134.6400146.25.519989.1900024,1.0899963-.0799866,1.2799988-.6000061.1900024-.519989-.0799866-1.0899963-.6000061-1.2799988-.2900085-.1099854-.5799866-.230011-.8699951-.3399963-.6700134-1.0499878-3.0299988-1.3299866-4.1999969-2.1199951-6.2299957-4.230011-12.4799957-8.4400024-18.7299957-12.6499939-.8200073-.5799866-1.6399994-1.1600037-2.4799957-1.7200012-.7100067-.4700012-1.4199982-.9299927-2.1300049-1.3800049-3.9700012-2.6700134-7.9299927-5.3399963-11.8999939-8.0100098-.7200012-.5799866-1.4299927-1.1900024-2.1100006-1.8200073,12.3000031,6.1900024,23.8000031,13.5899963,35.3000031,20.980011,1.1300049.730011,2.1699982,1.9400024,3.6399994,1.5400085.2099915.1199951.4299927.230011.6499939.3500061.480011.2600098,1.0899963.0899963,1.3599854-.3999939.2600098-.4899902.0799866-1.0899963-.3999939-1.3599854-1.8500061-1.0100098-3.6999969-1.9500122-5.4600067-2.9899902-.1799927-.1099854-.3600006-.2200012-.5399933-.3200073-13.2700043-8.6099854-26.5800018-17.1700134-39.8800049-25.730011,0,0,0-.019989.0099945-.0299988-.0299988,0-.0599976-.0100098-.0800018-.019989l.0599976.0599976c-1.5399933-.6000061-3.2299957-.9599915-4.6000061-1.8200073-8.1499939-5.1099854-16.3600006-10.1499939-24.2700043-15.6099854-1.8999939-1.3099976-3.6699982-1.1700134-5.4600067-1.0100098-.75-.3399963-1.5200043-.6600037-2.2899933-.9700012-.5099945-.2000122-1.0899963.0499878-1.3000031.5700073-.1999969.5100098.0500031,1.0899963.5700073,1.2999878v-.0000305Z"/>
  <path class="st0" d="M367.5188981,104.2371153h-.1900024c-.7600098,0-1.4700012-.0499878-2.1300049-.1499939-.0899963-.1000061-.1700134-.2000122-.2799988-.269989-6.3399963-4.1300049-5.9500122-9.6700134-2.7000122-15.1900024,6.480011-10.9899902,15.4100037-20.0700073,23.7999878-29.6000061,8.5599976-9.7200012-10.769989-1.019989-6.1000061-8.6900024-.1900024.0100098-.3900146,0-.5899963,0-.0899963-.1400146-.2099915-.269989-.3699951-.3599854-.4899902-.2600098-1.0899963-.0700073-1.3500061.4200134h0c-.4500122.8500061-.6600037,1.6700134-.6600037,2.4400024,0,.75.2099915,1.4299927.5,2.019989-.2399902,8.8699951-7.980011,14.0100098-12.0599976,20.8600159-4.0400085,6.7900085-9.7600098,12.6000061-10.3699951,21.019989-.1700134,5.9899902,2.5400085,9.519989,8.5799866,10.1300049.769989.0799866,1.5799866-.3800049,2.3900146-.6900024.4400024.0299988.8800049.0499878,1.3399963.0499878h.1900024c.5499878,0,1-.4500122,1-1s-.4500122-1-1-1l.0000305.0099792Z"/>
  <path class="st0" d="M61.5488969,55.2871031c1.0299988.3900146,2.0500031.8099976,3.0800018,1.2099915.5800018.5400085,1.1799927,1.0400085,1.8600006,1.3900146,20.6900024,10.5799866,41.4799957,20.9899902,62.1600037,31.6000061,11.8099976,6.0599976,23.4499969,12.4599915,35.2200012,18.5899963.6900024.3599854,1.4799957.519989,2.2899933.6400146.7200012.4100037,1.4900055.75,2.3500061.980011.5299988.1400146,1.0800018-.1799927,1.2200012-.7099915s-.1799927-1.0799866-.7100067-1.2200012c-.3099976-.0799866-.6100006-.2000122-.9100037-.3299866-2.1999969-2.1700134-4.1900024-4.9700012-6.8500061-6.0400085-19.0700073-7.5799866-36.2099915-18.8200073-54.3399963-28.1600037-12.5599976-6.4700012-24.6199951-14.1300049-39.3200073-17.730011-1.7799988-.7200012-3.5500031-1.4299927-5.3500061-2.1000061-.5200043-.1900024-1.0899963.0700073-1.2899933.5899963-.1900024.519989.0700073,1.0899963.5899963,1.2900085l.0000153-.0000305Z"/>
  <polygon class="st0" points="61.5488969 55.2871031 61.5488969 55.2871031 61.5488969 55.2871031 61.5488969 55.2871031"/>
  <path class="st0" d="M698.1589128,190.5471128c-3-.1700134-5.9899902-.3299866-8.9899902-.5-.5499878-.0299988-1.0200195.3900146-1.0499878.9400024-.0300293.5499878.3900146,1.019989.9400024,1.0499878h0c1.0200195.0599976,2.039978.1099854,3.0499878.1700134.5800171.1799927,1.1500244.3200073,1.710022.2799988.9199829-.0599976,2.1699829.5799866,3-.019989.4099731.019989.8200073.0499878,1.2299805.0700073.5499878.0299988,1.0200195-.3900146,1.0499878-.9400024.0300293-.5499878-.3900146-1.019989-.9400024-1.0499878v-.0000305Z"/>
  <path class="st0" d="M496.2388688,182.2871031c-.4299927.3399963-.5.9700012-.1599731,1.3999939.1099854.1300049.210022.2600098.3099976.3800049.1099854.3999939.3300171.9299927.5800171,1.0899963.8200073.519989,1.5800171.5599976,2.3099976.3999939.210022-.0299988.4099731-.0899963.5900269-.1799927.7299805-.269989,1.4500122-.6799927,2.1900024-.9700012,1.210022-.4700012,2.6400146-.3599854,3.8400269-.8399963,7.460022-2.9200134,13.8800049-6.9400024,16.0499878-15.8500061-.210022-.4299927-.4400024-.8999939-.6799927-1.3900146.0499878-.480011.0900269-.9599915.0900269-1.4700012,0-.269989,0-.5400085-.0200195-.8099976-.0300293-.5499878-.5-.9700012-1.0499878-.9400024s-.9699707.5-.9400024,1.0499878h0c.0100098.2399902.0200195.4700012.0200195.7000122,0,.269989-.0100098.5299988-.0300293.7900085-.2700195.1600037-.4899902.3399963-.5800171.5700073-3.3300171,8.3599854-10.5900269,10.3900146-18.2399902,10.0599976-5.8800049-.25-3.3300171,3.4899902-3.4000244,5.8299866-.289978-.0799866-.6099854-.0299988-.8699951.1700134l-.0100708.0100098Z"/>
  <path class="st0" d="M541.398903,271.9171079c.0700073.5.25,1.0300293.5700073,1.3699951,4.3900146,4.6900024,8.7999878,9.3599854,13.289978,13.960022.3200073.3300171.7000122.7399902,1.1199951,1,.3900146.4199829.7800293.8499756,1.1699829,1.2700195.3699951.4099731,1.0100098.4299927,1.4099731.0599976.4099731-.3699951.4299927-1.0100098.0599976-1.4099731-5.4899902-5.9899902-10.9899902-11.9699707-16.4799805-17.960022-.3699951-.4099731-1.0100098-.4299927-1.4099731-.0599976-.4099731.3699951-.4299927,1.0100098-.0599976,1.4099731h0c.1099854.1199951.2199707.2399902.3300171.3599854Z"/>
  <path class="st0" d="M176.9388963,185.1170896h0c-.1799927.0599976-.3600006.1099854-.5399933.1600037-.25-.0599976-.5-.0700073-.7100067,0-1.4499969.4400024-2.8800049.8999939-4.3200073,1.3599854-1.1000061.269989-2.2100067.5400085-3.3300018.8500061-3.0200043.8200073-6.0399933,1.8699951-8.8200073,3.7399902-.4600067.3099976-.5800018.9299927-.2700043,1.3900146.3099976.4599915.9299927.5799866,1.3899994.269989,1.4499969-.980011,2.9900055-1.7099915,4.6100006-2.3200073,4.1300049-1.0400085,7.9499969-2,11.7400055-3.0400085.2100067-.0599976.3999939-.2099915.5700073-.4100037.1000061-.0299988.2100067-.0599976.3099976-.0899963.5200043-.1700134.8099976-.7399902.6399994-1.2600098-.1699982-.519989-.7400055-.8099976-1.2599945-.6400146l-.0099945-.0099487Z"/>
  <path class="st0" d="M234.4788896,285.3571104h0c-.5100098.0999756-.980011.25-1.4299927.4299927-.5599976.1599731-1.1000061.3599854-1.5599976.6799927-5.0100098,3.4400024-10.1000061,6.7600098-15.2200012,10.0300293-2.5299988,1.2399902-4.9599915,2.7199707-7.2099915,4.539978-22.1499939,13.8099976-44.8000031,26.8599854-65.4199982,43-.7799988.6099854-2.3200073.960022-3.0500031,1.6500244-.4199982.210022-.8300018.4099731-1.25.6300049-.4900055.2600098-.6799927.8599854-.4199982,1.3499756s.8600006.6699829,1.3500061.4199829c.1699982-.0900269.3399963-.1799927.5099945-.2700195,1.3099976,1.3400269,3.5500031-.4199829,4.9700012-1.4299927,21.6900024-15.4699707,45.1799927-28,68.0599976-41.5100098,1.3200073-.5800171,2.6499939-1.1900024,3.9299927-1.9099731,1.3900146-.7800293,2.730011-1.6900024,3.9500122-2.7999878.2099915-.1300049.4200134-.25.6199951-.3800049,2.8599854-1.7399902,5.3099976-3.7999878,7.3800049-6.2700195.769989-.25,1.5400085-.5,2.3099976-.75.519989-.1699829.8099976-.7399902.6400146-1.2600098-.1400146-.4199829-.5400085-.6799927-.9599915-.6699829.6099854-.9400024,1.1600037-1.9400024,1.6799927-2.9899902.4599915-.2199707.9599915-.4099731,1.5299988-.5300293.5400085-.1099854.8900146-.6400146.7799988-1.1799927-.1099854-.539978-.6400146-.8900146-1.1799927-.7800293l-.0100403.000061ZM208.9788896,304.7971128c-.1400146-.2000122-.2799988-.3900146-.4100037-.5900269,3.8599854-2.4000244,7.7099915-4.7999878,11.5899963-7.1599731.0299988-.0200195.3999939.5200195.6099854.789978-3.8200073,2.2700195-7.6499939,4.5499878-11.4700012,6.8200073l-.3200073.1400146h.0000305Z"/>
  <path class="st0" d="M604.2289201,175.4871153c-.0499878.5499878.3499756,1.0400085.9000244,1.0899963h0c.5300293.0499878,1.0700073.1199951,1.5999756.1700134,1,2.3999939,6.4400024,1.1799927,9.3599854,1.4700012,2.8300171.2900085,5.6500244.6499939,8.4500122,1.0499878,13.960022,2.4299927,27.7800293,5.730011,41.6500244,8.8999939.6599731.1700134,1.3099976.3299866,1.9699707.5-.0900269-.0400085-.1799927-.0700073-.2600098-.1099854.6799927.1499939,1.3499756.3099976,2.0300293.4599915.539978.1199951,1.0700073-.2200012,1.2000122-.75.1199951-.5400085-.2199707-1.0700073-.75-1.2000122-6.7600098-1.5299988-13.5100098-3.1099854-20.289978-4.6400146-8.2299805-2.2799988-16.6099854-3.9200134-25.0900269-5.1199951-3.8499756-.6700134-7.710022-1.2799988-11.5900269-1.7999878-2.6799927-.7900085-5.5-1.7399902-6.4699707-.769989-.5300293-.0599976-1.0700073-.1199951-1.5999756-.1700134-.5499878-.0499878-1.039978.3500061-1.0900269.8999939l-.0200195.0200195Z"/>
  <path class="st0" d="M179.9688951,183.0471128c.5399933-.1199951.8800049-.6600037.75-1.2000122-.1199951-.5400085-.6600037-.8800049-1.1999969-.75h0c-.3200073.0700073-.6300049.1400146-.9499969.2099915-.8200073-.1099854-2.4799957-.0400085-3.4400024.1900024-2.0700073.5-4.0899963,1.2200012-6.1199951,1.9100037-3.2200012.7000122-6.4499969,1.4100037-9.6699982,2.1499939h-.8200073c3.8300018-1.3699951,7.6799927-2.6700134,11.4600067-4.1700134.0800018-.0299988.1600037-.0799866.2400055-.1199951.9299927-.2399902,1.8600006-.480011,2.7899933-.730011.5299988-.1400146.8500061-.6900024.7100067-1.2200012s-.6900024-.8500061-1.2200012-.7099915h0c-.5299988.1400146-1.0500031.269989-1.5800018.4100037-.5200043-.1000061-1.0099945-.1600037-1.4199982,0-.9400024.3900146-1.8800049.75-2.8300018,1.1099854-8.2100067,2.1499939-16.4300079,4.2900085-24.6199951,6.5400085-.1399994.0400085-.2599945.1099854-.3800049.1700134-2.1999969.4500122-4.3999939.8800049-6.6100006,1.3099976-.3500061-.0899963-.6999969-.1400146-1.0399933-.1400146-1.3200073.0100098-2.4799957.5400085-3.5500031,1.0400085-3.5500031.7099915-7.1000061,1.4400024-10.6199951,2.269989-.1199951.0299988-.2400055.0799866-.3600006.1199951-.1199951,0-.25.019989-.3699951.019989-.6600037,0-1.2899933-.1000061-1.9499969-.3500061-.5200043-.2000122-1.0899963.0599976-1.2899933.5799866s.0599976,1.0899963.5800018,1.2900085c.8999939.3500061,1.8000031.480011,2.6600037.480011h.0500031c.1199951.0499878.2400055.0899963.3500061.0899963,6.3699951-.269989,12.8500061-.6700134,19.0800018-.9200134,12.0800018-.480011,24-5.1199951,35.9599915-8.3800049,1.8000031-.3900146,3.6000061-.7900085,5.3999939-1.2000122l.009964.0000916ZM146.5788957,188.8371214c-.6999969.2000122-1.3699951.2900085-2.0599976.3200073-.0800018-.2900085-.1499939-.5700073-.2299957-.8500061,4.4700012-.8500061,8.9400024-1.7000122,13.4100037-2.5599976-.9299927.2900085-1.8600006.5799866-2.7899933.8800049-2.7899933.6900024-5.5700073,1.4200134-8.3300018,2.2099915h-.0000153Z"/>
  <path class="st0" d="M558.7289201,33.7971128c.1799927-.0899963.3499756-.1799927.5300293-.2600098.0499878.1600037.0900269.269989.0999756.269989,4.4699707-.7000122,7.7399902-3.5299988,11.8099976-6.2200012.8499756-.4200134,1.7000122-.8500061,2.539978-1.269989.4899902-.25.6900024-.8500061.4500122-1.3399963-.25-.4899902-.8499756-.6900024-1.3400269-.4500122h0c-4.9899902,2.4899902-9.9899902,4.9899902-14.9799805,7.480011-.5.25-.7000122.8500061-.4500122,1.3399963s.8499756.6900024,1.3400269.4500122Z"/>
  <path class="st0" d="M649.1388932,190.7871031c.1300049-.5400085-.2000122-1.0799866-.7399902-1.2000122h0c-.8599854-.2099915-1.7199707-.4100037-2.5800171-.6099854-.0300293,0-.0599976-.019989-.0900269-.0299988-11.3499756-2.9400024-22.710022-5.8800049-34.0999756-8.6900024-.4400024-.1099854-.9400024.0499878-1.460022.2600098-.5700073-.1400146-1.1500244-.269989-1.7199707-.4100037-.539978-.1300049-1.0800171.2099915-1.2000122.7399902-.1300049.5400085.210022,1.0799866.7399902,1.2000122.7299805.1700134,1.460022.3500061,2.1900024.519989.1900024.1400146.3900146.25.5999756.2900085.8900146.1499939,1.7700195.3200073,2.6500244.480011,8.1199951,1.9299927,16.2299805,3.8500061,24.3400269,5.7799988,2.4000244.7200012,4.789978,1.480011,7.1599731,2.3099976.4299927.1499939.960022.019989,1.6900024-.2099915.4400024.1000061.8800049.2099915,1.3099976.3099976.539978.1300049,1.0800171-.2000122,1.2000122-.7399902l.0100098-.0000305Z"/>
  <path class="st0" d="M146.7688981,43.7271055c1.5800018.9599915,3.1699982,1.9299927,4.75,2.8900146,10.9199982,8.2900085,23.0800018,14.6099854,35.0100098,21.2900085,2.0599976,1.25,4.1199951,2.5100098,6.1799927,3.7600098.4700012.2900085,1.0899963.1400146,1.3699951-.3299866.2900085-.4700012.1400146-1.0899963-.3299866-1.3699951h0c-.2000122-.1199951-.3900146-.2399902-.5899963-.3599854-.269989-.4400024-.5599976-.8299866-.9500122-1.0599976-5.5100098-3.2000122-11.0200043-6.3900146-16.5400085-9.5799866-9.2899933-5.6499939-18.5700073-11.2999878-27.8600006-16.9400024-.3600006-.2200012-.8000031-.1799927-1.1199951.0599976-1.5700073-1.730011-2.8500061-5.6900024-5.3399963-.2200012,1.6499939.3500061,3.3099976.7099915,4.9600067,1.0599976.0200043.3200073.1699982.6300049.4600067.8099976l-.0000153-.0100708Z"/>
  <path class="st0" d="M95.168892,182.4171079c25.3399963-2.9700012,50.7299957-5.6600037,75.5899963-11.8299866,1.2700043-.3099976,3,.230011,3.8999939-.8200073.4100037-.0599976.8300018-.1199951,1.2400055-.1799927.5500031-.0799866.9199982-.5899963.8500061-1.1300049-.0800018-.5499878-.5899963-.9299927-1.1300049-.8500061h0c-.5599976.0799866-1.1199951.1600037-1.6799927.25-.3999939-.1799927-.7899933-.3500061-.9700012-.4500122-11.5,1.7000122-22.2799988,3.6900024-33.1600037,4.8200073-15.1699982,1.5700073-30.2899933,3.4500122-45.3800049,5.5599976-.3000031,0-.6000061-.0299988-.9100037-.0299988-1.7899933,0-3.6300049.1799927-5.4799957.7900085-.3000031.1000061-.6799927.1600037-1.1100006.2200012-.3200073.0400085-.6699982.0899963-1.0399933.1700134-.1600037.0400085-.3300018.0899963-.5.1499939-27.5500031,4.0499878-54.9700012,8.8900146-82.3099976,14.25-1.3399963.2600098-3.4199982.1300049-2.9899979,2.2999878.0100021.0599976.0599976.1199951.1200027.1799927-.0199966.1099854-.0400009.2200012-.0599976.3299866-.0400009.25-.0800018.4899902-.1200027.6400146-.1299973.5400085.1900024,1.0799866.7300034,1.2099915s1.0800018-.1900024,1.2099991-.730011c.0599976-.2399902.0999985-.480011.1399994-.7200012.4700012.0799866.9400024.1099854,1.2900009.0599976,16.1900024-2.6199951,32.4000015-5.1900024,48.5400009-8.1099854,10.0300064-1.8200073,20.1299973-3.2399902,30.2399979-4.5100098,4.3300018,0,8.6999969-.2399902,13.0200043-1.5700073l-.030014.0000305ZM94.1088945,179.7871031c.0399933.230011.0800018.4599915.1199951.6799927-1.6900024.2799988-3.3800049.5599976-5.0700073.8099976-.0200043,0-.0899963-.3200073-.1300049-.4899902,1.6900024-.3299866,3.3800049-.6700134,5.0700073-1h.0100098Z"/>
  <path class="st0" d="M234.2188798,260.0071043h0c-1.2399902.6400146-2.4599915,1.3200073-3.6900024,1.980011-18.9200134,9.4099731-35.7900085,22.1599731-53.8399963,33-.25.1500244-.4600067.3800049-.6499939.6400146-.2599945-.0300293-.5399933-.0999756-.9299927-.2399902-.5200043-.2000122-1.0899963.0599976-1.2899933.5800171s.0599976,1.0900269.5800018,1.289978c.3999939.1500244.8000031.2700195,1.2200012.3400269.3000031.2299805.6999969.5100098.9900055.75,1.1699982-.7199707,2.1699982-1.289978,3.1199951-1.9299927,4.4100037-3.0100098,8.7500153-6.1300049,13.1500092-9.1400146,2.769989-1.8499756,5.5599976-3.6699829,8.3599854-5.4899902.0899963-.0599976.1799927-.1199951.269989-.1699829,10-6.1799927,20.3299866-11.8300171,30.4599915-17.8200073.2799988-.1700134.519989-.4100037.730011-.6900024.8200073-.4299927,1.6300049-.8900146,2.4500122-1.3099976.4899902-.25.6799927-.8599854.4299927-1.3500061-.25-.4899902-.8599854-.6799927-1.3500061-.4299927l-.0100098-.0100708Z"/>
  <path class="st0" d="M606.8588639,107.1671079c.5200195.2000122,1.0900269-.0599976,1.289978-.5700073.0900269-.2200012.1799927-.4100037.2800293-.5799866,1.0900269.0499878,2.4899902-1.1400146,3.539978-1.480011,7.0999756-2.3200073,14.3200073-3.6199951,21.6099854-4.4700012,2.0200195-.1900024,4.0499878-.3399963,6.0800171-.480011,4.7600098-.3299866,9.5599976-.6000061,14.3400269-1.0899963,2.3900146-.1400146,4.7800293-.2900085,7.1699829-.4599915,1.0999756-.0799866,2.7700195.0400085,3.3200073-1.1199951.289978-.0599976.5800171-.1099854.8699951-.1799927.539978-.1199951.8800049-.6499939.7600098-1.1900024s-.6500244-.8800049-1.1900024-.7600098h0c-.7000122.1499939-1.4000244.2900085-2.0999756.4200134-.7199707-.1000061-1.5200195-.1400146-2.0800171-.0700073-5.3800049.6900024-10.75,1.4100037-16.1199951,2.1199951-1.7000122.1099854-3.4099731.2200012-5.1099854.3399963-7.6900024.5299988-15.4199829,1.25-22.9899902,3.3999939-1.9699707.2600098-3.9299927.5299988-5.9000244.7900085-1.210022.8999939-3.7600098,1.1199951-3.5700073,2.7000122-.3099976.3999939-.5700073.8599854-.7800293,1.3999939-.2000122.519989.0599976,1.0899963.5700073,1.2900085l.0100098-.0100098Z"/>
  <path class="st0" d="M175.5888902,31.6470884c4.1600037,3.7399902,8.8399963,6.6700134,13.4600067,9.5899963,4.4299927,3.230011,8.8599854,6.4500122,13.2999878,9.6600037.730011.6900024,1.4500122,1.3900146,2.1400146,2.1300049.3699951.4100037,1.0100098.4299927,1.4100037.0599976.4100037-.3800049.4299927-1.0100098.0599976-1.4100037-.0799866-.0799866-.1600037-.1600037-.2399902-.25.0799866-.1300049.1700134-.2600098.25-.4299927-.6300049-.7099915-1.1600037-1.5899963-1.9299927-2.1300049-8.5700073-5.9200134-17.1799927-11.7900085-25.8000031-17.6399841-.0399933-.019989-.0800018-.0400085-.1199951-.0599976-.3999939-.3299866-.8000031-.6700134-1.1799927-1.019989-.4100037-.3699951-1.0399933-.3299866-1.4100037.0799866-.3699951.4100037-.3300018,1.0400085.0800018,1.4100037h0l-.0200348.0099792Z"/>
  <path class="st0" d="M214.3288957,253.437097h0c-.4899902.9100037-1.0499878,1.7399902-1.6700134,2.5-3.3399963,2.9100037-7.0100098,5.3099976-10.7900085,7.5299988-2.019989,1.0400085-4.0499878,2.1000061-5.9700012,3.3900146-3.6000061,2.0100098-7.2000122,4.0300293-10.6100006,6.3400269-.1799927.1199951-.3300018.289978-.4700012.4699707-.1999969.1199951-.3899994.2299805-.5899963.3499756-.4700012.289978-.6199951.9000244-.3300018,1.3699951.0899963.1500244.2200012.2600098.3699951.3400269.1499939.2700195.3699951.5900269.5599976.9699707,4.4299927-2.960022,8.7600098-5.8400269,13.0400085-8.7000122,2.8800049-1.7999878,6.1199951-3.2600098,9.230011-5.0499878,2.7200012-1.5599976,5.3299866-3.4400024,7.3900146-6.1000061.3200073-.2099915.6400146-.4299927.9500122-.6400146.1600037-.1099854.1400146-.480011.1000061-.8800049.1900024-.3099976.3900146-.6099854.5599976-.9299927.2600098-.4899902.0799866-1.0899963-.4100037-1.3500061s-1.0899963-.0799866-1.3500061.4100037l-.0100098-.0199585Z"/>
</svg>