<?xml version="1.0" encoding="UTF-8"?>
<svg id="Layer_1" xmlns="http://www.w3.org/2000/svg" version="1.1" viewBox="0 0 519.1072021 618.9540853">
  <!-- Generator: Adobe Illustrator 29.1.0, SVG Export Plug-In . SVG Version: 2.1.0 Build 142)  -->
  <defs>
    <style>
      .st0 {
        fill: #2e3133;
      }
    </style>
  </defs>
  <path class="st0" d="M375.5143868,38.5121978c.0264282.024353.0307007.0317993.0477905.0491333.0293579.0120239-.21875-.2119141-.0477905-.0491333Z"/>
  <path class="st0" d="M375.7443673,38.5922148c.0004883,0,.0008545.000061.0013428.000061.0023804-.0064697-.0426636-.0109253-.1598511-.0065918.001709.0018921.0047607.0046997.0064087.0065308h.1520996Z"/>
  <path class="st0" d="M333.6510445,235.8728545c.0010376-.0003052.0023804-.0003662.003418-.0006714.0145874-.0030518.0291748-.0054321.0437622-.0084229-.1747437.0132446-.2365723.0230103-.2362671.0274048.0629883-.007019.1260986-.012085.1890869-.0183105Z"/>
  <path class="st0" d="M349.9064156,226.5737822c.0023804.1124268.005127.0793457,0,0h0Z"/>
  <path class="st0" d="M349.875776,226.9475005c.0289307-.074646.0392456-.1494141.0539551-.2240601-.0007935-.0025635-.0010376-.0055542-.0019531-.0078735-.0339966.125-.0499878.2001953-.052002.2319336Z"/>
  <polygon class="st0" points="420.1630074 91.8918364 420.1644112 91.8921416 420.1624581 91.8912871 420.1630074 91.8918364"/>
  <polygon class="st0" points="319.7745186 167.2121489 319.7718331 167.2119048 319.7644478 167.21221 319.7745186 167.2121489"/>
  <path class="st0" d="M334.6402413,176.9453032c-.1741943.27771-.2857666.6152344-.2857666,1.0268555v5.9700317c0,2.5299683,3.9299927,2.5299683,3.9299927,0,.0200195-7.1500244,1.1400146-14.3400269-.1699829-21.4500122-.0071411-.0391846-.0317993-.072998-.0424805-.1113281.0064087-.0231934.0161743-.0454102.0223999-.0686646.460022-1.710022-1.3900146-3.0100098-2.8900146-2.2200317-.536499.2824097-1.0345459.6246948-1.515625.9915771-.4327393.0895996-.8640747.2070312-1.2942505.3484497-.6900024.2299805-1.4099731.539978-2.1300049.6400146-.6500244.0899658-1.3200073-.0300293-1.9699707-.0900269-2.9500122-.2699585-5.5999756,1.3099976-8.5200195,1.2999878-2.5290527,0-2.5297852,3.9266968-.0026855,3.9297485,1.4874268-.0009766,2.9349976-.2803955,4.3626099-.6697388,1.2600098-.3399658,2.4899902-.75,3.7999878-.6599731.4453125.0328979.8745728.0561523,1.2990112.0693359-.2528687.3400269-.5023804.6782227-.7490234,1.0106201-2.1099854,2.8400269-4.4199829,5.5100098-6.5300293,8.3500366-4.7700195,6.4199829-9.0800171,13.1900024-14.0100098,19.5-2.4299927,3.1099854-5.0700073,5.9899902-7.75,8.8800049-2.8200073,3.0299683-5.3800049,6.289978-8.1900024,9.3200073-1.3099976,1.4199829-2.5800171,2.8200073-3.710022,4.3999634-1.039978,1.460022-1.9799805,2.9899902-3,4.4500122-.0252075.0359497-.0535278.069397-.0789185.1051636-1.7097778,1.8434448-3.4030762,3.7020874-5.0761108,5.5795288-.979248.9415894-1.9641724,1.8768921-2.9049683,2.8453369-1.4199829,1.4599609-2.5,3.1599731-3.75,4.75-1.1799927,1.5-2.6799927,2.4500122-4.1199951,3.6499634-1.4199829,1.1799927-2.2799683,2.6500244-2.9500122,4.3400269-.1878662.4782715-.2715454.7558594-.5374756,1.1911011-.3275146-1.3375854-.4556885-2.7322388-.5024414-4.1011963-.0900269-2.6799927.1199951-5.3599854.2699585-8.039978.3400269-6.2000122-.2099609-12.4400024.1600342-18.6300049.1799927-3,.7099609-6.2300415-.3200073-9.1400146-.4000244-1.1400146-1.75-1.9100342-2.8900146-1.1799927-.0264893.0170288-.0498657.0368652-.0761108.0541382-.6942749-.7037964-1.8198853-.9384766-2.6738281.0058594-3.3499756,3.7000122-5.3499756,8.25-7.9599609,12.4500122-1.3300171,2.1300049-2.9800415,4.0300293-4.2900391,6.1700439-.6699829,1.0899658-1.2600098,2.2299805-1.7699585,3.4099731-.2071533.4900513-.3495483,1.0068359-.4935913,1.5217285-6.5856934,8.4058838-12.8928833,17.0337524-18.9765625,25.8082275-5.9899902,8.6400146-11.9099731,17.3599854-17.6199951,26.1900024-5.5799561,8.6400146-10.8800049,17.5300293-14.9400024,27-3.4539185,8.0426636-5.8731079,16.835083-10.7475586,24.1652222-.126709.1258545-.2375488.2662964-.3722534.3848267-.5200195.4599609-1.2399902.7999878-1.6000366.8200073-1.8314209.0944824-2.3302002,2.190918-1.4986572,3.2824097-1.4630127,1.8655396,1.2078247,4.484314,2.87854,2.647522l.000061.0101318c1.2401123-1.3591919,2.3579712-2.7921143,3.3798828-4.2819214,1.5566406-1.5248413,2.760437-3.5551147,3.7201538-5.328125,1.0599976-1.9500122,1.9899902-3.9699707,2.789978-6.039978.4299927-1.1199951.7999878-2.2800293,1.3800049-3.3400269s1.2900391-2.039978,2.0400391-2.9799805c1.5999756-2,3.1499634-3.9899902,4.3999634-6.2300415,1.2300415-2.2000122,2.25-4.5,3.2999878-6.7799683,1.0200195-2.1900024,2.0700073-4.3699951,3.3599854-6.4200439,1.4200439-2.25,3.1300049-4.3099976,4.7000122-6.4599609,3.1500244-4.3300171,5.9400024-8.8200073,8.4100342-13.5700073,2.4899902-4.7800293,5.7299805-9.1099854,8.6300049-13.6400146,2.8699951-4.4800415,5.0899658-9.3099976,7.5799561-14,2.4700317-4.6500244,5.1000366-9.5499878,8.6300049-13.5.9700317-1.0800171,2.0200195-2.0900269,2.8699951-3.2800293.5551758-.7723389.84729-1.5925293,1.1066284-2.437561,2.6882935-3.3565063,5.4283447-6.6764526,7.9833984-10.1323853,1.5899658-2.1400146,3.1199951-4.3599854,4.2999878-6.7600098.3665771-.7451782.7215576-1.5648804,1.130188-2.3567505-.0535278,1.2299805-.201355,2.4641724-.2802124,3.6467896-.210022,3.2199707-.0700073,6.4799805-.0700073,9.7099609,0,3.0700073.0599976,6.1400146-.1099854,9.210022-.1500244,2.6799927-.3599854,5.3499756-.2700195,8.039978.1000366,3.0400391.5700073,6.1300049,2.0800171,8.8099976.5700073,1.0100098,1.7199707,1.1199951,2.6900024.710022,2.9099731-1.2399902,4.5299683-4.2399902,6.2799683-6.7000122,2.2200317-3.1300049,4.6900024-6.1099854,7.1799927-9.0200195,1.117981-1.3062134,2.2553101-2.5962524,3.4004517-3.8796997.7370605-.7213745,1.4794922-1.44104,2.2194824-2.1702881,1.0577393-1.0422974,1.9760132-2.1862183,2.8372192-3.37323,2.2907715-2.4656982,4.6019897-4.9128418,6.9128418-7.3567505,5.2399902-5.5300293,10.4899902-11.0599976,15.4799805-16.8200073,5.1400146-5.9400024,9.8099976-12.2200317,14.4799805-18.5300293,2.7299805-3.6900024,5.4500122-7.3900146,8.1400146-11.1099854.5512085-.7634888,1.133728-1.5432739,1.7051392-2.34021.1135864,2.8223267-.0348511,5.6656494-.1992798,8.5033569ZM265.6063058,244.7300933c-.0012207.0003052-.0012207.0004883-.0025024.0007935.0015869-.0028076.0057373-.0089722.0080566-.0128174.0025635-.0002441.0040894-.0001831.0062866-.0003052-.0131836.0177612-.0112305.0131226-.0118408.0123291ZM211.4745309,282.4921172c-1.1555786,1.7492065-2.3742065,3.4539795-3.6077881,5.1428833.5742798-.940918,1.1521606-1.8795776,1.7377319-2.8128052,1.847168-2.9527588,3.748291-5.8731079,5.6668091-8.7824097-1.2006836,2.1873169-2.4180908,4.3652954-3.7967529,6.4523315Z"/>
  <path class="st0" d="M124.4716622,220.6396392c-.0095215.0147095-.0195312.029541-.0275269.0427856.0061035-.0065308.0122681-.0119019.0183716-.0183716.0024414-.0085449.0065918-.0159302.0091553-.0244141Z"/>
  <path class="st0" d="M106.634443,200.3522246c-.2199707.9400024.2900391,2.25,1.3699951,2.4199829,1.210022.1900024,2.3699951.2200317,3.5700073-.0799561.8500366-.210022,1.6400146-.6000366,2.460022-.8800049.4500122-.1600342.9099731-.2800293,1.3699951-.3699951.1900024-.0400391.1900024-.0100098,0,0,.1199951,0,.2399902-.0200195.3699951-.0300293.289978-.0100098.5700073-.0100098.8599854,0,1.1199951.0200195,2.2299805.1600342,3.3499756.1700439,1.0300293,0,2.0100098-.9100342,1.9700317-1.9700317-.0499878-1.0700073-.8599854-1.9599609-1.9700317-1.9699707l.000061-.0100708c-2.210022-.0200195-4.3599854-.4200439-6.5300293.2299805-.7999878.2399902-1.5599976.6000366-2.3499756.8699951-.1900024.0599976-.3800049.1199951-.5700073.1700439-.0964355.0241089-.3171997.0623169-.3833618.0783081-.1978149.0175171-.3964233.0316772-.5866699.0316772-.1199951,0-.2399902,0-.3599854-.0199585-.0700073,0-.4699707-.0599976-.1499634-.0100098-1.0100098-.1600342-2.1700439.2600098-2.4200439,1.3699951Z"/>
  <path class="st0" d="M168.6544625,396.3021758c1.4500122.0100098,3.0100098-.0300293,4.3900146-.5300293,1.3599854-.4899902,2.5799561-1.3800049,3.1799927-2.7299805.7299805-1.6500244.7399902-3.4899902.3999634-5.2399902-.3599854-1.8599854-1.3699951-3.7199707-2.7399902-5.0299683-1.6599731-1.6000366-3.8099976-2.2900391-6.0799561-1.8400269-.5957031.117981-1.0664062.6072998-1.2942505,1.1837158-1.6373291-.0738525-3.180542.3538208-4.2157593,1.8162842-.8699951,1.2399902-1.0200195,2.8599854-1.0400391,4.3299561-.039978,2.7999878.2399902,6.1500244,3.1799927,7.3900146,1.3200073.5599976,2.7900391.6400146,4.2200317.6500244ZM165.5426461,391.634146c-.0093994-.017334-.0194702-.0346069-.0281372-.0519409-.1466675-.2589111-.0031738-.0947266.0281372.0519409ZM165.8502022,392.0219023c.0045776.00177.0084839.0033569.0137939.0054321.0032959.0072021-.0016479.0036621-.0137939-.0054321ZM172.8544137,390.7424834c-.0054932.0531616-.0099487.0965576-.0099487.0997314-.0066528,0,.0003052-.0464478.0099487-.0997314ZM169.6240059,384.7063506c-.072876-.0037842-.1798706-.0089111-.1694946-.0140991.0303955-.0169067.0963135-.0050049.1694946.0140991ZM165.5253121,386.1128447c-.0383911.0358887-.074646.0658569-.0908203.0593872.005249,0,.0475464-.0291748.0908203-.0593872ZM165.2045113,387.7222197c0-.1599731.0200195-.3099976.0300293-.4699707,0-.0402222.0074463-.0879517.0133667-.1341553.0501709-.2744141.1278076-.5307007.1965942-.8059082.0128784-.0192261.0889282-.1381226.1410522-.2258301.0122681-.0130005.0233765-.0250854.0325928-.0360718.0140381-.0101318.0341187-.0187988.0515747-.0275269.0022583-.0003662.0024414-.0001221.0047607-.0005493.0425415,0,.104126-.017395.1531372-.0339966.1356201-.005188.2712402-.0159912.4068604-.0159912.0800171,0,.1600342.0200195.2399902.0100098.0338745,0,.0509644-.0012817.0599365-.0030518.0084839.0012817.0108643.001709.0200806.0030518.9804077.1553345,2.0949097-.2416382,2.3884888-1.2799683.0007324-.000061.0007935,0,.0015259-.000061.1499634,0,.2999878-.0100098.4500122,0,.0700073,0,.1499634.0200195.2199707.0100098.0145874,0,.0198364-.0001221.0297852-.0001831.1398926.0391235.3071289.107605.3702393.1202393.0198364.005127.0267944.0058594.0408325.0089722.0079956.0043945.0095825.0059204.019165.0109863.1300049.0700073.2600098.1300049.3800049.2000122.1300049.0700073.2399902.1600342.3699951.2399902.0128174.0096436.0374756.0313721.0612183.0525513.0219727.0212402.041687.0404053.0487671.0474243.2199707.210022.4299927.4200439.6300049.6400146.0250244.0300293.0462646.0562744.0700073.085022.0987549.1650391.2232666.3300171.3300171.4949951.1599731.2600098.2999878.5300293.4299927.7999878.006958.0162964.0139771.0326538.0209351.0489502.0021362.0111694.0005493.0114136.0090332.0410767.0499878.1699829.1199951.3299561.1700439.4899902.0899658.2799683.1599731.5599976.2099609.8399658.0089722.0628052.0197144.1256714.0359497.1884766.0125122.1693726.0352173.3439941.0440674.5115356.0100098.2999878.0199585.5999756,0,.9000244,0,.0140381-.0089111.1032715-.0181885.1942139-.0007935.0026855-.0009155.0028076-.0018311.0057373-.0200195.0800171-.0300293.1599731-.0499878.2399902-.0300293.1099854-.0599976.2199707-.0900269.3400269-.0048828.0199585-.0053711.0264893-.008606.0415039-.038269.0750732-.072876.1537476-.1213989.2185059-.0047607.0083618-.0126953.0211182-.0220947.0358887-.034729.0408325-.1025391.1238403-.1378784.1541138-.0259399.0259399-.0880127.0773926-.1318359.1141357-.0018921.0014648-.0065918.0045776-.0081177.0058594-.0822144.0493164-.1670532.0986328-.2548218.1479492.0123291-.0005493.0250244-.0015259.03479.0020142-.0097656-.0032959-.0294189.0018311-.046814.0050049-.0149536.0083618-.027832.0166626-.0431519.0250244-.197876.1079102-.1644287.0611572-.083252.0150757-.0747681.0314941-.1512451.0696411-.1867676.0848999-.2399902.0700073-.4799805.1300049-.7299805.1799927-.0825806.0165405-.2050171.0194092-.298584.0455933-.013855.0020752-.0283813.0021973-.0414429.0043945-.289978.0300293-.5899658.0499878-.8800049.0599976-.6499634.0200195-1.289978.0200195-1.9400024,0-.2699585-.0100098-.539978-.0300293-.7999878-.0499878-.0150757,0-.0441895-.0020752-.0765381-.0046997-.0739136-.0119629-.2243042-.0343628-.2734375-.0452881-.213623-.0388184-.4265747-.0975952-.6311035-.1650391-.0571899-.026123-.1402588-.0634766-.178894-.0849609-.015625-.0093994-.0437622-.0316772-.0688477-.0509033.0351562.032959.0558472.0550537.0654907.071228-.0058594-.0020752-.0115967-.0040894-.0167847-.0059204-.0157471-.0125122-.0276489-.0203857-.0698853-.0643921-.0147705-.0147705-.029541-.0288086-.0443115-.0443115-.0227661-.0155029-.0424194-.0256348-.0599976-.0319824-.0004272-.0008545-.0008545-.0018311-.0012817-.0026855.015686.0039673.0317993.012146.0485229.0219116-.024292-.0256958-.048645-.0491333-.072937-.072937-.0297852-.0596313-.064209-.1192017-.0968628-.178833-.0150757-.1716309-.1571655-.4481812-.1931152-.6011353-.0300293-.1099854-.0499878-.2299805-.0700073-.3400269-.0011597-.0056763-.0015259-.007019-.0026245-.0123291-.0290527-.3192139-.0580444-.6384277-.0773926-.9576416-.0299683-.6699829-.039978-1.3399658,0-2.0100098Z"/>
  <path class="st0" d="M165.7302071,391.9078887c.0247803.0169067.041626.0250854.0654907.043396-.0256958-.0241089-.0490723-.0391235-.0782471-.0561523.0042725.0045166.0084839.0082397.0127563.0127563Z"/>
  <path class="st0" d="M171.9012887,391.9772856c.048584-.0205078.0912476-.0336304.1264038-.0401001.0041504-.0023193.0078735-.0046997.0120239-.007019-.0432739.00177-.0961914.0231934-.1384277.0471191Z"/>
  <path class="st0" d="M518.9744088,382.0322173c-.0200195-2.2199707.0599976-4.4400024-.0300293-6.6599731-.1900024-4.6700439-1.460022-9.0599976-2.9699707-13.460022-2.9899902-8.7099609-6.25-17.2999878-9.0499878-26.0700073-1.3200073-4.1300049-3.5599976-7.8599854-5.3599854-11.789978-1.460022-3.1799927-2.3499756-6.6900024-4.6900024-9.3800049-1.0991211-1.2644653-2.6347656-2.1920166-4.2969971-2.74823.2295532-.4731445.4438477-.9518433.6270752-1.4418335,1.4299927-3.8299561,2.25-7.9099731,2.75-11.9599609.5499878-4.460022.4000244-8.9700317.2600098-13.4500122-.1500244-4.5100098-.1099854-9.0200195-.3800049-13.5300293-.2700195-4.6599731-.710022-9.2999878-.9199829-13.9699707-.0999756-2.2800293-.0599976-4.5599976-.1099854-6.8400269-.0499878-2.1799927-.3099976-4.3399658-.5900269-6.5-.2800293-2.2299805-.5800171-4.4599609-.6699829-6.7099609-.0999756-2.3400269-.0100098-4.7000122-.0100098-7.0499878v-13.9100342c0-8.1499634-.2299805-16.3399658.1900024-24.4799805.2700195-5.2700195.789978-13.0499878-4.2700195-16.4000244-2.9000244-1.9099731-6.8300171-1.1599731-10.0700073-.9899902-2.6900024.1400146-5.6599731-.3900146-8.039978,1.2000122-1.3599854.9000244-2.3599854,2.210022-3.2999878,3.5200195-1.0700073,1.5-1.9799805,3.1099854-2.7600098,4.7799683-1.6699829,3.5300293-2.8599854,7.2600098-3.6699829,11.0800171-.4000244,1.8800049-.7000122,3.7799683-.9299927,5.6900024-.1743774,1.425354-.2470093,2.850647-.4628906,4.267334-2.37854-1.9453125-4.9265137-3.6866455-7.4771729-5.4074097-1.4099731-.9500122-2.6300049-2.3299561-4.1599731-3.0700073-.9299927-.4400024-1.9400024-.6199951-2.960022-.5799561-.6193848.0252686-1.2498169.119873-1.8729858.1332397-.3271484-.9014282-1.4390259-1.4034424-2.3469849-1.1532593-.2705078.0751343-.505188.1993408-.7016602.3594971-.118103-.2964478-.2371826-.5929565-.3483276-.8894653-.3099976-.8200073-.5999756-1.6499634-.8900146-2.4799805-.5900269-1.7300415-1.1199951-3.4800415-1.6300049-5.2300415-.9199829-3.1900024-1.7600098-6.3999634-2.5100098-9.6400146-.7600098-3.2600098-1.1900024-6.5499878-1.6799927-9.8599854s-1.1900024-6.5299683-2.2700195-9.7000122c-1.0300293-3.0100098-2.2000122-5.9699707-2.9099731-9.0799561-1.4799805-6.5200195-2.4899902-13.1300049-3.8800049-19.6700439-.7000122-3.2799683-1.5200195-6.4799805-2.6099854-9.6499634-1-2.9299927-2.2000122-5.9799805-2.2999878-9.1000366-.1099854-3.1399536.6099854-6.2299805,1.1099854-9.3099976.3400269-2.0599976,1.2199707-3.8599854,1.960022-5.7999878.6799927-1.7799683,1.5900269-4.5599976.0100098-6.1400146-1.1500244-1.1599731-3.4699707-1.4499512-4.9899902-1.7999878-.9699707-.2299805-1.9400024-.3900146-2.9400024-.4199829-1.5-.039978-3,.1499634-4.4899902-.1099854-2.9799805-.5100098-5.8900146-1.3600464-8.8800049-1.8300171-1.2562866-.2003784-2.5187988-.3392334-3.7915039-.3933105-.0882568-.0107422-.1730347-.0266724-.2684937-.0266724h-.6500244c-.0686035-.1533203-.1303101-.3067017-.1999512-.460083-1.5999756-3.5299683-3.0499878-7.039978-4.0900269-10.7799683-1.039978-3.7399902-1.8499756-7.5499878-3.1099854-11.2299805-.6300049-1.8099976-1.3499756-3.6000366-2.25-5.3000488-.8400269-1.5999756-1.8499756-3.1399536-2.4799805-4.8399658-1.210022-3.3099976-.0900269-7.2200317-2.789978-9.9799805-.5084839-.5188599-1.090332-.9169312-1.7164917-1.2269897-.4827881-.6775513-1.0640869-1.2508545-1.8137207-1.5930176-.4820557-.2235107-1.0317383-.2710571-1.5280151-.1532593-.2762451-.1571655-.6117554-.2490234-1.0206909-.2266235-.003479.0093994-.0892944.019104-.1484375.0050659-.0011597-.0013428-.0037842-.0037231-.0050049-.005127h-.0154419c-.0039673-.0015869-.0066528-.0036621-.0100098-.0056152.0058594-.0002441.0135498-.0007324.019043-.0009155-.0064697-.007019-.0151978-.0157471-.0236816-.024353-.0067139-.0027466-.0231934-.0137939-.0678101-.0491333-.3900146-.3299561-.789978-.8099976-.9699707-1.0799561-.7800293-1.1100464-1.4199829-2.3099976-2.0900269-3.4900513-1.7399902-3.0700073-4.3900146-5.5999756-6.710022-8.2399902-1.4400024-1.6300049-2.9099731-3.2299805-4.3599854-4.8599854-1.2700195-1.4199829-2.3400269-2.9899902-3.4000244-4.5700073-1.1400146-1.6799927-2.3400269-3.2800293-3.710022-4.7800293-1.1699829-1.2799683-2.4799805-2.5299683-3.4400024-3.9799805-1.1900024-1.7999878-2.0800171-3.75-3.4799805-5.4199829-1.5700073-1.8800049-4.1500244-3.0200195-6.210022-1.0999756-2.5900269,2.4099731-2.0900269,6.0599976-1.210022,9.1199951.460022,1.6099854.8400269,3.1300049,1.0499878,4.789978.2700195,2.1699829.5599976,4.3300171.789978,6.5.4899902,4.8300171.9299927,9.6900024,1.289978,14.5299683.3699951,4.9200439.2299805,9.8800049.2299805,14.8099976,0,1.4157715,1.2304688,2.0379639,2.3144531,1.8692627-.1582642,1.4290771-.1658325,2.8794556-.0941162,4.2606812.1799927,3.5800171.9699707,7.0599976,2,10.4900513.5999756,1.9899902,1.25,3.9699707,1.8200073,5.9599609.5599976,1.9500122.9899902,3.9400024,1.5999756,5.8699951,1.2199707,3.8500366,2.7800293,7.5900269,4.1500244,11.3900146,2.75,7.6099854,5.6099854,15.1799927,8.9199829,22.5700073,1.6400146,3.6600342,3.5200195,7.1799927,5.2999878,10.7700195,1.7700195,3.5700073,3.0300293,7.3599854,4.6099854,11.0100098,1.5999756,3.7000122,3.6699829,7.1799927,5.5200195,10.7600098.133728.2582397.2526245.5209961.3826294.7803345.5891113,1.421814,1.1977539,2.8365479,1.8374023,4.2396851.7600098,1.6699829,1.4899902,3.3399658,2.1400146,5.0499878.3491211.9211426.7153931,1.8309326,1.1550903,2.7094727,1.2958374,3.2792969,2.6030884,6.5518188,3.8148804,9.8605347,1.2603149,3.4412231,2.3123169,6.9440308,3.4910889,10.4060669.0031128.0146484.0058594.0292358.0089722.0438843.75,3.5300293,2.1500244,6.8200073,3.6300049,10.0900269,1.2700195,2.8299561,2.4400024,5.7699585,4.0200195,8.4400024.4647217.7803955.965332,1.5466919,1.4849854,2.3022461.1282959.2348022.2526855.4715576.3724365.7105713-.2460327.0927124-.4677124.2410889-.6375122.4572144l-.0200806-.0200195c-1.8400269,2.3099976-4.4500122,3.7399902-7.0800171,4.9500122-2.8699951,1.3299561-5.8499756,2.4599609-8.8499756,3.4500122-6.8699951,2.25-13.960022,3.6400146-20.8900146,5.6599731-7.0200195,2.0499878-13.7299805,5-20.6099854,7.460022-3.3599854,1.2000122-6.7700195,2.2799683-10.25,3.0599976-3.4799805.7799683-6.8800049,1.5199585-10.210022,2.8499756-1.6799927.6700439-3.289978,1.460022-5.0300293,1.9899902-.8514404.2554932-1.7107544.487793-2.5626221.7434692-.8687134-.2935181-1.7858276-.3170776-2.7472534-.1234131-.855835.1727905-1.4047241,1.0428467-1.4249878,1.8862305-1.7089233,1.0574951-3.071167,2.4873047-3.9851685,4.4037476-2.1900024,4.5799561-2.3599854,10.9699707,1.8200073,14.5,2.3499756,1.9899902,5.0599976,3.4799805,8.0900269,4.1400146,1.4399414.3137207,2.8984985.4646606,4.3618774.5346069-.9107666.4793091-1.7702637,1.026123-2.5418091,1.5553589-2.2889404,1.5606689-4.3375854,3.6830444-5.8527222,6.0608521-.9472656.0427246-1.8676147.668457-1.8772583,1.8891602h-.0200806c-.005127.7863159-.0477905,1.5719604-.0999756,2.3571167-.2781982.8540649-.5170898,1.72229-.75,2.572876-.4500122,1.6300049-.789978,3.3299561-.3400269,5.0100098.8800049,3.2600098,4.0599976,4.7299805,6.7600098,6.2299805.8028564.4470825,1.6190186.8424072,2.4559937,1.1821289-1.0476685,2.086731-1.4508667,4.6422119-1.5859985,6.9078979-.1199951,2.0999756-.2399902,4.3399658,0,6.4299927.3099976,2.6300049,1.9500122,4.6199951,3.4899902,6.6699829.5790405.7681274,1.1988525,1.4855957,1.8719482,2.1019897-.1765137.1073608-.3563843.2088013-.5319214.3178101-4.9699707,3.0900269-9.5700073,6.9100342-13.9799805,10.7399902-4.0800171,3.5400391-7.9799805,7.4899902-10.6699829,12.2200317-1.3800049,2.4299927-2.2000122,4.9899902-3.0499878,7.6300049-1.0100098,3.1599731-1.7399902,6.4099731-2.2199707,9.6900024-.1557617,1.0604858-.2783813,2.121521-.3865356,3.1828003-.4668579-.0012817-.9162598.0585938-1.3557739.1582031.088501-.2243652.1421509-.4567871.1421509-.6809082,0-1.1799927-.9099731-1.8300171-1.9699707-1.9700317-1.8900146-.25-3.5700073.5700073-5.3299561,1.0800171-1.7600098.5100098-3.7800293.289978-5.6000366.25-1.9400024-.0400391-3.8999634-.1500244-5.8299561.0499878-1.960022.2000122-3.8500366.789978-5.8099976.9799805-4.1500244.4000244-8.1700439,1.0200195-12.2300415,1.9700317-4.0499878.9500122-8.0599976,2.0899658-12.0599976,3.2399902-4,1.1599731-7.9899902,2.3800049-12.039978,3.3499756-1.9500122.4700317-3.9700317.3300171-5.9500122.5599976-2.0200195.2300415-3.9200439.8300171-5.8300171,1.5200195-1.8900146.6900024-3.789978,1.4400024-5.7799683,1.8099976-1.9800415.3599854-4.0300293.2000122-6.0300293.3200073-2.039978.1199951-3.9500122.5599976-5.8699951,1.2399902-.0241089.0084839-.0484619.0174561-.0725708.026001-1.2648315.008606-2.5280762.0753784-3.7872925.2640991-2.1400146.3300171-4.2399902,1.0499878-6.4100342,1.1300049-1.1499634.0400391-2.2999878-.0999756-3.4599609-.1199951-1.1700439-.0299683-2.3200073.1300049-3.4700317.3500366-3.6428833.692627-7.1774292,2.1643677-10.8885498,2.3355103-.067688-1.0328979-.1755981-2.0631104-.37146-3.0855713-.3300171-1.7199707-1.0400391-3.3200073-1.4800415-5-.4899902-1.8599854-.7600098-3.7799683-1.1300049-5.6699829-.3092041-1.571106-.7543945-3.0658569-1.2530518-4.5649414.4208374-.5119629.5987549-1.2723999.4330444-1.8650513-.2169189-.7976685-.7987061-1.2164307-1.4901123-1.3487549-.8835449-2.8065796-1.6487427-5.6460571-2.329834-8.5112915-.9000244-3.7699585-1.6400146-7.5499878-2.7700195-11.2600098-1.1099854-3.6300049-2.4199829-7.2000122-3.5599976-10.8200073-1.1599731-3.6799927-2.0599976-7.4400024-2.8999634-11.2099609-.8699951-3.8900146-1.6700439-7.7999878-2.460022-11.710022-.75-3.7000122-1.3299561-7.4299927-2.8200073-10.9199829-.6900024-1.6099854-1.5-3.1799927-2.1699829-4.7999878-.710022-1.7300415-1.2900391-3.5100098-1.8599854-5.2800293-.7348022-2.2938232-1.5558472-4.5496826-2.4122314-6.7961426-.1706543-1.6751709-.3764648-3.34729-.6978149-5.0037231-.5-2.6300049-1.4000244-5.1000366-2.5499878-7.5100098-1.0700073-2.2600098-2.2900391-4.4000244-3.0800171-6.7900391-.2098389-.6347656-.4020996-1.2751465-.5846558-1.9185791-.3616943-1.6419678-.7149658-3.2860718-1.0953369-4.9215088-.8900146-3.8200073-2.0999756-7.539978-3.1300049-11.3200073-1.039978-3.8200073-1.9799805-7.6699829-2.9599609-11.5-.960022-3.7299805-2.1300049-7.4099731-2.8400269-11.2000122-.7000122-3.75-1.5499878-7.3800049-2.6599731-11.0299683-1.0900269-3.6000366-1.6099854-7.2999878-2.5300293-10.9400024-.9299927-3.6400146-2.0999756-7.2200317-3.2600098-10.7999878-1.1599731-3.5900269-1.9400024-7.2800293-3.0499878-10.8900146-.75-2.4500122-1.3599854-4.9400024-2.4199829-7.2800293-.4500122-.9899902-1.0300293-2.0299683-1.8800049-2.7299805-.9400024-.7700195-2.4299927-.7999878-3.0900269.3999634-.6499634,1.1900024-.789978,2.3900146-.4500122,3.710022.3080444,1.197998,1.3733521,1.557251,2.3075562,1.3283691.4157104,1.0861206.7560425,2.2011108,1.0824585,3.3215942.8800049,3.0200195,1.710022,6.0400391,2.5,9.0900269.8126221,3.1553955,1.8947144,6.2384033,2.8726807,9.354126-.2442017.0928345-.4639282.2411499-.6326904.4559326v-.0100098c-.0969238.1176758-.2940063.2653809-.2868042.2710571-.1517334.092041-.2988892.1867676-.4631958.2689209-.027771.0111084-.1613159.0707397-.2336426.1051636-.0903931.0322876-.2063599.0748291-.2063599.0748291-.2800293.1000366-.5700073.1900024-.8500366.2700195-1.1499634.3299561-2.3399658.5599976-3.5199585.7600098-1.1500244.2000122-2.2900391.3900146-3.4299927.6699829-1.6400146.4000244-3.2000122.8300171-4.9000244.8200073-2.5299683-.0199585-2.5299683,3.9100342,0,3.9299927,1.9400024.0200195,3.8200073-.4199829,5.6900024-.8900146,1.2700195-.3200073,2.5499878-.539978,3.8500366-.7600098,1.2699585-.2199707,2.5499878-.4699707,3.789978-.8599854.7716675-.2461548,1.6325073-.5692139,2.3634033-1.0393066.6755981,2.6627808,1.2059326,5.3395996,1.7866211,8.0393066.7799683,3.6599731,2.1699829,7.1499634,2.9599609,10.8099976.4000244,1.8599854.6900024,3.7399902,1.0599976,5.5999756.3800049,1.8900146.9100342,3.7300415,1.4200439,5.5900269.7280273,2.6421509,1.4181519,5.2919312,2.1047974,7.9420776-.1002808-.0453491-.2033081-.0865479-.3148193-.1120605-.9951782-.2244263-2.0891724.2880249-2.3928223,1.2974854.0217896-.0335083.0318604-.0566406.0628052-.0975342-.0205078.0274048-.0436401.0714722-.0639038.1138916-.0026855.0028687-.0053711.005188-.0080566.0080566-.0036011.0126343-.0101318.0233154-.0134888.0360718-.0090332.0050049-.0160522.008728-.0249634.0134888.0050049-.0089111.0142822-.0215454.0200806-.031189-.0132446.0140381-.0264282.0264282-.0396729.0396729-.0018311.0019531-.0020752.0023804-.0038452.0042114-.0228271.0119019-.0491943.026123-.0661621.0358276-.130188.0813599-.2687988.145813-.4068604.2115479-.0801392.0269165-.1607666.0562744-.2331543.0884399-.1900024.0599976-.3800049.1199951-.5799561.1699829-.4500122.1199951-.9000244.210022-1.3500366.2900391-.0999756.0199585-.2000122.0299683-.2999878.0499878-.0217896.0032959-.0279541.0043945-.045105.007019-.1964111.0252686-.3869019.0449829-.5848999.0629883-.4299927.039978-.8699951.0700073-1.2999878.0999756-.7000122.0400391-1.3999634.0599976-2.0999756.0700073-1.0300293.0200195-2.0100098.8900146-1.9700317,1.9700317.0499878,1.0499878.8599854,1.9899902,1.9700317,1.9699707v.000061c1.8999634-.0300293,3.7999878-.1400146,5.6699829-.4800415,1.8087769-.328064,3.987915-1.0700684,4.8575439-2.8012085.9877319,3.805603,1.9904785,7.6063843,3.102478,11.3811646.3430786,1.1653442.6474609,2.3408813.9385986,3.5198364-.0614014.282959-.0628052.5958252.0313721.9403076l.0499878-.0100708c.3245239,1.192627.637207,2.3793335.9605103,3.5581665.0385132.1740723.0784302.3477783.1168823.5218506-.5233154.2336426-.9559326.6658936-1.0773926,1.2399902-.0011597.0058594-.0025024.0118408-.0036621.0177002-2.0734863.4828491-4.2572632.4017944-6.5063477.2922974-2.7099609-.1300049-5.4199829-.460022-8.1400146-.4700317-2.5299683-.0100098-2.5299683,3.9200439,0,3.9299927l.000061-.0099487c3.1400146.0100098,6.2699585.4400024,9.4099731.5199585,1.6700439.0499878,3.3300171,0,4.9800415-.2399902.7000122-.0999756,1.3999634-.2299805,2.0799561-.4400024.1169434-.0368042.2301636-.0770264.3416748-.1196289.7670288,3.1289673,1.6695557,6.2070923,2.7783203,9.239563,1.0609131,2.9133911,2.2382812,5.7749634,3.3649902,8.6578369.086853.8896484.171936,1.7779541.2600098,2.6637573-.0991211-.0142212-.1965332-.0310669-.3049927-.0314941-1.3699951,0-2.7000122.2299805-4.0100098.5999756-1.0100098.2800293-2.039978.6099854-3.0599976.6600342-3.1400146.1400146-6.3299561.0100098-9.4699707.0100098-2.5300293,0-2.5400391,3.9299927,0,3.9299927,3.1400146,0,6.3299561.1300049,9.4699707-.0100098,2.4299927-.1099854,4.6799927-1.2700195,7.0700073-1.2600098.274231.0010986.5130005-.0513916.7277832-.1328735.3067017,2.3464966.7172852,4.6757812,1.3721924,6.9828491,1.3099976,4.6199951,3.0200195,9.0800171,3.9700317,13.7999878.2826538,1.3989868.5445557,2.8015137.8002319,4.2049561-.1575928.0762939-.3093262.1639404-.4702148.2351074-.2200317.0999756-.25.1099854-.1000366.039978-.1199951.0499878-.25.1000366-.3800049.1500244-.25.0899658-.5.1799927-.75.2699585-.9299927.3099976-1.8900146.5400391-2.8499756.710022-.6900024.1199951-1.6400146.2199707-2.6700439.2699585-1.1599731.0599976-2.3099976.0800171-3.4699707.0800171-1.0300293,0-2.0100098.8999634-1.9700317,1.9699707.0499878,1.0700073.8599854,1.9700317,1.9700317,1.9700317v-.0100098c2.4100342,0,4.7999878-.0799561,7.1799927-.4899902,1.4552002-.2467651,2.8639526-.6780396,4.223938-1.2332153.3828125,2.1421509.7702637,4.2827759,1.2060547,6.413208.4700317,2.2999878,1.0599976,4.5799561,1.460022,6.8999634.4099731,2.3500366.9099731,4.5400391,1.9500122,6.7000122.0932617.194397.1968384.3832397.2942505.5753784-.1422119-.0096436-.2849731-.0189819-.4242554-.0253296-1.5200195-.0499878-2.8099976.4700317-4.1300049,1.1700439-2.5200195,1.3200073-5.1900024,1.4699707-7.9400024,1.5199585-2.5300293.0499878-2.5400391,3.9800415,0,3.9299927v-.0100098c3.3400269-.0700073,6.6900024-.4400024,9.7200317-1.9599609.6199951-.3099976,1.0499878-.5700073,1.6699829-.7200317.0452881-.0103149.0595093-.0166016.0628662-.0210571.0218506.0006104.0482178.0010986.0871582.0010986h.3599854c.2799683,0,.5599976.0299683.8499756.039978.6080322.0272827,1.1858521-.0488892,1.7243042-.2203369.2553101.492981.5006104.991272.725708,1.5003052.9400024,2.1199951,1.7999878,4.3200073,2.3999634,6.5599976.5800171,2.1699829.6700439,4.4599609,1.5499878,6.5499878.4000244.9400024.9200439,1.8200073,1.3099976,2.75.3900146.9199829.5700073,1.9400024.75,2.9199829.0822144.4297485.1491089.8613281.2185669,1.2925415-1.0941772.1855469-2.1668701.260498-3.2885132.2775269-2.9000244.039978-5.6400146.9599609-8.4800415,1.3399658-1.0499878.1400146-1.6300049,1.4899902-1.3699951,2.4200439.3099976,1.1400146,1.3599854,1.5199585,2.4200439,1.3699951h-.0100098c1.4099731-.1900024,2.7799683-.5300293,4.1699829-.8200073,1.2999878-.2700195,2.5599976-.3699951,3.8900146-.3800049,1.0945435-.0151367,2.1662598-.1558228,3.2297363-.3452759.1139526.8033447.2337646,1.605957.380249,2.4052124.4500122,2.4800415,1.2000122,4.8900146,1.5700073,7.3900146.3499756,2.3599854.2999878,4.9899902,1.2099609,7.2200317.6799927,1.6499634,2.3400269,3.3499756,2.1500244,5.1599731.1073608,2.1220093,2.5419312,2.4325562,3.5296631,1.076416,3.6702271-.0181885,7.2835083-.3830566,10.8203735-1.3963623,3.6599731-1.0499878,7.1599731-2.6199951,10.9099731-3.3400269,1.8800049-.3599854,3.8099976-.3099976,5.6700439-.8099976.7527466-.1987305,1.4902954-.4540405,2.225769-.7162476.1389771,2.4752197.5321045,4.8989258,1.2841797,7.2962036,1,3.1900024,2.5,6.3200073,2.4700317,9.7200317-.0200195,2.5299683,3.9099731,2.5299683,3.9299927,0,.0299683-3.5599976-1.3099976-6.7900391-2.4000244-10.1099854-.7683716-2.3287964-1.1889038-4.6065063-1.34375-6.9885254.4712524.0285034.9425659.0585938,1.4138184.088501,4.2099609.2600098,8.25.2900391,12.3900146-.6599731,4.0299683-.9299927,7.9500122-2.2700195,11.9400024-3.3699951,1.9588013-.5411987,3.9390259-1.0106201,5.9281616-1.4394531.1668701,1.3103027.5962524,2.5508423.9417725,3.8694458.2199707.8499756.0700073,1.7399902.1199951,2.6099854.0700073,1.1599731.3699951,2.1599731,1.1699829,3.039978.4400024.4899902.2999878,1.2600098.2700195,2.0200195-.0400391,1.1400146-.0300293,2.2399902.2099609,3.3599854.3699951,1.7099609,1.0700073,3.2600098,1.0599976,5.039978-.0100098,2.5300293,3.9200439,2.5300293,3.9299927,0,0-1.8800049-.5199585-3.539978-1.0100098-5.3299561-.5700073-2.0800171.2200317-4.3900146-.6199951-6.3800049-.2699585-.6500244-.9500122-1.0800171-1.0799561-1.710022-.1900024-.8800049.039978-1.8999634-.0900269-2.7999878-.21875-1.5734253-.890564-2.9645996-1.005188-4.5093994.8716431-.1671143,1.7435913-.3317261,2.6152954-.4906006,4.0199585-.7299805,8.0700073-1.3099976,12.1400146-1.7099609,4.0899658-.4000244,8.2299805-.3900146,12.3099976-.9299927.2637329-.03479.5237427-.0870972.7867432-.1251221.0065308.0670776.0125732.1340332.0210571.2009277.001709.2913818.0202026.5827637.012146.8741455-.0205078.6482544.2249146,1.1277466.5995483,1.4437866.1324463.354126.2749023.7034302.4204712,1.0462036.5199585,1.210022,1.3399658,2.7800293,1.7199707,3.7399902.6199951,1.5900269,1.3599854,3.1099854,2.0800171,4.6500244.6300049,1.3699951,1.3499756,2.9400024,1.5299683,4.3800049.1300049,1.0499878.8099976,1.9699707,1.9700317,1.9699707.9599609,0,2.0999756-.8999634,1.9699707-1.9699707-.4299927-3.4800415-2.25-6.4200439-3.5599976-9.6000366-.5700073-1.3800049-1.1900024-2.7199707-1.8200073-4.0799561-.289978-.6300049-.5599976-1.2600098-.7600098-1.9200439-.1616211-.5340576-.2450562-.8496094-.2620239-1.2481079-.0018921-.0563354-.000061-.1126099-.0023193-.1689453.7587891-.152771,1.5184326-.2994385,2.2744141-.4729004,2.2200317-.5100098,4.4299927-1.25,6.6700439-1.6199951,2.0899658-.3399658,4.2299805-.2299805,6.3299561-.5,1.6055298-.2006836,3.1419067-1.1525879,4.7362671-1.3164062-.2421875,4.7695923-.0689087,9.5415039.3463745,14.3027954.1522217,6.130188.9346313,12.2667236,2.0272217,18.2734985.361084,1.9892578.7660522,3.9677734,1.1876221,5.9425659.0358887,1.0457153.3143921,2.0900269.6609497,3.0734863.0037231.0246582.0078735.0491943.0115967.0738525.0050049-.0014038.0100098-.0027466.0150146-.0041504.1863403.737854.7017212,1.152832,1.2984009,1.2945557.1845093,1.5084839.427063,3.0028076.7289429,4.4827271,1.8218384,12.6904297,2.9624634,25.4712524,4.147522,38.2370605.5765381,6.2130127,1.1729736,12.4199829,1.8647461,18.6140747-.6132812-.0150757-1.2390747-.0919189-1.8447266-.1240234-1.5-.0800171-2.960022.0999756-4.4199829.4500122-3.5700073.8699951-7.1199951,1.4899902-10.7399902,2.0999756-7.4400024,1.2399902-14.7399902,2.9899902-22.2199707,4.0100098-7.2200317.9799805-14.3400269,2.0200195-21.4200439,3.789978-1.5522461.3891602-3.1121826.7425537-4.6744385,1.0847168-.6871948.0792847-1.3726807.1749268-2.055481.295105-2.2391968.399292-4.4597778.9331665-6.671875,1.4677734-2.5773926.4908447-5.1558228.9752197-7.7282104,1.4824219-7.1300049,1.4099731-14.0700073,3.2199707-20.9500122,5.5700073-.4761353.1630859-.9509277.3338013-1.4266357.4989014-.4119873.0473633-.8234863.1025391-1.2332764.1808472-1.1900024.2299805-2.2999878.7199707-3.4400024,1.0999756-1.3200073.4400024-2.6599731.7999878-4.0100098,1.1300049-2.4799805.6099854-4.9899902,1.1099854-7.4599609,1.75-2.8400269.7399902-5.5800171,1.710022-8.1400146,3.1599731-.6884155.3875732-1.3727417.8091431-2.0748901,1.1899414-4.9011841,1.0961914-9.8724976,1.8837891-14.7752075,2.9803467-1.9561157.4346924-3.9036255.756897-5.8725586.9346313-.0454712-.0008545-.0919189-.0043945-.1373291-.0049438-.1868896-.0014648-.3555908.024292-.5148926.0627441-.9873047.0703125-1.9793091.1124268-2.9852295.0875854-1.3900146-.0300293-2.8399658-.0599976-3.6199951-1.3499756-1.1900024-1.9899902-1.3699951-4.7600098-2.0100098-6.9500122-.9500122-3.2399902-2.2799683-6.3499756-3.3299561-9.5700073-2.1500244-6.6199951-3.5-13.4699707-4.7000122-20.3099976-1.2200317-6.9400024-2.3099976-13.8699951-4.1600342-20.6799927-1.9199829-7.0700073-4.4299927-13.9000244-6.8999634-20.789978-2.5499878-7.1199951-4.3400269-14.4899902-6.6500244-21.6900024-2.1799927-6.8200073-4.1499634-13.7000122-6.0700073-20.5899658-3.789978-13.5800171-7.6199951-27.1799927-13.3599854-40.1000366-5.9299927-13.3399658-9.0999756-27.5799561-11.6699829-41.8900146-1.2999878-7.2099609-2.4299927-14.4500122-3.9000244-21.6300049-1.4799805-7.2600098-3.2799683-14.4299927-4.9599609-21.6499634-1.6900024-7.25-2.8699951-14.6099854-4.6600342-21.8400269-1.7799683-7.1699829-4.3499756-14.0899658-6.039978-21.289978-1.6900024-7.1700439-2.9700317-14.4299927-4.3599854-21.6700439-1.4299927-7.4699707-3.1500244-14.8800049-4.8500366-22.289978-3.3599854-14.6400146-6.4299927-29.3500366-8.0299683-44.3000488-.6799927-6.3299561-1.5200195-13.0299683-1.0100098-19.3999634.0598145-.7365112.1799927-1.4736328.3739014-2.1779785.0513306-.0233765.1049805-.0373535.1560669-.0620728.7800293-.3800049,1.3500366-.9699707,1.8699951-1.6499634.2900391-.3699951.3200073-1.0800171.2000122-1.5200195-.0056763-.0200195-.0172729-.0401611-.0237427-.0603027.185791-.1236572.3712769-.2476807.5837402-.3496704,2.7000122-1.289978,6.0300293-1.1799927,8.9500122-1.1000366,7,.1799927,13.9899902.1400146,21,.2200317,7.3800049.0899658,14.6000366.2799683,21.960022-.5200195,7-.7700195,14.0599976-.960022,21.0999756-1.1599731,6.8900146-.2000122,13.5100098,1.6199951,20.4100342,1.6599731,7.5599976.039978,15.0799561.3800049,22.6199951.7700195,7.5799561.3900146,15.1799927.2199707,22.75.6499634,7.4599609.4200439,14.8299561,1.1199951,22.2999878,1.1199951,7.4500122,0,14.7600098-.2699585,22.1499634-1.2199707,15.1199951-1.9299927,30.4000244-1.2700195,45.5800171-2.4100342,7.5900269-.5700073,15.1199951-1.3699951,22.7399902-1.6099854,7.5100098-.2299805,15.0300293-.1900024,22.539978-.0999756,7.4899902.0899658,14.9899902.2399902,22.4799805.25,2.5300293,0,2.5300293-3.9299927,0-3.9299927l-.0099487-.000061c-15.6799927-.0100098-31.3599854-.6699829-47.0299683-.0800171-7.7399902.2900391-15.4000244,1.2200317-23.1199951,1.710022-7.7299805.4899902-15.4799805.5800171-23.2199707.8400269-7.8900146.2599487-15.6799927.9199829-23.5100098,1.8699951-7.460022.9099731-15.0499878.8099976-22.5599976.75-7.7300415-.0599976-15.4100342-1.210022-23.1400146-1.2900391-7.7199707-.0799561-15.4099731-.3499756-23.1300049-.75-7.6099854-.3999634-15.2999878-.0899658-22.8900146-.6799927-3.4500122-.2699585-6.7799683-1.2599487-10.2399902-1.4499512-3.5299683-.1900024-7.0700073.0700073-10.5999756.2399902-3.5800171.1699829-7.1500244.0999756-10.7200317.4199829-3.6599731.3300171-7.3099976.8500366-10.9899902,1.0700073-7.8299561.4700317-15.7600098-.0899658-23.5999756-.0899658-3.3400269,0-6.6799927.039978-10.0300293-.1000366-3.1499634-.1300049-6.3099976-.2700195-9.4400024.210022-3.753479.5733643-6.4290771,2.3438721-7.9660645,5.1188354-.2904663.0579224-.5821533.1097412-.8739624.1711426-1.6400146.3400269-3.3699951,1.1000366-3.9799805,2.7900391-.1262817.3535767-.1669922.7208252-.2127075,1.0848389-.0045166.0205688-.0112915.0518188-.0198975.0912476-.0144653.0171509-.027771.0317993-.0410156.0459595-.1688232.1088257-.3376465.1986084-.5163574.2979126-.5900269.3200073-1.1199951.7200317-1.5,1.2900391-.3145752.4684448-.472229,1.0055542-.5421143,1.5544434-1.4022827-.434021-3.1786499.5550537-2.4879761,2.2458496l-.0299683-.0303345c1.2000122,2.9299927,1.3900146,6.039978,1.7999878,9.1400146.4200439,3.2399902,1.3900146,6.3499756,1.9299927,9.5599976,1.1400146,6.7299805.5499878,13.5599976,1.5599976,20.3099976.5100098,3.3999634,1.3200073,6.7299805,1.9899902,10.0999756.6300049,3.1300049.5200195,6.2800293.9700317,9.4200439.5,3.4599609,1.5799561,6.8099976,2.1900024,10.25.6199951,3.4400024,1.1599731,6.8900146,1.7000122,10.3399658,2.1900024,14.1700439,3.8599854,28.4299927,7.1099854,42.4100342,1.5599976,6.7199707,2.539978,13.5499878,4.0999756,20.2799683,1.5900269,6.8699951,2.8900146,13.7800293,4.3099976,20.6900024.7200317,3.5,1.5700073,6.9700317,2.2999878,10.4700317.7399902,3.539978.9800415,7.1499634,1.3500366,10.75.3299561,3.1799927.9400024,6.289978,1.4299927,9.4500122.069458.4483032.1272583.8978882.1812744,1.3478394-2.600647-10.5281372-5.2056274-21.0625-8.9312134-31.2579346-2.1900024-5.9800415-4.4699707-11.9500122-5.8499756-18.1799927-1.3599854-6.1700439-3.2399902-12.1799927-5.3900146-18.1100464-2.1799927-6-4.7000122-11.8800049-6.6600342-17.9599609-1.8900146-5.8599854-3.4400024-11.8300171-4.9899902-17.7800293-1.6099854-6.1699829-3.2199707-12.3499756-5.2199707-18.3999634-1.8800049-5.6700439-4.2700195-11.1199951-6.6699829-16.5800171-2.3300171-5.289978-4.8200073-10.539978-8.1300049-15.2999878-1.6300049-2.3399658-3.4900513-4.4500122-4.9000244-6.9400024-1.2799683-2.25-2.5200195-4.2199707-4.6599731-5.7299805-1.2717896-.8972778-2.8458252-1.612854-3.8740845-2.8023682,1.375061-1.3416748,3.5409546-2.2202759,5.1340332-2.9876099,2.5100098-1.1900024,5.0700073-2.3200073,7.6400146-3.3699951,5.7828979-2.3583984,11.992981-4.6327515,18.2859497-3.3887939.5548096,2.4085693,4.2802124,1.3601074,3.7740479-1.1012573l.039978.0200195c-.0700073-.3499756-.1499634-.6999512-.2199707-1.0599976-.1300049-.6499634-.75-1.2099609-1.3699951-1.3699951-6.5499878-1.7399902-13.1500244-.1199951-19.2800293,2.25-2.8299561,1.0900269-5.5999756,2.3200073-8.3800049,3.5400391-2.4899902,1.0899658-5.0299683,2.2199707-7.2199707,3.8399658-.8699951.6400146-1.8699951,1.4100342-2.4000244,2.3800049-.7099609,1.3099976-.0199585,2.5700073.8400269,3.6300049,1.710022,2.0900269,4.4899902,2.8699951,6.25,4.8500366,1.1199951,1.2599487,1.8300171,2.9199829,2.6799927,4.3599854.9799805,1.6400146,2.2299805,3.0599976,3.3599854,4.5899658,2.1000366,2.8300171,3.9000244,5.8800049,5.5,9.0100098,3.3400269,6.5300293,6.3599854,13.4100342,8.8300171,20.3200073,2.5999756,7.2999878,4.5299683,14.8099976,6.4799805,22.2999878,1.9500122,7.5,3.9299927,15.0100098,6.6300049,22.2900391,2.7200317,7.3399658,5.7200317,14.5499878,7.960022,22.0499878,1.1099854,3.7000122,1.8599854,7.4699707,2.8399658,11.2099609,1,3.8099976,2.2900391,7.5400391,3.6400146,11.2399902,2.7800293,7.6400146,5.2800293,15.2600098,7.3400269,23.1199951,4.1099854,15.6900024,7.4500122,31.6400146,12.8399658,46.960022,2.6400146,7.5,5.8400269,14.8200073,7.7600098,22.5499878.9700317,3.9199829,1.6500244,7.9099731,2.6000366,11.8299561.9599609,3.9899902,2,7.960022,2.9099731,11.960022.8800049,3.8900146,1.6000366,7.7999878,2.5499878,11.6799927.9500122,3.8800049,1.9899902,7.7799683,2.4200439,11.7699585.8699951,8.0599976.2799683,16.2299805,1.0299683,24.2999878.3699951,3.9699707,1.1000366,7.8900146,1.4400024,11.8699951.3400269,3.9799805.460022,7.9799805.4800415,11.9799805.0299683,7.4899902.4299927,15.3400269-1.6400146,22.5900269-.960022,3.3699951-2.1000366,6.7000122-2.5900269,10.1799927-.3299561,2.3699951-1.0199585,7.7600098,1.7000122,8.9099731,2.4700317,1.0499878,5.5400391.1599731,7.9200439-.7199707,2.5-.9199829,5.4199829-1.8499756,7.7000122-3.2399902,1.1799927-.7199707,2.2299805-1.8400269,3.5799561-2.2299805,1.4845581-.4292603,3.2235107-.0928345,4.7907715-.0021973.5119019,2.8609009,1.159729,5.6886597,2.2991333,8.3724365.7399902,1.7399902,1.7000122,3.6400146,3.4400024,4.5700073.729126.3910522,1.6098633.2946777,2.2214355-.178833.2486572.4785156.7247925.8532715,1.2186279.9886475,2.9099731.7999878,6.0599976.5700073,8.9599609-.1199951,2.2301636-.5288086,4.434082-1.3963013,6.3425903-2.6846313.4929199.8528442,1.1292114,1.6073608,2.0075073,2.1447144,1.6099854.9899902,3.5999756,1.0999756,5.4400024,1.1199951,1.1742554.0103149,2.3366089-.0623779,3.494751-.1678467,2.4550781.0625,4.9094849.4119873,7.3551636.027771,2.2800293-.3499756,4.2300415-1.6500244,6.4400024-2.25,2.3699951-.6500244,4.7800293-.5599976,7.0700073-1.5599976.2149658-.0944214.4254761-.1972046.6364136-.2991943,2.0983887-.4714966,4.1846924-.9940186,6.2436523-1.6307373,6.6971436-2.0765381,13.2987061-4.517334,19.925354-6.8215332.7480469-.0528564,1.50354-.0587769,2.2446289-.1085815,2.7199707-.1799927,5.2699585-.9299927,7.8599854-1.710022,2.4799805-.7399902,5.0599976-1.0200195,7.5-1.8900146,2.4099731-.8699951,4.7199707-2.0100098,7.2199707-2.6199951.9771118-.236145,1.9564819-.4796753,2.9371948-.7227173,3.4855347-.6904297,6.9724731-1.3817139,10.4470215-2.1403809,1.0254517-.1317139,2.0531616-.241333,3.0858154-.296875,2.6599731-.1400146,5.3299561-.2000122,7.9799805-.5499878,2.8900146-.3800049,5.7399902-.3099976,8.6500244-.2700195,2.7799683.039978,5.4699707-.2299805,8.2099609-.6699829,1.25-.2000122,2.5-.4199829,3.7600098-.539978,1.460022-.1400146,2.9100342-.0999756,4.3800049-.1500244,1.4000244-.0499878,2.7900391-.1799927,4.1799927-.3699951,1.4400024-.2000122,2.8500366-.5900269,4.2800293-.7700195,1.5599976-.2000122,3.1299438-.0800171,4.6799927-.3900146,1.4500122-.289978,2.7399902-1.039978,4.0800171-1.6400146,3.6599731-1.6500244,8.9299927-.1799927,11.8900146-3.7399902.1585693-.1912231.2832031-.4020386.3763428-.6213989.8536377,6.9848633,1.8615723,13.9500732,3.1635742,20.8814697,2.7000122,14.3300171,6.0300293,28.5300293,9.0800171,42.789978,1.5200195,7.1300049,2.9699707,14.2700195,4.2399902,21.4400024,1.289978,7.2999878,2.460022,14.6199951,3.8900146,21.8900146,2.3777466,12.0899658,5.2219849,24.0881958,8.6990967,35.9078979.2304688,1.3404541.4588623,2.6884155.8808594,3.97229.4400024,1.3200073.9699707,2.5999756,1.4099731,3.9099731.3099976.9500122.7600098,2.3300171.6099854,3.1599731-.1900024,1.039978.2800293,2.1199951,1.3699951,2.4199829.9500122.2600098,2.2299805-.3200073,2.4199829-1.3699951.1008301-.5536499.1205444-1.1012573.1040649-1.6456299.2271118-.3895264.3032837-.8808594.1160278-1.4544678-1.1170044-3.40979-2.1775513-6.8377075-3.1876221-10.2804565-.2199707-1.2988281-.3930664-2.6051636-.5224609-3.8994141-.3800049-3.75-.6199951-7.460022-1.2999878-11.1799927-.6900024-3.7700195-1.6300049-7.5-2.6799927-11.1900024-1.0100098-3.5300293-2.2299805-7-3.039978-10.5900269-.8300171-3.6599731-1.3699951-7.3699951-1.8900146-11.0800171-.5100098-3.6599731-.9899902-7.3200073-1.7000122-10.9400024-.7299805-3.7600098-1.7199707-7.4699707-2.460022-11.2299805-.7399902-3.75-1.3900146-7.5200195-2.0900269-11.2700195-.7199707-3.7999878-1.6199951-7.5599976-2.3099976-11.3599854-.6900024-3.8200073-.9799805-7.710022-1.5499878-11.5499878-.539978-3.6400146-1.2700195-7.2399902-1.9099731-10.8699951-.6199951-3.539978-.8900146-7.0499878-1.0999756-10.6400146-.2199707-3.7800293-.6699829-7.5499878-.9299927-11.3300171-.2700195-3.8800049-.0999756-7.7700195-.5300293-11.6400146-.4199829-3.7700195-1.1599731-7.4899902-1.9699707-11.2000122-.8200073-3.7600098-1.6799927-7.5100098-2.3099976-11.2999878-.6099854-3.7399902-1.2000122-7.4899902-1.9000244-11.210022-.710022-3.7399902-1.5800171-7.4299927-2.6099854-11.0900269-.963562-3.4345093-1.9824219-6.8530884-2.7174072-10.3466797-.0490723-.3442383-.0925293-.689209-.1425781-1.0333252-.2600098-1.8099976-.539978-3.6300049-.8300171-5.4299927-.0974121-.6018677-.569458-1.0415649-1.1307373-1.2648926-.0482178-1.1299438-.2036133-2.2207642-.6893311-3.3152466-.0182495-.0410156-.0487671-.0640259-.0690308-.1021729-1.1484375-7.1270752-2.3679199-14.2642212-3.0297852-21.4447021-.0630493-2.2578125-.0422363-4.5194092.0889893-6.7832642.6400146-11.0499878,4.2000122-21.8599854,11.2800293-30.4799805,6.9299927-8.4299927,15.1799927-15.6600342,24.2700195-21.6799927,5.5601807-3.6800537,11.3914185-6.93573,17.3833618-9.8659058.4830322-.1289062.9671631-.2550049,1.4464722-.394043,5.6900024-1.6500244,11.2800293-3.6099854,16.7199707-5.9500122,2.7299805-1.1700439,5.4099731-2.4500122,8.0300293-3.8400269.6251831-.3292847,1.2477417-.6686401,1.8683472-1.0128784,5.9385376-2.0888062,11.8129883-4.3239746,17.3317871-7.387146,2.5300293-1.4100342,6.3599854-3.1600342,7.0700073-6.2900391.3599854-1.5799561.2199707-3.4099731.25-5.0199585.039978-1.6600342.0499878-3.3300171.039978-5-.0300293-6.6600342-.3300171-13.3200073-.3300171-19.9800415,0-6.6300049.2700195-13.2999878,1.4400024-19.8499756.4299927-2.4100342.6900024-4.9299927,1.7000122-7.1799927.8699951-1.9400024,2.1300049-3.6500244,3.710022-5.0599976,3.0700073-2.7399902,7.7999878-4.2200317,11.8699951-3.210022,1.5836182.392334,3.1080933,1.4263916,4.197937,2.7387695.0361328.2963867.0686646.5904541.1119995.8613281.135437.8544312.2422485,1.7130127.3621216,2.5697632-.3342285.3128662-.6447754.6564941-.9721069.9604492-.6500244.5999756-1.3400269,1.1599731-2.039978,1.6900024-3.0599976,2.3200073-6.289978,4.3999634-8.5200195,7.5999756-2.5599976,3.6700439-3.4699707,8.3500366-2.8800049,12.7399902.5700073,4.2600098,2.5700073,8.1700439,4.6900024,11.8599854,1.1400146,1.9800415,2.460022,3.8599854,4.210022,5.3500366,1.8099976,1.5499878,3.8499756,2.8200073,5.5499878,4.5100098.4177246.4153442.8875122.5766602,1.3413086.5693359.0181885.8000488.0286255,1.6003418.0487671,2.4003296.3400269,13.6000366.9899902,27.210022,2.1699829,40.7600098.1400146,1.5800171.1699829,3.0300293-.1699829,4.5800171-.324585,1.4876099-.7886353,2.934021-1.2722778,4.3696289-1.003418,1.0772095-1.9277344,2.2366333-2.7576904,3.4503784-.8300171,1.2199707-1.460022,2.5499878-2.3800049,3.6900024-2.2700195,2.8200073-4.5900269,5.5999756-6.9699707,8.3399658-4.6900024,5.4100342-9.5900269,10.6300049-14.710022,15.6400146-.7145996.6988525-.7077637,1.5519409-.3336182,2.2234497-.4249878.2277832-.7592163.6067505-.9064941,1.1468506-.1686401.6097412.0203247,1.3704834.4575806,1.8794556-.55896.6079712-1.1176147,1.2163696-1.6276245,1.8704834-.1900024.1799927-.3300171.3900146-.4099731.6300049-.0865479.1658936-.1293945.3500977-.1497803.5396729-.3638306.2478027-.6428833.5991211-.710083,1.0402832l.0098267.0200806c-2.6400146,17.4299927-2.8300171,35.1500244-.6599731,52.6400146,1.0800171,8.75,2.7000122,17.4299927,4.8599854,25.9699707,1.0054932,3.9753418,2.1351929,7.9123535,3.3660278,11.8182983.0256958.1231079.0621338.2424927.1086426.3587036.0540161.1702881.1008911.3428345.1553345.5130005.6799927,2.1300049,1.3900146,4.2600098,2.1400146,6.3699951.6900024,1.960022,1.3200073,4.0100098,2.2800293,5.8599854.8599854,1.6400146,1.9899902,3.1500244,2.6199951,4.9099731.7999878,2.25,1.5100098,4.5300293,2.2600098,6.789978,1.4400024,4.3200073,2.7199707,8.7399902,4.4500122,12.9500122,1.590332,3.8672485,3.5491943,7.5515137,5.4907227,11.2432251.9598389,4.1985474,2.1026611,8.3226318,3.4591675,12.4268188,1.5599976,4.7199707,2.710022,9.5999756,4.460022,14.2399902.8699951,2.3099976,1.960022,4.5200195,3.1199951,6.7000122,1.039978,1.960022,2.2399902,3.8800049,2.9299927,6,1.3499756,4.1099854,1.5499878,8.5200195,3,12.6099854.75,2.1099854,1.8900146,4,2.9199829,5.9699707,1,1.9299927,1.5599976,4.039978,2.4199829,6.0300293.8200073,1.9000244,1.9000244,3.5800171,3.0200195,5.3099976,1.3300171,2.0599976,2.5700073,4.1699829,3.7399902,6.3300171,2.25,4.1400146,4.1199951,8.4699707,6.2800293,12.6500244,1.039978,2.0200195,1.6699829,4.1500244,2.5800171,6.2199707.8599854,1.960022,2.0599976,3.7399902,3.0900269,5.6199951,1.0900269,1.9699707,1.6599731,4.0700073,2.4299927,6.1699829.7999878,2.2000122,2,3.9500122,3.3699951,5.8200073,1.3200073,1.8099976,2.6300049,3.6400146,4.1500244,5.289978,1.7199707,1.8699951,4.4899902-.9199829,2.7800293-2.7800293-2.8699951-3.1300049-5.6799927-6.7800293-7-10.8300171-.0357056-.1098022-.0755005-.2169189-.1118164-.3262939.5932007.9859009,1.1758423,1.9778442,1.7818604,2.9563599,1.1400146,1.8400269,2.2999878,3.6599731,3.4899902,5.4699707,1.3800049,2.1099854,4.789978.1400146,3.4000244-1.9799805-9.460022-14.460022-17.4099731-29.8400269-24.460022-45.6099854-6.9799805-15.6099854-13.0800171-31.5800171-19.1900024-47.5499878-1.5599976-4.0800171-2.9699707-8.2600098-4.8599854-12.210022-1.0151978-2.1273804-2.1188354-4.2089844-3.2317505-6.2860718-.6407471-2.7329102-1.2919922-5.4611206-2.1882324-8.144104-1.5200195-4.5700073-3.0499878-9.0800171-4.1599731-13.7700195-1.0900269-4.6099854-2.25-9.2000122-3.3699951-13.7999878-.9006958-3.684082-1.8407593-7.3640747-3.0025635-10.9732666,1.8770142-.7628174,3.6899414-1.6225586,5.6924438-2.0765381,5.4299927-1.25,10.7600098-2.8699951,16.1199951-4.4000244.3260498-.0926514.6541748-.1759644.9806519-.2666016.2571411-.0410767.5144043-.0809326.7693481-.1333618.6546631-.1332397,1.2872314-.3897095,1.9279785-.6000366.2828369-.0741577.56604-.1461182.8490601-.2192383.1897583-.0371094.3783569-.0806274.572937-.0906982.6900024-.039978,1.3800049.0900269,2.0700073.039978.7299805-.039978,1.4299927-.2299805,2.1300049-.4400024,1.4400024-.4400024,2.8499756-1.0100098,4.2199707-1.6199951.1646118-.0731812.3256226-.1546021.4894409-.2296753,5.7854614-1.4042358,11.5559692-2.8566895,17.2006226-4.8303833,4.7385864-1.652771,9.3900146-3.5890503,13.8771362-5.8417969.4343872-.0420532.8709106-.1195068,1.3128052-.2582397.5299072-.1706543,1.1169434-.6074219,1.3010864-1.1784058.7697144-.5244141,1.4528198-1.1533203,1.8989868-2.0015869.3499756-.6699829.5700073-1.4099731.8099976-2.1199951.3200073-.960022.75-1.5599976,1.3900146-2.3499756.0714722-.0889893.1270752-.1798706.1928711-.2695312,1.3344727,1.1869507,3.1084595,1.8104858,4.9570312,2.3696289,2.6599731.7999878,5.6099854,1.5300293,8.4000244,1.2299805,1.4199829-.1500244,2.7199707-.5700073,3.789978-1.5499878,1.0599976-.9799805,1.710022-2.3499756,2.1500244-3.710022.9000244-2.789978,1.1400146-6.0800171.7999878-8.9899902-.4099731-3.5499878-1.8300171-6.7199707-2.6699829-10.1500244-.0087891-.0354614-.0153809-.0708618-.0239258-.1063232,2.5238647.4032593,5.2650146.3532715,7.6538696-.1636353,3.5900269-.7800293,5.2800293-3.8099976,5.4299927-7.2699585.0599976-1.4700317-.1099854-2.9299927-.1199951-4.4000244ZM124.3887765,220.7738555c.0136108-.0109253.0291138-.0239258.0444946-.0371094-.020752.0419922-.0287476.0645142-.0266724.0716553-.0406494.0846558-.0691528.0761108-.0178223-.0345459ZM154.7877633,314.9851592c.3187866,1.0421143.6467896,2.0814209.9866943,3.1174316-.2414551-.5447998-.4606323-1.0983276-.6300049-1.6704102-.1386719-.4769287-.2498169-.9614258-.3566895-1.4470215ZM270.2545601,353.2621978c-4,.7700195-7.9899902.8500366-12.0400391,1.1500244-.9846191.0741577-1.9680176.1608276-2.9505005.2550049,2.8031616-.6981201,5.6463013-1.3185425,8.4904175-1.6051025,2.2999878-.2299805,4.5599976-.3800049,6.8300171-.8900146,1.9667358-.4425049,3.9434814-.4584961,5.9485474-.4209595-2.0946045.5193481-4.1783447,1.1100464-6.2784424,1.5110474ZM43.0756661,94.9808257c.0023193-.026062-.0016479-.0460205-.0003052-.0713501.0142212-.0490723.0245361-.0982056.0490723-.1472778-.0157471.1011963-.0328369.1670532-.0487671.2186279ZM43.0290963,95.0853789c-.0004883.0003052-.0006104.0004883-.0010986.0006714.0003662-.0002441.0007324-.0004272.0010986-.0006714ZM88.1144845,353.3921416c-1.2999878-6.3500366-3.1599731-12.4000244-5.4299927-18.4700317-1.9581909-5.2504883-3.7566528-10.5251465-5.4332886-15.8343506.8569336,1.8028564,1.7524414,3.5897217,2.5732422,5.4144287,1.3299561,2.9400024,2.3499756,6.0200195,3.2799683,9.1099854,1.960022,6.4700317,3.9500122,13.0900269,5.1400146,19.7600098.177002.9924927.3501587,1.9835815.5244751,2.9752808-.2218628-.9842529-.4521484-1.9666748-.6544189-2.9553223ZM111.7645089,476.5920928c-2.039978.7199707-3.5599976,2.3599854-5.5599976,3.1799927-2.7753906,1.1244507-6.631958,3.4909058-9.8678589,3.0933838-.8598022-5.2224121,1.3741455-10.4450684,2.737854-15.4234009,1.5800171-5.7999878,1.4200439-11.8200073,1.5-17.789978.0900269-6.460022,0-12.9400024-.6900024-19.3599854-.7099609-6.5300293-1.5599976-12.9199829-1.7299805-19.5100098-.0803223-3.2180176-.0905762-6.4460449-.2347412-9.6627197.3365479,1.197937.6974487,2.3928223,1.1146851,3.5928345,1.0799561,3.1300049,1.789978,6.2800293,2.6799927,9.460022s2.3299561,6.3800049,3.5599976,9.4500122c.539978,1.3400269,1.1599731,2.5900269,1.8999634,3.8300171.8800049,1.5,1.210022,3,1.4400024,4.710022.9000244,6.6699829,2.4899902,13.2000122,3.9500122,19.7700195,1.5400391,6.9699707,3.0599976,13.9500122,4.3500366,20.960022.2053833,1.1136475.3859863,2.2369385.5646973,3.3619995-1.9223022-.1087036-3.8627319-.3153687-5.7146606.3377686ZM140.9483468,487.5499785c-.0822144.0599365-.2201538.1602783-.2438965.1721802-.1099854.0800171-.2199707.1500244-.3299561.2199707-.5200195.3400269-1.0599976.6300049-1.6099854.9000244-.5599976.2700195-.8500366.3900146-1.5200195.6199951-.6599731.2299805-1.3399658.4299927-2.0199585.5900269-1.3400269.3200073-2.2000122.4400024-3.5800171.4799805-.6199951.0100098-1.2299805,0-1.8499756-.0599976-.0177002,0-.1514893-.0161133-.2267456-.024231-.0231934-.0041504-.052063-.0092773-.0831299-.0146484-.2451782-1.0018921-1.4397583-1.5758057-2.4001465-1.3111572-.1900024.0527954-.3555298.1367798-.5093994.2333984-.4505005-.4907837-1.1485596-.7460938-1.8053589-.6833496-.7861328-1.1673584-1.2200317-2.8493652-1.5653076-3.9498291-.7000122-2.2600098-1.0599976-4.5800171-1.4500122-6.9099731-1.1599731-6.9000244-2.539978-13.7600098-4-20.5999756-1.4799805-6.9099731-3.1199951-13.7999878-4.5100098-20.7299805-.5799561-2.8800049-.5499878-6.0100098-1.5599976-8.789978-.4799805-1.3200073-1.289978-2.4199829-1.9400024-3.6599731-.8099976-1.5499878-1.3399658-3.2600098-1.9299927-4.8900146-1.1499634-3.1400146-2.2600098-6.0999756-3.0499878-9.3599854-.7600098-3.1300049-1.9799805-6.1099854-2.9400024-9.1799927-1.039978-3.3200073-1.5100098-6.7600098-2.1799927-10.1599731-.6599731-3.3699951-1.3800049-6.7299805-2.1199951-10.0899658-1.5-6.8300171-3.0499878-13.6600342-4.2600098-20.5499878-.6099854-3.4700317-1.0299683-6.960022-1.7999878-10.4000244-.7299805-3.289978-1.6599731-6.5299683-2.5499878-9.7799683-1.6799927-6.1300049-3.3999634-12.2700195-6.1199951-18.0400391-1.3999634-2.9799805-2.8399658-5.8999634-4.0499878-8.9599609-.4899902-1.25-1.1199951-2.4299927-1.6599731-3.6500244-.6900024-1.5599976-.6300049-2.8599854-.7000122-4.5100098-.1300049-3.0700073-1.7000122-5.7699585-2.3099976-8.7299805-.5800171-2.7999878-.6199951-5.7200317-1.1400146-8.5400391-1.25-6.7999878-1.3599854-13.75-2.9299927-20.4899902-1.5900269-6.8299561-2.8200073-13.7299805-4.2300415-20.5899658-1.3699951-6.6900024-3.1900024-13.2900391-4.2799683-20.0400391-1.1300049-7.0100098-3.0800171-13.8399658-4.25-20.8399658-1.1500244-6.8400269-2.1400146-13.710022-3.1500244-20.5700073-1.0499878-7.1300049-1.9899902-14.3200073-3.3900146-21.3900146-.6699829-3.3599854-1.8200073-6.6599731-2.0799561-10.0899658-.2200317-2.9800415-.3500366-5.8599854-.9500122-8.7999878-.6900024-3.3800049-1.4899902-6.7200317-1.9800415-10.1400146-.5100098-3.5300293-.4699707-7.0400391-.5899658-10.5900269-.1000366-3.25-.4200439-6.5100098-.9800415-9.710022-.5799561-3.3099976-1.539978-6.4899902-1.9299927-9.8399658-.2665405-2.3346558-.5210571-4.6740723-1.1860962-6.9163208.0258179.0001831.0500488.006958.0761719.0059814,1.0499878-.0499878,1.9899902-.8599854,1.9699707-1.9699707v.0299683c0-.0543823.0084229-.1239014.0153809-.1912231.0211182-.0129395.0452271-.0258789.0645752-.0387573.2000122-.1100464.4000244-.210022.5900269-.3400269.6099854-.3999634,1.2000122-.9199829,1.539978-1.5800171.0288696-.0588379.0474243-.1151123.0719604-.1727295-.4682007,6.1088257.3513184,12.5375977.9880981,18.5727539.7800293,7.4500122,1.9100342,14.8699951,3.2300415,22.25,2.75,15.3699951,6.8999634,30.4500122,9.8399658,45.7800293,1.4100342,7.3599854,2.710022,14.75,4.4500122,22.039978,1.7700195,7.4500122,4.4500122,14.6199951,6.2300415,22.0599976,1.7699585,7.3800049,2.9799805,14.8699951,4.75,22.25,1.789978,7.4500122,3.5799561,14.9100342,5.0599976,22.4299927,2.8699951,14.6000366,4.7600098,29.3900146,8.8299561,43.7399902,2,7.0499878,4.7000122,13.7200317,7.5700073,20.4500122,2.8900146,6.7600098,5.2399902,13.7399902,7.3800049,20.7700195,2.1600342,7.0999756,4.1000366,14.2699585,6.1099854,21.4099731,2.0100098,7.1199951,4.3099976,14.1400146,6.3900146,21.2299805,2.1400146,7.3300171,4.4400024,14.5200195,7.0100098,21.710022,2.5100098,7,4.75,14.1199951,6.3599854,21.3800049,1.5599976,7.0200195,2.4500122,14.1699829,3.8800049,21.210022,1.4100342,6.9899902,3.5499878,13.5499878,5.8599854,20.2700195.7741089,2.2510986,1.2570801,4.5930176,1.9053345,6.8786011-.012085.0103149-.0232544.0211792-.0354004.031311-.0216675.0144653-.1652222.1306152-.196106.1578369ZM501.1144845,369.3521636c.9500122,1.7300415,1.5599976,3.7800293,2.0999756,5.6799927.1973267.7004395.4321289,1.6984253.5056152,2.2341919-.0027466.0067749.0357666.3952026.0443726.4558105.0100098.1900024.0200195.3900146.0200195.5800171s-.0100098.3800049-.0200195.5700073c0,.0419312-.0096436.0875244-.0139771.1304932-.0037231.0142212-.0089111.0363159-.0160522.069519-.039978.1699829-.0900269.3399658-.1300049.5100098-.0175781.046814-.0321655.0975342-.046875.1463623-.0048828.0089111-.007019.0122681-.0131226.0236206-.0186768.0311279-.1263428.2094116-.1737061.2962036-.0679321.0718994-.2044678.2283325-.2362671.2537842-.0296021.0266113-.0273438.0268555-.0361938.0362549-.0470581.0328369-.093811.0687866-.1437988.09375-.0800171.0400391-.4699707.2399902-.3900146.210022-.2600098.0999756-.9199829.2399902-1.3400269.289978-.2606812.0372314-.4920044.1483765-.6890869.3078003-.5081177-1.1638184-.9914551-2.3380737-1.3408813-3.5678101-.4284058-1.5039673-.8747559-3.2360229-2.0544434-4.3400269.1783447-.0456543.3511963-.1127319.5045166-.2299805,1.5152588-1.1689453,2.5953979-2.5405884,3.1629028-4.2178955.1062012.1520386.21521.3013916.3070679.4678955ZM478.3585641,376.7219756c-.8770752-1.9385376-2.2250977-3.6107178-4.3690186-3.4980469-.0412598-.0505981-.085022-.1013794-.1251221-.1517944-1.7999878-2.2699585-3.0700073-4.9500122-4.3900146-7.5100098-1.8099976-3.539978-3.5499878-7.0799561-5.0300293-10.7799683-.1935425-.4838257-.3685303-.975769-.5582275-1.4613037.3790283-.5453491.5050049-1.265625.1083374-2.0186157-.0700073-.1400146-.4400024-.9299927-.3099976-.6099854-.1199951-.2900391-.2299805-.5900269-.3400269-.8800049-.2800293-.7800293-.5300293-1.5800171-.789978-2.3699951-.5300293-1.6600342-1.0800171-3.2999878-1.7800293-4.8900146-.5126953-1.1618652-1.1734619-2.2994995-1.9870605-3.2846069-.2346802-.6240234-.4654541-1.2494507-.7230225-1.8654785-.7700195-1.8300171-2.0800171-3.3099976-2.75-5.1700439-1.4299927-3.9599609-2.6099854-8.0100098-4.1400146-11.9299927-1.5700073-4.0100098-3.6199951-7.7999878-5.2800293-11.7799683-3.2600098-7.8400269-5.6500244-16-8.8599854-23.8600464-.7800293-1.9199829-1.5800171-3.8399658-2.4400024-5.7199707-.7999878-1.7600098-1.9899902-3.5100098-2.1900024-5.4800415-.09021-.9021606-.6615601-1.4761963-1.3408203-1.7296143-.1143188-3.291626.0419312-6.6231689.0609741-9.9104614.0300293-3.4700317.0499878-6.9400024.0499878-10.4000244,0-6.9400024-.0999756-13.8800049-.4899902-20.8099976-.1282959-2.2286987-.3008423-4.4540405-.4957275-6.6772461-.0007324-.6875-.0039062-1.3751831-.0043335-2.0626221v-4.6558838c.0839233-.032959.1671753-.0740356.2501221-.1340942,1.2800293-.9299927,1.2299805-2.4599609,0-3.3999634-.1212158-.093689-.274353-.1600952-.4387207-.2156372-.1238403-.7249146-.3224487-1.4389038-.6514282-2.1644287-.2651978-.5879517-.5991211-1.1400146-.9680786-1.6685791-.5305176-2.5272217-2.7382202-5.0825806-5.2718506-5.7815552-2.6599731-.7299805-5.6799927-.6400146-8.3599854-.1300049-.9243774.1750488-1.819519.4468994-2.6973877.7623901-.140564-1.2374878-1.5030518-1.9193726-2.5884399-1.6259155-1.6351318-1.2902832-3.0263062-2.9545898-4.223999-4.6062622-.2316284-.317627-.4382935-.6444092-.6549683-.9674072-.1983032-.359436-.4005127-.7167969-.6051636-1.0726318-.9400024-1.6300049-1.7399902-3.3099976-2.5200195-5.0299683-1.6099854-3.5400391-3.1199951-7.1199951-4.460022-10.7700195-.3247681-.8824463-.6307373-1.7717896-.9296875-2.6636963-.4558716-2.1384888-.817688-4.302002-1.5001221-6.3862915-.539978-1.6300049-1.2800293-3.1799927-1.789978-4.8200073-.4899902-1.5700073-.9299927-3.1499634-1.5499878-4.6799927-.8267822-2.0435791-2.0513306-3.8640137-3.0263062-5.8085327-1.2746582-3.2675781-2.5186768-6.5455933-4.0539551-9.7114258-.3927612-.8131714-.8024292-1.6169434-1.2182007-2.4174805-1.3279419-3.2406616-2.4042969-6.6090088-3.3815308-9.9625244-1.0300293-3.5100098-1.6799927-7.1199951-2.7800293-10.6199951-1.0300293-3.2900391-2.3599854-6.4800415-3.789978-9.6199951-1.4400024-3.1700439-2.9899902-6.2800293-4.460022-9.4299927-.7399902-1.5900269-1.4500122-3.1900024-2.25-4.75-.789978-1.5500488-1.7800293-3.1300049-2.1300049-4.8600464-.3599854-1.7699585-.4699707-3.4099731-1.25-5.0799561-.6599731-1.4200439-1.5999756-2.6799927-2.5300293-3.9200439-.9299927-1.25-1.9000244-2.4799805-2.6400146-3.8599854-.789978-1.4699707-1.4400024-3.0499878-2.0599976-4.5999756-.6400146-1.6300049-1.210022-3.25-1.5200195-4.9900513-.2800293-1.5799561-.4699707-3.2799683-1.4299927-4.6199951-.9199829-1.2799683-1.539978-2.4299927-1.6799927-4.0499878-.1500244-1.6799927-.0200195-3.3900146-.0200195-5.0800171,0-3.168335-.1537476-6.3652344-.0462036-9.541687,1.3255005-1.616333,3.4953003-2.3811646,5.4559937-3.208313,3.1500244-1.3399658,6.4000244-1.8299561,9.7999878-1.9099731.2139893-.0045166.4282837-.0142822.642395-.0203247,1.6529541.0460815,3.3275757.1409302,4.9678345-.1496582.0713501-.012207.1394043-.0361328.2102051-.050293.9211426-.0345459,1.8415527-.0632935,2.7595825-.0697021.5098267-.0042725,1.0043335.0134888,1.4794922.0591431.3413086.1486816.7164307.2127686,1.0783691.1801758.0166016.0043945.0310669.0117188.0475464.0162964.1351929.3411255.2421875.69104.3445435.9943237.4799805,1.4000244.7999878,2.8500366,1.2000122,4.2700195.960022,3.3800049,2.9500122,6.2000122,4.5100098,9.2999878,1.8499756,3.6600342,2.789978,7.9100342,3.8800049,11.8599854,1.1599731,4.210022,2.2199707,8.4500122,3.3699951,12.6600342,2.3400269,8.5800171,5.2000122,17.0200195,7.8200073,25.5200195,1.3099976,4.2399902,2.5499878,8.5099487,3.9699707,12.7099609s3.3099976,8.2300415,4.7800293,12.4100342c1.289978,3.6599731,2.4799805,7.2799683,4.1699829,10.7799683,1.6599731,3.4299927,2.5100098,6.8699951,3.5599976,10.5100098,1.0800171,3.7700195,3.0700073,6.8699951,5.1500244,10.1500244,2.2299805,3.5100098,3.9000244,7.0899658,5.2700195,11.0100098,1.3400269,3.8399658,2.9699707,7.3299561,4.8699951,10.9099731,1.9400024,3.6700439,3.4799805,7.460022,5.6300049,11.0200195.2830811.4654541.579895.9297485.8709106,1.3943481,1.0964966,3.3183594,2.4771118,6.5480347,3.9390869,9.7156372,1.6199951,3.5200195,3.3599854,6.9899902,4.9400024,10.5300293.4106445.9179077.7939453,1.8441772,1.1599121,2.776062.8775635,3.0463867,1.8157959,6.0012817,2.1500854,9.2138672.4400024,4.1700439,1.5,8.2600098,2.3800049,12.3599854.8599854,4,1.9699707,7.9500122,3.460022,11.7600098,1.460022,3.710022,3.4699707,7.1300049,5.0100098,10.7999878,1.5200195,3.6199951,2.75,7.3800049,4.6900024,10.8099976,1.0452881,1.8582764,2.2362061,3.6259155,3.4180298,5.4003296.0574951.526123.3977051.9918213.8494263,1.2949219.7610474,1.1633911,1.5078125,2.3361206,2.1825562,3.5547485,1.9299927,3.5,3.3800049,7.1199951,4.7299805,10.8699951.6900024,1.9200439,1.4699707,3.8200073,1.9799805,5.7999878.5,1.9400024.6599731,3.9299927.9099731,5.9100342.2299805,1.8999634.4299927,3.8499756.9299927,5.7000122.5599976,2.0700073,2.1400146,3.5499878,2.3900146,5.7299805.2199707,1.8900146.3900146,3.4299927,1.1699829,5.1700439.9199829,2.0299683,1.5300293,4.0999756,1.9799805,6.2699585.8599854,4.1000366,1.8699951,8.1000366,3.1900024,12.0800171,1.3400269,4.0700073,2.9000244,8.0799561,4.0900269,12.1900024.8800049,3.0499878,1.4000244,6.2399902,1.3400269,9.4299927-.0499878,2.6099854-.3200073,6.1900024-3,7.4099731-1.2999878.6000366-2.7399902.8699951-4.0999756,1.2999878-1.6500244.5200195-3.2000122,1.4700317-4.9000244,1.7900391-1.1412354.2192993-2.2683105.0202637-3.3258667-.4301758ZM454.9476143,340.8904937c.0720825.0484009.046814.0333862,0,0h0ZM409.2252022,440.3646758c-.1751099-.2874756-.4033203-.5366211-.6707153-.692627-.3798218-.2196655-.7595215-.2944336-1.1201782-.2587891-.2030029-.6748657-.4228516-1.3441772-.6196899-2.0211182-.7545166-2.609436-1.4435425-5.2381592-2.1010132-7.875061.7630615,1.6796265,1.5085449,3.369751,2.2508545,5.0751343.8339233,1.9141846,1.6338501,3.8202515,2.3918457,5.7410889-.0438232.0097046-.0872192.0218506-.1311035.0313721ZM399.8146187,360.0921538c.116272-1.0319214.2453003-2.0637207.3827515-3.0944824.119751,4.0537109.4509888,8.0900879.2371216,12.154541-.1199951,2.2199707-.6500244,4.2799683-1.0300293,6.4500122-.4000244,2.3499756-.0599976,4.6799927-.1099854,7.039978-.0292969,1.3079224-.3033447,2.6019897-.585083,3.8945312-.2477417-8.8294678.1104126-17.6743164,1.1052246-26.4445801ZM405.3849312,344.0267241c.1008911-.1008911.2022705-.201355.3030396-.3023071.0046387.0337524.0093384.0670166.0155029.1005249-.1044922.065918-.2114258.1330566-.3185425.2017822ZM352.2944161,276.8222563c-1.9899902.4000244-4.1400146.6000366-6.0599976,1.2800293-1.4973145.5321655-2.8235474,1.4664307-4.2932129,2.0227661-.8882446.1019897-1.7807007.1594849-2.6766968.1871948-1.7800293.0599976-3.5499878,0-5.3300171.0499878-.3335571.0078735-.6705933.0222778-1.0076904.0355225-.5316772.008606-1.0635376.0215454-1.5953369.0377197-.8421631-.00177-1.680542-.0565186-2.4969482-.2532349-1.0792236-.2614136-2.1203003-.5966797-3.1879272-.854248-.2896729-.1506958-.626709-.2272339-1.0049438-.2028198-.1989746-.0344849-.3944092-.0785522-.5971069-.1029663-1.1400146-.1300049-2.1799927-.2000122-3.2000122-.3800049-2.289978-.4099731-4.7000122-1.1699829-5.460022-3.5700073-.5802612-1.8218994-.4440918-3.8228149-.2548828-5.7988892.2330933-.6939087.4881592-1.3734741.8146362-2.031311.3097534.2858276.7283936.4758911,1.2703247.4801636l.0098877.0200195c2.8699951.0200195,5.6099854.7800293,8.4299927,1.1799927,3.2299805.460022,6.2000122-.1799927,9.1900024-1.4500122,1.210022-.5100098,2.1699829-1.3900146,3.3200073-1.9899902.960022-.5,2.2800293-.5700073,3.4000244-.6599731,2.8200073-.2399902,5.4899902-.9800415,7.5900269-2.9800415,2.0855103-1.9762573,2.7401733-4.7316895,3.1115112-7.4729004,1.1026001-.213562,2.2041626-.4309082,3.3045044-.6524048,1.4899292.0089111,2.9634399-.0463867,4.4239502-.4546509,1.4899902-.4200439,2.7299805-.9899902,4.3099976-.7900391.5917969.0725708,1.130127-.2529907,1.4961548-.718811,1.6724243-.3166504,3.3443604-.6342163,5.0137939-.9611206,3.5700073-.7000122,7.2399902-1.2600098,10.7000122-2.4200439,1.5999756-.539978,3.1599731-1.2199707,4.5999756-2.0999756,1.3499756-.8200073,2.6300049-1.75,3.9899902-2.5499878,1.2700195-.7399902,2.539978-1.2800293,4-1.4899902.4758911-.0679932.8482666-.3856812,1.0966187-.7935791-.053772,7.3181152.6218872,14.654541.8919678,21.9763794-.2982788-.503418-.8359375-.875061-1.6185303-.902771-.7199707.039978-1.4400024.0499878-2.1599731.0299683-.7280273-.0201416-1.239502.2958984-1.5485229.7509155-.6546021.2689209-1.2965088.5787354-1.9315186.8890991-1.8099976.8900146-3.7000122,1.6000366-5.5800171,2.3200073-4.1099854,1.5800171-8.1900024,3.2399902-12.3099976,4.7900391-.7479248.2811279-1.4984741.5575562-2.2489624.8338013-3.3354492.5907593-6.6073608,1.4697266-9.8309326,2.486145-2.0720215.6578979-4.1245728,1.3811035-6.1686401,2.1245117-.1341553.0276489-.2672729.0580444-.4014893.0855103ZM396.1562935,265.4876006c-.0204468.0040283-.0413208.0067749-.0617676.0108032.0227051-.0390015.0385132-.0810547.0584106-.121521.0009766.0369263.0024414.0737915.0033569.1107178ZM443.4445016,200.3322051c-.003479-.0011597-.0067749-.0040283-.0102539-.0053101.0254517.0091553.0372925.0136108.0102539.0053101ZM405.6628243,118.1259063c.3635254.7759399.7277832,1.5513306,1.0916138,2.3262939,3.2700195,6.9699707,6.2000122,13.9899902,8.8499756,21.2199707,2.4811401,6.7369995,4.9248657,13.4942627,7.3039551,20.2737427-1.572998-2.4412842-3.114624-4.8848267-3.9639282-7.7037354-1.1199951-3.710022-1.8400269-7.4100342-3.5800171-10.9000244-1.8599854-3.7399902-3.0999756-7.5999756-4.5200195-11.5100098-1.5100098-4.1699829-3.3900146-8.1999512-4.7700195-12.4199829-.1405029-.4277344-.272522-.8580933-.4115601-1.2862549ZM488.0246407,179.5921538c.0333252.0333252.1513062.1756592.178772.203186.0591431.0836182.1167603.1712036.1712036.2567749.1500244.2300415.2800293.460022.4000244.7000122.210022.4200439.3699951.8900146.5499878,1.5300293.710022,2.6199951.6599731,5.4400024.5499878,8.25-.1099854,2.8599854-.2600098,5.7099609-.2600098,8.5700073v22.7473145c-.0205688-.019104-.038269-.038269-.0601196-.057373-.6900024-.6099854-1.3800049-.8900146-2.2800293-1.0199585-.9099731-.1300049-1.9899902-.0300293-2.8099976-.3699951-.7199707-.2999878-1.3300171-.8599854-1.8800049-1.3900146-2.5300293-2.4200439-3.7299805-5.3699951-4.0999756-8.8500366-.3800049-3.5999756-.3099976-7.3099976-.3599854-10.9299927-.0300293-1.7999878.0100098-3.6199951.4899902-5.3599854.5100098-1.8800049,1.7199707-3.4599609,2.75-5.0899658,1.1199951-1.7700195,2.0599976-3.6199951,3.2800293-5.3300171,1.0333252-1.4552612,2.0037842-2.9121094,2.3884888-4.635437.4718628.2166748.5970459.3808594.9916382.7754517ZM489.4981515,221.9594023c-.2588501.0619507-.1171875.012207,0,0h0ZM464.4445626,202.4421904c.6699829-6.9699707,2.539978-14.289978,6.4199829-20.2000122.4099731-.6199951.8300171-1.2299805,1.3099976-1.789978.2000122-.2399902.4199829-.4800415.6400146-.7000122.0999756-.1000366.2000122-.2000122.3099976-.2900391.0578613-.0543823.0864868-.0831909.1052856-.1030884.0165405-.008606.0443115-.0253906.1047363-.0668945.088501-.059021.4038696-.2422485.512085-.3067627.0403442-.0050049.414917-.1383057.4979248-.163269.0940552-.0234985.5375977-.0952148.5447998-.1062622.2970581-.0305176.5997925-.0447388.8952026-.0537109,1.4199829-.0400391,2.8300171.0199585,4.2399902-.0700073,1.0283813-.072998,2.0570679-.1610718,3.0877075-.199646-.1641235.439209-.4725952.9874268-.7078247,1.3696899-.5200195.8399658-1.1099854,1.6300049-1.6699829,2.4299927-1.2000122,1.7099609-2.1300049,3.5999756-3.25,5.3699951-1.1599731,1.8200073-2.2800293,3.5799561-2.7800293,5.7099609-.4699707,2-.5499878,4.0800171-.5100098,6.1300049.0700073,4.0499878-.0300293,8.2000122.539978,12.210022.5599976,3.9599609,2.1699829,7.3999634,5.0700073,10.1799927.7999878.7600098,1.6900024,1.5100098,2.6799927,2.0100098,1.2700195.6300049,2.539978.6599731,3.9199829.8099976.1573486.0184937.338623.0673828.4998169.0751343.2484131.2543945.5525513.5126343.8302002.6948242.5827026.3781128,1.2269287.5057373,1.880188.484375v.7556763c0,4.4099731-.2299805,8.8699951.1799927,13.2699585.4000244,4.3200073,1.0999756,8.5400391,1.0999756,12.8900146,0,4.4899902.3400269,8.9800415.6699829,13.460022.3200073,4.4199829.5700073,8.8200073.5999756,13.25.0300293,4.3399658.3200073,8.6799927.2600098,13.0199585-.0599976,4.0599976-.5499878,8.0300293-1.5200195,11.9800415-.4400024,1.7799683-.9099731,3.5999756-1.6099854,5.2999878-.2212524.5360107-.4823608,1.0537109-.7561646,1.5655518-.1375122.0073242-.2780762.0014038-.4139404.0145264-1.1091919.1087036-2.18927.4217529-3.0744629,1.0556641-.0567017-.164856-.1082153-.3309326-.1654053-.4957275-1.3001099-3.7619019-2.6935425-7.4926758-4.0584106-11.2329712-.5286255-1.7132568-1.1542969-3.420105-1.8154907-5.0977783-.2724609-.782959-.5528564-1.5632324-.8161011-2.3492432-.1051025-.3139038-.2639771-.5654907-.4553223-.7660522-.1083374-.2581787-.2167969-.5183716-.3248291-.7740479-1.5319214-3.6129761-3.3950195-7.0553589-5.4962158-10.3610229-.0656738-1.4943237-.6472778-2.8798218-1.3737183-4.2089233-.8300171-1.5299683-1.5499878-2.9899902-2.0100098-4.6699829-.4699707-1.7399902-.75-3.5100098-1.4199829-5.2000122-.6900024-1.7399902-1.5599976-3.4000244-2.4400024-5.0499878-.9459229-1.774292-1.7701416-3.604126-2.5410767-5.4574585.5056152-.3015137.8711548-.833374.8711548-1.6025391v-27.3999634c0-4.4899902-.0700073-8.9700317-.1599731-13.460022-.039978-2.0899658.25-3.9799805.7399902-6,.4799805-1.9500122.6699829-3.8699951.8599854-5.8599854ZM446.8344552,200.2621367c.6400146.2999878,1.1599731.8599854,1.6900024,1.3099976.710022.6000366,1.4699707,1.1199951,2.2399902,1.6500244,2.9526978,1.9909058,5.897644,4.0098267,8.5389404,6.4024658-.2169189,1.1715088-.3727417,2.350647-.3887939,3.5675659-.0300293,2.2299805.1599731,4.4599609.1599731,6.6900024v29.0272827c-1.1001587-2.9932861-2.1080322-6.0154419-2.960083-9.0873413-1.7005005-6.149292-3.1741333-12.2821655-5.3834229-18.227478-1.1386719-3.8366089-1.8934326-7.7861938-3.3466187-11.5325317-.8463135-2.18396-1.9755859-4.2174683-3.1821289-6.2107544.7467041-.4229736,1.1390991-1.4155884.9121704-2.2391968-.2183228-.7860107-.8511963-1.2653198-1.5797729-1.3858643.3626709.0006714.727356-.0115967,1.0997314-.0441284.7000122-.0599976,1.5499878-.2399902,2.2000122.0799561ZM420.1644112,91.8921416c.1072998.0930176.050354.0519409-.0014038-.0003052-.2051392-.0394287-.0708618-.0489502-.0005493-.0005493-.0066528-.0067749-.010376-.012146-.0165405-.019043.092041.0262451.1379395.0420532.0184937.0198975ZM405.5244576,89.6521514c1.4899902.3400269,2.9799805.6600342,4.4799805.8800049,1.6799927.25,3.3200073.0800171,5,.1400146,1.5565796.0583496,3.1864014.571228,4.6641235,1.0593872-.0189209.109375-.0401001.2164307-.0641479.3206177-.0499878.2099609-.1099854.4299927-.1699829.6399536-.1599731.5300293-.3499756,1.0599976-.5599976,1.5800171-.7800293,1.9899902-1.5700073,3.7999878-1.9299927,5.9199829-.5499878,3.2400513-1.2800293,6.5200195-1.2000122,9.8300171.0800171,3.2600098,1.0999756,6.4000244,2.1500244,9.460022,1.0800171,3.1699829,2,6.3200073,2.710022,9.5899658,1.4400024,6.5900269,2.4699707,13.2700195,3.9199829,19.8600464.6900024,3.1300049,1.7800293,6.1099854,2.8400269,9.1400146,1.0999756,3.1499634,1.8900146,6.3299561,2.4000244,9.6400146.164856,1.0823364.321106,2.1640625.479126,3.2449341-2.5214233-6.9976807-4.8914795-14.0455322-7.4290771-21.0349731-2.8099976-7.7300415-5.4899902-15.5300293-8.7999878-23.0700073-3.0999756-7.0599976-6.6400146-13.9200439-9.5700073-21.0400391-1.4699707-3.5800171-2.7999878-7.2199707-3.8499756-10.9400024-.6264038-2.218811-1.3606567-4.3591919-2.1790161-6.4754028,2.4039917.1947021,4.7444458.7158813,7.1088867,1.2554321ZM375.5608956,38.5869048c.0011597.0018311.0022583.00354.00354.0053101h-.1100464c.045105-.0030518.0732422-.0038452.1065063-.0053101ZM362.9242989,28.4722197c1.6199951,1.8300171,3.2299805,3.6699829,4.8400269,5.5100098.086792.1026001.178894.2052002.2683105.3078003.0186768.0279541.0431519.0654297.0717163.1121826.1400146.2299805.2999878.460022.4400024.6900024.3599854.5900269.6900024,1.2000122,1.0300293,1.8099976.4755859.8388672,1.0325928,1.8599243,1.7034302,2.8008423-1.6296387.0531616-3.2582397.1063232-4.8855591.1690674-.3670044-.0139771-.7339478-.0279541-1.0977783-.0299683-3.6599731-.0199585-7.3800049-.1900024-11.0300293.0400391-2.289978.1399536-4.5599976.75-5.9000244,2.75-.65802.9847412-.9838257,2.1326904-1.1550293,3.3228149.0162354-2.5930786.0151978-5.1885376-.1149902-7.7728271-.210022-4.210022-.7600098-8.3900146-1.0900269-12.5899658-.0722656-.9282837-.1550903-1.8546753-.2416382-2.7805176.352356-.1278687.7113647-.2493896,1.0716553-.3695068.7800293-.2600098,1.5700073-.5,2.3499756-.7700195,1.6699829-.5899658,3.3599854-1.3200073,4.6099854-2.6199951.2853394-.2994385.4598999-.7020264.5231934-1.1210938.2702026.3903809.5379639.7843628.8067627,1.1811523,2.3099976,3.3800049,5.0999756,6.2999878,7.7999878,9.3599854ZM344.863691,14.7373564c.0383911.0408325.0714722.0842896.1105347.1248169,1.0568848,1.0975342,2.2845459,2.0349121,3.5809937,2.8619995-.2619629.0967407-.5484009.1942139-.94104.3280029-.7550659.251709-1.5145874.4854736-2.2654419.7404785-.1514893-1.3520508-.3149414-2.7036743-.4850464-4.0552979ZM347.9642769,10.2621978c1.1799927,1.5500488,2.5300293,2.9400024,3.8300171,4.3900146.2507935.2808838.4873047.5691528.7223511.8583374-.6490479-.3395386-1.288147-.6950073-1.9023438-1.0883789-.4699707-.2999878-.9400024-.6199951-1.3800049-.9599609-.0192261-.0144043-.0161743-.0115356-.0238647-.0169678-.0132446-.012146-.0371704-.0331421-.0961304-.0830688-.0999756-.0800171-.2000122-.1599731-.289978-.2399902-.2399902-.2000122-.4699707-.4100342-.7000122-.6300049-.3886108-.3692017-.7561646-.769165-1.0978394-1.1949463-.0152588-.0212402-.0332642-.0466919-.0521851-.0750732-.0800171-.1199951-.1699829-.25-.25-.3699951-.1400146-.2199707-.2800293-.4499512-.4000244-.6900024,0,0-.0552979-.1156616-.0978394-.2032471-.0230713-.06604-.1121826-.2867432-.1121826-.2867432-.0800171-.25-.1500244-.4899902-.2000122-.75,0-.0155029-.0091553-.0778809-.0184937-.1360474-.0038452-.0892334-.0158081-.2553711-.0215454-.2839355v-.3500366c0-.039978.0499878-.6199951,0-.1900024.053833-.4036255.0272827-.8077393-.0869141-1.1711426.694397,1.180481,1.3415527,2.387146,2.177002,3.4711914ZM343.4601266,3.8745635c-.100708.0829468-.0953369-.0036011,0,0h0ZM343.818525,4.0913604c.0394897.0251465.0344238.0222168,0,0h0ZM343.7343575,3.8922026c.0213013-.0283813.0291748-.0428467.0301514-.0505981.0810547-.107666.1516113-.1968384-.0301514.0505981ZM343.6670357,3.9944976c.0227661.0148926.0430298.0281982.057312.0377197.0050049.0031128.0039673.0025024.008667.0054321.0691528.05896.1425781.1174316.2012939.1845703.1599731.1699829.3200073.3399658.4799805.5100098.3300171.3699951.0900269.0800171.3900146.5.1699219.2429199.3219604.496521.4796143.7468262-.2055054-.1934204-.4595947-.3482666-.7797241-.4368896-.446106-.1212158-.9917603-.048645-1.4542236.1756592.013855-.3571777.0714111-.7042236.2044067-1.0256348.0979004-.2403564.2531128-.4838257.4126587-.6976929ZM368.9844796,114.6221831c-.5568237-1.1693115-1.0776978-2.3537598-1.6065674-3.5349121.6889648,1.451355,1.3638306,2.9049072,2.0172729,4.3644409-.1356812-.2770386-.2781372-.5510254-.4107056-.8295288ZM349.5979439,225.8558867c.005188.0058594.0113525.010376.0165405.0162964.0664062.0758667.1681519.2537842-.0165405-.0162964ZM323.3545968,232.3622344c3.1300049-1.3399658,6.3900146-2.25,9.7199707-2.9199829,3.4400024-.6900024,6.8099976-1.6799927,10.1300049-2.8200073,1.7905273-.6138306,3.5663452-1.2697144,5.3369751-1.9407959.0918579.1854858.2090454.3591309.3729248.5007324.2419434.2129517.4639282.4277344.6774902.6678467.0709839.1091309.1289062.211731.2025146.3222046.0302734.0464478.0511475.0750122.0692749.0986328.0015869.0273438.0071411.0673218.020752.1313477.0123901.0557861.0186768.1209717.0219116.1715698-.0007324-.03479-.0012817-.0857544-.0015259-.1524658.0009766.097168.0046997.2585449.0196533.2809448.0020752.0032959.0016479.0093994.0032349.0133057.0061646-.0227661.0092163-.0367432.0167847-.0632935-.0071411.0237427-.0101318.0474243-.0148315.071167.0291138.0957031-.0599365.3170776-.0539551.2240601-.0006104.0015869-.0006104.0031738-.0012207.0047607-.039978.0999756-.0599976.2000122-.0900269.2999878-.1099854.2000122-.210022.3999634-.3400269.5899658-.0523682.0784912-.1084595.1532593-.1635742.2290039-.0272217.0324707-.0925903.1122437-.1564331.1810303-.9799805,1.0700073-1.6099854,1.539978-2.6500244,2.2399902-1.210022.8099976-2.4899902,1.5100098-3.7999878,2.1499634-1.4299927.710022-2.3400269,1.1000366-3.7000122,1.6199951-1.1500244.4400024-2.3200073.8400269-3.5,1.1799927-.4199829.1199951-.8300171.2300415-1.25.3200073-.175415.0369873-.3508301.065918-.5262451.1015625.0482178-.0036621.0993042-.0074463.1662598-.0115356-.071167.0045776-.1422729.0136108-.2134399.0206299-.0784912.0202026-.1887207.0244751-.1890869.0183105-.1758423.0197144-.3516235.0397339-.5274658.0510254-2.0900269.1799927-4.289978.2700195-6.3599854-.1099854-1.1799927-.2099609-2.1599731-.6199951-3.25-1.0899658-.9929199-.4266357-2.0270996-.7590332-3.0388184-1.1470947,1.0325928-.3769531,2.0435791-.7981567,3.0689087-1.2329102ZM315.5745064,251.0422271c-1.2600098-.5700073-2.460022-1.3299561-3.5200195-2.2299805-.7999878-.6799927-1.3499756-1.3500366-1.6699829-2.1600342-.789978-2.0499878-.6400146-4.289978.0200195-6.3900146.6500244-2.0799561,1.7600098-3.5999756,3.5900269-4.5499878.3952026-.203064.803833-.3746338,1.21875-.5310669.1792603.1486206.3570557.3012085.531189.4310303,1.039978.7900391,2.2399902,1.2700195,3.4500122,1.7300415,2.2299805.8399658,4.4099731,1.9599609,6.7800293,2.3399658,3.5.5499878,7.2700195.4800415,10.6900024-.5,2.8800049-.8299561,5.7000122-1.9899902,8.3699951-3.3299561,2.5800171-1.2999878,5.3300171-2.8900146,7.1599731-5.1700439.9500122-1.1799927,1.6699829-2.539978,1.6599731-4.0899658-.0077515-1.2861328-.5708008-2.4613647-1.3900146-3.4151001,3.5192871-1.3574829,7.0426025-2.7073364,10.6401367-3.8548584,6.6599731-2.1300049,13.5499878-3.4500122,20.2399902-5.4500122,3.1900024-.9500122,6.3099976-2.0599976,9.3900146-3.3300171,2.75-1.1300049,5.5499878-2.3099976,7.9699707-4.0599976.9128418-.6575317,1.7750244-1.3659058,2.5411987-2.1793823.0953979.3070068.1930542.6159668.2887573.9193115.4000244,1.25.8599854,2.5800171.8300171,3.9100342.005249.1655273.0279541.3189087.0628662.4628296-.7319946.8019409-1.4128418,1.6520996-2.0029297,2.5669556-3.3200073,5.1400146-5.2999878,11.2700195-6.289978,17.2700195-.5413208,3.2805176-.8005371,6.5686646-.8942871,9.8609619-.4511719-.7229614-1.3116455-.9744263-2.185791-.850769-3.0800171.4299927-5.6199951,2.3099976-8.1599731,3.9500122-2.7800293,1.7900391-5.789978,2.7000122-9.0100098,3.3800049-6.8685913,1.4490356-13.7807617,2.6880493-20.6711426,4.0036011-.2259521-.0014648-.4477539.0002441-.678772-.0036011-3.5366821-.0656738-6.8450928.9418335-10.1965332,1.9172363-.4046631.0501709-.8070068.1114502-1.213501.152771-3.5599976.3599854-7.1500244.4800415-10.7199707.5100098-3.1799927.0300293-6.3800049.1000366-9.5599976.0300293-2.4699707-.0499878-5-.2999878-7.2700195-1.3400269ZM319.9744698,262.1223052c.9799805-.8500366,2.4000244-1.7300415,3.7299805-2.4000244.6300049-.3200073,1.2299805-.5799561,1.9199829-.7699585.0490112-.0140381.0999146-.0249634.1505127-.0385132,2.7416992.1561279,5.5040283.4244995,8.1795044-.3016357,1.6599731-.4500122,3.210022-1.2199707,4.8699951-1.6499634,1.7299805-.4400024,3.5100098-.6199951,5.2399902-1.1000366.4014282-.112854.8024292-.2307739,1.2033691-.3500977.8527222-.1026611,1.7050171-.2164917,2.5566406-.3498535.1292725-.0201416.2577515-.0454712.3869629-.0661621-.3665771,2.0304565-1.1384888,3.7520752-3.046814,4.8261108-2.7700195,1.5599976-6.1799927.6300049-8.9899902,2.1599731-1.3400269.7300415-2.4199829,1.6400146-3.8699951,2.1500244-1.5900269.5599976-3.1900024,1.0700073-4.9000244.9599609-1.6300049-.0999756-3.25-.5299683-4.8499756-.8200073-1.414917-.2557983-2.8365479-.4545898-4.2642822-.5366211.5264893-.6141357,1.0862427-1.1974487,1.6841431-1.7131958ZM325.7544381,302.2822173c-.8300171-.8300171-1.4799805-1.7999878-2.1599731-2.7399902-.7600098-1.0599976-1.5499878-1.9700317-1.789978-3.1700439-.0700073-.3399658-.0900269-1.0799561-.0900269-1.6499634,0-.6099854,0-1.210022.0100098-1.8200073.0100098-2.1799927.0499878-4.210022.5300293-6.1600342.2712402-1.0848999.4759521-1.7236328,1.0970459-2.5893555,1.8256226.2592163,3.6638794.3131714,5.5029297.2694092.9003906-.0215454,1.8006592-.0582886,2.7002563-.086853.6846924-.0020142,1.3701172-.0198364,2.0551758-.0370483.5020142.0008545,1.0036011.0097656,1.5045776.0338745,2.0700073.1000366,4.1300049.3300171,6.1900024.0300293.5734253-.0819092,1.1156616-.2355957,1.6426392-.4260254.727417-.0943604,1.4536133-.2102661,2.1773071-.3740234,2.953064-.668457,5.8057861-1.9365234,8.649292-3.0324097,4.215271-.8811035,8.350708-1.9380493,12.4307861-3.3475342,1.1685181-.4028931,2.3313599-.8204956,3.491333-1.2457275.5259399-.0942993,1.0506592-.1976318,1.5786133-.274292,1.6900024-.2399902,3.3900146-.3099976,5.0800171-.539978,6.7456665-.9257202,12.9196167-4.0283813,19.5015259-5.5650024-.0004883.0016479-.0009766.0031128-.0014648.0047607-.3499756,1.1400146-.7600098,2.25-1.2800293,3.3200073-.9721069,1.9623413-2.3139648,4.0460815-4.2373047,5.2077637-.3215332.1622314-.6422119.3259277-.9660034.4836426-2.2911377.9517822-4.8726196.9437866-7.1967163,1.7785645-.75.2700195-1.4299927.8099976-2.1099854,1.2300415-.6900024.4299927-1.3900146.8499756-2.0900269,1.2600098-.6119995.3588867-1.243103.6950684-1.8635254,1.0444946-3.9038086,1.3590088-7.8311768,2.6560059-11.706543,4.1055908-5.6869507,2.1314087-11.2785034,4.6155396-16.7390747,7.2754517-2.6137085.7080688-5.2483521,1.3383789-7.8009033,2.2444458-4.4443359,1.5808716-8.8102417,3.4185791-12.9744263,5.635376-.395752-.1932983-.7658081-.5004883-1.1355591-.8651733ZM288.9045235,464.3520415c-1.2600098.5-2.5299683.5-3.8599854.5599976-2.539978.1099854-4.9899902.8699951-7.5199585,1.0999756-.9213867.081604-1.8400269.117981-2.7579956.1478271,5.6113281-1.0274048,11.1866455-2.2645874,16.8279419-3.1776123.1862793-.0296631.373291-.0578613.5599365-.0866699-.0065918.0024414-.0133667.0040283-.0199585.0064697-1.1099854.4099731-2.1300049,1.0200195-3.2299805,1.4500122ZM297.6545235,461.9820464c-.378479.0493774-.7607422.0892944-1.1439209.1281128.1142578-.0273438.2301636-.0488281.3439331-.0779419,1.3512573-.3442993,2.6841431-.7925415,4.0737915-.9168701-.1947632.1109009-.3969116.2094727-.6138306.2866821-.8499756.289978-1.8099976.4699707-2.6599731.5800171ZM311.2592599,478.6108306c-.7581177-4.2288818-1.4455566-8.4694824-1.9748535-12.7386475-.2401123-1.9159546-.4672852-3.8331909-.6853027-5.7514038.368103-.2177734.7358398-.4769897,1.1054077-.7985229.1694946-.1481934.289978-.3067017.3893433-.4683228.034668.7111206.0697021,1.4221802.0706177,2.1383057,0,3.8300171.3300171,7.6400146.6799927,11.4500122.1848755,2.050354.2936401,4.1099854.4147949,6.1685791ZM306.5944649,438.6522124c1.2485962,6.0786743,2.8301392,12.105957,3.3670654,18.2872925-.4077148-.5509033-1.0917358-.9277344-1.8083496-.8996582-.4533691-4.2336426-.8730469-8.470459-1.2787476-12.7076416-.1960449-2.0772705-.3889771-4.1552124-.581604-6.2332764.0997925.5178833.1957397,1.036438.3016357,1.5532837ZM303.1243722,329.832083c-1.4689331,1.8917236-2.7728271,3.9376831-3.9245605,6.0766602.678833-2.0679932,1.3971558-4.0411377,2.5345459-5.9567261,1.2999878-2.1799927,2.8699951-4.1500244,4.5900269-6,3.6699829-3.9299927,7.9099731-7.2700195,12.1099854-10.6000366,2.1678467-1.7223511,4.4348145-3.2903442,6.7808838-4.7290039-3.1607056,2.3024902-6.2272339,4.7359009-9.1508789,7.3491211-4.7199707,4.2200317-9.0599976,8.8599854-12.9400024,13.8599854ZM419.8645455,249.2822173c-2.0300293-3.0800171-3.9699707-6.6600342-4.8599854-10.25-.9299927-3.7999878-.4699707-7.8699951,1.5800171-11.2300415,1.7199707-2.8200073,4.539978-4.6599731,7.1400146-6.5899658.7042847-.5239258,1.4049683-1.0603638,2.090332-1.618042.0932617.8460693.1974487,1.6914673.279541,2.5378418.0586548.6066284.0999756,1.2142944.1530151,1.8212891.0050659,10.4749756.0599976,20.954895.2525635,31.4313354-2.3338623-1.9240112-4.9312134-3.5174561-6.635498-6.102417ZM418.0544869,330.4221709c2.3699951-2.7399902,4.6900024-5.5200195,6.9699707-8.3400269.5499878-.6900024,1.1099854-1.3399658,1.539978-2.1199951.3400269-.6300049.7199707-1.25,1.1099854-1.8499756.8499756-1.2999878,1.8400269-2.4000244,2.8400269-3.5700073.6199951-.7200317.8300171-1.8300171,1.1199951-2.7300415.1841431-.5820312.3549194-1.1695557.5144043-1.7608032.0810547-.1376343.152832-.2874146.2056274-.4593506,1.9199829-6.2699585,2.0700073-12.8099976,1.2999878-19.2799683-.227356-1.9110107-.517395-3.8143921-.8237915-5.7172852.0666504.1599121.1374512.3173218.2037354.477478,1.7199707,4.1699829,3.2299805,8.4099731,4.7199707,12.6699829,1.4500122,4.1500244,2.9199829,8.2999878,4.6300049,12.3599854,1.710022,4.0700073,3.7999878,7.9500122,5.3699951,12.0800171,1.2919312,3.4066772,2.1847534,7.0734253,3.5054321,10.5012207-6.5554199.7041626-12.5641479,3.6797485-18.9953003,5.0888062-1.7000122.3699951-3.4199829.6900024-5.1500244.8699951-1.8800049.2000122-3.7600098.2000122-5.6300049.5199585-1.789978.2999878-3.5300293.8500366-5.2700195,1.3400269-.3121948.0886841-.6251221.1665649-.9380493.2449951-2.4309082.321167-4.8582153.6401978-7.3208008.6801147,3.4707031-3.569458,6.8439331-7.2354736,10.098877-11.005127ZM450.868818,336.6733306c-.3068237.1229248-.6112671.2560425-.9143677.3988647-1.1651001.5482788-2.3021851.4553223-3.5505981.5262451,1.4697266-.3999634,2.9561157-.7254028,4.4649658-.9251099ZM413.2245919,455.4521392c-1.0300293-1.7399902-1.6699829-3.5900269-2.3499756-5.4899902-.6098633-1.7102051-1.1838989-3.4315796-1.7503662-5.1553345.1735229.0103149.3463135.0307007.5202026.0353394.4587402.0137939.9057617-.0206909,1.3487549-.0749512.366333,1.085144.7138672,2.180542,1.03125,3.2949829.9214478,3.2321777,1.7079468,6.4954834,2.5016479,9.7563477-.4016724-.7962646-.836731-1.578064-1.3015137-2.366394ZM444.2604806,541.5991729c.5532837,1.3508911,1.1074829,2.7014771,1.6692505,4.0490723-.5480957-1.0317383-1.0606689-2.0790405-1.4251709-3.2062988-.09021-.2788086-.1635742-.5616455-.2440796-.8427734ZM482.8875558,417.3899443c.0043335-.010437.0044556-.010498,0,0h0ZM482.6885201,417.790457c-.0012817,0-.0025635.0001221-.0037842.0001221.0819702-.1268921.057251-.0748901.0037842-.0001221ZM485.6343209,412.2321074c-.539978.789978-1.2600098,1.4400024-1.7000122,2.2999878-.4199829.8200073-.6599731,1.7199707-.960022,2.5800171-.0512085.1364746-.0959473.2730103-.1450195.4094849-.0015869.0032959-.003479.0076294-.0049438.010498-.0489502.0839233-.0979614.171936-.1469116.2587891-.7872314.0078125-1.6556396.4676514-1.8797607,1.239624-.0483398.0254517-.0983276.0480957-.1467285.0734863-.9061279.0286865-1.821167-.1123047-2.7364502-.0718994-1.539978.0599976-2.7700195.6599731-4.2000122,1.1199951-1.2000122.3900146-2.3900146.1500244-3.6300049.1799927-1.6099854.0499878-3.0200195.5900269-4.4199829,1.3499756-.9899902.539978-1.9500122,1.1599731-2.9899902,1.6099854-1.3800049.5900269-2.7700195,1.1500244-4.1199951,1.8099976-2.4799805,1.2199707-4.8699951,2.5999756-7.3300171,3.8599854-.6574097.3375244-1.3446045.6970215-2.0480957,1.0487061-2.9331055.6830444-5.8683472,1.3468018-8.7854004,2.0879517-.2022705.0396729-.4059448.0664062-.6065063.123291-.2172241.0598755-.4302368.1280518-.6424561.1973267-.2888184.076355-.5795288.144165-.8677979.2227783-.5202026.1416016-1.0380859.2928467-1.557373.4381104-2.9805908.4365234-5.8878784.9949951-8.8223877,1.6917725-2.7999878.6599731-5.5700073,1.1400146-8.2399902,2.2600098-1.4400024.5999756-2.8599854,1.2800293-4.3499756,1.7600098-.6707153.2165527-1.3548584.3820801-2.0377808.5492554-1.5244141-3.9301147-3.3302612-7.7713623-5.012146-11.6292725-.9000244-2.0499878-1.8300171-4.0700073-2.9199829-6.0300293-.8900146-1.5999756-1.8499756-3.1900024-2.5100098-4.9099731-.7600098-1.9799805-.9000244-3.8900146-.9400024-5.9899902-.039978-2.2399902-.1300049-4.4899902-.2000122-6.7299805-.1400146-4.5900269-.2600098-9.2299805.3300171-13.7999878.2800293-2.1699829.9699707-4.2699585,1.1799927-6.4400024.2199707-2.3099976-.2399902-4.6400146.0200195-6.9500122.2399902-2.1499634.9099731-4.2299805,1.0999756-6.4099731.1900024-2.1600342.210022-4.3500366.1500244-6.5100098-.0900269-3.9899902-.5599976-7.9899902-.2199707-11.9899902.0891113-1.0819092.2749634-2.178833.5827637-3.2342529.3897705-.1435547.7780151-.3130493,1.1670532-.515564,1.3699951-.710022,2.5999756-1.6900024,4.0700073-2.210022,1.5-.5299683,3.0900269-.7199707,4.6500244-1.0499878.7189941-.1524048,1.4276123-.3391113,2.133606-.5340576,1.9703979-.2404175,3.9429932-.4050293,5.9263916-.2959595,1.2000122.0700073,2.3599854.2399902,3.5599976,0,1.0100098-.1900024,1.9299927-.9400024,2.7299805-1.1699829,2.2399902-.6400146,4.8099976-.1900024,7.0999756-.1400146,2.4699707.0599976,4.9000244-.25,7.3200073-.7399902,1.0700073-.2200317,2.1199951-.5100098,3.210022-.5499878,1.3499756-.0499878,2.7299805-.0100098,4.0100098-.5.7199707-.2700195,1.5800171-.9299927,2.3699951-.9000244.7800293.0300293,1.0999756.25,1.7399902.6900024.0505981.0332031.0705566.0466919.0985718.0653687.1403198.114502.2805176.243103.411438.3646851.0446777.0427856.0808105.0953369.1246338.1395264.5228882,1.4681396,1.0029907,2.9536743,1.5153198,4.4204102,2.710022,7.8800049,5.9299927,15.4500122,9.7299805,22.8599854,2.0611572,4.0249023,4.5944214,8.3809814,8.4752197,10.7487793.0367432.114502.0820923.2263794.1148682.3412476.2199707.7000122.4000244,1.4099731.5599976,2.1199951.2999878,1.2999878.5300293,2.6099854.789978,3.9099731.3499756,1.7800293.9199829,3.5100098,1.4500122,5.2399902.7700195,2.5499878,1.539978,5.1099854,2.2999878,7.6599731.5200195,1.7299805,1.4299927,3.3200073,2.3499756,4.8699951.9299927,1.5599976,1.9400024,3.1199951,2.6599731,4.789978.1599731.3800049.2999878.7700195.4099731,1.1699829.0999756.3300171.2000122.8300171.2199707.9500122.0800171.7800293.0700073,1.1199951-.3900146,1.7800293ZM504.7244088,409.2820952c-.1300049,1.0900269-.3699951,2.3400269-.8200073,3.3900146-.1099854.2600098-.4500122.8599854-.539978.9799805-.0800171.0999756-.5.4899902-.4099731.4199829-.0800171.0599976-.1699829.1099854-.2600098.1599731-.0319214.0184326-.0491943.0303955-.0570679.0380249-.024353.0073242-.0401001.0116577-.072937.0219727-.9199829.289978-1.8699951.2600098-3.0100098.1500244-1.2000122-.1099854-2.4000244-.3900146-3.5700073-.7000122-1.1199951-.289978-2.2299805-.6400146-3.3300171-1.0300293-.9699707-.3499756-1.6099854-.710022-1.9899902-1.5300293-.3200073-.6699829-.5700073-2.0700073-.8599854-3-.5200195-1.6500244-1.1599731-3.2800293-1.710022-4.9199829-1.2999878-3.8800049-2.0800171-7.8699951-3.2000122-11.7999878-.5200195-1.8300171-1.1900024-3.5999756-2.0800171-5.2799683-.75-1.4299927-1.7999878-2.960022-2.0100098-4.6000366-.0200195-.1618652-.0576782-.3182983-.1035767-.4710693,3.0726929.0133667,6.0963745-1.7356567,8.9935913-2.5888062,1.5379028-.453186,2.8867188-1.0054321,4.0170898-1.8092651.2310181,1.0314331.7080688,1.9970703,1.3930054,2.9692993,1.2600098,1.7999878,1.8400269,3.7799683,2.5499878,5.8299561.7800293,2.2399902,1.9699707,4.2399902,2.8800049,6.4199829.8900146,2.1400146,1.539978,4.4099731,1.8499756,6.710022.093689.7023926.7297974,1.1867065,1.418457,1.3577271.0932617.3041992.1953735.6066284.2814941.9122314.7800293,2.7600098.9799805,5.5200195.6400146,8.3699951ZM515.0843331,387.1822417c-.1799927,1.2200317-.6400146,2.0700073-1.6199951,2.4799805-1.3099976.5499878-2.7999878.4899902-4.2700195.4699707-1.0921021-.0145874-2.072998-.0643311-3.0698242-.2389526-.1705322-.6965332-.7984619-1.1795044-1.4907837-1.3234253-.0925293-.1904297-.1871338-.3804932-.2992554-.567627-.4899902-.8099976-1.0900269-1.5499878-1.6199951-2.3300171-.2091064-.3048096-.3919067-.6205444-.565918-.9402466.0420532-.0042725.0836792-.0037231.1258545-.0097046,2.2399902-.3099976,4.1500244-1.5599976,4.9799805-3.7000122.7199707-1.8500366.4899902-3.9500122.0700073-5.8500366-.4500122-2.039978-1.1799927-4.0899658-1.9699707-6.0199585-.5700073-1.4100342-1.2600098-2.8099976-2.3499756-3.8900146-.6799927-.6799927-1.6799927-1.210022-1.9000244-2.0499878-.0861816-.3299561-.232666-.5917358-.4146118-.8001709-.1571655-.5910645-.3304443-1.1759644-.505249-1.7498779-1.7000122-5.5-2.8599854-11.1499634-4.7399902-16.5999756-1.8099976-5.25-4-10.3599854-5.6900024-15.6600342-.6919556-2.1713867-1.2285767-4.3861084-1.8105469-6.5857544.2221069-.2226562.3884888-.493042.4404907-.814209l-.0200195.0100098c.3252563-1.9929199,1.2460327-3.7722778,2.2454224-5.5244751.3955688.09552.788147.1931763,1.1744995.3245239.9000244.3099976,1.9199829,1.0900269,2.5999756,2.0400391,1.8099976,2.5100098,2.6099854,5.7099609,3.9000244,8.5,1.5800171,3.3900146,3.5200195,6.6300049,4.710022,10.2000122,1.2999878,3.8999634,2.5200195,7.8099976,3.9099731,11.6799927,1.4099731,3.9400024,2.8099976,7.8900146,4.2299805,11.8200073,1.3599854,3.7600098,2.8200073,7.6300049,3.5,11.5799561.6400146,3.7399902.2600098,7.5400391.4099731,11.3099976.0599976,1.3699951.2199707,3.0900269.039978,4.2399902Z"/>
</svg>