<?xml version="1.0" encoding="UTF-8"?>
<svg id="Layer_1" xmlns="http://www.w3.org/2000/svg" version="1.1" viewBox="0 0 383.6932146 74.0463393">
  <!-- Generator: Adobe Illustrator 29.1.0, SVG Export Plug-In . SVG Version: 2.1.0 Build 142)  -->
  <defs>
    <style>
      .st0 {
        fill: #f9cb8f;
      }

      .st1 {
        fill: #aeba6c;
      }

      .st2 {
        fill: #d1703c;
      }

      .st3 {
        fill: #aac9db;
      }

      .st4 {
        fill: #2e3133;
      }
    </style>
  </defs>
  <path class="st4" d="M30.9800014,30.9517469c0,7.6500015-5.8600006,12.4700012-15.0699997,12.4700012h-4.7700005v7.2700005c0,.4700012-.3799992.8499985-.8500004.8499985H.8500004c-.4699993,0-.8500004-.3800011-.8500004-.8499985v-27.6800003c0-2.5,2.0300007-4.5300007,4.5300007-4.5300007h11.3899994c9.2099991,0,15.0699997,4.8199997,15.0699997,12.4699993h-.0099983ZM19.7400036,30.9517469c0-2.4099998-1.4599991-3.8699989-4.5299988-3.8699989h-4.0599995v7.75h4.0599995c3.0699997,0,4.5299988-1.4599991,4.5299988-3.8699989v-.0100021Z"/>
  <path class="st4" d="M51.380003,26.1017465v7.6099987c0,.5099983-.4400024.9000015-.9400024.8499985-.5-.0499992-.9400024-.0699997-1.4199982-.0699997-3.2099991,0-5.4799995,1.4599991-5.4799995,5.5699997v10.6300011c0,.4700012-.3800011.8499985-.8499985.8499985h-8.9700012c-.4700012,0-.8499985-.3800011-.8499985-.8499985v-24.1299992c0-.4699993.3800011-.8500004.8499985-.8500004h8.1000023c.6599998,0,1.2000008.5400009,1.2000008,1.2000008v1.5900002c1.7299995-1.9899998,4.2999992-3.0699997,7.4799995-3.2399998.4800034-.0300007.8799973.3700008.8799973.8500004v-.0100002Z"/>
  <path class="st4" d="M127.0099926,36.8017454v13.8899994c0,.4700012-.3800049.8499985-.8500061.8499985h-8.9700012c-.4700012,0-.8500061-.3800011-.8500061-.8499985v-12.0400009c0-3.2099991-1.1799927-4.4399986-2.8800049-4.4399986-1.8899994,0-3.3499985,1.2799988-3.3499985,4.7299995v11.7600021c0,.4700012-.3799973.8499985-.8499985.8499985h-8.9700012c-.4700012,0-.8499985-.3800011-.8499985-.8499985v-12.0400009c0-3.2099991-1.0899963-4.4399986-2.8799973-4.4399986-1.8899994,0-3.3499985,1.2799988-3.3499985,4.7299995v11.7600021c0,.4700012-.3799973.8499985-.8499985.8499985h-8.9700012c-.4700012,0-.8499985-.3800011-.8499985-.8499985v-24.1299992c0-.4699993.3799973-.8500004.8499985-.8500004h8.4499969c.4700012,0,.8499985.3799992.8499985.8500004v1.5599995c1.9400024-1.9400005,4.4899979-2.8800011,7.3199997-2.8800011,3.0199966,0,5.6900024.9899998,7.5,3.1500015.3099976.3699989.8799973.3899994,1.2200012.0499992,2.0399933-2.0499992,4.8000031-3.2000008,7.9900055-3.2000008,5.8600006,0,10.3000031,3.4500008,10.3000031,11.5699997l-.0099945-.0300026Z"/>
  <path class="st4" d="M148.2700024,26.1017465v7.6099987c0,.5099983-.4400024.9000015-.9400024.8499985s-.9400024-.0699997-1.4199982-.0699997c-3.2100067,0-5.4799957,1.4599991-5.4799957,5.5699997v10.6300011c0,.4700012-.3800049.8499985-.8500061.8499985h-8.9700012c-.4700012,0-.8500061-.3800011-.8500061-.8499985v-24.1299992c0-.4699993.3800049-.8500004.8500061-.8500004h8.4499969c.4700012,0,.8500061.3799992.8500061.8500004v1.9299984c1.7299957-1.9899998,4.3000031-3.0699997,7.4799957-3.2399998.4799957-.0300007.8800049.3700008.8800049.8500023Z"/>
  <path class="st4" d="M176.9999981,41.1017446h-17.1600037c.7599945,1.9799995,2.5500031,3.0200005,5.1999969,3.0200005,2.0899963,0,3.3600006-.4799995,4.8000031-1.4700012.3399963-.2400017.8000031-.2000008,1.1000061.0999985l4.4700012,4.5c.3300018.3400002.3300018.8899994-.0099945,1.2200012-2.4700012,2.3400002-5.9400024,3.5400009-10.6799927,3.5400009-9.4900055,0-15.6399994-5.7200012-15.6399994-13.4199982s6.2799988-13.3699989,14.6399994-13.3699989c7.6499939,0,14.2200012,4.6300011,14.2200012,13.3699989,0,.5099983-.0399933,1.1300011-.0899963,1.7099991-.0299988.4399986-.3999939.7900009-.8500061.7900009l-.0000153.0099983ZM160.8299999,35.9517431h7.1399994c-.4299927-2.170002-1.9799957-3.4500008-4.1600037-3.4500008-1.7700043,0-3.0899963.8100014-3.7700043,2.2400017-.2700043.5600014.1600037,1.2099991.7799988,1.2099991h.0100098Z"/>
  <path class="st4" d="M79.9999981,41.1017446h-17.1600037c.7600021,1.9799995,2.5500031,3.0200005,5.1999969,3.0200005,2.0899963,0,3.3600006-.4799995,4.8000031-1.4700012.3399963-.2400017.8000031-.2000008,1.0999985.0999985l4.4700012,4.5c.3300018.3400002.3300018.8899994-.0100021,1.2200012-2.4700012,2.3400002-5.9400024,3.5400009-10.6800003,3.5400009-9.4899979,0-15.6399994-5.7200012-15.6399994-13.4199982s6.2799988-13.3699989,14.6399994-13.3699989c7.6500015,0,14.2200012,4.6300011,14.2200012,13.3699989,0,.5099983-.0400009,1.1300011-.0899963,1.7099991-.0299988.4399986-.4000015.7900009-.8499985.7900009v.0099983ZM63.8299999,35.9517431h7.1399994c-.4300003-2.170002-1.9800034-3.4500008-4.1600037-3.4500008-1.7699966,0-3.0899963.8100014-3.7699966,2.2400017-.2699966.5600014.1600037,1.2099991.7799988,1.2099991h.0100021Z"/>
  <path class="st4" d="M189.1399975,33.7317457c0-.6100006.7599945-1.2299995,3.5-1.2299995,1.8399963,0,4.0200043.3100014,6.25,1.2900009.5599976.25,1.1900024-.1599998,1.1900024-.7799988v-6.1199989c0-.3899994-.2599945-.7399998-.6399994-.8299999-2.1699982-.5499992-4.6000061-.8299999-6.9499969-.8299999-8.6900024,0-13.2299957,3.9700012-13.2299957,8.829998,0,10.3499985,14.8800049,6.7999992,14.8800049,9.4500008,0,.75-.7100067,1.2299995-3.3099976,1.2299995-2.7599945,0-5.8600006-.6800003-8.2400055-1.8800011-.4299927-.2200012-.9600067,0-1.1499939.4500008l-2.2599945,5.4399986c-.1799927.4199982.0099945.9099998.4299927,1.0999985,2.7200012,1.2999992,6.9299927,2.170002,10.9900055,2.170002,8.9700012,0,13.3699951-4.0600014,13.3699951-8.7399979,0-10.3400002-14.8300018-6.8499985-14.8300018-9.5400009l-.0000153-.0100021Z"/>
  <path class="st4" d="M223.7199993,49.9317465c.1499939.4300003-.0700073.8899994-.4900055,1.0699997-1.5899963.6899986-3.6799927,1-5.8300018,1-7.1300049,0-11.2899933-3.3499985-11.2899933-10.4900017v-7.1399994h-2.2299957c-.4700012,0-.8500061-.3800011-.8500061-.8499985v-6.4500008c0-.4699993.3800049-.8500004.8500061-.8500004h2.2299957v-6.8999996c0-.4699993.3800049-.8500004.8500061-.8500004h8.9700012c.4700012,0,.8500061.3799992.8500061.8500004v6.8999996h4.4400024c.4700012,0,.8500061.3799992.8500061.8500004v6.4500008c0,.4700012-.3800049.8499985-.8500061.8499985h-4.4400024v7.0499992c0,1.6100006.9499969,2.5,2.2200012,2.5.5399933,0,1.0800018-.0999985,1.5899963-.2900009.4600067-.1800003.9799957.0400009,1.1399994.5l1.9900055,5.7799988-.0000153.0200043Z"/>
  <path class="st1" d="M246.9099865.8817458c.4500122-.5099998-.3699951-1.22-.8200073-.6999998-.8699951,1-2.1600037,1.77-3.2799988,2.5300002-.8399963.5700002-1.6900024,1.1199999-2.5499878,1.6700001-.2600098.1700001-.4200134.5900002-.1000061.8000002,1.5799866,1.0299997,3.1600037,2.0500002,4.7399902,3.0799999-1.4400024.6599998-2.8800049,1.4300003-4.0400085,2.4099998-.7999878.6800003-1.4599915,1.5900002-.8299866,2.5499992.4299927.6700001,1.25,1.1100006,1.9400024,1.5599995.7600098.4899998,1.5100098.9899998,2.269989,1.4799995-1.6300049.8500004-2.9599915,2.1800003-3.7000122,3.7199993-.5299988,1.1000004.8299866,1.4300003,1.7000122,1.7700005,1.0499878.4099998,2.0499878.8999996,2.9700012,1.4899998-1.6199951,1.2000008-3.0700073,2.5900002-4.1000061,4.2399998-.2200012.3500004-.4599915.7500019-.2900085,1.1600018.1799927.4199982.6900024.6599998,1.0799866.9099998.8099976.5099983,1.6300049,1.0299988,2.4400024,1.5400009-.6099854.2599983-1.1799927.5699997-1.7200012.9599991-.730011.5299988-1.6000061,1.2099991-2.0899963,1.9300003-.6000061.9000015.3299866,1.4300003,1.1300049,1.7999992,1.0100098.4799995,2.019989.9599991,3.0299988,1.4399986-.8200073.7599983-1.8500061,1.4099998-2.769989,2.0299988-.8399963.5699997-1.6900024,1.1199989-2.5499878,1.6699982-.2600098.1699982-.4200134.5900002-.1000061.7999992,1.5799866,1.0299988,3.1600037,2.0499992,4.7399902,3.079998-1.4400024.6599998-2.8800049,1.4300003-4.0400085,2.4099998-.7999878.6800003-1.4600067,1.5900002-.8299866,2.5499992.4299927.6699982,1.25,1.1100006,1.9400024,1.5600014.7600098.4900017,1.5100098.9900017,2.269989,1.4799995-1.6300049.8499985-2.9599915,2.1800003-3.7000122,3.7200012-.5299988,1.0999985.8299866,1.4300003,1.7000122,1.7700005,1.0499878.4099998,2.0499878.9000015,2.9700012,1.4900017-1.6199951,1.1999969-3.0700073,2.5899963-4.1000061,4.2399979-.2200012.3499985-.4599915.75-.2900085,1.1600037.1799927.4199982.6900024.6600037,1.0799866.9100037.8099976.5100021,1.6300049,1.0299988,2.4400024,1.5400009-.6099854.2600021-1.1799927.5699997-1.7200012.9599991-.730011.5299988-1.6000061,1.2099991-2.0899963,1.9300003-.6000061.9000015.3299866,1.4300003,1.1300049,1.8000031,1.1600037.5500031,2.3299866,1.1100006,3.4899902,1.6600037.6499939.3099976,1.2000122-.5800018.5499878-.8899994-.8599854-.4100037-1.730011-.8199997-2.5899963-1.2300034-.4200134-.1999969-.8500061-.4000015-1.269989-.6100006-.0799866-.0400009-.3399963-.1800003-.3399963-.1800003-.019989-.0899963.3099976-.3399963.3699951-.4000015,1.0799866-1.0699997,2.25-2,3.8200073-2.4400024.519989-.1399994.5-.6900024.1099854-.9300003l-2.6000061-1.6399994c-.1900024-.1200027-.3699951-.2300034-.5599976-.3499985-.1300049-.0800018-.6400146-.3099976-.6900024-.4400024-.0700073-.2399979.3999939-.7399979.5400085-.9300003,1.0299988-1.4499969,2.4200134-2.6900024,3.9299927-3.7399979.2600098-.1800003.4200134-.5699997.1000061-.7999992-.7799988-.5499992-1.6099854-1.0400009-2.4899902-1.4500008-.5100098-.2400017-1.0299988-.4599991-1.5599976-.6599998-.230011-.0900002-.5-.2200012-.75-.2700005-.2399902-.0499992-.2000122-.0200005-.1000061-.2000008.8399963-1.4799995,2.0799866-2.7900009,3.8200073-3.4599991.3399963-.1300011.6300049-.5999985.2399902-.8499985-.8599854-.5600014-1.7099915-1.1199989-2.5700073-1.6699982-.6499939-.4199982-1.4299927-.8199997-1.9400024-1.3699989-.6900024-.7299995.2799988-1.4099998.9200134-1.8800011,1.25-.9099998,2.7200012-1.6399994,4.1700134-2.2599983.3099976-.1300011.3900146-.6100006.1000061-.7999992-1.6199951-1.0499992-3.2399902-2.1100006-4.8599854-3.1599998.6700134-.4300003,1.3299866-.8600006,1.980011-1.2999992,1.1600037-.7900009,2.5100098-1.5900002,3.4100037-2.6300011.2900085-.3300018.0400085-.7400017-.2900085-.8499985-.0100098,0-.019989-.0200005-.0299988-.0200005-.8599854-.4099998-1.730011-.8199997-2.5899963-1.2299995-.4200134-.2000008-.8500061-.4000015-1.269989-.6100006-.0799866-.0400009-.3399963-.1800003-.3399963-.1800003-.019989-.0900002.3099976-.3400002.3699951-.4000015,1.0799866-1.0699997,2.25-2,3.8200073-2.4399986.519989-.1399994.5-.6899986.1099854-.9300003l-2.6000061-1.6399994c-.1900024-.1199989-.3699951-.2299995-.5599976-.3499985-.1300049-.0800018-.6400146-.3100014-.6900024-.4399986-.0700073-.2400017.3999939-.7399998.5400085-.9300003,1.0299988-1.4500008,2.4200134-2.6900005,3.9299927-3.7399998.2600098-.1800003.4200134-.5699997.1000061-.7999992-.7799988-.5499992-1.6099854-1.039999-2.4899902-1.4500008-.5100098-.2399998-1.0299988-.4599991-1.5599976-.6599998-.230011-.0900002-.5-.2199993-.75-.2700005-.2399902-.0499992-.2000122-.0200005-.1000061-.2000008.8399963-1.4799995,2.0799866-2.789999,3.8200073-3.460001.3399963-.1299992.6300049-.6000004.2399902-.8500004-.8599854-.5599995-1.7099915-1.1200008-2.5700073-1.6700001-.6499939-.4200001-1.4299927-.8199997-1.9400024-1.3700008-.6900024-.7299995.2799988-1.4099998.9200134-1.8800001,1.25-.9099998,2.7200012-1.6400003,4.1700134-2.2600002.3099976-.1300001.3900146-.6099997.1000061-.8000002-1.6199951-1.0500002-3.2399902-2.1099997-4.8599854-3.1599998.6700134-.4300003,1.3299866-.8599997,1.980011-1.3000002,1.1600037-.79,2.5100098-1.5900002,3.4100037-2.6300001l.0399475-.0400062Z"/>
  <path class="st2" d="M277.1500072,29.8017454c0,2.7200012-2.2999878,4.2999992-6.6000061,4.2999992h-8.7799988v-15.6000004h8.3299866c4.2999878,0,6.3099976,1.7199993,6.3099976,4.0799999,0,1.4500008-.7399902,2.6499996-2.1600037,3.3699989,1.8299866.6700001,2.8999939,2.0099983,2.8999939,3.8600006l.0000305-.0099983ZM266.9400158,22.1817465v2.3199997h2.4500122c1.1799927,0,1.7200012-.3999996,1.7200012-1.1599998s-.5299988-1.1599998-1.7200012-1.1599998h-2.4500122ZM271.8400097,29.2017469c0-.7999992-.5799866-1.2299995-1.7399902-1.2299995h-3.1600037v2.4500008h3.1600037c1.1600037,0,1.7399902-.4199982,1.7399902-1.2299995v.0099983Z"/>
  <path class="st2" d="M291.7500134,29.1817465h-8.4700012c.3599854.9399986,1.2000122,1.4300003,2.4500122,1.4300003,1.1099854,0,1.7399902-.2900009,2.5400085-.8899994l2.6300049,2.6500015c-1.1799927,1.2900009-2.8999939,1.9599991-5.3299866,1.9599991-4.480011,0-7.3800049-2.7000008-7.3800049-6.329998s2.9599915-6.3099995,6.9100037-6.3099995c3.6099854,0,6.7099915,2.1800003,6.7099915,6.3099995,0,.3600006-.0400085.8199997-.0700073,1.1800003l.0099792-.0000038ZM283.1900158,26.7517462h3.9200134c-.2000122-1.0300007-.9400024-1.6299992-1.9599915-1.6299992s-1.7600098.6000004-1.9599915,1.6299992h-.0000305Z"/>
  <path class="st2" d="M305.1200085,27.5517454v6.5499992h-4.6799927v-1.5999985c-.5799866,1.2299995-1.7399902,1.8300018-3.4500122,1.8300018-2.9899902,0-4.519989-1.6899986-4.519989-3.7900009,0-2.3600006,1.7799988-3.6800003,5.5700073-3.6800003h2.0299988c-.1600037-.9400005-.8699951-1.4300003-2.2999878-1.4300003-1.0899963,0-2.3200073.3600006-3.1199951.9599991l-1.6000061-3.3199997c1.4299927-.8899994,3.5899963-1.3799992,5.480011-1.3799992,4.1900024,0,6.6000061,1.8099995,6.6000061,5.8600006l-.0100403-.0000019ZM300.0799999,30.1317472v-.8499985h-1.25c-1.0700073,0-1.5400085.3600006-1.5400085,1.0299988,0,.5600014.4500122.9799995,1.2000122.9799995.6900024,0,1.3099976-.3600006,1.5799866-1.1599998h.0100098Z"/>
  <path class="st2" d="M320.6299877,21.911746v12.1899986h-4.7900085v-1.1599998c-.9100037.9399986-2.1400146,1.3800011-3.4500122,1.3800011-2.9200134,0-5.1300049-1.7200012-5.1300049-5.6800003v-6.7299995h5.0400085v5.8600006c0,1.7400017.6000061,2.3199997,1.5799866,2.3199997.8699951,0,1.7200012-.6500015,1.7200012-2.4500008v-5.7299995h5.0400085-.0099792Z"/>
  <path class="st2" d="M331.8499889,33.6817465c-.7799988.4500008-1.9200134.6500015-3.1000061.6500015-3.3699951,0-5.3299866-1.5800018-5.3299866-4.9500008v-3.1199989h-1.6700134v-3.6800003h1.6700134v-3.4099998h5.0400085v3.4099998h2.5v3.6800003h-2.5v3.079998c0,.7599983.4500122,1.1800003,1.0499878,1.1800003.3999939,0,.7999878-.1100006,1.1400146-.3300018l1.2000122,3.5-.0000305-.0099983Z"/>
  <path class="st2" d="M332.5999889,18.3717451c0-1.4500008,1.1799927-2.5599995,3.0299988-2.5599995s3.0299988,1.0300007,3.0299988,2.4699993c0,1.5400009-1.1799927,2.6499996-3.0299988,2.6499996s-3.0299988-1.1100006-3.0299988-2.5599995ZM333.1099987,21.911746h5.0400085v12.1899986h-5.0400085v-12.1899986Z"/>
  <path class="st2" d="M345.8199902,22.5817461h2.6499939v3.6800003h-2.5v7.8400021h-5.0400085v-7.8400002h-1.6700134v-3.6800003h1.6700134v-.0699997c0-3.1399994,1.9599915-5.1700001,5.4400024-5.1700001,1.0700073,0,2.25.2000008,2.9899902.6000004l-1.2000122,3.5c-.3299866-.1599998-.7399902-.2900009-1.1400146-.2900009-.7099915,0-1.2000122.4200001-1.2000122,1.3999996v.0200005l.000061.0099983Z"/>
  <path class="st2" d="M363.199995,21.911746v12.1899986h-4.7900085v-1.1599998c-.9100037.9399986-2.1400146,1.3800011-3.4500122,1.3800011-2.9200134,0-5.1300049-1.7200012-5.1300049-5.6800003v-6.7299995h5.0400085v5.8600006c0,1.7400017.6000061,2.3199997,1.5799866,2.3199997.8699951,0,1.7200012-.6500015,1.7200012-2.4500008v-5.7299995h5.0400085-.0099792Z"/>
  <path class="st2" d="M365.430006,17.5617456h5.0400085v16.5400028h-5.0400085v-16.5400028Z"/>
  <path class="st2" d="M277.1299877,40.0417471v2.670002h6.5100098v3.9700012h-6.5100098v4.9899979h-5.2600098v-15.5999985h12.6799927v3.9700012h-7.4200134l.0000305-.0000038Z"/>
  <path class="st2" d="M286.0699902,35.1417455h5.0400085v16.5400009h-5.0400085v-16.5400009Z"/>
  <path class="st2" d="M292.6899853,45.5717459c0-3.7000008,2.9599915-6.3100014,7.0899963-6.3100014s7.0899963,2.6100006,7.0899963,6.3100014-2.9400024,6.329998-7.0899963,6.329998-7.0899963-2.6300011-7.0899963-6.329998ZM301.7599926,45.5717459c0-1.5800018-.8699951-2.3800011-1.980011-2.3800011s-1.980011.7999992-1.980011,2.3800011.8699951,2.4099998,1.980011,2.4099998,1.980011-.8199997,1.980011-2.4099998Z"/>
  <path class="st2" d="M307.8000011,45.5717459c0-3.7000008,2.9599915-6.3100014,7.0899963-6.3100014s7.0899963,2.6100006,7.0899963,6.3100014-2.9400024,6.329998-7.0899963,6.329998-7.0899963-2.6300011-7.0899963-6.329998ZM316.8700085,45.5717459c0-1.5800018-.8699951-2.3800011-1.980011-2.3800011s-1.980011.7999992-1.980011,2.3800011.8699951,2.4099998,1.980011,2.4099998,1.980011-.8199997,1.980011-2.4099998Z"/>
  <path class="st2" d="M332.2899914,39.2617445v4.4599991c-.4500122-.0699997-.7600098-.0900002-1.1099854-.0900002-1.519989,0-2.5899963.6899986-2.5899963,2.6300011v5.4199982h-5.0400085v-12.1899986h4.7900085v1.3100014c.8900146-1.0299988,2.25-1.5400009,3.9400024-1.5400009h.0099792Z"/>
  <path class="st2" d="M333.2100048,35.9417448c0-1.4500008,1.1799927-2.5600014,3.0299988-2.5600014s3.0299988,1.0299988,3.0299988,2.4700012c0,1.5400009-1.1799927,2.6500015-3.0299988,2.6500015s-3.0299988-1.1100006-3.0299988-2.5600014ZM333.7200146,39.4817457h5.0400085v12.1899986h-5.0400085v-12.1899986Z"/>
  <path class="st2" d="M354.4399853,44.7217474v6.9500008h-5.0400085v-6.0800018c0-1.5200005-.5799866-2.0999985-1.4899902-2.0999985-1.0299988,0-1.8900146.6500015-1.8900146,2.4500008v5.7299995h-5.0400085v-12.1899986h4.7900085v1.2000008c.9599915-.9599991,2.25-1.4300003,3.6799927-1.4300003,2.8099976,0,4.9899902,1.6300011,4.9899902,5.4599991l.0000305.0099983Z"/>
  <path class="st2" d="M370.4700146,39.4817457v9.7600021c0,4.7200012-2.7600098,6.9799995-7.4200134,6.9799995-2.4100037,0-4.5899963-.5099983-6.1099854-1.5200005l1.6900024-3.4300003c.9599915.7400017,2.5899963,1.2000008,3.8999939,1.2000008,2.0700073,0,2.8999939-.9099998,2.8999939-2.5400009v-.2200012c-.7600098.8699989-1.8699951,1.2900009-3.3699951,1.2900009-3.1000061,0-5.8599854-2.2700005-5.8599854-5.8800011s2.7600098-5.8600006,5.8599854-5.8600006c1.6700134,0,2.8500061.5099983,3.6099854,1.5999985v-1.3800011h4.7900085l.0100098.0000038ZM365.4800243,45.1217451c0-1.1800003-.8900146-1.9399986-2.0700073-1.9399986s-2.0899963.7599983-2.0899963,1.9399986.9100037,1.9599991,2.0899963,1.9599991,2.0700073-.7799988,2.0700073-1.9599991Z"/>
  <path class="st3" d="M314.8299999,36.2317457c0-.4700012-.019989-.9399986-.019989-1.4000015v-.0699997h0v-.9699974h0v-.5300026h0v-.1500015h-.0100098c-.0299988-.1899986-.1300049-.3600006-.2900085-.4599991-.1099854-.0699997-.230011-.0999985-.3399963-.0999985-.2399902,0-.480011.1399994-.5899963.3800011h0c-.0400085.0900002-.0599976.1800003-.0599976.2599983,0,.0499992.019989.0900002.0299988.1300011h0v.0400009c0,.3100014-.0100098.6199989-.0100098.9399986v.2099991c0,.5999985,0,1.2000008.019989,1.7900009h0c0,.1500015.0700073.2900009.1499939.3899994l.2200012-.1899986-.2200012.1899986h0c.1199951.1399994.2900085.2200012.480011.2200012h.0400085c.1700134-.0099983.3299866-.0900002.4400024-.2200012.1099854-.1300011.1499939-.2900009.1499939-.4300003h0v-.0099983l.0100098-.0200005Z"/>
  <polygon class="st3" points="317.2500134 36.4717474 317.2400036 36.4817457 317.2400036 36.4817457 317.2500134 36.4717474"/>
  <path class="st3" d="M317.9000072,33.3517446h0c-.1199951-.1399994-.2900085-.2099991-.480011-.2099991-.0700073,0-.1400146.0099983-.2099915.0400009-.1799927.0699997-.3299866.2200012-.3900146.4000015-.0299988.0800018-.0499878.1500015-.0700073.2099991h0c-.0499878.1599998-.1000061.3100014-.1600037.4700012h0c-.1000061.3100014-.1900024.6199989-.269989.9199982-.0899963.2999992-.1799927.6100006-.2799988.9099998h0c-.019989.0600014-.0299988.1300011-.0299988.1899986,0,.1599998.0599976.3100014.1600037.4199982h0c.0700073.0800018.1600037.1399994.269989.1800003h0c.0599976.0200005.1300049.0299988.1900024.0299988.269989,0,.5100098-.1699982.6000061-.4399986h0c.0799866-.2400017.1499939-.4799995.2200012-.7200012h0c.0899963-.3100014.1700134-.6100006.269989-.9099998.0499878-.1599998.1000061-.3100014.1499939-.4700012h0c.019989-.0699997.0499878-.1399994.0700073-.2200012h0c.019989-.0600014.0400085-.1199989.0499878-.1699982h0c.0299988-.0800018.0499878-.1500015.0499878-.2299995,0-.1500015-.0499878-.2999992-.1600037-.4199982l.02005.0200005Z"/>
  <path class="st3" d="M320.2299938,34.8317442c-.1300049-.1399994-.2999878-.2099991-.4700012-.2099991-.1499939,0-.2999878.0499992-.4200134.1599998-.1799927.1599998-.2200012.3400002-.2600098.4300003h0c-.0599976.1399994-.1300049.2900009-.2000122.4300003h0c-.1300049.2999992-.2600098.5999985-.3699951.9099998-.0299988.0699997-.0400085.1399994-.0400085.2099991,0,.1599998.0599976.3100014.1600037.4199982h0c.0700073.0800018.1600037.1500015.269989.1800003.0599976.0200005.1300049.0299988.2000122.0299988.1000061,0,.1900024-.0200005.2799988-.0600014h0c.1600037-.0800018.269989-.2200012.3200073-.3600006h0c.0299988-.0699997.0499878-.1399994.0799866-.2099991.0799866-.2099991.1700134-.4199982.269989-.6199989h0c.0499878-.0999985.0899963-.2099991.1400146-.3199997h0c.0299988-.0499992.0499878-.1100006.0799866-.1699982h0l.0299988-.0800018h0c.0599976-.0999985.0899963-.2099991.0899963-.3199997,0-.1500015-.0499878-.2999992-.1600037-.4199982h.000061ZM318.8499889,36.991744h0Z"/>
  <path class="st3" d="M311.6500072,36.5117445c-.0700073-.2599983-.1300049-.5400009-.2099915-.8199997-.0700073-.2599983-.1499939-.5-.2200012-.7400017-.1499939-.5699997-.2900085-1.1399994-.4400024-1.7200012h0c-.019989-.0600014-.0299988-.1199989-.0400085-.1699982h0c0-.1599998-.0499878-.3100014-.1600037-.4300003h0c-.1300049-.1399994-.2999878-.2099991-.4700012-.2099991-.1499939,0-.2999878.0499992-.4200134.1599998-.1600037.1399994-.2200012.3300018-.2200012.5099983v.0299988h0c0,.0900002.019989.1699982.0400085.2400017h0c.0299988.1300011.0700073.2599983.1000061.3899994v.0200005-.0200005c.0400085.1699982.0899963.3300018.1300049.5h0c.0799866.3199997.1600037.6500015.25.9700012h0c.0499878.1699982.0899963.3499985.1499939.5200005.0400085.1399994.0799866.2700005.1199951.4000015.0599976.2099991.1099854.4300003.1700134.6599998.019989.0900002.0700073.1899986.1499939.2799988l.2200012-.1899986-.1900024.2200012h0l.0700073.0600014h.0100098l.019989.0200005c.1000061.0699997.2200012.0999985.3500061.0999985h.1199951v-.0099983h0c.1700134-.0299988.3099976-.1300011.4100037-.2799988h0c.0599976-.0999985.1000061-.2099991.1000061-.3499985l-.019989-.1399994h0l-.0200195-.0000076Z"/>
  <path class="st3" d="M308.6200085,37.3517446c-.1300049-.2400017-.2799988-.4500008-.4200134-.6500015h0c-.1400146-.1899986-.269989-.3800011-.4100037-.5699997-.1900024-.2700005-.3800049-.5400009-.5799866-.8199997-.1099854-.1399994-.2200012-.2799988-.3399963-.4199982h0c-.0899963-.1100006-.1900024-.2000008-.269989-.2900009-.1300049-.1399994-.2999878-.2099991-.4700012-.2099991-.1499939,0-.2999878.0499992-.4200134.1599998-.1400146.1300011-.2099915.2999992-.2099915.4700012,0,.1500015.0499878.2999992.1600037.4199982.0799866.0900002.1700134.1800003.2399902.2599983.0799866.0900002.1700134.1899986.25.2900009.0899963.1100006.1700134.2299995.2600098.3499985.1900024.2700005.3900146.5400009.5799866.8100014h0c.1799927.25.3599854.5.5100098.7400017l.019989.0299988h0l.0599976.0999985.2399902-.1699982-.2200012.1899986h0c.0700073.0800018.1600037.1399994.269989.1800003.0599976.0200005.1300049.0299988.2000122.0299988.1000061,0,.1900024-.0200005.2799988-.0600014.2200012-.1100006.3500061-.3300018.3599854-.5699997,0-.0900002-.019989-.1899986-.0700073-.2799988h0l-.0199585.0100021Z"/>
  <path class="st3" d="M305.5200024,38.8617468c-.2000122-.1500015-.3999939-.2700005-.5899963-.4000015-.2000122-.1399994-.3999939-.2799988-.6000061-.4199982-.269989-.1800003-.5400085-.3600006-.8099976-.5400009h0c-.1499939-.0999985-.2900085-.2000008-.4500122-.2900009-.1499939-.0900002-.2900085-.1699982-.4299927-.2400017l-.0299988-.0200005c-.0799866-.0699997-.1700134-.1199989-.2799988-.1500015h-.1300049c-.3399963,0-.6099854.2400017-.6300049.5800018v.0400009c0,.1699982.0700073.3300018.1700134.4300003l.2200012-.1899986h0l-.1900024.2200012h0l.1199951.0999985h.0100098l.019989.0200005c.1199951.0699997.230011.1300011.3299866.1800003.3299866.1899986.6499939.4199982.9899902.6500015.269989.1800003.5299988.3600006.7999878.5400009.1199951.0900002.25.1699982.3800049.2599983h0c.1300049.0900002.2600098.1699982.3800049.2599983h0c.1199951.0800018.2399902.1100006.3599854.1100006h.1300049c.1700134-.0499992.3099976-.1500015.4100037-.2900009h0c.0700073-.0999985.1000061-.2200012.1000061-.3499985v-.1199989c-.0499878-.1800003-.1600037-.3199997-.269989-.4000015l-.0099792.0200005Z"/>
  <path class="st3" d="M303.5900097,41.0017462c-.2099915-.0999985-.4200134-.1899986-.6199951-.2799988-.1900024-.0800018-.3900146-.1800003-.5799866-.2700005-.2900085-.1399994-.5799866-.2900009-.8900146-.4199982-.3200073-.1399994-.6400146-.2599983-.9500122-.3699989-.1400146-.0499992-.2600098-.1100006-.3800049-.1699982h0c-.0899963-.0499992-.2000122-.0900002-.3200073-.0900002h-.0400085c-.1700134.0099983-.3299866.0900002-.4400024.2200012h-.0100098.0100098c-.1000061.1199989-.1499939.2700005-.1499939.4099998,0,.0699997.0100098.1399994.0400085.2000008l-.0799866.0699997.2399902.1899986.0499878.0499992h.019989l.019989.0099983h0c.1099854.0699997.2099915.1100006.2900085.1500015h0c.1099854.0499992.2200012.0999985.3399963.1399994.2099915.0800018.4100037.1500015.6099854.2299995.2099915.0900002.4100037.1800003.6199951.2700005.2799988.1300011.5599976.2799988.8500061.4199982h0c.2900085.1399994.5799866.25.8500061.3800011.0899963.0400009.1799927.0600014.269989.0600014.2399902,0,.4599915-.1300011.5700073-.3600006.0400085-.0900002.0599976-.1800003.0599976-.2700005,0-.2400017-.1300049-.4599991-.3599854-.5699997l-.0199585-.0000038Z"/>
  <path class="st3" d="M322.3700085,37.3617468h0c.0400085-.0499992.0799866-.0999985.1099854-.1300011h.019989l.1099854-.1500015.019989-.0200005v-.0299988c.0700073-.1100006.0799866-.2099991.0799866-.2900009v-.0200005h0c0-.1300011-.0499878-.2400017-.1099854-.3300018s-.1400146-.1500015-.230011-.2000008h0c-.0899963-.0499992-.1900024-.0699997-.2900085-.0699997-.1300049,0-.25.0299988-.3699951.1199989h0l-.1300049.1199989h0v.0200005c-.0599976.0699997-.1099854.1300011-.1499939.1800003h0c-.1000061.1300011-.2000122.2599983-.2900085.3899994h0c-.1799927.2400017-.3500061.4900017-.519989.7400017h0c-.0700073.1100006-.1000061.2299995-.1000061.3400002,0,.1599998.0599976.3100014.1600037.4300003h.0100098l.0799866.0800018h.0100098l.019989.0200005c.1099854.0699997.230011.0999985.3399963.0999985.2099915,0,.4100037-.0999985.5299988-.2799988.1900024-.2799988.3900146-.5600014.5899963-.8300018.0499878-.0600014.0899963-.1199989.1400146-.1800003l-.0299377-.0099945ZM320.8200207,37.8417463h0Z"/>
  <path class="st3" d="M324.1200085,39.1517439l.0700073-.0499992h.019989l.0100098-.0200005c.1400146-.1300011.2099915-.2999992.2099915-.4700012,0-.1500015-.0499878-.2999992-.1600037-.4199982h0c-.1300049-.1399994-.2999878-.2099991-.480011-.2099991-.1000061,0-.1900024.0200005-.2799988.0699997h0c-.1000061.0499992-.1600037.1100006-.2000122.1399994h0l-.269989.2099991c-.1799927.1399994-.3699951.2900009-.5499878.4500008h0c-.1499939.1300011-.2200012.3100014-.2200012.4799995,0,.1500015.0499878.2999992.1600037.4199982l.2200012-.1899986h0l-.2200012.1899986h0c.1199951.1399994.2999878.2099991.4700012.2099991.1499939,0,.2999878-.0499992.4200134-.1500015h0c.25-.2200012.519989-.4199982.7900085-.6300011h.0100098l-.0000305-.029995Z"/>
  <path class="st3" d="M323.8499889,41.2517462c.1199951.1399994.2900085.2200012.480011.2200012.0899963,0,.1900024-.0200005.2799988-.0699997h0c.1199951-.0600014.25-.1300011.3699951-.2000008.0700073-.0400009.1300049-.0699997.2000122-.1100006h.0100098l.1000061-.0800018h.0100098l.0100098-.0200005c.1400146-.1300011.2099915-.2999992.2099915-.4700012,0-.1500015-.0499878-.2999992-.1600037-.4199982h0c-.1300049-.1399994-.2999878-.2099991-.4700012-.2099991-.1300049,0-.25.0400009-.3599854.1199989h0c-.1499939.0900002-.3200073.1699982-.4899902.2599983-.1400146.0699997-.2600098.2000008-.3099976.3699989-.019989.0600014-.0299988.1300011-.0299988.2000008,0,.0900002.019989.1899986.0599976.2799988v.0200005l.0700073.0900002.2399902-.1599998-.2200012.1899986h0l-.000061-.0099945Z"/>
  <path class="st3" d="M326.0500011,42.5717459h0c-.0100098-.1699982-.0899963-.3300018-.2200012-.4399986h0c-.1099854-.0900002-.2399902-.1500015-.3999939-.1500015h-.0700073l-.0799866.0200005h-.0400085l-.0400085.0099983h0s-.0899963.0099983-.1400146.0200005c-.0899963.0099983-.1799927.0200005-.269989.0299988h-.1099854v.0099983h0c-.0799866.0099983-.2000122.0299988-.3099976.1100006-.1099854.0699997-.2000122.1800003-.25.3400002-.019989.0600014-.0299988.1199989-.0299988.1899986,0,.1199989.0299988.2400017.1099854.3499985h0l.0299988.0499992.230011-.1800003-.2200012.1899986h0c.1099854.1199989.2600098.2000008.4400024.2099991h.1499634c.0700073,0,.1300049-.0099983.2099915-.0200005h0c.1099854-.0099983.2200012-.0299988.3200073-.0400009h.0599976l.0499878-.0099983c.1400146-.0200005.2999878-.0800018.4200134-.2200012h0c.1000061-.1199989.1499939-.2599983.1499939-.4099998v-.0400009l.0100403-.019989Z"/>
  <path class="st1" d="M362.8000011,38.2317457c-.1499939-.2700005-.25-.5800018-.1799927-.8899994.0299988-.1500015.1099854-.2799988.2000122-.3899994.1099854-.1199989.25-.2099991.3999939-.2700005.2799988-.1100006.5899963-.1199989.8900146-.0900002.1499939.0200005.2999878.0400009.4400024.0800018s.2900085.0800018.4299927.1300011c.1099854.0400009.2099915.0900002.3200073.1300011.1199951.0499992.230011.1100006.3500061.1699982.1000061.0499992.1900024.1100006.2900085.1599998s.1900024.1100006.2799988.1699982c.1799927.1199989.3599854.2400017.5299988.3699989.1000061.0800018.2099915.1599998.3099976.2400017.0899963.0699997.1700134.1399994.2600098.2099991.1499939.1199989.2999878.25.4400024.3899994.1000061.0900002.1900024.1800003.2799988.2700005.0100098.0099983.019989.0200005.0299988.0299988.0700073.0699997.1400146.1399994.2099915.2099991.019989.0200005.0299988.0299988.0499878.0499992-.0100098-.0099983-.019989-.0200005-.0299988-.0299988.1600037.1599998.3200073.3400002.4700012.5099983.1400146.1500015.269989.3100014.3900146.4700012.1400146.1800003.269989.3600006.3999939.5499992.1199951.1899986.2399902.3699989.3500061.5600014.1600037.2700005.3099976.5499992.4500122.8300018.0499878,0,.1000061.0200005.1499939.0299988.0899963.0200005.1799927.0299988.2799988.0499992h0c.1300049.0200005.2600098.0400009.3999939.0499992.1099854.0200005.230011.0200005.3399963.0299988.1199951,0,.230011.0200005.3500061.0200005.1400146,0,.2799988,0,.4299927.0099983.1600037,0,.3299866-.0099983.4899902-.0200005.0799866,0,.1499939-.0200005.230011-.0200005.0799866,0,.1499939-.0200005.230011-.0200005.2000122-.0299988.3999939-.0699997.6000061-.1199989.1600037-.0400009.3200073-.0999985.480011-.1599998.1300049-.0499992.25-.1100006.3699951-.1800003.1000061-.0600014.1900024-.1199989.2799988-.1899986.0799866-.0699997.1600037-.1399994.2399902-.2099991.0700073-.0699997.1400146-.1500015.2000122-.2299995.0499878-.0699997.1000061-.1399994.1400146-.2200012.0400085-.0699997.0799866-.1500015.1099854-.2299995.0299988-.0800018.0599976-.1599998.0799866-.2400017s.0400085-.1599998.0499878-.2400017c.0100098-.0800018.019989-.1699982.019989-.25h-.0499878c-.4400024-.1100006-.8699951-.2299995-1.2999878-.3499985-.2099915-.0600014-.4200134-.1300011-.6300049-.1899986-.2099915-.0600014-.4100037-.1399994-.6199951-.2099991-.2000122-.0699997-.3999939-.1500015-.6099854-.2200012-.0799866-.0299988-.1700134-.0699997-.25-.0999985-.1099854-.0499992-.230011-.0900002-.3399963-.1399994-.1000061-.0400009-.2000122-.0900002-.2900085-.1300011-.1099854-.0499992-.2099915-.0999985-.3200073-.1399994-.1000061-.0400009-.1900024-.0900002-.2900085-.1399994-.0899963-.0400009-.1799927-.0900002-.269989-.1300011-.1099854-.0600014-.2200012-.1100006-.3299866-.1699982-.0799866-.0400009-.1499939-.0800018-.230011-.1199989-.2000122-.1100006-.3999939-.2200012-.5899963-.3300018-.1900024-.1199989-.3900146-.2299995-.5799866-.3600006-.1000061-.0600014-.2000122-.1300011-.2999878-.1899986-.1000061-.0600014-.1900024-.1399994-.2900085-.2000008-.1799927-.1199989-.3500061-.2599983-.519989-.3899994-.1600037-.1199989-.3299866-.25-.480011-.3899994-.3399963-.2799988-.6799927-.5699997-.9899902-.8800011-.3200073-.3199997-.6400146-.6399994-.9100037-1.0099983-.0700073-.0999985-.1400146-.1899986-.2000122-.2900009-.0400085-.0699997-.0899963-.1399994-.1300049-.2099991-.0799866-.1399994-.1400146-.2900009-.1700134-.4399986-.0400085-.1399994-.0299988-.2900009,0-.4300003.0299988-.1599998.1000061-.3100014.2000122-.4300003s.2099915-.2099991.3500061-.2900009c.0700073-.0400009.1400146-.0800018.2099915-.0999985.0799866-.0299988.1600037-.0499992.25-.0600014.2999878-.0600014.6099854-.0400009.9100037,0,.2099915.0299988.4100037.0800018.6199951.1300011.0700073.0200005.1499939.0400009.2200012.0600014.0400085.0099983.0799866.0200005.1199951.0299988.1199951.0400009.2399902.0800018.3599854.1199989.2099915.0699997.4100037.1500015.6199951.2299995.0899963.0400009.1799927.0800018.269989.1199989.1099854.0499992.230011.0999985.3399963.1500015.019989,0,.0400085.0200005.0599976.0299988.0599976.0299988.1300049.0699997.1900024.0999985.1199951.0600014.2399902.1300011.3599854.1899986.0799866.0400009.1499939.0900002.2200012.1300011.1300049.0800018.2600098.1500015.3900146.2299995.1799927.1100006.3500061.2200012.5299988.3300018.0799866.0499992.1600037.0999985.230011.1500015.0899963.0600014.1799927.1199989.2600098.1800003.1700134.1199989.3399963.2299995.5100098.3600006.1799927.1399994.3699951.2700005.5499878.4099998.1700134.1399994.3500061.2700005.519989.4199982.1700134.1399994.3399963.2799988.5.4300003.1400146.1300011.2900085.2599983.4299927.4000015.1300049.1300011.2600098.2599983.3900146.3899994l-.019989-.0200005c.0799866.0800018.1600037.1699982.2399902.2599983.0599976.0600014.1199951.1300011.1700134.1899986.0799866.0999985.1700134.2000008.25.2999992.0299988.0299988.0499878.0699997.0799866.0999985.0499878.0699997.1000061.1300011.1400146.2000008.019989.0299988.0499878.0600014.0700073.0900002.0299988.0499992.0599976.0999985.0899963.1500015.0599976.0999985.1199951.1899986.1700134.2900009.0499878.0999985.1099854.2000008.1600037.2999992.0499878.1199989.1099854.2400017.1600037.3600006.0599976.1399994.1099854.2799988.1499939.4199982.0299988.0900002.0499878.1800003.0599976.2799988.0700073.0099983.1499939.0299988.2200012.0400009.1099854.0200005.2200012.0400009.3299866.0600014.0899963.0200005.1900024.0299988.2799988.0499992.1099854.0200005.2099915.0299988.3200073.0499992.1799927.0200005.3699951.0499992.5499878.0699997.0799866.0099983.1700134.0200005.25.0200005.1099854.0099983.5100098.0400009.5899963.0499992.1099854,0,.2200012.0099983.3299866.0200005h.5299988c.1199951,0,.2399902-.0099983.3599854-.0099983.1799927,0,.3500061-.0200005.5299988-.0400009.2200012-.0299988.4299927-.0699997.6400146-.1199989.1600037-.0400009.3099976-.0900002.4599915-.1500015.1000061-.0400009.2000122-.0900002.2999878-.1399994.0700073-.0400009.1499939-.0900002.2200012-.1399994.0599976-.0499992.1199951-.0999985.1799927-.1599998.0499878-.0499992.0899963-.0999985.1400146-.1599998.0400085-.0499992.0700073-.0999985.1000061-.1599998s.0599976-.1199989.0899963-.1899986.0499878-.1300011.0700073-.2000008c.019989-.0800018.0299988-.1500015.0499878-.2299995,0-.0800018.019989-.1699982.019989-.25,0-.0999985,0-.2000008-.019989-.2900009-.019989-.1199989-.0400085-.2299995-.0700073-.3400002-.0400085-.1399994-.0799866-.2700005-.1300049-.4000015-.0700073-.1800003-.1600037-.3499985-.25-.5099983-.1000061-.1699982-.2099915-.3300018-.3200073-.4900017-.0700073-.0900002-.1499939-.1899986-.2200012-.2799988s-.1400146-.1699982-.2200012-.25c-.0700073-.0800018-.1400146-.1500015-.2099915-.2299995-.0899963-.0900002-.1799927-.1800003-.2600098-.2700005-.1099854-.1100006-.230011-.2099991-.3399963-.3199997-.0899963-.0900002-.1900024-.1699982-.2900085-.25-.0899963-.0800018-.1799927-.1599998-.269989-.2299995-.1199951-.0900002-.2399902-.1899986-.3599854-.2799988h0s-.0700073.0099983-.1000061.0200005c-.1000061.0200005-.2000122.0400009-.2999878.0499992-.4400024.0699997-.8800049.1199989-1.3200073.1500015-.0899963,0-.1900024.0099983-.2799988.0099983-.1199951,0-.25.0099983-.3699951,0h-.3900146c-.1099854,0-.2200012-.0099983-.3299866-.0200005-.1000061,0-.2000122-.0200005-.2999878-.0299988-.1099854-.0099983-.2200012-.0200005-.3200073-.0400009-.1099854-.0200005-.2200012-.0299988-.3200073-.0499992-.1199951-.0299988-.25-.0600014-.3699951-.0800018-.1199951-.0299988-.2399902-.0699997-.3599854-.0999985-.1000061-.0299988-.2000122-.0600014-.2900085-.0900002-.2000122-.0699997-.3999939-.1399994-.6000061-.2200012-.0899963-.0400009-.1799927-.0800018-.2799988-.1100006h-.019989c-.2099915-.0900002-.4100037-.1899986-.6099854-.2799988-.2000122-.0999985-.3900146-.2099991-.5899963-.3199997-.1799927-.0999985-.3500061-.2099991-.5100098-.3300018-.1000061-.0699997-.1900024-.1399994-.2900085-.2099991-.2399902-.1899986-.4599915-.4799995-.4100037-.8100014.019989-.1399994.0899963-.2700005.2000122-.3800011.1099854-.1199989.2600098-.1899986.4100037-.25.1300049-.0499992.2799988-.0800018.4200134-.0999985.1600037-.0200005.3099976-.0400009.4700012-.0400009.2000122,0,.3900146,0,.5899963.0200005.1199951,0,.2399902.0200005.3500061.0299988.1300049.0200005.269989.0400009.3999939.0600014.0899963.0099983.1799927.0299988.269989.0499992.1000061.0200005.2000122.0299988.2999878.0600014.1300049.0299988.269989.0600014.3999939.0999985.2200012.0499992.4400024.1199989.6600037.1800003.0899963.0299988.1799927.0600014.2600098.0900002.1000061.0299988.2000122.0600014.2999878.0999985.2000122.0800018.4100037.1500015.6099854.2400017.2000122.0900002.4100037.1699982.6000061.2700005.1300049.0600014.2600098.1300011.3900146.1899986.0700073.0400009.1499939.0800018.2200012.1199989.1099854.0600014.2200012.1199989.3399963.1800003.1000061.0499992.1900024.1100006.2799988.1699982.0899963.0499992.1900024.1100006.269989.1599998.1000061.0699997.2000122.1300011.2999878.2000008.0700073.0499992.1499939.0900002.2200012.1500015.0799866.0600014.1600037.1100006.230011.1699982h0c.0899963-.0200005.1700134-.0499992.2600098-.0699997.1600037-.0499992.3200073-.0999985.480011-.1599998.1499939-.0600014.2999878-.1300011.4400024-.2099991.1199951-.0699997.230011-.1399994.3399963-.2200012.0899963-.0699997.1799927-.1500015.269989-.2400017.0700073-.0699997.1300049-.1399994.1900024-.2099991.0299988-.0499992.0700073-.0900002.1000061-.1399994.0100098-.0299988.0299988-.0499992.0400085-.0800018-.019989-.0200005-.0400085-.0499992-.0499878-.0800018-.0799866-.1699982,0-.3600006.1600037-.4500008.0899963-.0499992.1900024-.0499992.2799988-.0200005.1400146.0400009.2399902.1699982.2799988.3100014.0799866.2799988-.0700073.5699997-.2200012.7900009-.1799927.2599983-.4100037.4799995-.6600037.6599998-.25.1899986-.519989.3400002-.8099976.4700012-.1400146.0600014-.2900085.1199989-.4299927.1599998.1700134.1300011.3299866.2700005.4899902.4099998.0700073.0600014.1400146.1300011.2099915.1899986.0799866.0800018.1700134.1500015.2399902.2299995.1499939.1599998.3099976.3100014.4500122.4700012.0499878.0600014.1000061.1100006.1499939.1699982.019989.0299988.0499878.0499992.0700073.0800018.0799866.0999985.1600037.2000008.2399902.3100014.1499939.1899986.2799988.3899994.3999939.5900002.1600037.2799988.2999878.5699997.3999939.8699989.2000122.5900002.2399902,1.2400017.0499878,1.8300018-.1000061.2999992-.2600098.5699997-.4700012.7999992-.2099915.2400017-.480011.4199982-.7600098.5699997-.2799988.1399994-.5899963.2400017-.8999939.3100014-.2999878.0699997-.6099854.1100006-.9200134.1399994-.1300049.0099983-.2600098.0099983-.3999939.0200005h-.2999878c-.2200012,0-.4400024,0-.6600037-.0099983-.1400146,0-.2900085-.0200005-.4299927-.0299988-.0899963,0-.1700134-.0200005-.2600098-.0200005-.1199951-.0099983-.2399902-.0200005-.3599854-.0400009-.1099854-.0099983-.2099915-.0299988-.3200073-.0400009-.1099854-.0099983-.2200012-.0299988-.3200073-.0400009-.1199951-.0200005-.25-.0400009-.3699951-.0600014-.2000122-.0299988-.3999939-.0699997-.6000061-.1100006,0,.1199989-.019989.2400017-.0499878.3699989-.0599976.2999992-.1700134.5800018-.3299866.8400002-.1600037.2700005-.3699951.5-.6000061.7099991-.480011.4199982-1.0899963.6599998-1.7099915.7900009-.2000122.0499992-.4100037.0800018-.6099854.0999985-.1199951.0099983-.2399902.0200005-.3599854.0400009h-.6499939c-.1400146,0-.269989,0-.4100037-.0099983-.1000061,0-.2000122-.0099983-.2999878-.0200005-.0899963,0-.1799927-.0099983-.269989-.0200005-.1400146-.0200005-.2799988-.0400009-.4200134-.0600014-.0299988,0-.0499878,0-.0799866-.0099983.1199951.2799988.230011.5699997.3299866.8600006.1400146.4000015.2600098.7999992.3599854,1.2099991.0499878.2000008.1000061.4099998.1300049.6100006.0400085.2099991.0599976.4300003.0700073.6399994s.019989.4300003.0100098.6399994c0,.1899986-.0299988.3699989-.0599976.5600014-.0599976.3600006-.1400146.7299995-.269989,1.0800018,0,.0200005-.019989.0400009-.019989.0600014-.0299988.0800018-.0899963.1500015-.1700134.1899986-.0799866.0400009-.1700134.0400009-.25.0200005-.1700134-.0600014-.269989-.25-.2099915-.4199982.0499878-.1300011.1000061-.2700005.1300049-.4000015.0700073-.2599983.1199951-.5200005.1600037-.7799988.019989-.1500015.0299988-.3100014.0299988-.4599991,0-.2700005-.019989-.5499992-.0499878-.8199997-.0299988-.2299995-.0799866-.4599991-.1300049-.6800003-.0799866-.2900009-.1600037-.5900002-.25-.8800011-.1000061-.3100014-.2099915-.6199989-.3299866-.9199982-.0899963-.2200012-.1900024-.4399986-.2900085-.6599998-.0299988,0-.0499878-.0099983-.0799866-.0200005-.1000061-.0200005-.1900024-.0400009-.2900085-.0699997-.1400146-.0400009-.2799988-.0800018-.4100037-.1199989-.0799866-.0200005-.1600037-.0499992-.2399902-.0800018-.1099854-.0400009-.2200012-.0699997-.3299866-.1100006-.1199951-.0499992-.2399902-.0900002-.3599854-.1399994-.2099915-.0800018-.4200134-.1699982-.6300049-.2599983-.1000061-.0400009-.1900024-.0900002-.2799988-.1300011-.0799866-.0400009-.1600037-.0699997-.2399902-.1100006-.1199951-.0600014-.25-.1199989-.3699951-.1899986-.0899963-.0499992-.1799927-.0999985-.269989-.1500015-.3900146-.2099991-.769989-.4399986-1.1300049-.6899986-.1799927-.1199989-.3699951-.25-.5400085-.3899994-.1000061-.0800018-.1900024-.1500015-.2900085-.2299995-.0899963-.0699997-.1700134-.1399994-.2600098-.2200012-.1700134-.1399994-.3200073-.2900009-.4700012-.4399986-.0799866-.0800018-.1600037-.1599998-.2399902-.2400017-.0400085-.0400009-.0700073-.0699997-.1000061-.1100006-.0299988-.0299988-.0599976-.0699997-.0899963-.1100006-.0799866-.0999985-.1700134-.2099991-.2399902-.3100014-.0299988-.0299988-.0499878-.0699997-.0700073-.1100006-.0499878-.0800018-.1000061-.1599998-.1400146-.2400017l-.0301514-.0299911ZM363.6399975,38.3017454c.0799866.0999985.1600037.2000008.25.2900009.0799866.0900002.1600037.1699982.2399902.25.1499939.1399994.2999878.2900009.4599915.4300003.0899963.0699997.1799927.1500015.269989.2200012s.1900024.1399994.2799988.2200012c.1000061.0800018.2099915.1599998.3099976.2299995.1199951.0800018.230011.1599998.3500061.2400017s.2399902.1599998.3699951.2299995c.1199951.0699997.25.1399994.3699951.2200012.1300049.0699997.2600098.1500015.3999939.2200012.1499939.0699997.2900085.1500015.4400024.2200012.0799866.0400009.1700134.0800018.25.1199989.0700073.0299988.1400146.0699997.2000122.0999985.1499939.0600014.2999878.1300011.4400024.1899986.1300049.0499992.2600098.0999985.3900146.1500015.1099854.0400009.2200012.0800018.3299866.1100006.1099854.0400009.2200012.0699997.3299866.1100006.0499878.0099983.1000061.0299988.1600037.0400009-.019989-.0299988-.0299988-.0600014-.0499878-.0900002h0c-.1000061-.1699982-.1900024-.3400002-.2999878-.5099983-.0599976-.0900002-.1199951-.1899986-.1799927-.2799988-.0700073-.0900002-.1300049-.1899986-.2000122-.2799988-.1400146-.1800003-.269989-.3600006-.4200134-.5299988-.0799866-.0900002-.1600037-.1899986-.25-.2799988-.0899963-.0999985-.1799927-.1899986-.269989-.2900009-.0100098-.0099983-.019989-.0200005-.0299988-.0299988-.0700073-.0699997-.1400146-.1399994-.2099915-.2099991-.0100098-.0099983-.0299988-.0299988-.0400085-.0400009.0100098.0099983.019989.0200005.0299988.0299988-.1000061-.0999985-.2000122-.1899986-.3099976-.2900009-.1000061-.0999985-.2099915-.1899986-.3200073-.2799988-.1099854-.0900002-.2200012-.1800003-.3299866-.2700005-.1000061-.0800018-.2000122-.1599998-.2999878-.2299995-.1099854-.0800018-.2200012-.1500015-.3299866-.2299995-.0499878-.0299988-.1000061-.0600014-.1499939-.0999985-.0599976-.0400009-.1199951-.0800018-.1799927-.1100006-.1000061-.0600014-.2000122-.1100006-.2900085-.1699982-.0499878-.0299988-.1000061-.0499992-.1499939-.0699997-.0599976-.0299988-.1199951-.0600014-.1799927-.0900002-.0700073-.0299988-.1400146-.0600014-.2099915-.0800018-.1300049-.0499992-.2600098-.0999985-.3900146-.1300011-.1099854-.0299988-.2200012-.0499992-.3299866-.0699997-.0899963-.0099983-.1799927-.0200005-.2799988-.0200005-.0599976,0-.1199951,0-.1799927.0099983-.0400085,0-.0799866.0099983-.1199951.0200005-.0299988,0-.0599976.0200005-.0899963.0299988-.019989,0-.0400085.0200005-.0599976.0299988-.019989,0-.0299988.0200005-.0499878.0299988,0,0-.0100098,0-.019989.0200005,0,.0099983-.019989.0200005-.0299988.0299988,0,0,0,.0099983-.0100098.0200005,0,0,0,.0200005-.0100098.0299988v.1300011c0,.0200005,0,.0400009.0100098.0699997s.019989.0699997.0299988.0999985c.0299988.0600014.0599976.1300011.0899963.1899986.0700073.1199989.1499939.2299995.2399902.3499985l.0299377-.0000038ZM366.1699963,33.8117475c.0499878.0600014.1000061.1199989.1499939.1899986.0499878.0600014.1000061.1100006.1499939.1699982.1099854.1199989.2200012.2400017.3299866.3499985.1099854.1100006.230011.2200012.3399963.3300018.1400146.1300011.2900085.2700005.4400024.4000015.2600098.2299995.5299988.4399986.7999878.6599998.1199951.0900002.2399902.1899986.3699951.2799988.0799866.0600014.1600037.1100006.2399902.1699982.0599976.0400009.1199951.0900002.1900024.1300011.0899963.0600014.1700134.1100006.2600098.1699982.0599976.0400009.1199951.0800018.1900024.1199989.1499939.0900002.3099976.1899986.4599915.2799988.0799866.0400009.1600037.0900002.2399902.1399994s.1700134.0999985.25.1399994c.0899963.0499992.1900024.0999985.2799988.1500015.0899963.0499992.1700134.0900002.2600098.1399994.1000061.0499992.1900024.0900002.2900085.1399994.0899963.0400009.1799927.0900002.269989.1300011.1900024.0800018.3800049.1699982.5700073.25.0899963.0400009.1799927.0699997.269989.1100006s.1799927.0800018.2799988.1100006c.1199951.0400009.230011.0900002.3500061.1300011.0799866.0299988.1700134.0600014.25.0900002.2000122.0699997.4100037.1399994.6099854.2099991.2099915.0600014.4100037.1300011.6199951.1899986.1799927.0499992.3599854.0999985.5299988.1500015.1799927.0400009.3500061.0900002.5299988.1300011-.019989-.0699997-.0499878-.1399994-.0700073-.2000008-.0599976-.1399994-.1199951-.2799988-.1799927-.4099998-.0299988-.0600014-.0599976-.1100006-.0899963-.1599998s-.0499878-.0999985-.0799866-.1599998c-.0299988-.0499992-.0700073-.1100006-.1000061-.1599998s-.0700073-.1100006-.1000061-.1699982c-.0799866-.1100006-.1600037-.2200012-.2399902-.3300018-.0499878-.0600014-.0899963-.1100006-.1400146-.1699982-.0499878-.0600014-.1000061-.1199989-.1499939-.1800003-.1099854-.1199989-.230011-.25-.3399963-.3699989-.1199951-.1199989-.2399902-.2400017-.3699951-.3600006-.0400085-.0400009-.0899963-.0800018-.1300049-.1199989-.0799866-.0699997-.1600037-.1500015-.2399902-.2200012-.1099854-.0999985-.230011-.2000008-.3399963-.2900009s-.2099915-.1800003-.3200073-.2599983c-.1400146-.1100006-.2799988-.2200012-.4200134-.3300018-.1799927-.1399994-.3699951-.2700005-.5499878-.4099998-.0599976-.0400009-.1199951-.0800018-.1799927-.1199989-.1300049-.0900002-.2600098-.1800003-.3800049-.2599983-.1700134-.1199989-.3399963-.2200012-.5100098-.3300018-.0899963-.0600014-.1700134-.1100006-.2600098-.1699982-.0799866-.0499992-.1700134-.0999985-.25-.1500015-.1199951-.0699997-.25-.1500015-.3699951-.2200012-.2000122-.1100006-.3999939-.2099991-.6000061-.3199997-.0799866-.0400009-.1700134-.0800018-.2600098-.1199989-.1000061-.0400009-.1900024-.0900002-.2900085-.1300011-.1199951-.0499992-.2399902-.0900002-.3599854-.1399994-.1000061-.0400009-.2000122-.0699997-.2999878-.0999985-.1099854-.0400009-.230011-.0800018-.3399963-.1100006-.1300049-.0299988-.25-.0699997-.3800049-.0999985-.1600037-.0400009-.3200073-.0699997-.480011-.0900002-.1099854-.0099983-.2200012-.0200005-.3399963-.0299988-.0799866,0-.1499939,0-.230011.0099983-.0499878,0-.1099854.0200005-.1600037.0299988-.019989,0-.0400085.0099983-.0700073.0200005-.0299988.0099983-.0499878.0200005-.0799866.0400009-.0400085.0200005-.0700073.0499992-.1099854.0699997-.0100098,0-.019989.0200005-.0299988.0299988-.0100098.0200005-.0299988.0299988-.0400085.0499992,0,0,0,.0099983-.0100098.0200005,0,.0200005-.019989.0299988-.019989.0499992s-.0100098.0400009-.019989.0600014v.1300011c0,.0200005,0,.0400009.0100098.0600014.0100098.0299988.019989.0699997.0299988.0999985.0299988.0600014.0599976.1199989.0899963.1800003.0899963.1500015.1799927.2799988.2799988.4199982l.000061-.0399971ZM372.3700085,31.3717489s.0299988.0299988.0499878.0499992c.0700073.0600014.1400146.1199989.2099915.1699982.1199951.0900002.25.1699982.3800049.25.1400146.0900002.2799988.1699982.4200134.25.1499939.0800018.3099976.1599998.4599915.2400017.1499939.0699997.3099976.1399994.4599915.2099991h-.019989c.1099854.0499992.2200012.0900002.3399963.1399994.0899963.0400009.1900024.0699997.2799988.0999985.0799866.0299988.1700134.0600014.25.0900002.0899963.0299988.1700134.0600014.2600098.0800018.1000061.0299988.2000122.0499992.2900085.0800018.1300049.0299988.25.0600014.3800049.0900002.0599976.0099983.1199951.0200005.1799927.0299988s.1300049.0200005.1900024.0299988c.1099854.0099983.2099915.0200005.3200073.0299988.0899963,0,.1799927.0099983.269989.0200005.0899963,0,.1700134.0099983.2600098.0099983h.2999878c.2099915,0,.4299927-.0099983.6400146-.0299988.2099915-.0099983.4200134-.0299988.6300049-.0499992.1000061-.0099983.2099915-.0299988.3099976-.0400009-.0899963-.0600014-.1700134-.1199989-.2600098-.1699982-.1400146-.0800018-.2799988-.1699982-.4200134-.25-.1400146-.0699997-.269989-.1500015-.4100037-.2200012-.1099854-.0600014-.230011-.1199989-.3500061-.1699982-.1099854-.0600014-.230011-.1100006-.3399963-.1599998-.1499939-.0600014-.2999878-.1300011-.4400024-.1899986-.1400146-.0499992-.2799988-.1100006-.4200134-.1599998-.1099854-.0400009-.230011-.0800018-.3399963-.1199989-.1199951-.0400009-.2399902-.0800018-.3599854-.1199989-.1499939-.0400009-.2999878-.0900002-.4500122-.1300011-.1300049-.0299988-.25-.0600014-.3800049-.0900002-.1000061-.0299988-.2099915-.0499992-.3099976-.0699997-.1199951-.0200005-.230011-.0499992-.3500061-.0699997-.1300049-.0200005-.2600098-.0400009-.3900146-.0499992-.2200012-.0200005-.4400024-.0400009-.6700134-.0400009-.1499939,0-.3099976,0-.4599915.0200005-.0799866.0099983-.1700134.0200005-.25.0400009-.0499878.0099983-.1000061.0299988-.1499939.0499992-.019989,0-.0400085.0200005-.0599976.0299988-.019989,0-.0299988.0200005-.0499878.0299988,0,0-.0100098,0-.019989.0099983,0,0,0,.0099983-.0100098.0200005h0c0,.0099983.019989.0299988.0299988.0400009l.0000305.0200005Z"/>
  <path class="st0" d="M273.8299999,50.7617445c.1499939-.1100006.2000122-.3100014.1099854-.4300003-.1600037-.2000008-.3299866-.3899994-.5-.5800018-.1799927-.1899986-.3599854-.3800011-.5400085-.5699997-.3800049-.3899994-.7900085-.7599983-1.2000122-1.1300011-.3999939-.3699989-.8099976-.7299995-1.2099915-1.0999985-.2099915-.2000008-.4299927-.3899994-.6400146-.5900002-.1900024-.1800003-.3699951-.3699989-.5499878-.5699997-.0599976-.0699997-.1300049-.1399994-.1900024-.2200012-.1900024-.2099991-.3699951-.4300003-.5599976-.6399994-.0899963-.1100006-.1900024-.2099991-.2900085-.3199997-.0400085-.0499992-.0899963-.0999985-.1400146-.1399994-.019989-.0200005-.0499878-.0499992-.0700073-.0699997-.019989-.0200005-.0400085-.0400009-.0700073-.0600014-.0400085-.0299988-.1000061-.0499992-.1499939-.0499992-.1300049,0-.2999878.0800018-.3599854.2099991-.0299988.0600014-.0499878.1399994-.0400085.2000008,0,.0200005,0,.0299988.0100098.0499992.019989.0600014.0700073.1100006.1300049.1399994.0700073.0699997.1400146.1500015.2099915.2200012.0799866.0800018.1499939.1599998.230011.25.1499939.1699982.2999878.3400002.4500122.5099983.1900024.2099991.3699951.4300003.5700073.6300011s.3999939.4000015.6099854.5900002c.3999939.3699989.7999878.7299995,1.2099915,1.0999985.4200134.3800011.8299866.75,1.2399902,1.1399994.3800049.3600006.7399902.7400017,1.0899963,1.1300011.0799866.0900002.1600037.1899986.230011.2799988.0899963.1199989.2900085.1300011.4400024.0099983l-.0199585.010006Z"/>
  <path class="st0" d="M271.3100109,52.2017469c.0700073-.0499992.1199951-.1300011.1400146-.2099991.019989-.0800018.0100098-.1699982-.0400085-.2200012-.1300049-.1500015-.2600098-.2900009-.3900146-.4399986,0,0-.0100098-.0200005-.019989-.0200005-.1799927-.2000008-.3599854-.4000015-.5499878-.5900002-.3699951-.3800011-.769989-.7299995-1.1499939-1.0999985-.3900146-.3800011-.769989-.7700005-1.1499939-1.1500015-.1900024-.1899986-.3800049-.3899994-.5700073-.5800018-.2000122-.2000008-.3900146-.4099998-.5799866-.6100006-.1799927-.2000008-.3699951-.4000015-.5499878-.5999985-.1700134-.1800003-.3500061-.3499985-.519989-.5299988-.019989-.0200005-.0400085-.0400009-.0599976-.0600014-.1099854-.0800018-.2999878-.0499992-.4200134.0600014-.1099854.0999985-.1600037.2599983-.0899963.3699989,0,.0099983.019989.0299988.0299988.0400009h0v.0099983s.0100098.0099983.019989.0200005c.019989.0299988.0499878.0499992.0799866.0800018.0299988.0299988.0700073.0699997.1000061.0999985.1900024.2000008.3800049.4000015.5700073.5999985.1799927.1899986.3500061.3899994.5299988.5800018.3800049.4099998.769989.7999992,1.1600037,1.1899986.3800049.3800011.75.7700005,1.1499939,1.1399994.3900146.3600006.769989.7200012,1.1400146,1.1100006.0899963.0900002.1799927.1899986.2600098.2799988.0299988.0400009.0700073.0800018.1000061.1199989l.0100098.0099983c.0400085.0400009.0799866.0900002.1099854.1300011.0799866.0900002.1600037.1800003.2399902.2700005.0499878.0600014.1099854.0900002.1900024.0999985.0799866,0,.1700134-.0299988.25-.0800018l.0099487-.0199928Z"/>
  <path class="st0" d="M268.7100048,54.1017446s.019989-.0200005.0299988-.0299988c.0599976-.0600014.1099854-.1399994.1199951-.2200012s-.019989-.1500015-.0700073-.2099991c-.2099915-.2299995-.4400024-.4500008-.6700134-.6599998-.3900146-.3699989-.7999878-.7200012-1.1799927-1.0900002-.3900146-.3800011-.769989-.7700005-1.1600037-1.1599998-.3800049-.3800011-.769989-.7599983-1.1600037-1.1500015-.3800049-.3800011-.7600098-.7799988-1.1199951-1.1800003-.0700073-.0800018-.1499939-.1599998-.2099915-.25-.0700073-.1300011-.2600098-.1599998-.4200134-.0600014-.1400146.0900002-.2200012.2599983-.1799927.3899994h0c0,.0200005.019989.0400009.0299988.0499992.019989.0400009.0599976.0800018.0899963.1100006.0400085.0400009.0700073.0900002.1099854.1300011.0799866.0900002.1700134.1899986.25.2799988.1499939.1599998.2999878.3300018.4599915.4900017.3900146.4099998.7999878.7999992,1.2000122,1.2000008.3900146.3800011.769989.7700005,1.1600037,1.1599998.1900024.1899986.3699951.3800011.5599976.5600014.2000122.1899986.3999939.3699989.6000061.5499992.3900146.3499985.7799988.7099991,1.1300049,1.0900002.1000061.0999985.2900085.0800018.4200134-.0200005l.0100098.0200005Z"/>
  <path class="st0" d="M265.9700146,56.0517454c.1400146-.1100006.2000122-.3100014.1099854-.4300003-.1499939-.1800003-.2999878-.3499985-.4599915-.5099983-.3699951-.3899994-.75-.7799988-1.1300049-1.1699982-.3699951-.3899994-.7399902-.7900009-1.1000061-1.1899986-.2000122-.2200012-.3999939-.4399986-.6000061-.6599998-.3800049-.4099998-.769989-.7900009-1.1600037-1.1800003-.1900024-.1899986-.3800049-.3800011-.5599976-.5800018-.0899963-.0999985-.1900024-.2099991-.2799988-.3100014-.0499878-.0499992-.1000061-.0999985-.1499939-.1500015-.0499878-.0499992-.0899963-.0999985-.1499939-.1399994-.1000061-.0699997-.269989-.0600014-.3900146.0400009-.1099854.0800018-.1600037.2099991-.1499939.3199997,0,.0299988.019989.0600014.0299988.0900002v-.0200005c.019989.0499992.0599976.0900002.1000061.1100006.0400085.0400009.0799866.0800018.1199951.1199989.0700073.0699997.1300049.1399994.2000122.2099991.1900024.2000008.3699951.4000015.5700073.5999985.1900024.2000008.3800049.3899994.5799866.5800018.2000122.2000008.3900146.3899994.5799866.5900002.1799927.1899986.3599854.3899994.5400085.5900002.1600037.1699982.3099976.3499985.4700012.5200005.3699951.4000015.7399902.7999992,1.1199951,1.1899986.3699951.3699989.7399902.75,1.0899963,1.1300011.0599976.0699997.1300049.1500015.1900024.2200012.0499878.0600014.1099854.0900002.1900024.0999985.0799866,0,.1700134-.0299988.25-.0800018l-.0099792.0100021Z"/>
  <path class="st0" d="M263.8499889,58.1517439s.019989-.0200005.0299988-.0299988c.1400146-.1300011.1600037-.3199997.0499878-.4300003-.0100098-.0099983-.0299988-.0200005-.0400085-.0400009-.1900024-.1800003-.3599854-.3699989-.5400085-.5600014-.1799927-.1899986-.3699951-.3800011-.5499878-.5699997-.3800049-.3800011-.75-.7599983-1.1099854-1.1500015-.1300049-.1500015-.2600098-.2999992-.3900146-.4399986-.3699951-.4199982-.75-.8300018-1.1199951-1.2400017-.1199951-.1300011-.230011-.2599983-.3500061-.3899994,0,0-.0100098-.0200005-.019989-.0299988,0,0-.0100098-.0099983-.019989-.0200005-.0100098-.0099983-.019989-.0299988-.0400085-.0400009h0c-.019989-.0200005-.0400085-.0499992-.0700073-.0699997-.1900024-.2099991-.3699951-.4099998-.5599976-.6199989,0,0,.019989.0200005.019989.0299988-.1799927-.2099991-.3599854-.4099998-.5299988-.6199989-.0899963-.0999985-.1700134-.2099991-.269989-.3100014-.0700073-.0800018-.1400146-.1500015-.2099915-.2200012-.0100098-.0200005-.0299988-.0499992-.0499878-.0600014-.0100098-.0099983-.0299988-.0200005-.0400085-.0400009-.0599976-.0499992-.1499939-.0499992-.230011-.0400009-.1099854.0200005-.2200012.1100006-.2799988.2099991-.0499878.0900002-.0499878.1899986-.0100098.2700005.0299988.0499992.0700073.0900002.1199951.1399994.0299988.0299988.0499878.0499992.0799866.0800018.0499878.0499992.1000061.0999985.1499939.1599998.0899963.0999985.1799927.2000008.2600098.3100014.1799927.2099991.3500061.4199982.5400085.6199989.1799927.2000008.3599854.4000015.5499878.5999985,0,0,.0100098.0099983.019989.0200005h0c.0100098.0200005.0299988.0299988.0400085.0499992,0,0,.019989.0200005.0299988.0299988h0l.0100098.0099983h0s.0100098.0099983.019989.0200005c0,0-.019989-.0200005-.019989-.0299988.0400085.0400009.0700073.0800018.1099854.1199989.1799927.2000008.3599854.4099998.5400085.6100006.1900024.2099991.3800049.4099998.5700073.6199989.230011.2599983.4500122.5299988.6900024.7900009.1799927.2000008.3699951.4000015.5599976.5900002.1900024.2000008.3900146.3899994.5799866.5900002.1799927.1899986.3699951.3699989.5499878.5600014.1799927.1899986.3599854.3899994.5499878.5699997.1000061.0999985.2799988.0900002.4200134-.0099983l-.0399475-.0399933Z"/>
  <path class="st0" d="M259.0900097,54.4417448s.019989-.0200005.0299988-.0299988c.0899963-.0800018.1799927-.1599998.269989-.2400017.4899902-.4199982.980011-.8400002,1.4599915-1.2599983.1300049-.1100006.25-.2200012.3800049-.3300018.0700073-.0600014.1400146-.1199989.2099915-.1800003.0400085-.0299988.0799866-.0600014.1199951-.0999985,0,0,.019989-.0099983.0299988-.0200005.0100098-.0099983.0299988-.0200005.0400085-.0299988,0,0,.0100098-.0099983.019989-.0200005.019989-.0099983.0299988-.0200005.0400085-.0400009h0s.0100098-.0099983.019989-.0200005l.3900146-.3300018c.5100098-.4300003,1.0299988-.8499985,1.5599976-1.2700005.5299988-.4199982,1.0700073-.8400002,1.5899963-1.2799988.2600098-.2200012.519989-.4500008.769989-.6800003s.5-.4599991.75-.6800003c.5-.4500008,1-.8899994,1.480011-1.3499985.4700012-.4500008.9200134-.9199982,1.4100037-1.3400002.0799866-.0699997.1700134-.1399994.2600098-.2099991.0799866-.0699997.1600037-.1300011.2399902-.2000008.0400085-.0200005.0700073-.0499992.1000061-.0800018.0599976-.0699997.0899963-.1500015.0899963-.2200012,0-.0800018-.0400085-.1500015-.1000061-.1899986-.0599976-.0400009-.1400146-.0600014-.2200012-.0400009-.0499878.0099983-.0899963.0299988-.1400146.0499992-.0400085.0200005-.0700073.0499992-.1000061.0800018-.0599976.0499992-.1199951.0900002-.1700134.1399994-.1199951.0900002-.230011.1899986-.3399963.2900009-.5100098.4300003-.9700012.9099998-1.4500122,1.3699989s-.980011.9000015-1.480011,1.3499985c-.25.2299995-.5.4599991-.75.6800003-.25.2299995-.5.4500008-.7600098.6599998.0100098,0,.019989-.0200005.0299988-.0299988-.230011.1899986-.4599915.3800011-.7000122.5699997-.5299988.4199982-1.0599976.8400002-1.5899963,1.2700005-.2600098.2099991-.519989.4199982-.7799988.6399994-.1199951.0999985-.2399902.2000008-.3599854.2999992-.0299988.0299988-.0700073.0600014-.1000061.0800018,0,0-.019989.0200005-.0299988.0200005,0,0-.0100098.0099983-.019989.0200005,0,0-.0100098.0099983-.019989.0200005h0s-.0100098.0099983-.019989.0200005h0s-.019989.0099983-.019989.0200005c-.0299988.0299988-.0700073.0600014-.1000061.0800018-.0700073.0600014-.1300049.1100006-.2000122.1699982-.25.2099991-.5.4300003-.75.6399994s-.4899902.4199982-.7399902.6399994c-.2399902.2099991-.4899902.4199982-.7200012.6300011-.1400146.1300011-.1600037.3199997-.0499878.4300003.1000061.0999985.2799988.0900002.4200134-.0200005l.0000305.0200005Z"/>
  <path class="st0" d="M260.5099926,56.2617445s.019989-.0200005.0299988-.0200005c.5-.4399986,1-.8800011,1.5-1.3199997s.9899902-.8899994,1.5-1.3300018c.3500061-.2900009.7000122-.5800018,1.0499878-.8800011.5299988-.4399986,1.0400085-.8800011,1.5599976-1.3199997.3500061-.2900009.6900024-.5800018,1.0400085-.8699989.5100098-.4199982,1.0299988-.8300018,1.5400085-1.25.5299988-.4300003,1.0599976-.8699989,1.5799866-1.2999992.2799988-.2299995.5599976-.4700012.8299866-.7099991.1300049-.1100006.25-.2299995.3800049-.3400002.0499878-.0499992.1099854-.0999985.1600037-.1500015.0499878-.0499992.1000061-.0999985.1400146-.1599998.0400085-.0499992.0700073-.0999985.1000061-.1599998.0299988-.0699997.0299988-.1300011,0-.2000008-.0299988-.1100006-.1499939-.1699982-.269989-.1599998-.0799866,0-.1600037.0400009-.230011.0900002-.0599976.0400009-.1099854.1100006-.1300049.1699982-.2900085.2900009-.6099854.5600014-.9200134.8300018-.3299866.2700005-.6499939.5499992-.980011.8199997-.519989.4300003-1.0499878.8600006-1.5799866,1.2900009-.5400085.4300003-1.0700073.8699989-1.6000061,1.3100014-.519989.4300003-1.0299988.8699989-1.5400085,1.3100014-.5.4199982-1.0100098.8300018-1.5100098,1.2599983-.2600098.2200012-.519989.4500008-.7799988.6800003-.25.2200012-.5.4500008-.75.6699982-.5.4399986-1.0100098.8800011-1.5100098,1.3300018-.1400146.1199989-.1499939.3199997-.0499878.4300003.0499878.0499992.1300049.0699997.2099915.0699997s.1499939-.0400009.2099915-.0800018l.02005-.0099983Z"/>
  <path class="st0" d="M261.9900036,58.5117445s.019989-.0200005.0299988-.0299988c.1900024-.1699982.3699951-.3499985.5599976-.5299988s.3800049-.3699989.5700073-.5499992c.230011-.2200012.4700012-.4399986.7000122-.6500015.2399902-.2200012.480011-.4300003.7200012-.6399994.4599915-.3800011.9100037-.7599983,1.3699951-1.1399994.5100098-.4300003,1.0299988-.8600006,1.5299988-1.2900009h0c.0100098,0,.019989-.0200005.0299988-.0299988h.0100098c.0100098,0,.019989-.0200005.0299988-.0299988h0c.0100098,0,.019989-.0200005.0299988-.0299988.0100098,0,.019989-.0200005.0299988-.0299988h0c.0100098,0,.019989-.0200005.0299988-.0299988h0s.0100098,0,.019989-.0200005c.3200073-.2700005.6400146-.5499992.9500122-.8199997.5100098-.4500008,1.019989-.9000015,1.5400085-1.3400002.1799927-.1500015.3599854-.2999992.5400085-.4500008.5100098-.4199982,1.0299988-.8199997,1.5599976-1.2099991.269989-.2000008.5400085-.4099998.8200073-.6100006.1400146-.0999985.2799988-.2099991.4200134-.3100014.0700073-.0499992.1499939-.1100006.2200012-.1599998s.1499939-.1100006.2099915-.1699982c.1000061-.1100006.1099854-.2700005.0400085-.3699989-.0700073-.0999985-.230011-.1199989-.3599854-.0600014h0s-.0599976.0299988-.0799866.0499992h0c-.1199951.0999985-.25.1899986-.3800049.2799988-.1300049.0999985-.2600098.2000008-.3999939.2900009-.2600098.1899986-.519989.3800011-.7799988.5800018-.5400085.4000015-1.0700073.8100014-1.5899963,1.2400017-.5299988.4199982-1.0400085.8699989-1.5400085,1.3100014-.5100098.4500008-1.0299988.9000015-1.5499878,1.3499985-.0100098,0-.019989.0200005-.0299988.0299988h-.0100098c-.0100098,0-.019989.0200005-.0299988.0299988h0c-.0100098,0-.019989.0200005-.0299988.0299988-.0100098,0-.019989.0200005-.0299988.0299988h0s-.019989.0200005-.0299988.0200005c-.3699951.3100014-.7399902.6199989-1.1099854.9300003-.519989.4300003-1.0299988.8600006-1.5499878,1.2999992-.2600098.2200012-.519989.4399986-.7799988.6699982-.2399902.2200012-.480011.4399986-.7200012.6599998-.230011.2200012-.4599915.4399986-.6900024.6599998-.2200012.2099991-.4400024.4300003-.6700134.6399994-.1400146.1300011-.1600037.3199997-.0499878.4300003.1000061.0999985.2799988.0900002.4200134-.0200005l.0298767-.0100021Z"/>
</svg>