<?xml version="1.0" encoding="UTF-8"?>
<svg id="Layer_1" xmlns="http://www.w3.org/2000/svg" version="1.1" viewBox="0 0 710.6906291 396.0734632">
  <!-- Generator: Adobe Illustrator 29.1.0, SVG Export Plug-In . SVG Version: 2.1.0 Build 142)  -->
  <defs>
    <style>
      .st0 {
        fill: #2e3133;
      }
    </style>
  </defs>
  <path class="st0" d="M301.4805943,383.0531524c.0007935.0054932.0023804.0162964.0036011.0248413-.0016479-.0130615-.0033569-.0257568-.0047607-.0352173.0004272.003479.0007324.006897.0011597.010376Z"/>
  <path class="st0" d="M709.4296909,219.6277373c-.586853-.0809326-1.1643066-.1032104-1.7390747-.0318604-1.3190918.0135498-2.6442261.0571899-3.9407349.2619019-.0029907.0004883-.0058594.0013428-.0088501.0018311-7.6525879.8354492-14.9769897,3.4725342-22.2011719,6.1581421-8.7299805,3.2399902-17.2800293,6.9299927-25.6599731,10.9899902-4.1699829,2.0199585-8.1199951,4.3299561-12.0300293,6.8200073-2.0593872,1.309021-4.1095581,2.6347656-6.1646729,3.9529419-6.3978882,3.0240479-12.7070312,6.2186279-18.8102417,9.7895508-3.8140869.7209473-7.7628784.887207-11.3650513,2.4174805-1.8699951.7999878-3.5700073,1.9100342-5.4000244,2.7900391-1.1225586.5421753-2.5881348,1.0913696-3.93573,1.0689697-1.8695679-1.8903198-3.3037109-4.3497925-4.5244141-6.6189575-.5001831-.9343262-1.4343262-1.0297852-2.1727905-.668335-.1948853-.5664673-.3728027-1.1264038-.5371094-1.6616821-.4470825-1.4497681-2.1351929-1.4968262-2.9742432-.706665-.5480957-.7837524-1.0780029-1.5946045-1.4602661-2.4690552-.026001-.0699463-.0897217-.2313843-.095459-.2543335-.0499878-.1400146-.0999756-.289978-.1400146-.4400024-.0300293-.1199951-.0599976-.25-.0900269-.3699951-.0084839-.0339966-.0148926-.0664673-.0205688-.0964966-.0197754-.2127075-.0161743-.4285278-.0137329-.6436768.8355713-.2307739,1.5131226-.9981079,1.3210449-1.8949585-.0255737-.2449341-.0961304-.4837036-.2166748-.7247925-.3218994-.649353-.6542969-1.298645-.9822998-1.947937.4690552-.9848633-.3110962-2.3224487-1.4435425-2.4849854.0002441-.2649536-.0570068-.5429077-.2041016-.8271484l-.0300293.0100708c-4.4533081-8.5916748-9.2279663-17.1564941-15.46875-24.5871582-4.5919189-8.0397339-9.0909424-16.1343384-13.6212769-24.2128906-5.1900024-9.25-10.4099731-18.4799805-15.7800293-27.6199951-2.5999756-4.4299927-5.25-8.8299561-7.6300049-13.3900146-2.3400269-4.4799805-4.5499878-9.0299683-6.8599854-13.5299683-2.5300293-4.9200439-5.1199951-9.8699951-8.5300293-14.25-2.6819458-3.4459229-5.9758301-6.3051758-9.1404419-9.2888794-.6723022-1.5293579-1.3513184-3.0557251-2.0865479-4.5531006,1.7490234-1.0576782,3.4968262-2.1177979,5.2171021-3.2180176,2.9400024-1.8699951,5.3499756-4.4400024,7.4500122-7.2000122,2.2199707-2.9200439,3.8300171-6.2000122,5.7600098-9.3200073,3.9899902-6.4200439,8.5900269-12.4200439,13.0499878-18.5100098,1.4886475-2.032959,2.9215698-4.0986938,4.475647-6.0710449,1.1517334-1.2228394,2.3032837-2.4459229,3.4642944-3.6589355,6.0999756-6.3699951,12.2199707-12.7099609,18.289978-19.1099854,3.039978-3.2099609,6.0700073-6.4299927,9.0800171-9.6699829,3.0300293-3.2700195,5.710022-6.8699951,8.5-10.3499756.5900269-.7400513,1.0599976-1.2300415,1.8400269-1.7600098.8900146-.6000366,1.5499878-1.1900024,2.1900024-2.0499878,1.1858521-1.6143188,2.4313965-3.178833,3.7266235-4.7137451,2.6384277-2.0510254,5.2774658-4.0805054,7.6433105-6.4462891,1.4000244-1.4000244,2.7999878-2.8000488,4.210022-4.2000122.6003418-.6003418.6209717-1.3256226.3295898-1.9110107.737793-1.4932861-1.387085-3.305481-2.8595581-1.9489746-4.1032104,3.7781372-8.0345459,7.6966553-11.649231,11.9120483-1.7658081,1.3829346-3.5319214,2.7651367-5.2807617,4.1679077-5.5100098,4.4100342-10.8200073,9.0900269-15.25,14.6000366-2.289978,2.8499756-4.460022,5.7799683-6.8400269,8.5700073-2.3200073,2.7199707-4.6500244,5.4199829-6.7800293,8.289978-1.1099854,1.5-2.1500244,3.0400391-3.1099854,4.6400146-.8900146,1.4899902-2.1400146,2.7900391-3.3400269,4.0400391-2.2784424,2.3878174-4.6806641,4.6347656-6.7494507,7.206604-3.1984253,3.3537598-6.3865967,6.7171021-9.5504761,10.1033325-9.2759399,9.9302368-18.6500854,19.8724976-28.5477295,29.1893921-.3180542-.3780518-.6355591-.7567749-.97229-1.1193848-1.539978-1.6500244-4,.8299561-2.4699707,2.4699707.3120117.3334961.5998535.6836548.8898926,1.0322876-9.4265747,8.6466675-19.6501465,16.5130005-31.2199097,22.0977783-6.1199951,2.9500122-12.5700073,5.1900024-19.2000122,6.6499634-3.9422607.8684082-7.9213257,1.5570679-11.9234619,2.0352173,1.5521851-.3916016,3.0783691-.9863281,4.3734741-1.9552612,1.5700073-1.1799927,2.9299927-2.7699585,4.2299805-4.2299805,2.460022-2.7800293,4.0900269-5.9299927,3.6900024-9.7399902-.2999878-2.8699951-1.6300049-5.4100342-3.6500244-7.460022-3.9299927-3.9699707-9.4699707-5.8900146-14.5599976-7.8599854-3.9099731-1.5199585-7.9299927-1.8900146-12.0999756-1.7199707-1.3148804.0518799-2.6268311.1282349-3.9375.1947632-3.4769897-.4902954-6.9301758-1.1316528-10.4225464-1.5546875-2.6310425-.3195801-5.262207-.4248047-7.8970337-.4585571-1.8201904-.4164429-3.6415405-.8178101-5.5029297-.9615479-4.1696167-.3308105-8.3314819.322998-12.4859009.6893311-1.1798706-1.322998-2.3684692-2.6385498-3.6043091-3.9093018-3.2399902-3.3299561-6.7099609-6.039978-10.9699707-7.9400024-.1851196-.0821533-.3729248-.1568604-.55896-.2365112-1.7890625-1.2745972-3.6879272-2.3978882-5.7709351-3.1234131-2.8699951-1-5.9400024-1.2900391-8.9400024-.8200073-.8377686.1304932-1.6460571.3357544-2.4318848.5928955-2.1235352.1524658-4.2193604.5821533-6.1782227,1.427063-3.4899902,1.5-6.0200195,4.4799805-6.9200439,8.1799927-.0858154.3510742-.1568604.7052002-.2171631,1.0614014-.7503052.9460449-1.4660645,1.9187622-2.1226807,2.9286499-1.2900391,1.9799805-2.4100342,4.1799927-2.7200317,6.5499878-.2180786,1.697998-.0328369,3.3793335.3944092,5.031311-5.4916382,2.1274414-11.0112915,4.1663208-16.5843506,6.0686646-3.1199951,1.0700073-6.1900024,2.1900024-9.1900024,3.5700073-1.4599609.6699829-2.8099976,1.5299683-4.25,2.2199707-1.3800049.6600342-3.0499878,1-4.539978,1.3500366-3.4400024.8099976-6.9500122,1.1499634-10.4700317,1.3499756-.8027954.046814-1.3144531.5310669-1.541626,1.1231079-2.4365845-.9984741-4.8664551-2.0118408-7.289856-3.0394897-2.6174316-1.2374268-5.2064209-2.5377197-7.7584839-3.9136353-3.4039917-1.8319702-6.7503662-3.7791138-10.0731812-5.7677002-.1776733-.6871338-.3980713-1.3779297-.6668701-2.0722656-.4400024-1.1500244-1.4599609-1.5200195-2.5700073-1.0400391-.3845825.164856-.7825928.2941284-1.1746826.4395142-3.2305908-1.9882812-6.4442139-4.0026855-9.6452637-6.0194702-7.9200439-4.9800415-15.7300415-10.1400146-23.2900391-15.6400146-.7944946-.5782471-1.5830078-1.1646118-2.37146-1.7510986-5.2484131-4.8076782-10.1829834-9.956665-14.7485352-15.4188843-.6099854-.7200317-1.8399658-.6300049-2.4699707,0-.2823486.2822876-.4331665.6110229-.4801636.9500122-.6777954-.6129761-1.352356-1.2295532-2.0220337-1.8515625.0612793-.1761475.1021729-.3574829.1021729-.5384521,0-1.0100098-.7999878-1.6700439-1.75-1.75-.5400391-.0499878-1.0800171-.0900269-1.6199951-.1400146-1.5300293-.1300049-2.2800293,1.9899902-1.2300415,2.9799805,6.9331055,6.6230469,14.3290405,12.7124023,22.0059204,18.4337158,7.3001099,6.6565552,15.1672974,12.6939697,23.4741211,18.0662842,3.1021118,2.0044556,6.2702026,3.9041748,9.4771118,5.7365723.0841064.3812866.2778931.7379761.5637817,1.0019531-.3982544.3479004-.6652222.8758545-.6708984,1.37146-.0094604.9758911.7280273,1.5691528,1.6049194,1.7229004-.0130615.0006104.0720215.0161743.1547241.0360718.0001831-.0012817.0001831-.0020142.0003052-.0033569.0005493.0012207.0010376.0025024.0015259.0037842.0004272.0001221.0007935.0002441.0012207.0003052-.0009766-.0036621-.0012207-.0046387-.0022583-.0084839h0c.0008545.0029297.0014648.0055542.0023193.0084839.003418.0007935.0067749.001709.0101929.0025635-.0032959.0042725-.0037231.0068359-.0059814.0109253.0009155.0023193.0018921.0045166.0028076.006958.0039673-.0042114.0029907.0012207.0102539-.0101318-.0075073.0117798-.0065308.0060425-.0102539.0101929.0371094.0985107.0582275.2069092.02771.1054077.0147705.0505981.0319214.1011353.0425415.1543579.0192871.0875854.0296631.1238403.0369873.1428223.0012817.0147705.0014038.0195312.0030518.0371704.0299683.3699951.0199585.75-.0100098,1.1099854-.1199951,1.3699951-.7000122,3.1700439-1.2200317,4.6199951-1.0299683,2.8800049-2.3800049,5.6300049-3.7099609,8.3800049-1.6233521,3.368103-3.3259888,6.6862183-5.105835,9.9560547-1.8300781,2.1020508-3.637146,4.2227173-5.3442383,6.4240112-3.2200317,4.1499634-5.8200073,8.5700073-8.1900024,13.2600098-.6802979,1.3494263-1.3529663,2.7017212-2.0280151,4.0521851-8.0551147,10.0717163-16.847229,19.5557251-24.0119019,30.3277588-2.7417603,4.1242065-5.1641846,8.4554443-7.8054199,12.6471558-1.0923462,1.1239624-2.1893921,2.243042-3.2946777,3.3529053-8.2399902,8.2900391-16.8099976,16.2399902-25.1399536,24.4299927-.9447632.927124-.4779663,2.1551514.3897095,2.6970215-.1156006.0697632-.2272339.1505127-.3296509.2529297-.2701416.2701416-.4313965.6408081-.482666,1.0254517-.1295166.5776367-.0107422,1.2236938.4526367,1.6045532.5106812.4160767,1.0239868.8291016,1.5351562,1.2446899-1.1208496,2.0387573-2.2936401,4.0517578-3.6851807,5.925293-1.6400146,2.2199707-3.7000122,4.0700073-5.7600098,5.8900146-2.0899658,1.8399658-4.2399902,3.6699829-6.0199585,5.8299561-1.4400024,1.7399902-2.4500122,3.6600342-3.5800171,5.5900269-.4193115.7091064-1.0111084,1.7956543-1.7819214,2.4797974.8369141-.9273682,1.3543091-2.0963135,1.9318848-3.1998291,1.2900391-2.4799805,2.5599976-4.9699707,3.9100342-7.4199829,2.710022-4.9200439,5.7799683-9.6199951,9.9099731-13.4800415,1.6400146-1.539978-.8300171-4-2.4699707-2.4699707-4.1199951,3.8599854-7.3099976,8.5599976-10.0599976,13.4699707-1.3300171,2.3800049-2.5800171,4.8099976-3.8300171,7.2300415-.6099854,1.1799927-1.1600342,2.7600098-2.1000366,3.7000122-.5150757.5100708-1.0951538.9476318-1.6777344,1.3826904-.1832275-.1311035-.3625488-.2589722-.5322266-.3726807-1.3200073-.8699951-2.5899658-1.8200073-3.8999634-2.7000122-2.6799927-1.8099976-5.5500488-3.3300171-8.2300415-5.1500244-2.6999512-1.8399658-5.3099976-3.8099976-7.8499756-5.8599854-4.8900146-3.9500122-9.6699829-7.8499756-14.9899902-11.2099609-5.2600098-3.3200073-10.710022-6.3099976-16.1100464-9.3900146-5.6099854-3.210022-11.0599976-6.6600342-16.4299927-10.2800293-7.7014771-5.18396-15.2594604-10.5877075-22.9343872-15.8144531-1.5986328-1.5623169-3.1835327-3.1435547-4.8656616-4.6055298-4.0700073-3.539978-8.3299561-6.8599854-12.5899658-10.1900024-4.7999878-3.75-9.6799927-7.4799805-14.1099854-11.6799927-4.5400391-4.289978-8.9100342-8.75-13.960022-12.4500122-1.5999756-1.1699829-3.5800171,1.4200439-2.1199951,2.7399902,2.539978,2.2900391,4.4899902,5.0200195,6.4799805,7.7700195,1.7800293,2.4699707,3.6799927,4.8599854,5.75,7.0999756,4.4100342,4.7900391,9.6100464,8.6700439,15.0400391,12.2300415,5.6900024,3.7199707,11.4799805,7.2699585,17.1099854,11.0799561.4592285.3115845.913269.6307373,1.3717041.9434204,1.3238525,1.366272,2.6293945,2.7675171,4.1083374,3.9365845,2.1499634,1.7000122,4.6799927,2.9299927,6.6199951,4.8699951.9599609.9599609,1.8699951,1.9799805,2.8800049,2.8800049,1.0899658.9699707,2.3099976,1.8299561,3.4599609,2.7299805,4.3800049,3.4500122,8.7800293,6.8800049,13.2400513,10.2300415,8.7799683,6.5999756,17.7999878,12.8900146,27.25,18.5,11.1300049,6.6099854,22.3899536,13.0100098,33.9699707,18.7999878.5246582.2659912,1.1083984.2935181,1.6160278.0657349,1.3812866.6567383,2.8514404.989563,4.4139404.4142456,2.0599976-.7600098,3.4199829-2.7099609,4.4799805-4.5199585,1.25-2.1300049,2.3400269-4.1900024,4.0300293-6.0200195,3.8999634-4.2000122,8.6300049-7.3699951,11.9299927-12.1300049,1.03125-1.4864502,1.9429321-3.0467529,2.8187866-4.6288452,5.5097656,4.4490967,11.0753784,8.8273315,16.8512573,12.9188843,3.5700073,2.5200195,7.210022,4.9400024,10.9700317,7.1700439,1.8599854,1.1099854,3.75,2.1699829,5.6699829,3.1699829,1.0300293.5400391,2.0100098,1.1700439,3.1799927,1.2800293,1.1300049.0999756,2.2800293.1199951,3.4100342.0799561,4.8999634-.1799927,9.6300049-1.5199585,14.4699707-2.1400146.9400024-.1199951,1.75-.7199707,1.75-1.75,0-.8499756-.7999878-1.8699951-1.75-1.75-2.1619263.277832-4.3098755.6883545-6.4588013,1.0762329-.340271-.8278198-1.2107544-1.1735229-2.071228-1.0162354-3.5100098.6400146-7-1.5299683-10.0599976-2.9299927-3.3399658-1.5299683-6.8299561-2.789978-9.75-5.0899658-2.9199829-2.3099976-5.4699707-5.0100098-8.6900024-6.9400024-2.9299927-1.7600098-6.1099854-3.0300293-9.2399902-4.3800049-2.1838989-.9385986-4.366394-1.9359131-6.4047852-3.1605225,1.4968872-2.7802124,3.038208-5.5302734,5.0247192-7.9995117,4.1799927-5.2000122,9.3800049-9.4700317,13.7000122-14.5400391,2.2930908-2.6871338,4.2946167-5.5806885,6.1847534-8.5490112,5.3619385-5.5317993,10.5393677-11.2354736,15.3552856-17.2709351,3.3699951-4.2199707,6.5800171-8.5700073,9.5200195-13.1099854,2.7411499-4.2255859,5.0787964-8.6459961,7.3258667-13.1397095,3.036377-3.8232422,5.9575195-7.7407227,8.6140747-11.840332,2.4417114-3.7712402,4.6778564-7.6881104,6.8086548-11.65625.9541626-1.088562,1.9108887-2.1744995,2.8613892-3.2636719,5.4379883-6.2258911,11.5505981-13.8606567,12.0301514-22.2391357,1.0855713.5518188,2.1657715,1.1142578,3.2598267,1.6491089,4.4124146,2.1536255,8.9024658,4.1148682,13.4188843,6.015686,2.0623169.9719238,4.1453247,1.9020996,6.2504272,2.7872925-.4995117.1709595-.9075317.5336914-1.0693359,1.1268921-.0288696.107605-.0438843.2219238-.048584.3390503-.3051758.9910889.2238159,2.3370361,1.588623,2.44104l-.039978-.0100098c3.4890137.2709961,6.980835.4254761,10.4743042.5106201.0828857.0071411.1657715.0144043.2486572.0214844,7.8480225,3.2137451,15.8220825,6.2150269,24.1669922,7.7679443,2.0100098.3699951,2.9200439-2,1.3500366-3.1900024-1.1992798-.9094238-2.5085449-1.4141846-3.869873-1.7408447,1.6746216.2519531,3.3521118.4890137,5.039856.6807861,4.2000122.4800415,8.4200439.8099976,12.6500244,1.0300293,8.4400024.4500122,16.8900146.4699707,25.3399658.5199585,4.1600342.0200195,8.3300171.0599976,12.4899902.1500244,2.0263062.0449829,4.0426636.1376343,6.0576782.2489624,7.8604126,1.3931885,15.7023926,2.8899536,23.4823608,4.6810303,6.3900146,1.4700317,12.7399902,3.1400146,19.0100098,5.0800171,5.1799927,1.5999756,10.0800171,3.4599609,14.7199707,6.2999878,8.8699951,5.4400024,16.1199951,13.0700073,23.1799927,20.6099854,1.7999878,1.9200439,3.5900269,3.8400269,5.4099731,5.7399902.8300171.8699951,1.6699829,1.7399902,2.5200195,2.6000366,1.1099854,1.1300049,1.960022,2.4199829,2.8800049,3.7099609,3.5200195,4.9299927,7.2700195,9.7000122,11.2000122,14.3099976.7539673.8864136,1.5222168,1.7610474,2.2897949,2.6362305.1503296,2.0140991,1.2692871,3.598938,3.0099487,4.6637573.4793701.2905884.9473267.3218994,1.3510132.1880493,1.1585083,1.255127,2.3292847,2.4981689,3.508728,3.7323608.4320679.6138916.8569946,1.229187,1.2705688,1.8396606,2.5100098,3.7000122,4.9299927,7.4199829,7.5499878,11.039978.6264648.8664551,1.2225342,1.7532959,1.8143921,2.6428833.1871948.5161133.3736572,1.0325317.5656128,1.5470581.9799805,2.6099854,2.0599976,5.2300415,3.7000122,7.5100098,1.0636597,1.4765625,2.2896729,2.7994385,3.5587158,4.0863037,1.9331055,3.3812256,3.9100952,6.7332764,5.9620972,10.0485229-.324585.3754883-.4990845.8876343-.3609009,1.505188.5862427,2.621582,2.5530396,4.2657471,4.6612549,5.7322388,1.4068604,2.5690918,2.6719971,5.2123413,3.6288452,7.9777832,1.8099976,5.2200317,2.5200195,10.75,3.8900146,16.0800171.7000122,2.7399902,1.6699829,5.3999634,2.4799805,8.1099854.7999878,2.6900024,1.5,5.3999634,2.1300049,8.1299438.3081665,1.3225098.600647,2.6487427.8852539,3.9770508.3516846,3.1734619.6782837,6.3494873,1.0147095,9.5230103.3499756,3.2600098.7000122,6.5200195,1.0900269,9.7800293.1799927,1.5100098.2999878,3.0599976.6500244,4.539978.3900146,1.6199951.7199707,3.25.9400024,4.9000244.0473633.3468018.0708008.6954346.1082153,1.0430908.0333862,2.131897.0653687,4.2703247-.0682983,6.3867798-.0080566.1268921-.0255127.2633667-.0361328.3934937-2.192688,2.3262329-5.7262573,3.5388184-8.7438354,4.2265625-1.5373535.3475342-3.1376343.524353-4.7302856.5016479-1.0540161-.5123901-2.0974121-1.0458984-3.1296997-1.6017456-2.8099976-1.5200195-5.539978-3.1599731-8.3499756-4.6799927-.1400757-.0756226-.2822876-.1455688-.4224854-.2201538-.7848511-1.3589478-1.3400879-2.8425903-1.7875366-4.3497925-1.2399902-4.1400146-1.7999878-8.4400024-3.3300171-12.5-3.6699829-9.7800293-9.8699951-18.289978-14.7800293-27.4400024-5.2800293-9.8399658-9.9099731-20.0100098-15.3200073-29.7799683-4.6380005-8.3709717-10.1169434-16.1661987-15.7835693-23.8540649-.9787598-3.1868896-2.5932007-6.8631592-5.848999-7.9029541-.4990234-.6762085-1.0007324-1.3469238-1.4981079-2.0263062-.022583-.0393066-.046875-.0772705-.069397-.1166382-.0050659.0029297-.0100708.0058594-.0151367.0087891-.5641479-.7307739-1.5015869-1.0890503-2.3547974-.5888672-.8200073.4800415-1.0999756,1.5700073-.6300049,2.3900146.1010742.1771851.2105713.3488159.3127441.5252686-.0336914.0126343-.0692749.0217896-.1027222.03479-1.0700073.4199829-1.6099854,1.4899902-1.039978,2.5700073,1.4899902,2.8299561,3.1900024,5.539978,4.710022,8.3499756,1.4500122,2.6600342,2.6199951,5.3900146,3.5700073,8.2700195,1.8300171,5.5799561,3.3499756,11.3200073,7.3200073,15.8299561.4522095.5178833,1.2169189.6166992,1.8468018.3861084.7044678,1.3163452,1.4387207,2.6191406,2.2131958,3.9038696,3.5,5.8200073,7.5300293,11.2999878,11.5499878,16.7700195,2.7683105,3.7718506,5.5302734,7.5556641,8.1325073,11.4431763,1.7745361,4.1609497,3.571167,8.3128662,5.4574585,12.4268188,1.9799805,4.3200073,4.1599731,8.5499878,6.0499878,12.9099731.6604004,1.5217896,1.2894287,3.0847778,1.8427734,4.6767578.2041016,3.8405151-.1582031,7.7481689-.5726929,11.5132446-.3900146,3.5700073-1,7.1400146-1.960022,10.5999756-.1903687.6878662-.3998413,1.2987061-.6638184,1.8982544-1.4214478.817749-3.2293701,1.0116577-4.7962036,1.2418213-4.0039062.5794067-7.8217163,1.9325562-11.8331909,2.3860474-2.6547241-.5992432-5.2996826-1.2409058-8.0067139-1.5760498-.3718262-.0459595-.7418213-.0791626-1.1123657-.1075439.0571899-.1776123.1212158-.3504639.1722412-.5324097.5880737-2.0921021-2.5159302-3.0137939-3.2866821-1.1421509-.8022461-.8398438-1.5420532-1.7380981-2.274353-2.6424561-.8508301-5.9797974-3.3325195-11.8806152-5.9389648-17.0753174-4.7299805-9.4199829-10.4000244-18.3300171-16.5100098-26.9000244-6.1799927-8.6699829-12.75-17.0999756-19.5300293-25.3099976-3.4500122-4.1799927-6.9800415-8.289978-10.710022-12.2199707-1.9105835-2.0155029-3.9287109-3.9207153-5.9376221-5.836853-1.4447632-1.8267822-2.9168091-3.6308594-4.4623413-5.37323-1.6099854-1.8200073-3.3099976-3.5599976-5.1099854-5.1900024-1.3900146-1.2600098-3.9299927.4000244-2.7399902,2.1199951,2.7783203,4.0109253,6.2175903,7.4470825,9.736145,10.8151245,3.3604126,4.2424927,6.5737305,8.6153564,10.1638184,12.664917,3.2200317,3.6300049,6.3100586,7.2800293,9.0900269,11.2600098,2.8900146,4.1300049,5.5499878,8.4199829,8.1099854,12.7600098,2.539978,4.289978,4.9899902,8.6300049,7.5100098,12.9299927,2.539978,4.3400269,5.1900024,8.5999756,7.6599731,12.9799805,2.5300293,4.4899902,5,9.0200195,7.7600098,13.3900146,2.2857056,3.6307983,4.8566895,7.0033569,7.5358276,10.3279419.0601196.5562134.1066895,1.1135864.1342773,1.6719971.1082764,2.3035889-.0441284,4.8487549-.7549438,7.1525879-1.0987549.5744629-1.791687.8456421-3.0551147,1.2374268-5.1099854,1.5999756-10.5100098,1.6400146-15.9500122,1.1300049-2.5800171-.2399902-5.039978-.6300049-7.7199707-1.2299805-2.1599731-.4799805-4.3099976-1.0599976-6.3900146-1.8200073-3.2999878-1.210022-6.1500244-3.5100098-8.6799927-5.9000244-2.5027466-2.3775635-4.7810669-4.9852295-6.916626-7.6960449-.1843872-.369873-.3533325-.746582-.543396-1.1138916-2.3699951-4.6199951-4.9699707-9.1699829-7.6300049-13.6199951-2.6199951-4.3800049-5.6300049-8.5-8.6900024-12.5700073-.9378662-1.2495728-1.8731079-2.5003052-2.8053589-3.7529907-.1329956-.2683716-.2510376-.5441895-.3946533-.8071899-2.25-4.1199951-5.7099609-7.4099731-8.1400146-11.4199829-.1334229-.2185059-.3018188-.3780518-.4835205-.5082397-2.2230835-3.3042603-4.4159546-6.6295776-6.5864258-9.9616089-2.7399902-4.2099609-5.4899902-8.4299927-8.25-12.6300049-2.6499634-4.0299683-5.3900146-8.0199585-8.5100098-11.7000122-.112793-.1332397-.2369995-.2573853-.3510742-.3897095-.7417603-.9833374-1.5291748-1.9289551-2.388916-2.8102417-.7399902-.7600098-1.5499878-1.4400024-2.4200439-2.0700073-1.6099854-1.1600342-3.5799561,1.4199829-2.1199951,2.7399902,1.5709839,1.4130249,3.0200195,2.942627,4.4053345,4.5307007,1.2730103,1.7651978,2.3731689,3.6829834,3.4147339,5.4692993,1.0700073,1.8200073,2.0899658,3.6799927,3.1900024,5.4799805,1.2799683,2.1099854,2.6799927,4.1400146,3.9500122,6.2600098,2.8599854,4.7900391,5.3599854,9.789978,7.7199707,14.8400269,2.3699951,5.0599976,4.75,10.1500244,6.9299927,15.289978,2.1500244,5.0499878,3.8699951,10.2700195,5.960022,15.3499756,1.0199585,2.4799805,2.0999756,4.9299927,3.3399658,7.2999878,1.1900024,2.289978,2.4800415,4.5300293,3.6199951,6.8400269.6669312,1.3397217,1.2466431,2.7112427,1.7520752,4.1108398.0306396.7365723.0704956,1.4729614.1378784,2.2089844.1699829,1.8400269.3800049,3.6699829.4799805,5.5200195.0900269,1.6699829.1700439,3.3900146-.2799683,4.9000244-.1000366.3300171-.1500244.4500122-.210022.5800171-.1300049.2700195-.2799683.539978-.4400024.7999878-.3900146.6199951-.7299805,1.039978-1.3099976,1.6300049-1.0899658,1.1099854-2.3099976,2.0100098-3.6300049,2.8200073-2.8200073,1.7199707-5.9699707,2.9799805-9.2199707,3.5999756-1.1400146.2199707-2.210022.2199707-3.5400391.2600098-1.3200073.0300293-2.6300049.1400146-3.9500122.2399902-1.6400146.1199951-3.2699585.2399902-4.9099731.2700195-1.5400391.0300293-3.2900391-.039978-4.5300293-.2600098-1.5499878-.2800293-2.5100098-.5800171-3.7099609-1.4099731-.0201416-.0136719-.0278931-.0180664-.0386963-.0246582-.0169678-.0150146-.0275879-.0247192-.0513306-.0453491-.1599731-.1400146-.3200073-.289978-.4699707-.4400024-.0800171-.0800171-.1500244-.1599731-.2200317-.2399902-.0376587-.0463257-.0432739-.0526733-.060791-.0738525-.0560913-.0754395-.1088867-.1507568-.1591797-.2261963-.166687-.2685547-.3302612-.5394287-.465271-.8318481-.0227051-.0671387-.1247559-.3250732-.1247559-.3181763-.0799561-.2399902-.1499634-.4799805-.2099609-.7299805-.3641357-1.4699097-2.0117188-1.5267334-2.8829346-.7388306-.0291138-.0476074-.0585938-.095459-.0872803-.144043,1.2366943-1.5597534,2.3550415-3.2180176,3.2802734-5.0369873,1.1699829-2.3099976,1.8699951-4.7399902,2.75-7.1599731.8699951-2.4000244,2.1499634-4.6199951,3.2000122-6.9500122,1.1300049-2.5,1.9500122-5.0200195,2.1799927-7.7700195.041748-.512146.0543823-1.0254517.0671997-1.5387573.8017578-3.1724243,1.0289917-6.5148926-.057251-9.5712891-.1063843-.2993164-.2246704-.5975952-.3487549-.8949585-.0001221-.0150146-.0010986-.0299683-.0012207-.0449829-.0026855-.6091919-.2645874-1.0476074-.6389771-1.3269043-1.3829956-2.6590576-3.4790649-5.0481567-6.1446533-6.3618164,2.3146362-4.5001831,4.1098022-9.289917,4.7336426-14.321228.3637085-2.9478149.2958374-6.2315674-.6083984-9.1613159-.4372559-1.9549561-1.3030396-3.8255005-2.541626-5.3687134-3.3699951-4.2000122-9.2399902-5.1300049-14.2900391-5.4199829-.0820923-.0045776-.1641846-.0061035-.2462769-.010376.8220825-1.7483521,1.3840942-3.6195068,1.2462769-5.5796509-.0706787-1.0137329-.2817383-1.9896851-.5870361-2.9338989.4456177-2.0949707.5667725-4.2558594.0371094-6.3360596-1.4800415-5.8099976-7.6000366-8.0800171-12.9400024-8.8200073-2.3644409-.3276978-4.7714844-.4317627-7.1748047-.3440552-3.5448608-.5797119-7.1425171-.5362549-10.715271-.4159546-.3469238.0110474-.6925049.0223389-1.0388794.0341187.416687-1.1123657.7533569-2.2671509.9688721-3.4840088,1.1599731-6.5200195-.5-13.8900146-5.9100342-18.1400146-3.2799683-2.5700073-7.2999878-3.7699585-11.4500122-3.5899658-4.4699707.1900024-8.9299927,1.5-13.0199585,3.2299805-3.0859985,1.3065186-6.1694336,2.6175537-9.2539673,3.925354-2.3521118.3717651-4.7154541.6846924-7.0559692,1.1445312-2.8300171.5599976-5.4899902,1.6799927-7.8800049,3.2800293-1.6135864,1.0853882-3.1053467,2.3294678-4.5652466,3.6115112-4.1669312,1.6408081-8.3483887,3.2388916-12.5648193,4.7485962-2.3599854.8399658-4.8300171,1.5100098-7.1300049,2.5-1.9649048.8448486-3.8212891,1.8887939-5.6726074,2.9504395-.9312744-.0922852-1.8601074-.2279663-2.767334-.3205566-.9400024-.0900269-1.75.8699951-1.75,1.75,0,.3486328.098877.6477051.2598267.8996582-.617981.3056641-1.2415771.5994263-1.8798828.8604126-.8699951.3599854-1.4899902,1.1600342-1.2200317,2.1500244.2300415.8299561,1.2700195,1.5799561,2.1500244,1.2199707l.0500488.0098877c2.1271362-.8694458,4.1256104-1.9747314,6.1162109-3.0966187,2.0183716.0855713,3.9970093-.1066284,5.8638306-1.1734009,1.2399902-.7099609,2.3200073-1.5499878,3.7399902-1.8599854,1.2999878-.289978,2.6699829-.2199707,3.9899902-.289978,1.6499634-.0900269,3.2399902-.3599854,4.7299805-1.0900269,1.2800293-.6199951,2.4299927-1.5899658,3.5400391-2.4699707,1.4785156-1.1711426,2.8713989-2.4438477,4.2764893-3.6969604,6.3380737-2.5143433,12.6279297-5.1502075,18.9008789-7.8059692,2.4812622-.3988037,4.9512329-.874939,7.3425903-1.677063,3.2199707-1.0800171,6.3200073-2.4800415,9.5899658-3.4400024,2.6500244-.7800293,5.9400024-1.6799927,8.4800415-1.1199951,1.0599976.2299805,1.7399902.4899902,2.3699951,1.1699829.1199951.1300049.1300049.1500244.3099976.460022.1599731.2799683.1300049.2099609.2299805.5700073.1799927.6099854.1900024,1.1599731.1700439,1.8299561-.0800171,2.25,3.4099731,2.2399902,3.4899902,0,.0057983-.1671143-.0050049-.3319702-.0078735-.4979858.211792.239624.4195557.4824219.6078491.737915,1.710022,2.3200073,2.6199951,5.1500244,2.7900391,7.9400024.1900024,3.0200195-.2900391,6.0700073-1.5599976,8.8400269-.0024414.0053101-.0054321.0102539-.0078735.015564-.2875366.003418-.5742798.0145264-.8621826.0145264-1.8417358,0-2.173584,2.3427124-1.0001831,3.1882324-.2640991.3789062-.5377197.7512207-.8215332,1.1168823-.2200317-.3863525-.5561523-.6810913-1.0060425-.8012085-2.9436646-4.9401855-6.4536743-9.6800537-11.1821899-13.0039673-1.8418579-1.2937012-4.0261841-2.2003784-6.3123169-2.6829834-.5845947-.3063965-1.1919556-.5655518-1.8276978-.757019-2.1851807-.6593628-4.2974854-.2022705-6.1702881.8557129-.2620239.06604-.5231323.1348877-.7797241.2142944-2.5100098.7700195-4.75,2.2900391-6.0899658,4.5800171-1.1588745,1.9675293-1.6449585,4.2822876-1.7705688,6.5682373-.4298706.9460449-.8370972,1.9014893-1.1994629,2.8717651-.7299805,1.9500122-1.4699707,4.1900024-1.2299805,6.3099976.2999878,2.5700073,1.6900024,4.8099976,3.4799805,6.6300049,2,2.039978,4.460022,3.6099854,6.8699951,5.1099854,1.1799927.7299805,2.3599854,1.4500122,3.5200195,2.2000122,1.0449829.68396,1.8029785,1.2123413,2.6304321,1.9572144-.5354004.3921509-1.0687866.7863159-1.6104736,1.1727295-2.7325439,1.9530029-5.5056152,3.8867188-8.0767822,6.0554199-2.7336426,1.8117676-5.4810181,3.6047974-8.163208,5.5046387-1.0958252.774231-2.1912842,1.5429077-3.2983398,2.2927246-.2948608.1434326-.5853882.2974243-.8816528.4371948-5.9848022,2.8173218-12.3833618,4.8589478-18.918457,5.9990845-.5308838.0217285-1.0617676.0427856-1.5915527.0709839-2.2600098.1199951-4.5100098.2600098-6.7699585.3400269-4.7342529.1697998-9.5183716.1495972-13.9936523-.9265747-2.1687622-1.0259399-4.1514282-2.4829712-5.4263916-4.3834839-.960022-1.4299927-1.460022-2.9099731-2.1000366-4.5-.8599854-2.1300049-1.6699829-4.2800293-2.3900146-6.4699707-.7218018-2.2072754-1.3409424-4.4536133-1.8056641-6.7302856.0350952-.1331787.0641479-.2676392.1057129-.3996582.0142212-.0355225.1325684-.3638306.1616211-.4536133.1281738-.2932129.2961426-.5703735.4484253-.8463745.6300049-1.0800171,1.1199951-1.75,1.8599854-2.5900269,1.2399902-1.4199829,2.3200073-2.7699585,2.6799927-4.6900024.2089233-1.1376343.2785645-2.2871094.2861938-3.4348145.0511475-.0186157.1039429-.0291138.1538086-.0552368.2200317-.0700073.4000244-.1900024.5599976-.3599854.2999878-.2999878.5300293-.7999878.5100098-1.2299805-.0199585-.4500122-.1699829-.9200439-.5100098-1.2300415l-.3499756-.2699585c-.2700195-.1600342-.5700073-.2399902-.8800049-.2399902-.8500366-.1099854-1.710022-.1500244-2.5599976-.0900269-.2399902,0-.460022.0400391-.6700439.1500244-.2199707.0700073-.3999634.1900024-.5599976.3599854-.2999878.2999878-.5299683.7999878-.5100098,1.2299805.0200195.4500122.1700439.9200439.5100098,1.2300415.2298584.2089233.5192261.387146.8249512.4664917-.0004272.5020142-.0084229,1.0043335-.0449219,1.503479-.039978.6699829-.0599976.8999634-.2199707,1.539978-.0599976.2200317-.1199951.4299927-.2000122.6500244-.0009766.0026855-.0006714.0020142-.0015869.0046387-.0401001.0844116-.0761108.1691895-.1184692.2453613-.0899658.1599731-.1900024.3299561-.289978.4799805-.0499878.0700073-.0900269.1300049-.1400146.2000122-.007019.0102539-.0080566.012207-.013916.020813-.0066528.0080566-.0082397.0095825-.0161133.0192261-.6057129.7126465-1.2207642,1.4202271-1.8000488,2.1519165-.0157471-.2207642-.0380249-.4407349-.0499878-.6619873-.0441895-.7600708-.1456299-1.6453247-.0405273-2.4085693.4208984-.7908936.8657837-1.5679932,1.350647-2.3214111.5-.7700195.1799927-1.960022-.6300049-2.3900146-.3082275-.1629639-.6310425-.2299805-.9435425-.2177124-.8476562-.2476196-1.8627319.0543823-2.1765747,1.1477661-.25.8699951-.7000122,1.6699829-.9299927,2.5499878-.0095825.0361938-.0109253.0743408-.0197144.1107178-.6538696,1.3001099-1.2313232,2.6380615-1.7202148,4.0092163-.3099976.8599854.3500366,1.9500122,1.2200317,2.1500244.2198486.0493774.4309692.0563354.6325684.0350342.1326904,1.1750488.3076782,2.3455811.5219116,3.5083618-.446167,2.0266724-.4556274,4.2047729-.364502,6.2166748.1199951,2.6299438.4099731,5.3799438,1.2299805,7.8899536,1.6000366,4.9199829,5.2399902,8.4000244,9.960022,10.3400269,1.1903687.4871216,2.4206543.8681641,3.6738892,1.171875,2.71521,1.2088623,5.6489258,1.8485718,8.6385498,1.8016357.1826782,3.4575195.2762451,6.9278564.9176025,10.3364868.75,3.9500122,2.4799805,7.5599976,5.1199951,10.5999756,2.5899658,2.9699707,5.9400024,5.1799927,9.7299805,6.2700195.7192383.204895,1.4484253.3620605,2.1820068.4945679.6728516.6303711,1.3534546,1.2496338,2.0479736,1.8453369.0529785.0455322.1080322.0898438.161377.1351929.173584,2.5724487.3675537,5.144043.8186646,7.6748657.5499878,3.0800171,1.6499634,6.0200195,3.1400146,8.7700195.8699951,1.6199951,1.9099731,3.1400146,2.8299561,4.7299805.8500366,1.4699707,1.6500244,2.9699707,2.5300293,4.4299927.1456909.2420044.2988892.4796143.4505005.7182007-.5188599-.4547119-1.0371094-.9104004-1.5305176-1.3981323-2.25-2.2299805-4.1799927-4.7299805-5.5900269-7.5800171-1.3200073-2.6699829-2.0700073-5.5900269-2.5299683-8.5200195-.25-1.5700073-.4000244-3.1500244-.5100098-4.7299805-.0700073-.9400024-.75-1.75-1.75-1.75-.8900146,0-1.8200073.7999878-1.75,1.75l.0200195.039978c.5,6.7700195,1.8699951,13.460022,5.9799805,19.0300293,4.6099854,6.25,11.210022,10.9199829,18.5,13.539978,5.8834229,2.119812,12.0985107,2.0412598,18.1478271.9082642.1582031,2.5131836,1.1479492,4.9127808,3.1221924,6.6116943,2.3999634,2.0700073,5.5199585,3.0599976,8.6099854,3.539978.6207275.0984497,1.2434082.1704102,1.866272.2390137.6535034.3772583,1.338562.7097778,2.0537109.9910278,5.5700073,2.2000122,12.1799927,1.3099976,17.75-.3900146,5.7700195-1.7600098,11.460022-4.6799927,15.6700439-9.0700073,3.9278564-4.1005249,8.5352783-7.6395874,12.4267578-11.7756348.4984131.6829224,1.0575562,1.3259277,1.62323,1.9356689.7299805.7800293,1.4899902,1.539978,2.1900024,2.3499756.0899658.0999756.1699829.2000122.25.2999878.0194092.0259399.0584106.0764771.0939331.1221313.1248779.1696777.249939.3392944.3660278.5178833.2900391.4400024.5499878.9000244.7600098,1.3900146.3599854.8400269,1.6700439,1.0900269,2.3900146.6300049.6811523-.4412231.9088745-1.0925293.8026123-1.7814941,1.1657715.3435669,2.4020386.5530396,3.6552124.6660767-1.1295776.9293213-.7913818,3.2026978,1.0322266,3.1054688,9.9699707-.539978,20.3499756-1.25,29.0799561-6.6099854,3.3400269-2.0499878,7.0599976-5.0599976,7.4000244-9.2600098.1799927-2.2000122-.7200317-4.4899902-1.4500122-6.5200195-.8099976-2.2399902-1.4500122-4.5-2.1799927-6.7700195-.1001587-.3112183-.218811-.6134644-.3278809-.9203491-.0372314-1.7131348.0158081-3.4321899-.0221558-5.1397705-.0814819-3.4901123-.5257568-6.8687134-1.2734375-10.2157593,2.8400879,3.569458,5.512085,7.2574463,8.2434082,10.9158325.5335083.7156982,1.0777588,1.4245605,1.6268921,2.1296997.298584.5997314.6102295,1.1933594.8931274,1.800354,1.0100098,2.1599731,1.7300415,4.4899902,2.9000244,6.5800171.9799805,1.7399902,2.3200073,3.2299805,3.7799683,4.5700073,1.7400513,1.5999756,3.5400391,3.1300049,5.4800415,4.4799805,6.960022,4.8499756,15.789978,6.9799805,24.2199707,6.8900146,3.6599731-.039978,7.4000244-.5999756,10.6900024-2.2600098,3.0378418-1.5279541,5.3029785-4.0879517,6.5704346-7.2009888,1.9050903-1.1947632,3.5619507-2.7092285,4.8165283-4.5646362.9016113.4786377,1.8673706.8666382,2.9330444,1.1156006,2.5361938.5958862,5.1693115.6740112,7.7872925.4362793.477478.1047363.9529419.2160034,1.4327393.3137207,4.210022.8599854,8.8599854,1.5900269,12.9299927-.1799927,2.4133911-1.0476685,3.9956665-2.8370361,5.102417-4.9550171.0786743-.0593872.1604614-.1123047.2375488-.1749878,1.4000244-1.1400146,2.2199707-2.8300171,2.9400024-4.4500122.7700195-1.7399902,1.4699707-3.5300293,2-5.3699951.6658325-2.3342285.8944702-4.6952515.8019409-7.0533447.0547485.2530518.1888428.4899292.3963623.6964111.163147.2058716.3792725.3699951.6470337.473999.2371826.1192017.4709473.2451782.7067871.3671265.6307373.9243164,1.3614502,1.7896118,2.2177124,2.5757446,3.0578613,2.8139038,6.9065552,4.2272949,10.9048462,4.5298462,1.1378784.5320435,2.2891846,1.0366211,3.4753418,1.4702148,2.5800171.9500122,5.539978,1.6500244,8.2600098.9099731,2.9400024-.7999878,4.7600098-3.2800293,5.6099854-6.0900269.1610718-.5288086.2876587-1.069458.3936157-1.6158447.2279663-.3048706.3743286-.6856689.4264526-1.0941162.0326538-.270874.0427856-.541687.0690918-.8125,1.0797729-1.600769,1.7758179-3.4537964,2.0306396-5.5075684.4799805-3.8499756-.4500122-7.7999878-1.3499756-11.5200195-.2844238-1.1705322-.5427246-2.3461914-.8161011-3.5187988-.0130615-.2735596-.0154419-.5481567-.0337524-.821167-.1799927-2.5999756-.6699829-5.1500244-1.25-7.6900024-.6300049-2.75-1.3200073-5.5-1.5300293-8.3200073-.2199707-3-.1900024-5.9899902-.6199951-8.9699707-.4500122-3.1099854-1.5200195-6.1500244-2.3900146-9.1600342-.3099976-1.0700684-.6261597-2.1408691-.9389038-3.2129517-.1708984-.9071045-.3475342-1.8151245-.5311279-2.7241821,5.9177246-1.4351196,10.1434937-7.2714233,14.9400635-10.6928101,8.25-5.8900146,17.4799805-10.25,26.4000244-14.9899902,4.5941162-2.4411621,9.1932983-4.8673096,13.8117065-7.2636719.0270386.0418701.0534058.0840454.0803833.1259155-.0966797.1520386-.1801758.3217163-.2321777.52771l-.0098877.000061c-.7199707,2.8299561.3200073,5.3999634,1.9099731,7.7199707.7299805,1.0599976,1.5200195,2.0800171,2.1900024,3.1900024.1599731.2600098.3099976.5300293.460022.7999878.0599976.1199951.1300049.25.1900024.3699951.0149536.0298462.0668335.1461182.1005859.2211304.1238403.2997437.2224121.5994263.3094482.9088745.039978.1600342.0800171.3200073.1199951.4899902.0100098.0700073.0800171.5499878.039978.210022.1099854.9400024.7199707,1.75,1.75,1.75.3722534,0,.7660522-.1558838,1.0893555-.4029541.6523438.8533936,1.395752,1.6379395,2.2805786,2.3029785.9971924.7493896,2.0945435,1.2788086,3.2650146,1.5338745,2.6586914,2.4286499,5.881958,3.8630371,9.5450439,2.5361328,2.1199951-.7700195,3.8599854-2.2700195,5.7000122-3.5300293,2-1.3599854,4.039978-2.6699829,6.0999756-3.9299927.743042-.4547729,1.4934692-.8984375,2.2438965-1.3421631.6931152-.1360474,1.383606-.286377,2.06604-.4778442,2.2299805-.6300049,4.3599854-1.9400024,6.3900146-3.0499878,3.6932983-2.0170288,7.255249-4.2509155,10.7954102-6.5209351,5.333313-2.5161133,10.7194824-4.9228516,16.1046143-7.3190308,4.3200073-1.9200439,8.6400146-3.8500366,12.9299927-5.8400269,2.1400146-1,4.25-2.1499634,6.460022-3,2.1099854-.8099976,4.2700195-1.4799805,6.4500122-2.039978,4.9799805-1.2700195,10.1400146-1.8400269,15.0999756-3.1799927,1.0499878-.2800293,1.9899902-.9000244,2.9899902-1.3200073.5-.210022,1-.3800049,1.5100098-.5700073.8099976-.2999878,1.460022-.7700195,2.1699829-1.2399902l3.460022-2.3099976c.2105103-.1447754.5648193-.4122314.84198-.6087646.664917-.0930786,1.326416-.2142944,1.9780273-.3612671.7512207-.1733398,1.1399536-.7197266,1.2272339-1.3264771.0106201-.0479736.0261841-.0941162.0325928-.1434937.0900269-.7700195-.3800049-1.7999878-1.25-1.9200439ZM81.5498692,235.4877227c-.7208252-.5317383-1.4297485-1.0787354-2.1470337-1.6149292.2503662.152771.4958496.3133545.7470093.4649048,5.4499512,3.289978,11.0499878,6.3099976,16.5299683,9.5299683,5.5900269,3.2800293,11.0599976,6.7900391,16.0300293,10.9700317,1.2311401,1.0340576,2.4716187,2.0580444,3.7247314,3.0662842-2.3451538-1.3438721-4.6836548-2.6992188-7.0147095-4.0662842-9.6199951-5.6400146-18.9000244-11.7299805-27.8699951-18.3499756ZM325.9998203,386.8277495c-3.6500244,2.0900269-7.7000122,3.3900146-11.9100342,3.6300049-2.7099609.1599731-5.4500122.1900024-8.1499634-.0300293-.0890503-.006958-.1820068-.0176392-.2719727-.0253296-.1156616-.0752563-.232666-.1485596-.3478394-.2246094-.0513306-.0348511-.069397-.0463257-.0897827-.0595093-.0009155-.0007935.0008545.0004272-.0002441-.0004883-.1300049-.0999756-.25-.2000122-.3699951-.3099976-.2299805-.2000122-.4400024-.4000244-.6499634-.6199951-.1900024-.2000122-.3800049-.4099731-.5599976-.6199951-.0335693-.0386963-.0568848-.0650635-.0734253-.083374-.0089111-.0134888-.0233154-.0343018-.0465698-.0666504-.1000366-.1400146-.1900024-.2700195-.2900391-.4099731-.3499756-.5300293-.6599731-1.0999756-.9199829-1.6799927-.0800171-.1799927.0199585.039978.0299683.0599976-.0299683-.0700073-.0599976-.1400146-.0799561-.2199707-.0499878-.1500244-.1099854-.289978-.1600342-.4400024-.1099854-.3300171-.2099609-.6699829-.2999878-1.0100098-.0899658-.3599854-.1699829-.7199707-.2299805-1.0800171-.0300293-.1699829-.0599976-.3499756-.0900269-.5200195-.003418-.0228882-.0037842-.026062-.0057983-.0397949.0030518.0235596.0057983.0475464.0057983.0598145-.0023804-.0281982-.0062256-.0564575-.0093994-.0846558-.0036621-.0259399-.0039062-.0291138-.0011597-.010376-.0101929-.0883179-.0220337-.1766357-.0294189-.2649536-.0722656-.758606-.0978394-1.5180664-.088562-2.2839966,2.4042358-.8441772,4.7886963-1.7470703,7.1984253-2.5860596,1.8800049-.6500244,3.7600098-1.3599854,5.5-2.3400269,1.710022-.9699707,3.25-2.25,4.6000366-3.6799927,2.5899658-2.7399902,4.5899658-5.9799805,7.3099976-8.6099854,1.9599609-1.9000244,4.039978-3.6699829,6.0199585-5.5499878,4.6799927-4.4400024,9.1799927-9.0800171,13.3800049-13.9699707.5818481-.6763916,1.1583862-1.3587036,1.7301636-2.0457764.230957,2.3172607.6494751,4.6295776,1.6598511,6.7457275,1.1199951,2.3699951,3.1900024,4.0800171,5.7099609,4.7999878.7734985.2178345,1.5721436.3398438,2.3763428.4088135-.5617676.7657471-1.1395264,1.5230103-1.7363892,2.2711792-1.5999756,2-3.2399902,3.9899902-4.6699829,6.1199951-1.3500366,2.0100098-2.7000122,3.9899902-4.25,5.8599854-3.2200317,3.8800049-6.7700195,7.5200195-10.3400269,11.0700073-2.9799805,2.9699707-6.1900024,5.7399902-9.8499756,7.8400269ZM349.1976963,316.0220245c-.0303955-.1912231-.0057983-.1451416,0,0h0ZM348.5717808,314.446524c.006897.0117188.0093384.0167236.0181274.0313721.0900269.1500244.1799927.2999878.2700195.4500122.0482788.0772095.0744629.1134033.0922241.1350708.0025024.0202026.0089111.0513916.027771.1149292.0599976.2000122.1199951.3900146.1699829.5900269.0192261.0866089.0377197.1730957.0480957.2597046.0004883.0144653.0018921.0241699.0018921.0403442,0,.2199707.0200195.4500122,0,.6699829,0,.0797119-.0414429.3869019-.041748.4263306-.0464478.2479248-.0973511.4957886-.1682129.7437134-.5900269,2.1699829,2.7799683,3.0999756,3.3699951.9299927l-.000061.0197144c.1621094-.5914307.2609863-1.1991577.3023071-1.8081055.5930786.3429565,1.2092285.6323853,1.8634644.8331909-.8787231,1.6558838-1.7628174,3.3083496-2.5858154,4.9849243-2.8800049,5.8599854-8.2799683,9.6400146-12.4799805,14.460022-.3599243.4135132-.6984253.8339233-1.0270996,1.2580566-.1552734-.0462646-.3093262-.0953979-.4628906-.1480713-.0183716-.0065308-.0251465-.0083618-.0379639-.0126343-.0111694-.0060425-.0162354-.0092163-.0320435-.017395-.0656128-.0353394-.133728-.0744629-.2018433-.1110229-.0213623-.0405884-.0470581-.0780029-.0681152-.1188965-.0799561-.1599731-.1599731-.3300171-.2399902-.4899902-.039978-.0999756-.0899658-.1900024-.1300049-.289978-.0216064-.0458984-.0259399-.052002-.0238037-.0440674-.0070801-.0178833-.0144043-.036438-.0261841-.065918-.3399658-.8699951-.6300049-1.75-.8699951-2.6599731-.7127075-2.6833496-1.0732422-5.3393555-1.2018433-8.0801392.1360474-.7420044.3037109-1.4763184.4917603-2.2099609.1900024-.7199707.4100342-1.4299927.6700439-2.1300049.1199951-.3300171.25-.6699829.3800049-.9899902.0799561-.1900024-.0200195.0499878-.0300293.0800171.0400391-.0900269.0800171-.1799927.1199951-.2700195.0800171-.1699829.1600342-.3499756.2399902-.5200195.2800293-.5700073.5900269-1.1300049.9400024-1.6699829.1400146-.2199707.2999878-.4299927.460022-.6400146.1900024-.25.0299683-.039978,0,.0100098.0499878-.0599976.0999756-.1300049.1499634-.1900024.1500244-.1799927.2900391-.3699951.4400024-.5499878,1.2600098-1.5599976,2.6799927-3.1900024,4.25-4.3699951.3516235-.2678833.729248-.5059814,1.1228638-.7142334.0142212.00177.0284424.0022583.0429077.0041504.0344849.0057983.1019897.0166016.1743164.0301514.4199829.0800171.8299561.1699829,1.2399902.289978.1339111.038269.2641602.0871582.3955078.1339722.4777832.418335.9503784.8079834,1.5244141,1.0759277.2322388.1085205.4560547.2368164.6808472.362854.0488281.0508423.0929565.1079102.1411133.1659546ZM322.1038242,311.6060088c.5406494-.031311,1.0722046-.0620117,1.5910645-.0859375-.3198242.2846069-.6467285.5608521-.9720459.8389282-.1340942-.3285522-.3500366-.5792236-.6190186-.7529907ZM332.7603184,294.7136748c-.1001587-.0457764-.2003174-.0930176-.3004761-.1359253-.4000244-.2000122-.7900391-.4199829-1.1600342-.6599731-.2099609-.1300049-.4099731-.2700195-.6099854-.4100342-.0689697-.0536499-.4172363-.3109741-.4827271-.3569336-1.7163696-1.3344116-3.2476196-2.9026489-4.84729-4.3730469-.6002808-.552124-1.2401123-1.1210327-1.9119873-1.6678467.5098267.2125244,1.1364746.5328979,1.7120361.8679199.7900391.4599609,1.5499878.9599609,2.2900391,1.5,2.2989502,1.6668701,4.3903198,3.6281738,6.4754028,5.5887451-.1151733-.0252075-.2302856-.0485229-.345459-.0787964-.2099609-.0599976-.4199829-.1300049-.6300049-.2000122-.0402832-.0151367-.1411743-.055542-.1895142-.0740967ZM310.099857,293.0777495c-.34021.8995361-.6331787,1.84729-.8677979,2.8199463.1395874-.7033081.3096313-1.40271.5377197-2.079895.1755371-.5032959.3547363-.9351196.581604-1.3898926-.0859375.2182007-.1708374.435791-.2515259.6498413ZM329.349857,305.8178008c-1.1878052,1.3604736-2.4298096,2.6608276-3.7186279,3.9072876.0142822-.8828735-.543457-1.7528687-1.6813354-1.7073364-1.7999878.0700073-3.6000366.2399902-5.4100342.1900024-1.4899902-.039978-2.6400146-.210022-3.8200073-1.0100098-.1199951-.0800171-.3499756-.2800293-.5999756-.5499878-.2700195-.289978-.4299927-.5-.6799927-.9299927-.5100098-.8699951-.8500366-1.8200073-1.0800171-2.7999878-.5799561-2.4799805-.1699829-5.0700073.5900269-7.4699707.7099609-2.2399902,1.6599731-4.5800171,3.0899658-6.4700317.3892212-.5160522.9088745-1.0559692,1.3521118-1.4195557.1816406.046875.3610229.100647.5378418.1596069.0643311.0214844.3391724.1331177.3723145.1411743.1951904.0897217.3907471.1868896.5776367.2888184.3699951.2000122.7300415.4200439,1.0700073.6600342.4700317.3200073.7200317.5.9800415.7099609.789978.6400146,1.5499878,1.3300171,2.2999878,2.0200195,3.1900024,2.9699707,6.6599731,6.8799438,11.3299561,7.0899658.0686646.0030518.1286621-.0071411.1931152-.0105591-.3157349.473999-.6231689.9509277-.9530029,1.4204712-.8554688,1.2154541-1.7067871,2.432251-2.5583496,3.6490479-.6330566.7084351-1.2670898,1.4161377-1.8916626,2.1310425ZM345.3998448,338.2878326c-.4418335.5423584-.9016724,1.069458-1.3511963,1.6053467-.1561279-.546936-.5466309-1.0358276-1.1028442-1.246582,3.0913086-3.3672485,6.6915894-6.31073,9.4741211-9.9516602-2.1416016,3.3348389-4.5223999,6.5222168-7.0200806,9.5928955ZM341.6632115,342.6797393c.0067139-.1731567-.0168457-.347168-.0596924-.517395.2008057-.0262451.4013672-.0539551.6016235-.088501-.1779785.2043457-.3629761.4024658-.5419312.605896ZM338.9422032,344.1208404c.1703491.0527954.3383789.1094971.5176392.1469116.2628784.0543213.5281372.0498047.7814941.0016479-.8598022.9520874-1.7304077,1.894165-2.6109619,2.8275146.4022217-1.0083618.8181763-2.0106201,1.3118286-2.9760742ZM308.3972202,374.293753c.4797974-.3106079.9556885-.6248169,1.4226685-.9459839,2.9699707-2.039978,5.789978-4.2999878,8.4400024-6.75.4078979-.37854.8104248-.758728,1.2139282-1.1370239-1.925415,2.473999-3.8894653,5.0435791-6.5739746,6.7070923-1.4059448.8753662-2.9355469,1.5386963-4.5026245,2.1259155ZM356.5306431,350.1337798c.0414429.0049438.1530151.0177002.1592407.0239258-.0557251-.0079956-.1085205-.0159302-.1592407-.0239258ZM362.395145,332.6293243c.0828247,2.9512329.4882202,5.9884644.4544678,8.973999-.2373657.9336548-.5296021,1.8532104-.8497925,2.7443848-.741394,2.079834-1.7116699,4.0158691-2.8313599,5.8642578-.5435181.0241089-1.0880737.0338745-1.6286011.0057373-.3200073-.0200195-.6400146-.0499878-.9599609-.0800171-.0436401-.0041504-.0544434-.0050659-.0605469-.0055542-.0092163-.0014648-.0206299-.0029907-.02948-.0044556-.1799927-.0300293-.3500366-.0599976-.5300293-.0999756-.2699585-.0599976-.539978-.1300049-.7999878-.210022-.1400146-.039978-.2699585-.0900269-.3999634-.1400146-.0284424-.0097656-.0423584-.0139771-.0610352-.0199585-.0075684-.0039062-.0090942-.005127-.0189819-.0100708-.2399902-.1199951-.4799805-.2299805-.7099609-.3699951-.1000366-.0599976-.1900024-.1199951-.2800293-.1799927-.057312-.0393677-.1153564-.0826416-.1618652-.1174927-.3459473-.2962036-.6417847-.635498-.9681396-.9525146-.0118408-.0118408-.0157471-.0144043-.0222778-.0200806-.0023804-.0030518-.0053711-.006897-.0076904-.0099487-.0599976-.0900269-.1300049-.1799927-.1900024-.2700195-.1500244-.2299805-.2900391-.4799805-.4200439-.7299805-.0499878-.0999756-.0999756-.2000122-.1499634-.3099976-.0900269-.1900024-.1500244-.3699951-.0400391-.0599976-.0999756-.2600098-.2000122-.5200195-.289978-.789978-.1900024-.5700073-.3400269-1.1500244-.4700317-1.7299805-.0700073-.3300171-.1300049-.6699829-.1900024-1.0100098-.0299683-.1900024-.0599976-.3699951-.0899658-.5599976l-.0300293-.210022c.0200195.1500244.0300293.2299805,0,.0300293-.0899658-.8099976-.1699829-1.6199951-.2299805-2.4400024-.0424805-.5705566-.315979-1.09021-.7437134-1.4129028,2.8031616-3.5787964,5.4225464-7.3081665,7.7037354-11.2369385.0084229-.0144653.0161743-.0294189.0245361-.0438843,2.1990967,1.0032349,3.9251709,3.2479858,4.9807129,5.4053955ZM338.7099034,271.017752c-.3300171-.1300049-.0200195,0,.0599976.0299683.2399902.1099854.4799805.2200317.7099609.3400269,1.0599976.5499878,2.0400391,1.2299805,2.7900391,2.1699829.4673462.5760498.789978,1.2081909,1.0133667,1.8713379-1.5452881-1.7655029-3.3703613-3.3208008-5.2163086-4.6439209.1203003.0427856.2427979.0784912.362915.1226196.0900269.0299683.1900024.0700073.2800293.1099854ZM276.9398838,268.1377471c-.0734863-.8156738-.1070557-1.6311035-.090332-2.4420166.1775513-.3674316.3544922-.7352905.5403442-1.0980225.5299683-1.0299683,1.0899658-2.0499878,1.7000122-3.0299683.25-.4100342.5100098-.8200073.7799683-1.210022.1300049-.1900024.2600098-.3800049.4000244-.5700073.0599976-.0899658.1300049-.1799927.1900024-.2600098.0195312-.0275269.0296631-.0425415.0358276-.052124.0058594-.0074463.0076294-.0095215.0141602-.0178833.8065796-.9934692,1.7310791-1.9646606,2.8078613-2.6815186,1.7479858-.3699951,3.6428223-.3772583,5.4622192-.064209.8708496.5133667,1.6813965,1.1257935,2.4498901,1.7857666,2.3300171,2,4.4800415,4.1599731,6.9299927,6.0299683,2.0499878,1.5700073,4.4899902,3.2900391,5.1300049,5.9400024.2286987.9405518.986084,1.3016968,1.7307739,1.2351074.2537231.4398804.5044556.8789062.7492676,1.3149414.0050049.0089111.0119629.015686.0170898.0244141-.4616089.4794312-.9274902.9529419-1.3971558,1.4155273-2.4812622,2.4563599-5.1168823,4.765686-7.5914917,7.2424316-.0881958-.6774292-.4813843-1.2686157-1.2284546-1.4723511-.8200073-.2300415-2.0100098.2799683-2.1500244,1.2199707-.0438232.2872314-.0839233.5720825-.1265869.8568726-3.942627,1.0471191-7.9650269.8126221-11.0233765-2.0168457-3.3699951-3.1099854-4.9299927-7.6600342-5.3300171-12.1500244ZM274.4303623,273.4815581c.2650757.9120483.5671997,1.8118896.9370117,2.6832886-.1295166-.2155151-.2756958-.4196777-.3875122-.6470947-.3174438-.6349487-.5227051-1.4281616-.5494995-2.0361938ZM290.0798374,287.5777495c-.4536133-.4192505-.9279785-.8114014-1.413269-1.1893921,1.2097168.0374146,2.4208374-.0636597,3.6175537-.2756958-.6571045.5766602-1.3227539,1.1434937-2.0062866,1.6889648-.0599976-.0758057-.1201782-.1516724-.197998-.223877ZM237.6698643,330.1177886c-1.4100342-3.1199951-1.7600098-6.6099854-1.960022-9.9799805-.0847168-1.4013672-.1494751-2.8041382-.2232666-4.210083,3.692688-.2026367,7.3566895-.4038696,11.0332642-1.0098877.0638428-.0105591.1269531-.0252686.1907959-.0360107.5230713-.0246582,1.0458984-.053833,1.5692139-.0740356,3.3800049-.1300049,6.7600098-.6500244,9.9699707-1.7399902,3.0599976-1.039978,5.9400024-2.5300293,8.6500244-4.2700195.4794312-.3082275.9494019-.6304321,1.4223633-.9481812,1.206604-.5917969,2.4031372-1.2029419,3.5776367-1.8517456.9699707-.539978,1.9299927-1.0900269,2.8699951-1.6599731.4299927-.2600098.8800049-.5100098,1.2799683-.789978.5100098-.3599854.8900146-.8699951,1.3300171-1.3099976.6681519-.677063,1.3699341-1.3197021,2.0834351-1.9486694,2.2147827-1.4462891,4.4210815-2.9090576,6.5565796-4.4714355,1.4259033-1.0469971,2.8615112-2.1141968,4.1981201-3.2703857.0195312-.0132446.0376587-.0253296.0718384-.0496216.1300049-.0899658.25-.1900024.3800049-.2799683.3099976-.2200317.6199951-.4400024.9299927-.6600342,1.6000366-1.1199951,3.2300415-2.2000122,4.8400269-3.2999878,4.0299683-2.7399902,8.039978-5.5700073,11.6699829-8.8399658,2.2647705-2.0413818,4.8205566-4.5297241,6.083374-7.456665.0629272-.0259399.1383057-.0603638.1967163-.0834351,4.0161743-1.6000977,8.1240845-2.369873,12.3450928-2.520813,1.6279297.3201904,3.2185059.8016968,4.744873,1.5308838,2.4299927,1.1600342,4.7199707,2.6900024,6.7399902,4.4700317,1.960144,1.7272949,3.8379517,3.7687378,4.9164429,6.1814575-.7600708,2.8909912-2.0599976,5.609436-3.366394,8.2984619-.6594849,1.3568115-1.3596802,2.6738892-2.0847778,3.9740601-2.6108398-2.4146729-5.1711426-4.8755493-8.0252686-7.0140381-3.039978-2.2700195-6.789978-4.3900146-10.7199707-3.6900024-.8660278.1530151-1.6539917.4450073-2.3771362.8382568-.8062744-.0255737-1.6314697.0835571-2.4729004.3717651-4.5599976,1.5599976-7.5,6.4299927-8.3099976,10.9699707s-.1000366,9.4699707,2.3599854,13.4199829c1.2799683,2.0599976,3.0799561,3.9000244,5.2799683,4.9799805,1.9399414.9586792,3.9996338,1.3233032,6.1015015,1.2387695-1.9035645,1.4268188-3.8848877,2.758728-5.9514771,3.9813232-2.7999878,1.6599731-5.7000122,3-8.25,5.0499878-2.2999878,1.8499756-4.3299561,4.0100098-6.5,6.0100098-2.039978,1.8800049-4.2699585,3.6699829-6.8699951,4.7000122-3.4500122,1.3699951-7.2000122,1.75-10.7299805,2.8300171-1.8729858.5698242-3.6129761,1.3710938-5.3071289,2.2686768-3.7989502.1324463-7.6105957.1494141-11.3528442.4612427-4.1845703.3497925-8.6592407.8969116-12.8912354.3239746-.1964111-.1948242-.3925781-.3898315-.5888062-.5839233-4.2799683-4.2399902-8.5700073-8.6900024-10.5-14.539978-.5100098-1.5599976-.8699951-3.1599731-1.0999756-4.7800293-.1400146-.9299927-1.3200073-1.4500122-2.1500244-1.2199707-1,.2800293-1.3599854,1.210022-1.2199707,2.1500244l-.0300293-.0301514c.9175415,6.2913208,3.9651489,11.6096802,8.092041,16.2915649-2.8237305-1.8829346-5.1056519-4.6382446-6.5020142-7.7214966ZM313.9040562,322.7186797c-1.1592407.8908081-2.3112793,1.791687-3.4541626,2.6990967-2.8735352,2.2722168-5.8016968,4.612793-8.8812256,6.7042847,3.1378784-2.9224854,6.072998-6.0783081,9.9311523-8.0942993.8085938-.4230957,1.6102905-.859375,2.4042358-1.309082ZM262.1662022,346.0448516c-.0554199.0045776-.4273071.0448608-.5163574.0529785-.2800293.0200195-.5499878.0300293-.8300171.0200195-.2699585,0-.5299683-.0200195-.789978-.039978-.0282593,0-.1240845-.0145264-.1575317-.0193481-.1331177-.0235596-.2669067-.0471191-.3924561-.0706787-1.1400146-.25-1.6400146-.4799805-2.6199951-1.0599976-.1273193-.0759277-.2501221-.1606445-.3753052-.2407837-.0750732-.1463013-.1509399-.2922974-.2287598-.4375.7935181-.0111694,1.5861206-.038269,2.3740845-.0817871,3.6164551-.2003784,7.21698-.5892944,10.8305664-.7722778-2.2858887,1.2158203-4.7503662,2.2876587-7.2942505,2.649353ZM257.389835,356.4877227c-.1676025-.4899902-.2999878-.9841309-.434021-1.4780884.62677-.1377563,1.2062988-.5777588,1.3240356-1.2218628l-.0100098.0199585c.288208-1.5754395.2169189-3.0980225-.0929565-4.5723877.0616455.0158081.1209106.0377197.1829834.0523682,2.6499634.6300049,5.3900146.1599731,7.9299927-.7399902,3.5999756-1.2700195,6.7999878-3.2399902,10.0899658-5.1199951.1768188-.1010132.355835-.1941528.5333862-.2924194,2.5386353-.0963745,5.0736694-.2458496,7.5966797-.5775757,4.5799561-.5999756,8.8699951-1.8900146,12.9899902-3.9799805,3.8200073-1.9400024,7.3299561-4.4099731,10.7199707-7.0100098,3.4100342-2.6199951,6.7200317-5.3800049,10.2000122-7.9099731,3.1600342-2.2999878,6.0599976-4.75,8.5-7.8300171,2.461853-3.1132202,4.5524292-6.4979858,6.8419189-9.7310791.2890625-.326416.5772095-.6547241.868042-.9788818,1.9200439-2.1400146,3.8200073-4.289978,5.6199951-6.5200195.6851807-.8499146,1.3589478-1.715332,2.0183716-2.5922241,1.9544678-.1351929,3.9048462-.2999268,5.8616943-.3577271,1.1900024-.039978,2.3800049-.0299683,3.5700073.0700073.2600098.0200195.5200195.0499878.7700195.0800171.0201416.0025024.0255737.0029907.0379639.0043945.027771.0047607.0499268.008606.092041.015625.1099854.0200195.2199707.0300293.3299561.0499878.5400391.0900269,1.0800171.210022,1.6099854.3599854.2600098.0800171.5100098.1599731.7600098.25.0664062.0199585.1327515.0471802.1991577.072998.065918.0294189.2429199.1050415.2608643.1170044.4699707.2299805.9199829.4899902,1.3599854.789978.2699585.1900024.0799561.0499878.0299683,0,.1000366.0800171.210022.1699829.2999878.25.1799927.1599731.3599854.3200073.5200195.5.4799805.5.5.5300293.8599854,1.0999756.4080811.6523438.7172852,1.3735352.9616699,2.1296997.2209473.9917603.3101196,1.9922485.2034912,3.008728-.0088501.0578003-.0291138.2153931-.0351562.2515259-.0300293.1599731-.0499878.3099976-.0900269.4699707-.0499878.2600098-.1099854.5200195-.1699829.7800293-.1700439.6900024-.3800049,1.3800049-.6099854,2.0499878-.7906494,2.3186035-1.8170166,4.536377-2.9203491,6.7199097-1.2783203-.2445068-2.3408203-.9918213-3.3896484-1.7299194-.6883545-.4830322-1.3781128-.9239502-2.0805054-1.3457031-.7985229-.7943115-1.7662964-1.4038696-2.8102417-1.8577881-.4786377-.4124756-.9729004-.8095703-1.6092529-1.0165405-.8206177-.2645264-1.6585083-.1707764-2.4535522.0827637-2.6922607-.168335-5.5064087.4518433-7.6664429,1.8872681-1.6799927,1.1199951-2.9199829,2.6599731-3.5499878,4.5700073-.5599976,1.6900024-.75,3.539978-.8900146,5.3099976-.1434937,1.9038086-.1640625,3.8323364-.0759277,5.7582397-.0853271.5306396-.1625977,1.0616455-.2240601,1.5917358-.3900146,3.3300171-.2299805,6.9899902,1.3400269,10.0200195.5356445,1.0325317,1.2861328,1.9453125,2.1954956,2.6559448.3287964.5568848.6942749,1.0803223,1.1065063,1.5479126-.7175293,1.2954102-1.3469849,2.6490479-1.9020386,4.0861816-.5499878,1.4299927-1.1199951,2.8499756-1.9400024,4.1500244-.9500122,1.5100098-2.2600098,2.7600098-3.6300049,3.8800049-2.6900024,2.210022-5.75,3.9299927-8.5200195,6.039978-2.7199707,2.0800171-5.0799561,4.5800171-7.7299805,6.75-10.1199951,8.2600098-24.0400391,14.8800049-37.25,10.7199707-3.1099854-.9799805-6.0599976-2.4199829-8.2399902-4.9000244-2.0400391-2.3300171-3.3900146-5.2000122-4.9299927-7.8599854-1.6400146-2.8099976-3.4700317-5.4699707-4.5300293-8.5700073ZM295.9898106,386.9977325c-.1099854-.1099854-.210022-.2199707-.3099976-.3400269-.0217285-.024353-.031189-.0340576-.0460815-.0502319-.0137329-.0209961-.0274048-.0418701-.0539551-.0797729-.2099609-.289978-.3999634-.5999756-.5599976-.9199829-.2217407-.4241943-.432251-1.0474854-.5546265-1.8173218-.0084229-.0871582-.0353394-.3164673-.0353394-.3226929-.0200195-.25-.0300293-.5-.0300293-.75,0-.0317383.0031738-.0629272.00354-.0946045.9085693-.2279053,1.8118896-.4725952,2.706543-.7353516.2550049-.0748901.5054932-.1627808.7593994-.2407227.107605,2.6651001.6906128,5.3468018,2.0643921,7.6448975-.8808594-.3005981-1.7226562-.6640625-2.473877-1.1242065-.7399902-.4500122-.8399658-.5200195-1.4699707-1.1699829ZM349.9799229,371.1277373c-2.8800049,3.0499878-6.1500244,5.6900024-9.210022,8.5499878-1.4599609,1.3699951-2.8099976,2.8599854-4.2699585,4.2299805-.4500122.4199829-.9200439.8200073-1.4000244,1.210022-.0599976.0499878-.1199951.0900269-.1799927.1400146-.1199951.0900269-.25.1900024-.3699951.2800293-.2699585.2000122-.5499878.4000244-.8299561.5900269-.9614258.6655884-1.9696655,1.2589111-2.9954224,1.8195801,1.831543-1.2843628,3.5667114-2.7114258,5.215271-4.2096558,3.8300171-3.4899902,7.4400024-7.3200073,10.8699951-11.1900024,1.8599854-2.0999756,3.6500244-4.2800293,5.2399902-6.5900269,1.460022-2.1199951,2.8800049-4.2199707,4.4800415-6.2399902.177124-.2217407.3547363-.4428101.5322876-.6640625-.1778564.5090942-.3543091,1.0195923-.5322266,1.5341187-.8681641,2.4794922-2.0835571,4.7833862-3.5753784,6.9069214-.3496094-.1208496-.7260132-.1479492-1.0446777-.046936-1,.3200073-1.3499756,1.1699829-1.2199707,2.1500244h.0100098c.0281372.2032471.0761719.3994751.1218262.5964966-.2759399.3146973-.5535278.6281738-.8417969.9334717ZM559.5674473,207.6838897c-1.1867676-1.2757568-2.2883301-2.6186523-3.1875-4.1161499-1.2985229-2.1641846-2.1903687-4.5209961-2.9916992-6.9176636,2.060791,3.677002,4.1194458,7.3555298,6.1791992,11.0338135ZM513.0398594,125.477774c2.1410522,2.5002441,3.9018555,5.3028564,5.5231323,8.1768188-.2374878-.3157349-.473938-.631958-.7130737-.9468384-1.9377441-2.5562134-3.7769165-5.1917114-5.4394531-7.9332275.210083.2341309.4246216.4639893.6293945.7032471ZM502.71973,112.8964141c-.600769.6194458-.8104858,1.6208496-.0298462,2.4113159h-.0100098c.6665649.6763916,1.3512573,1.3345947,2.0412598,1.9873657.0427246.0974731.0861206.1952515.1287842.2926636,2.1599731,4.9400024,4.7299805,9.5799561,7.8499756,13.9799805,3.1099854,4.3900146,6.5200195,8.5200195,9.210022,13.2000122,2.7800293,4.8400269,4.8300171,10.0599976,7.5499878,14.9400024,2.6599731,4.7600098,5.8499756,9.210022,8.8200073,13.7700195,2.9000244,4.4599609,5.6799927,9.0100098,7.9500122,13.8299561,1.1099854,2.3699951,2.0700073,4.8099976,2.8900146,7.2999878s1.5800171,5,2.6099854,7.4200439c1.039978,2.4599609,2.4099731,4.6499634,4.1400146,6.6799927,1.710022,2.0100098,3.6599731,3.7999878,5.5599976,5.6199951,1.6710815,1.6040649,3.2247314,3.3012695,4.7108765,5.0506592,4.4833984,7.9378052,9.1550293,15.7683105,14.0170898,23.4804077-15.4849243,6.9248657-30.9544678,14.2498779-44.617981,24.4089355-3.09198,2.2995605-6.0772705,4.7304077-8.9312134,7.3069458-.2131348-.859436-.4390869-1.7148438-.6751709-2.5671387-.1206665-.7543335-.2444458-1.5083618-.383728-2.2598267-.4299927-2.3300171-.9299927-4.8900146-2.1900024-6.9400024-.4116211-.6705933-.9123535-1.241272-1.446167-1.774292-.5726318-1.2059937-1.1781006-2.3963623-1.8237305-3.5656738-1.4799805-2.7000122-3.039978-5.5899658-5.0900269-7.8999634-.8400269-.9500122-1.5200195-2.0200195-2.1500244-3.1099854-.7199707-1.2300415-1.7800293-2.25-2.7800293-3.2600098-.843689-.8520508-1.7173462-1.6846313-2.5754395-2.5316162-1.7824097-3.1696167-3.5523071-6.3478394-5.4547119-9.4484863-.6589355-1.0766602-1.3495483-2.130249-2.0556641-3.1724243-.7967529-2.1939697-1.5986938-4.3861694-2.7042236-6.4274902-1.4400024-2.6599731-3.4500122-4.6900024-5.539978-6.8399658-.9394531-.960022-1.869873-1.9265137-2.7978516-2.8953247-1.039917-1.4405518-2.1311035-2.8426514-3.3123169-4.1748047-.6609497-.7417603-1.3562622-1.4489746-2.0869751-2.1177979.1047363-.0647583.2026367-.1376343.2871704-.222168.7199707-.7200317.5999756-1.7399902,0-2.4700317-8.2299805-9.9400024-16.0700073-20.2199707-24.8300171-29.7199707-8.4624634-9.1814575-17.8924561-17.6853027-28.8308716-23.8112793.1583862-.3643799.204834-.7889404.1408081-1.218689-.2797241-1.9359131-1.039856-3.7610474-2.2173462-5.2967529,6.7163696.3973389,13.5058594.0932617,20.0675049-1.4432373,7.710022-1.8099976,14.4400024-5.8699951,21.2700195-9.7299805,6.960022-3.9299927,14.1099854-7.5,20.9400024-11.6700439,3.3200073-2.0199585,6.5900269-4.1099854,9.8800049-6.1900024.7440186-.4701538,1.4942017-.9316406,2.2454224-1.3917847.0769043.1557007.1487427.3140259.2243652.470459ZM369.9998814,135.6877959c-6.5400391-1.1300049-13.0900269-2.3599854-19.6600342-3.3099976-.7495728-.1085205-1.5018921-.1878052-2.2526855-.2838745-2.600708-4.7386475-6.2229614-8.9113159-8.6273193-13.7761841-2.9099731-5.8599854-4.3099976-12.4299927-4.2199707-18.9599609,0-.4550171.0306396-.9176025.0727539-1.3741455.2571411-.3070679.5124512-.6159058.7772827-.9158936,2.7559814-3.130188,5.9298096-6.2892456,9.9124756-7.725769.8475952-.0390015,1.6884766-.0403442,2.5374146.0057983,2.039978.1000366,3.5.3300171,5.5799561.8099976,1.9500122.4500122,3.8699951,1.0400391,5.7300415,1.7600098.3844604.1495361.6821899.2702026.9758911.3948364.2126465.1536255.4246826.3079834.6342163.4651489,4.4400024,3.3300171,8.2000122,7.5499878,11.7299805,11.8099976,3.8900146,4.7000122,7.5499878,9.5900269,11.710022,14.0599976,3.7999878,4.0900269,8,7.9299927,13.1599731,10.2000122,2.2399902.9899902,4.5599976,1.7399902,6.9100342,2.4000244.432251.121582.8652954.2351074,1.2979126.3476562,2.6939697,2.6230469,5.46698,5.1539307,8.7019043,7.0823364.3363647.2011719.682373.3825073,1.0266113.5674438.2058716.6351318.7330933,1.1669922,1.5835571,1.2125244l-.0100098.0200195c.3184814.0175171.6369629.0231934.9554443.0376587.8807983.4192505,1.7625122.8360596,2.6244507,1.2923584,1.9099731,1.0100098,3.6400146,2.1400146,4.6900024,3.8999634.3383179.5620728.5756836,1.1508179.7559204,1.7669678-5.0554199-2.5148315-10.3781128-4.5169678-15.855896-5.8970337-7.8299561-1.9699707-15.8499756-3.4500122-23.8800049-4.3499756-3.9500122-.4400024-7.9299927-.5700073-11.8900146-.8400269-.4777222-.0336914-.9564209-.0523682-1.4346313-.0790405-1.1782837-.2081909-2.3565063-.4164429-3.5352783-.6208496ZM350.3791538,135.9445098c-.1772461-.0011597-.3543701-.0020752-.5316162-.0032959-.0054321-.0265503-.0115356-.0529175-.0186768-.0792847.1835327.0267944.3668213.0553589.550293.0825806ZM400.0199009,106.1177276c4.3800049.8599854,8.6900024,1.2600098,13.1499634,1.0300293.3290405-.0167236.659668-.0369263.9899902-.0564575,2.1861572.2677612,4.3753662.4920654,6.5800171.7064209,5.25.5100098,10.3800049,2.3500366,13.9799805,6.3200073,1.7999878,1.9800415,3.0700073,4.3900146,4.0900269,6.8500366.4699707,1.1400146.8800049,2.3200073,1.1699829,3.5199585.0599976.2399902.1099854.4700317.1599731.710022.008667.052002.0921631.5606689.0882568.4738159.0620117.4744263.0911865.9642334.0817871,1.446167,0,.2354126-.0200195.4707642-.0470581.7061768-.0012207.0059814-.0015259.0065918-.0029297.013855-.0200195.1199951-.039978.2299805-.0700073.3499756-.0499878.2300415-.1199951.4500122-.1900024.6799927,0,0-.0923462.2338257-.0963745.255249-.0198364.0437622-.0377808.0830688-.0436401.0947876-.1099854.2099609-.2199707.4099731-.3499756.5999756-.0499878.0800171-.1099854.1600342-.1599731.2300415-.0115967.017395-.015564.0239258-.0239868.0369263-.0130005.013855-.02948.0320435-.0560303.0630493-.3261719.364502-.6638794.6992798-1.0437622.9998169-.026123.0106201-.4075928.2817993-.4962769.3302002-.25.1600342-.5.2999878-.7600098.4400024-.5499878.2999878-1.0599976.5200195-1.5300293.7000122-1.0402222.3936157-2.1109009.7003784-3.1931152.9642334-2.5991821.5362549-5.133667,1.1390991-7.1343384,3.0425415-.5109253-.2015381-1.0229492-.3891602-1.522583-.5667725-2.3099976-.8299561-4.4000244-1.4799805-6.4099731-2.9199829-2.4000244-1.710022-4.5400391-3.4299927-7.4500122-4.210022-.543457-.147644-1.0873413-.2927246-1.6309814-.4384155-.7044678-.6869507-1.406311-1.3759766-2.1091309-2.0615845-2.5199585-2.4599609-5.1499634-4.7399902-7.9500122-6.8800049-2.8900146-2.2099609-5.8499756-4.3399658-8.6799927-6.6199951-2.9199829-2.3499756-5.6499634-4.8900146-8.2000122-7.6400146-.0671387-.0726929-.1324463-.1471558-.1994019-.2200317h6.2196045c2.6622925,0,5.3369751-.0524292,8.0053101-.0285645,1.612854.3633423,3.2207031.7597656,4.8347168,1.0785522ZM400.6337315,126.1654571c-1.7584839-.7078247-3.4458008-1.5644531-5.0339355-2.607666-2.5299683-1.6599731-4.7299805-3.7399902-6.8399658-5.8999634-.9684448-.9921875-1.9038086-2.0132446-2.8228149-3.048584,4.6611328,3.8098755,9.7264404,7.1131592,14.2227173,11.1185303.1602173.1428223.3150635.2930908.473999.4376831ZM444.1985508,138.6042998c.8769531-.1644287,1.7509766-.3383179,2.6221924-.5209961-.869812.1955566-1.7437134.3696899-2.6221924.5209961ZM512.889835,101.017813c-2.5900269,2.7000122-5.7700195,4.4000244-8.9299927,6.3400269-.0608521.0374146-.1210938.0761108-.1819458.1135864-.1380615-.2327271-.2683105-.4695435-.4119873-.6993408.7180786.1480713,1.5074463-.0692139,1.8439331-.7943115,1.1046143-2.385498,2.6928711-4.4281006,4.4799805-6.3190308.0172729-.0025024.0327759.0018921.0501099-.0009766l.0099487-.0300293c2.1112061-.3623657,4.1639404-1.131958,6.060791-2.1446533-.8989868,1.2385254-1.8577271,2.4337158-2.9208374,3.534729ZM517.8921543,94.194815c-.3168945-.4963379-.8582153-.8812866-1.4622803-.8270874-.036438.0031128-.072876.0061646-.109314.0092773l.8792725-.8792725c.3980103-.3980103.5420532-.8510742.5095215-1.2818604,1.8287964-1.8946533,3.6533813-3.793335,5.4782104-5.6905518-1.5373535,2.3039551-3.0106812,4.6496582-4.3777466,7.0625-.3094482.538208-.6126099,1.0737305-.9176636,1.6069946ZM500.2542149,108.4232696c.1894531.2974854.3807983.5936279.5610962.8969727-1.8013916,1.1287842-3.6013184,2.2605591-5.3988647,3.3970947.7458496-.6378174,1.487915-1.2799683,2.2234497-1.9295654.8811646-.7779541,1.7463989-1.5726318,2.6143188-2.364502ZM444.2498814,118.8577178c.4199829,1.2299805.5200195,2.1099854.4299927,3.4199829-.071167,1.1108398-.43573,2.1326294-.9810181,3.0999756-.1057129-.8399048-.286499-1.6705322-.5089722-2.4698486-.7800293-2.8099976-2.0300293-5.6500244-3.5900269-8.1099854-.5507202-.8692627-1.1730347-1.6664429-1.8257446-2.430481.7721558.4354248,1.5303345.8894653,2.225769,1.3803711,1.8099976,1.2799683,3.5700073,3.1400146,4.25,5.1099854ZM331.8555332,102.9728911c.0203857.2756958.0412598.5512695.0641479.8248901.2999878,3.5100098.9599609,6.9799805,2.0700073,10.3299561,1.1099854,3.3599854,2.6300049,6.6099854,4.4899902,9.6199951,1.6311646,2.6363525,3.4842529,5.1251221,5.1568604,7.7384644-.168396-.1275024-.3604126-.2241821-.5767212-.2683716l.0100708-.0100708c-1.8800049-.3900146-3.1099854-1.7600098-4.1199951-3.4500122-1.0700073-1.7799683-1.7600098-3.6199951-2.5499878-5.5100098-.9500122-2.2699585-2.1300049-4.4299927-3.210022-6.6400146-.5201416-1.0636597-1.0480957-2.1658936-1.496521-3.2970581.0523071-.2475586.0536499-.5129395-.0234985-.7929077-.0861206-.3145142-.2859497-.6135864-.5482788-.8463135-.2288208-.7608643-.4093628-1.5318604-.501709-2.3137207-.2351074-1.9594116.3288574-3.6976318,1.2356567-5.3848267ZM292.2298618,127.9877837c1.5400391-.2999878,3.0599976-.6799927,4.5499878-1.1500244.7900391-.25,1.6300049-.4799805,2.3800049-.8499756.7900391-.3900146,1.5400391-.8900146,2.3300171-1.2900391,5.8299561-3,12.2000122-4.7799683,18.3499756-7.0100098,2.9610596-1.0759888,5.9122314-2.1998291,8.8535767-3.3418579,1.0463867,2.4661865,2.4061279,4.8432007,3.5063477,7.0819092,1.482605,3.0206909,2.5361328,6.7921143,4.7559814,9.6469116-2.3433838-.1348267-4.6884766-.2419434-7.0358887-.296936-12.6901245-.2931519-25.3713379.3856812-38.0604248.1572266-.2766113-.0888062-.5536499-.1756592-.8295898-.2672119-.9960327-.3305054-1.9870605-.6741943-2.9751587-1.0252686-.6549072-.270874-1.3112183-.538208-1.9667358-.8075562,2.0609131-.1901855,4.1139526-.447937,6.1419067-.847168ZM205.686771,267.707083c-.5975952-.0039062-1.1981812-.0419312-1.7994995-.086792-2.6348877-1.3358765-5.2166138-2.765564-7.7463989-4.2823486,1.6325073.809021,3.3131714,1.5368652,5.0089722,2.3098145,1.5049438.6846924,3.0074463,1.4299316,4.5369263,2.0593262ZM190.2749668,259.6128448c-3.7276611-2.4728394-7.3625488-5.0893555-10.9285278-7.7941284.8924561.4313965,1.7762451.8822632,2.6434326,1.3690186,3.1088867,1.7416992,5.5637207,4.1907959,8.2850952,6.4251099ZM165.3098789,240.4977325c-.1096191-.0957642-.2294922-.1737061-.3532104-.2427979.0999756-.0662231.1983032-.1434326.2931519-.2371216l.000061-.0100708c1.1329956-1.1141357,2.2718506-2.2232666,3.4129028-3.3305054-.911377,1.4539795-1.7455444,2.9572144-2.5653687,4.4680786-.2650757-.2120972-.5316162-.4222412-.7875366-.647583ZM208.429813,190.1677764c-.8008423,1.0383911-1.6141968,2.0668335-2.4378662,3.0869751,1.3438721-1.8363037,2.7131348-3.6552734,4.1378784-5.4370117.2797241-.3508301.5675049-.6953735.8492432-1.0446777-.8370972,1.1416016-1.6860962,2.2741699-2.5492554,3.3947144ZM248.740604,130.5381988c.3997803-.8912354.7878418-1.7874756,1.1592407-2.6904907,1.2099609-2.9400024,2.9299927-6.8900146,2.0100098-10.1199951-.0714722-.2509155-.1678467-.4777222-.2755737-.6929321.4035645.2172852.8040161.4402466,1.2089844.6550903.2369995,4.5534668-1.5646362,8.8872681-4.1026611,12.8483276ZM305.174625,136.1165679c.9619751.1618042,1.9240723.3216553,2.8855591.480835-.9681396-.1224976-1.9356079-.260498-2.8855591-.480835ZM315.7417637,134.2511504c1.27948-.0168457,2.55896-.0337524,3.8380737-.043396,6.710022-.0499878,13.4400024.0299683,20.1400146.5100098,2.0532837.1491089,4.0931396.3620605,6.12677.6112061.0910645.1901855.1771851.3823853.2618408.5755005-2.9962158-.0306396-5.9924316-.0722046-8.9886475-.1567993-7.1355591-.2000732-14.2841797-.6223755-21.3780518-1.496521ZM459.7598911,256.5876983c-.44104-1.225647-.8702393-2.4639893-1.2816772-3.7089233,1.0218506,1.3978882,2.0401611,2.7979736,3.041626,4.2088623,2.7999878,3.9400024,5.4799805,7.9700317,7.8200073,12.210022,2.5300293,4.5899658,4.5499878,9.4599609,6.6300049,14.2600098.3796997.8803101.7506714,1.7647095,1.1270752,2.6465454-6.7816772-9.2809448-13.4225464-18.7088013-17.3370361-29.6165161ZM456.849918,345.4977325c-2.8599854-4.1599731-5.3699951-8.539978-7.8400269-12.9400024-4.8200073-8.5700073-9.9000244-16.9799805-14.8300171-25.4899902-.3617554-.6246338-.7269287-1.2478027-1.0908813-1.871521,5.6451416,7.5970459,11.0095215,15.4022827,15.7409058,23.6015015,2.5,4.3400269,4.9500122,8.7800293,6.9000244,13.3900146.5151367,1.2182007.9919434,2.4644775,1.4243164,3.7285156-.0993652-.1415405-.2057495-.276062-.3043213-.4185181ZM382.679813,313.7276519c-.0493164-.1844482-.0834961-.3704224-.1290894-.5552368,1.3304443,1.8842773,2.6774902,3.756897,4.0591431,5.6053467.1595459.2137451.3204956.4263306.4804077.6397705.4268799.8843994.8043213,1.7925415,1.1395264,2.7301025.1034546.2871704.2081909.5726929.3120728.859314-.5799561.1917114-1.1002808.6658325-1.2919922,1.2208252-.0673218.1986084-.1375732.3972778-.2053223.5958862-1.6929321-3.6072998-3.3356323-7.2347412-4.3647461-11.0960083ZM377.4681431,305.7772735c.2652588.3955688.5327759.7896118.7992554,1.1843872.0009155.1899414.0006104.380188.0056152.5689697-.0476685-.1043091-.09552-.2085571-.1431274-.3128662-.218689-.4811401-.4418335-.9599609-.6617432-1.4404907ZM398.3198887,367.8478301c-.3191528.8409424-.9597168,1.6773682-1.699707,2.4343872.9498291-1.234436,1.645752-2.602417,1.9365234-4.142334.0269165.5857544-.0317383,1.1588135-.2368164,1.7079468ZM392.3832432,340.8586333c.293335-.3702393.4449463-.8627319.3165894-1.4509888-.8585205-3.9325562-2.4093628-7.6035156-4.0841064-11.2286377.2391357-.0432739.460144-.1393433.6578979-.2753296.6185303.77771,1.2365112,1.5557251,1.8587036,2.3306885,1.4221191,4.1079102,2.7548218,8.3109131,3.2074585,12.6432495.0684204.6479492.1139526,1.2962036.1503906,1.944519-.7033691-1.3196411-1.4176636-2.6348877-2.1069336-3.963501ZM447.6799351,370.9677032c-3.289978.4799805-6.8800049.2800293-10.1599731-.1900024-4.25-.6199951-8.460022-1.7199707-12.2800293-3.7199707-2.597229-1.3617554-5.0900879-3.0986938-7.3276367-5.0785522,1.4770508,1.1117554,3.0394287,2.1002808,4.7075195,2.8585205,4.789978,2.1799927,10.2399902,3.1599731,15.4400024,3.7600098,5.6799927.6599731,11.6400146.6799927,17.210022-.8099976.0488281-.0130615.0965576-.0291748.1453247-.0425415-2.1139526,1.883667-4.8909912,2.8048096-7.7352295,3.2225342ZM463.1998936,358.7377227c-.2887573.4526978-.4276733.6397095-.6210938.8701172.0499878-.4662476.0888062-.9329224.1121216-1.4008179.1755371.166626.3534546.329834.5341187.4889526-.0095825.0149536-.0154419.0266113-.0251465.041748ZM502.03046,338.1840118c.1220703.3026123.2414551.6064453.3757324.902771-.074585.1596069-.1310425.328064-.1585693.5039062-.0345459.1253052-.0571289.2518311-.0627441.3792725-.0321045-.5958252-.0838013-1.1911621-.1544189-1.7859497ZM530.0172154,346.5950225c-.1572876.1959839-.3261108.3804932-.5073242.5526123-.0807495.0717773-.161377.1434326-.2421265.21521-.0493164.0360718-.0985718.0739136-.1478882.1047363-.2144165.1364746-.4293823.2529907-.6530762.3606567-.0124512.0031738-.0185547.0040283-.0369263.0093384-.1500244.0499878-.2999878.0999756-.4500122.1500244-.2299805.0700073-.4699707.1099854-.710022.1599731-.0039062.0007935-.0039673.0010376-.0075684.00177-.0223999-.0008545-.0438843-.00177-.0824585-.00177-.1500244,0-.2999878.0200195-.4400024.0300293-.2800293,0-.5700073,0-.8499756-.0100098-.1599731,0-.3099976-.0200195-.4699707-.039978-.0292358,0-.0549927-.0042725-.0834961-.0083618,1.753479-.5006104,3.4434814-1.1936035,5.0228271-2.048645-.0543213.0923462-.1077881.1846924-.1693115.2770386-.0391846.0587158-.1233521.1767578-.1726685.2473755ZM586.1481358,250.4976104c-.0056763-.0373535-.0059814-.0432129,0,0h0ZM604.1397129,266.5777495c-.6262207.1099854-1.2637329.0585327-1.8964233-.1107788.6958618-.2568359,1.3820801-.5480957,2.0565186-.8892212,1.5300293-.7800293,2.9799805-1.7300415,4.5700073-2.4100342.7088623-.3048096,1.4536743-.5284424,2.2086792-.7247925-.3790283.2526245-.7619019.498291-1.1387939.7548218-1.7800293,1.2200317-3.5999756,2.9899902-5.7999878,3.3800049ZM697.6997105,225.0777495c-.8099976.3500366-1.6099854.8699951-2.4799805,1.0400391-1.1599731.2299805-2.3099976.5-3.4699707.7399902-1.727478.3439331-3.454895.6752319-5.182373,1.0206909,2.2089844-.7855225,4.4279175-1.5421753,6.6624756-2.2407227,2.3898926-.7468262,4.8071289-1.3578491,7.2512817-1.8008423-.8814697.5133057-1.8294067.831604-2.7814331,1.2408447Z"/>
  <path class="st0" d="M248.5159336,118.5613921c0-.0001221.0001221-.0007935.0001221-.0009155-.000061.0006104-.0001221.0003662-.0001221.0009155Z"/>
  <path class="st0" d="M248.5296055,118.5479644v-.000061l-.0010986.0010986c-.0007935-.0025024-.0012817-.0048828-.0020752-.0074463.0001221-.0001831.0002441-.0003662.0003662-.0006104-.0005493-.0014038-.0011597-.0027466-.0016479-.0040894-.0009766-.0032349-.0015869-.0062256-.0025635-.0093994,0-.000061-.000061.000061-.000061,0,.0010376.0038452.0014648.005188.0024414.0089111-.0012207-.0031128-.0023804-.0061646-.0036621-.0092163-.0006104-.0001221-.0012207-.0003052-.0018311-.0004272-.0016479.0133057-.0037842.0280151-.003418.0337524.0004883-.0037842.0065918-.0119019.010376-.0188599.0007935.0030518.0012817.0045776.0020142.0074463-.0044556.0042114-.0122681.0152588-.0125122.0123291.0004272.0043335.0084229-.0081177.0125122-.0122681.012207.0457153.0221558.0819092.0288696.104248-.0100098-.0341797-.0180664-.0690918-.0288086-.1043701.0003662-.0003662.0007324-.0006104.0010986-.0010376Z"/>
  <path class="st0" d="M103.5098301,230.0577911c1.1000366,1.4899902,2.7300415,2.3699951,4.460022,2.9500122,1.9000244.6400146,4.0300293,1.0499878,6.039978.7999878,3.6700439-.4500122,6.7000122-2.75,8.6100464-5.8499756,1.9099731-3.1000366,2.6599731-6.8599854,2.1099854-10.4500122-.2600098-1.6900024-.8900146-3.3900146-1.8800049-4.7900391-.9799805-1.3999634-2.2999878-2.289978-3.8599854-2.9400024-3.2700195-1.3499756-7.0300293-1.539978-10.4900513-1.0499878-1.5599976.2200317-3.1399536.6500244-4.5099487,1.4400024-1.5.8699951-2.3699951,2.1300049-2.9100342,3.7600098-1.1187134,3.3851318-.2594604,6.5370483,1.6188354,9.2095947-.522522,2.3519287-.6860352,4.8933105.8111572,6.9204102ZM110.1498448,230.0078033c-.6900024-.1700439-1.5999756-.4500122-2.0800171-.6900024-.3200073-.1600342-.6300049-.3400269-.9299927-.5300293-.017334-.0115356-.1630249-.1251221-.2283325-.1737061-.1244507-.1122437-.2449341-.2280273-.3716431-.3462524-.0338135-.0289917-.0615234-.0665283-.0917969-.1015015-.0050659-.0181274-.1895752-.2612305-.2182007-.3184814-.0394897-.067627-.0722046-.1324463-.1071167-.1973267.0065308-.0016479-.1213379-.2808228-.1428833-.3527222-.0353394-.1060791-.1047363-.5057373-.1251831-.5750732-.0064087-.0759888-.0048218-.1519775-.0095215-.2279053,2.0388184,1.6967773,4.4292603,3.0308228,6.725647,3.8867798-.7776489-.0285034-1.5734863-.1619263-2.4209595-.3737793ZM116.5798374,212.5978301c.2900391.0799561.5700073.1699829.8500366.2799683.1282959.0480957.2592163.0991211.3849487.1524048.0474243.0254517.2714844.1308594.2850342.1376343.2800293.1499634.5599976.289978.8300171.4699707.0800171.0499878.1699829.1099854.25.1700439.0700073.0599976.1499634.1199951.210022.1900024.0999756.0999756.1999512.2000122.289978.2999878.024292.0250244.0349731.0341797.0499268.0482178.0135498.0209351.0206909.0330811.0400391.0617676.1900024.2799683.3800049.5700073.5500488.8699951.3800049.6699829.539978,1.0700073.7599487,1.8999634.6900024,2.5400391.3000488,5.5100098-.8499756,7.8699951-.6174316,1.2600708-1.4077759,2.3824463-2.3605957,3.272583-.2983398-.2142334-.6651611-.3521729-1.0594482-.4025269.3600464.039978-.2299805-.0400391-.2399902-.0400391-.1799927-.0299683-.3599854-.0700073-.539978-.1099854-.3800049-.0799561-.75-.1799927-1.1199951-.289978-.710022-.210022-1.5100098-.5-2.1000366-.7600098-1.5299683-.6799927-3.0299683-1.5499878-4.3299561-2.5900269-.7026978-.5610352-1.3612061-1.1791382-1.953186-1.8410645.0147095-.0529175.0285034-.1060181.0432129-.1589355.8300171-2.9500122,1.7700195-5.9500122,1.1599731-9.0400391-.0429077-.2218628-.1414795-.4190674-.274231-.590332.1774902-.0499878.3526001-.1068726.5342407-.1495972,2.6799927-.6300049,5.8499756-.5400391,8.5899658.25ZM104.4398228,214.9151519c.007019.2908936.0079346.5791016,0,.8726196,0,.1600342-.0299683.3200073-.039978.4800415,0,.0397339-.008728.0795288-.0148926.1193237.0047607-.0361328.0046387-.0429077-.0150757.0606689-.0596313.3775024-.1292725.7451782-.2086182,1.1225586-.0368042-.3069458-.0602417-.6164551-.0513916-.9325562.0172729-.5704346.135376-1.121521.3299561-1.7226562ZM104.3698765,216.5078033c0-.0147705.0096436-.0797119.0147095-.1175537-.0061646.0391846-.0098267.0783691-.0147095.1175537Z"/>
  <path class="st0" d="M69.7598301,205.3577178c2.1000366,1.0800171,4.3800049,1.8300171,6.7300415,2.1600342,2.289978.3200073,4.6799927.2699585,6.789978-.7800293,1.8599854-.9199829,2.9500122-2.7099609,3.2700195-4.7199707.5831909-3.5498657-.1502075-7.6065063-1.6442871-11.0015869.6090088-.1281738,1.12677-.5178223,1.31427-1.1984253.2299805-.8400269-.2800293-1.9899902-1.2200317-2.1500244-.8830566-.1466064-1.7537231-.3372192-2.6210327-.5404053-1.2137451-1.1508789-2.7351685-1.9443359-4.4389648-2.2195435-2.9400024-.4800415-5.9099731.0199585-8.8599854.0199585-.3691406.0115356-.6719971.1202393-.9202881.2834473-.7789307-.1484985-1.6092529-.1738892-2.4996948-.0334473-.5599976.0900269-1.1000366.6799927-1.2200317,1.2200317-.5599976,2.4299927-.8899536,4.9400024-.8899536,7.4299927,0,2.5199585.3099976,5.2000122,1.5499878,7.4400024,1.0200195,1.8399658,2.8099976,3.1499634,4.6599731,4.0899658ZM82.9898106,201.9677032c-.1399536.5-.0700073.3400269-.2799683.7200317-.0275879.0413818-.1314697.2089233-.1665649.2706299-.0376587.0316162-.2476807.2553101-.3134766.3293457-.0266724.0247803-.0356445.0343018-.0447388.0439453-.0718994.0505981-.1460571.0999146-.21521.1460571-.1500244.0899658-.3000488.1799927-.4500122.25-.1500244.0799561-.539978.2099609-.9500122.3099976q-.5.1199951-.9799805.1499634c-.5200195.0400391-1.039978.0400391-1.5599976,0-1.75-.0999756-3.6900024-.6099854-5.3400269-1.289978-.8599854-.3599854-1.6999512-.7999878-2.4799805-1.3099976-.6799927-.4400024-1.0700073-.7300415-1.6499634-1.4100342,0,0-.0900269-.1199951-.2200317-.3200073-.1499634-.2299805-.2799683-.4799805-.3999634-.7199707-.1799927-.3800049-.3300171-.8699951-.4500122-1.3400269-.2999878-1.1400146-.4000244-2.2999878-.4299927-3.4699707-.0410156-1.9375.1503296-3.866272.5098267-5.7625732.8480835.1760254,1.4972534.7891846,2.0301514,1.6625366,1.1488037,1.8754883,4.0716553.2215576,3.0697632-1.6566162,1.3452759.1488037,2.6790771.3914185,4.0202026.7266846,1.2996216.3222656,2.5886841.6699829,3.883667.9905396.3026733.4217529.6481323,1.0671997.8863525,1.5894775.2600098.5599976.6099854,1.5100098.8599854,2.3299561.5499878,1.8300171.9100342,3.5599976.9299927,5.4200439.0100098.9799805-.0200195,1.5100098-.2600098,2.3399658Z"/>
</svg>