<?xml version="1.0" encoding="UTF-8"?>
<svg id="Layer_1" xmlns="http://www.w3.org/2000/svg" version="1.1" viewBox="0 0 660.447937 459.6169434">
  <!-- Generator: Adobe Illustrator 29.1.0, SVG Export Plug-In . SVG Version: 2.1.0 Build 142)  -->
  <defs>
    <style>
      .st0 {
        fill: #2e3133;
      }
    </style>
  </defs>
  <path class="st0" d="M138.3544006,8.6772518c-2.6400146.8300018-5.2299957,1.8899994-7.6999969,3.1399994-1.3500061.6900024-2.4299927,1.9100037-3.6399994,2.8899994,1.2200012.8999939,2.4100037,1.8500061,3.6900024,2.6600037.5200043.3300018,1.2299957.3399963,2.6100006.6699982-1-1.25-1.6000061-2-2.2200012-2.7700043,3.3499908-1.8000031,6.5200043-3.5099945,9.6899872-5.2100067,2.8999939,4.2299957,6.519989,6.3000031,12.019989,6.2899933,3.4400024,0,6.9400024,2.4199982,10.3099976,3.9799957,1.8699951.8699951,3.519989,2.1999969,5.7999878,3.6600037-4.5700073-9.9700012-9.1900024-12.6199951-18.8900146-12.1999969-3.0899963.1300049-6.2399902-1-9.3699951-1.5599976-.7799988-.5500031-1.75-1.7299957-2.2999878-1.5500031l.0000305.0000153ZM38.024395,83.5872574c-.1699982.5400085-.3399963,1.0700073-.5099945,1.6099854,12.8399963,8.769989,27.220005,12.5,42.7099953,12.5899963-.7799988,11.4700012-1.5899963,22.9700012-2.4100037,34.4699936h-1.4799957c-2.8200073-7.3200073-5.6399994-14.6499939-8.7599945-22.7399902-1.8399963,9.6000061,9.8200073,47.9700012,19.8399963,64.4899902-1.5700073-6.269989-2.9199982-12.6000061-4.7700043-18.7900085-2.6799927-8.9700012-3.5899963-17.9200134-.6199951-26.9400024,3.4199982-10.4200134,2.7599945-20.5299988-1.8600006-30.4400024-14.0500031-4.75-28.1000061-9.4899902-42.1499939-14.2399902,0,0,.0099945-.0099792.0099907-.0099716ZM609.7844238,348.7772217c-105.1099854-37.25-219.3800049-76.6900024-324.5100098-113.8999939-18.9299927-6.7000122-37.730011-13.7999878-55.8200073-20.4299927-.0700073-8.3900146-.4500122-16.5100098-.0899963-24.6000061.230011-5.2200012-1.5799866-9.0100098-5.4299927-12.1600037-.769989-.6300049-1.5-1.3200073-2.2900085-1.9200134-5.4200134-4.1000061-11.5499878-7.7099915-10.5599976-16.2099915-2.9100037,10.25-1.7000122,34.4700012,2.6400146,43.5499878-.0799866-9.6400146-.1600037-19.269989-.230011-28.9400024,5.0599976,3.1000061,10.1799927,11.9700012,10.7200012,17.5599976.7000122,7.230011,1.8099976,14.4200134,2.7999878,22.0799866-5.6400146-1.3500061-11.3299866-2.7200012-17.0299988-4.0799866-.1099854.2799988-.2099915.5499878-.3200073.8299866,1.4599915.9200134,2.9200134,1.8399963,4,2.519989-2.2399902,4.5400085-4.3900146,8.8900146-6.5400085,13.2399902.5100098.269989,1.019989.5400085,1.5299988.8099976,2.3299866-4.2099915,4.6499939-8.4200134,6.980011-12.6400146,15.5,5.6199951,31.0100098,11.25,46.0599976,16.7000122-2.5799866,4.2099915-5.2200012,8.519989-7.8599854,12.8399963.5400085.3399963,1.0799866.6799927,1.6199951,1.019989,2.25-3.5,4.3200073-7.1400146,6.8299866-10.4400024.8299866-1.1000061,3.0799866-2.2099915,4.1900024-1.8299866,15.5599976,5.2200012,40.1199951,13.0700073,55.2799988,18.3599854-3.2799988,5.9500122-6.3900146,11.6099854-9.5100098,17.2600098.6099854.3500061,1.2200012.7000122,1.8200073,1.0499878,3.4100037-5.5400085,6.8099976-11.0899963,10.6000061-17.25,7.7099915,2.6799927,15.9200134,5.5400085,24.3600159,8.4700012-3.4100037,4.1400146-6.5599976,7.9700012-9.7099915,11.7999878.5100098.4299927,1.019989.8699951,1.5299988,1.2999878,3.4100037-3.8299866,6.8200073-7.6499939,10.8299866-12.1400146,17.8200073,6.25,36.3999939,12.7600098,55.2099915,19.3600159-3.25,5.5100098-6.3499756,10.7600098-9.460022,16.0100098.6199951.3800049,1.2399902.7600098,1.8599854,1.1499939,3.3800049-5.25,6.7600098-10.5,10.4000244-16.1499939,9.5999756,3.3999939,19.7399902,6.980011,29.4000244,10.3999939-3.7000122,5.8399963-7.2600098,11.4599915-10.8099976,17.0799866.6099854.4099731,1.2299805.8300171,1.8400269,1.2399902,3.9699707-5.5100098,7.9400024-11.0299988,12.3300171-17.1199951,9.0599976,3.2200012,18.7000122,6.6300049,28.5800171,10.1400146-2.8300171,5.6500244-5.5200195,11.0200195-8.210022,16.3900146.6199951.3200073,1.2299805.6400146,1.8499756.9500122,2.8599854-5.25,5.7199707-10.4899902,8.9699707-16.460022,33.8599854,12.1599731,68.6099854,24.6300049,102.8400269,36.9199829-3.0300293,6.5599976-5.9000244,12.7800293-8.6400146,18.7199707,4.3800049-.3800049,8.0800171-.710022,11.7700195-1.0300293,4.9099731-.4199829,6.7800293,3.5200195,9.0200195,6.6400146.4699707.6599731-.1799927,2.9699707-.9899902,3.539978-3.0200195,2.0999756-10.6799927.4000244-14.1400146-3.3400269,2.6900024-1.1500244,5.1099854-2.1900024,7.539978-3.2199707-.0800171-.4099731-.1500244-.8200073-.2299805-1.2299805-3.460022.7800293-7.2299805.9799805-10.210022,2.6400146-1.1699829.6500244-.539978,4.539978-.7399902,7.039978-.6099854-.3300171-1.8300171-.9799805-3.5700073-1.9199829.3900146,1.0700073.4500122,1.8800049.8800049,2.3499756,8.0700073,8.8400269,17.2199707,16.039978,28.9400024,19.5700073,9.1099854,2.7399902,17.8499756,6.1699829,24.6099854,13.4899902,6.7299805,7.289978,7.7399902,11.7800293,3.5900269,20.6500244-1.2399902,2.6500244-2.4500122,5.3300171-3.0100098,8.4400024,1.3099976-1.039978,2.6300049-2.0800171,4.1699829-3.3099976-.4500122,3.8699951-.8599854,7.3800049-1.2600098,10.8800049.6599731.2700195,1.3200073.5499878,1.9899902.8200073.6900024-1.3699951,1.5700073-2.6699829,2.039978-4.1099854,2.4099731-7.4099731,3.9400024-15.210022,9.7700195-22.1400146.8099976,2.3400269,1.289978,3.7199707,1.7700195,5.1099854.3699951-.0499878.75-.0900269,1.1199951-.1400146-.210022-2.1500244.3499756-5.2199707-.8400269-6.210022-1.5-1.2600098-4.4199829-.8300171-7.2800293-1.210022-3.4000244-13.0300293-14.5200195-19.5-26.1500244-25.460022,4.2800293.289978,8.6599731,1.289978,12.8099976.7000122,6.7199707-.9500122,8.8400269-6.2700195,4.4699707-12.2299805,1.1699829,4.8099976-.210022,7.3200073-4.2999878,8.039978-5.6199951.9799805-12.1799927-1.7700195-15.0200195-7.2700195,5.4899902-.5700073,10.5499878-1.0999756,15.6099854-1.6199951.0499878-.2299805.0900269-.460022.1400146-.6900024-3.960022-.8599854-7.8800049-2.0499878-11.8800049-2.4799805-3.5499878-.3800049-7.8400269.25-8.3599854,4.3900146-.3400269,2.710022,1.7999878,5.8699951,3.2299805,8.6099854.6199951,1.1799927,2.2700195,1.8300171,3.4500122,2.710022-9.539978-3.5599976-19.0999756-7.1199951-28.6500244-10.6799927.1699829-.460022.3499756-.9099731.5200195-1.3699951,3.7600098-.75,7.710022-1.0100098,11.2399902-2.3699951,3.8099976-1.4699707,4-5.2000122.8499756-10.75,6.4000244,1.8900146,12.2600098,4.0900269,18.3300171,5.2999878,7.4299927,1.4899902,15.0100098,2.7199707,22.5499878,2.9099731,3.5.0900269,7.0800171-2.539978,10.3699951-4.7700195-7.7999878,2.9699707-15.2000122.8499756-22.539978-1.1199951-10.1099854-2.7199707-20.0900269-5.9500122-30.25-8.4000244-5.0300293-1.210022-10.3499756-1.1799927-15.7600098-1.7299805,1.5499878-3.6300049,3.4500122-8.0700073,5.4799805-12.8099976,15.2700195,5.5599976,30.3499756,11.2000122,45.5499878,16.5,5.4699707,1.9099731,11.2000122,3.0700073,16.8499756,4.4199829.5700073.1400146,1.4000244-.7800293,2.1099854-1.210022,11.9799805,3.9699707,11.8800049,3.960022,11.1500244,16.4500122-.2700195,4.6199951.0300293,9.2700195.0599976,13.7800293-10.210022,2.3499756-16.0700073,19.3800049-9.9199829,28.1799927-8.289978,11.3499756-16.6400146,22.7999878-25.6400146,35.1099854-.7999878-2.5-1.1400146-3.5300293-1.4699707-4.5599976-.2399902.0200195-.4699707.0300293-.710022.0499878.0200195,2.1900024.039978,4.3800049.0700073,8.4199829,4.5499878-3.3699951,8.6599731-5.2600098,11.1300049-8.4299927,9.9899902-12.8200073,19.6799927-25.8900146,28.9699707-39.2200317,2.1099854-3.0300293,2.7999878-7.4699707,3-11.3200073.4699707-9.1199951.3200073-18.2700195.3099976-27.4099731-.0100098-9.4899902-1.3499756-10.8400269-10.9299927-11.2399902-1.9699707-.0800171-3.9500122.1599731-5.9199829.2600098-11.2800293-4.5300293-22.3699951-9.4299927-33.7600098-13.460022l.0202026-.0197144ZM178.8244324,237.9172363c-6.0400085,3.6400146-11.8299866,7.1300049-17.6300049,10.6199951l.980011,1.7999878c5.6700134-2.8699951,11.2900085-5.8399963,17.0299988-8.5599976,1.6000061-.7600098,3.8399963-1.6000061,5.269989-1.0499878,27.9700012,10.5700073,55.8800049,21.2999878,83.769989,32.0700073,98.730011,38.1500244,206.5299988,78.75,305.2799988,116.8399658,11.2999878,4.3599854,22.8499756,8.0599976,34.3200073,12,1.3599854.4699707,2.8699951.4699707,4.3200073.6900024.1599731-.4000244.3300171-.789978.4899902-1.1900024-4.9099731-2.460022-9.6599731-5.3599854-14.7700195-7.3200073-33.0499878-12.6300049-66.2399902-24.9000244-99.2700195-37.5800171-54.5900269-20.9500122-109.1300049-42.0700073-163.6400146-63.230011-42.1199951-16.3600159-93.2399902-35.3500061-135.3800049-51.6499939-7.9899902-3.0899963-16.3500061-5.230011-24.5499878-7.8200073-.2099915.4899902-.4200134.980011-.6300049,1.4700012,1.3399963.8800049,2.6900024,1.769989,4.3999939,2.8900146l.0100708.02005ZM156.0244446,218.2972412c-.269989-1.9400024-1.7799988-3.9899902-3.269989-5.4200134-7.6600037-7.3900146-10.7799988-16.75-11.2600098-26.9400024-1.1700134-24.8699951-5.25-49.1799927-12.5700073-72.9700012-4.0500031-13.1900024-10.4700012-24.1300049-20.7799988-34.6199951.9799957,2.25,1.3300018,3.3200073,1.8800049,4.2799988,17.9900055,31.3800049,24.7799988,65.5500183,25.6000061,101.3000183.1300049,5.730011.75,11.8200073,2.9100037,17.019989,1.9899902,4.7900085,5.75,9.3299866,9.8099976,12.6499939,4.3900146,3.5799866,7.0100098,6.75,6.2200012,12.8299866-.9100037,7.0599976-.3699951,14.230011,2.8299866,20.8399963.6400146-.0499878,1.2799988-.1000061,1.9200134-.1400146-1.0599976-9.6099854-1.9700012-19.25-3.2999878-28.8200073l.0099792-.0099487ZM63.244442,209.1072388c-18.75-8.6600037-26.3300018-26.6099854-37.5400085-42.9899902.4700012,2.6300049.5700073,4.3200073,1.0800018,5.8699951,5.0399933,15.5299988,12.5,29.1000061,27.6900024,37.3099976,8.8800049,4.7999878,16.8999977,11.1700134,25.720005,16.0599976,6.3300018,3.5100098,13.3500061,5.7600098,20.0699921,8.5700073.2599945-.6000061.5299988-1.2000122.7899933-1.7999878-8.2400055-4.7900085-16.4900055-9.5899963-25.9400024-15.0899963,2.9199982.3399963,4.4499969.519989,6.8200073.7999878-6.6799927-5.769989-17.5200043-6.4500122-17.4900055-17.8699951-.4299927.2200012-.8500061.4500122-1.2799988.6700134.0200043,2.730011.0399933,5.4599915.0700073,8.4599915,0,0,.0100098.0099792.010006.0099792ZM17.6244469,133.4472351c-9.5700073-26.7900085-8.8999939-53.75-2.5200043-80.9599915.3600006-1.5299988.6999969-3.0700073.5200043-4.6199951-17.7299957,37.2000122-9.3600006,73.0299988,5.6999969,108.5100098l1.7400055-.3599854c-1.7700043-7.5400085-2.8500061-15.3200073-5.4400024-22.5700073v-.0000305ZM206.6144409,103.6572342c-4.3500061-17.4899902-10.6799927-34.3200073-20.519989-49.5-3.6300049-5.5899963-8.6799927-10.4100037-13.6900024-14.9100037-4.1199951-3.7100067-5.7399902-3.2799988-11.769989.3000031,9-.8800049,13.3699951,5.0500031,17.75,10.4900055,12.2600098,15.25,18.4599915,33.25,23.019989,51.9700012,2.1900024,8.9700012,4.7600098,17.8399963,7.1600037,26.7600021.769989-.0899963,1.5400085-.1900024,2.3099976-.2799988-1.3900146-8.2799988-2.25-16.7000122-4.269989-24.8200073,0,0,.0099792-.0100098.0099792-.0100021ZM101.8944397,108.9072342c7.9299927,15.2000122,13.8999939,30.909996,14.1000061,48.3499985.1100006,9.8099976-1.7599945,19.1700134-6.0200043,28.0299988-.3200073.6700134-.5,1.3999939-.3600006,2.2200012,7.6300049-10.2999878,10.2899933-22.1300049,9.2899933-34.5700073-1.9100037-23.5599976-9.1800079-45.2099915-24.7100067-63.5599976-.3000031-.3599854-.7299957-.6099854-1.1000061-.9100037-.2799988.1400146-.5500031.2799988-.8300018.4200134,3.1999969,6.6799927,6.1999969,13.4599915,9.6199951,20.019989,0,0,.010025,0,.010025.0000076ZM87.2244415,180.6672363c-6.3200073,12.9200134-15.6100006,11.8800049-25.9499969,5.25-3.0700073-1.9700012-5.9600067-4.2799988-9.1600037-5.9899902-4.6100006-2.4700012-5.7899933-5.9899902-4.3800049-10.8099976.7799988-2.6600037,1.3200073-5.3900146,2.0599976-8.4299927-.8099976.3599854-1.2200012.3999939-1.3399963.6199951-9,15.8200073-8.9600067,16.2099915,6.1199951,26.8900146,3.3600006,2.3800049,6.8600006,4.7999878,10.6600037,6.2600098,12.25,4.7099915,21.1399994-1.0299988,22.7299957-14.2999878-.25.1700134-.6100006.2799988-.7200012.5100098l-.019989-.000061ZM26.5244408,80.8772354c-4.9799957,8.730011-7.0399933,16.9200134-5.6399994,25.3600159,3.3600006,20.1700134,9.7599945,39.4899826,17.6399994,58.3499985-5.1100006-27.3099976-17.1000061-53.5299988-12-83.7099915,0,0,0-.0000305,0-.0000229ZM103.3444519,67.6272354c.3600006-9.5,4.8600006-15.9100037,13.5200043-19.5799866,7.7899933-3.2999878,15.5500031-6.6499939,23.3199921-10,1.019989-.4400024,1.9899902-1.0099945,2.7900085-2.0399933-11.8399963,1.8000031-23.3999939,4.1399994-34,10.3499908-8.1699982,4.7900085-10.1000061,11.6799927-9.1399994,20.2600098.3800049,3.4200134.5899963,6.8599854.8800049,10.2999878.2599945.0499878.5299988.1099854.7899933.1600037.6399994-3.1499939,1.7299957-6.2799988,1.8500061-9.4500122h-.0100098ZM206.7844543,138.7172241c2.480011,9.1199951,2.5799866,9.2799988-5.6799927,14.519989-6.2999878,4-12.9500122,7.4299927-19.3399963,11.2999878-3.4200134,2.0700073-6.6199951,4.5100098-9.5899963,7.2799988,11.8500061-4.2999878,24.1300049-7.2099915,34.1300049-15.519989,8.3900146-6.980011,8.9200134-10.9400024.6199951-19.0700073-.0899963.8599854-.2200012,1.2099915-.1400146,1.5v-.0099792ZM116.6544495,50.7572403c-8.6499939,3.519989-11.3999939,13.0700073-7.5,22.6399841-.1000061-13.0799866,8.6799927-17.8299866,18.9599915-21.6600037,7.519989-2.7999878,14.7000122-6.5299988,22.0400085-9.8399963-.2399902-.6300049-.480011-1.2599945-.730011-1.8899994-10.9500122,3.5200043-22.1499939,6.4199982-32.7700043,10.7499847l.0000153.0000305ZM114.1744537,255.6472168c.3099976,3.1900024,2.1100006,6.3699951,6.2200012,8.2200012,9.2100067,4.1300049,18.3700104,8.3999939,27.5900116,12.519989,3.4599915,1.5499878,6.75,1.769989,8.4500122-1.1099854-3.0100098-1.4299927-6-2.6799927-8.8299866-4.230011-4.7600098-2.6000061-9.1700134-6.1300049-14.2100067-7.8399963-3.7700043-1.2799988-4.9299927-3.1700134-5.3899994-6.519989-.2599945-1.8900146-.8500061-3.7399902-1.3000031-5.6099854-.4100037.0799866-.8200073.1600037-1.2200012.2399902.4900055,3.1900024.9900055,6.3800049,1.7700043,11.4500122-5.0700073-2.769989-9.2100067-5.0299988-13.0700073-7.1300049l-.010025.0099792ZM178.4344482,63.2272415c4.9700012,10.4899902,9.9100037,20.9899902,14.9100037,31.4599915,1.3399963,2.8099976,2.8800049,5.5299988,4.6199951,8.1499939-1.4299927-13.2399902-6.6300049-25.0700073-13.2000122-36.3999939-1.25-2.1499939-2.7799988-4.1600037-3.8099976-6.4100037-2.6199951-5.7200012-7.5299988-6.6199951-11.4500122-.4400024,5.1400146-3.3299866,7.1600037-.1099854,8.9299927,3.6300049l.0000305.0100098ZM164.1244507,184.2672424c-.5700073-18.3999939,1.6000061-37.1199951-6.519989-54.519989,1.8599854,18.269989-.5799866,37,6.519989,54.519989ZM207.444458,200.2372437c0-.730011-.019989-2.3599854-.0400085-4.5599976-14.4500122,5.0400085-27.2099915,11.730011-38.6499939,20.8599854.2399902.5299988.480011,1.0599976.7200012,1.6000061,12.480011-5.8800049,24.9700012-11.7600098,37.9700012-17.8899841v-.0100098ZM135.444458,76.9672623l-1.2000122.480011c5.8299866,14.4700012,11.6700134,28.9400024,17.5,43.4100037.4100037-.0899963.8200073-.1799927,1.230011-.2600098-.2900085-16.769989-8.6199951-30.3200073-17.5400085-43.6300049h.0100098ZM58.2544518,109.6972733c-1.3500061-1.1900024-1.7899933-1.8599854-2.3899994-2.0700073-3.25-1.1600037-6.5500031-2.2000122-9.8300018-3.2799988-.7299957,3.730011-2.9400024,7.9500122-1.8999939,11.0899963,2.6900024,8.0499878,6.8200073,15.6099777,10.3699951,23.3599777.5399933-.2000122,1.0700073-.4100037,1.6100006-.6099854-2.8300018-9.8800049-5.6499939-19.769989-8.4799957-29.6499939.6199951-.2600098,1.25-.519989,1.8699951-.769989,2.5500031.5700073,5.1000061,1.1300049,8.75,1.9400024,0,0,0-.0100098,0-.0100021ZM40.7544518,23.557272c16.7299957-2.5399933,30.0900002-9.5399933,43.0800056-17.5299988-15.6000061,1.6199951-28.8500061,8.9100037-43.0800056,17.5299988ZM203.4644775,177.1772461c.1900024-.019989.3800049-.0400085.5599976-.0700073-.0400085-4.6199951-.0700073-9.2399902-.1099854-13.8500061-.4400024-.2399902-.8699951-.4899902-1.3099976-.730011-.3900146,5.8699951-4.9100037,6.4400024-8.6499939,8.3099976-7.8200073,3.8999939-15.4299927,8.2399902-23.1199951,12.3999939.269989.6000061.5400085,1.2000122.8099976,1.7999878,10.1900024-4.1400146,20.3800049-8.2799988,30.9500122-12.5700073.2399902,1.269989.5499878,2.9899902.8699951,4.7099915l-.0000305.000061ZM12.8244753,140.7572632c-3.3600006-1.1099854-6.7200012-2.2000122-10.0800018-3.2900085-.8899994,3.3699951-1.8600006,6.7200012-2.6299973,10.1099854-.25,1.1000061-.0199966,2.3200073.0299988,3.4899902.3499985,8.2399902,1.6500015,9.7200012,9.7099991,11.0400085,2.3000031.3800049,4.6100006.6900024,6.8999929,1.0799866,2.0700073.3500061,4.1199951.7799988,6.1799927,1.1700134l.5099945-1.4100037c-4.5399933-1.7399902-9-3.730011-13.6399994-5.1400146-4.2799988-1.3099976-8.8199997-7.1700134-8.25-11.4400024.6600037-4.9100037,2.2300034-6.0400085,7.2100067-5.25,1.3800049.2200012,2.7799988.2999878,4.2899933.4500122-.1300049-.5-.1399994-.769989-.2200012-.7999878,0,0-.0099792-.0099792-.0099783-.0099792ZM36.2744713,33.7372818c14.6999969,3.8399963,28.4900093,7.4400024,43.5300026,11.3599854-13.3500061-10.6399994-27.3200073-13.5200043-43.5299988-11.3600006,0,0,0,.0000153-.0000038.0000153ZM38.5844688,115.1072769c-.5299988.1600037-1.0500031.3299866-1.5800018.4899902,4.1199951,13.3999863,8.2400055,26.8099899,12.3600006,40.2099838.5099945-.1600037,1.0299988-.3200073,1.5399933-.480011-2.2100067-14-3.4199982-28.3099976-12.3300018-40.230011,0,0,.0100098.0100403.0100098.0100479ZM154.5544739,124.457283c12.5299988-3.9400024,24.7999878-8.4100037,35.1799927-16.75-13.230011,2.519989-24.9500122,8.1099854-35.1799927,16.75ZM129.7144775,224.9272766c-.3200073-.0400085-.7200012-.2200012-.9499969-.0899963-3.5899963,1.9500122-4.2899933,5.7099915-2.0099945,11.3299866,1.6000061,3.9400024,4.0500031,7.5100098,8.7799988,6.2200012,1.8299866-.5,4.230011-3.8500061,4.0700073-5.6900024-.3099976-3.4599915-2.2999878-6.7600098-4.6300049-9.6799927.3500061,3.519989.7099915,7.0400085,1.1300049,11.3200073-7.0800018-3.3399963-9.2599945-8.8900146-6.3899994-13.3999939l-.0000153-.0100098ZM64.5544739,141.6572876c-2.3699951.3900146-3.9299927.6499939-5.6000061.9200134,5.5700073,3.6000061,8.0700073,2.7000122,8.8399963-3.3299866,1.1199951-8.730011.5099945-17.1600037-5.9799957-25.4500122.9700012,9.8999939,1.8399963,18.7399902,2.7400055,27.8599854ZM165.2144775,129.2272949c10.8099976-3.8699951,20.5299988-9.6099854,30-17.9500122-8.8900146,1.2200012-20.8699951,8.4200134-30,17.9500122ZM168.0044861,154.1072998c1.1400146,4.8599854,4.2900085,6.75,8.5299988,7.1700134,7.2600098.7200012,15.9500122-4.2399902,19.0899963-10.7999878-8.9100037,2.6099854-16.8600159,11.7999878-27.6199951,3.6300049v-.0000305ZM38.8644829,23.547308c-12.5500031,2.7700043-21.4799957,11.2700062-23.0599976,20.7099934,7.2700043-6.5299988,14.75-13.25,23.0599976-20.7099934ZM135.7844849,73.0273209c.1900024.4299927.3800049.8599854.5799866,1.2900085,9.0299988-4.0100098,18.0499878-8.019989,27.0799866-12.0299988-.1900024-.4299927-.3800049-.8599854-.5799866-1.2999878-10.5100098.6799927-19.25,5.3399963-27.0799866,12.0400085v-.0000305ZM650.2744751,377.2072754c-4.710022,6.9299927-9.8200073,14.4400024-15.5599976,22.8800049,15.0900269-9.2700195,18.6799927-15.2700195,15.5599976-22.8800049ZM108.8343964,2.0872402c-8.0800018-3.7899933-15.6699982-2.5099945-23.6399994,4.5899963,5.1100006-1.3999939,9.0399933-2.4700012,11.5500031-3.1600037,2.8200073,2.3200073,4.7899933,3.9400024,6.7599945,5.5599976.3300018-.3699951.6600037-.7400055.9799957-1.1000061-.4100037-.7299957-.8200073-1.4600067-1.2799988-2.2899933,1.9199982-1.2299957,3.7100067-2.3699951,5.6399994-3.6000061l-.0099945.0000153ZM102.5643921,22.1772366c-7.5599976,1.5099945-15.0200043,3.5399933-22.3600006,6.0399933,9.6600037,2.9100037,18.1399994-3.4499969,28.1000061-4.3600006-1.9199982-.6100006-4.0099945-2.0200043-5.7400055-1.6799927ZM31.1943932,84.4772415c-4.4799957,2.7799988-5.8000031,6.8599854-3.0099945,11.980011,2.5099945,4.6000061,5.8500061,8.75,9.2799988,13.769989.7899933-10.1700134-10.5399933-15.8699951-6.2700043-25.75ZM109.4544067,7.4272366c8.1499939-.7200012,16.8099976-1.4799957,24.75-2.1799927-7.3999939-6.0899963-13.4700012-5.7200012-24.75,2.1799927ZM107.5444031,223.6472168c-4.0200043,10.3500061-.6399994,19.2799988,5.1199951,27.7399902-1.7100067-9.25-3.4100037-18.4899902-5.1199951-27.7399902ZM203.8743896,129.5172119c1.3900146-6.1300049.0799866-16.6199951-3.1199951-21.3399963-.9400024-1.3800049-3.1900024-1.8699951-4.8399963-2.7600098,5.9400024,7.4400024,3.0700073,17.1700134,7.9700012,24.1100159l-.0100098-.0100098ZM170.3743896,25.5272274c-5.6600037-2.3899994-9.1700134,1.9900055-13.0299988,5.4400024,3.8800049-.7200012,7.8399963-2.6199951,11.0400085-1.7400055,3.230011.8999939,5.7099915,4.5399952,8.769989,7.2100086-.2999878-5.0899963-2.4400024-9.0800018-6.7799988-10.9199982,0,0,0,.0099945,0,.0099926ZM64.8243866,62.957222c-4.6199951-6.6499939-18.2700043-8.8099976-23.8300018-4.8900146,8.0200043,1.6499939,15.8800049,3.2600098,23.8300018,4.8900146ZM198.714386,135.9472046c-.25-.4899902-.5100098-.980011-.7600098-1.4599915-7.4599915,3.7900085-14.9200134,7.5799866-22.3800049,11.3699951l1.1000061,1.4200134c7.8399963-2.8500061,16.1900024-4.7600098,22.0400085-11.3200073v-.0100098ZM84.6343842,178.2772217c.2299957-.4100037.4700012-.8200073.6999969-1.230011-6.6300049-3.9299927-13.25-7.8500061-19.8800049-11.7799988-.2899933.6000061-.5899963,1.1900024-.8800049,1.7900085,6.0299988,4.9400024,11.9700012,10.0499878,20.0599976,11.2200012h.0000153ZM368.2744141,288.7672119c.480011.2600098.9500122.519989,1.4299927.7799988,5-4.6000061,7.2600098-10.730011,9.0299988-17.1199951-.4599915-.25-.9200134-.5-1.3800049-.75-3.0299988,5.7000122-6.0499878,11.3999939-9.0799866,17.0899963ZM496.5244141,335.9472046l2.0800171,1.0200195c2.9299927-5.9799805,5.8699951-11.9699707,8.7999878-17.9500122-.7199707-.4299927-1.4299927-.8599854-2.1500244-1.2999878-2.9099731,6.0800171-5.8200073,12.1599731-8.7299805,18.2299805ZM541.9044189,331.6171875l-2.25-1.1400146c-2.7399902,5.4699707-5.4799805,10.9400024-8.2199707,16.4000244.710022.3599854,1.4199829.7199707,2.1300049,1.0800171,2.7800293-5.4500122,5.5599976-10.8900146,8.3400269-16.3400269h-.000061ZM167.5744324,222.5171814l-2.3399963-.1799927c-.4400024,5.9899902-.8900146,11.980011-1.3299866,17.9700012.7099915.0599976,1.4299927.1099854,2.1400146.1700134.5100098-5.9899902,1.019989-11.9700012,1.5299988-17.9599915l-.0000305-.0000305ZM220.6144409,206.9171753c.769989-.0899963,1.5400085-.1700134,2.3099976-.2600098-.6300049-5.8500061-1.2600098-11.7000122-1.8900146-17.5599976-.7399902.0799866-1.4700012.1600037-2.2099915.25.5899963,5.8599854,1.1900024,11.7099915,1.7799988,17.5700073h.0100098ZM84.734436,16.367178c-.0800018-.6100006-.1499939-1.2100067-.2299957-1.8200073-1.3000031-.7599945-2.5899963-1.5099945-3.8899994-2.2700043.1600037.4499969.3300018.8899994.4900055,1.3399963-3.8000031,2.3500061-7.6000061,4.7100067-11.3999939,7.0599976.3099976.3999939.6199951.8000031.9400024,1.1999969,4.6999969-1.8399963,9.3899994-3.6699982,14.0899963-5.5099945l-.0000153.0000153ZM159.0844421,268.3171692c.7000122-.0499878,1.3900146-.0899963,2.0899963-.1400146-.3399963-5.269989-.6799927-10.5299988-1.0100098-15.7999878-.7099915.0400085-1.4100037.0799866-2.1199951.1199951.3500061,5.269989.7000122,10.5499878,1.0499878,15.8200073h-.0099792ZM286.1644287,243.3071594c-.5700073-.4500122-1.1400146-.8999939-1.7099915-1.3500061-2.730011,3.519989-5.4599915,7.0499878-8.1900024,10.5700073.480011.3800049.9700012.7600098,1.4500122,1.1499939,2.8200073-3.4599915,5.6400146-6.9100037,8.4599915-10.3699951h-.0100098ZM132.4944305,259.5471497c.6100006-.0499878,1.2200012-.1000061,1.8199921-.1499939-.3800049-4.6000061-.7599945-9.2099915-1.1300049-13.8099976-.6499939,0-1.2899933.0100098-1.9400024.019989.4199982,4.6499939.8300018,9.2999878,1.25,13.9500122l.0000153-.0100098Z"/>
  <path class="st0" d="M606.8344116,388.2672119c-9.5499878-3.5599976-19.1099854-7.1300049-28.6599731-10.6900024.1699829-.460022.3499756-.9099731.5200195-1.3699951,3.7600098-.75,7.710022-1.0100098,11.2399902-2.3699951,3.8099976-1.4699707,4-5.2000122.8499756-10.75,6.4000244,1.8900146,12.2600098,4.0900269,18.3300171,5.2999878,7.4299927,1.4899902,15.0100098,2.7199707,22.5499878,2.9099731,3.5.0900269,7.0800171-2.539978,10.3699951-4.7700195-7.7999878,2.9699707-15.2000122.8499756-22.539978-1.1199951-10.1099854-2.7199707-20.0900269-5.9500122-30.25-8.4000244-5.0300293-1.210022-10.3499756-1.1799927-15.7600098-1.7299805,1.5499878-3.6300049,3.4500122-8.0700073,5.4799805-12.8099976,15.2700195,5.5599976,30.3499756,11.2000122,45.5499878,16.5,5.4699707,1.9099731,11.2000122,3.0700073,16.8499756,4.4199829.5700073.1400146,1.4000244-.7800293,2.1099854-1.210022l.0499878.0300293c-11.2299805-4.5-22.3099976-9.3900146-33.710022-13.4299927-105.1099854-37.25-219.3800049-76.6900024-324.5100098-113.8999939-18.9299927-6.7000122-37.730011-13.7999878-55.8200073-20.4299927-.0700073-8.3900146-.4500122-16.5100098-.0899963-24.6000061.230011-5.2200012-1.5799866-9.0100098-5.4299927-12.1600037-.769989-.6300049-1.5-1.3200073-2.2900085-1.9200134-5.4200134-4.1000061-11.5499878-7.7099915-10.5599976-16.2099915-2.9100037,10.25-1.7000122,34.4700012,2.6400146,43.5499878-.0799866-9.6400146-.1600037-19.269989-.230011-28.9400024,5.0599976,3.1000061,10.1799927,11.9700012,10.7200012,17.5599976.7000122,7.230011,1.8099976,14.4200134,2.7999878,22.0799866-5.6400146-1.3500061-11.3299866-2.7200012-17.0299988-4.0799866-.1099854.2799988-.2099915.5499878-.3200073.8299866,1.4599915.9200134,2.9200134,1.8399963,4,2.519989-2.2399902,4.5400085-4.3900146,8.8900146-6.5400085,13.2399902.5100098.269989,1.019989.5400085,1.5299988.8099976,2.3299866-4.2099915,4.6499939-8.4200134,6.980011-12.6400146,15.5,5.6199951,31.0100098,11.25,46.0599976,16.7000122-2.5799866,4.2099915-5.2200012,8.519989-7.8599854,12.8399963.5400085.3399963,1.0799866.6799927,1.6199951,1.019989,2.25-3.5,4.3200073-7.1400146,6.8299866-10.4400024.8299866-1.1000061,3.0799866-2.2099915,4.1900024-1.8299866,15.5599976,5.2200012,40.1199951,13.0700073,55.2799988,18.3599854-3.2799988,5.9500122-6.3900146,11.6099854-9.5100098,17.2600098.6099854.3500061,1.2200012.7000122,1.8200073,1.0499878,3.4100037-5.5400085,6.8099976-11.0899963,10.6000061-17.25,7.7099915,2.6799927,15.9200134,5.5400085,24.3600159,8.4700012-3.4100037,4.1400146-6.5599976,7.9700012-9.7099915,11.7999878.5100098.4299927,1.019989.8699951,1.5299988,1.2999878,3.4100037-3.8299866,6.8200073-7.6499939,10.8299866-12.1400146,17.8200073,6.25,36.3999939,12.7600098,55.2099915,19.3600159-3.25,5.5100098-6.3499756,10.7600098-9.460022,16.0100098.6199951.3800049,1.2399902.7600098,1.8599854,1.1499939,3.3800049-5.25,6.7600098-10.5,10.4000244-16.1499939,9.5999756,3.3999939,19.7399902,6.980011,29.4000244,10.3999939-3.7000122,5.8399963-7.2600098,11.4599915-10.8099976,17.0799866.6099854.4099731,1.2299805.8300171,1.8400269,1.2399902,3.9699707-5.5100098,7.9400024-11.0299988,12.3300171-17.1199951,9.0599976,3.2200012,18.7000122,6.6300049,28.5800171,10.1400146-2.8300171,5.6500244-5.5200195,11.0200195-8.210022,16.3900146.6199951.3200073,1.2299805.6400146,1.8499756.9500122,2.8599854-5.25,5.7199707-10.4899902,8.9699707-16.460022,33.8599854,12.1599731,68.6099854,24.6300049,102.8400269,36.9199829-3.0300293,6.5599976-5.9000244,12.7800293-8.6400146,18.7199707,4.3800049-.3800049,8.0800171-.710022,11.7700195-1.0300293,4.9099731-.4199829,6.7800293,3.5200195,9.0200195,6.6400146.4699707.6599731-.1799927,2.9699707-.9899902,3.539978-3.0200195,2.0999756-10.6799927.4000244-14.1400146-3.3400269,2.6900024-1.1500244,5.1099854-2.1900024,7.539978-3.2199707-.0800171-.4099731-.1500244-.8200073-.2299805-1.2299805-3.460022.7800293-7.2299805.9799805-10.210022,2.6400146-1.1699829.6500244-.539978,4.539978-.7399902,7.039978-.6099854-.3300171-1.8300171-.9799805-3.5700073-1.9199829.3900146,1.0700073.4500122,1.8800049.8800049,2.3499756,8.0700073,8.8400269,17.2199707,16.039978,28.9400024,19.5700073,9.1099854,2.7399902,17.8499756,6.1699829,24.6099854,13.4899902,6.7299805,7.289978,7.7399902,11.7800293,3.5900269,20.6500244-1.2399902,2.6500244-2.4500122,5.3300171-3.0100098,8.4400024,1.3099976-1.039978,2.6300049-2.0800171,4.1699829-3.3099976-.4500122,3.8699951-.8599854,7.3800049-1.2600098,10.8800049.6599731.2700195,1.3200073.5499878,1.9899902.8200073.6900024-1.3699951,1.5700073-2.6699829,2.039978-4.1099854,2.4099731-7.4099731,3.9400024-15.210022,9.7700195-22.1400146.8099976,2.3400269,1.289978,3.7199707,1.7700195,5.1099854.3699951-.0499878.75-.0900269,1.1199951-.1400146-.210022-2.1500244.3499756-5.2199707-.8400269-6.210022-1.5-1.2600098-4.4199829-.8300171-7.2800293-1.210022-3.4000244-13.0300293-14.5200195-19.5-26.1500244-25.460022l.1699829.1500244.0101929.0102539Z"/>
  <path class="st0" d="M174.444397,235.0272522c1.3399963.8800049,2.6900024,1.769989,4.3999939,2.8900146-6.0400085,3.6400146-11.8299866,7.1300049-17.6300049,10.6199951l.980011,1.7999878c5.6700134-2.8699951,11.2900085-5.8399963,17.0299988-8.5599976,1.6000061-.7600098,3.8399963-1.6000061,5.269989-1.0499878,27.9700012,10.5700073,55.8800049,21.2999878,83.769989,32.0700073,98.730011,38.1499939,206.5299988,78.7499695,305.2799988,116.8399963,11.2999878,4.3599854,22.8499756,8.0599976,34.3200073,12,1.3599854.4699707,2.8699951.4699707,4.3200073.6900024.1599731-.4000244.3300171-.789978.4899902-1.1900024-4.9099731-2.460022-9.6599731-5.3599854-14.7700195-7.3200073-33.0499878-12.6300049-66.2399902-24.9000244-99.2700195-37.5800171-54.5900269-20.9500122-109.1300049-42.0700073-163.6400146-63.230011-42.1199951-16.3600159-93.2399902-35.3500061-135.3800049-51.6499939-7.9899902-3.0899963-16.3500061-5.230011-24.5499878-7.8200073-.2099915.4899902-.4200134.980011-.6300049,1.4700012l.0100708.0200195Z"/>
  <path class="st0" d="M159.3443909,247.1272278c-1.0599976-9.6099854-1.9700012-19.25-3.2999878-28.8200073-.269989-1.9400024-1.7799988-3.9899902-3.269989-5.4200134-7.6600037-7.3900146-10.7799988-16.75-11.2600098-26.9400024-1.1700134-24.8699951-5.25-49.1799927-12.5700073-72.9700012-4.0500031-13.1900024-10.4700012-24.1300049-20.7799988-34.6199951.9799957,2.25,1.3300018,3.3200073,1.8800049,4.2799988,17.9900055,31.3800049,24.7799988,65.5499878,25.6000061,101.2999878.1300049,5.730011.75,11.8200073,2.9100037,17.019989,1.9899902,4.7900085,5.75,9.3299866,9.8099976,12.6499939,4.3900146,3.5799866,7.0100098,6.75,6.2200012,12.8299866-.9100037,7.0599976-.3699951,14.230011,2.8299866,20.8399963.6400146-.0499878,1.2799988-.1000061,1.9200134-.1400146l.0099792-.0099182Z"/>
  <path class="st0" d="M643.5344238,362.2272339c2-.0800171,3.9799805-.3200073,5.9500122-.2399902,9.5800171.4099731,10.9199829,1.7600098,10.9299927,11.2399902.0100098,9.1400146.1699829,18.289978-.3099976,27.4099731-.2000122,3.8499756-.8900146,8.289978-3,11.3200073-9.289978,13.3400269-18.9799805,26.4000244-28.9699707,39.2200317-2.4699707,3.1699829-6.5800171,5.0599976-11.1300049,8.4299927-.0300293-4.039978-.0499878-6.2299805-.0700073-8.4199829.2399902-.0200195.4699707-.0300293.710022-.0499878.3300171,1.0300293.6599731,2.0599976,1.4699707,4.5599976,8.9899902-12.3200073,17.3499756-23.7600098,25.6400146-35.1099854-6.1500244-8.7999878-.289978-25.8300171,9.9199829-28.1799927-.039978-4.5-.3300171-9.1599731-.0599976-13.7800293.7299805-12.4899902.8300171-12.4799805-11.1500244-16.4500122,0,0,.0499878.0300293.0700073.0499878ZM653.4944458,396.6972656c-6.4799805,4.5999756-4.4299927,12.539978-6.8400269,18.7399902,5.5900269-5.0100098,8.6400146-10.9799805,6.8400269-18.7399902Z"/>
  <path class="st0" d="M63.2043877,200.6472473c.0200043,2.730011.0399933,5.4599915.0700073,8.4599915-18.75-8.6600037-26.3300018-26.6099854-37.5399933-42.9899902.4700012,2.6300049.5700073,4.3200073,1.0800018,5.8699951,5.0399933,15.5299988,12.5,29.1000061,27.6900024,37.3099976,8.8800049,4.7999878,16.8999977,11.1700134,25.720005,16.0599976,6.3300018,3.5100098,13.3500061,5.7600098,20.0699921,8.5700073.2599945-.6000061.5299988-1.2000122.7899933-1.7999878-8.2400055-4.7900085-16.4900055-9.5899963-25.9400024-15.0899963,2.9199982.3399963,4.4499969.519989,6.8200073.7999878-6.6799927-5.769989-17.5200043-6.4500122-17.4900055-17.8699951-.4299927.2200012-.8500061.4500122-1.2799988.6700134,0,0,.0099945.0099792.0099907.0099792Z"/>
  <path class="st0" d="M23.0943871,156.0172424c-1.7700043-7.5400085-2.8500061-15.3200073-5.4400024-22.5700073-9.5700073-26.7900085-8.8999939-53.75-2.5200043-80.9599915.3600006-1.5299988.6999969-3.0700073.5200043-4.6199951-17.7299957,37.2000122-9.3600006,73.0299988,5.6999969,108.5100098l1.7400055-.3599854v-.0000305Z"/>
  <path class="st0" d="M80.2644043,97.7572403c-.8099976,11.5-1.6300049,23-2.4400024,34.4899826h-1.4799957c-2.8200073-7.3200073-5.6399994-14.6499939-8.7599945-22.7399902-1.8399963,9.6000061,9.8200073,47.9700012,19.8399963,64.4899902-1.5700073-6.269989-2.9199982-12.6000061-4.7700043-18.7900085-2.6799927-8.9700012-3.5899963-17.9200134-.6199951-26.9400024,3.4199982-10.4200134,2.7599945-20.5299988-1.8600006-30.4400024l.0800018-.0700073s.0099945.0000305.0099945.0000381Z"/>
  <path class="st0" d="M210.9043884,128.4872437c-1.3900146-8.2799988-2.25-16.7000122-4.269989-24.8200073-4.3500061-17.4899902-10.6799927-34.3200073-20.519989-49.5-3.6300049-5.5899963-8.6799927-10.4100037-13.6900024-14.9100037-4.1199951-3.7100067-5.7399902-3.2799988-11.769989.3000031,9-.8800049,13.3699951,5.0500031,17.75,10.4900055,12.2600098,15.25,18.4599915,33.25,23.019989,51.9700012,2.1900024,8.9700012,4.7600098,17.8399963,7.1600037,26.7600098.769989-.0899963,1.5400085-.1900024,2.3099976-.2799988l.0099792-.0100098Z"/>
  <path class="st0" d="M92.2944031,88.8972549c3.1999969,6.6799927,6.1999969,13.4599915,9.6199951,20.019989,7.9299927,15.2000122,13.8999939,30.909996,14.1000061,48.3499985.1100006,9.8099976-1.7599945,19.1700134-6.0200043,28.0299988-.3200073.6700134-.5,1.3999939-.3600006,2.2200012,7.6300049-10.2999878,10.2899933-22.1300049,9.2899933-34.5700073-1.9100037-23.5599976-9.1800079-45.2099915-24.7100067-63.5599976-.3000031-.3599854-.7299957-.6099854-1.1000061-.9100037-.2799988.1400146-.5500031.2799988-.8300018.4200134,0,0,.010025,0,.010025.0000076Z"/>
  <path class="st0" d="M87.9743958,180.1672363c-.25.1700134-.6100006.2799988-.7200012.5100098-6.3200073,12.9200134-15.6100006,11.8800049-25.9499969,5.25-3.0700073-1.9700012-5.9600067-4.2799988-9.1600037-5.9899902-4.6100006-2.4700012-5.7899933-5.9899902-4.3800049-10.8099976.7799988-2.6600037,1.3200073-5.3900146,2.0599976-8.4299927-.8099976.3599854-1.2200012.3999939-1.3399963.6199951-9,15.8200073-8.9600067,16.2099915,6.1199951,26.8900146,3.3600006,2.3800049,6.8600006,4.7999878,10.6600037,6.2600098,12.25,4.7099915,21.1399994-1.0299988,22.7299957-14.2999878l-.019989-.000061Z"/>
  <path class="st0" d="M38.5543938,164.5872498c-5.1100006-27.3099976-17.1000061-53.5299988-12-83.7099915-4.9799957,8.730011-7.0399933,16.9200134-5.6399994,25.3599854,3.3600006,20.1700134,9.7599945,39.4899902,17.6399994,58.3500061Z"/>
  <path class="st0" d="M101.5243988,77.0772476c.6399994-3.1499939,1.7299957-6.2799988,1.8500061-9.4500122.3600006-9.5,4.8600006-15.9100037,13.5200043-19.5799866,7.7899933-3.2999878,15.5500031-6.6499939,23.3200073-10,1.019989-.4400024,1.9899902-1.0099945,2.7900085-2.0399933-11.8399963,1.8000031-23.3999939,4.1399994-34,10.3499908-8.1699982,4.7900085-10.1000061,11.6799927-9.1399994,20.2600098.3800049,3.4200134.5899963,6.8599854.8800049,10.2999878.2599945.0499878.5299988.1099854.7899933.1600037h-.010025Z"/>
  <path class="st0" d="M206.9544067,137.2272339c-.0899963.8599854-.2200012,1.2099915-.1400146,1.5,2.480011,9.1199951,2.5799866,9.2799988-5.6799927,14.519989-6.2999878,4-12.9500122,7.4299927-19.3399963,11.2999878-3.4200134,2.0700073-6.6199951,4.5100098-9.5899963,7.2799988,11.8500061-4.2999878,24.1300049-7.2099915,34.1300049-15.519989,8.3900146-6.980011,8.9200134-10.9400024.6199951-19.0700073v-.0099792Z"/>
  <path class="st0" d="M149.444397,40.0072556c-10.9500122,3.5200043-22.1499939,6.4199982-32.7700043,10.7500153-8.6499939,3.519989-11.3999939,13.0700073-7.5,22.6400146-.1000061-13.0799866,8.6800079-17.8299866,18.9600067-21.6600037,7.519989-2.7999878,14.7000122-6.5299988,22.0400085-9.8399963-.2399902-.6300049-.480011-1.2599945-.730011-1.8899994v-.0000305Z"/>
  <path class="st0" d="M127.2644043,262.7872314c-5.0700073-2.769989-9.2100067-5.0299988-13.0700073-7.1300049.3099976,3.1900024,2.1100006,6.3699951,6.2200012,8.2200012,9.2100067,4.1300049,18.3699951,8.3999939,27.5899963,12.519989,3.4599915,1.5499878,6.75,1.769989,8.4500122-1.1099854-3.0100098-1.4299927-6-2.6799927-8.8299866-4.230011-4.7600098-2.6000061-9.1700134-6.1300049-14.2100067-7.8399963-3.7700043-1.2799988-4.9299927-3.1700134-5.3899994-6.519989-.2599945-1.8900146-.8500061-3.7399902-1.3000031-5.6099854-.4100037.0799866-.8200073.1600037-1.2200012.2399902.4900055,3.1900024.9900055,6.3800049,1.7700043,11.4500122l-.0100098.0099792Z"/>
  <path class="st0" d="M606.6643677,388.1072388c4.2800293.289978,8.6599731,1.289978,12.8099976.7000122,6.7199707-.9500122,8.8400269-6.2700195,4.4699707-12.2299805,1.1699829,4.8099976-.210022,7.3200073-4.2999878,8.039978-5.6199951.9799805-12.1799927-1.7700195-15.0200195-7.2700195,5.4899902-.5700073,10.5499878-1.0999756,15.6099854-1.6199951.0499878-.2299805.0900269-.460022.1400146-.6900024-3.960022-.8599854-7.8800049-2.0499878-11.8800049-2.4799805-3.5499878-.3800049-7.8400269.25-8.3599854,4.3900146-.3400269,2.710022,1.7999878,5.8699951,3.2299805,8.6099854.6199951,1.1799927,2.2700195,1.8300171,3.460022,2.7199707l-.1699829-.1500244.0100098-.0199585Z"/>
  <path class="st0" d="M169.5243835,59.6072464c5.1400146-3.3299866,7.1600037-.1099854,8.9299927,3.6300049,4.9700012,10.4899902,9.9100037,20.9899902,14.9100037,31.4599915,1.3399963,2.8099976,2.8800049,5.5299988,4.6199951,8.1499939-1.4299927-13.2399902-6.6300049-25.0700073-13.2000122-36.3999939-1.25-2.1499939-2.7799988-4.1600037-3.8099976-6.4100037-2.6199951-5.7200012-7.5299988-6.6199951-11.4500122-.4400024l.0000305.0100098Z"/>
  <path class="st0" d="M157.6243896,129.7572327c1.8599854,18.269989-.5799866,37,6.519989,54.519989-.5700073-18.3999939,1.6000061-37.1199951-6.519989-54.519989Z"/>
  <path class="st0" d="M169.4943848,218.1472473c12.480011-5.8800049,24.9700012-11.7600098,37.9700012-17.8899841,0-.730011-.019989-2.3599854-.0400085-4.5599976-14.4500122,5.0400085-27.2099915,11.730011-38.6499939,20.8599854.2399902.5299988.480011,1.0599976.7200012,1.6000061v-.0100098Z"/>
  <path class="st0" d="M153.0043945,120.6072464c-.2900085-16.769989-8.6199951-30.3200073-17.5400085-43.6300049l-1.2000122.480011c5.8299866,14.4700012,11.6700134,28.9400024,17.5,43.4100037.4100037-.0899963.8200073-.1799927,1.230011-.2600098h.0100098Z"/>
  <path class="st0" d="M49.5343895,107.7672501c2.5500031.5700073,5.1000061,1.1300049,8.75,1.9400024-1.3500061-1.1900024-1.7899933-1.8599854-2.3899994-2.0700073-3.25-1.1600037-6.5500031-2.2000122-9.8300018-3.2799988-.7299957,3.730011-2.9400024,7.9500122-1.8999939,11.0899963,2.6900024,8.0499878,6.8200073,15.6099777,10.3699951,23.3600082.5399933-.2000122,1.0700073-.4100037,1.6100006-.6099854-2.8300018-9.8800049-5.6499939-19.769989-8.4799957-29.6499939.6199951-.2600098,1.25-.519989,1.8699951-.769989,0,0,0-.0100403,0-.0100327Z"/>
  <path class="st0" d="M83.8643951,6.0372524c-15.6000061,1.6199951-28.8500061,8.9100037-43.0800018,17.5299988,16.7299957-2.5399933,30.0899963-9.5399933,43.0800018-17.5299988Z"/>
  <path class="st0" d="M202.6243896,172.4772339c.2399902,1.269989.5499878,2.9899902.8699951,4.7099915.1900024-.019989.3800049-.0400085.5599976-.0700073-.0400085-4.6199951-.0700073-9.2399902-.1099854-13.8500061-.4400024-.2399902-.8699951-.4899902-1.3099976-.730011-.3900146,5.8699951-4.9100037,6.4400024-8.6499939,8.3099976-7.8200073,3.8999939-15.4299927,8.2399902-23.1199951,12.3999939.269989.6000061.5400085,1.2000122.8099976,1.7999878,10.1900024-4.1400146,20.3800049-8.2799988,30.9500122-12.5700073l-.0000305.000061Z"/>
  <path class="st0" d="M80.1743927,97.8272476c-14.0500031-4.75-28.1000061-9.4899902-42.1500092-14.2399902-.1699982.5400085-.3399963,1.0700073-.5099945,1.6099854,12.8399963,8.769989,27.2200012,12.5,42.7299957,12.5799866.0200043-.0100098-.0700073.0599976-.0700073.0599976l.0000153-.0099792Z"/>
  <path class="st0" d="M13.074399,141.57724c-.1300049-.5-.1399994-.769989-.2200012-.7999878-3.3600006-1.1099854-6.7200012-2.2000122-10.0800018-3.2900085-.8899994,3.3699951-1.8600006,6.7200012-2.6299973,10.1099854-.25,1.1000061-.0199966,2.3200073.0299988,3.4899902.3499985,8.2399902,1.6500015,9.7200012,9.7099991,11.0400085,2.3000031.3800049,4.6100006.6900024,6.8999929,1.0799866,2.0700073.3500061,4.1199951.7799988,6.1799927,1.1700134l.5099945-1.4100037c-4.5399933-1.7399902-9-3.730011-13.6399994-5.1400146-4.2799988-1.3099976-8.8199997-7.1700134-8.25-11.4400024.6600037-4.9100037,2.2300034-6.0400085,7.2100067-5.25,1.3800049.2200012,2.7799988.2999878,4.2899933.4500122,0,0-.0099792-.0099792-.0099783-.0099792Z"/>
  <path class="st0" d="M79.8244019,45.1172562c-13.3500061-10.6399994-27.3200073-13.5200043-43.5299988-11.3600006,14.6999969,3.8399963,28.4900055,7.4400024,43.5299988,11.3600006Z"/>
  <path class="st0" d="M50.9343987,155.3572388c-2.2100067-14-3.4199982-28.3099976-12.3300018-40.230011-.5299988.1600037-1.0500031.3299866-1.5800018.4899902,4.1199951,13.3999939,8.2400055,26.8099976,12.3600006,40.2099915.5099945-.1600037,1.0299988-.3200073,1.5399933-.480011l.0100098.0100403Z"/>
  <path class="st0" d="M189.7443848,107.7272415c-13.230011,2.519989-24.9500122,8.1099854-35.1799927,16.75,12.5299988-3.9400024,24.7999878-8.4100037,35.1799927-16.75Z"/>
  <path class="st0" d="M136.1243896,238.3572388c-7.0800018-3.3399963-9.2599945-8.8900146-6.3899994-13.3999939-.3200073-.0400085-.7200012-.2200012-.9499969-.0899963-3.5899963,1.9500122-4.2899933,5.7099915-2.0099945,11.3299866,1.6000061,3.9400024,4.0500031,7.5100098,8.780014,6.2200012,1.8299866-.5,4.230011-3.8500061,4.0700073-5.6900024-.3099976-3.4599915-2.2999878-6.7600098-4.6300049-9.6799927.3500061,3.519989.7099915,7.0400085,1.1300049,11.3200073l-.0000305-.0100098Z"/>
  <path class="st0" d="M61.8343925,113.8272476c.9700012,9.8999939,1.8399963,18.7399826,2.7400093,27.8600082-2.3699951.3900146-3.9299927.6499939-5.6000061.9200134,5.5700073,3.6000061,8.0700073,2.7000122,8.8399963-3.3299866,1.1199951-8.730011.5099945-17.1600037-5.9799957-25.4500122,0,0,0-.0000305-.0000038-.0000229Z"/>
  <path class="st0" d="M195.2243958,111.3072586c-8.8900146,1.2200012-20.8699951,8.4200134-30,17.9500046,10.8099976-3.8699951,20.5299988-9.6099854,30-17.9500046Z"/>
  <path class="st0" d="M140.7743835,10.0772457c2.9100037,4.2100067,6.5299988,6.2799988,12.0400085,6.2799988,3.4400024,0,6.9400024,2.4199982,10.3099976,3.9799957,1.8699951.8699951,3.519989,2.1999969,5.7999878,3.6600037-4.5700073-9.9700012-9.1900024-12.6199951-18.8900146-12.1999969-3.0899963.1300049-6.2399902-1-9.3699951-1.5599976l.1099854-.1600037h.0000305Z"/>
  <path class="st0" d="M195.6343994,150.5072327c-8.9100037,2.6099854-16.8599854,11.7999878-27.6199951,3.6300049,1.1400146,4.8599854,4.2900085,6.75,8.5299988,7.1700134,7.2600098.7200012,15.9500122-4.2399902,19.0899963-10.7999878v-.0000305Z"/>
  <path class="st0" d="M15.8143892,44.2872391c7.2700033-6.5299988,14.749999-13.25,23.0599966-20.7099915-12.5500031,2.7700043-21.4799957,11.2700043-23.0599966,20.7099915Z"/>
  <path class="st0" d="M162.8644104,61.0172501c-10.5100098.6799927-19.25,5.3399963-27.0799866,12.0400085.1900024.4299927.3800049.8599854.5799866,1.2900085,9.0299988-4.0100098,18.0499878-8.019989,27.0799866-12.0299988-.1900024-.4299927-.3800049-.8599854-.5799866-1.2999878v-.0000305Z"/>
  <path class="st0" d="M634.7144165,400.1072388c15.0900269-9.2700195,18.6799927-15.2700195,15.5599976-22.8800049-4.710022,6.9299927-9.8200073,14.4400024-15.5599976,22.8800049Z"/>
  <path class="st0" d="M103.194397,5.6872463c1.9199982-1.2299957,3.7100067-2.3699951,5.6399994-3.6000061-8.0800018-3.7899933-15.6699982-2.5099945-23.6399994,4.5899963,5.1100006-1.3999939,9.0399933-2.4700012,11.5500031-3.1600037,2.8200073,2.3200073,4.7899933,3.9400024,6.7599945,5.5599976.3300018-.3699951.6600037-.7400055.9799957-1.1000061-.4100037-.7299957-.8200073-1.4600067-1.2799988-2.2899933l-.0099945.0000153Z"/>
  <path class="st0" d="M108.3043976,23.8572445c-1.9199982-.6100006-4.0099945-2.0200043-5.7400055-1.6799927-7.5599976,1.5099945-15.0200043,3.5399933-22.3600006,6.0399933,9.6600037,2.9100037,18.1399994-3.4499969,28.1000061-4.3600006Z"/>
  <path class="st0" d="M37.4643974,110.2272415c.7899933-10.1700134-10.5399933-15.8699951-6.2700043-25.75-4.4799957,2.7799988-5.8000031,6.8599854-3.0099945,11.980011,2.5099945,4.6000061,5.8500061,8.75,9.2799988,13.769989Z"/>
  <path class="st0" d="M134.194397,5.2472439c-7.3999939-6.0899963-13.4700012-5.7200012-24.75,2.1799927,8.1499939-.7200012,16.8099976-1.4799957,24.75-2.1799927Z"/>
  <path class="st0" d="M112.6643982,251.3972473c-1.7100067-9.25-3.4100037-18.4899902-5.1199951-27.7399902-4.0200043,10.3500061-.6399994,19.2799988,5.1199951,27.7399902Z"/>
  <path class="st0" d="M195.9043884,105.4272537c5.9400024,7.4400024,3.0700073,17.1700134,7.9700012,24.1099777,1.3900146-6.1300049.0799866-16.6199951-3.1199951-21.3399963-.9400024-1.3800049-3.1900024-1.8699951-4.8399963-2.7600098,0,0-.0100098-.0099792-.0100098-.0099716Z"/>
  <path class="st0" d="M177.1444092,36.4572525c-.2999878-5.0899963-2.4400024-9.0800018-6.7799988-10.9199982-5.6600037-2.3899994-9.1700134,1.9900055-13.0299988,5.4400024,3.8800049-.7200012,7.8399963-2.6199951,11.0400085-1.7400055,3.230011.8999939,5.7099915,4.5399933,8.769989,7.2100067v.0099945Z"/>
  <path class="st0" d="M40.9843864,58.0872574c8.0200043,1.6499939,15.8800049,3.2600098,23.8300056,4.8900146-4.6199951-6.6499939-18.2700043-8.8099976-23.8300056-4.8900146Z"/>
  <path class="st0" d="M176.674408,147.2872314c7.8399963-2.8500061,16.1900024-4.7600098,22.0400085-11.3200073-.25-.4899902-.5100098-.980011-.7600098-1.4599915-7.4599915,3.7900085-14.9200134,7.5799866-22.3800049,11.3699951l1.1000061,1.4200134v-.0100098Z"/>
  <path class="st0" d="M64.5744019,167.0672302c6.0299988,4.9400024,11.9700012,10.0499878,20.0599976,11.2200012.2299957-.4100037.4700012-.8200073.6999969-1.230011-6.6300049-3.9299927-13.25-7.8500061-19.8800049-11.7799988-.2899933.6000061-.5899963,1.1900024-.8800049,1.7900085h.0000153Z"/>
  <path class="st0" d="M377.3443909,271.6872559c-3.0299988,5.7000122-6.0499878,11.3999939-9.0799866,17.0899963.480011.2600098.9500122.519989,1.4299927.7799988,5-4.6000061,7.2600098-10.730011,9.0299988-17.1199951-.4599915-.25-.9200134-.5-1.3800049-.75Z"/>
  <path class="st0" d="M505.2443848,317.7272339c-2.9099731,6.0800171-5.8200073,12.1599731-8.7299805,18.2299805l2.0800171,1.0200195c2.9299927-5.9799805,5.8699951-11.9699707,8.7999878-17.9500122-.7199707-.4299927-1.4299927-.8599854-2.1500244-1.2999878Z"/>
  <path class="st0" d="M533.5543823,347.9772339c2.7800293-5.4500122,5.5599976-10.8900146,8.3400269-16.3400269l-2.25-1.1400146c-2.7399902,5.4699707-5.4799805,10.9400024-8.2199707,16.4000244.710022.3599854,1.4199829.7199707,2.1300049,1.0800171h-.000061Z"/>
  <path class="st0" d="M166.0343933,240.4972534c.5100098-5.9899902,1.019989-11.9700012,1.5299988-17.9599915l-2.3399963-.1799927c-.4400024,5.9899902-.8900146,11.980011-1.3299866,17.9700012.7099915.0599976,1.4299927.1099854,2.1400146.1700134l-.0000305-.0000305Z"/>
  <path class="st0" d="M140.6643982,10.2372494c-.7799988-.5500031-1.75-1.7299957-2.2999878-1.5500031-2.6400146.8300018-5.2299957,1.8899994-7.6999969,3.1399994-1.3500061.6900024-2.4299927,1.9100037-3.6399994,2.8899994,1.2200012.8999939,2.4100037,1.8500061,3.6900024,2.6600037.5200043.3300018,1.2299957.3399963,2.6100006.6699982-1-1.25-1.6000061-2-2.2200012-2.7700043,3.3499908-1.8000031,6.5200043-3.5099945,9.6800079-5.1999969l-.1199951.1600037h-.0000305Z"/>
  <path class="st0" d="M218.8244019,189.3772278c.5899963,5.8599854,1.1900024,11.7099915,1.7799988,17.5700073.769989-.0899963,1.5400085-.1700134,2.3099976-.2600098-.6300049-5.8500061-1.2600098-11.7000122-1.8900146-17.5599976-.7399902.0799866-1.4700012.1600037-2.2099915.25h.0100098Z"/>
  <path class="st0" d="M70.6343994,21.897253c4.6999969-1.8399963,9.3899994-3.6699982,14.0899963-5.5099945-.0800018-.6100006-.1499939-1.2100067-.2299957-1.8200073-1.3000031-.7599945-2.5899963-1.5099945-3.8899994-2.2700043.1600037.4499969.3300018.8899994.4900055,1.3399963-3.8000031,2.3500061-7.6000061,4.7100067-11.3999939,7.0599976.3099976.3999939.6199951.8000031.9400024,1.1999969l-.0000153.0000153Z"/>
  <path class="st0" d="M158.0243835,252.5172424c.3500061,5.269989.7000122,10.5499878,1.0499878,15.8200073.7000122-.0499878,1.3900146-.0899963,2.0899963-.1400146-.3399963-5.269989-.6799927-10.5299988-1.0100098-15.7999878-.7099915.0400085-1.4100037.0799866-2.1199951.1199951h-.0099792Z"/>
  <path class="st0" d="M277.7044067,253.6972351c2.8200073-3.4599915,5.6400146-6.9100037,8.4599915-10.3699951-.5700073-.4500122-1.1400146-.8999939-1.7099915-1.3500061-2.730011,3.519989-5.4599915,7.0499878-8.1900024,10.5700073.480011.3800049.9700012.7600098,1.4500122,1.1499939h-.0100098Z"/>
  <path class="st0" d="M131.2343903,245.6172485c.4199982,4.6499939.8300018,9.2999878,1.25,13.9500122.6100006-.0499878,1.2200012-.1000061,1.8199921-.1499939-.3800049-4.6000061-.7599945-9.2099915-1.1300049-13.8099976-.6499939,0-1.2899933.0100098-1.9400024.019989l.0000153-.0100098Z"/>
  <path class="st0" d="M646.6544189,415.4372559c5.5900269-5.0100098,8.6400146-10.9799805,6.8400269-18.7399902-6.4799805,4.5999756-4.4299927,12.539978-6.8400269,18.7399902Z"/>
</svg>