<?xml version="1.0" encoding="UTF-8"?>
<svg id="Layer_1" xmlns="http://www.w3.org/2000/svg" version="1.1" viewBox="0 0 285.1277321 494.0466565">
  <!-- Generator: Adobe Illustrator 29.1.0, SVG Export Plug-In . SVG Version: 2.1.0 Build 142)  -->
  <defs>
    <style>
      .st0 {
        fill: #f9cb8f;
      }
    </style>
  </defs>
  <path class="st0" d="M285.1277321,53.2699738c0-5.6600037-3.8500061-10.4700012-8.4500122-10.4400024-7.7999878.0599976-15.5499878.7899933-23.3200073,1.5800018-7.9100037.8000031-15.8099976,1.7200012-23.7000122,2.7200012-16.6199951,2.1100006-33.1399841,5.1200104-49.6499939,8.2100067-16.3399963,3.0599976-32.6600037,6.2000122-49.0100098,9.1799927-8.7099915,1.5899963-17.4200134,3.1600037-26.1499939,4.5599976-7.9200134,1.2799988-15.8800049,2.2099915-23.8500061,2.9200134-2.9200134.2399902-5.8500061.4700012-8.769989.6799927-8.5899963.6199951-17.1900024,1.1900024-25.7799988,1.8699951-4.3200073.3399963-8.6400146.75-12.9599915,1.1900024-1.9899902.2099915-3.9799957.4100037-5.9600067.6600037-1.0299988.1300049-2.0599976.230011-3.0899963.4100037-.8800049.1600037-1.75.3599854-2.6199951.5899963-1.5299988.3999939-2.9199982,1.519989-4.0500031,2.7999878-2.7100067,3.0700073-3.3899994,8.7399902-1.4499969,12.6199951.9700012,1.9400024,2.3500061,3.7600098,4.1399994,4.5400085.4400024.1900024.8699951.3800049,1.3099976.5599976,1.8099976.769989,3.9600067.4299927,5.7100067-.5400085,3.0800018-.4700012,6.1899872-.730011,9.280014-1.0499878,3.3800049-.3500061,6.7600098-.6400146,10.1400146-.9400024,6.8299866-.5100098,13.6600037-1.019989,20.5-1.4899902,8.5400085-.5899963,17.1199951-1.1199951,25.6399841-2.1900024,8.6000061-1.0799866,17.1600037-2.4200134,25.7200012-3.8999939,16.2999878-2.8099976,32.5499878-5.9899902,48.8200073-9.0400085,16.7900085-3.1600037,33.5799866-6.4200134,50.4299927-9.0100098,15.7900085-2.4299927,31.6499939-4.2399902,47.519989-5.6199951,3.7099915-.2799988,7.4200134-.4200134,11.1400146-.4500122,4.6000061-.0299988,8.4500122-4.730011,8.4500122-10.4400024l.0099792.0200195Z"/>
  <path class="st0" d="M273.6677406,140.8799896c0-2.7000122-.8800049-5.3500061-2.3999939-7.2799988-1.5-1.9100037-3.8500061-3.3200073-6.0499878-3.1499939-5.9400024.4500122-11.8800049.8999939-17.8099976,1.3900146-.3299866,0-.6600037.0299988-.980011.0799866-8.2200012.6900024-16.4299927,1.480011-24.6199951,2.5299988-16.0299988,2.0499878-31.9599915,5.1199951-47.9400024,7.6000061-16.3200073,2.5299988-32.7000122,4.4899902-49.0499878,6.6300049-8.2000122,1.0700073-16.4100037,2.1700134-24.6199951,3.1700134-8.5,1.0299988-17.0100098,1.8900146-25.5299988,2.6499939-8.2799988.730011-16.5499878,1.4200134-24.8299866,2.25-7.519989.75-15,1.8900146-22.5200043,2.7000122-.8099976.0400085-1.5899963.1499939-2.3899994.3699951-4.0800018,1.1600037-6.7400055,6.4400024-6.2100067,11.4400024.4700012,4.4299927,3.5299988,8.6199951,7.2599945,8.980011.4900055.0499878.9900055.0599976,1.4900055.0499878-.0700073,0-.1399994.0100098-.2100067.019989h.3999939c.25,0,.5099945-.019989.7599945-.0599976,1.1399994-.0799866,2.2799988-.2600098,3.4199982-.3999939,1.4700012-.1900024,2.9400024-.3699951,4.4100037-.5599976,8.3299866-1.0599976,16.6600037-1.9500122,25.0100098-2.7399902,7.9599915-.7399902,15.9299927-1.3500061,23.8900146-2.1099854,16.7900085-1.6000061,33.5400085-3.9700012,50.2900085-6.1700134,16.269989-2.1300049,32.5499878-4.1199951,48.7600098-6.8099976,15.9200134-2.6499939,31.8200073-5.480011,47.8200073-7.269989,3.8599854-.4299927,7.7200012-.8399963,11.5799866-1.1799927,1.519989-.1400146,3.1600037-.1199951,4.730011-.3999939.2000122-.019989.3900146-.0299988.5899963-.0499878,1.75-.1400146,3.5-.2799988,5.25-.4100037,3.6900024-.2799988,7.3699951-.5400085,11.0599976-.8200073,2.2399902-.1700134,4.2600098-1,5.8999939-2.9700012,1.6199951-1.9400024,2.5499878-4.6799927,2.5499878-7.4700012l-.0100403-.0100708Z"/>
  <path class="st0" d="M271.7677467,239.1699677c0-.4200134-.019989-.8399963-.0700073-1.2600098-.2900085-2.6700134-1.4299927-5.1499939-3.1400146-6.8299866-1.8299866-1.7900085-4.0499878-2.3999939-6.3399963-2.1600037-9.5,1.0100098-18.9700012,2.4200134-28.4200134,4.019989-16.0799866,2.7099915-32.0799866,6.1499939-48.2000122,8.5299988-16.5,2.4400024-33.0400085,4.480011-49.5499878,6.7399902-16.3800049,2.25-32.75,4.7000122-49.1300049,6.9400024-16.3699951,2.230011-32.7799988,4.0599976-49.2200012,5.480011-3.2600098.25-6.5499878.5799866-9.8200073.4700012-4.4700012-.6499939-8.6600037,3.5299988-9.25,9-.5599976,5.1000061,2.1100006,10.0799866,6.1300049,11.4400024.0399933.0100098.0800018.019989.1100006.0400085.5899963.2000122,1.1900024.3200073,1.7899933.3599854,1.4499969.1600037,2.9600067.0400085,4.3999939-.019989,1.7399902-.0799866,3.4899902-.1700134,5.230011-.2999878,3.8200073-.2799988,7.6400146-.6300049,11.4500122-1,6.7900085-.6700134,13.5700073-1.3500061,20.3399963-2.1199951,17.0799866-1.9400024,34.1000061-4.5299988,51.1300049-6.9500122,16.4899902-2.3399963,32.9899902-4.5599976,49.5-6.7600098,7.9899902-1.0700073,15.980011-2.0599976,23.9400024-3.3599854,8.1600037-1.3299866,16.2900085-2.8599854,24.4200134-4.3800049,15.730011-2.9400024,31.4899902-5.7399902,47.3500061-7.4200134,4.230011-.4500122,7.3500061-5.4100037,7.3500061-10.4500122v-.0099792Z"/>
  <path class="st0" d="M268.6077431,341.5399933c0-5.5100098-3.8500061-10.6599731-8.4500122-10.4299927-6.9599915.3400269-13.9100037.9199829-20.8500061,1.6300049-16.3800049,1.6699829-32.7200012,3.9899902-49.0899963,5.9199829-16.3399963,1.9299927-32.6900024,3.4799805-49.0700073,4.8200073-9.0400085.7199707-18.0799866,1.4299927-27.1099854,2.3099976-16.75,1.6300049-33.4199829,4.1500244-50.1199951,6.3699951-8.1099854,1.0800171-16.2200012,2.0499878-24.3500061,2.8200073-4.2399902.4000244-8.480011.7700195-12.7200012,1.1900024-2.1300049.210022-4.2700043.4400024-6.3999939.7000122-2.0500031.2399902-4.1999969.3900146-6.1900024,1.039978-3.6600037,1.1900024-6.2799988,5.4199829-6.2799988,10.0900269,0,4.25,2.0800018,7.8099976,5.1199951,9.5900269.8699951.5100098,1.7899933.6199951,2.6999969.8300171-.1900024-.0499878-.3800049-.0999756-.5700073-.1400146,1.5700073.3499756,3.1300049.2700195,4.6000061-.3800049,1.7400055-.2700195,3.5-.4299927,5.2400055-.6099854,2.9299927-.3200073,5.8599854-.5999756,8.7900085-.8699951,8.3599854-.7800293,16.7000122-1.6199951,25.0400085-2.6199951,8.2399902-.9899902,16.4599915-2.1799927,24.6900024-3.3200073,8.3800049-1.1599731,16.7600098-2.2800293,25.1499939-3.210022,8.019989-.8900146,16.0499878-1.5700073,24.0799866-2.2399902,7.1099854-.5700073,14.2099915-1.1300049,21.3099976-1.7299805,16.5700073-1.4199829,33.1100159-3.2299805,49.6300049-5.289978,15.8500061-1.9799805,31.6900024-4.1400146,47.5799866-5.4799805,2.9400024-.2199707,5.8800049-.3900146,8.8200073-.5300293,2.2200012-.1099854,4.2900085-1.0200195,5.8999939-2.960022,1.6199951-1.9500122,2.5499878-4.6799927,2.5499878-7.4699707l.0000305-.0300903Z"/>
  <path class="st0" d="M280.5877541,431.5699615c0-.4400024-.019989-.8800049-.0700073-1.3200073-.6000061-5.6400146-4.9200134-9.7199707-9.480011-8.9899902-.5299988.0900269-1.0700073.1699829-1.6000061.25-7.8500061,1.2299805-15.7600098,1.8699951-23.6300049,2.8200073-7.9899902.960022-15.9700012,1.9500122-23.9500122,3.0100098-16.1300049,2.1500244-32.269989,4.3400269-48.4500122,5.7399902-5.9500122.4500122-11.8999939.789978-17.8500061,1.1799927-16.9700012,1.1099854-33.8999939,2.9799805-50.8500061,4.3900146-5.3099976.4099731-10.6300049.789978-15.9400024,1.2199707-.3599854,0-.7200012.0300293-1.0799866.0900269-.25,0-.5.0200195-.75.0499878-.5599976.0300293-1.1099854.0999756-1.6600037.1500244-.0499878,0-.0899963,0-.1400146.0100098-.0700073,0-.1400146,0-.2099915.0100098-.0799866,0-.1700134.0100098-.25.0200195-.0599976,0-.1300049.0100098-.1900024.0200195h-.1300049c-1.019989.0900269-2.0400085.1699829-3.0599976.2600098-8.4299927.7199707-16.8599854,1.5-25.2999878,2.2000122.3699951-.0300293.7399902-.0599976,1.1000061-.0900269-8.3200073.6199951-16.6300049,1.0700073-24.9500122,1.4699707-4.1199951.2000122-8.25.4299927-12.3600006.8300171-3.1000061.2999878-6.1799927.710022-9.2700043,1.0800171-.8000031-.1599731-1.6100006-.1699829-2.3800049,0-.5700073.1400146-1.1399994.2600098-1.6999969.4199829-2.2599945.6400146-3.9600067,2.5599976-5.2299957,4.8400269-1.6799927,3.0100098-1.5099945,7.4199829-.0899963,10.5,1.3200073,2.8699951,3.6199951,4.6699829,6.2299957,5.1900024,1.7799988.3599854,3.6699982-.0599976,5.4600067-.289978,1.0800018-.1400146,2.1699982-.2800293,3.25-.4199829,2.1600037-.2700195,4.3200073-.4899902,6.4900055-.7000122,4.0800018-.3099976,8.1600037-.5300293,12.2499847-.7199707,8.3299866-.4000244,16.6700134-.8800049,24.9899902-1.5599976,8.2200012-.6699829,16.4299927-1.4699707,24.6400146-2.1500244.2999878,0,.5899963-.0300293.8800049-.0700073.1300049,0,.2600098,0,.3800049-.0100098.6199951.0200195,1.2399902-.0300293,1.8599854-.1500244.3900146-.039978.769989-.0800171,1.1499939-.1099854-.1000061,0-.2099915.0200195-.3099976.0200195.1700134-.0100098.3299866-.0300293.4899902-.0499878h.1600037c.0799866,0,.1600037-.0200195.230011-.0300293.25,0,.5-.0200195.75-.039978-.3699951.0300293-.7399902.0599976-1.1000061.0900269,1.6799927-.1300049,3.3599854-.2600098,5.0400085-.3900146,8.269989-.6300049,16.5299988-1.25,24.7900085-2.0200195,8.5-.789978,17-1.6300049,25.5100098-2.3699951,10.5700073-.8300171,21.1600037-1.3200073,31.730011-2.210022,8.2099915-.7000122,16.4100037-1.6599731,24.6000061-2.7000122,8.3299866-1.0599976,16.6600037-2.0900269,24.9899902-3.2000122,7.8999939-1.0499878,15.8099976-2.0200195,23.7099915-2.960022,7.9899902-.960022,16-1.6500244,23.9599915-2.9199829,4.2000122-.6699829,7.3500061-5.2600098,7.3500061-10.3800049l-.0099487-.0100708Z"/>
  <path class="st0" d="M102.7377479,478.8000031c0-.4000244-.019989-.7999878-.0599976-1.210022-.3399963-3.710022-.6000061-7.4400024-.8500061-11.1599731-1.3299866-19.5599976-2.3900146-39.1500244-3.6400146-58.7200317-.3200073-5.0800171-.6499939-10.1400146-.9700012-15.2199707-.1799927-2.8300171-.3500061-5.6599731-.519989-8.4899902-.0899963-1.539978-.1099854-3.0999756-.25-4.6199951,0-.3499756,0-.7000122-.0299988-1.0499878,0-.5300293-.0499878-1.0599976-.1099854-1.5900269-.0100098-.25-.019989-.5-.0400085-.75,0-.5800171-.0299988-1.1699829-.0899963-1.75,0-.0900269-.0100098-.1799927-.019989-.2700195,0-.2700195-.019989-.539978-.0499878-.7999878-.2600098-5.1599731-.519989-10.3099976-.75-15.4699707-.9100037-20.3499756-1.6300049-40.7200317-2.0899963-61.0899963-.4700012-20.6900024-.6400146-41.3899841-1.769989-62.0400085-.5700073-10.4200134-1.25-20.8299866-2.1499939-31.2099915-.8900146-10.2600098-1.8699951-20.5100098-2.7799988-30.7799988-1.7900085-20.2999878-3.3299866-40.6400146-5.6199951-60.8699951-2.2200012-19.6499939-5.3299866-39.1300049-6.4700012-58.9400024-.1600037-3.3599854-.3099976-6.7200012-.4200134-10.0800018-.1099854-3.1399994-.3099976-6.3200073-.3200073-9.4700012.1499939-1.2799988.1000061-2.5899963-.1900024-3.9299927-.5599976-2.6100006-1.9599915-4.8899994-3.8399963-6.2799988-1.9400024-1.4299927-4.3200073-1.8399963-6.5-1.1199951-2.019989.6699982-4.1099854,2.3999939-5.0899963,4.7400055-.5599976,1.3600006-1.0599976,2.7200012-1.1900024,4.2599945-.1199951,1.3200073-.0799866,2.6000061-.0299988,3.9100037.0700073,2.2599945.1499939,4.5200043.2200012,6.7899933.1499939,4.5299988.3299866,9.0700073.5899963,13.6000061,1.1300049,20.2999878,4.3399963,40.269989,6.6199951,60.3999939,2.2799988,20.1700134,3.7799988,40.4400024,5.5700073,60.6799927.9100037,10.25,1.8900146,20.4899902,2.7799988,30.7399902.8900146,10.2200012,1.5400085,20.4700012,2.1000061,30.7200012-.0299988-.4500122-.0499878-.8999939-.0700073-1.3599854.4599915,9.1300049.8200073,18.2600098,1.0100098,27.3999939.4299927,20.6700134.8200073,41.3399963,1.5,62,.3399963,10.210022.7399902,20.4099731,1.2000122,30.6199951.2200012,4.7999878.4400024,9.5999756.6799927,14.4000244.0700073,1.3099976.1300049,2.6099854.2000122,3.9199829,0,.3800049.019989.7600098.0599976,1.1400146,0,.2700195.019989.5300293.0400085.7999878,0,.289978.019989.5700073.0499878.8599854v.2000122c.0100098.25.0299988.5.0400085.7399902v.1099854c.019989.3300171.0299988.6500244.0499878.9699707,0,1.2999878.1400146,2.6199951.2099915,3.8900146.1499939,2.6699829.3099976,5.3499756.4700012,8.0200195.6000061,10,1.2799988,19.9899902,1.8900146,29.9899902.6099854,9.9000244,1.1799927,19.8099976,1.7900085,29.710022.6000061,9.7199707,1.1300049,19.4699707,2.0100098,29.1500244.519989,5.6400146,4.980011,9.7199707,9.480011,8.9799805,4.2900085-.7000122,7.3399963-5.3200073,7.3399963-10.5l.0099182.0299683Z"/>
  <path class="st0" d="M173.0177467,477.8600006c0-.4000244-.019989-.7999878-.0499878-1.2000122-1.480011-20.1799927-2.8999939-40.3699951-4.3800049-60.5599976-1.480011-20.2800293-3.3599854-40.5200195-4.5299988-60.8300171-.7200012-13.8900146-1.2200012-27.789978-1.8399963-41.6799927-.9299927-20.8099976-2.2000122-41.5899963-3.3399963-62.3699951-.7000122-13.730011-1.3299866-27.4700012-1.8500061-41.2200012-.769989-20.1199951-1.1600037-40.2600098-1.8500061-60.3800049-.7099915-20.8200073-1.519989-41.6300049-2.4299927-62.4400024-.4899902-11.0899963-1.0400085-22.1700134-1.769989-33.230011-.3399963-5.1699982-.7999878-10.3200073-1.2999878-15.4700012-.2200012-2.2200012-.4500122-4.4499969-.7999878-6.6399994-.3399963-2.1199951-.6199951-4.2700043-1.1300049-6.3399963-.4599915-1.8399963-1.0700073-3.6199951-2.0100098-5.1699982-1.1900024-1.9600067-2.7999878-3.1100006-4.6600037-3.8500061-3.2799988-1.3000031-6.730011.5200043-8.8800049,3.5899963-1.4500122,2.0700073-1.8200073,4.6199951-1.9599915,7.2400055-.1099854,2.1900024.6199951,4.5200043,1.7200012,6.3000031,1.8399963,12.3999939,2.4200134,25.0499878,3.1499939,37.6100159.6199951,12.9599915,1.1799927,25.9200134,1.7000122,38.8900146.8299866,20.7099915,1.6000061,41.4299927,2.1799927,62.1499939.5899963,21,1.2900085,41.9700012,2.2099915,62.9500122.8999939,20.480011,2.2099915,40.9400024,3.3200073,61.4100037,1,19.9199829,1.6700134,39.8599854,2.7099915,59.7800293.5499878,10.460022,1.3599854,20.9000244,2.2099915,31.3400269.8299866,10.2199707,1.6199951,20.4400024,2.3699951,30.6699829,1.480011,20.3300171,2.9100037,40.6599731,4.4100037,60.9799805.4200134,5.6599731,5.0599976,9.710022,9.480011,8.9899902,2.1600037-.3599854,4.1799927-1.7600098,5.5299988-3.8800049,1.2399902-1.9400024,1.7900085-4.2299805,1.7900085-6.6300049l-.0000305-.0100098Z"/>
  <path class="st0" d="M255.1577309,483.4599762c0-.4000244-.019989-.8099976-.0599976-1.2199707-.730011-7.7700195-1.7099915-15.5100098-2.5799866-23.2600098-.8999939-8.0300293-1.8800049-16.0499878-2.7999878-24.0800171-1.1099854-9.6699829-2.0100098-19.3699951-2.9899902-29.0499878-1-9.789978-1.7399902-19.5900269-2.2900085-29.4299927-.9200134-18.1099854-1.6400146-36.2200317-2.519989-54.3300171-.9899902-20.3200073-1.8999939-40.6499939-2.980011-60.9599915v-.0700073c0-.4299927-.019989-.8599854-.0700073-1.2900085,0-.1400146-.0100098-.269989-.019989-.4100037,0-.4500122-.0299988-.8999939-.0700073-1.3299866v-.1000061c-.019989-.4299927-.0400085-.8599854-.0700073-1.2900085,0-.4299927-.019989-.8699951-.0700073-1.3200073v-.2399902c0-.4100037-.019989-.8200073-.0599976-1.2099915v.1700134-.1700134c0-.0400085,0-.0799866-.0100098-.1199951,0-.2399902-.019989-.480011-.0299988-.7200012-.6799927-12.7900085-1.5499878-25.5599976-2.4299927-38.3399963-1.4200134-20.6399841-2.9899902-41.2600098-4.1199951-61.9299927-.3500061-7.1600037-.6799927-14.3099976-.9400024-21.4700012-.75-20.0499878-.8699951-40.1499939-.7399902-60.2200012.0700073-10.3200073.1600037-20.6399841.3099976-30.9599915.0700073-5.2700043.1499939-10.5399933.2200012-15.8099976.0400085-2.75.0700073-5.5.0899963-8.25.0299988-2.6799927.2200012-5.6799927-.3099976-8.3000031-.9200134-4.5299988-4.4299927-7.75-8.1700134-7.75-3.7600098,0-7.1499939,3.1900024-8.1499939,7.6699982h0c-.2099915.9499969-.3099976,1.9100037-.2900085,2.8600006v-.0800018c.1700134,4.75-.019989,9.5399933-.0799866,14.3000031-.0700073,5.0099945-.1400146,10.0200043-.2099915,15.0299988-.1300049,9.8100128-.230011,19.6299896-.2999878,29.4499969-.1300049,20.480011.0899963,40.9400024.7000122,61.3999939.6099854,20.5700073,1.9700012,41.1199951,3.4500122,61.6199951,1.5,20.7900085,2.9599915,41.5799866,4.1499939,62.3999939,0,.3999939.0299988.8099976.0700073,1.2099915,0,.1400146.0100098.2799988.019989.4100037,0,.4500122.0299988.8999939.0700073,1.3299866v.1000061c.019989.4299927.0400085.8500061.0700073,1.2900085,0,.4299927.019989.8599854.0700073,1.2999878,0,.0799866,0,.1600037.0100098.2399902v.0799866c0,.3800049.019989.75.0599976,1.1199951.769989,14.7399902,1.4200134,29.5,2.1600037,44.2399902,1.019989,20.5,1.9100037,41.0100098,2.8699951,61.5200195.4899902,10.4000244,1.0299988,20.7999878,1.9400024,31.1599731.8699951,9.8800049,1.9200134,19.7299805,2.9200134,29.5900269.9700012,9.5999756,2.1799927,19.1500244,3.2799988,28.7299805,1.0700073,9.3200073,2.25,18.6500244,3.1199951,28.0100098.5299988,5.6400146,4.980011,9.7199707,9.480011,8.9799805,4.2799988-.6900024,7.3399963-5.3099976,7.3399963-10.4899902l-.0401001-.0099487Z"/>
</svg>