<?xml version="1.0" encoding="UTF-8"?>
<svg id="Layer_1" xmlns="http://www.w3.org/2000/svg" version="1.1" viewBox="0 0 502.1445497 440.7864634">
  <!-- Generator: Adobe Illustrator 29.1.0, SVG Export Plug-In . SVG Version: 2.1.0 Build 142)  -->
  <defs>
    <style>
      .st0 {
        fill: #f7e1c4;
      }
    </style>
  </defs>
  <path class="st0" d="M497.6728301,194.9592153c4.4419252-3.5078401,5.8306953-9.5103346,2.9562558-13.1017903-4.8812008-6.0841835-10.2572303-11.7138993-15.6927647-17.3221328-5.5301345-5.7118977-11.1482365-11.3415717-16.8229386-16.9138323-11.9563084-11.7355455-24.5569571-22.834818-37.2141938-33.8766865-12.5283265-10.9270353-25.1070614-21.788792-37.5787948-32.7732742-6.6459147-5.850116-13.2761612-11.7126443-19.7853519-17.6962032-5.9130349-5.4222715-11.5761646-11.0928369-17.0728667-16.9075868-1.998048-2.1428668-3.994449-4.29975-5.9689352-6.4611848-5.8102975-6.3571121-11.5875686-12.7530601-17.4449517-19.0729882-2.9441912-3.179591-5.9433236-6.3157943-8.9659799-9.4333816-1.3981146-1.4315841-2.788407-2.8693649-4.2117353-4.2683218-.7403781-.727763-1.4572135-1.474118-2.2368216-2.1709006-.6709608-.591457-1.3670924-1.1502816-2.0867908-1.6904953-1.262143-.9528308-3.0025712-1.3495636-4.707435-1.4430912-4.0888689-.2241257-8.9600576,2.7562463-10.8027195,6.6834138-.921331,1.9635837-1.4943871,4.1745669-.9971589,6.0627508.1235832.4630662.2409628.9182767.3724016,1.3751392.5174817,1.8976794,2.1167963,3.3742733,3.9626243,4.1464919,2.277713,2.125873,4.409209,4.4054209,6.5753972,6.6321404,2.3694715,2.435681,4.6918574,4.9085461,7.022075,7.3752264,4.6331994,5.0440351,9.2663938,10.088113,13.8743985,15.1647993,5.7557743,6.3364741,11.4892398,12.7415066,17.6093155,18.7647783,6.1774987,6.0798837,12.5342793,11.9672066,19.0008944,17.7677919,12.3073329,11.0505767,24.8740545,21.8326155,37.3511806,32.7109183,12.8857098,11.2182215,25.8498846,22.3744394,38.3254412,33.9930139,11.6930437,10.8858607,22.942889,22.2108864,33.8614832,33.8102596,2.5190426,2.7380395,4.9282457,5.5628594,7.2572939,8.4636944,2.8744395,3.5914557,8.9490483,3.700033,13.4302036.1612125l-.0095264.0202389Z"/>
  <path class="st0" d="M421.8147598,240.2626308c2.1189478-1.6733577,3.6532504-4.0063369,4.2258657-6.395343.5693165-2.3609305.2194378-5.0790592-1.2774466-6.7002197-4.0345379-4.3827667-8.0690518-8.7655524-12.1287844-13.1156679-.2045123-.2589708-.4325862-.4993735-.6701438-.7195323-5.6359308-6.0233552-11.3441419-11.9768751-17.2439942-17.7535832-11.5435551-11.3097147-23.8256336-21.9087788-35.6756871-32.9127525-12.0999994-11.2398198-23.7898456-22.8799925-35.6023617-34.3850274-5.9217672-5.7721564-11.8732618-11.5335524-17.7462725-17.3569282-6.076289-6.0323801-12.0253804-12.1779642-17.9021487-18.3933787-5.7045132-6.0456451-11.3714244-12.1082303-17.1543976-18.0919147-5.2491773-5.4368072-10.7796581-10.6005248-16.0759305-16.0001599-.5334019-.6108839-1.1031291-1.1548562-1.7715936-1.6463443-3.4389807-2.4830294-9.2312432-1.2982504-12.8267312,2.216485-3.1853349,3.1143824-4.577153,8.1126369-2.5479909,11.2630307.2644555.4155328.5664795.8141324.8842148,1.2003247-.0433877-.0549412-.0946215-.1036667-.1458408-.1524232l.2478999.313912c.1549398.196198.3317611.3878512.5180993.5592535.7692981.8450899,1.6171041,1.6281812,2.4334877,2.436087,1.0601593,1.0358893,2.1124631,2.0779823,3.1726225,3.1138716,5.9944644,5.8803629,11.8555465,11.8660982,17.650509,17.9295194,5.5140173,5.7883212,10.9322354,11.6650509,16.4619589,17.4410077,11.6614363,12.1850446,23.902358,23.8614829,36.0098786,35.6432697,11.7550881,11.4484657,23.4064974,22.9915624,35.5639019,34.0459028,11.9462706,10.8515397,24.0214147,21.5757971,35.3423242,33.0231125,2.7297167,2.7627934,5.4437651,5.5379991,8.1028534,8.3565686,1.0519097,1.1060997,2.0526129,2.4055773,3.2453804,3.4641745.1396466.1445796.265258.2874883.4048857.432044,1.1944612,1.2866105,2.3888984,2.5732399,3.575504,3.8660541,2.5066542,2.7223523,4.9914176,5.4492374,7.4980718,8.1715897,1.52168,1.6525589,3.4249727,2.723462,5.9874092,2.7895817,2.5265053.0690245,5.2531992-.8992593,7.4427754-2.6283931l.0016809-.014121Z"/>
  <path class="st0" d="M343.500039,299.6876615c.3296231-.2603072.646834-.5362828.9454578-.835844,1.9156695-1.8823621,3.1554224-4.3140035,3.414065-6.697206.270633-2.5455332-.6265219-4.6658163-2.2341184-6.3142604-6.6803611-6.8295604-13.6560422-13.387678-20.7684233-19.8123716-12.0925011-10.9399013-24.7083364-21.3645986-36.5666813-32.5404345-12.1409231-11.4368526-23.9927299-23.1530036-35.998557-34.7092589-11.9174426-11.4604372-23.9856496-22.7890594-35.8952366-34.2557003-11.8955398-11.4649795-23.5019753-23.2092478-34.8052112-35.2311814-2.2166194-2.4034895-4.5145848-4.7809255-6.4548943-7.4153749-2.260215-3.9108607-8.1374326-4.6085514-12.7959012-1.6814914-4.3495074,2.7212948-6.6029996,7.9030771-5.1788939,11.9008266.0169306.0375901.0338947.0751732.0367755.1111233.2086878.5869838.4863759,1.1322318.8268514,1.6278766.7730795,1.2371097,1.8030934,2.3477851,2.7426245,3.4406913,1.141148,1.3159579,2.2963792,2.6335488,3.4767761,3.9185502,2.5872259,2.8243791,5.2293931,5.6053705,7.8810438,8.3661179,4.7339923,4.9134969,9.4696125,9.8129534,14.2696575,14.6487783,12.1079792,12.2019011,24.6889033,23.9539007,37.1426109,35.8190805,12.0562355,11.4909768,24.0245034,23.0641772,35.9832878,34.6576216,5.7916041,5.6073329,11.5204303,11.264281,17.4739292,16.7055385,6.1010011,5.5796335,12.3403781,11.0117647,18.5719236,16.4500807,12.0561112,10.5226918,24.0209131,21.1556778,35.1687745,32.5612803,2.9747547,3.0407792,8.8009621,2.4153253,12.7563201-.708267l.0078316-.0061847-.000012.0000095Z"/>
  <path class="st0" d="M261.202415,360.6525036c4.3242112-3.4148799,5.9797837-9.6280715,2.9484002-13.0955866-4.5803699-5.2514103-9.3428497-10.3462907-14.2012004-15.3527059-11.4622499-11.8199082-23.409838-23.2055593-35.0699379-34.8564685-11.6415078-11.6273664-22.9909945-23.4980999-34.1942975-35.5225014-6.1676568-6.6483172-12.327487-13.3027763-18.6145337-19.8440553-11.6601834-12.1350542-23.9692518-23.6557167-36.0614552-35.385904-5.8738278-5.6953004-11.6613109-11.4588271-17.3042624-17.3619625-2.9417094-3.0795913-5.859871-6.1778174-8.8172437-9.2450392-1.4849139-1.5414476-2.9916853-3.0783693-4.5158198-4.5888245-1.4588509-1.4600897-2.9090676-3.0544085-4.6524781-4.2133279-3.2022257-2.1348262-8.1456467-1.5694074-11.8106595,1.3248959-3.3353657,2.6339771-4.8401225,6.4726875-4.353011,9.9616394.138936.9988485.6227979,1.78902,1.0219576,2.6333467-.0785258-.1800928-.1570515-.3601856-.243385-.5341125.6983687,1.4490297,1.7279406,2.6237497,3.1491214,3.3745361,1.2902938,1.1981952,2.5066124,2.4802798,3.7262539,3.7342699,2.0670295,2.1011071,4.1026366,4.2270288,6.1304549,6.3591402,5.7933396,6.0774186,11.6213474,12.1020278,17.5749298,18.0274303,5.8837471,5.8531222,11.9120739,11.5665977,17.9073742,17.3189092,6.1039237,5.8576561,12.176521,11.740051,18.1061426,17.7480713,5.6689393,5.7424278,11.1792587,11.6228743,16.6817225,17.5095244,4.8538169,5.2265918,9.6935934,10.4515556,14.5647444,15.6517426,11.3838077,12.1239604,23.0551037,23.9826628,34.9101904,35.6707143,11.3770618,11.2118456,22.8892246,22.3042456,33.7887849,33.9441206,1.9947252,2.1709613,3.9502682,4.3728652,5.8822445,6.59338,1.4621821,1.6740746,3.4592759,2.7345975,5.9795776,2.7957664,2.5343609.0628208,5.2531992-.8992593,7.4427515-2.6283742l.0236336-.0186248Z"/>
  <path class="st0" d="M197.9723697,425.8512131c.3453104-.2726956.6782324-.5610784.9925434-.873028,4.0543786-3.9663316,4.5789304-9.8852293,1.1799466-13.0114664-.399124-.3601438-.7965482-.7343846-1.1878167-1.1007321-5.8303932-5.3983296-11.2349701-11.2093816-16.8580349-16.7969114-5.7052885-5.6754973-11.427911-11.3245899-17.2054748-16.9302948-11.6840428-11.3262-23.4056447-22.6354549-34.5320449-34.4657663-4.0407415-4.3906223-7.9951006-8.849423-11.9887565-13.2772293-11.3884241-12.6299963-23.348502-24.7575711-34.9600136-37.1859221-3.6126641-3.9131586-7.208013-7.8527458-10.8363883-11.7534971-.2231043-.2825136-.4697942-.5464402-.7399841-.7917698-.1549398-.196198-.3255908-.3799887-.5040495-.5576135-.3706305-.4208706-.7663838-.8091467-1.1465407-1.2097785-.0309804-.03923-.0557761-.0706284-.094631-.1036787-.0433877-.0549412-.0867754-.1098824-.1379997-.158596-.0495724-.0627728-.113223-.1272215-.170651-.1837907-.037184-.0470856-.0884273-.0958231-.133467-.1367051l-.0805717-.1020268c-.7028001-.7446842-1.3977155-1.4956338-2.1005156-2.2403179-5.7895938-6.1695817-11.6263211-12.3019415-17.4064552-18.4917482.2528747.2717582.5057014.5435543.7523914.8074809-5.6429693-6.1452269-11.1463337-12.3879467-16.6166239-18.6695403-2.7103734-3.1093795-5.4504692-6.2080415-8.3116164-9.1856179-2.1566857-2.2469395-4.3873276-4.4099657-6.5927603-6.6056739-.3702637-.7269808-.8644117-1.368864-1.4750302-1.8678086-.4631497-.3605618-.9105788-.7335188-1.3831882-1.0738556-1.902931-1.3769704-4.4633165-1.521199-7.0397527-1.1048067-3.4034225.5470369-6.7589759,3.4135721-8.2960914,6.4368445-1.4342622,2.8146373-1.4214392,5.7352084-.2119741,8.1058028.8206572,1.620033,2.3216012,2.8430009,3.6114625,4.1052526.7792236.7608013,1.5646413,1.5294463,2.343817,2.2902855,1.5505916,1.5278063,3.0619052,3.0866309,4.5716054,4.6594649,2.7719028,3.0098286,5.4732011,6.0754144,8.1570695,9.1674806,5.4765228,6.2893874,11.022017,12.5371008,16.712053,18.6451197,5.6202196,6.0357625,11.3362623,11.9830977,16.9582007,18.004787.1859202.235428.3892225.4444134.6003324.647233.0805717.1020268.1611435.2040536.2433672.2920211.3685366.4989745.7920623.9545234,1.2704812,1.3667225.2730896.2813036.5400046.5546898.7990351.8343415-.0619797-.078484-.1458553-.1523923-.207835-.2308763.113223.1272215.228079.2403599.342906.35356l.0991638.1255696c.0495724.0627728.1148749.1131623.1661182.1618998.1549398.196198.3255908.3799887.4961939.5638172-.2528747-.2717582-.5057014-.5435543-.7523914-.8074809,1.1432179,1.237873,2.2864358,2.4757459,3.4296726,3.7136428,5.6198256,6.0997693,11.2256108,12.1979105,16.949134,18.2030728,5.8879227,6.1811352,11.8151232,12.3312521,17.6700195,18.5512233,7.2022513,7.7808456,14.1500407,15.7881133,21.3993776,23.5317749,5.6375827,6.009296,11.4729863,11.8496547,17.365031,17.6325286,5.9944644,5.8803629,11.9654289,11.7793228,17.9991233,17.6287053,5.7201168,5.5491118,11.3836885,11.1556326,17.0174897,16.7729088,5.7052885,5.6754973,11.2110751,11.5340529,17.1410072,16.9939214,3.1287939,2.8809075,8.6832481,2.5082854,12.7013789-.6648793l.0017377-.0140492Z"/>
  <path class="st0" d="M50.6823808,315.5472287c.3139359-.2479189.6154356-.5114871.9124314-.797008,2.7008794-2.5661471,5.4669945-5.0818908,8.2314577-7.5835754,14.5262567-13.1662536,29.2433895-26.139257,43.8270742-39.2489414,3.7884289-3.3995271,7.5549619-6.7944786,11.3433429-10.1939679,2.1094224-1.8951863,4.2249817-3.7825031,6.3406078-5.6698338,1.1527863-1.0250441,2.3646714-2.0075544,3.4707951-3.059483.274658-.2169006.5493639-.4338391.8054299-.6742825.4159627-.3284906.8008971-.6961734,1.1796758-1.0717496.1899943-.1627954.3800076-.3255669.5637983-.4962179.4551927-.359471.8996011-.7486506,1.3176098-1.1552072.0706523-.055795.1350532-.1194077.1995208-.1830343.2119091-.1673471.411382-.3503436.5968436-.5350299,3.8883618-3.401995,7.7689349-6.7978003,11.6758887-10.1762526,15.4065134-13.3262507,30.9465417-26.5158341,46.6476416-39.5013072,15.9460594-13.1916751,32.0858706-26.154107,47.591531-39.838947,7.8242751-6.9052376,15.5725063-13.8905684,23.1608708-21.0299811,7.500378-7.0572131,14.9371433-14.1788269,22.4329646-21.2579119,14.8218922-13.985891,29.8301654-27.8003747,44.2872367-42.135274,14.0452902-13.920506,27.4056033-28.4341159,42.2457949-41.6062209,2.5377256-2.2079518,5.0816789-4.408067,7.6503969-6.5767983,2.3960817-2.0323595,4.7677669-4.1601671,7.233653-6.1202607,1.0974928-.6755772,2.0945879-1.5266904,2.9664708-2.584762,1.7012437-2.0570538,2.6229091-4.5688082,2.5486188-6.905686-.0800879-2.4087496-1.2333505-4.5306618-3.1494725-5.795275-1.7777162-1.1700335-4.4306976-1.7380647-6.8744908-1.0569255-1.4143812.4033915-2.7915784.8538686-4.0807244,1.706267-1.1102992.7239156-2.0900362,1.5486052-3.0871314,2.3997184-1.7302378,1.4555939-3.4543028,2.9190288-5.1923841,4.3808168-3.4621464,2.925223-6.9135563,5.8801924-10.3075193,8.891755-15.2309356,13.4679255-28.9138093,28.3636954-43.2986243,42.6287783-14.4162133,14.2898786-29.3942982,28.0295812-44.1691048,41.9782882-7.4801341,7.0666966-14.9090248,14.1821308-22.4015662,21.2331162-7.4689796,7.0324174-15.1102572,13.8950604-22.8073108,20.6870751.3345739-.3024421.6753275-.5970096,1.0239178-.8978048-6.8800702,6.0194033-13.8221012,11.9603465-20.8773312,17.7740493-15.9551678,13.1478884-31.9350884,26.2643834-47.7274609,39.6022661-7.802027,6.5945827-15.5589664,13.2300096-23.2866064,19.9187874-3.6306439,3.1474924-7.2612878,6.2949848-10.8795912,9.4582022-.9846878.8668244-1.9677237,1.7195895-2.9524115,2.5864139-.2982248.2355116-.5840612.4867104-.8574903.7536203-.2119091.1673471-.4035743.3441778-.6030283.5271983-.2275724.1797166-.4349488.3689546-.6439292.572214l-.156968.1239594c-.1899943.1627954-.3738039.3334225-.5559427.4900142l-.0863156.0681644c-.2466064.2202184-.4915419.4264015-.7302448.6403784-1.0202199.8056796-1.9693756,1.7336488-2.922708,2.5756725-2.0024209,1.7724608-4.0064938,3.5589808-6.002759,5.3393351-7.47606,6.6684732-14.8946919,13.3935156-22.3645482,20.0698444-7.3914152,6.614344-14.8154148,13.2034795-22.2068111,19.8178475-7.2562952,6.4949224-14.5795449,12.9535146-21.6309817,19.6434389-4.10397,3.9035349-4.5417463,9.9323149-1.172091,13.0052628,3.2081367,2.932925,8.72413,2.4632458,12.7893465-.747103l-.0173719.0263568Z"/>
  <path class="st0" d="M94.9767958,370.1198106c.3139359-.2479189.6154356-.5114871.9107795-.7829488,14.9198448-13.6682393,29.8847482-27.2955728,44.8124487-40.9700158,14.9983528-13.730238,29.7174022-27.7495494,44.9313977-41.2550769,10.454544-9.1735173,21.0532434-18.1805452,31.5697671-27.2755784,15.7551466-13.6270408,31.2760155-27.5023399,46.8774751-41.2755883,10.3413628-9.0586663,20.7339638-18.0685522,31.2025659-26.99835,15.312802-13.0738358,30.8768078-25.861878,46.2391822-38.872941,15.89935-13.4605893,31.7288646-26.9934589,47.4963996-40.6048125,8.3996636-7.257669,16.7542927-14.5562629,24.9816774-21.9836823,3.846657-3.470981,7.6032586-7.0237447,11.3350526-10.6078975,1.6058912-1.5485216,3.2134224-3.1110931,4.7152181-4.7430255,1.4530392-1.5807131,2.9668172-3.1329421,4.2752469-4.8160906,1.1589303-1.5013525,2.1777959-3.0832588,2.8116506-4.781594.8006823-2.1486368.7053848-4.1248597.133373-6.0432105-1.0125779-3.3798056-4.5790822-4.9593808-8.320866-4.7440225-2.5231836.1449485-4.7537014,1.434958-6.8966209,2.9488754-1.7868607,1.2709588-3.1630151,3.287882-3.8782048,5.2543287-8.5910603,9.1290261-18.1592025,17.4241706-27.563799,25.7812479-9.786649,8.5186427-19.610506,16.9902188-29.4669714,25.4366051-15.7386423,13.4865771-31.5223053,26.9322962-47.4237431,40.228879-16.1149749,13.4779702-32.1382236,27.023688-48.0329989,40.7482406-15.5147678,13.3989858-30.7597208,27.1073318-46.13647,40.6649374-15.0132826,13.1303871-30.2467886,26.0142107-45.2353423,39.1760101-7.8680808,6.9143221-15.559307,14.0202906-23.2257374,21.1576574-7.5061586,6.9852889-15.0371419,13.9392412-22.6007286,20.867961-15.0375828,13.7612184-30.106117,27.4831449-45.1234558,41.2538469-4.181594,3.8374443-4.4843662,9.9889219-1.1799466,13.0114664,1.621196,1.4720492,3.9718309,2.1896421,6.4722648,1.9352292,2.2909938-.2292003,4.429029-1.2167856,6.3125488-2.7042231l.0078367-.0062276Z"/>
  <path class="st0" d="M141.4889773,438.0532635c.3139359-.2479189.6232912-.5176908.9202391-.8031738,5.6454175-5.3884488,11.1123474-10.9544607,16.6552973-16.4403606,5.7441226-5.6829935,11.4307504-11.4225423,17.1624846-17.121223,6.9010008-6.8641696,13.9556936-13.5821746,20.9451217-20.3505211,7.0633365-6.8522221,14.2957199-13.5066321,21.6771667-20.0366927,13.6423835-11.9458514,27.4087743-23.7347727,41.0759724-35.6492018,15.3334221-13.3704504,30.7242483-26.6843127,45.9940199-40.1192118l.0549412-.0433877c.3374548-.266492.6625212-.5486712.9690006-.854436.1098824-.0867754.2056816-.1751838.3093792-.2697908.3531659-.2788993.6877159-.5813224,1.000375-.8792128l.078484-.0619797c.3250664-.2821792.6501139-.5643823.9690006-.854436.3374548-.266492.6703768-.5548748.9925434-.873028l.1883424-.1487362c.3217676-.2541036.6311468-.5238944.9124075-.7969891l-.1334252.1053674.1334252-.1053674c.0313984-.0247957.0627728-.0495724.0879676-.0822237.1883424-.1487362.3643204-.3131785.5464591-.4697703,9.6160637-8.4603798,19.0986605-17.0574648,28.5829092-25.6686089,15.3180265-13.9062377,30.5274485-27.9177961,46.0487533-41.6150294,5.4021936-4.712161,10.8089388-9.4024072,16.2669085-14.0439398,15.2702492-13.0147609,30.9702037-25.5660983,46.8015553-37.9026457,8.1424462-6.3409796,16.2972568-12.6662531,24.4892754-18.9444598,4.1792445-3.2111931,8.3646618-6.4145451,12.5439064-9.6257382,2.1829735-1.6729398,4.3597433-3.3537351,6.5303095-5.042386,2.1218287-1.6374077,4.5939602-3.3475732,6.3216516-5.3872879,2.9849196-3.5295281,3.3366082-8.2797573,1.0186955-11.2148954-2.3303011-2.9508253-6.9347636-3.6342238-11.0703874-1.6424966h0c-.8756941.4239699-1.6910793.940459-2.4242409,1.5449157l.0627848-.0495819c-3.6223943,3.077282-7.4992981,5.8968126-11.2720995,8.7997874-3.975191,3.0500496-7.9503939,6.1001087-11.925566,9.1501823-7.7793907,5.9778201-15.548009,11.9853584-23.2980403,18.0164823-16.1531191,12.590651-32.0736076,25.4435767-47.7523808,38.6025828-15.7651317,13.2271655-31.0497138,27.0305415-46.2206978,40.8971084-15.386192,14.0619896-30.7971557,28.0925619-46.3990144,41.9298599-.313912.2478999-.6170875.5255463-.9062038.8048447-.1098824.0867754-.2135371.1813874-.3093792.2697908-.3531659.2788993-.6877159.5813224-1.000375.8792128l-.078484.0619797c-.3250664.2821792-.6422823.5581976-.9690006.854436-.3374548.266492-.6625212.5486712-.9768322.8606207-.0627728.0495724-.1255696.0991638-.1821388.1565918l-.0627728.0495724c-.2982248.2355116-.5762056.4805067-.8417791.741213-11.0906176,9.7395276-22.2712955,19.3973152-33.380505,29.1133-15.4560869,13.5055453-31.0005823,26.9152915-46.5017088,40.3799548-7.8581792,6.8300525-15.6853113,13.6993211-23.251761,20.8341822-7.2145605,6.8059903-14.2939833,13.7346504-21.4123088,20.6302981-6.9328161,6.7109235-13.6777139,13.5792469-20.5142471,20.3797899-6.6511195,6.6158946-13.2419302,13.3243084-20.0483836,19.8080118-4.0977663,3.9113904-4.5417463,9.9323149-1.172091,13.0052628,3.1940775,2.9312731,8.7162744,2.4694494,12.7814909-.7408994l-.0170447-.0376361Z"/>
</svg>